<?xml version="1.0" encoding="utf-8"?>
<!-- Generator: Adobe Illustrator 21.0.0, SVG Export Plug-In . SVG Version: 6.00 Build 0)  -->
<svg version="1.1" id="Layer_1" xmlns="http://www.w3.org/2000/svg" xmlns:xlink="http://www.w3.org/1999/xlink" x="0px" y="0px"
	 viewBox="0 0 2032.6 1109.2" style="enable-background:new 0 0 2032.6 1109.2;" xml:space="preserve">
<style type="text/css">
	.st0{opacity:0.27;}
	.st1{clip-path:url(#SVGID_2_);}
	.st2{fill:#DFDFDF;}
	.st3{fill:#F4F4F4;}
	.st4{fill:#FEFAFB;}
	.st5{fill:#F4D7DB;}
	.st6{fill:#E6939F;}
	.st7{fill:#F4D5DA;}
	.st8{fill:#F4D9DD;}
	.st9{fill:#E79AA4;}
	.st10{fill:#E798A2;}
	.st11{fill:#FDF8F9;}
	.st12{fill:#E9A5AF;}
	.st13{fill:#C86F7B;}
	.st14{fill:#D37B87;}
	.st15{fill:#C16975;}
	.st16{fill:#E8E1BA;}
	.st17{opacity:6.000000e-02;}
	.st18{fill:#B0463D;}
	.st19{fill:#707070;}
</style>
<g>
	<g id="Group_10798" transform="translate(145.138 59.472)" class="st0">
		<g id="Group_10796">
			<g id="Group_10754">
				<g>
					<defs>
						<path id="SVGID_1_" d="M-135.5-58.6h2013.4c5.3,0,9.6,4.3,9.6,9.6v1088.3c0,5.3-4.3,9.6-9.6,9.6H-135.5
							c-5.3,0-9.6-4.3-9.6-9.6V-49C-145.1-54.3-140.8-58.6-135.5-58.6z"/>
					</defs>
					<clipPath id="SVGID_2_">
						<use xlink:href="#SVGID_1_"  style="overflow:visible;"/>
					</clipPath>
					<g id="Group_10753" class="st1">
						<g id="Group_10752" transform="translate(-120.579 -3.689)">
							<path id="Path_10238" class="st2" d="M241.8,1054l13.4,0l26.8,0l5,0l13.4,0l6.7,0c30.6,0.6,61.2-0.9,91.7,1.1
								c2.5,0.1,5,0.2,7.5,0.2c147.9,0,295.8,0,443.7,0c274.7,0,549.5,0,824.2,0c2.5,0,5-0.1,7.5-0.2l13.8,0c2.5,0.1,5,0.2,7.5,0.2
								c99.7,0,199.4,0,299.1,0c2,0,3.9,0,5.9-0.1c1.5,0.1,2.9-0.9,3.3-2.5c0-5.7,0-11.3-0.1-17c1.8-4.4,1.8-9.4,0.1-13.9
								c0-26.7-0.1-53.5-0.1-80.2c1.7-8.9,1.6-18-0.1-26.8c0.1-4.1,0.3-8.1,0.3-12.2c0-147.2,0-294.3,0-441.5
								c0-53.7,0-107.4-0.1-161.1c0-6.9,0-13.8,0-20.7l0-24.7c0-17.4,0-34.9,0-52.3c0-83.9,0-167.7,0-251.6c0-6.7-0.1-6.8-8.8-6.8
								c-142.3,0-284.6,0-427,0l-1.6,0c-1.3-3.7-5.3-2.5-8.3-2.5c-23.1-0.1-46.1,0-69.2-0.1c-3.3,0-6.7-0.1-9.7,1.3l-51.9,0
								c-3-2.3-6.9-1.3-10.4-1.3c-123.1-0.1-246.2-0.1-369.2,0c-2.5,0-5,0-7.5,0.1c-1.6-0.1-3,0.9-3.3,2.4c-0.5,0-1,0-1.5,0
								l-255.1,0c-4.3-2.7-8.6-3.1-13-0.1c-49.8,0-99.6,0.1-149.5,0.1c-5.8,1.1-11.6-1.5-17.4,0.2c-4.7-0.1-9.5-0.2-14.2-0.2
								c-83.9,0-167.7,0-251.6,0c-2.3-0.9-4.7-1.3-7.2-1.2c-15.5,0-31,0-46.6,0c-2.2,0-4.5-0.3-6.1,1.3l-174.7,0
								c-2.1-1.3-4.6-1.3-7.1-1.3c-13.3,0-26.7,0-40,0.1c-2.2,0-4.5-0.4-6.2,1.2c-23.6,0-47.2-0.1-70.8-0.1c-8,0-8.1,0.1-8.2,6.6
								c-0.1,8.3,0,16.6,0,24.9c-1,1.8-0.9,3.7-0.9,5.7c0,11.3,0,22.5,0,33.8c0,1.7-0.2,3.4,0.9,5v25.7c0,222.7,0,445.4,0,668.1
								l0,31.9l-0.1,18.6l0.1,49.6l0,2.6v3.8l0,101.5l0,131c0.2,0.7,0.9,1.2,1.6,1.3c12.8,0,25.7,0,38.5,0h3.3h57l10,0l11.7,0
								l36.9,0h68.7h3.3l10.1,0h3.3l18.4,0L241.8,1054z"/>
							<path id="Path_10239" class="st3" d="M-152,1155.4l1.7,1.3C-151.7,1157-152.3,1156.5-152,1155.4z"/>
							<path id="Path_10240" class="st3" d="M2135.4,1156.7l1.7-1.3C2137.4,1156.5,2136.8,1157,2135.4,1156.7z"/>
							<path id="Path_10241" class="st4" d="M787.9-56.1l255.1,0c4,2.4,3.2,6.7,6.2,9.6c6.7,6.2,12.2,13.2,20.6,18.4
								c3,1.8,6.9,4.1,7.5,6.6c1.8,7.2,9.3,11.4,13.3,17.3c2.5,3.8,6.8,7,9.7,10.7c3.3,4,6.8,7.8,10.7,11.3
								c8.8,8.6,16.3,18.3,22.4,28.9c5.8,9.8,11.5,19.6,18.4,28.9c2.3,3.1,5.4,6,7.5,9.2c2.6,4,6.1,7.5,9.4,11.1
								c4.7,5.3,10.7,9.8,14.6,15.6c2.9,4.3,6.2,9.4,11.3,11.5c7.1,3,12.4,7.1,17.5,11.4c3.4,2.9,7.9,4.7,10.9,7.7
								c4.3,4.4,8.2,8.5,16.2,8.6c1,0,2,0.4,2.8,1.1c2,3.7,5.9,4.1,10.3,3.9c2.4-0.1,4.1,1.2,6,2.1c3.3,1.9,6.9,3,10.7,3.1
								c4.3,0.1,8.5,0.5,12.7,1.4c6.5,1.2,13.1,1,19.5-0.4c1.1-0.2,1.9-0.7,3.1-0.2c6.4,2.7,12.6,0,17.9-1.5
								c9.8-2.8,16.7-9.4,25-14.1c3.6-2.1,8.3-3.4,10.8-6.5c1.4-1.9,4-2.4,5.9-1c0.1,0.1,0.2,0.2,0.3,0.3c7.5,5.3,19.1,2.9,26.4,8.6
								c0.5,0.4,2.1,0,3.2-0.2c1.6-0.4,3.3-0.3,4.8,0.5c7.2,3.9,15.9,3.2,24,4.2c6,0.7,12.1,0.4,18,0.7c8.2,0.4,16.5-1.4,24.6,0.6
								c1.9,0.3,3.9,0,5.6-0.9c2.8-1,5.8-1.6,8.8-1.7c5.7-0.6,10.9-2.5,16.6-3.4c7.6-1.2,13.1-6.1,20.6-7.6c1.8-0.4,3.4-1.4,4.6-2.7
								c2-1.9,4.6-2.9,7.3-4.1c9.4-4.1,18.4-8.6,23.6-16.3c0.8-1.2,2.5-1.8,3.3-2.8c2.5-3.3,8.4-4.2,9.8-8.2
								c4.1-0.5,7.1-4.1,11.1-3.4c7.4,1.3,13.5-1.4,19.7-3c7.2-1.9,14.8-2.7,21.7-5.2c1.6-0.6,3.5-1.5,5.6-0.7
								c2.1,0.8,3.7,0,5.4-0.8c8.6-4,17.6-7,26.9-8.9c3.6-0.7,8-1.8,10.4-4.7l3.3-0.6c2.1,0.3,3-0.6,3.5-2c0.5-0.1,1.1-0.2,1.6-0.4
								c11.7-2.4,22.3-6.8,32.9-11.3c12.2-5.1,25-9,37.7-13.2c7.6-2.5,15.6-4.5,23.1-7.2c13.3-4.8,26.8-9.2,40.8-12.8
								c4.6-1.2,9.3-1.2,13.8-2.4c10.8-2.8,21.7-5,33.2-4.6c2.5,0.2,5,0.1,7.5-0.4c8.7-2.3,15.8,0.8,23,3.5c1.9,0.6,3.3,2.2,3.7,4.1
								c0.8,4,2,8.1,1.5,12c-1.7,11.7-6.9,22.6-13.6,33.3c-3.5,5.5-8.6,10.5-9.6,16.9c-2,0.6-2.6,2.1-3.7,3.3
								c-3.1,3.3-3.4,7.6-6.4,10.9l-1.6,3.8c-6,2.5-6.6,7.6-9.3,11.6c-6.5,9.6-10.8,20-15.8,30.1c-5.8,11.8-9.6,23.9-13.4,35.9
								c-2.9,8.8-3.7,18.1-2.5,27.3c1.1,7.6,2,15.3,9.6,21.2c4.6,6.1,13.1,8.2,20.3,11.5c13.1,5.9,27.9,5.1,42.1,4.4
								c12-0.6,24.2-2.1,35.8-5.6c6.4-1.9,12.9-3.7,19.5-5.2c14.2-3.3,27.2-8.6,40.4-13.6c6.1-2.3,12.3-4.4,18.9-6.8
								c0.6,2.7-1,4.5-1.9,6.4c-4.8,9.5-11.1,18.6-14.1,28.6c-2.5,7.8-2.7,16.2-0.7,24.2c2.8,10.5,13.5,15.1,25.9,17.7
								c0,53.7,0,107.4,0.1,161.1c0,147.2,0,294.3,0,441.5c0,4.1-0.2,8.1-0.3,12.2c-1-0.1-2.2,0.2-2.9-0.7c-1-1-2.4-1.4-3.7-1.2
								c-6.7,2.4-11.7,5.7-12.5,11.9c-0.6,4.8-2.4,8.9,4.8,12.5c4.7,2.3,8.4,5.2,14.5,4.4l0.1,80.2c-1.1-0.2-2.2-0.4-3.3-0.4
								c-13.7-0.3-27.3-2-40.6-5.1c-7.6-1.7-15.2-3.8-23.2-4.5l-2.7-0.4c-2.2-2.6-5.6-2.5-9-2.5c-0.2-0.2-0.5-0.3-0.7-0.2
								c-1.4-1.6-3.6-1.9-5.9-2c-13.1-4.2-26.7-7.1-40.4-10c-6.9-1.5-14-2.9-21.2-2.1c-6.2,0.7-12.3,2.1-18.2,4.2
								c-7.9,2.7-15,6.1-22.4,9.5c-6.6,3-12.5,6.6-15.9,11.7c-3.2,4.8-7.9,5.2-13.8,5.2c-7.9-0.2-15.8-1.4-23.5-3.5
								c-7.4-1.9-15-2.5-22.3-4.9c-10.3-3.4-21.1-6.5-33-4.9c-7.6,1-14.4,3.1-19.5,7.4c-11,9.5-15.7,20.8-15.5,33.4l-831.8,0
								c-9.7-8.1-16.9-17.7-28-25c-9.7-6.3-18.2-13.6-27.2-20.5c-8.4-6.4-16.8-12.8-25.1-19.2c-7-5.5-12.4-12.2-20.6-16.8
								c-13.5-7.5-27-14.9-41.4-21.3c-12-5.3-24.9-7.3-38.3-7.6c-18.4-0.4-36.9-0.1-55.3-0.1c-2.5-0.1-5,0-7.5,0.4
								c-5.3,1.2-9.9-0.1-14.3-1.9c-21.3-8.9-35.8-23.1-49.2-38c-2.7-3.3-5.7-6.4-8.9-9.2c-5.4-4.3-10.5-9.1-15.2-14.3
								c-10.2-11.7-22.2-21.8-35.5-29.9c-7.1-4.4-14.7-7.8-22.6-10.2c-7-2.1-14-3.7-21.1-5.5c-5.3-1.3-11-1.2-16.1-2.8
								c-5.4-1.8-11.2-2.3-16.9-3.2c-8.6-1.2-17.3-0.3-25.8-1.3c-12.5-1.5-23.9,2.6-35.9,3.3c-1,0.1-1.9,0.9-2.9,1.2
								c-8.8,2.6-17.1,6.5-24.6,11.6c-9.6,6.5-18.7,13.5-26.1,21.5c-6,6.5-12.6,13-14.9,21.1c-0.5,1-1.1,2-1.9,2.8
								c-5.4,6.7-7.3,14.2-8,22c-0.8,0.1-1.6,0.1-2.5,0c-12.7-4.1-26.8-2.9-39.7-6c-1.9-0.4-3.9-0.5-5.8-0.2
								c-3.8,0.4-7.7,0-11.4-1.3c-5.7-2.1-11.9-2-17.6-3.6c-2.1-0.6-4.3,0.1-6.5-0.7c-9.5-3.3-20.1-4.3-29.8-7.3
								c-7.9-2.5-15.3-5.4-19.3-11.9c-1.7-2.9-1.6-6.3-4.7-8.7c-2.4-2.9-3.9-6.5-4.3-10.3c-0.5-3.6-3.9-7-1.8-10.9
								c0.2-0.4-0.5-1.2-0.9-1.7c-3.9-4.7,1.2-10.9-4.4-15.3c1.7-3.1-0.5-6.3,0.1-9.2c0.5-2.6,0.2-4.5-1.8-6.4
								c-2.2-2.1,1.4-3.5,0.6-6.1c-1.7-5.3-4.5-10.4-5.5-15.8c-0.9-4.6,0.5-9.7-5.3-13.2c-0.2-0.1-0.2-0.4-0.2-0.6
								c-0.3-5.2-7.4-8.3-6.9-13.7c0-0.5-0.3-0.9-0.7-1.1c-6-1.9-7.7-6.3-10-10.3c-0.8-1.2-1.8-2.3-3-3.1
								c-8.1-5.6-13.8-13.1-23.6-17.4c-7.9-3.5-14.4-8.6-23.1-11.2c-6.6-2-13.3-4.1-19.1-7.1c-7.7-4-16-4.5-24.6-4.3
								c-6,0.1-12,0.8-18,1.3c0-222.7,0-445.4,0-668.1V19.8c4.4-0.7,7.4,1.1,10.3,3.2c1.4,1,2.5,1.8,5,1.3
								c7.1-1.5,10.1-8.1,18.2-8.3c0.3,0,0.5-0.7,0.7-1.1c2.9-3.8-0.3-9.4,5.9-12.3c0.1-0.1-0.2-0.8-0.5-1.1
								C11.6-2.9,8.7-7.6,4.7-12c-3-3.3-7.2-4.3-10.7-6.1c-5.8-3.1-12.1-5.3-18.5-6.5c0-8.3-0.1-16.6,0-24.9c0-6.5,0.1-6.6,8.2-6.6
								c23.6,0,47.2,0,70.8,0.1c5.9,4.6,10,10.2,13.6,15.9c3.4,5.3,5.7,6.6,13.2,6.1c3.2-0.2,6.6-1.2,9.9-0.3
								c-2.1,8.7,2.8,16.2,7.1,23.6c2.7,4.7,6.8,6.1,13.4,4.6c5.2-1.1,10-3.4,15-5c2.5-0.8,2-2.1,1.9-3.6c-0.4-3.7-3.5-6.8-4.1-10.3
								c-0.4-2.5-2.2-3.6-5.1-4.4c-7.4-2-15-3.9-21.5-7.5c-0.7-3,2.6-2.5,4.7-3.1c5.8-1.7,10.1-5.2,6.6-10.7
								c-1.1-1.6-1.6-3.6-1.3-5.5c58.2,0,116.5,0,174.7,0c6.9,2.2,13.5,5.2,20.9,6.5c10.1,1.8,18.5,6.4,27.9,9.5
								c7.8,2.5,14.4,7.1,23,8.4c3.4,0.9,5.7,3.2,8.9,4.4c13.6,5.3,26.9,11,40.2,16.7c2.5,1.1,5.1,1.7,7.9,1.8
								c1.5,1.6,3.4,2.8,5.5,3.6c7.7,2.7,15.5,5.2,23.3,7.7c18.4,5.9,36.7,11.2,57.4,9.7c12-0.9,24.2,0.1,36.3-1.7
								c11.6-1.7,22.1-4.5,29.9-11.6c11.5-5.2,16.8-14.4,24.2-22.2c4.4-4.6,8.6-9.3,13.3-13.7c3.7-3.6,8.9-4.6,15-3.6
								c8.1,1.2,14.8,4.5,21.9,7.2c12.8,4.9,24.8,11.2,39.2,13.3c1.6,0.3,3.2,0.8,4.7,1.4c7.2,2.5,14.6,4.3,22.1,5.4
								c8.7,2.8,17.3,5.9,27.2,4.4c5,2.8,10.5,0.9,15.9,0.9c10.4,0,20.6-2.9,29.4-8.5c0.9,0,1.3-0.3,1.2-1c1.2-1.1,2.4-2.2,3.5-3.3
								c1.9-0.6,3-1.6,2.8-3.2c0.8-2.3,4.1-3.8,3.7-6.5c3.1-4.6,2.9-9.3,1.2-14.1c0.1-0.8,0.1-1.6,0.2-2.4
								C790.1-50.1,787.5-53,787.9-56.1z M1964.2,896c1.1,2.9,4,2.5,6.9,2.4c0.9,0.1,1.8,0.2,2.7,0.4c6.8,2.4,8.9,1.7,10.3-3.3
								c0.8-2.9-0.5-5.4-2.7-7.6c0-0.7-0.1-1.4-0.1-2.1c1-0.1,2.1-0.3,3.1-0.4c2.3,1,3.8,2.7,7.2,2.8c6.5,0.1,8.2-3.6,10.9-6.8
								c2.8-3.2,1.6-6.1-0.5-8.9c-2.5-3.3-6.2-4.9-11.2-5.7c-7-1.1-11.5,0.5-12.1,5.6c-0.2,1.9-1.6,3.7-0.8,5.6
								c-2.3,1-4.9,0.8-7-0.6c-3.6-2.3-6.7-0.3-9.2,1.4c-1.9,1.4-3.4,3.2-4.6,5.2C1952.6,890.4,1954.8,894.1,1964.2,896L1964.2,896z
								 M62.4,54.8l-0.3-0.3c-0.7-3.9-4.9-5.2-8.7-6c-5.7-1.3-10.7-3-15-6.2c-2.3-1.7-5.2-2.8-8.1-0.8c-2.6,1.9-5.2,3.7-3.1,7.1
								c2.7,4.4,4.9,9,10.3,12c0.7,2.9,4.6,3.4,6.4,5.5c2.2,2.5,5.8,2.7,8.9,2.1c4.2-0.8,8.5-2.2,11.3-4.9c2.6-2.5,0-5.2-0.7-7.8
								L62.4,54.8z M134.6,28.7c-3.6,1.8-5.3-1.1-7.9-1.9c-5.9-2-12.4-1.7-18.2,0.8c-5.5,2.2-3.6,5.7-4,8.9
								c-0.1,0.8-0.2,1.7-0.1,2.6c0.9,5.6,3.7,10.4,9.7,14c2,1.2,3.2,1.1,5.7,0.7c4.8-0.7,9.5-2.5,13.6-5.1c6.1-3.6,7.7-5,4-9.8
								c-1.9-2.5-1.6-4.3,0.4-6.3c1.1-0.3,2.2-0.1,3.1,0.4c7.6,4.4,10.3,4.3,17.9-0.1c2.2-1.3,4.5-2.4,6.9-3.4
								c4.3-1.6,4.4-4.1,4.5-7.5c0.1-3.7-3.9-5-4.9-7.8c-1.4-3.8-5.4-5.9-9.9-6.9c-4.6-1-9.5-2.8-14.4-1.1
								c-8.7,3.1-11.7,8.9-8.3,15.9C133.8,24.3,135.8,26.2,134.6,28.7L134.6,28.7z M1947.2,973.5c1.7,2-0.1,5.1,2.9,7.4
								c2.2,1.7,4,3.9,5.2,6.3c1.5,2.6,4.2,5.8,8,6.1c4.4,0.4,7.7,2.2,11.6,3.2c1.8,0.5,4,1.7,5.4,0.2c4.5-4.7,11.7-7.9,13.4-14.2
								c0.7-2.7,1.3-5.2-2.5-6.7c-2.6-1-3.8-2.5-3.6-4.6c0.2-2.8-2-3.7-5-4.1c-1.9-0.2-3.7-0.7-5.3-1.5c-7.3-3.7-14.9-6.1-22.5-0.3
								c-0.5,0.3-1,0.4-1.5,0.5C1948.9,967.2,1947.9,970,1947.2,973.5L1947.2,973.5z M21.9,64c1.3-2.5-0.5-3.8-2.7-5.4
								c-2.3-1.8-5.8-2.3-7.2-5C9.5,49,1.2,45.4-5,45.5c-2.1-0.1-4.2,0.7-5.8,2c-1.6,1.3-3.3,2.4-5.2,3.1c-6.6,2.8-6.6,2.9-5.4,8.4
								c0.5,2,1.4,3.8,2.7,5.3c4.3,5.5,11.2,8.6,18,11.9c4.3,2.1,9.6,2.5,13.3,0.1C17.3,73.2,23.5,70.2,21.9,64z M152-41.9
								c-0.9,0.1-2.6,0-3.5,0.6c-3.4,2.5-6.5,5.2-9.6,7.9c-0.6,0.7-0.7,1.6-0.4,2.4c2.5,6.6,5.7,12.9,13,17.3
								c3.4,2.1,7.8,3.4,12.1,2.4c5.8-1.3,8.5-6.3,14.5-7.8c0.9-0.2,1.6-2.3,1.5-3.5c-0.2-5.1-3.7-9.6-7.7-12.8
								C167.1-39.1,159.6-40.6,152-41.9z M249.3-32.3c0-1.1,0.1-2.1,0.3-3.2c0.8-3.2-3.8-6.2-0.4-9.4c-2.5-1.9-0.9-5.5-5.5-6.6
								c-8.5-2.3-17.4-2.6-26.1-0.9c-9,1.9-11.2,6.3-6.6,12.5c1.2,1.7,2.7,3.2,4.1,4.8c4.9,5.5,12.9,6.6,20.4,8.4
								c1,0.3,2.1-0.1,2.7-0.9c1.3-1.4,3.2-2.4,4.2-3.9C244.2-34.1,246.7-33.2,249.3-32.3z M268.8,94.4c0.8,6.8,2.8,11.9,4.7,17
								c1,2.7,3.6,4.4,6.4,4.2c4.6-0.4,8.8,0.8,13.1,1.2c5.7,0.5,8.7-1.6,9.3-6c0.3-2.3-0.5-4.7,1-7c2-3.1,0.3-5.3-3-7.1
								c-5.4-3.1-11-5.7-16.8-7.9C275.2,85.8,268.7,88.8,268.8,94.4L268.8,94.4z M191.3,75.9c-0.1-7.3-9.4-15.2-19.6-18.1
								c-6.9-1.9-12.2-1.3-17.2,2.7c-3.3,2.6-4.6,6.5-1.5,9.1c4.6,3.7,7.3,8.4,12.3,11.8c2.9,2,6,4.3,9.9,3.6
								c5.9-1.1,11.3-3.7,15.8-7.6C191.5,77.1,191.2,76.3,191.3,75.9z M1872,970.4c-1.8-4.2-2.5-7.9-4.9-10.9
								c-1.6-2-5.4-3.5-8.6-4.1s-6.4-1.3-9.6-1.8c-9.5-1.7-17.3,5.9-14.6,9.9c2.9,4.3,5,9,9.1,12.8c4.5,4.1,6.3,4.4,12.9,2.8
								c2.4-0.6,4.8-1.1,7.2-1.6C1866.6,976.7,1871.9,971.8,1872,970.4z M70.4-13.6c-9-0.1-12.3,1.8-14.5,7.6
								c-0.7,1.7-0.7,3.5,0.9,4.9c4,3.5,7.7,7.3,13,9.8c10.2,4.8,11.5,4.7,21.4-1.7c1.2-0.8,3.1-0.8,3.8-2.3
								c1.3-2.9-1.3-11.3-4.9-12.8C83.7-10.9,77.7-14.9,70.4-13.6z M218.7,3.9c-1.1,0-2.2,0-3.3,0.1c-6.6,0.8-9.3,4.2-6.9,9
								c2.2,4.3,4.6,8.6,7.2,12.8c2.8,4.5,5.6,5.5,12,3.8c3.9-1,7.3-2.8,11.5-3.5c1.2-0.3,2.3-1.1,3-2.1c2.6-3.2-2.1-15.7-6.7-17
								C230.1,5.8,224.7,3.9,218.7,3.9z M1847.4,934.2c2.8-0.2,5.7,0,8.3-0.6c2.2-0.5,4.7-1.1,5.4-3.5c1.1-3.8,1.7-8.1-1-11
								c-4.1-4.5-9.3-7.9-15.1-9.8c-0.8-0.3-1.6-0.3-2.4,0c-4.1,1.8-8.9,2.5-12.7,4.8c-1.1,0.5-1.9,1.4-2.3,2.6
								C1825.2,924.2,1836.9,934.4,1847.4,934.2z M1694,920.7c-0.1-1.9-1.4-4.7-2.9-7.5c-2.8-5.3-10.2-8.2-17.8-7.5
								c-2.8,0.3-4.7,0.9-5.4,3.1c-1.2,3.7-2.5,7.4-3.5,11.1c-0.6,2.2,1.2,3.4,3.4,4.7c4.4,2.4,9.8,2.6,14.7,4
								C1691,931.1,1694.1,928.9,1694,920.7L1694,920.7z M1907.3,976.1c3.1,0.1,8.8-2.2,10.9-4c2.6-2.3,0.4-4.3-0.3-6.5
								c-0.9-2.9-2.9-4.6-6.1-6.3c-4.1-2.2-8.7-3.6-12.8-5.7c-4-2.1-6.3-0.1-8.8,1.4c-2.4,1.4-2.7,3.3-1.2,5.7
								c3.3,5.2,7.5,9.7,12.4,13.4C1903.1,975.3,1905.1,976,1907.3,976.1L1907.3,976.1z M1744.5,931.1c-0.2,1.3,0.5,2.6,1.6,3.2
								c2.4,1.4,4.8,2.9,7.3,4.2c5.1,2.6,9.4,2.7,13,0.6c5.1-3.1,6.3-6.6,4-11.2c-1.7-3.4-5-5.5-9-7.1c-4.6-1.8-9.5-1.1-12.4,2
								C1746.5,925.4,1747.7,929.1,1744.5,931.1L1744.5,931.1z M19-21.7c8-0.5,11.8-2.6,9.3-8.3c-0.9-2-1.1-4.7-3.6-5.6
								c-6.3-2.3-10.4-7.2-17.4-8.3c-4-0.7-6.8,1.8-6.3,5c0.2,1.6,0.9,3,2,4.1c3,2.9,5.7,6.1,8.1,9.6C12.7-22.7,15.8-21.8,19-21.7z
								 M350,122c3,0.3,4.9-0.7,6.2-2.6c0.8-1.3,1.4-2.8,2.3-4.1c3.1-4.4,3-5.2-2-8c-2.2-1.2-4.4-2.6-7.3-2.9
								c-2.1-0.2-3.6-2.4-6.1-1.3c-2.4,1.1-4.9,2.2-6.3,4.1c-0.8,1.3-1.5,2.7-2.1,4.1c-1.2,2.3,0.1,6.6,2.8,7.5
								C341.5,120.2,345.8,121,350,122z M1981.9,955c5.4-0.1,9.2-1.9,8.3-4.4c-0.9-2.8-1.6-5.8-5.3-7.7c-3.9-2.1-8.4-3.3-12.7-4.5
								c-4.4-1.3-9.4,2.1-8.7,5.5C1964.5,948.1,1975.9,955.1,1981.9,955L1981.9,955z M1931.3,928.2c0.2-0.9,0.3-1.7,0.2-2.6
								c-0.4-3.5-8.4-8.5-12.4-8.1c-4.8,0.5-8.9,4.9-8.9,9.5c0,4.7,2.5,7.1,8.5,7.7c1.9,0.1,3.9,0.1,5.8-0.1
								C1931.5,934.3,1931.5,934.3,1931.3,928.2L1931.3,928.2z"/>
							<path id="Path_10242" class="st4" d="M1575.6-56.1c142.3,0,284.6,0,427,0c8.7,0,8.8,0.1,8.8,6.8c0,83.9,0,167.7,0,251.6
								c-12.9,2.5-24.7,7.2-36.8,11.3c-20.2,6.8-40.3,13.4-61.8,17.4c-13.4,2.5-26.8,4.4-40.3,3.1c-16.4-1.6-21.4,1.8-29-16
								c-0.1-0.2-0.2-0.4-0.3-0.6c0.6-1.2,0.6-2.6-0.1-3.8c0.8-1.3,0.4-3-0.9-3.8c0,0,0,0,0,0c-0.8-3.9,1.3-7.6,1.8-11.4
								c1.6-12.1,5.1-23.9,8.9-35.7c2.2-6.9,7.1-12.8,9.6-19.5c2.7-7.1,8.3-13.4,9.8-20.9c1-0.7,2.4-1.2,3.1-2
								c5-6.5,7.5-13.9,12.9-20.2c0.6-0.7-0.1-2.1-0.2-3.1c2.3-0.7,3-2.4,4-3.9c6.3-9.3,10.7-19.1,15.9-28.7c5.2-9.7,6.7-19.8,6-30
								c-0.3-4.9-2.3-9.5-5.8-13.1c-7.8-7.7-17.5-13.5-31-14.6c-9.1-0.7-18.2-0.8-27.2-1.5c-12-0.9-23.3,1.1-34.6,2.4
								c-15.8,1.9-30.9,6.6-46.1,10.6c-10.5,2.7-20.9,5.6-31.2,8.9c-15.3,4.8-31.5,8.1-45.7,14.9c-1.3,0.6-3.2,0.6-4.8,0.9
								c-1.9,0.3-3.9,0.4-5.4,1.6c-2.9,2.2-6.7,3-10.6,3.5c-1.8,0.2-3.1,0.8-3.9,2.1c-8.5,1.8-16,5.5-24.7,7.2
								c-6.9,1.3-13.5,3.9-20.3,5.6c-9.4,2.3-18.9,4.9-28.7,6.4c0.2-2.6,0.5-5.1,1.1-7.6c0.8-3.6,2.9-6.9,3.4-10.4
								c0.9-6,1.4-12,2.2-18c0.6-4.5-0.6-8.9,1.2-13.6c1.1-2.9-0.6-6.9-0.8-10.6c-0.8-17.8-7.4-34.6-16.8-50.8
								C1581.4-46.6,1576.8-50.7,1575.6-56.1z"/>
							<path id="Path_10243" class="st5" d="M1565.4,105.6c-1.4,4-7.3,4.9-9.8,8.2c-0.8,1-2.5,1.6-3.3,2.8
								c-5.1,7.7-14.2,12.2-23.6,16.3c-2.7,1.2-5.3,2.2-7.3,4.1c-1.3,1.3-2.9,2.2-4.6,2.7c-7.6,1.5-13.1,6.3-20.6,7.6
								c-5.6,0.9-10.9,2.8-16.6,3.4c-3,0.2-6,0.8-8.8,1.7c-1.8,0.8-3.7,1.2-5.6,0.9c-8.1-2-16.4-0.2-24.6-0.6c-6-0.3-12,0.1-18-0.7
								c-8.1-1-16.7-0.3-24-4.2c-1.5-0.7-3.2-0.9-4.8-0.5c-1,0.2-2.7,0.6-3.2,0.2c-7.3-5.6-18.9-3.3-26.4-8.6
								c-1.8-1.5-4.5-1.3-6,0.4c-0.1,0.1-0.2,0.2-0.3,0.3c-2.6,3.1-7.3,4.5-10.9,6.5c-8.3,4.8-15.2,11.4-25,14.1
								c-5.3,1.5-11.6,4.1-17.9,1.5c-1.1-0.5-2,0-3.1,0.2c-6.4,1.5-13,1.6-19.5,0.4c-4.2-0.8-8.5-1.3-12.7-1.4
								c-3.8-0.1-7.5-1.2-10.7-3.1c-1.8-0.9-3.5-2.2-6-2.1c-4.4,0.2-8.3-0.2-10.3-3.9c-0.7-0.7-1.7-1.1-2.8-1.1
								c-8-0.1-11.9-4.3-16.2-8.6c-2.9-3-7.5-4.8-10.9-7.7c-5.1-4.3-10.5-8.4-17.5-11.4c-5-2.2-8.4-7.3-11.3-11.5
								c-3.9-5.8-9.9-10.3-14.6-15.6c-3.2-3.7-6.8-7.1-9.4-11.1c-2.1-3.2-5.1-6.1-7.5-9.2c-7-9.3-12.7-19.1-18.4-28.9
								c-6.1-10.6-13.6-20.4-22.4-28.9c-3.8-3.5-7.4-7.3-10.7-11.3c-2.9-3.7-7.1-6.9-9.7-10.7c-4-6-11.5-10.2-13.3-17.3
								c-0.6-2.5-4.5-4.7-7.5-6.6c-8.3-5.2-13.9-12.1-20.6-18.4c-3-2.8-2.2-7.1-6.2-9.6c0.5,0,1,0,1.5,0c130,0,260.1,0,390.1,0
								c-5.4,3.1-8.5,7.9-11.8,12c-5.3,6.7-11.8,12.8-17,19.6c-6.8,8.9-13.7,17.7-19.3,27.1c-5.5,9.1-9.2,19.2-11,29.8
								c-2.2,13.6-0.5,26.4,7.9,39c6,9,15.1,15.2,24.7,21.4c0.9,0.6,1.8,1,2.9,1.2c4.2,0.6,7.5,2.7,11.1,4.2
								c7.2,2.9,13.8,7.4,22.9,6.4c1.4-0.2,2.7,0.2,3.8,1c4.8,3.7,11.1,3.6,17.1,4c3,0.2,6.6-0.5,9.1,0.5c6.6,2.7,13.4,1.5,20.2,1.8
								c5.5-0.1,10.9,0.4,16.5-0.6c3.6-0.7,7.9,1.1,12,0.6c3-0.4,5.3-2.2,9.1-0.7c2.2,0.8,6.4-1.6,9.7-2.5c2.1-0.6,4.4-0.7,6.6-0.3
								c1.4,0.3,2.8,0.4,3.9-0.4C1556.5,105.2,1561.1,105.8,1565.4,105.6z"/>
							<path id="Path_10244" class="st6" d="M128,870.2c3.1,2.4,2.9,5.8,4.7,8.7c4,6.5,11.4,9.4,19.3,11.9c9.7,3,20.2,4,29.8,7.3
								c2.2,0.8,4.4,0.1,6.5,0.7c5.7,1.6,11.9,1.5,17.6,3.6c3.6,1.3,7.5,1.7,11.4,1.3c1.9-0.3,3.9-0.2,5.8,0.2c13,3.1,27,1.9,39.7,6
								c0.8,0.1,1.6,0.1,2.5,0c10,3.6,20,7.1,30,10.7c7.5,3.2,15,6.3,22.4,9.5c2.1,0.9,2.5,3.9,5.2,3.9c5.7,0.1,8.5,3.3,12.5,5.5
								c7.6,4.4,14.5,8.9,18.8,15.5c1.6,2.5,2.6,5.5,7.4,6.1c2,0.2,2.4,2.1,2.5,3.7c0.1,1,0,2.3,1.5,2.8c7.4,2.2,9.3,8.2,13.2,12.5
								c4.9,5.4,10.2,11,11.6,18.4c1.2,6.2,5.9,12,4,18.7c0,0.7,0.2,1.3,0.6,1.8c4.5,6.1,5,12.7,4.1,19.4c-0.2,1.7-1.6,3.5,0.4,4.8
								c3.8,2.5,2.3,5.3,1.1,8.1c-1.6,1-1.2,2.6-1.7,3.9c-30.5-2-61.1-0.5-91.7-1.1c-0.2-1.5-1.5-2.5-2.9-2.5
								c-2.3-0.1-3.4,0.8-3.8,2.4l-13.4,0c-0.3-1-0.5-2.1-2.1-2.2c-2.1-0.2-2.6,1-2.9,2.3l-26.8,0v-3.9c0-1.2,0.2-2.4,0.8-3.5
								c-0.1-0.8-0.4-0.2-0.6,0.3c-0.3,0.6-0.2,0.8,0.7,0.5c0.7-0.2,1.5-0.4,1.6-1.1c0-0.2-0.6-0.5-1.6,0.2c-3.6,1-6.3,0.9-8.8-0.4
								c-3.2-1.7-3.6-3.3-0.9-5.6c2.3-2.1,4.3-4.3,6.2-6.8c1.9-2.4,0.3-4.6-0.9-6.7c-1.1-1.8-3.3-2.5-5.3-2
								c-0.1,0.5-0.3,0.7-0.2,0.9c1.7,3.2,1.7,3.2-2.3,4.3c-1,0.3-0.9,0.8-1.2,1.4c-2.3,5-6.6,6.6-12.2,4.3
								c-3.3-1.4-6.4-3.1-9.2-4.6c0.1-1,0.9-1.7,1.8-1.7c0.8-0.1,1.6-0.2,2.4-0.4c4.7-1.8,5.2-3.3,2.1-6.8c-1.8-2.3-3.1-4.9-3.9-7.7
								c-0.5-1.6-1.1-2.8-3.5-3.1c-0.3-2.4-2.6-2.6-5-2.6c1.5-5.5,1.5-5.5-5-6.4v-2.6c1.8,0.3,3.7,0.8,5.5,1
								c1.6,0.1,2.5-0.7,2.5-1.9c-0.2-2.4-5.3-5.3-9.7-5.5h-3.3c0.2-2-0.8-3.7-1.6-5.5c-3.2-7.2-14.8-8.3-21.9-2.2
								c-4.9,3.1-4.8,3.1-7-1.1c-0.4-0.5-0.8-1-1.4-1.5c0.5-3.4,7.4-3,7.1-6.9c-1.2-0.8-2.5-0.7-3.9-0.6c-5.9,0.5-5.8,0.5-5-4.1
								c0.4-2.1,3.3-4.3,0.1-6.4l0-3.9c2-1.7,3.5-0.5,4.9,0.5c2.3,1.8,5.1,2.9,8,3.2c7.3,0.8,13,2.7,13,9.5c0,1.5,2.1,2.4,3.6,3.4
								c1.3,1.1,3,1.3,4.5,0.6c1.5-0.7,2.9-2.3,2.1-3.2c-2.7-2.8-1-6.1-2.5-9.1c-2.2-4.2-0.8-5.8,5-6.3c2.8-0.2,5.6,0,8.4-0.2
								c2.9-0.2,3.4-1.9,3.2-3.8c-0.3-2.2-2.2-2-4.3-1.6c-5.2,1.1-10.3,1.7-15.1-1.1c-2.3-1.3-3.2,0.2-4.8,1.1
								c-9.8,5.3-19.8,4-26.8-3.5c-2-2.2-4.4-4-7.1-5.3c-2.5-1.2-2.3-2.8,0.8-3.6c1.3-0.3,2.8-0.4,2.8-2.2c-3.3-1.7-7.5-3-11.4-2
								c-3.2,0.9-3.5,0.2-4.6-1.7c-1.3-2.3-3.3-1.3-4,0.3c-1.3,3-1.3,5.9,2.5,8.1c2,1.2,2.6,3.1,0.4,4.4c-2.2,1.2-3.9,0.3-5.4-1.4
								c-2.5-2.9-4.3-6.2-9.1-7.9c-2.3-0.8-2.7-3,0.3-4.6c3.6-1.9,7.1-4.1,10.4-6.3c2.1-1.4,2.6-5.2,0.9-6.3
								c-2.7-1.8-4.5,0.3-6.5,1.2c-1.5,0.7-2.6,1.8-2.4,3.1c0.5,3.6-3.1,4.2-5.9,5.9c-2.9,1.9-4.3,4.8-9.4,3.4
								c-1.6-0.4-5.3,0.7-3.5,2.9c3.5,4.1,1,7-2.2,9.7c-2.5,2.2-3.7,4.3-1.8,6.9c1,1.4,3.9,2.4,4.7,0.7c2.2-4.7,8.5-5,12.4-7.6
								c2.5-1.7,3.9-0.8,5.3,0.9c1.4,1.6,1.1,4.1,3.6,4.9c5.3,1.8,4.4,4.9,3.2,8.1c-1.6,2.4-5.6,4.6-1.7,7.7
								c-0.2,3.9,2.6,5.8,7.2,6.8c4.3,0.9,5.8,2.7,5,6.6c-1.1,6-2.3,12.1,1.2,18.1c1.6,2.7,3,3.3,6,1.3c0.7-0.3,1.5-0.5,2.3-0.6
								c0,1.7,0,3.6,2.3,4.5c6,2.1,7.5,6.4,9,10.6c0.9,2.4,1,5,3.8,6.8c-0.2,4.6,4,9.6-2.5,13.6c-1,0.6,0.2,2,1.5,2.5
								c1.7,0.7,3.6,0.4,3.9-1.1c0.7-3.8,3.7-4.9,8.1-4.7c3.1,0.2,4.5-2.4,7.4-2.5c0,0.9,0,1.7,0,2.6c0,1.9,0.2,3.6,3.3,3.9l0,0
								c1.4,5,5.3,7,11.9,6.5c2.7-0.2,5.5,0,8.2,0c2.3,2.6,4.3,5.4,8,0.7c1-1.3,3.6-0.6,5.4-0.7c-0.8,3.4,4.2,5.6,3.4,9l-18.4,0
								c-0.3-1.1,0.5-3-1.7-3c-2.2,0-1.4,1.9-1.7,3l-10.1,0c-0.3-1.1,0.5-3-1.7-3c-2.2,0-1.4,1.9-1.7,3h-68.7
								c-0.8-4.7-1.9-6-7.8-6.2c-6.2-0.2-11.6-0.1-11.2-6.8c0.1-1.8-2.8-2.4-5.1-2.4c-2,0-4.2,0.1-4.9,1.7c-0.9,2.1,2.3,1.9,3.4,3
								c2.3,2.2,1.9,3.3-1.9,4.3c-4.3,1.1-8.4,2.3-9.2,6.4l-11.7,0c-0.4-2.4-1.8-4.6-5.2-4.6c-3.5,0-5,1.9-4.8,4.6h-57
								c-0.2-0.8-0.3-1.8-1.7-1.8c-1.4,0-1.5,1-1.7,1.8c-12.8,0-25.7,0-38.5,0l-1.6-1.3c0-43.7,0-87.4,0-131
								c8.1-1.4,14.5,0.9,19.5,5.6c2.5,2.4,4.9,2.6,7.8,0.9c2.2-1.3,4.3-2.8,7-3.4c1.6-0.4,3.3-0.7,4.7,0.3c1.4,1,0.9,2.2,0.4,3.5
								c-1.7,3.9-0.6,5.2,4.3,4.3c5-1,9.9-0.8,14.9-0.9c2.5-0.1,5.1,0.1,7.2-1.1c2.8-1.6,5.4-1.9,8.3,0c1,0.9,2.6,0.7,3.4-0.3
								c0.2-0.2,0.3-0.5,0.4-0.7c1-2.9-3.3-5.8-7-4.6c-1.5,0.5-2.8,1.7-4.2,0.2c-1.4-1.4,0.5-2.1,1.5-3.1c2.4-2.6,1.7-3.4-2.2-4
								c-6.8-1.2-13.5,0.3-19.6,1.6c-5.3,1.2-9.2,0.7-13.9-0.5c2.4-4.8,5.3-8.5,12.2-8.9c1.4-0.1,2.9-0.2,3.4,1.2
								c0.5,1.4-0.8,1.9-2.2,2.2c-0.5,0.1-1.1,0.2-1.6,0.3c-1.1,0.4-1.9,1-1.2,2c0.6,0.9,1.7,1.3,2.7,1.1c2.3-0.6,4.2-2,6.9-2.1
								c2.1-0.1,3.7-1,3.9-2.8s-1.1-2.9-3-3.4c-4.2-1.3-7.3-3.9-11-5.8c-2.1-1.1-2.7-2.4-0.7-4.3c4.9-4.4,4.8-7.1,0.4-12.1
								c-1.2-1.4-2.2-2.9-3.1-4.5c-0.8-1.1-0.7-2.7,0.2-3.7c0.8-0.9,2.8-1.9,3.2-0.7c1.2,3.8,5.3,3.6,8.7,4.7c2.6,0.8,5.6,2.4,5,5.3
								c-0.7,3.3,1.9,3.2,4.5,2.6c3.5-0.8,4.6,0.2,4.7,2.7c0.2,1.6,0.5,3.1,0.9,4.7c-4,0.6-7.3,2.2-10.7,3.6
								c-1.8,0.7-2.1,1.9-1.5,3.3c0.8,1.6,2.6,1.6,4.1,0.9c6.4-2.9,11.6-1.3,16.7,2c1.8,1.2,4.3,1.7,6.1,0.4
								c3.9-2.7,8.5-1.5,12.8-1.8c0.3,0.6,0.3,1.3,0.8,1.8c1.7,1.4,2.6,2.7,0.3,4.3c-1.8,1.3-3.2,1.2-5.1,0c-1.6-1.3-4-1.1-5.3,0.5
								c2.8,2.2,7.1,4.2,4.6,8.3c-0.5,0.9,0.8,1.9,2.1,2.5c3.3,1.7,15.7,0.7,16.7-1.9c1.3-3.6,4.6-5,7.9-6.7
								c2.3-1.1,3.6-3.6,3.1-6.2c2.1,0,4.1-0.9,5.5-2.6c1.4-1.8-1.1-2.6-1.6-3.9c-0.8-2.2-1.4-4.5-1.9-6.8c-0.3-1.5-0.6-3.2,1.3-4.1
								c2.8-1.3,4.4-2.8,2.7-5.2c-1.7-2.2-3.8-4.2-8-3.3c-2.1,0.5-4.3-0.4-5.4-2.2c-1-1.4-2.6-2.4-4.3-2.8c-2.5-0.8-5.7-7.2-4.3-8.7
								c2.5-2.7,5.9-1.2,9-0.5c0.3,0.1,0.5,0.1,0.8,0.2c7.7,1.9,7.7,1.9,4.4,7.3c-0.4,0.5-0.7,1.1-0.8,1.8c-0.1,0.9,0.7,1.6,1.9,1.9
								c0.8,0.2,1.6-0.1,2.1-0.7c0.6-1.2,1.3-2.4,2-3.5c3.3-4.2,7.5-7,14.7-6.8C117.7,868.9,122.7,870.5,128,870.2z M126,914.6
								c-2.3,2.3-4.4,1.7-6.2,1.9c-1.5,0.2-3.3,0.7-2.7,1.8c1.6,3.3-1.9,5.8-1.8,8.4c0.1,5.2-2.7,4.9-7.5,4
								c-2.5-0.5-5.9,0.1-6.1,2.3c-0.3,4.9-4.9,8-7.6,11.8c-1.3,1.9-1.3,3.3,1,4.3c2.3,1,6.1,1.4,6.7-0.5c1.3-4.2,7.2-6,8-10.3
								c0.3-1.1,1-2.1,1.9-2.8c1.9-1.7,4.7-0.9,7.1-1.3c4.4-0.7-1.1-3.2,2-5.1c6.3-3.8,10.1-8.5,9.5-15.9c-0.5-6.6-4.9-9.9-9.7-13.8
								c-0.9-0.7-2.1-0.8-3-0.3c-0.8,0.3-1.2,1.1-0.9,1.9c0,0.1,0.1,0.3,0.2,0.4C120.1,905.7,119.5,911.5,126,914.6L126,914.6z
								 M40,934.7c-0.8,1.6-1.3,2.6-1.7,3.6c-0.9,2,0.4,3.3,2.9,3.7c2.1,0.3,4.6,0.7,5.7-1.3c1.1-2-0.4-3.1-2.7-3.8
								C42.7,936.2,41.3,935.5,40,934.7L40,934.7z M115.6,961.6c-1.4-1.3-3.4-1.8-5.2-1.3c-1.7,0.1-3.2,1.4-3.6,3
								c-0.1,0.4,0.5,1.3,1,1.5c1.7,0.6,3.1-0.3,4.4-1C113.3,963.1,114.3,962.5,115.6,961.6L115.6,961.6z M81.8,935.2
								c-0.7-1.4-2.3-2.1-3.8-1.6c-1.2,0.2-1.7,1-1.4,1.9c0.4,1.3,1.9,1.4,3.2,1.3C81,936.8,81.7,936.2,81.8,935.2L81.8,935.2z
								 M189.1,972.2c0-0.8-0.6-1.4-1.3-1.4c-0.1,0-0.2,0-0.3,0c-2.2,0.1-2.5,1.3-2.3,2.7c0,0.7,0.6,1.3,1.3,1.2c0.1,0,0.1,0,0.2,0
								C187.9,974.7,189,973.6,189.1,972.2L189.1,972.2z M182.2,1045.8c0.1,0.7,0.7,1.2,1.4,1.2c0.1,0,0.2,0,0.3-0.1
								c1.2-0.2,2.1-1.2,2.2-2.5c0.1-0.7-0.4-1.2-1.1-1.3c-0.1,0-0.2,0-0.3,0C182.8,1043.4,182.5,1044.7,182.2,1045.8z M81.8,928.4
								c0.3-0.5,0.1-0.8-0.5-1c-0.2-0.1-0.7,0-0.7,0.1c-0.1,0.3-0.1,0.7-0.1,1L81.8,928.4z M112,899.6c-0.2-0.4-0.7-0.7-1.2-0.5
								c0,0-0.1,0-0.1,0.1c-0.2,0.1-0.5,0.4-0.4,0.5c0.3,0.3,0.5,0.6,0.9,0.8C111.5,900.1,111.8,899.9,112,899.6L112,899.6z"/>
							<path id="Path_10245" class="st7" d="M1575.6-56.1c1.2,5.3,5.8,9.4,8.6,14.2c9.4,16.2,16,33,16.8,50.8
								c0.2,3.6,1.9,7.7,0.8,10.6c-1.8,4.7-0.6,9.1-1.2,13.6c-0.9,6-1.3,12-2.2,18c-0.5,3.6-2.7,6.8-3.4,10.4
								c-0.5,2.5-0.9,5-1.1,7.6c-7.4,1.8-15.1,2.5-22.5,3.9c-5.3,1-10.6,2.8-16,3c-11.9,0.4-23.3,3.4-35.2,3.5
								c-6.7,0.1-13.2,2.7-20,0.4l-3.4,0c-2.8-0.3-5.4-1.3-8.4-0.9c-10-0.3-19.4-2.7-29.2-3.7c-4.3-0.5-8.5-1.5-12.6-3.1
								c-7.3-2.8-12.8-7.3-18.6-11.4c-3.5-2.5-7-6.6-7.2-10.1c-0.5-9.2-1.1-18.5,3.1-27.4c3-6.4,6.7-12.6,8.9-19.2
								c0.3-1.4,1.3-2.6,2.6-3.2c4.7-2.2,5.4-6.1,6.9-9.5c0.3-0.7-0.2-1.8,0.8-2.3c5.3-2.3,6-7.1,9.6-10.3c7.1-6.3,10-15,18.9-20.3
								c1.2-0.7,2.2-1.8,2.8-3.1c1.9-5.3,7.4-8.2,12.4-11.5l87-0.1C1574.5-56.1,1575.1-56.1,1575.6-56.1z"/>
							<path id="Path_10246" class="st8" d="M398.9,1055c0.5-1.3,0.1-2.9,1.7-3.9c2.7,2.2,6.3,1.5,9.5,1.5c125.6,0,251.2,0,376.9,0
								c2.1,0,4.4,0.6,6.8-1.1c-4.3-4.6-8-9.7-13.1-13.6c-3.2-2.4-6.4-4.7-8.4-7.7c-1.7-2.3-3.6-4.4-5.8-6.2
								c-8.8-7.6-16.9-15.9-24.2-24.9c-5.1-6.6-11.2-12.4-17.9-17.3c-9.3-6.2-18.9-11.9-28.8-17c-11.5-6.4-24.9-8.6-37.8-6.3
								c-4.1,0.7-8.4,1.9-12.3,1.3c-8.5-1.2-16.5,0.1-24.6,1.4c-8,1.3-16,1.8-24.1,1.5c-2.8-0.1-5.8-1.2-8.2-0.7
								c-8,1.8-13.8-1.7-20.3-3.9c-8-2.6-13.6-7.9-21-11.1c-3.9-1.7-7.9-3.2-9-7.1c-0.3-0.6-0.9-1.1-1.6-1.3
								c-4.6-1.6-6.8-4.8-9.7-7.6c-8.4-8.2-15.9-16.8-24.9-24.7c-5.5-4.6-10.7-9.6-15.6-14.9c-10.6-12-23.3-21.9-41.2-27.6
								c-18.8-6-38-10.6-58.2-11.7c-10.7-0.6-21.2-1-31.8,3.8c-9.9,4.5-18.6,9.5-26,16c-3.5,3-8.8,5.3-10.5,8.8
								c-3.6,6.9-10.5,12-14.5,18.8c-4.1,6.9-5.9,14-8.6,21.1c-10-3.6-20-7.1-30-10.7c0.7-7.7,2.7-15.2,8-22
								c0.8-0.8,1.5-1.8,1.9-2.8c2.3-8.2,8.9-14.7,14.9-21.1c7.3-8,16.4-15,26.1-21.5c7.5-5.1,15.8-9.1,24.6-11.6
								c1-0.3,1.9-1.2,2.9-1.2c12-0.7,23.4-4.7,35.9-3.3c8.5,1,17.2,0.1,25.8,1.3c5.7,0.8,11.5,1.4,16.9,3.2
								c5.1,1.7,10.7,1.6,16.1,2.8c7.1,1.7,14.1,3.4,21.1,5.5c7.9,2.4,15.5,5.8,22.6,10.2c13.3,8.1,25.3,18.2,35.5,29.9
								c4.7,5.2,9.7,9.9,15.2,14.3c3.2,2.8,6.2,5.9,8.9,9.2c13.4,14.9,27.9,29.1,49.2,38c4.4,1.8,9,3.1,14.3,1.9
								c2.5-0.4,5-0.5,7.5-0.4c18.4,0,36.9-0.4,55.3,0.1c13.4,0.3,26.3,2.3,38.3,7.6c14.4,6.4,27.9,13.8,41.4,21.3
								c8.2,4.5,13.5,11.3,20.6,16.8c8.3,6.4,16.7,12.8,25.1,19.2c9,6.9,17.5,14.2,27.2,20.5c11.1,7.2,18.3,16.9,28,25
								c0.6,0.9,1.1,1.7,1.7,2.6c-147.9,0-295.8,0-443.7,0C403.9,1055.2,401.4,1055.1,398.9,1055z"/>
							<path id="Path_10247" class="st6" d="M-24.6,713.6c6-0.4,12-1.1,18-1.3c8.6-0.2,16.9,0.3,24.6,4.3c5.8,3,12.5,5.1,19.1,7.1
								c8.7,2.6,15.2,7.8,23.1,11.2c9.8,4.3,15.5,11.8,23.6,17.4c1.2,0.8,2.2,1.8,3,3.1c2.4,4,4,8.4,10,10.3
								c0.4,0.2,0.7,0.6,0.7,1.1c-0.4,5.4,6.6,8.5,6.9,13.7c0,0.2,0,0.5,0.2,0.6c5.8,3.5,4.4,8.6,5.3,13.2
								c1.1,5.4,3.9,10.5,5.5,15.8c0.8,2.5-2.8,4-0.6,6.1c2,1.9,2.3,3.8,1.8,6.4c-0.6,2.9,1.7,6.1-0.1,9.2
								c5.6,4.4,0.5,10.6,4.4,15.3c0.4,0.5,1.1,1.3,0.9,1.7c-2.1,3.9,1.4,7.3,1.8,10.9c-2.7,0-4,0.7-3.4,3.2
								c0.4,1.9-2.2,2.4-3.1,1.2c-5.4-7.4-18.5-5.1-24.4-11.6c-0.5-0.3-1-0.4-1.6-0.2c-4.3,1-8.9,0.2-12.6-2.2c-1,2.4-1.7,4.2-2.5,6
								c-1.2,2.4-3,3.4-5.1,0.6c-2.3-3-4.4-1.3-6.8-0.2c-2.8,1.3-2.9,2.6-1.1,4.7c1.1,1.4,1.9,3,2.4,4.8c0.7,2.2-1.4,3-3.6,3.7
								c-2.4,0.7-4-0.2-4.2-2c-0.2-2-3.7-3.1-1.5-5.8c1.5-1.9-1.1-3.5-4.1-2.8c-1.8,0.5-3.5,1.2-5.2,2.1c-2,1-3.5,1.2-4.7-0.7
								c-1.2-1.9,0.1-2.4,2.1-3.2c4.3-1.8,4.1-3.4-0.1-5.1c-1-0.4-2.1-0.7-3.1-1.1c-3.5-1.4-6.3-1.9-7.4,2c-0.4,1.6-2.4,1.9-4,1.1
								c-3-1.6-5.6-2.1-9.1-0.3c-3,1.4-6.4-0.3-9.5-1.1c-1.4-0.4-1.7-1.6-0.8-2.7c0.6-0.7,1.7-1.6,1.5-2.2c-1.6-5,3.1-6.1,7.5-7.4
								c4.8-1.5,9.9-1.2,14.5,0.7c2.6,1,4.9,1.3,4.4-2.2c-0.4-3,3.5-5.9,5.6-5c4.5,1.7,10.3,2.8,13.1,6.9c-2.7,1.2-4.8-0.3-7-0.1
								c-2.7,0.2-5.1,0.7-5.5,3.1c-0.5,2.3,0.5,4.3,3.1,5.5c3.9,1.8,12.3,1.4,15-0.7c2.2-1.6,1.6-4,2.7-6c1.2-2.2-0.9-3.5-2.9-4.8
								c-1.5-1-1.3-2.3-0.7-3.5c1-2,0.7-4.3,2.7-6c1.1-1,1.8-2.4,0.8-3.6c-2.8-3.1-6.2-5.8-9.9-7.7c-0.7-0.4-1.6-0.2-2.1,0.4
								c-0.2,0.4-0.3,0.8-0.3,1.2c0.3,1.2,1.2,2.1,2.4,2.5c5.1,2.5-2.1,7.1,2.8,9.6c-0.4,0.3-0.8,0.6-1.3,0.7
								c-1.8,0.3-3.5,1.6-5.4,0.2c0.2-4.9-1.2-6.2-7.2-7.5c-2.5-0.5-5.6,0.5-7.7-1.4c3.9-3.1,4-3.9,0-4.7c-4.8-0.9-8.8-3.4-14.1-3.5
								c-3.8-0.1-7.3-2.3-9.6-4.7c-1.4-1.5-2.6-3.2-5.1-2.2c-3.4,1.4,0.8,2.9,0.4,4.2c-0.9,3.5,1,4.6,5.3,4.5
								c1.4-0.1,3.2,0.3,3.3,1.5c0.2,3.3,4.8,3.9,6.7,6.2c-5.7,0.9-5.7,0.9-3.7,4.5c1.1,2,1.5,4-0.1,6c-2.7,0.4-2.3-2.3-3.7-2.1
								c-5,0.7-5.4-1.5-5.5-4.4c-0.1-2.7-2.4-2.3-4.7-1.5c-2.6,1-3.5,2.6-3.5,4.7c0.2,2.8-0.9,5.5-3,7.3c-1.9-0.6-2-1.5-1.9-2.3
								c0.2-4-0.4-7.4-7.3-7.4c-1.9,0-2.4-1.4-2.8-2.8c-2.3-6.9-2.3-6.9-11.7-6v-3.8c1.4-0.2,3.8,0.4,3.8-1.3c0-1.7-2.4-1.1-3.8-1.3
								c0-16.5-0.1-33-0.1-49.6c1.3,0.3,2.7,0.6,4,0.8c8.4,0.8,16.6,1.5,24.3,5.1c5.1,2.3,11.1,3.5,16.4,5.8
								c1.1,0.5,2.6,0.9,3.7-0.9c-2.7-4.2-6.1-8-10.1-11.1C3,755.3-7.6,746.3-24.6,745.5L-24.6,713.6z M79.6,840.3
								c-5.1-3.9-5.1-3.9-9.6-5.2c-0.4,2.2,1.9,3.5,2.6,5.2c2.2,5.5,10.2,6.7,15.4,2.6c2.7-2.2,2.5-4.3-0.9-6.3
								c-3.2-1.9-4.3,0.3-5.6,1.8C81.1,838.9,80.5,839.4,79.6,840.3z M38,810c-2.3-2.1-4.4-4.1-8.2-3.9c-1.7,0.1-3.6,0.2-3.7,1.9
								c-0.2,1.8,1.4,3,3.5,2.9C32.3,810.7,35,810.3,38,810L38,810z M71.6,851.1c0-0.7-0.5-1.1-1.4-1.1c-0.8,0-1.5,0.2-1.7,0.9
								c-0.1,0.7,0.5,1.1,1.4,1.1C70.6,852,71.3,851.7,71.6,851.1L71.6,851.1z M29.7,843.5c0.1-0.8-0.5-1.2-1.4-1.2
								c-0.8,0-1.5,0.2-1.7,0.9c-0.1,0.7,0.5,1.1,1.4,1.1C28.7,844.3,29.3,844,29.7,843.5L29.7,843.5z M100.2,845.7
								c-0.4-0.2-0.7-0.4-1.1-0.6c-0.1,0-0.6,0.3-0.6,0.3c0.2,0.3,0.4,0.7,0.6,0.9C99.5,846.2,99.9,846,100.2,845.7L100.2,845.7z
								 M26.3,778.7c-0.4-0.2-0.9-0.5-1.3-0.4c-0.6,0.1-0.6,0.6-0.2,1c0.2,0.1,0.4,0.2,0.7,0.3C26.2,779.5,26.4,779.2,26.3,778.7z"
								/>
							<path id="Path_10248" class="st9" d="M1487-56c-5.1,3.2-10.6,6.2-12.4,11.5c-0.6,1.3-1.6,2.4-2.8,3.1
								c-8.9,5.4-11.8,14-18.9,20.3c-3.6,3.2-4.3,8-9.6,10.3c-1,0.4-0.5,1.6-0.8,2.3c-1.5,3.5-2.2,7.4-6.9,9.5
								c-1.3,0.6-2.2,1.8-2.6,3.2c-2.1,6.6-5.9,12.8-8.9,19.2c-4.2,9-3.6,18.3-3.1,27.4c0.2,3.5,3.7,7.6,7.2,10.1
								c5.7,4.1,11.3,8.6,18.6,11.4c4,1.6,8.3,2.6,12.6,3.1c9.8,1,19.3,3.5,29.2,3.7c0.1,2.3-0.8,4.9,1.8,6.7c6.5,4.4,3.2,9.6,1,14
								c-2.9,5.9-3.6,5.7,2.3,10.1c0.6,0.6,1.2,1.4,1.6,2.2c-6.7-0.3-13.6,0.9-20.2-1.8c-2.4-1-6-0.3-9.1-0.5
								c-6-0.4-12.3-0.3-17.1-4c-1.1-0.8-2.5-1.2-3.8-1c-9.1,1-15.7-3.5-22.9-6.4c-3.7-1.5-6.9-3.5-11.1-4.2c-1-0.2-2-0.6-2.9-1.2
								c-9.6-6.2-18.7-12.4-24.7-21.4c-8.4-12.6-10.1-25.4-7.9-39c1.7-10.5,5.4-20.6,11-29.8c5.6-9.4,12.5-18.2,19.3-27.1
								c5.2-6.8,11.7-12.9,17-19.6c3.3-4.1,6.4-8.8,11.8-12c0.2-0.4,0.3-0.8,0.3-1.2l51.9,0C1486.8-56.9,1486.9-56.4,1487-56z"/>
							<path id="Path_10249" class="st10" d="M-24.6,820.1c9.4-0.9,9.4-0.9,11.7,6c0.4,1.3,0.9,2.8,2.8,2.8c6.8,0,7.5,3.4,7.3,7.4
								c0,0.8,0,1.7,1.9,2.3c2.1-1.9,3.2-4.6,3-7.3c0-2.1,0.9-3.7,3.5-4.7c2.3-0.9,4.6-1.3,4.7,1.5c0.1,2.9,0.5,5.1,5.5,4.4
								c1.4-0.2,1.1,2.6,3.7,2.1c1.5-1.9,1.2-3.9,0.1-6c-2-3.7-2-3.7,3.7-4.5c-1.9-2.4-6.5-2.9-6.7-6.2c-0.1-1.2-1.9-1.6-3.3-1.5
								c-4.3,0.2-6.2-1-5.3-4.5c0.3-1.4-3.8-2.9-0.4-4.2c2.5-1,3.7,0.7,5.1,2.2c2.3,2.4,5.8,4.7,9.6,4.7c5.3,0.1,9.3,2.6,14.1,3.5
								c4,0.8,3.9,1.6,0,4.7c2.1,2,5.2,0.9,7.7,1.4c6,1.3,7.3,2.6,7.2,7.5c1.9,1.4,3.6,0.1,5.4-0.2c0.5-0.2,0.9-0.4,1.3-0.7
								c-5-2.5,2.3-7.1-2.8-9.6c-1.2-0.4-2-1.3-2.4-2.5c0-0.4,0.1-0.8,0.3-1.2c0.5-0.7,1.4-0.9,2.1-0.4c3.7,1.9,7.1,4.6,9.9,7.7
								c1,1.2,0.3,2.5-0.8,3.6c-2,1.8-1.6,4-2.7,6c-0.7,1.3-0.8,2.6,0.7,3.5c2,1.3,4.1,2.6,2.9,4.8c-1,2-0.5,4.3-2.7,6
								c-2.7,2.1-11.2,2.5-15,0.7c-2.6-1.2-3.6-3.2-3.1-5.5c0.5-2.3,2.8-2.8,5.5-3.1c2.2-0.2,4.2,1.3,7,0.1
								c-2.8-4.1-8.6-5.2-13.1-6.9c-2.1-0.8-6.1,2-5.6,5c0.5,3.5-1.8,3.2-4.4,2.2c-4.6-2-9.7-2.2-14.5-0.7c-4.4,1.4-9.1,2.4-7.5,7.4
								c0.2,0.6-0.9,1.5-1.5,2.2c-0.9,1.1-0.6,2.3,0.8,2.7c3.1,0.8,6.5,2.5,9.5,1.1c3.5-1.7,6.1-1.3,9.1,0.3c1.6,0.8,3.6,0.5,4-1.1
								c1.1-3.9,3.9-3.5,7.4-2c1,0.4,2.1,0.7,3.1,1.1c4.3,1.7,4.5,3.3,0.1,5.1c-2.1,0.9-3.4,1.4-2.1,3.2c1.2,1.9,2.7,1.7,4.7,0.7
								c1.6-0.9,3.4-1.6,5.2-2.1c3-0.7,5.6,0.9,4.1,2.8c-2.1,2.7,1.3,3.9,1.5,5.8c0.2,1.8,1.8,2.6,4.2,2c2.2-0.6,4.3-1.5,3.6-3.7
								c-0.4-1.7-1.2-3.4-2.4-4.8c-1.8-2-1.7-3.4,1.1-4.7c2.4-1.1,4.5-2.8,6.8,0.2c2.1,2.7,3.9,1.8,5.1-0.6c0.9-1.8,1.5-3.6,2.5-6
								c3.7,2.4,8.3,3.2,12.6,2.2c0.5-0.1,1.1,0,1.6,0.2c5.9,6.6,19,4.3,24.4,11.6c0.9,1.2,3.5,0.7,3.1-1.2
								c-0.6-2.4,0.7-3.1,3.4-3.2c0.3,3.8,1.8,7.4,4.3,10.3c-5.3,0.3-10.3-1.3-15.7-1.4c-7.3-0.2-11.4,2.6-14.7,6.8
								c-0.7,1.1-1.4,2.3-2,3.5c-0.5,0.6-1.3,0.9-2.1,0.7c-1.2-0.2-1.9-0.9-1.9-1.9c0.1-0.6,0.4-1.2,0.8-1.8
								c3.3-5.4,3.3-5.4-4.4-7.3c-0.3-0.1-0.5-0.1-0.8-0.2c-3.1-0.7-6.5-2.2-9,0.5c-1.4,1.5,1.9,7.9,4.3,8.7
								c1.7,0.4,3.2,1.4,4.3,2.8c1.1,1.9,3.3,2.8,5.4,2.2c4.2-0.9,6.3,1.1,8,3.3c1.7,2.3,0.2,3.9-2.7,5.2c-1.9,0.9-1.6,2.6-1.3,4.1
								c0.5,2.3,1.2,4.6,1.9,6.8c0.4,1.3,3,2.2,1.6,3.9c-1.3,1.6-3.3,2.6-5.5,2.6c0.3-3-2-5.2-3.4-7.8c-1.6-2.8-3.5-4.1-7.6-2.2
								c-3.6,1.6-7.5,2.5-11.7,0.3c-1,2.7-1.7,5-2.5,7.2c-4.3,0.3-8.9-0.9-12.8,1.8c-1.8,1.3-4.3,0.8-6.1-0.4c-5-3.3-10.3-5-16.7-2
								c-1.5,0.7-3.4,0.6-4.1-0.9c-0.7-1.3-0.3-2.6,1.5-3.3c3.4-1.3,6.7-2.9,10.7-3.6c-0.4-1.5-0.7-3.1-0.9-4.7
								c-0.2-2.5-1.2-3.5-4.7-2.7c-2.5,0.6-5.2,0.7-4.5-2.6c0.6-2.9-2.4-4.5-5-5.3c-3.4-1.1-7.5-0.9-8.7-4.7
								c-0.4-1.2-2.4-0.2-3.2,0.7c-0.9,1-1,2.6-0.2,3.7c0.9,1.6,2,3.1,3.1,4.5c4.4,4.9,4.4,7.6-0.4,12.1c-2,1.8-1.4,3.2,0.7,4.3
								c3.7,1.9,6.8,4.4,11,5.8c1.9,0.6,3.3,1.7,3,3.4c-0.3,1.7-1.9,2.7-3.9,2.8c-2.7,0.1-4.5,1.6-6.9,2.1c-1,0.3-2.1-0.2-2.7-1.1
								c-0.7-1,0.1-1.6,1.2-2c0.5-0.1,1.1-0.3,1.6-0.3c1.4-0.3,2.7-0.9,2.2-2.2c-0.5-1.4-1.9-1.2-3.4-1.2c-6.9,0.4-9.8,4.1-12.2,8.9
								c4.7,1.2,8.6,1.7,13.9,0.5c6.1-1.4,12.8-2.8,19.6-1.6c4,0.7,4.7,1.4,2.2,4c-0.9,1-2.9,1.7-1.5,3.1c1.4,1.4,2.7,0.2,4.2-0.2
								c3.7-1.1,8,1.7,7,4.6c-0.5,1.3-1.9,1.9-3.1,1.5c-0.3-0.1-0.5-0.2-0.7-0.4c-2.9-1.9-5.6-1.5-8.3,0c-2.2,1.2-4.7,1.1-7.2,1.1
								c-5,0.1-9.9-0.1-14.9,0.9c-4.8,1-5.9-0.3-4.3-4.3c0.6-1.3,1-2.5-0.4-3.5c-1.4-1-3.1-0.7-4.7-0.3c-2.7,0.7-4.8,2.1-7,3.4
								c-2.9,1.7-5.3,1.5-7.8-0.9c-4.9-4.7-11.4-7-19.5-5.6C-24.6,887.8-24.6,853.9-24.6,820.1z M-10.4,848.7c0.3-0.5,0.1-0.8-0.5-1
								c-0.2-0.1-0.7,0-0.7,0.1c-0.1,0.3-0.1,0.7-0.1,1C-11.3,848.8-10.8,848.8-10.4,848.7L-10.4,848.7z"/>
							<path id="Path_10250" class="st11" d="M2011.3,1035.6c0,5.7,0.1,11.3,0.1,17c-101.9,0-203.9,0-305.8,0
								c-2.8,0-5.6-0.1-8.4-0.2c-1.2-7.4,3.2-13.7,7.1-20c5.2-8.6,16.1-9.2,24.5-6.3c6.1,2.1,12.3,3.9,18.6,5.4
								c17.4,4.1,34.7,8.1,53.3,7.4c9.4-0.3,15.7-3.2,20.1-9.3c3.1-4.3,6.2-8.9,11.7-11.4c7.8-3.6,15.1-7.9,23.7-10.5
								c6.6-2.2,13.7-2.4,20.4-0.8c7.8,2,15.7,3.9,23.5,5.9c14.4,3.7,28.7,7.7,43,11.6c17,5.9,35.3,8.2,53.5,10.3
								C2001.3,1035.1,2006.2,1036.3,2011.3,1035.6z"/>
							<path id="Path_10251" class="st11" d="M342.2-56.1c83.9,0,167.7,0,251.6,0c4.7,0,9.5,0.1,14.2,0.2c-9.9,1.8-19,6.5-26.2,13.6
								c-9.8,9.7-18.4,20.2-28.2,30l-0.1,0.1l-1.8,1.1c-2.7,2-6.3,2.3-9.7,3.2c-20.8,5.8-42.1,5-63.2,2.5
								c-13-1.5-25.2-6.2-37.2-10.4c-6.8-2.4-13.2-5.6-20.6-6.8l-0.1-0.1c-5.4-3.3-11.1-6.1-18.2-6.8c0-0.4-0.2-0.7-0.5-0.9
								c-0.3-1.3-1.7-1.2-3-1.3l0,0c-0.8-1-2.1-1.4-3.3-1.2c-0.3-0.3-0.7-0.4-1.1-0.3c-2.9-1.4-5.8-2.8-8.8-4.2
								c0-0.3-0.2-0.6-0.5-0.7c-1-1.5-3-1.2-4.7-1.6c-4-2-7.3-5-12.7-5.1c-1.2-1-2.2-2.2-4.2-2.3c-0.3-0.3-0.7-0.4-1-0.3
								c-0.8-1.2-2.4-1.6-3.8-2.2C353.8-52,346.9-52.5,342.2-56.1z"/>
							<path id="Path_10252" class="st12" d="M1843.1,217.6c0.1,0.2,0.2,0.4,0.3,0.6c7.7,17.8,12.7,14.3,29,16
								c13.5,1.3,26.9-0.6,40.3-3.1c21.6-4,41.7-10.6,61.8-17.4c12.1-4.1,23.9-8.8,36.8-11.3c0,17.4,0,34.9,0,52.3
								c-5.6,6.8-3.1,14.3-2.7,21.6c0.1,1.2,1.3,2.3,2.7,3.1c0,6.9,0,13.8,0,20.7c-12.4-2.7-23.1-7.3-25.9-17.7
								c-2-8-1.8-16.3,0.7-24.2c3.1-10,9.3-19.1,14.1-28.6c1-1.9,2.6-3.7,1.9-6.4c-6.6,2.4-12.8,4.4-18.9,6.8
								c-13.1,5-26.2,10.3-40.4,13.6c-6.6,1.5-13.1,3.3-19.5,5.2c-11.5,3.5-23.7,5-35.8,5.6c-14.2,0.7-29,1.5-42.1-4.4
								c-7.3-3.3-15.8-5.4-20.3-11.5c5.8-0.9,9,3.4,14.5,4.5c-0.2-4.1-2.2-6.8-7.8-8.2c3.8-2.2,4.7-4.6,5.5-7.4
								C1838.3,223.7,1841.1,220.7,1843.1,217.6z"/>
							<path id="Path_10253" class="st13" d="M1943,1024.3c-14.3-3.9-28.6-7.8-43-11.6c-7.8-2-15.7-3.9-23.5-5.9
								c-6.8-1.6-13.8-1.3-20.4,0.8c-8.5,2.6-15.9,6.9-23.7,10.5c-5.5,2.6-8.6,7.1-11.7,11.4c-4.4,6.1-10.7,9-20.1,9.3
								c-18.6,0.7-36-3.3-53.3-7.4c-6.3-1.5-12.5-3.3-18.6-5.4c-8.4-2.8-19.3-2.3-24.5,6.3c-3.8,6.3-8.3,12.6-7.1,20
								c-0.5,0.8-1,1.7-1.6,2.5c-4.6,0-9.2,0-13.8,0c-0.5-0.8-1.1-1.6-1.6-2.4c-0.2-12.6,4.5-23.9,15.5-33.4
								c5.1-4.4,11.8-6.4,19.5-7.4c11.9-1.5,22.7,1.5,33,4.9c7.3,2.4,15,3,22.3,4.9c7.7,2.1,15.5,3.3,23.5,3.5
								c5.9,0.1,10.6-0.3,13.8-5.2c3.4-5.2,9.3-8.7,15.9-11.7c7.3-3.4,14.5-6.8,22.4-9.5c5.9-2,12-3.4,18.2-4.2
								c7.2-0.8,14.3,0.7,21.2,2.1c13.6,2.9,27.3,5.8,40.4,10c1.3,1.7,3.3,2.4,5.9,2c0.3-0.1,0.6-0.1,0.7,0.2c2.7,1.7,5.8,2.6,9,2.5
								l2.7,0.4c0.2,4.4,5.5,7.7,4.6,12.5L1943,1024.3z"/>
							<path id="Path_10254" class="st11" d="M625.4-56.1c49.8,0,99.6-0.1,149.5-0.1l0,0.1c-0.1,0.4,0,0.9,0.3,1.2
								c2.1,5,0.4,10.2,0.6,15.2c-0.7,0.7-1,1.8-0.7,2.8l-2.2,3.9c-4,1.3-4.1,5.1-8.4,6.7c-11.9,4.3-24.1,3.3-35.8,1.2
								c-17.1-3.2-33.7-7.9-50.5-12c-3.7-3.2-9.5-3.2-14.1-5.1C651.5-47.3,639.4-53.2,625.4-56.1z"/>
							<path id="Path_10255" class="st14" d="M625.4-56.1c14,2.9,26.1,8.8,38.7,13.9c4.6,1.9,10.4,1.8,14.1,5.1
								c-4.4,0.5-8.5-2.4-13.4-1.2c2,3.1,7,2.6,8.4,5.5c-1.3,0.9-3,1.6-3.6,2.6c-1.1,2-0.3,4,2.7,4.6c3.5,0.7,1.6-2,2.7-2.9
								c0.6-0.6,1.5-0.8,2.3-0.3c0.2,0.8,0.2,1.6,0.2,2.4c-0.4,3.4,1.1,5.3,6.1,5.1c3-0.1,5.9,0.9,8.3,2.7c2.1,1.7,4.8,2.5,7.4,2.4
								c1.9-0.9,1.8-2.4,1.7-3.8l0,0c5.5,1.2,4.1,4,2.9,6.9c-7.5-1.1-14.9-2.9-22.1-5.4c-1.5-0.6-3.1-1.1-4.7-1.4
								c-14.4-2.1-26.4-8.4-39.2-13.3c-7.1-2.7-13.9-6.1-21.9-7.2c-6.1-0.9-11.3,0.1-15,3.6c-4.6,4.4-8.9,9.1-13.3,13.7
								c-7.4,7.7-12.8,17-24.2,22.2c-0.7-2.9-3.6-5.1-3.6-8.3c0-2.7-3.2-3.1-6.2-3c9.8-9.8,18.4-20.2,28.2-30
								c7.1-7.1,16.3-11.8,26.2-13.6C613.8-57.5,619.6-55,625.4-56.1z"/>
							<path id="Path_10256" class="st7" d="M1680.2,1052.6c0.5,0.8,1.1,1.6,1.6,2.4c-2.5,0.1-5,0.2-7.5,0.2
								c-274.7,0-549.5,0-824.2,0c-0.6-0.9-1.1-1.7-1.7-2.6L1680.2,1052.6z"/>
							<path id="Path_10257" class="st15" d="M-24.6-24.6c6.5,1.2,12.7,3.4,18.5,6.5c3.5,1.9,7.7,2.9,10.7,6.1
								c4,4.4,6.9,9.1,10.4,13.6c0.3,0.3,0.6,1.1,0.5,1.1C9.4,5.7,12.6,11.2,9.7,15c-0.3,0.4-0.5,1-0.7,1.1
								c-8.1,0.1-11,6.8-18.2,8.3c-2.5,0.5-3.7-0.4-5-1.3c-2.9-2.1-5.9-3.9-10.3-3.2c-1-1.6-0.9-3.3-0.9-5c0-11.3,0-22.5,0-33.8
								C-25.4-20.9-25.5-22.8-24.6-24.6z"/>
							<path id="Path_10258" class="st16" d="M1434.9-57.3c0,0.4-0.1,0.8-0.3,1.2c-130,0-260.1,0-390.1,0c0.4-1.5,1.8-2.5,3.3-2.4
								c2.5-0.1,5-0.1,7.5-0.1c123.1,0,246.2,0,369.2,0C1428-58.6,1431.9-59.6,1434.9-57.3z"/>
							<path id="Path_10259" class="st15" d="M91-34.3c-3.3-0.9-6.7,0.1-9.9,0.3c-7.5,0.5-9.8-0.8-13.2-6.1
								c-3.6-5.7-7.7-11.3-13.6-15.9c1.6-1.6,4-1.2,6.2-1.2c13.3-0.1,26.7-0.1,40-0.1c2.5,0,5-0.1,7.1,1.3c-0.3,1.9,0.2,3.9,1.3,5.5
								c3.4,5.5-0.8,9-6.6,10.7c-2.1,0.6-5.4,0.1-4.7,3.1l0.1-0.1C94.8-37,90.8-38.8,91-34.3L91-34.3z"/>
							<path id="Path_10260" class="st13" d="M342.2-56.1c4.7,3.7,11.6,4.1,17.1,6.6c1.4,0.6,2.9,1,3.8,2.2
								c-1.7,0.2-3.3,1.2-4.2,2.6c-3.2,4-1.9,9-4.8,13c-8.6-1.3-15.2-5.9-23-8.4c-9.4-3-17.8-7.6-27.9-9.5
								c-7.4-1.3-13.9-4.3-20.9-6.5c1.6-1.6,4-1.3,6.1-1.3c15.5,0,31,0,46.6,0C337.5-57.4,339.9-57,342.2-56.1z"/>
							<path id="Path_10261" class="st14" d="M1943,1024.3h5.8c0.9-4.8-4.4-8.1-4.6-12.5c8,0.7,15.6,2.7,23.2,4.5
								c13.3,3.1,26.9,4.8,40.6,5.1c1.1,0.1,2.2,0.2,3.3,0.4c1.8,4.5,1.7,9.4-0.1,13.9c-5,0.7-9.9-0.5-14.8-1.1
								C1978.3,1032.4,1960,1030.2,1943,1024.3z"/>
							<path id="Path_10262" class="st7" d="M1695.6,1055c0.5-0.8,1-1.7,1.6-2.5c2.8,0.1,5.6,0.2,8.4,0.2c101.9,0,203.9,0,305.8,0
								c-0.3,1.5-1.7,2.6-3.3,2.5c-1.9,0.1-3.9,0.1-5.9,0.1c-99.7,0-199.4,0-299.1,0C1700.6,1055.2,1698.1,1055.1,1695.6,1055z"/>
							<path id="Path_10263" class="st10" d="M255.2,1047.5v2.6c-2.5,0-5,0-7.5-0.1c-5.2-0.3-5.2-0.4-5.9,4l-3.4,0
								c0.8-3.4-4.2-5.6-3.4-9c1.9-0.9,4.4-1.8,4.1-3.6c-0.4-2.3-3.6-1.2-5.6-1.7c-1.6-0.4-3.2-0.8-4.8-1c-7-0.7-8.5,0.6-7.1,6.3
								c-2.7,0-5.5-0.2-8.2,0c-6.5,0.5-10.5-1.5-11.9-6.5c10.2,2,10.2,2,15.1-3.9c1-1.2,1.8-2.2,0.7-3.5c-1.2-1.5-3-1.8-5.1-1.1
								c-1.9,0.7-3.6,2.6-6,1.3c-2.4-1.3,0-3.2-0.4-4.8c-0.4-1.4-0.7-2.9-1-4.4c-0.2-2.2,1.3-3.6,3.9-4.5c2.3-0.8,3.7,0.2,5,1.4
								c1.4,1.4,2.6,3,5.3,1.2c1.9-1.3,2.7-2.7,0.9-4.4c-1.5-1.5-2.3-3,0-4.5c2.4,0.2,3,1.5,3.5,3.1c0.7,2.8,2,5.5,3.9,7.7
								c3.1,3.6,2.6,5-2.1,6.8c-0.8,0.2-1.6,0.4-2.4,0.4c-1,0-1.7,0.8-1.8,1.7c2.9,1.4,5.9,3.2,9.2,4.6c5.6,2.3,9.9,0.8,12.2-4.3
								c0.3-0.6,0.2-1.1,1.2-1.4c4-1.1,4-1.1,2.3-4.3c-0.1-0.2,0.1-0.4,0.2-0.9c2-0.6,4.1,0.2,5.3,2c1.2,2.1,2.8,4.3,0.9,6.7
								c-1.8,2.5-3.9,4.8-6.2,6.8c-2.7,2.3-2.3,3.9,0.9,5.6C249.6,1047.5,252.4,1047.5,255.2,1047.5z"/>
							<path id="Path_10264" class="st11" d="M-24.6,745.5c17,0.8,27.6,9.8,38.3,18.3c4,3.1,7.4,6.9,10.1,11.1
								c-1.1,1.8-2.7,1.3-3.7,0.9c-5.3-2.3-11.4-3.5-16.4-5.8c-7.7-3.5-15.9-4.3-24.3-5.1c-1.4-0.2-2.7-0.5-4-0.8
								C-24.6,757.9-24.6,751.7-24.6,745.5z"/>
							<path id="Path_10265" class="st15" d="M2008.2,914c0.7,0.9,1.9,0.6,2.9,0.7c1.7,8.8,1.8,17.9,0.1,26.8
								c-6.1,0.8-9.8-2.1-14.5-4.4c-7.2-3.5-5.4-7.7-4.8-12.5c0.8-6.3,5.8-9.5,12.5-11.9c0.1,1.4-0.2,2.9,2.1,3.4
								c1.2-0.5,2.6-0.9,1.6-2.3L2008.2,914z"/>
							<path id="Path_10266" class="st14" d="M775.8-39.7c-0.2-5.1,1.5-10.2-0.6-15.2c0.1-0.1,0.3-0.3,0.3-0.4
								c-0.2-0.3-0.3-0.5-0.5-0.8l0-0.1c4.4-3,8.7-2.6,13,0.1c-0.4,3.1,2.2,5.9,1.2,9.1c-1,0.2-2.3,0.4-2,1.4c0.1,0.4,1.1,0.7,1.8,1
								c1.7,4.8,1.9,9.5-1.2,14.1c-3.3-0.9-2.1-4.1-5-5.9c-1.7,3.9-5.9,3.6-9.9,3.5c0.7-1.3,1.5-2.6,2.2-3.9
								C778-37.4,778.1-38.4,775.8-39.7z M783.9-43.3c-0.4-0.2-0.7-0.4-1.1-0.6c-0.1,0-0.5,0.2-0.6,0.4c-0.2,0.5,0.1,0.9,0.7,0.9
								C783.2-42.7,783.6-43.1,783.9-43.3L783.9-43.3z"/>
							<path id="Path_10267" class="st9" d="M97.7,1053.9c0.8-4.1,4.9-5.2,9.2-6.4c3.9-1,4.2-2.1,1.9-4.3c-1.1-1-4.3-0.8-3.4-3
								c0.7-1.6,2.9-1.7,4.9-1.7c2.4,0,5.3,0.6,5.1,2.4c-0.4,6.6,5,6.5,11.2,6.8c6,0.2,7.1,1.5,7.8,6.2L97.7,1053.9z"/>
							<path id="Path_10268" class="st16" d="M1487-56c-0.1-0.4-0.1-0.8-0.2-1.3c3-1.4,6.3-1.4,9.7-1.3c23.1,0,46.1,0,69.2,0.1
								c3,0,7-1.2,8.3,2.5C1545-56.1,1516-56,1487-56z"/>
							<path id="Path_10269" class="st3" d="M2011.4,279.3c-1.4-0.8-2.7-1.9-2.7-3.1c-0.4-7.3-2.9-14.8,2.7-21.6
								C2011.3,262.8,2011.3,271.1,2011.4,279.3z"/>
							<path id="Path_10270" class="st9" d="M241.8,1054c0.7-4.4,0.7-4.4,5.9-4c2.5,0.1,5,0.1,7.5,0.1v3.9L241.8,1054z"/>
							<path id="Path_10271" class="st9" d="M75.9,1054c-0.2-2.7,1.3-4.6,4.8-4.6c3.4,0,4.8,2.2,5.2,4.6L75.9,1054z"/>
							<path id="Path_10272" class="st9" d="M300.5,1054c0.3-1.7,1.5-2.6,3.8-2.4c1.5-0.1,2.8,1,2.9,2.5L300.5,1054z"/>
							<path id="Path_10273" class="st10" d="M-24.6,813.7c1.4,0.2,3.8-0.4,3.8,1.3c0,1.7-2.4,1.1-3.8,1.3
								C-24.6,815.4-24.6,814.5-24.6,813.7z"/>
							<path id="Path_10274" class="st10" d="M216.7,1053.9c0.3-1.1-0.5-3,1.7-3s1.4,1.8,1.7,3L216.7,1053.9z"/>
							<path id="Path_10275" class="st9" d="M282,1054c0.3-1.2,0.7-2.5,2.9-2.3c1.6,0.2,1.9,1.2,2.1,2.2L282,1054z"/>
							<path id="Path_10276" class="st9" d="M203.3,1054c0.3-1.1-0.5-3,1.7-3c2.2,0,1.4,1.9,1.7,3L203.3,1054z"/>
							<path id="Path_10277" class="st9" d="M15.6,1054c0.2-0.8,0.3-1.9,1.7-1.9s1.5,1,1.7,1.9H15.6z"/>
							<path id="Path_10278" class="st9" d="M-24.6,1052.7l1.6,1.3C-23.7,1053.9-24.3,1053.4-24.6,1052.7z"/>
							<path id="Path_10279" class="st12" d="M1667.6,50.1c0.7-1.3,2.1-1.9,3.9-2.1c3.9-0.5,7.6-1.3,10.6-3.5
								c1.5-1.1,3.5-1.3,5.4-1.6c1.6-0.2,3.5-0.2,4.8-0.9c14.3-6.8,30.4-10.1,45.7-14.9c10.3-3.2,20.7-6.2,31.2-8.9
								c15.2-4,30.3-8.7,46.1-10.6c11.3-1.3,22.6-3.3,34.6-2.4c8.9,0.7,18.1,0.8,27.2,1.5c13.6,1.1,23.2,6.8,31,14.6
								c3.4,3.5,5.5,8.2,5.8,13.1c0.7,10.3-0.8,20.3-6,30c-5.2,9.6-9.6,19.5-15.9,28.7c-1,1.5-1.7,3.2-4,3.9l-0.7-0.4
								c0-2.1-0.1-4.2-0.4-6.3c-0.5-1.7-1.9-3-3.7-3.1c-2.8-0.4-2.6,1.8-3.3,3c-2.3,4.5-2.2,4.5-8.2,4c-1.1-0.1-2.2-0.2-3.3-0.2
								c1-6.3,6.2-11.4,9.6-16.9c6.7-10.6,11.9-21.6,13.6-33.3c0.6-3.9-0.7-8-1.5-12c-0.4-1.9-1.8-3.5-3.7-4.1
								c-7.3-2.7-14.3-5.8-23-3.5c-2.5,0.5-5,0.6-7.5,0.4c-11.5-0.4-22.4,1.8-33.2,4.6c-4.5,1.1-9.2,1.2-13.8,2.4
								c-14,3.5-27.5,7.9-40.8,12.8c-7.5,2.7-15.5,4.7-23.1,7.2c-12.7,4.2-25.6,8.1-37.7,13.2c-10.5,4.4-21.1,8.8-32.9,11.3
								c1.2-2.4-3.4-3.5-2.2-6.2c1.8-4.1,1.5-4.2-4.5-6.3c-1.7-2.7-2.8-5.4,0.4-8.1C1670.4,53.5,1668.4,51.8,1667.6,50.1z"/>
							<path id="Path_10280" class="st10" d="M1667.6,50.1c0.8,1.7,2.8,3.4,0.6,5.2c-3.2,2.7-2.1,5.3-0.4,8.1V66
								c-1.9,0-3.7,0.5-5.3,1.4c-5.3,2.9-5.4,4.1,0.2,7.6c3.2,0.3,3.4,2,3.4,3.9c-2.4,2.9-6.8,4-10.4,4.7
								c-9.3,1.9-18.3,4.9-26.9,8.9c-1.7,0.8-3.3,1.6-5.4,0.8c-2-0.7-3.9,0.1-5.6,0.7c-6.9,2.5-14.5,3.3-21.7,5.2
								c-6.2,1.6-12.4,4.3-19.7,3c-4.1-0.7-7,2.9-11.1,3.4c-4.4,0.2-9-0.4-12.4,2.5c-1,0.9-2.5,0.7-3.9,0.4
								c-2.2-0.4-4.4-0.3-6.6,0.3c-3.3,0.9-7.6,3.3-9.7,2.5c-3.9-1.5-6.2,0.3-9.1,0.7c-4.1,0.5-8.4-1.3-12-0.6
								c-5.6,1-11,0.5-16.5,0.6c-0.4-0.8-1-1.5-1.6-2.2c-5.9-4.4-5.3-4.2-2.3-10.1c2.2-4.4,5.5-9.5-1-14c-2.6-1.8-1.6-4.4-1.8-6.7
								c2.9-0.5,5.6,0.6,8.4,0.9c0.1,0.8,0.3,1.7,1.3,1.9c1.8,0.2,1.8-1,2-1.9c6.7,2.3,13.3-0.3,20-0.4c11.9-0.1,23.3-3.1,35.2-3.5
								c5.4-0.2,10.6-2,16-3c7.5-1.4,15.2-2.1,22.5-3.9c9.8-1.5,19.3-4,28.7-6.4c6.7-1.7,13.4-4.2,20.3-5.6
								C1651.6,55.6,1659.1,51.9,1667.6,50.1z"/>
							<path id="Path_10281" class="st9" d="M1843.1,217.6c-2,3.1-4.8,6.2-5.7,9.5c-0.8,2.8-1.7,5.2-5.5,7.4
								c5.6,1.4,7.6,4.1,7.8,8.2c-5.5-1.1-8.7-5.4-14.5-4.5c-7.6-5.9-8.5-13.7-9.6-21.2c-1.2-9.2-0.4-18.5,2.5-27.3
								c3.8-12,7.6-24.2,13.4-35.9c5-10.1,9.3-20.5,15.8-30.1c2.7-4,3.3-9.1,9.3-11.6c6.1,1.1,10.8,3.4,12.7,8.2
								c0.6,1.1,1.6,1.9,2.8,2.2c-1.5,7.4-7.1,13.8-9.8,20.9c-2.5,6.7-7.4,12.6-9.6,19.5c-3.8,11.8-7.3,23.6-8.9,35.7
								c-0.5,3.8-2.7,7.4-1.8,11.4c-2.2,1.7-1.9,3,1,3.9C1843.7,214.9,1843.7,216.4,1843.1,217.6z"/>
							<path id="Path_10282" class="st13" d="M553.7-12.3c3-0.1,6.1,0.3,6.2,3c0,3.2,2.9,5.4,3.6,8.3c-7.8,7.2-18.3,9.9-29.9,11.6
								c-12.1,1.8-24.2,0.8-36.3,1.7c-20.7,1.5-39-3.8-57.4-9.7c-7.8-2.5-15.6-5-23.3-7.7c-2.1-0.8-4-2-5.5-3.6c0-1.5,0.2-3,0.6-4.4
								c1.1-3.1-1.5-3.7-4.4-3.9c-1-0.1-2.1,0.5-3.2,0.5c-0.7,0-1.5-0.3-2-0.8c-0.4-0.9,0.3-1.6,1.3-2.1c4.4-1.5,9.2-0.6,12.8,2.2
								c1.2,1,1.3,3,4,2.7c3.3-2.5,3.1-5.2,1-8.1c7.4,1.3,13.8,4.5,20.6,6.8c12.1,4.2,24.2,8.8,37.2,10.4
								c21.1,2.4,42.5,3.3,63.2-2.5c3.3-0.9,7-1.2,9.7-3.2l1.8-1.1L553.7-12.3z"/>
							<path id="Path_10283" class="st13" d="M772.9-33c4,0.1,8.1,0.5,9.9-3.5c2.8,1.9,1.6,5,5,5.9c0.4,2.7-3,4.2-3.7,6.5
								c-2.3,0.4-2.5,1.8-2.8,3.2l-3.5,3.3l-1.2,1c-8.8,5.6-19,8.5-29.4,8.5c-5.3,0-10.8,1.9-15.9-0.9c1-3.3-2.9-6.3-2.2-9
								c1.2-4.5-2.3-2-3.5-1.7c-2.5,0.6-2.9,3-4.9,4.2c-0.8,0.5-1.6,1.3-2.9,0.9s-1.6-1.3-1.2-2c1.6-2.8-2.7-5-0.9-7.9
								c0.6-1-1-1.7-2.3-2.2c-6-2.3-9.9-0.3-12.2,6.5l0,0c-4.2,0.3-2.6,2.2-1.7,3.8c-2.7,0.1-5.3-0.7-7.4-2.4
								c-2.4-1.8-5.3-2.7-8.3-2.7c-4.9,0.2-6.4-1.7-6.1-5.1c0-0.8-0.1-1.6-0.2-2.4c-0.7-0.5-1.7-0.3-2.3,0.3c-1,0.9,0.9,3.6-2.7,2.9
								c-3-0.6-3.7-2.6-2.7-4.6c0.5-1,2.3-1.7,3.6-2.6c-1.4-2.9-6.4-2.4-8.4-5.5c4.9-1.2,9,1.7,13.4,1.2c16.8,4.1,33.4,8.8,50.5,12
								c11.6,2.2,23.9,3.1,35.8-1.2C768.8-27.9,768.8-31.7,772.9-33z"/>
							<path id="Path_10284" class="st15" d="M1947.2,973.5c0.7-3.5,1.7-6.4,6.1-7.6c0.5-0.1,1-0.3,1.5-0.5
								c7.6-5.8,15.2-3.4,22.5,0.3c1.7,0.8,3.5,1.3,5.3,1.5c3.1,0.4,5.2,1.3,5,4.1c-0.1,2.1,1.1,3.6,3.6,4.6c3.7,1.5,3.2,4,2.5,6.7
								c-1.7,6.3-9,9.4-13.4,14.2c-1.4,1.5-3.7,0.3-5.4-0.2c-3.8-1.1-7.1-2.9-11.6-3.2c-3.8-0.3-6.5-3.5-8-6.1
								c-1.3-2.5-3.1-4.6-5.2-6.3C1947.1,978.7,1948.9,975.5,1947.2,973.5z"/>
							<path id="Path_10285" class="st15" d="M421.1-22.6c2.1,2.9,2.4,5.6-1,8.1c-2.7,0.2-2.8-1.7-4-2.7c-3.6-2.9-8.4-3.7-12.8-2.2
								c-1,0.4-1.8,1.2-1.3,2.1c0.5,0.5,1.3,0.8,2,0.8c1.1,0,2.2-0.6,3.2-0.5c3,0.2,5.5,0.8,4.4,3.9c-0.4,1.4-0.5,2.9-0.6,4.4
								c-2.7-0.1-5.4-0.7-7.9-1.8c-13.3-5.7-26.6-11.4-40.2-16.7c-3.3-1.3-5.5-3.5-8.9-4.4c2.9-4.1,1.6-9,4.8-13
								c0.9-1.5,2.5-2.4,4.2-2.6c0.4,0,0.8,0.1,1,0.3c0.4,1.9,1.9,2.5,4.2,2.3c5.3,0,8.7,3.1,12.7,5.1c1,1.5,2.8,1.6,4.7,1.6
								c0.3,0.1,0.6,0.4,0.5,0.7c1.4,4.3,1.4,4.3,8.8,4.2c0.4-0.1,0.8,0,1.1,0.3c0.9,0.8,2.1,1.3,3.3,1.2l0,0c0.7,0.9,1.8,1.3,3,1.3
								c0.3,0.2,0.5,0.5,0.5,0.9C407.5-25,414.2-23.7,421.1-22.6L421.1-22.6z"/>
							<path id="Path_10286" class="st13" d="M21.9,64c1.7,6.2-4.5,9.2-9.3,12.4c-3.7,2.4-9,2-13.3-0.1c-6.7-3.3-13.7-6.4-18-11.9
								c-1.3-1.5-2.2-3.4-2.7-5.3c-1.1-5.5-1.1-5.6,5.4-8.4c1.9-0.8,3.7-1.8,5.2-3.1c1.6-1.4,3.7-2.1,5.8-2C1.2,45.4,9.5,49,12,53.6
								c1.4,2.7,4.9,3.2,7.2,5C21.3,60.2,23.1,61.5,21.9,64z"/>
							<path id="Path_10287" class="st15" d="M152-41.9c7.6,1.3,15.1,2.8,20,6.6c4,3.2,7.5,7.7,7.7,12.8c0,1.2-0.6,3.3-1.5,3.5
								c-6,1.5-8.7,6.5-14.5,7.8c-4.3,1-8.7-0.4-12.1-2.4c-7.3-4.4-10.5-10.7-13-17.3c-0.3-0.8-0.2-1.7,0.4-2.4
								c3-2.7,6.2-5.4,9.6-7.9C149.4-41.8,151.1-41.7,152-41.9z"/>
							<path id="Path_10288" class="st15" d="M134.6,28.7c1.2-2.5-0.8-4.4-1.8-6.5c-3.4-6.9-0.4-12.7,8.3-15.9
								c4.9-1.8,9.8,0.1,14.4,1.1c4.5,1,8.5,3.1,9.9,6.9c1,2.8,5,4.1,4.9,7.8c-0.1,3.4-0.1,5.9-4.5,7.5c-2.4,0.9-4.7,2.1-6.9,3.4
								c-7.5,4.4-10.2,4.5-17.9,0.1c-0.9-0.5-2.1-0.7-3.1-0.4l0.1,0C138.3,30.5,138.8,28.4,134.6,28.7L134.6,28.7z"/>
							<path id="Path_10289" class="st15" d="M249.3-32.3c-2.6-0.9-5-1.8-6.9,0.9c-1,1.4-2.9,2.5-4.2,3.9c-0.6,0.8-1.7,1.2-2.7,0.9
								c-7.5-1.8-15.5-2.9-20.4-8.4c-1.4-1.6-2.9-3.2-4.1-4.8c-4.6-6.2-2.4-10.7,6.6-12.5c8.7-1.7,17.6-1.4,26.1,0.9
								c4.6,1.2,3,4.8,5.5,6.6c-3.4,3.2,1.2,6.2,0.4,9.4C249.4-34.4,249.3-33.4,249.3-32.3z"/>
							<path id="Path_10290" class="st15" d="M97.6-36.8c6.5,3.6,14,5.5,21.5,7.5c2.9,0.8,4.7,1.8,5.1,4.4c0.6,3.6,3.7,6.6,4.1,10.3
								c0.2,1.5,0.6,2.8-1.9,3.6c-5,1.6-9.8,3.8-15,5c-6.6,1.5-10.7,0.1-13.4-4.6c-4.3-7.5-9.2-15-7.1-23.6l-0.1,0.1
								c3.3,0.7,5.5-0.3,6.8-2.6L97.6-36.8z"/>
							<path id="Path_10291" class="st15" d="M268.8,94.4c-0.1-5.6,6.4-8.7,14.7-5.6c5.8,2.2,11.4,4.9,16.8,7.9c3.3,1.8,5,4,3,7.1
								c-1.4,2.2-0.6,4.6-1,7c-0.6,4.4-3.6,6.5-9.3,6c-4.4-0.4-8.5-1.5-13.1-1.2c-2.8,0.2-5.5-1.6-6.4-4.2
								C271.7,106.3,269.6,101.3,268.8,94.4z"/>
							<path id="Path_10292" class="st13" d="M137.9,32.6c-2,2-2.3,3.8-0.4,6.3c3.7,4.8,2.1,6.2-4,9.8c-4.1,2.6-8.7,4.4-13.6,5.1
								c-2.5,0.3-3.7,0.4-5.7-0.7c-6.1-3.6-8.9-8.4-9.7-14c-0.1-0.9-0.1-1.7,0.1-2.6c0.4-3.2-1.5-6.7,4-8.9
								c5.8-2.5,12.2-2.8,18.2-0.8c2.5,0.8,4.2,3.8,7.9,1.9l0,0C133.7,31,134.2,32.6,137.9,32.6L137.9,32.6z"/>
							<path id="Path_10293" class="st14" d="M191.3,75.9c0,0.3,0.2,1.2-0.3,1.6c-4.5,3.9-10,6.5-15.8,7.6c-3.8,0.7-7-1.7-9.9-3.6
								c-5-3.4-7.7-8.1-12.3-11.8c-3.2-2.5-1.8-6.5,1.5-9.1c5.1-4,10.4-4.6,17.2-2.7C181.8,60.7,191.2,68.6,191.3,75.9z"/>
							<path id="Path_10294" class="st15" d="M1872,970.4c-0.1,1.4-5.4,6.3-8.4,7c-2.4,0.5-4.8,1-7.2,1.6c-6.6,1.7-8.4,1.3-12.9-2.8
								c-4.2-3.8-6.2-8.5-9.1-12.8c-2.7-4,5.1-11.6,14.6-9.9c3.2,0.6,6.4,1.2,9.6,1.8c3.2,0.6,7,2.1,8.6,4.1
								C1869.6,962.5,1870.3,966.2,1872,970.4z"/>
							<path id="Path_10295" class="st13" d="M70.4-13.6c7.3-1.3,13.3,2.8,19.7,5.6c3.5,1.5,6.1,9.9,4.9,12.8
								c-0.6,1.5-2.6,1.5-3.8,2.3c-9.9,6.4-11.3,6.5-21.4,1.7c-5.3-2.5-9-6.3-13-9.8c-1.6-1.4-1.5-3.1-0.9-4.9
								C58.1-11.8,61.5-13.7,70.4-13.6z"/>
							<path id="Path_10296" class="st15" d="M218.7,3.9c6,0,11.4,1.8,16.9,3.3c4.7,1.3,9.3,13.7,6.7,17c-0.7,1-1.8,1.7-3,2.1
								c-4.1,0.6-7.6,2.5-11.5,3.5c-6.4,1.6-9.2,0.7-12-3.8c-2.6-4.2-5.1-8.5-7.2-12.8c-2.4-4.8,0.2-8.2,6.9-9
								C216.4,3.9,217.5,4,218.7,3.9z"/>
							<path id="Path_10297" class="st13" d="M1847.4,934.2c-10.5,0.3-22.2-10-19.8-17.6c0.4-1.1,1.3-2,2.3-2.6
								c3.8-2.3,8.6-3,12.7-4.8c0.8-0.2,1.6-0.2,2.4,0c5.8,1.8,11,5.2,15.1,9.8c2.7,2.9,2.1,7.2,1,11c-0.7,2.4-3.2,3-5.4,3.5
								C1853.1,934.1,1850.2,934,1847.4,934.2z"/>
							<path id="Path_10298" class="st13" d="M1693.9,920.7c0.1,8.2-2.9,10.4-11.6,7.9c-4.9-1.4-10.3-1.6-14.7-4
								c-2.2-1.2-4-2.5-3.4-4.7c1-3.7,2.3-7.4,3.5-11.1c0.7-2.2,2.6-2.8,5.4-3.1c7.6-0.8,15,2.2,17.8,7.5
								C1692.6,916,1693.8,918.8,1693.9,920.7z"/>
							<path id="Path_10299" class="st13" d="M1907.3,976.1c-2.1,0-4.2-0.7-5.9-2c-4.9-3.7-9.1-8.2-12.4-13.4
								c-1.5-2.3-1.2-4.2,1.2-5.7c2.5-1.5,4.8-3.5,8.8-1.4c4.1,2.1,8.7,3.5,12.8,5.7c3.2,1.7,5.2,3.4,6.1,6.3
								c0.7,2.2,2.9,4.1,0.3,6.5C1916.1,973.9,1910.4,976.2,1907.3,976.1z"/>
							<path id="Path_10300" class="st13" d="M1977.9,877.9c-0.9-2,0.5-3.8,0.8-5.6c0.6-5.1,5.2-6.7,12.1-5.6
								c5,0.8,8.8,2.5,11.2,5.7c2.1,2.8,3.3,5.7,0.5,8.9s-4.4,6.8-10.9,6.8c-3.4,0-4.9-1.7-7.2-2.8
								C1982.3,882.9,1980.1,880.4,1977.9,877.9z"/>
							<path id="Path_10301" class="st13" d="M1744.5,931.1c3.1-2,2-5.7,4.4-8.3c2.9-3.1,7.8-3.7,12.4-2c4.1,1.6,7.4,3.7,9,7.1
								c2.3,4.6,1.1,8.2-4,11.2c-3.5,2.1-7.8,2-13-0.6c-2.5-1.3-4.9-2.8-7.3-4.2C1745,933.7,1744.4,932.4,1744.5,931.1z"/>
							<path id="Path_10302" class="st14" d="M19-21.7c-3.2-0.1-6.3-1-7.9-3.6c-2.3-3.5-5-6.7-8.1-9.6C1.9-36,1.2-37.4,1-39
								c-0.5-3.2,2.3-5.6,6.3-5c7,1.2,11.1,6.1,17.4,8.3c2.4,0.9,2.7,3.5,3.6,5.6C30.8-24.3,27-22.3,19-21.7z"/>
							<path id="Path_10303" class="st14" d="M350,122c-4.2-1-8.5-1.8-12.5-3.2c-2.7-0.9-4-5.2-2.8-7.5c0.6-1.4,1.3-2.8,2.1-4.1
								c1.4-1.9,3.9-3,6.3-4.1c2.5-1.1,4,1.1,6.1,1.3c2.9,0.3,5.1,1.7,7.3,2.9c5,2.8,5.1,3.6,2,8c-0.9,1.3-1.5,2.8-2.3,4.1
								C355,121.3,353,122.4,350,122z"/>
							<path id="Path_10304" class="st15" d="M63.4,55.7c0.7,2.6,3.3,5.2,0.7,7.8c-2.8,2.7-7.1,4.1-11.3,4.9
								c-3.2,0.6-6.8,0.4-8.9-2.1c-1.8-2.1-5.8-2.7-6.4-5.5c-0.7-2.6,1.6-4.3,2.6-6.5c1.2-2.4,3-2.4,5.7-3.1
								c6.8-1.7,11.1,1.7,16.2,3.4l0.3,0.3C62.6,55.2,63,55.5,63.4,55.7z"/>
							<path id="Path_10305" class="st14" d="M1981.9,955c-6,0.1-17.4-6.9-18.3-11.2c-0.7-3.3,4.3-6.7,8.7-5.5
								c4.3,1.3,8.8,2.4,12.7,4.5c3.7,2,4.3,5,5.3,7.7C1991.1,953.1,1987.3,954.9,1981.9,955z"/>
							<path id="Path_10306" class="st14" d="M1931.3,928.2c0.3,6.2,0.3,6.2-6.8,6.5c-1.9,0.2-3.9,0.2-5.8,0.1
								c-6.1-0.6-8.6-3-8.5-7.7c0-4.6,4.1-9,8.9-9.5c4.1-0.5,12,4.6,12.4,8.1C1931.5,926.4,1931.5,927.3,1931.3,928.2z"/>
							<path id="Path_10307" class="st15" d="M701-20.1c2.3-6.8,6.2-8.8,12.2-6.5c1.3,0.5,3,1.2,2.3,2.2c-1.8,2.8,2.6,5.1,0.9,7.9
								c-0.5,0.8-0.1,1.7,1.2,2s2.1-0.4,2.9-0.9c1.9-1.2,2.3-3.6,4.9-4.2c1.2-0.3,4.7-2.8,3.5,1.7c-0.7,2.7,3.1,5.7,2.2,9
								c-9.9,1.5-18.5-1.6-27.2-4.4C705.1-16,706.6-18.9,701-20.1z"/>
							<path id="Path_10308" class="st12" d="M1872.2,122.5c-1.2-0.3-2.2-1.2-2.8-2.2c-1.9-4.9-6.6-7.1-12.7-8.2
								c0.5-1.3,1.1-2.6,1.6-3.8c1.2,0.5,2.7,0.8,3.6,1.5c3.6,3,6.5,1.9,9.8-0.4c7.6-5.3,7.6-5.5-2.1-8.7c5.3-3.7,11.5-3.8,17.8-3.8
								l0.7,0.4c0.1,1.1,0.8,2.4,0.2,3.1c-5.4,6.3-7.9,13.7-12.9,20.2C1874.6,121.3,1873.2,121.8,1872.2,122.5z"/>
							<path id="Path_10309" class="st15" d="M1981.4,885.7c0,0.7,0.1,1.4,0.1,2.1c-0.4,2.1-1.6,4.2-1.1,6.1c1,4.5-2.6,4.7-6.5,4.8
								c-0.9-0.1-1.8-0.2-2.7-0.4c-0.9-3.2-4.2-2.3-6.9-2.4l0,0.1c0-1.3,0.1-2.7,0.1-4c-0.5-0.7-1-0.7-1.6,0c-3.2,0-5.3-0.5-4.4-3.7
								c1.9-6.5,4.1-7.9,12.7-7.9c0.4,2.4,2.7,2.5,5.1,2.5C1978.7,883,1979.6,884.9,1981.4,885.7z"/>
							<path id="Path_10310" class="st14" d="M62.1,54.6c-5.1-1.7-9.4-5.1-16.2-3.4c-2.8,0.7-4.6,0.6-5.7,3.1
								c-1.1,2.1-3.3,3.9-2.6,6.5c-5.4-3-7.6-7.6-10.3-12c-2.1-3.4,0.5-5.2,3.1-7.1c2.9-2.1,5.8-0.9,8.1,0.8c4.3,3.2,9.3,5,15,6.2
								C57.2,49.4,61.4,50.7,62.1,54.6z"/>
							<path id="Path_10311" class="st9" d="M1887.3,96.8c-6.2,0-12.5,0.1-17.8,3.8c9.7,3.1,9.7,3.3,2.1,8.7
								c-3.3,2.3-6.2,3.4-9.8,0.4c-0.9-0.7-2.4-1-3.6-1.5c3-3.3,3.3-7.6,6.4-10.9c1.1-1.2,1.7-2.7,3.7-3.3c1.1,0.1,2.2,0.1,3.3,0.2
								c6,0.6,5.9,0.6,8.2-4c0.6-1.2,0.4-3.4,3.3-3c1.8,0.2,3.3,1.4,3.7,3.1C1887.2,92.5,1887.3,94.6,1887.3,96.8z"/>
							<path id="Path_10312" class="st14" d="M1981.4,885.7c-1.8-0.8-2.7-2.7-5.2-2.7c-1.1-1.7-3.1-2.7-5.1-2.5
								c-8.6,0-10.8,1.4-12.7,7.9c-0.9,3.1,1.2,3.7,4.4,3.7c0.5,0,1.1,0,1.6,0c0,1.3-0.1,2.7-0.1,4c-9.4-2-11.6-5.6-7.1-12.1
								c1.2-2,2.8-3.8,4.6-5.2c2.5-1.7,5.6-3.7,9.2-1.4c2.1,1.3,4.7,1.5,7,0.6c2.2,2.5,4.4,4.9,6.6,7.4
								C1983.4,885.4,1982.4,885.6,1981.4,885.7z"/>
							<path id="Path_10313" class="st9" d="M1667.8,66v-2.6c5.9,2.1,6.3,2.1,4.5,6.3c-1.2,2.7,3.4,3.8,2.2,6.2
								c-0.5,0.2-1,0.3-1.6,0.4c-1.8,0.1-3,0.6-3.5,2l-3.3,0.6c0-1.9-0.2-3.7-3.4-3.9c0.7-2.6,3.4-4.2,5-6.3
								C1668.6,67.6,1669.1,66.9,1667.8,66z"/>
							<path id="Path_10314" class="st14" d="M1973.8,898.8c4-0.2,7.5-0.3,6.5-4.8c-0.4-1.9,0.7-4.1,1.1-6.1
								c2.2,2.3,3.5,4.7,2.7,7.6C1982.7,900.5,1980.6,901.2,1973.8,898.8z"/>
							<path id="Path_10315" class="st13" d="M1964.2,896c2.7,0.1,6-0.8,6.9,2.4C1968.3,898.6,1965.3,898.9,1964.2,896z"/>
							<path id="Path_10316" class="st14" d="M1941.5,1011.4c-3.2,0.1-6.3-0.8-9-2.5C1935.9,1008.8,1939.4,1008.8,1941.5,1011.4z"/>
							<path id="Path_10317" class="st14" d="M1931.8,1008.7c-2.6,0.4-4.5-0.3-5.9-2C1928.2,1006.8,1930.4,1007.1,1931.8,1008.7z"/>
							<path id="Path_10318" class="st14" d="M781.2-20.8c0.3-1.4,0.5-2.9,2.8-3.2C784.2-22.3,783-21.4,781.2-20.8z"/>
							<path id="Path_10319" class="st12" d="M2006.6,916.2c-2.3-0.6-2-2.1-2.1-3.4c1.4-0.2,2.7,0.2,3.7,1.2l0-0.1
								C2007.1,914.1,2006.4,915.2,2006.6,916.2C2006.6,916.2,2006.6,916.2,2006.6,916.2z"/>
							<path id="Path_10320" class="st12" d="M1669.5,78.3c0.4-1.4,1.7-2,3.5-2C1672.5,77.7,1671.6,78.6,1669.5,78.3z"/>
							<path id="Path_10321" class="st13" d="M788.9-44.6c-0.6-0.3-1.6-0.6-1.8-1c-0.3-1.1,0.9-1.2,2-1.4
								C789-46.2,789-45.4,788.9-44.6z"/>
							<path id="Path_10322" class="st14" d="M63.4,55.7c-0.4-0.2-0.8-0.4-1.1-0.8L63.4,55.7z"/>
							<path id="Path_10323" class="st14" d="M776.4-16.5l1.2-1C777.7-16.8,777.3-16.5,776.4-16.5z"/>
							<path id="Path_10324" class="st12" d="M1843,213.8c-2.9-0.9-3.2-2.2-1-3.9C1843.4,210.7,1843.8,212.4,1843,213.8
								C1843,213.7,1843,213.7,1843,213.8z"/>
							<path id="Path_10325" class="st4" d="M295.3,920.5c2.8-7,4.5-14.2,8.6-21.1c4-6.8,11-11.9,14.5-18.8
								c1.8-3.5,7.1-5.7,10.5-8.8c7.4-6.5,16.1-11.5,26-16c10.6-4.8,21.2-4.4,31.8-3.8c20.2,1.2,39.5,5.7,58.2,11.7
								c17.9,5.8,30.6,15.6,41.2,27.6c4.9,5.3,10.1,10.3,15.6,14.9c9,7.8,16.5,16.5,24.9,24.7c2.9,2.8,5.1,6.1,9.7,7.6
								c0.7,0.2,1.3,0.7,1.6,1.3c1.1,3.8,5.2,5.4,9,7.1c7.4,3.2,13,8.5,21,11.1c6.5,2.1,12.3,5.7,20.3,3.9c2.4-0.6,5.4,0.6,8.2,0.7
								c8.1,0.3,16.1-0.2,24.1-1.5c8.1-1.2,16.1-2.5,24.6-1.4c3.9,0.5,8.2-0.6,12.3-1.3c13-2.3,26.3-0.1,37.8,6.3
								c9.9,5.1,19.5,10.8,28.8,17c6.8,4.9,12.8,10.7,17.9,17.3c7.3,9,15.4,17.3,24.2,24.9c2.2,1.8,4.1,3.9,5.8,6.2
								c2,3,5.2,5.3,8.4,7.7c5.2,3.9,8.8,9,13.1,13.6c-2.5,1.7-4.8,1.1-6.8,1.1c-125.6,0-251.2,0-376.9,0c-3.2,0-6.8,0.7-9.5-1.5
								c1.2-2.8,2.7-5.6-1.1-8.1c-2-1.3-0.6-3.1-0.4-4.8c0.9-6.7,0.4-13.3-4.1-19.4c-0.4-0.5-0.7-1.1-0.6-1.8
								c1.9-6.7-2.8-12.5-4-18.7c-1.4-7.4-6.7-13-11.6-18.4c-3.9-4.2-5.8-10.3-13.2-12.5c-1.5-0.5-1.4-1.7-1.5-2.8
								c-0.1-1.6-0.5-3.5-2.5-3.7c-4.8-0.5-5.8-3.6-7.4-6.1c-4.4-6.6-11.3-11.1-18.8-15.5c-3.9-2.3-6.7-5.5-12.5-5.5
								c-2.7,0-3-3-5.2-3.9C310.2,926.8,302.7,923.7,295.3,920.5z"/>
							<path id="Path_10326" class="st10" d="M144.6,962.7c1.2-3.2,2.1-6.3-3.2-8.1c-2.5-0.8-2.2-3.3-3.6-4.9
								c-1.5-1.7-2.9-2.6-5.3-0.9c-3.9,2.7-10.2,3-12.4,7.6c-0.8,1.7-3.6,0.7-4.7-0.7c-1.9-2.6-0.7-4.7,1.8-6.9
								c3.2-2.8,5.7-5.7,2.2-9.7c-1.9-2.1,1.9-3.3,3.5-2.9c5.1,1.4,6.4-1.6,9.4-3.4c2.7-1.7,6.4-2.3,5.9-5.9
								c-0.2-1.4,0.9-2.4,2.4-3.1c2-0.9,3.8-3.1,6.5-1.2c1.8,1.2,1.3,5-0.9,6.3c-3.4,2.2-6.8,4.3-10.4,6.3c-3,1.6-2.6,3.9-0.3,4.6
								c4.8,1.7,6.6,5,9.1,7.9c1.5,1.7,3.2,2.7,5.4,1.4c2.2-1.3,1.6-3.1-0.4-4.4c-3.7-2.2-3.7-5.2-2.5-8.1c0.7-1.6,2.7-2.6,4-0.3
								c1,1.9,1.4,2.5,4.6,1.7c3.9-1,8.1,0.2,11.4,2c0,1.9-1.5,1.9-2.8,2.2c-3.1,0.8-3.3,2.4-0.8,3.6c2.7,1.3,5.1,3.1,7.1,5.3
								c7.1,7.5,17,8.8,26.8,3.5c1.6-0.9,2.6-2.4,4.8-1.1c4.7,2.7,9.9,2.1,15.1,1.1c2.1-0.4,4-0.7,4.3,1.6c0.3,1.8-0.2,3.6-3.2,3.8
								c-2.8,0.2-5.6,0-8.4,0.2c-5.8,0.5-7.2,2-5,6.3c1.5,2.9-0.2,6.3,2.5,9.1c0.8,0.8-0.7,2.4-2.1,3.2c-1.5,0.7-3.3,0.4-4.5-0.6
								c-1.5-1-3.6-2-3.6-3.4c0.1-6.8-5.7-8.7-13-9.5c-2.9-0.3-5.7-1.5-8-3.2c-1.4-1-2.9-2.2-4.9-0.5c-7.8-1.2-9.7-2.5-9.2-6.4
								c0.2-1.2,1.1-2.6-0.8-3.3c-2.6-0.9-4,0.5-5.2,2c-4.9-1-4.9-1-6.7,3.9C149.8,960.3,148.8,962.5,144.6,962.7z"/>
							<path id="Path_10327" class="st9" d="M220,1011.5c-2.3,1.5-1.5,3,0,4.5c1.8,1.7,1.1,3.1-0.9,4.4c-2.6,1.8-3.9,0.1-5.3-1.2
								c-1.2-1.2-2.7-2.2-5-1.4c-2.6,0.9-4.1,2.3-3.9,4.5c0.2,1.5,0.6,3,1,4.4c0.3,1.6-2.1,3.5,0.4,4.8c2.4,1.2,4-0.7,6-1.3
								c2.1-0.7,3.8-0.4,5.1,1.1c1.1,1.3,0.3,2.3-0.7,3.5c-4.9,5.8-4.9,5.9-15.1,3.9l0,0c0-1.9-0.2-3.6-3.3-3.9c0-0.9,0-1.7,0-2.6
								c-0.3-0.6-0.7-1.6-0.9-1.6c-6,0.8-9.4-2.3-13-5.1c-1.2-1-2.9-1-4.6-1c-2.8-1.8-3-4.4-3.8-6.8c-1.5-4.2-3-8.5-9-10.6
								c-2.3-0.8-2.2-2.7-2.3-4.5c1.9-1.7,4.5-1.2,7-1.3c2-0.1,4-0.2,4.4-2.1c0.3-1.1-0.3-2.3-1.4-2.8c-1.6-0.9-3.3-1.5-5.3-0.5
								c-1.6,0.8-3.3,1.6-5,2.2c-3.6,1.3-4.8-0.8-6.2-2.7c-1.5-2.1-1-3.7,2-4.5c4.1-1.1,8.4-1.8,8.5-6.3c0-1.3,2.6-1.2,4.3-1.3
								c0.5,0.4,1,0.9,1.4,1.5c2.2,4.2,2.2,4.2,7,1.1c4.4,1.4,8.5-0.2,12.8-0.5c2.1-0.2,3.9-0.4,4.9,1.3c0.7,1,0.5,2.4-0.5,3.2
								c-0.2,0.1-0.3,0.2-0.5,0.3c-2.5,1.4-3,3.3-3.6,5.4c-0.8,2.9-2.4,3.2-6.1,2.1c-2.7-0.8-4.1-3.5-7.2-3.3
								c-2.6,7.4,5.2,13,4.6,19.8c-0.1,0.7,0.9,1.8,1.8,2c4.4,1.5,5.8,4.2,6.2,7.6c0.1,1.1,0.9,2.5,3.4,2.3
								c1.6-3.6,3.8-7.1,6.3-10.2c0.8-1,1.7-2.8,3.6-2.1c6.8,2.3,6-2.4,7.8-4.7C217.4,1009,219.7,1009.1,220,1011.5z"/>
							<path id="Path_10328" class="st10" d="M215,1009c-1.8,2.3-1,7-7.8,4.7c-1.9-0.6-2.8,1.1-3.6,2.1c-2.5,3.1-4.6,6.5-6.3,10.2
								c-2.5,0.2-3.3-1.2-3.4-2.3c-0.4-3.4-1.9-6.1-6.2-7.6c-0.9-0.3-1.8-1.4-1.8-2c0.6-6.9-7.2-12.5-4.6-19.8
								c3.2-0.2,4.6,2.5,7.2,3.3c3.6,1.1,5.3,0.8,6.1-2.1c0.6-2.2,1.1-4.1,3.6-5.4c1.2-0.5,1.7-1.8,1.3-3c-0.1-0.2-0.2-0.3-0.3-0.5
								c-1.1-1.7-2.8-1.4-4.9-1.3c-4.2,0.3-8.4,1.9-12.8,0.5c7.1-6.2,18.6-5,21.9,2.2c0.8,1.8,1.8,3.6,1.6,5.5
								c0.8,3.6-1.5,6.8-1.7,10.3c-2.1-0.3-4.3-0.7-6.4-0.9c-1-0.2-2.1,0.1-2.9,0.8c-1.3,1.5-1,6.5,0.7,7.1c3.2,1.2,3.1-1.6,4.7-2.5
								c0.7-0.3,1.5-0.5,2.3-0.7c2.5,1.8,3,0.3,3.4-1.3v-2.6l5-1.3C216.5,1003.5,216.5,1003.5,215,1009z"/>
							<path id="Path_10329" class="st10" d="M173.1,983.3c-1.6,0.1-4.2,0-4.3,1.3c-0.1,4.5-4.4,5.2-8.5,6.3c-3,0.8-3.5,2.4-2,4.5
								c1.4,1.9,2.5,4,6.2,2.7c1.7-0.6,3.4-1.4,5-2.2c2-1,3.7-0.4,5.3,0.5c1.1,0.5,1.7,1.7,1.4,2.8c-0.5,1.9-2.5,2-4.4,2.1
								c-2.4,0.1-5-0.3-7,1.3c-0.8,0.1-1.6,0.3-2.3,0.6c-3,2-4.4,1.5-6-1.3c-3.5-6-2.4-12.2-1.2-18.1c0.8-4-0.8-5.7-5-6.6
								c-4.6-1-7.4-2.9-7.2-6.8c2.3-2.1,4.3-4.2,8.9-3.2c1.4,0.3,4.8,0.5,5.9-1.1c0.9-1.6,2.8-2.2,4.4-1.3c0.3,0.2,0.6,0.4,0.8,0.7
								c3.2,3,5.7,1.2,8.5-0.2c3.2,2.1,0.3,4.3-0.1,6.4c-0.8,4.6-1,4.6,5,4.1c1.4-0.1,2.7-0.3,3.9,0.6
								C180.5,980.3,173.6,979.9,173.1,983.3z M167.7,976.1c-1.4-2.3-1.8-4.8-5.6-4.7c-1.1,0.2-1.9,1.3-1.7,2.4c0,0.1,0,0.2,0.1,0.2
								C161.7,976.4,164.1,976.9,167.7,976.1z M150.6,971.9c0.9,0.8,2.2,1.2,3.5,1c1.7-0.1,3.4-0.3,3.4-2c0-1.1-1.1-1.5-2.2-1.4
								C153.3,969.6,151.5,970,150.6,971.9L150.6,971.9z M169.7,978.8c-0.3,0.3-0.6,0.5-0.8,0.8c0,0.1,0.4,0.5,0.4,0.4
								c0.4-0.1,0.8-0.3,1.2-0.5C170.3,979.3,170,979,169.7,978.8L169.7,978.8z"/>
							<path id="Path_10330" class="st10" d="M126,914.6c-6.5-3.1-5.8-8.9-9.3-13.2c-0.5-0.7-0.3-1.6,0.3-2.1
								c0.1-0.1,0.3-0.2,0.4-0.2c1-0.5,2.2-0.4,3,0.3c4.8,3.9,9.2,7.2,9.7,13.8c0.6,7.4-3.2,12.1-9.5,15.9c-3.1,1.9,2.5,4.4-2,5.1
								c-2.4,0.4-5.2-0.4-7.1,1.3c-0.9,0.7-1.6,1.7-1.9,2.8c-0.8,4.3-6.7,6.1-8,10.3c-0.6,1.9-4.4,1.5-6.7,0.5c-2.3-1-2.3-2.4-1-4.3
								c2.7-3.9,7.3-6.9,7.6-11.8c0.1-2.2,3.5-2.8,6.1-2.3c4.8,0.9,7.6,1.2,7.5-4c-0.1-2.6,3.4-5.1,1.8-8.4
								c-0.6-1.1,1.2-1.6,2.7-1.8C121.6,916.3,123.7,916.9,126,914.6z"/>
							<path id="Path_10331" class="st10" d="M94.3,908.8c0.5,2.5-0.8,5.1-3.1,6.2c-3.3,1.8-6.6,3.1-7.9,6.7
								c-1,2.7-13.3,3.6-16.7,1.9c-1.2-0.6-2.6-1.7-2.1-2.5c2.5-4.1-1.8-6.1-4.6-8.3c1.4-1.6,3.7-1.8,5.3-0.5c1.8,1.1,3.3,1.2,5.1,0
								c2.3-1.6,1.3-2.9-0.3-4.3c-0.5-0.4-0.6-1.2-0.8-1.8c3,0.5,5.8,1.1,9,0.2c2-0.5,5-0.7,5.6,1.5c1.2,3.9,3.6,2.7,6.5,1.4
								C91.4,908.8,93,908.9,94.3,908.8z"/>
							<path id="Path_10332" class="st9" d="M171.4,965.3c-2.7,1.4-5.2,3.2-8.5,0.2c-1.2-1.3-3.3-1.4-4.6-0.2
								c-0.3,0.2-0.5,0.5-0.7,0.8c-1.2,1.6-4.5,1.4-5.9,1.1c-4.6-1-6.6,1.1-8.9,3.2c-3.9-3.1,0-5.3,1.7-7.7c4.2-0.3,5.1-2.4,5-5.1
								l3.3,0c0.2,0.8,0.6,1.6,1,2.3c0.9,1.3,2.6,1.7,4.1,1.1c1.9-1,0.3-2.1-0.4-3.1c-0.5-0.9-1-1.9-1.3-2.8v-1.3
								c1.2-1.5,2.6-3,5.2-2c1.9,0.7,0.9,2.1,0.8,3.3c-0.5,3.9,1.4,5.2,9.2,6.4L171.4,965.3z"/>
							<path id="Path_10333" class="st10" d="M179.8,1024.4c1.6,0,3.3,0,4.6,1c3.6,2.8,6.9,5.9,13,5.1c0.2,0,0.6,1.1,0.9,1.6
								c-2.9,0.1-4.3,2.7-7.4,2.5c-4.4-0.2-7.4,0.9-8.1,4.7c-0.3,1.5-2.2,1.8-3.9,1.1c-1.3-0.5-2.5-1.9-1.5-2.5
								C183.8,1033.9,179.6,1029,179.8,1024.4z"/>
							<path id="Path_10334" class="st9" d="M221.7,1044.9c-1.3-5.7,0.1-7,7.1-6.3c1.6,0.2,3.2,0.5,4.8,1c1.9,0.5,5.1-0.6,5.6,1.7
								c0.3,1.8-2.1,2.8-4.1,3.6c-1.9,0.1-4.4-0.5-5.4,0.7C226,1050.4,224,1047.5,221.7,1044.9z"/>
							<path id="Path_10335" class="st10" d="M40,934.7c1.3,0.8,2.7,1.5,4.2,2.1c2.3,0.8,3.8,1.9,2.7,3.8c-1.1,2-3.6,1.6-5.7,1.3
								c-2.5-0.4-3.7-1.6-2.9-3.7C38.7,937.3,39.2,936.3,40,934.7z"/>
							<path id="Path_10336" class="st10" d="M208.3,993.5c4.4,0.2,9.5,3.1,9.7,5.5c0.1,1.2-0.9,2-2.5,1.9c-1.9-0.2-3.7-0.6-5.5-1
								C210.3,997.7,208.6,995.7,208.3,993.5z"/>
							<path id="Path_10337" class="st9" d="M208.3,993.5c0.3,2.2,2,4.1,1.7,6.4v2.6l-5,1.3l-1.7,0c0.1-3.5,2.4-6.7,1.7-10.3
								L208.3,993.5z"/>
							<path id="Path_10338" class="st10" d="M115.6,961.6c-1.3,0.8-2.3,1.5-3.3,2.1c-1.3,0.8-2.6,1.6-4.4,1c-0.5-0.2-1.1-1-1-1.5
								c0.4-1.7,1.8-2.9,3.6-3C112.3,959.9,114.2,960.4,115.6,961.6z"/>
							<path id="Path_10339" class="st10" d="M81.8,935.2c0,1-0.8,1.6-2,1.6c-1.4,0.1-2.8-0.1-3.2-1.3c-0.3-0.9,0.2-1.7,1.4-1.9
								C79.4,933.1,81,933.8,81.8,935.2z"/>
							<path id="Path_10340" class="st10" d="M189.1,972.2c-0.1,1.4-1.1,2.4-2.5,2.5c-0.7,0.1-1.3-0.4-1.5-1c0-0.1,0-0.1,0-0.2
								c-0.2-1.4,0.1-2.6,2.3-2.7c0.8-0.1,1.5,0.4,1.6,1.1C189.1,972,189.1,972.1,189.1,972.2z"/>
							<path id="Path_10341" class="st10" d="M182.2,1045.8c0.3-1.1,0.6-2.4,2.6-2.6c0.6-0.1,1.3,0.3,1.4,1c0,0.1,0,0.2,0,0.3
								c-0.1,1.2-1,2.3-2.2,2.5c-0.7,0.3-1.4-0.1-1.7-0.8C182.2,1046,182.2,1045.9,182.2,1045.8z"/>
							<path id="Path_10342" class="st10" d="M198.2,1034.7c3.2,0.2,3.4,2,3.3,3.9C198.4,1038.3,198.2,1036.5,198.2,1034.7z"/>
							<path id="Path_10343" class="st10" d="M81.8,928.4l-1.4,0.1c0-0.3,0.1-0.7,0.1-1c0-0.1,0.5-0.1,0.7-0.1
								C81.9,927.6,82.1,927.9,81.8,928.4z"/>
							<path id="Path_10344" class="st10" d="M112,899.6c-0.3,0.3-0.5,0.6-0.8,0.8c-0.3-0.2-0.6-0.5-0.9-0.8
								c-0.1-0.1,0.2-0.4,0.4-0.5C111.2,898.9,111.7,899.1,112,899.6C112,899.5,112,899.5,112,899.6z"/>
							<path id="Path_10345" class="st10" d="M256.7,1045.7c0.3,0.2,0.9,0.5,0.9,0.7c-0.1,0.7-0.8,0.9-1.6,1.1
								c-0.8,0.2-1,0.1-0.7-0.5C255.6,1046.4,255.8,1045.8,256.7,1045.7z"/>
							<path id="Path_10346" class="st9" d="M1500.3,80c-0.3,0.9-0.3,2.1-2,1.9c-1.1-0.1-1.2-1.1-1.3-1.9L1500.3,80z"/>
							<path id="Path_10347" class="st10" d="M79.6,840.3c0.9-0.9,1.5-1.4,1.9-1.9c1.4-1.6,2.4-3.8,5.6-1.8c3.4,2.1,3.6,4.2,0.9,6.3
								c-5.2,4.1-13.2,2.9-15.4-2.6c-0.7-1.7-3-3.1-2.6-5.2C74.5,836.4,74.5,836.4,79.6,840.3z"/>
							<path id="Path_10348" class="st10" d="M38,810c-3,0.3-5.7,0.7-8.4,0.9c-2.1,0.1-3.7-1.1-3.5-2.9c0.1-1.7,2-1.8,3.7-1.9
								C33.6,805.9,35.8,807.9,38,810z"/>
							<path id="Path_10349" class="st10" d="M71.6,851.1c-0.3,0.6-1,1-1.7,0.9c-0.9,0-1.5-0.4-1.4-1.1c0.1-0.6,0.9-0.9,1.7-0.9
								C71.1,850,71.6,850.4,71.6,851.1z"/>
							<path id="Path_10350" class="st10" d="M29.7,843.5c-0.3,0.6-1,0.9-1.6,0.8c-0.9,0-1.5-0.4-1.4-1.1c0.1-0.6,0.9-0.9,1.7-0.9
								C29.2,842.3,29.8,842.6,29.7,843.5z"/>
							<path id="Path_10351" class="st10" d="M100.2,845.7c-0.3,0.2-0.7,0.5-1,0.7c-0.2-0.3-0.5-0.6-0.6-0.9c0-0.1,0.5-0.4,0.6-0.3
								C99.5,845.3,99.9,845.5,100.2,845.7z"/>
							<path id="Path_10352" class="st11" d="M26.3,778.7c0.1,0.5-0.1,0.8-0.8,0.8c-0.2,0-0.5-0.1-0.7-0.3c-0.4-0.4-0.4-0.8,0.2-1
								C25.4,778.2,25.9,778.5,26.3,778.7z"/>
							<path id="Path_10353" class="st6" d="M94.3,908.8c-1.4,0.2-2.9,0-4,0.5c-2.9,1.3-5.3,2.5-6.5-1.4c-0.7-2.1-3.6-2-5.6-1.5
								c-3.1,0.8-6,0.3-9-0.2c0.8-2.2,1.6-4.5,2.5-7.2c4.2,2.2,8.1,1.3,11.7-0.3c4.1-1.8,6-0.6,7.6,2.2
								C92.4,903.5,94.6,905.8,94.3,908.8z"/>
							<path id="Path_10354" class="st6" d="M-10.4,848.7c-0.5,0-0.9,0.1-1.4,0.1c0-0.3,0.1-0.7,0.1-1c0-0.1,0.5-0.1,0.7-0.1
								C-10.3,847.9-10.1,848.3-10.4,848.7z"/>
							<path id="Path_10355" class="st13" d="M421-22.6c-6.8-1.1-13.5-2.4-18.2-6.8C409.9-28.8,415.6-26,421-22.6z"/>
							<path id="Path_10356" class="st13" d="M394.9-33.1c-7.3,0.1-7.3,0.1-8.8-4.2L394.9-33.1z"/>
							<path id="Path_10357" class="st13" d="M368.3-44.7c-2.3,0.2-3.8-0.4-4.2-2.3C366.2-46.9,367.2-45.7,368.3-44.7z"/>
							<path id="Path_10358" class="st13" d="M385.7-38.1c-1.8,0-3.7,0-4.7-1.6C382.6-39.3,384.7-39.6,385.7-38.1z"/>
							<path id="Path_10359" class="st13" d="M402.3-30.4c-1.1,0-2.2-0.5-3-1.3C400.6-31.6,402-31.7,402.3-30.4z"/>
							<path id="Path_10360" class="st13" d="M399.3-31.7c-1.2,0.1-2.4-0.3-3.3-1.2C397.2-33.1,398.5-32.6,399.3-31.7z"/>
							<path id="Path_10361" class="st14" d="M553.6-12.2l-1.8,1.1L553.6-12.2z"/>
							<path id="Path_10362" class="st13" d="M775.8-39.7c2.4,1.3,2.2,2.2-0.7,2.8C774.8-37.8,775-38.9,775.8-39.7z"/>
							<path id="Path_10363" class="st7" d="M774.9-56.1c0.2,0.2,0.4,0.5,0.5,0.8c0,0.1-0.2,0.3-0.3,0.4
								C774.8-55.2,774.7-55.7,774.9-56.1z"/>
							<path id="Path_10364" class="st15" d="M699.3-16.2c-0.9-1.7-2.4-3.5,1.7-3.8C701-18.6,701.1-17.2,699.3-16.2z"/>
							<path id="Path_10365" class="st4" d="M97.8-36.8c-1.3,2.4-3.5,3.3-6.8,2.6C90.8-38.8,94.8-37,97.8-36.8z"/>
							<path id="Path_10366" class="st4" d="M2006.6,916.2c-0.2-1.1,0.5-2.1,1.5-2.3c0,0,0,0,0,0
								C2009.2,915.3,2007.8,915.7,2006.6,916.2z"/>
							<path id="Path_10367" class="st13" d="M783.9-43.3c-0.4,0.2-0.7,0.6-1.1,0.7c-0.6,0-0.9-0.4-0.7-0.9c0.1-0.2,0.5-0.4,0.6-0.4
								C783.2-43.8,783.6-43.5,783.9-43.3z"/>
							<path id="Path_10368" class="st12" d="M1667.8,66c1.3,0.9,0.8,1.6,0,2.7c-1.6,2.2-4.3,3.8-5,6.3c-5.6-3.5-5.6-4.7-0.2-7.6
								C1664.2,66.4,1666,66,1667.8,66z"/>
							<path id="Path_10369" class="st4" d="M138,32.6c-3.8,0-4.3-1.6-3.4-3.9C138.8,28.4,138.3,30.5,138,32.6z"/>
							<path id="Path_10370" class="st13" d="M1971.1,880.6c2-0.2,4,0.8,5.1,2.5C1973.8,883.1,1971.5,882.9,1971.1,880.6z"/>
							<path id="Path_10371" class="st13" d="M1964.4,892.1c-0.5,0-1,0-1.6,0C1963.3,891.5,1963.9,891.4,1964.4,892.1z"/>
							<path id="Path_10372" class="st6" d="M153,957.6h-3.3c1.8-4.9,1.8-4.9,6.7-3.9v1.3C154.9,955.4,153.8,956.3,153,957.6z"/>
							<path id="Path_10373" class="st6" d="M203.3,1003.8l1.7,0v2.6c-1.2-0.1-2.5,0.4-3.4,1.3c-0.8,0.2-1.5,0.4-2.3,0.7
								c-1.5,0.9-1.5,3.7-4.7,2.5c-1.7-0.6-2-5.6-0.7-7.1c0.8-0.7,1.8-1.1,2.9-0.8C199,1003.2,201.1,1003.5,203.3,1003.8z"/>
							<path id="Path_10374" class="st9" d="M201.6,1007.7c0.9-0.9,2.1-1.3,3.4-1.3C204.6,1007.9,204.1,1009.4,201.6,1007.7z"/>
							<path id="Path_10375" class="st9" d="M167.7,976.1c-3.6,0.8-6,0.3-7.2-2c-0.3-1.1,0.3-2.2,1.4-2.6c0.1,0,0.2,0,0.2-0.1
								C166,971.3,166.4,973.8,167.7,976.1z"/>
							<path id="Path_10376" class="st9" d="M150.6,971.9c0.8-1.9,2.7-2.4,4.6-2.5c1.1-0.1,2.2,0.4,2.2,1.4c0,1.8-1.7,1.9-3.4,2
								C152.8,973.1,151.5,972.8,150.6,971.9z"/>
							<path id="Path_10377" class="st9" d="M169.7,978.8c0.3,0.3,0.6,0.5,0.9,0.8c-0.4,0.2-0.8,0.4-1.2,0.5c-0.1,0-0.5-0.4-0.4-0.4
								C169.1,979.3,169.4,979,169.7,978.8z"/>
							<path id="Path_10378" class="st10" d="M153,957.6c0.8-1.2,1.9-2.2,3.3-2.6c0.4,1,0.8,1.9,1.3,2.8c0.7,1,2.3,2.1,0.4,3.1
								c-1.4,0.6-3.1,0.2-4.1-1.1C153.6,959.2,153.2,958.4,153,957.6z"/>
						</g>
					</g>
				</g>
			</g>
		</g>
	</g>
	<g id="Path_10237" class="st17">
		<path class="st18" d="M2030.5,1108.7H2.1V0.5h2028.4V1108.7z"/>
		<path class="st19" d="M2.7,1v1107.2H2030V1H2.7 M1.6,0H2031v1109.2H1.6V0z"/>
	</g>
</g>
</svg>
