<svg xmlns="http://www.w3.org/2000/svg" width="659.423" height="579.136" viewBox="0 0 659.423 579.136">
  <g id="Group_11155" data-name="Group 11155" transform="translate(-15.927 -43.169)">
    <g id="Background_Complete" data-name="Background Complete" transform="translate(19.986 43.169)">
      <g id="Group_10882" data-name="Group 10882" transform="translate(441.219)">
        <g id="Group_10861" data-name="Group 10861">
          <g id="Group_10860" data-name="Group 10860">
            <rect id="Rectangle_1275" data-name="Rectangle 1275" width="148.309" height="140.661" rx="6.79" transform="translate(0 32.07) rotate(-12.488)" fill="#ebebeb"/>
          </g>
        </g>
        <g id="Group_10881" data-name="Group 10881" transform="translate(37.568 40.306)">
          <g id="Group_10880" data-name="Group 10880">
            <g id="Group_10876" data-name="Group 10876">
              <g id="Group_10864" data-name="Group 10864" transform="translate(0 24.326)">
                <g id="Group_10863" data-name="Group 10863">
                  <g id="Group_10862" data-name="Group 10862">
                    <path id="Path_10466" data-name="Path 10466" d="M437.782,124.443a5.908,5.908,0,0,1-.959.28l-2.789.686-10.353,2.424-34.8,7.909-.283.065-.1-.273-2.1-5.589c-6.1-16.375-11.535-30.99-15.091-40.54l.246.134-9.3,1.982-2.481.5a4.939,4.939,0,0,1-.863.132,4.881,4.881,0,0,1,.838-.249l2.455-.607c2.213-.521,5.338-1.254,9.253-2.174l.18-.042.066.175c3.61,9.531,9.134,24.114,15.324,40.454l2.1,5.589-.387-.208,34.848-7.7,10.4-2.224,2.816-.569A5.852,5.852,0,0,1,437.782,124.443Z" transform="translate(-358.909 -89.079)" fill="#fafafa"/>
                  </g>
                </g>
              </g>
              <g id="Group_10867" data-name="Group 10867" transform="translate(15.408 18.265)">
                <g id="Group_10866" data-name="Group 10866">
                  <g id="Group_10865" data-name="Group 10865">
                    <path id="Path_10467" data-name="Path 10467" d="M380.655,127.343a.9.9,0,0,1,.239-.082c.193-.051.428-.114.717-.189l2.789-.68,10.461-2.441,36.115-8.213-.252.329c-.293-6.324-.608-13.161-.935-20.238-.165-3.639-.327-7.216-.48-10.627l.405.311-42.622,9.434-12.633,2.727-3.411.705-.887.168a1.22,1.22,0,0,1-.307.037,1.133,1.133,0,0,1,.293-.1l.874-.227,3.386-.818L387,94.516l42.573-9.653.389-.089.018.4c.156,3.41.32,6.987.487,10.627.317,7.077.624,13.915.907,20.238l.013.272-.265.059c-14.575,3.215-27.165,5.994-36.167,7.979l-10.5,2.257-2.813.576-.728.135A.794.794,0,0,1,380.655,127.343Z" transform="translate(-369.854 -84.774)" fill="#fafafa"/>
                  </g>
                </g>
              </g>
              <g id="Group_10870" data-name="Group 10870" transform="translate(34.866 77.018)">
                <g id="Group_10869" data-name="Group 10869">
                  <g id="Group_10868" data-name="Group 10868">
                    <path id="Path_10468" data-name="Path 10468" d="M393.93,130.7c-.061.015-.16-.422-.538-1.1a5.011,5.011,0,0,0-2.368-2.141,4.73,4.73,0,1,0,1.661,7.416,5.006,5.006,0,0,0,1.228-2.947c.052-.777-.044-1.215.017-1.226a2.537,2.537,0,0,1,.246,1.233,5,5,0,0,1-1.126,3.246,5.24,5.24,0,0,1-4.7,1.9,5.309,5.309,0,0,1-2.189-9.769,5.236,5.236,0,0,1,5.057-.286,4.994,4.994,0,0,1,2.4,2.455A2.548,2.548,0,0,1,393.93,130.7Z" transform="translate(-383.675 -126.508)" fill="#fafafa"/>
                  </g>
                </g>
              </g>
              <g id="Group_10873" data-name="Group 10873" transform="translate(66.384 69.956)">
                <g id="Group_10872" data-name="Group 10872">
                  <g id="Group_10871" data-name="Group 10871">
                    <path id="Path_10469" data-name="Path 10469" d="M416.32,125.686c-.061.015-.161-.422-.539-1.1a5,5,0,0,0-2.368-2.141,4.73,4.73,0,1,0,1.663,7.416,5.019,5.019,0,0,0,1.228-2.946c.052-.777-.045-1.215.017-1.226a2.55,2.55,0,0,1,.245,1.233,4.992,4.992,0,0,1-1.125,3.245,5.237,5.237,0,0,1-4.695,1.9,5.309,5.309,0,0,1-2.189-9.77,5.235,5.235,0,0,1,5.057-.284,4.994,4.994,0,0,1,2.4,2.455A2.547,2.547,0,0,1,416.32,125.686Z" transform="translate(-406.064 -121.492)" fill="#fafafa"/>
                  </g>
                </g>
              </g>
              <g id="Group_10875" data-name="Group 10875" transform="translate(57.083)">
                <g id="Group_10874" data-name="Group 10874">
                  <path id="Path_10470" data-name="Path 10470" d="M427.756,82.994A14.322,14.322,0,1,1,410.65,72.149,14.322,14.322,0,0,1,427.756,82.994Z" transform="translate(-399.457 -71.799)" fill="#fafafa"/>
                </g>
              </g>
            </g>
            <g id="Group_10879" data-name="Group 10879" transform="translate(64.885 7.405)">
              <g id="Group_10878" data-name="Group 10878">
                <g id="Group_10877" data-name="Group 10877">
                  <path id="Path_10471" data-name="Path 10471" d="M417.941,77.062a13,13,0,0,1-1.308,2.661c-.88,1.6-2.138,3.784-3.562,6.176-.534.887-1.049,1.741-1.533,2.545l-.161.267-.269-.149c-3.615-2-6.182-3.528-6.108-3.662a46.616,46.616,0,0,1,6.414,3.1l-.429.118c.476-.809.983-1.668,1.506-2.559,1.425-2.393,2.747-4.54,3.733-6.076A12.919,12.919,0,0,1,417.941,77.062Z" transform="translate(-404.999 -77.06)" fill="#e0e0e0"/>
                </g>
              </g>
            </g>
          </g>
        </g>
      </g>
      <g id="Group_10901" data-name="Group 10901" transform="translate(0 7.034)">
        <g id="Group_10884" data-name="Group 10884" transform="translate(60.729 197.505)">
          <g id="Group_10883" data-name="Group 10883">
            <path id="Path_10472" data-name="Path 10472" d="M76.5,196.79c-2.6-9.2-14.552-8.306-14.552-8.306l.329,6.4c6.909-1.192,11.2,6.907,11.2,6.907Z" transform="translate(-61.948 -188.46)" fill="#e0e0e0"/>
          </g>
        </g>
        <g id="Group_10886" data-name="Group 10886" transform="translate(246.902 83.042)">
          <g id="Group_10885" data-name="Group 10885">
            <path id="Path_10473" data-name="Path 10473" d="M198.109,123.752c13.867,4.2,22.495-11.792,22.495-11.792l-8.437-4.808c-4.125,9.8-17.975,8.664-17.975,8.664Z" transform="translate(-194.193 -107.153)" fill="#e0e0e0"/>
          </g>
        </g>
        <g id="Group_10888" data-name="Group 10888" transform="translate(353.176 179.132)">
          <g id="Group_10887" data-name="Group 10887">
            <path id="Path_10474" data-name="Path 10474" d="M282.435,181.768c-2.682-7.647-12.752-6.26-12.752-6.26l.615,5.4c5.786-1.374,9.847,5.254,9.847,5.254Z" transform="translate(-269.683 -175.409)" fill="#e0e0e0"/>
          </g>
        </g>
        <g id="Group_10890" data-name="Group 10890" transform="translate(194.125)">
          <g id="Group_10889" data-name="Group 10889">
            <path id="Path_10475" data-name="Path 10475" d="M169.456,54.525c-2.683-7.647-12.752-6.262-12.752-6.262l.615,5.4c5.785-1.374,9.846,5.252,9.846,5.252Z" transform="translate(-156.704 -48.165)" fill="#e0e0e0"/>
          </g>
        </g>
        <g id="Group_10892" data-name="Group 10892" transform="translate(73.983 97.854)">
          <g id="Group_10891" data-name="Group 10891">
            <path id="Path_10476" data-name="Path 10476" d="M84.115,124.034c-2.683-7.649-12.752-6.262-12.752-6.262l.615,5.4c5.785-1.373,9.847,5.254,9.847,5.254Z" transform="translate(-71.363 -117.674)" fill="#ebebeb"/>
          </g>
        </g>
        <g id="Group_10894" data-name="Group 10894" transform="translate(53.109 32.722)">
          <g id="Group_10893" data-name="Group 10893">
            <path id="Path_10477" data-name="Path 10477" d="M64.918,71.409c-8,1.312-8.383,11.469-8.383,11.469l5.421.332c-.346-5.935,6.885-8.783,6.885-8.783Z" transform="translate(-56.535 -71.409)" fill="#ebebeb"/>
          </g>
        </g>
        <g id="Group_10896" data-name="Group 10896" transform="translate(0 254.018)">
          <g id="Group_10895" data-name="Group 10895">
            <path id="Path_10478" data-name="Path 10478" d="M22.726,245.2c13.867,4.2,22.494-11.793,22.494-11.793L36.783,228.6c-4.123,9.8-17.973,8.664-17.973,8.664Z" transform="translate(-18.81 -228.603)" fill="#ebebeb"/>
          </g>
        </g>
        <g id="Group_10898" data-name="Group 10898" transform="translate(390.665 91.347)">
          <g id="Group_10897" data-name="Group 10897">
            <path id="Path_10479" data-name="Path 10479" d="M304.6,122.231c.938-6.421-6.721-9.179-6.721-9.179l-1.567,4.057c4.613,1.174,5.033,7.384,5.033,7.384Z" transform="translate(-296.313 -113.052)" fill="#e0e0e0"/>
          </g>
        </g>
        <g id="Group_10900" data-name="Group 10900" transform="translate(349.643 29.999)">
          <g id="Group_10899" data-name="Group 10899">
            <path id="Path_10480" data-name="Path 10480" d="M270.383,69.475c-5.407,3.588-2.347,11.131-2.347,11.131l4.067-1.542c-2.206-4.219,2.137-8.678,2.137-8.678Z" transform="translate(-267.173 -69.475)" fill="#ebebeb"/>
          </g>
        </g>
      </g>
      <g id="Group_10909" data-name="Group 10909" transform="translate(568.712 180.755)">
        <g id="Group_10904" data-name="Group 10904">
          <g id="Group_10903" data-name="Group 10903">
            <g id="Group_10902" data-name="Group 10902">
              <path id="Path_10481" data-name="Path 10481" d="M441.507,171.565,422.786,226.7l55.363,11,3.186-58.224Z" transform="translate(-422.786 -171.565)" fill="#f5f5f5"/>
            </g>
          </g>
        </g>
        <g id="Group_10908" data-name="Group 10908" transform="translate(22.041 9.229)">
          <g id="Group_10907" data-name="Group 10907">
            <g id="Group_10906" data-name="Group 10906">
              <g id="Group_10905" data-name="Group 10905">
                <path id="Path_10482" data-name="Path 10482" d="M468.822,184.131c.065.027-.1.617-.622,1.581a16.117,16.117,0,0,1-2.787,3.705,15.135,15.135,0,0,1-5.868,3.656,16.514,16.514,0,0,1-8.452.429,16.817,16.817,0,0,1-7.723-3.473,13.519,13.519,0,0,1-3.963-5.672,15.065,15.065,0,0,1-.952-4.542,3.753,3.753,0,0,1,.128-1.695,26.342,26.342,0,0,0,1.506,5.961,13.368,13.368,0,0,0,3.893,5.209,16.473,16.473,0,0,0,7.3,3.187,16.134,16.134,0,0,0,7.968-.318,15.234,15.234,0,0,0,5.654-3.276A29.536,29.536,0,0,0,468.822,184.131Z" transform="translate(-438.442 -178.121)" fill="#fff"/>
              </g>
            </g>
          </g>
        </g>
      </g>
    </g>
    <g id="Desk" transform="translate(15.927 621.399)">
      <g id="Group_10911" data-name="Group 10911">
        <g id="Group_10910" data-name="Group 10910">
          <path id="Path_10483" data-name="Path 10483" d="M660.9,454.272c0,.2-144.394.367-322.471.367-178.139,0-322.5-.165-322.5-.367s144.363-.366,322.5-.366C516.505,453.906,660.9,454.071,660.9,454.272Z" transform="translate(-15.927 -453.906)" fill="#263238"/>
        </g>
      </g>
    </g>
    <g id="Screen" transform="translate(39.254 187.335)">
      <g id="Group_10930" data-name="Group 10930">
        <g id="Group_10915" data-name="Group 10915">
          <g id="Group_10912" data-name="Group 10912" transform="translate(0.366 0.367)">
            <rect id="Rectangle_1276" data-name="Rectangle 1276" width="343.294" height="268.741" fill="#fafafa"/>
          </g>
          <g id="Group_10914" data-name="Group 10914">
            <g id="Group_10913" data-name="Group 10913">
              <path id="Path_10484" data-name="Path 10484" d="M376.158,414.683c0-2.524-.121-106.617-.3-268.741l.3.3-343.265.063h-.03l.366-.366c-.013,96.909-.025,188.551-.037,268.741l-.329-.329,343.295.329-343.295.329h-.329v-.329c-.011-80.19-.024-171.832-.037-268.741v-.367h.4c127.25.024,245.438.046,343.265.063h.3v.3C376.279,308.066,376.16,412.162,376.158,414.683Z" transform="translate(-32.497 -145.575)" fill="#263238"/>
            </g>
          </g>
        </g>
        <g id="Group_10916" data-name="Group 10916" transform="translate(57.528 122.97)">
          <path id="Path_10485" data-name="Path 10485" d="M81.166,242.184v4.47h-2.92v-4.5l-4.885-8.11h3.1l3.369,5.6,3.37-5.6h2.866Z" transform="translate(-73.361 -232.471)" fill="#263238"/>
          <path id="Path_10486" data-name="Path 10486" d="M81.833,241a5.337,5.337,0,1,1,5.334,4.992A4.991,4.991,0,0,1,81.833,241Zm7.8,0a2.486,2.486,0,1,0-2.469,2.685A2.447,2.447,0,0,0,89.636,241Z" transform="translate(-69.906 -231.667)" fill="#263238"/>
          <path id="Path_10487" data-name="Path 10487" d="M100.51,236.113v9.7H97.844v-1.153a3.923,3.923,0,0,1-3.011,1.3c-2.433,0-4.145-1.37-4.145-4.361v-5.479H93.5v5.064c0,1.622.721,2.343,1.965,2.343,1.3,0,2.234-.829,2.234-2.613v-4.794Z" transform="translate(-66.295 -231.625)" fill="#263238"/>
          <path id="Path_10488" data-name="Path 10488" d="M105.538,236.011v2.595c-.235-.018-.415-.037-.632-.037a2.382,2.382,0,0,0-2.576,2.7v4.578H99.518v-9.7H102.2v1.28A3.913,3.913,0,0,1,105.538,236.011Z" transform="translate(-62.694 -231.667)" fill="#263238"/>
          <path id="Path_10489" data-name="Path 10489" d="M108.232,240.409c0-3.748,2.92-6.524,6.9-6.524,3.964,0,6.9,2.758,6.9,6.524s-2.938,6.525-6.9,6.525C111.152,246.934,108.232,244.158,108.232,240.409Zm10.85,0a3.948,3.948,0,1,0-3.947,4.038A3.849,3.849,0,0,0,119.082,240.409Z" transform="translate(-59.141 -232.534)" fill="#263238"/>
          <path id="Path_10490" data-name="Path 10490" d="M125.474,236.011v2.595c-.234-.018-.414-.037-.631-.037a2.383,2.383,0,0,0-2.578,2.7v4.578h-2.811v-9.7h2.685v1.28A3.915,3.915,0,0,1,125.474,236.011Z" transform="translate(-54.565 -231.667)" fill="#263238"/>
          <path id="Path_10491" data-name="Path 10491" d="M134.929,233.5v13.373h-2.686v-1.118a3.728,3.728,0,0,1-3.027,1.263,4.994,4.994,0,0,1,0-9.984,3.721,3.721,0,0,1,2.9,1.171v-4.7Zm-2.758,8.526a2.486,2.486,0,1,0-2.469,2.685A2.457,2.457,0,0,0,132.171,242.027Z" transform="translate(-52.561 -232.69)" fill="#263238"/>
          <path id="Path_10492" data-name="Path 10492" d="M143.363,241.8h-7.336a2.587,2.587,0,0,0,2.776,1.946,3.286,3.286,0,0,0,2.433-.936l1.5,1.622a5.078,5.078,0,0,1-4,1.568c-3.353,0-5.534-2.109-5.534-4.992a4.936,4.936,0,0,1,5.174-4.992,4.8,4.8,0,0,1,5.046,5.027C143.416,241.255,143.381,241.56,143.363,241.8Zm-7.371-1.64h4.775a2.421,2.421,0,0,0-4.775,0Z" transform="translate(-48.961 -231.667)" fill="#263238"/>
          <path id="Path_10493" data-name="Path 10493" d="M147.8,236.011v2.595c-.235-.018-.415-.037-.632-.037a2.382,2.382,0,0,0-2.576,2.7v4.578h-2.811v-9.7h2.685v1.28A3.914,3.914,0,0,1,147.8,236.011Z" transform="translate(-45.459 -231.667)" fill="#263238"/>
          <path id="Path_10494" data-name="Path 10494" d="M150.677,234.493a1.607,1.607,0,0,1,1.748-1.568,1.578,1.578,0,0,1,1.748,1.513,1.756,1.756,0,0,1-3.5.055Zm.342,2.92h2.813v9.7h-2.813Z" transform="translate(-41.832 -232.925)" fill="#263238"/>
          <path id="Path_10495" data-name="Path 10495" d="M154.106,244.949l.938-2.017a6.643,6.643,0,0,0,3.37.936c1.3,0,1.784-.342,1.784-.883,0-1.587-5.856.035-5.856-3.839,0-1.839,1.657-3.135,4.488-3.135a7.966,7.966,0,0,1,3.729.846l-.936,2a5.574,5.574,0,0,0-2.793-.721c-1.263,0-1.8.4-1.8.9,0,1.658,5.858.055,5.858,3.874,0,1.8-1.677,3.083-4.578,3.083A8.316,8.316,0,0,1,154.106,244.949Z" transform="translate(-40.434 -231.667)" fill="#263238"/>
          <path id="Path_10496" data-name="Path 10496" d="M164.766,240.409c0-3.8,2.918-6.524,6.847-6.524a6.518,6.518,0,0,1,5.191,2.234l-1.874,1.732a4.061,4.061,0,0,0-3.172-1.478,4.037,4.037,0,1,0,0,8.074,4.02,4.02,0,0,0,3.172-1.5l1.874,1.73a6.934,6.934,0,0,1-12.038-4.273Z" transform="translate(-36.087 -232.534)" fill="#263238"/>
          <path id="Path_10497" data-name="Path 10497" d="M173.812,241a5.337,5.337,0,1,1,5.336,4.992A4.991,4.991,0,0,1,173.812,241Zm7.8,0a2.486,2.486,0,1,0-2.469,2.685A2.448,2.448,0,0,0,181.617,241Z" transform="translate(-32.398 -231.667)" fill="#263238"/>
          <path id="Path_10498" data-name="Path 10498" d="M192.618,240.3v5.551h-2.811v-5.117c0-1.568-.721-2.289-1.964-2.289-1.351,0-2.326.829-2.326,2.613v4.794h-2.811v-9.7h2.685v1.135a4.246,4.246,0,0,1,3.208-1.278C190.888,236.011,192.618,237.344,192.618,240.3Z" transform="translate(-28.771 -231.667)" fill="#263238"/>
          <path id="Path_10499" data-name="Path 10499" d="M194.964,237.215v.414h2.488v2.164h-2.414v7.316h-2.811v-7.316h-1.5v-2.164h1.5V237.2a3.383,3.383,0,0,1,3.747-3.6,3.986,3.986,0,0,1,2.145.522l-.739,2.037a1.964,1.964,0,0,0-1.135-.342C195.416,235.81,194.964,236.259,194.964,237.215Zm4.993-2.721a1.606,1.606,0,0,1,1.747-1.568,1.578,1.578,0,0,1,1.748,1.513,1.755,1.755,0,0,1-3.5.055Zm.342,2.92h2.811v9.7H200.3Z" transform="translate(-25.5 -232.925)" fill="#263238"/>
          <path id="Path_10500" data-name="Path 10500" d="M207.394,236.011v2.595c-.234-.018-.414-.037-.631-.037a2.382,2.382,0,0,0-2.576,2.7v4.578h-2.811v-9.7h2.685v1.28A3.912,3.912,0,0,1,207.394,236.011Z" transform="translate(-21.158 -231.667)" fill="#263238"/>
          <path id="Path_10501" data-name="Path 10501" d="M223.222,240.3v5.551h-2.811v-5.117c0-1.568-.7-2.289-1.839-2.289-1.261,0-2.145.811-2.145,2.541v4.865h-2.811v-5.117c0-1.568-.666-2.289-1.837-2.289-1.244,0-2.127.811-2.127,2.541v4.865H206.84v-9.7h2.685v1.118a3.926,3.926,0,0,1,3.046-1.261,3.619,3.619,0,0,1,3.19,1.585,4.359,4.359,0,0,1,3.5-1.585C221.564,236.011,223.222,237.344,223.222,240.3Z" transform="translate(-18.93 -231.667)" fill="#263238"/>
          <path id="Path_10502" data-name="Path 10502" d="M229.992,241.8h-7.336a2.587,2.587,0,0,0,2.776,1.946,3.289,3.289,0,0,0,2.434-.936l1.5,1.622a5.076,5.076,0,0,1-4,1.568c-3.352,0-5.533-2.109-5.533-4.992A4.935,4.935,0,0,1,225,236.011a4.8,4.8,0,0,1,5.047,5.027C230.047,241.255,230.011,241.56,229.992,241.8Zm-7.371-1.64H227.4a2.422,2.422,0,0,0-4.777,0Z" transform="translate(-13.634 -231.667)" fill="#263238"/>
          <path id="Path_10503" data-name="Path 10503" d="M238.49,233.5v13.373H235.8v-1.118a3.729,3.729,0,0,1-3.028,1.263,4.994,4.994,0,0,1,0-9.984,3.721,3.721,0,0,1,2.9,1.171v-4.7Zm-2.758,8.526a2.486,2.486,0,1,0-2.469,2.685A2.457,2.457,0,0,0,235.732,242.027Z" transform="translate(-10.331 -232.69)" fill="#263238"/>
          <path id="Path_10504" data-name="Path 10504" d="M236.975,245.159a1.735,1.735,0,0,1,3.46,0,1.733,1.733,0,0,1-3.46,0Zm.053-11.12h3.352l-.559,8.237h-2.234Z" transform="translate(-6.641 -232.471)" fill="#263238"/>
        </g>
        <g id="Group_10917" data-name="Group 10917" transform="translate(81.19 152.052)">
          <path id="Path_10505" data-name="Path 10505" d="M94.285,255.153H90.169v-1.071h9.472v1.071H95.524V265.8H94.285Z" transform="translate(-90.169 -253.38)" fill="#263238"/>
          <path id="Path_10506" data-name="Path 10506" d="M106.218,260.9V266H105.03v-4.986c0-1.858-.971-2.811-2.644-2.811a2.887,2.887,0,0,0-3.08,3.179V266H98.119V253.583h1.187v5.155a3.721,3.721,0,0,1,3.3-1.608C104.745,257.131,106.218,258.369,106.218,260.9Z" transform="translate(-86.927 -253.583)" fill="#263238"/>
          <path id="Path_10507" data-name="Path 10507" d="M113.02,259.517v5.455h-1.138V263.6a3.305,3.305,0,0,1-3.03,1.456c-1.991,0-3.213-1.038-3.213-2.559,0-1.356.87-2.495,3.4-2.495h2.794v-.534c0-1.508-.853-2.327-2.493-2.327a4.482,4.482,0,0,0-2.928,1.038l-.535-.887a5.587,5.587,0,0,1,3.58-1.188C111.731,256.1,113.02,257.24,113.02,259.517Zm-1.188,2.811v-1.44h-2.761c-1.708,0-2.26.67-2.26,1.574,0,1.021.821,1.656,2.226,1.656A2.815,2.815,0,0,0,111.831,262.328Z" transform="translate(-83.86 -252.555)" fill="#263238"/>
          <path id="Path_10508" data-name="Path 10508" d="M121.272,259.869v5.1h-1.187v-4.986c0-1.858-.971-2.811-2.644-2.811a2.886,2.886,0,0,0-3.08,3.179v4.619h-1.188v-8.8h1.139v1.623a3.7,3.7,0,0,1,3.346-1.691C119.8,256.1,121.272,257.342,121.272,259.869Z" transform="translate(-80.788 -252.555)" fill="#263238"/>
          <path id="Path_10509" data-name="Path 10509" d="M124.481,261.582l-2.075,1.908V266h-1.188V253.583h1.188V262l5.254-4.8h1.473l-3.764,3.6,4.116,5.2h-1.456Z" transform="translate(-77.508 -253.583)" fill="#263238"/>
          <path id="Path_10510" data-name="Path 10510" d="M127.3,263.968l.536-.938a5.317,5.317,0,0,0,3.128.987c1.674,0,2.361-.567,2.361-1.439,0-2.292-5.707-.484-5.707-3.966,0-1.439,1.239-2.51,3.481-2.51a5.948,5.948,0,0,1,3.113.821l-.519.953a4.514,4.514,0,0,0-2.593-.753c-1.591,0-2.293.619-2.293,1.457,0,2.375,5.706.586,5.706,3.964,0,1.523-1.337,2.51-3.631,2.51A5.892,5.892,0,0,1,127.3,263.968Z" transform="translate(-75.027 -252.555)" fill="#263238"/>
          <path id="Path_10511" data-name="Path 10511" d="M138.508,255.153v4.6h6.058v1.07h-6.058V265.8h-1.237V254.082H145.3v1.071Z" transform="translate(-70.961 -253.38)" fill="#263238"/>
          <path id="Path_10512" data-name="Path 10512" d="M143.771,260.571a4.476,4.476,0,1,1,4.484,4.484A4.329,4.329,0,0,1,143.771,260.571Zm7.747,0A3.275,3.275,0,1,0,148.255,264,3.211,3.211,0,0,0,151.518,260.571Z" transform="translate(-68.311 -252.555)" fill="#263238"/>
          <path id="Path_10513" data-name="Path 10513" d="M156.286,256.1v1.154c-.1,0-.2-.017-.286-.017-1.84,0-2.962,1.173-2.962,3.246v4.485h-1.187v-8.8h1.138v1.723A3.32,3.32,0,0,1,156.286,256.1Z" transform="translate(-65.016 -252.555)" fill="#263238"/>
          <path id="Path_10514" data-name="Path 10514" d="M164.47,261.747V265.8H163.25v-4.049l-4.687-7.665h1.323l4.015,6.576,4.016-6.576h1.237Z" transform="translate(-62.279 -253.38)" fill="#263238"/>
          <path id="Path_10515" data-name="Path 10515" d="M165.931,260.571a4.476,4.476,0,1,1,4.484,4.484A4.329,4.329,0,0,1,165.931,260.571Zm7.747,0A3.275,3.275,0,1,0,170.415,264,3.211,3.211,0,0,0,173.678,260.571Z" transform="translate(-59.274 -252.555)" fill="#263238"/>
          <path id="Path_10516" data-name="Path 10516" d="M181.967,256.151v8.8h-1.137v-1.606a3.5,3.5,0,0,1-3.163,1.689,3.41,3.41,0,0,1-3.715-3.781v-5.1h1.188v4.986c0,1.874.971,2.828,2.644,2.828a2.862,2.862,0,0,0,3-3.2v-4.618Z" transform="translate(-56.004 -252.536)" fill="#263238"/>
          <path id="Path_10517" data-name="Path 10517" d="M186.441,256.1v1.154c-.1,0-.2-.017-.284-.017-1.84,0-2.962,1.173-2.962,3.246v4.485h-1.188v-8.8h1.139v1.723A3.318,3.318,0,0,1,186.441,256.1Z" transform="translate(-52.719 -252.555)" fill="#263238"/>
          <path id="Path_10518" data-name="Path 10518" d="M189.327,259.969a6.153,6.153,0,1,1,6.158,5.956A5.9,5.9,0,0,1,189.327,259.969Zm11.061,0a4.921,4.921,0,1,0-4.9,4.853A4.746,4.746,0,0,0,200.388,259.969Z" transform="translate(-49.734 -253.408)" fill="#263238"/>
          <path id="Path_10519" data-name="Path 10519" d="M204.288,256.1v1.154c-.1,0-.2-.017-.284-.017-1.84,0-2.962,1.173-2.962,3.246v4.485h-1.187v-8.8h1.137v1.723A3.319,3.319,0,0,1,204.288,256.1Z" transform="translate(-45.44 -252.555)" fill="#263238"/>
          <path id="Path_10520" data-name="Path 10520" d="M212.753,253.583V266h-1.138v-1.741a3.81,3.81,0,0,1-3.4,1.825,4.477,4.477,0,0,1,0-8.952,3.848,3.848,0,0,1,3.348,1.74v-5.288Zm-1.171,8.016a3.275,3.275,0,1,0-3.262,3.429A3.219,3.219,0,0,0,211.582,261.6Z" transform="translate(-43.817 -253.583)" fill="#263238"/>
          <path id="Path_10521" data-name="Path 10521" d="M220.442,260.939h-7.363A3.257,3.257,0,0,0,216.542,264a3.468,3.468,0,0,0,2.694-1.154l.67.77a4.654,4.654,0,0,1-8.016-3.045,4.239,4.239,0,0,1,4.3-4.468,4.2,4.2,0,0,1,4.267,4.468C220.459,260.671,220.442,260.8,220.442,260.939Zm-7.363-.887h6.242a3.127,3.127,0,0,0-6.242,0Z" transform="translate(-40.532 -252.555)" fill="#263238"/>
          <path id="Path_10522" data-name="Path 10522" d="M224.133,256.1v1.154c-.1,0-.2-.017-.284-.017-1.841,0-2.962,1.173-2.962,3.246v4.485H219.7v-8.8h1.137v1.723A3.321,3.321,0,0,1,224.133,256.1Z" transform="translate(-37.349 -252.555)" fill="#263238"/>
        </g>
        <g id="Group_10920" data-name="Group 10920" transform="translate(99.811 190.178)">
          <g id="Group_10918" data-name="Group 10918">
            <path id="Path_10523" data-name="Path 10523" d="M226.627,323.014H124.571A21.175,21.175,0,0,1,103.4,301.84h0a21.174,21.174,0,0,1,21.175-21.175H226.627A21.174,21.174,0,0,1,247.8,301.84h0A21.175,21.175,0,0,1,226.627,323.014Z" transform="translate(-103.396 -280.665)" fill="#b73730"/>
          </g>
          <g id="Group_10919" data-name="Group 10919" transform="translate(54.733 16.237)">
            <path id="Path_10524" data-name="Path 10524" d="M142.275,292.283h3.615c2.683,0,4.513,1.654,4.513,4.135s-1.83,4.136-4.513,4.136h-3.615Zm3.545,6.971a2.843,2.843,0,1,0,0-5.672h-2.009v5.672Z" transform="translate(-142.275 -292.165)" fill="#fff"/>
            <path id="Path_10525" data-name="Path 10525" d="M148.781,296.452a4.459,4.459,0,1,1,4.454,4.254A4.235,4.235,0,0,1,148.781,296.452Zm7.361,0a2.906,2.906,0,1,0-2.907,2.906A2.818,2.818,0,0,0,156.142,296.452Z" transform="translate(-139.622 -292.199)" fill="#fff"/>
            <path id="Path_10526" data-name="Path 10526" d="M163.61,292.283v8.271h-1.264l-4.561-5.6v5.6h-1.523v-8.271h1.264l4.56,5.6v-5.6Z" transform="translate(-136.572 -292.165)" fill="#fff"/>
            <path id="Path_10527" data-name="Path 10527" d="M169.256,299.266v1.288h-6.2v-8.271h6.037v1.288h-4.5v2.15h3.992v1.264h-3.992v2.281Z" transform="translate(-133.802 -292.165)" fill="#fff"/>
          </g>
        </g>
        <g id="Group_10923" data-name="Group 10923" transform="translate(147.57 48.774)">
          <g id="Group_10921" data-name="Group 10921" transform="translate(0)">
            <path id="Path_10528" data-name="Path 10528" d="M164.608,234.792a27.286,27.286,0,1,1,27.286-27.286A27.317,27.317,0,0,1,164.608,234.792Zm0-51.756a24.47,24.47,0,1,0,24.47,24.47A24.5,24.5,0,0,0,164.608,183.037Z" transform="translate(-137.321 -180.221)" fill="#b73730"/>
          </g>
          <g id="Group_10922" data-name="Group 10922" transform="translate(17.149 18.877)">
            <path id="Path_10529" data-name="Path 10529" d="M157.661,210.447a1.41,1.41,0,0,1-.931-.351c-2.386-2.1-6.467-5.741-6.992-6.526a1.408,1.408,0,0,1,2.327-1.585c.38.477,2.968,2.845,5.562,5.145l13.816-13.114a1.408,1.408,0,1,1,1.939,2.041l-14.752,14A1.4,1.4,0,0,1,157.661,210.447Z" transform="translate(-149.502 -193.63)" fill="#b73730"/>
          </g>
        </g>
        <g id="Group_10925" data-name="Group 10925" transform="translate(1.228 26.254)">
          <g id="Group_10924" data-name="Group 10924">
            <path id="Path_10530" data-name="Path 10530" d="M375.8,164.591c0,.2-76.662.366-171.208.366-94.579,0-171.225-.165-171.225-.366s76.646-.367,171.225-.367C299.14,164.224,375.8,164.389,375.8,164.591Z" transform="translate(-33.369 -164.224)" fill="#263238"/>
          </g>
        </g>
        <g id="Group_10929" data-name="Group 10929" transform="translate(10.523 11.131)">
          <g id="Group_10926" data-name="Group 10926" transform="translate(0 0)">
            <circle id="Ellipse_3175" data-name="Ellipse 3175" cx="1.993" cy="1.993" r="1.993" fill="#263238"/>
          </g>
          <g id="Group_10927" data-name="Group 10927" transform="translate(7.434 0)">
            <circle id="Ellipse_3176" data-name="Ellipse 3176" cx="1.993" cy="1.993" r="1.993" fill="#263238"/>
          </g>
          <g id="Group_10928" data-name="Group 10928" transform="translate(14.754)">
            <path id="Path_10531" data-name="Path 10531" d="M54.436,155.475a1.992,1.992,0,1,1-1.992-1.993A1.992,1.992,0,0,1,54.436,155.475Z" transform="translate(-50.452 -153.482)" fill="#263238"/>
          </g>
        </g>
      </g>
    </g>
    <g id="Character" transform="translate(138.588 143.441)">
      <g id="Group_11122" data-name="Group 11122">
        <g id="Group_10931" data-name="Group 10931" transform="translate(460.297 196.169)">
          <path id="Path_10532" data-name="Path 10532" d="M439.729,282.381s17.085-10.4,20.935-7.34c5.558,4.408,7.411,11.851,7.411,11.851s9.024-34.42,17.635-33.114c4.938.749,2.516,4.6.3,9.429-2.055,4.487-5.562,20.954-5.562,20.954s16.329-19.373,21.128-19.023c3.712.272,4.246,3.536-1.094,8.773s-14.21,21.733-14.21,21.733,11.438-10.664,16.163-10.722c3.769-.046,6.2,2.571,1.326,6.805s-12.258,7.411-16.2,15.07c-4.853,9.442-15.2,32.976-15.2,32.976l-36.215-12.821s-5.894-24.024-6.13-29.861c0,0,.5-12.335.427-14.531s5.755-2.759,7.523,1.457.964,8.64,1.682,11.444,1.993,5.4,4.043,6.657,7.268,1.34,8.6-.211,2.948-6.062,3.3-8.837a40.1,40.1,0,0,0-.1-7.16S440.462,292.021,439.729,282.381Z" transform="translate(-430.022 -253.741)" fill="#ffbe9d"/>
        </g>
        <g id="Group_10944" data-name="Group 10944" transform="translate(0 305.923)">
          <g id="Group_10939" data-name="Group 10939" transform="translate(0 0)">
            <g id="Group_10932" data-name="Group 10932">
              <path id="Path_10533" data-name="Path 10533" d="M166.151,362.684l-25.166-9.427s-25.619-15-30.363-9.673c0,0-5.068-2.414-7.319,2.989-1.305,3.132,3,7.678,3,7.678s-1.34,1.359.781,5.956,26.441,19.1,26.441,19.1,31.619,17.243,44.4,25.489l22.061-30-3.068-1.146s-1.822-14.951-7.941-18.939c-6.66-4.337-14.694-16.076-16.463-20.675s-10.257-2.475-8.842,7.074,8.842,12.025,8.134,18.393S166.151,362.684,166.151,362.684Z" transform="translate(-103.057 -331.703)" fill="#ffbe9d"/>
            </g>
            <g id="Group_10934" data-name="Group 10934" transform="translate(2.976 22.39)">
              <g id="Group_10933" data-name="Group 10933">
                <path id="Path_10534" data-name="Path 10534" d="M126.712,359.689c-.1.176-5-2.383-10.948-5.717s-10.689-6.179-10.591-6.356,5,2.383,10.95,5.717S126.812,359.511,126.712,359.689Z" transform="translate(-105.171 -347.607)" fill="#eb996e"/>
              </g>
            </g>
            <g id="Group_10936" data-name="Group 10936" transform="translate(7.564 11.876)">
              <g id="Group_10935" data-name="Group 10935">
                <path id="Path_10535" data-name="Path 10535" d="M137.664,355.659a32.794,32.794,0,0,1-4.516-1.8c-2.751-1.2-6.527-2.915-10.609-5a115.511,115.511,0,0,1-10.194-5.824c-1.253-.831-2.257-1.519-2.92-2.039s-1.023-.811-.994-.852a45.872,45.872,0,0,1,4.188,2.45c2.572,1.527,6.187,3.531,10.254,5.613s7.8,3.867,10.491,5.182A31.147,31.147,0,0,1,137.664,355.659Z" transform="translate(-108.43 -340.139)" fill="#eb996e"/>
              </g>
            </g>
            <g id="Group_10938" data-name="Group 10938" transform="translate(19.888 22.191)">
              <g id="Group_10937" data-name="Group 10937">
                <path id="Path_10536" data-name="Path 10536" d="M139.389,366.533a16.022,16.022,0,0,1-2.23-1.211l-5.931-3.541-.066-.039-.038-.08a83.7,83.7,0,0,0-4.271-8.179,19.921,19.921,0,0,0-3.2-4.23,4.04,4.04,0,0,0-4.958-.373,2.477,2.477,0,0,0-.79.722.435.435,0,0,1,.058.168l.1.313c.063.207.144.418.22.628.305.84.638,1.667.962,2.481.663,1.619,1.308,3.19,1.926,4.7,1.252,2.985,2.4,5.723,3.4,8.117l-.046-.073c2.068,2.423,3.779,4.427,5.06,5.931l1.351,1.647a2.612,2.612,0,0,1,.431.612c-.021.018-.211-.156-.553-.505l-1.464-1.547-5.244-5.768-.027-.03-.02-.044c-1.047-2.348-2.244-5.075-3.525-8.075l-1.961-4.7c-.329-.816-.664-1.641-.978-2.5-.079-.214-.16-.427-.231-.655l-.108-.336a2.268,2.268,0,0,1-.073-.5,1.592,1.592,0,0,1,.512-.749,4.71,4.71,0,0,1,.6-.455,4.9,4.9,0,0,1,3.034-.78,4.851,4.851,0,0,1,2.787,1.222,20.021,20.021,0,0,1,3.315,4.426,75.414,75.414,0,0,1,4.18,8.319l-.1-.12,5.8,3.742A16.3,16.3,0,0,1,139.389,366.533Z" transform="translate(-117.184 -347.466)" fill="#eb996e"/>
              </g>
            </g>
          </g>
          <g id="Group_10941" data-name="Group 10941" transform="translate(47.133 38.692)">
            <g id="Group_10940" data-name="Group 10940">
              <path id="Path_10537" data-name="Path 10537" d="M156.728,362a15.4,15.4,0,0,1-3.092-.757,30.677,30.677,0,0,0-7.44-1.313,13.617,13.617,0,0,0-7.173,1.757,28.417,28.417,0,0,0-2.482,1.9,5.689,5.689,0,0,1,2.2-2.341,12.844,12.844,0,0,1,7.468-2.054,24.951,24.951,0,0,1,7.58,1.553A12.508,12.508,0,0,1,156.728,362Z" transform="translate(-136.537 -359.187)" fill="#eb996e"/>
            </g>
          </g>
          <g id="Group_10943" data-name="Group 10943" transform="translate(63.069 34.844)">
            <g id="Group_10942" data-name="Group 10942">
              <path id="Path_10538" data-name="Path 10538" d="M150.219,356.464c.168.125-.459,1.214-1.066,2.611s-1,2.593-1.2,2.554-.125-1.363.531-2.848S150.067,356.34,150.219,356.464Z" transform="translate(-147.857 -356.453)" fill="#eb996e"/>
            </g>
          </g>
        </g>
        <g id="Group_10949" data-name="Group 10949" transform="translate(210.105 43.681)">
          <g id="Group_10945" data-name="Group 10945">
            <path id="Path_10539" data-name="Path 10539" d="M252.671,322.883c1.736-11.861,15.546-28.867,27.769-28.885a31.558,31.558,0,0,1-.262-34.7c4.716-7.059,12.321-12.248,15.546-20.069,3.649-8.851.849-18.85,1.2-28.391.51-13.965,7.775-26.718,14.851-38.849,6.479-11.107,14.383-23.283,27.134-26.012,8.068-1.726,16.436.821,24.01,4.046,36.243,15.436,64.43,47.972,74.1,85.536,2.316,8.993,3.867,18.721,10.133,25.67,6.636,7.36,18.259,11.352,20.251,20.98,1.429,6.9-3,13.844-2.338,20.858.557,5.876,11.562,23,14.1,28.356,4.371,9.218,2.79,19.178-1.66,28.36s-15.777,18.127-25.827,20.627L339.33,342.976c-10.57,6.017-21.1,29.293-33.232,30.725s-26.939,6.711-38.613-6.065C255.247,354.246,250.934,334.744,252.671,322.883Z" transform="translate(-252.302 -145.423)" fill="#263238"/>
          </g>
          <g id="Group_10946" data-name="Group 10946" transform="translate(157.561 65.718)">
            <path id="Path_10540" data-name="Path 10540" d="M393.313,192.1c-1.257,9.4,1.321,24.945,6.459,32.977,3.449,5.39,9.2,8.9,14.882,11.982s11.623,6.042,15.928,10.8,6.612,11.9,3.735,17.609c10.121,3.773,14.661,16.665,10.947,26.637s-13.893,16.68-24.529,18.671L374.4,296.847l-10.175-59.13L390.97,192.1" transform="translate(-364.223 -192.105)" fill="#263238"/>
          </g>
          <g id="Group_10948" data-name="Group 10948" transform="translate(192.339 125.999)">
            <g id="Group_10947" data-name="Group 10947">
              <path id="Path_10541" data-name="Path 10541" d="M388.927,234.927a5.384,5.384,0,0,1,.905.394,25.883,25.883,0,0,1,2.531,1.315,33.588,33.588,0,0,1,8.122,6.77,37.341,37.341,0,0,1,4.328,6.01,37.883,37.883,0,0,1,3.373,7.884,34.091,34.091,0,0,1,.125,19.733l-.169-.424a34.308,34.308,0,0,1,7.539,5.728,35.116,35.116,0,0,1,10.105,20.631,33.85,33.85,0,0,1-3.317,18.541,34.969,34.969,0,0,1-7.609,10.239,28.4,28.4,0,0,1-2.7,2.195,7.525,7.525,0,0,1-1.008.673,7.5,7.5,0,0,1,.918-.79c.629-.481,1.5-1.257,2.592-2.285A36.087,36.087,0,0,0,422,321.283a33.649,33.649,0,0,0,3.114-18.238,34.689,34.689,0,0,0-9.953-20.19,33.838,33.838,0,0,0-7.373-5.614l-.255-.142.084-.283a33.675,33.675,0,0,0-.046-19.335,36.467,36.467,0,0,0-7.449-13.761,35.106,35.106,0,0,0-7.9-6.863c-1.019-.7-1.9-1.074-2.455-1.416A5.632,5.632,0,0,1,388.927,234.927Z" transform="translate(-388.927 -234.924)" fill="#455a64"/>
            </g>
          </g>
        </g>
        <g id="Group_10975" data-name="Group 10975" transform="translate(71.379 210.564)">
          <g id="Group_10950" data-name="Group 10950" transform="translate(0 20.351)">
            <path id="Path_10542" data-name="Path 10542" d="M347.752,278.422s-20.7,6.3-27.963,16.854c-5.134,7.467-57.7,121.308-57.7,121.308l-79.8-23.993-28.53,37.682,88.785,49.213a54.09,54.09,0,0,0,52.861-.234h0A54.084,54.084,0,0,0,316.721,457.2L339.3,413.951Z" transform="translate(-153.76 -278.422)" fill="#b73730"/>
          </g>
          <g id="Group_10956" data-name="Group 10956" transform="translate(168.072)">
            <g id="Group_10951" data-name="Group 10951">
              <path id="Path_10543" data-name="Path 10543" d="M277.88,532.266l12.46-53.706-9.441-39c-6.073-20.081-11.286-52.789-4.679-79.133l22.069-75.757,24.265-11.158,55.526-9.55c2.136.711,58.061,16.506,58.061,16.506a86.758,86.758,0,0,1,10.848,3.032l6.412,41.471L434.12,393.328l-8.4,68.1,18.448,70.834Z" transform="translate(-273.147 -263.966)" fill="#b73730"/>
            </g>
            <g id="Group_10953" data-name="Group 10953" transform="translate(0.608 101.216)">
              <g id="Group_10952" data-name="Group 10952">
                <path id="Path_10544" data-name="Path 10544" d="M273.579,335.863" transform="translate(-273.579 -335.863)" fill="none" stroke="#fff" stroke-miterlimit="10" stroke-width="0.02"/>
              </g>
            </g>
            <g id="Group_10955" data-name="Group 10955" transform="translate(130.707 106.225)">
              <g id="Group_10954" data-name="Group 10954">
                <path id="Path_10545" data-name="Path 10545" d="M365.993,339.421" transform="translate(-365.993 -339.421)" fill="none" stroke="#fff" stroke-miterlimit="10" stroke-width="0.02"/>
              </g>
            </g>
          </g>
          <g id="Group_10957" data-name="Group 10957" transform="translate(204.381 8.131)">
            <path id="Path_10546" data-name="Path 10546" d="M299.451,276.948l16.1-7.206,72.57,1.011,17.164,9.963s-59.953,66.172-75,68.359C292.441,354.579,299.451,276.948,299.451,276.948Z" transform="translate(-298.939 -269.742)" fill="#ffbe9d"/>
          </g>
          <g id="Group_10958" data-name="Group 10958" transform="translate(313.544 18.966)">
            <path id="Path_10547" data-name="Path 10547" d="M403.275,277.438s10.869,2.445,20.188,22.325,24.381,75.2,24.381,75.2l6.441-58.629,52.468,5.772L496.6,462.227s-18.569,26.927-49.627,24.442-70.491-100.664-70.491-100.664Z" transform="translate(-376.481 -277.438)" fill="#b73730"/>
          </g>
          <g id="Group_10960" data-name="Group 10960" transform="translate(376.707 57.863)">
            <g id="Group_10959" data-name="Group 10959">
              <path id="Path_10548" data-name="Path 10548" d="M421.361,435.288a1.272,1.272,0,0,1-.01-.341c.011-.267.024-.593.041-.992q.085-1.4.229-3.812c.2-3.312.6-8.1,1.143-14,1.094-11.814,3.1-28.083,5.547-46.009s4.534-34.177,5.758-45.97c.615-5.894,1.088-10.668,1.375-13.971q.232-2.4.366-3.8c.046-.4.083-.721.114-.987a1.166,1.166,0,0,1,.065-.335,1.2,1.2,0,0,1,.01.341l-.041.992q-.085,1.4-.229,3.812c-.2,3.311-.594,8.095-1.143,14-1.094,11.814-3.1,28.084-5.548,46.016s-4.533,34.17-5.756,45.963c-.615,5.894-1.088,10.668-1.375,13.972q-.232,2.4-.366,3.8c-.047.4-.083.721-.114.987A1.164,1.164,0,0,1,421.361,435.288Z" transform="translate(-421.348 -305.068)" fill="#263238"/>
            </g>
          </g>
          <g id="Group_10962" data-name="Group 10962" transform="translate(104.929 159.1)">
            <g id="Group_10961" data-name="Group 10961">
              <path id="Path_10549" data-name="Path 10549" d="M232.6,406.628a3.8,3.8,0,0,1-.58-1.047,30.722,30.722,0,0,1-1.219-3.021,45.279,45.279,0,0,1-2.057-21.241,30.015,30.015,0,0,1,.617-3.2,3.822,3.822,0,0,1,.367-1.14c.118.025-.2,1.691-.47,4.4a53.665,53.665,0,0,0,2.037,21.018C232.079,405.008,232.711,406.582,232.6,406.628Z" transform="translate(-228.295 -376.98)" fill="#263238"/>
            </g>
          </g>
          <g id="Group_10964" data-name="Group 10964" transform="translate(106.547 157.181)">
            <g id="Group_10963" data-name="Group 10963">
              <path id="Path_10550" data-name="Path 10550" d="M240.957,408.483a5.149,5.149,0,0,1-.925-1.046,37.69,37.69,0,0,1-2.189-3.107,54.025,54.025,0,0,1-8.185-23.524,37.315,37.315,0,0,1-.213-3.8,5.183,5.183,0,0,1,.075-1.394c.124,0,.214,1.974.652,5.127a62.666,62.666,0,0,0,8.113,23.316C239.9,406.8,241.057,408.41,240.957,408.483Z" transform="translate(-229.444 -375.617)" fill="#263238"/>
            </g>
          </g>
          <g id="Group_10966" data-name="Group 10966" transform="translate(165.815 64.859)">
            <g id="Group_10965" data-name="Group 10965">
              <path id="Path_10551" data-name="Path 10551" d="M285.906,310.038a6.925,6.925,0,0,1-.266,1.136l-.9,3.217c-.809,2.861-1.947,6.878-3.345,11.813-2.727,9.983-6.524,23.847-8.34,39.545a92.145,92.145,0,0,0,3.387,39.925c1.484,4.958,2.889,8.911,3.85,11.645q.7,1.974,1.108,3.148a6.833,6.833,0,0,1,.342,1.116,7.275,7.275,0,0,1-.48-1.063q-.46-1.157-1.237-3.1c-1.045-2.706-2.526-6.636-4.078-11.593A95.048,95.048,0,0,1,272.08,388a96.488,96.488,0,0,1,.251-22.333c1.827-15.773,5.714-29.649,8.569-39.6,1.454-4.979,2.7-8.987,3.572-11.752q.646-1.993,1.028-3.177A6.814,6.814,0,0,1,285.906,310.038Z" transform="translate(-271.544 -310.038)" fill="#263238"/>
            </g>
          </g>
          <g id="Group_10968" data-name="Group 10968" transform="translate(305.502 22.635)">
            <g id="Group_10967" data-name="Group 10967">
              <path id="Path_10552" data-name="Path 10552" d="M392.166,414.59a1.541,1.541,0,0,1-.19-.345l-.493-1.04-1.827-4.032c-.776-1.758-1.768-3.893-2.825-6.41-1.018-2.545-2.171-5.433-3.443-8.618-1.239-3.207-2.431-6.783-3.8-10.589q-.9-2.9-1.854-5.989-.473-1.546-.96-3.135c-.3-1.067-.566-2.16-.857-3.259a143.742,143.742,0,0,1-4.962-29.154,84.02,84.02,0,0,1,3.034-29.373,52.087,52.087,0,0,1,11.621-21.059,40.645,40.645,0,0,1,13.1-9.607,30.509,30.509,0,0,1,4.157-1.54l1.111-.311a1.6,1.6,0,0,1,.384-.082,1.566,1.566,0,0,1-.365.153l-1.085.38a36.2,36.2,0,0,0-4.083,1.658,41.507,41.507,0,0,0-12.835,9.7,52.108,52.108,0,0,0-11.357,20.9,84.288,84.288,0,0,0-2.949,29.14A145.827,145.827,0,0,0,376.572,371q.427,1.647.84,3.251l.942,3.131q.935,3.083,1.813,5.983c1.339,3.807,2.5,7.384,3.7,10.6,1.235,3.2,2.352,6.091,3.338,8.644,1.021,2.53,1.974,4.678,2.709,6.453.722,1.733,1.291,3.1,1.7,4.084l.425,1.07A1.57,1.57,0,0,1,392.166,414.59Z" transform="translate(-370.768 -280.044)" fill="#263238"/>
            </g>
          </g>
          <g id="Group_10970" data-name="Group 10970" transform="translate(302.216 93.715)" opacity="0.3">
            <g id="Group_10969" data-name="Group 10969">
              <path id="Path_10553" data-name="Path 10553" d="M373.12,330.535c-6.857,32.448-6.95,65.828,4.86,96.819.684,1.8,3.4,8.189,5.317,8.283,2.437.121,3.593-2.911,4.015-5.314.866-4.938,1.4-13.067,2.262-18.007,1.087-6.184,2.557-20.5,2.557-20.5s-5.673-12.984-8.167-19.947c-4.627-12.919-8.54-25.249-10.7-40.309" transform="translate(-368.434 -330.535)"/>
            </g>
          </g>
          <g id="Group_10972" data-name="Group 10972" transform="translate(214.048 219.421)">
            <g id="Group_10971" data-name="Group 10971">
              <path id="Path_10554" data-name="Path 10554" d="M393.058,419.829a5.12,5.12,0,0,1-.545.847c-.428.6-.988,1.377-1.685,2.35q-.564.771-1.235,1.689c-.472.6-1.035,1.214-1.613,1.893a56.46,56.46,0,0,1-4.105,4.463l-2.521,2.471c-.885.85-1.9,1.629-2.9,2.492a82.529,82.529,0,0,1-6.726,5.1,86.455,86.455,0,0,1-35.789,13.948,82.889,82.889,0,0,1-8.407.794c-1.322.041-2.6.156-3.824.13l-3.529-.113a56.039,56.039,0,0,1-6.042-.508c-.887-.108-1.715-.179-2.469-.3l-2.051-.41-2.83-.59a5.253,5.253,0,0,1-.976-.253,5.231,5.231,0,0,1,1.007.11l2.848.453,2.053.344c.753.1,1.581.152,2.465.241a60.13,60.13,0,0,0,6.015.4l3.505.065c1.219.013,2.485-.117,3.8-.172,2.63-.058,5.407-.489,8.335-.855a88.1,88.1,0,0,0,35.516-13.841c2.4-1.712,4.74-3.275,6.715-5.012,1-.846,2.022-1.608,2.91-2.443l2.538-2.419a60.084,60.084,0,0,0,4.16-4.364c.591-.663,1.167-1.26,1.653-1.844l1.278-1.643c.742-.936,1.336-1.688,1.791-2.262A5.349,5.349,0,0,1,393.058,419.829Z" transform="translate(-305.806 -419.829)" fill="#263238"/>
            </g>
          </g>
          <g id="Group_10974" data-name="Group 10974" transform="translate(269.027 197.949)">
            <g id="Group_10973" data-name="Group 10973">
              <path id="Path_10555" data-name="Path 10555" d="M365.681,404.576a6.159,6.159,0,0,1-.187,1.539,35.4,35.4,0,0,1-.981,4.105,48.927,48.927,0,0,1-14.979,23.117,35.511,35.511,0,0,1-3.345,2.573,6.3,6.3,0,0,1-1.328.8c-.077-.108,1.722-1.377,4.328-3.762a54.095,54.095,0,0,0,14.828-22.885C365.13,406.71,365.552,404.551,365.681,404.576Z" transform="translate(-344.859 -404.576)" fill="#263238"/>
            </g>
          </g>
        </g>
        <g id="Group_11121" data-name="Group 11121" transform="translate(246.22)">
          <g id="Group_11017" data-name="Group 11017" transform="translate(89.133)">
            <g id="Group_10976" data-name="Group 10976" transform="translate(0 35.264)">
              <path id="Path_10556" data-name="Path 10556" d="M341.59,139.445a57.033,57.033,0,0,1,49.589,84.508c-3.227,5.869-7.868,11.426-14.244,13.471a117.565,117.565,0,0,0-35.665-91.3" transform="translate(-341.27 -139.445)" fill="#b73730"/>
            </g>
            <g id="Group_10977" data-name="Group 10977" transform="translate(22.19 7.554)">
              <path id="Path_10557" data-name="Path 10557" d="M358.152,152.557c-2.917-6.065.206-13.653,5.407-17.924s11.977-6,18.524-7.56,13.328-3.186,18.645-7.312c-.767,10.544-3.387,21.394-10.212,29.468S371.869,161.8,362.124,157.7" transform="translate(-357.032 -119.761)" fill="#b73730"/>
            </g>
            <g id="Group_10978" data-name="Group 10978" transform="translate(0.806 0.001)">
              <path id="Path_10558" data-name="Path 10558" d="M371.108,161.691c-4.48,1.885-9.821.707-13.83-2.04s-6.877-6.862-9.231-11.114a47.779,47.779,0,0,1-5.931-16.788,28.114,28.114,0,0,1,2.97-17.352c7.706,8.21,16.194,15.11,20.6,25.473,2.589,6.087,2.275,15.846-.5,21.85" transform="translate(-341.842 -114.396)" fill="#b73730"/>
            </g>
            <g id="Group_10980" data-name="Group 10980" transform="translate(40.452 81.434)">
              <g id="Group_10979" data-name="Group 10979">
                <path id="Path_10559" data-name="Path 10559" d="M381.45,172.241a10.282,10.282,0,0,1,.384,1.958c.107.633.218,1.412.289,2.321s.206,1.943.228,3.093a62.854,62.854,0,0,1-.142,8.074,65.076,65.076,0,0,1-4.567,19.2,62.937,62.937,0,0,1-3.51,7.273c-.538,1.018-1.116,1.884-1.6,2.659s-.924,1.425-1.3,1.943a10.384,10.384,0,0,1-1.225,1.575,10.477,10.477,0,0,1,.985-1.733c.344-.539.756-1.2,1.192-2s.988-1.67,1.492-2.694a71.865,71.865,0,0,0,3.336-7.275,69.779,69.779,0,0,0,4.522-19.005,71.674,71.674,0,0,0,.3-8c.011-1.142-.079-2.171-.118-3.077s-.1-1.685-.165-2.321A10.567,10.567,0,0,1,381.45,172.241Z" transform="translate(-370.005 -172.241)" fill="#263238"/>
              </g>
            </g>
            <g id="Group_10982" data-name="Group 10982" transform="translate(21.622 20.833)">
              <g id="Group_10981" data-name="Group 10981">
                <path id="Path_10560" data-name="Path 10560" d="M382.51,152.04a10.384,10.384,0,0,1-1.56,1.242,17.008,17.008,0,0,1-5.084,1.967c-4.53,1.032-11.072.817-17.977-1.025l-.206-.053-.048-.21c-.093-.422-.194-.874-.3-1.33a31.471,31.471,0,0,1-.465-10.471,17.838,17.838,0,0,1,2.956-8.031,14.842,14.842,0,0,1,4.177-3.988,11.509,11.509,0,0,1,1.9-.94,11.508,11.508,0,0,1-1.737,1.177,15.868,15.868,0,0,0-3.907,4.042,17.827,17.827,0,0,0-2.717,7.829,31.942,31.942,0,0,0,.514,10.237c.1.446.2.89.29,1.3l-.252-.263c6.773,1.815,13.228,2.115,17.666,1.232a18.671,18.671,0,0,0,5.048-1.713A10.637,10.637,0,0,1,382.51,152.04Z" transform="translate(-356.629 -129.194)" fill="#263238"/>
              </g>
            </g>
            <g id="Group_10984" data-name="Group 10984" transform="translate(22.957 25.414)">
              <g id="Group_10983" data-name="Group 10983">
                <path id="Path_10561" data-name="Path 10561" d="M387.889,132.469c.021.134-2.06.425-5.286,1.381a45.758,45.758,0,0,0-5.531,2.05,44.916,44.916,0,0,0-12.028,7.882,45.874,45.874,0,0,0-4.085,4.256c-2.165,2.576-3.262,4.367-3.376,4.3a5.692,5.692,0,0,1,.683-1.311,29.841,29.841,0,0,1,2.29-3.313,39.792,39.792,0,0,1,4.029-4.423,41.578,41.578,0,0,1,12.217-8.006,39.618,39.618,0,0,1,5.662-1.929,29.672,29.672,0,0,1,3.952-.779A5.649,5.649,0,0,1,387.889,132.469Z" transform="translate(-357.577 -132.448)" fill="#263238"/>
              </g>
            </g>
            <g id="Group_10986" data-name="Group 10986" transform="translate(11.534 35.702)">
              <g id="Group_10985" data-name="Group 10985">
                <path id="Path_10562" data-name="Path 10562" d="M367.7,151.182c.024.006.006.151-.055.422a6.068,6.068,0,0,1-.377,1.164,9.115,9.115,0,0,1-2.783,3.519,9.675,9.675,0,0,1-6.328,2.043,9.539,9.539,0,0,1-8.281-12.083,9.68,9.68,0,0,1,4.19-5.164,9.127,9.127,0,0,1,4.288-1.326,6.041,6.041,0,0,1,1.22.069c.276.042.418.077.415.1-.007.077-.588,0-1.613.114a9.577,9.577,0,0,0-4.035,1.481,9.346,9.346,0,0,0-3.821,4.929,8.968,8.968,0,0,0,7.677,11.2,9.339,9.339,0,0,0,5.976-1.784,9.6,9.6,0,0,0,2.838-3.228C367.491,151.731,367.625,151.161,367.7,151.182Z" transform="translate(-349.463 -139.756)" fill="#263238"/>
              </g>
            </g>
            <g id="Group_10988" data-name="Group 10988" transform="translate(12.509 44.024)">
              <g id="Group_10987" data-name="Group 10987">
                <path id="Path_10563" data-name="Path 10563" d="M350.349,149.123c-.068.07-.488-.766.179-1.864a3.183,3.183,0,0,1,1.671-1.305,6.188,6.188,0,0,1,2.514-.263c3.514.249,6.069,1.619,5.973,1.781-.077.2-2.669-.817-6.023-1.05a4.053,4.053,0,0,0-3.711,1.135A3.712,3.712,0,0,0,350.349,149.123Z" transform="translate(-350.156 -145.667)" fill="#263238"/>
              </g>
            </g>
            <g id="Group_10990" data-name="Group 10990" transform="translate(0.892)">
              <g id="Group_10989" data-name="Group 10989">
                <path id="Path_10564" data-name="Path 10564" d="M345.062,114.4a17.41,17.41,0,0,0-2.15,6.023,41.681,41.681,0,0,0-.332,6.987,45.644,45.644,0,0,0,.749,8.523,42.265,42.265,0,0,0,6.013,14.252c1.143,1.637,2.151,2.91,2.865,3.769s1.159,1.288,1.125,1.33c-.084.106-2-1.551-4.411-4.8a39.584,39.584,0,0,1-6.31-14.409,43.165,43.165,0,0,1-.707-8.666,37.89,37.89,0,0,1,.5-7.08,14.176,14.176,0,0,1,1.608-4.522A5.1,5.1,0,0,1,345.062,114.4Z" transform="translate(-341.904 -114.395)" fill="#263238"/>
              </g>
            </g>
            <g id="Group_10992" data-name="Group 10992" transform="translate(11.336 16.7)">
              <g id="Group_10991" data-name="Group 10991">
                <path id="Path_10565" data-name="Path 10565" d="M349.332,126.261a10.969,10.969,0,0,1,1.979,2.406,41.682,41.682,0,0,1,3.739,6.524,39.334,39.334,0,0,1,2.474,7.105,10.708,10.708,0,0,1,.483,3.079c-.229.053-1.185-4.6-3.622-9.878C351.971,130.215,349.133,126.4,349.332,126.261Z" transform="translate(-349.322 -126.258)" fill="#263238"/>
              </g>
            </g>
            <g id="Group_10994" data-name="Group 10994" transform="translate(8.955 25.469)">
              <g id="Group_10993" data-name="Group 10993">
                <path id="Path_10566" data-name="Path 10566" d="M347.639,132.491c.148-.125,2.519,2.272,5.624,5.058s5.575,5.123,5.433,5.285c-.125.141-2.813-1.93-5.925-4.743S347.476,132.626,347.639,132.491Z" transform="translate(-347.631 -132.487)" fill="#263238"/>
              </g>
            </g>
            <g id="Group_10996" data-name="Group 10996" transform="translate(19.93 58.501)">
              <g id="Group_10995" data-name="Group 10995">
                <path id="Path_10567" data-name="Path 10567" d="M381.3,155.951c.006.008-.063.076-.2.2-.2.168-.4.342-.619.526a28.388,28.388,0,0,1-2.4,1.786,36.175,36.175,0,0,1-18.566,6.1,27.5,27.5,0,0,1-2.993-.013l-.811-.058a1.008,1.008,0,0,1-.282-.039,1.046,1.046,0,0,1,.284-.02l.812,0c.7.018,1.723,0,2.979-.08a38.337,38.337,0,0,0,18.462-6.063c1.054-.683,1.889-1.27,2.445-1.7l.653-.483A1.147,1.147,0,0,1,381.3,155.951Z" transform="translate(-355.427 -155.951)" fill="#fafafa"/>
              </g>
            </g>
            <g id="Group_10998" data-name="Group 10998" transform="translate(28.318 75.539)">
              <g id="Group_10997" data-name="Group 10997">
                <path id="Path_10568" data-name="Path 10568" d="M387.167,168.054a1.143,1.143,0,0,1-.206.2l-.626.521c-.542.455-1.366,1.067-2.413,1.777a40.411,40.411,0,0,1-18.446,6.649c-1.26.122-2.285.177-2.993.173h-.814a1.073,1.073,0,0,1-.284-.021,1.089,1.089,0,0,1,.283-.038l.811-.053c.705-.031,1.723-.117,2.975-.265a43.232,43.232,0,0,0,18.355-6.617c1.057-.684,1.9-1.268,2.458-1.694l.659-.477A.978.978,0,0,1,387.167,168.054Z" transform="translate(-361.385 -168.053)" fill="#fafafa"/>
              </g>
            </g>
            <g id="Group_11000" data-name="Group 11000" transform="translate(33.923 100.389)">
              <g id="Group_10999" data-name="Group 10999">
                <path id="Path_10569" data-name="Path 10569" d="M383.24,185.706a3.578,3.578,0,0,1-.6.439c-.391.272-.983.629-1.732,1.039a27.885,27.885,0,0,1-12.791,3.345c-.853.01-1.543-.013-2.017-.058a3.6,3.6,0,0,1-.736-.092,3.7,3.7,0,0,1,.74-.023c.474.01,1.161,0,2.008-.035a30.936,30.936,0,0,0,12.7-3.322c.755-.383,1.358-.711,1.767-.952A3.583,3.583,0,0,1,383.24,185.706Z" transform="translate(-365.367 -185.705)" fill="#fafafa"/>
              </g>
            </g>
            <g id="Group_11002" data-name="Group 11002" transform="translate(52.714 96.561)">
              <g id="Group_11001" data-name="Group 11001">
                <path id="Path_10570" data-name="Path 10570" d="M382.574,183.013a6.646,6.646,0,0,1-1.9.515,6.735,6.735,0,0,1-1.957.228,13.277,13.277,0,0,1,3.859-.743Z" transform="translate(-378.715 -182.986)" fill="#fafafa"/>
              </g>
            </g>
            <g id="Group_11004" data-name="Group 11004" transform="translate(36.236 125.325)">
              <g id="Group_11003" data-name="Group 11003">
                <path id="Path_10571" data-name="Path 10571" d="M373.377,203.9a13.067,13.067,0,0,1-6.367-.466c.021-.084,1.422.211,3.176.336S373.369,203.813,373.377,203.9Z" transform="translate(-367.01 -203.418)" fill="#fafafa"/>
              </g>
            </g>
            <g id="Group_11006" data-name="Group 11006" transform="translate(11.99 52.182)">
              <g id="Group_11005" data-name="Group 11005">
                <path id="Path_10572" data-name="Path 10572" d="M353.684,151.47a16.957,16.957,0,0,1-3.9,2.148,16.957,16.957,0,0,1,3.9-2.148Z" transform="translate(-349.787 -151.462)" fill="#fafafa"/>
              </g>
            </g>
            <g id="Group_11008" data-name="Group 11008" transform="translate(1.271 37.407)">
              <g id="Group_11007" data-name="Group 11007">
                <path id="Path_10573" data-name="Path 10573" d="M349.8,140.973a19,19,0,0,0-7.622,5.416,4.783,4.783,0,0,1,.808-1.143,13.846,13.846,0,0,1,5.469-3.885A4.816,4.816,0,0,1,349.8,140.973Z" transform="translate(-342.173 -140.967)" fill="#fafafa"/>
              </g>
            </g>
            <g id="Group_11010" data-name="Group 11010" transform="translate(20.489 45.403)">
              <g id="Group_11009" data-name="Group 11009">
                <path id="Path_10574" data-name="Path 10574" d="M356.912,155.023a14.672,14.672,0,0,0-1.083-8.376,3.889,3.889,0,0,1,.628,1.108,10.935,10.935,0,0,1,.781,6.038A3.867,3.867,0,0,1,356.912,155.023Z" transform="translate(-355.824 -146.647)" fill="#fafafa"/>
              </g>
            </g>
            <g id="Group_11012" data-name="Group 11012" transform="translate(23.785 7.865)">
              <g id="Group_11011" data-name="Group 11011">
                <path id="Path_10575" data-name="Path 10575" d="M399.516,119.982a17.106,17.106,0,0,1-1.543,1.644,31.26,31.26,0,0,1-4.87,3.746,61.806,61.806,0,0,1-8.095,4.185c-3.137,1.391-6.648,2.762-10.206,4.47a39.867,39.867,0,0,0-9.336,5.955,23.515,23.515,0,0,0-5.483,7.137,17.121,17.121,0,0,0-1.672,5.841c-.125,1.44-.023,2.243-.07,2.244,0,0-.027-.2-.048-.58a12.362,12.362,0,0,1,0-1.672,16.651,16.651,0,0,1,1.6-5.921,23.419,23.419,0,0,1,5.489-7.249,39.512,39.512,0,0,1,9.39-6.02c3.573-1.715,7.091-3.079,10.225-4.453a64,64,0,0,0,8.095-4.114,33.336,33.336,0,0,0,4.9-3.655c.531-.491.936-.88,1.2-1.157S399.516,119.982,399.516,119.982Z" transform="translate(-358.165 -119.982)" fill="#fafafa"/>
              </g>
            </g>
            <g id="Group_11014" data-name="Group 11014" transform="translate(33.097 24.573)">
              <g id="Group_11013" data-name="Group 11013">
                <path id="Path_10576" data-name="Path 10576" d="M393.012,131.851a1.721,1.721,0,0,1-.187.318l-.587.884c-.505.769-1.3,1.843-2.327,3.128a55.666,55.666,0,0,1-20.167,15.655c-1.5.68-2.737,1.181-3.608,1.48l-1,.349a1.7,1.7,0,0,1-.355.1,1.793,1.793,0,0,1,.335-.158c.3-.122.624-.253.98-.4.856-.331,2.078-.859,3.562-1.56a58.76,58.76,0,0,0,20.093-15.6c1.047-1.264,1.862-2.316,2.395-3.063l.631-.85A1.735,1.735,0,0,1,393.012,131.851Z" transform="translate(-364.78 -131.851)" fill="#fafafa"/>
              </g>
            </g>
            <g id="Group_11016" data-name="Group 11016" transform="translate(2.566 4.791)">
              <g id="Group_11015" data-name="Group 11015">
                <path id="Path_10577" data-name="Path 10577" d="M343.093,117.8a26.874,26.874,0,0,1,4.267,2.259,35.325,35.325,0,0,1,14.255,17.99,27.038,27.038,0,0,1,1.225,4.67,1.4,1.4,0,0,1-.107-.32c-.077-.289-.16-.593-.249-.926a33.664,33.664,0,0,0-1.064-3.353,36.67,36.67,0,0,0-14.174-17.887,33.18,33.18,0,0,0-3.023-1.8l-.845-.455A1.54,1.54,0,0,1,343.093,117.8Z" transform="translate(-343.093 -117.799)" fill="#fafafa"/>
              </g>
            </g>
          </g>
          <g id="Group_11114" data-name="Group 11114" transform="translate(0 22.305)">
            <g id="Group_11110" data-name="Group 11110">
              <g id="Group_11019" data-name="Group 11019" transform="translate(0 35.425)">
                <g id="Group_11018" data-name="Group 11018">
                  <path id="Path_10578" data-name="Path 10578" d="M299.053,155.4c.55,7.463-4.377,14.127-9.342,19.725s-10.489,11.431-11.562,18.836c-1.9,13.122,10.946,25.306,8.3,38.3-1.42,6.963-7.122,12.557-8.138,19.591-.983,6.8,2.664,13.461,7.183,18.641s9.755,4.422,13.751,10.014a56.2,56.2,0,0,0,17.341,15.412c14.4,7.885,31.679-3.522,38.625-5.571" transform="translate(-277.956 -155.403)" fill="#263238"/>
                </g>
              </g>
              <g id="Group_11021" data-name="Group 11021" transform="translate(20.859)">
                <g id="Group_11020" data-name="Group 11020">
                  <path id="Path_10579" data-name="Path 10579" d="M401.9,196.244c6.638-2.889,7.159-26.673-9.493-29.421-6.68-1.1-12.243-4.361-17.859-8.141-4.972-3.346-6.448-11.841-10.657-16.108a41.671,41.671,0,0,0-70.084,19.119c-2.419,9.638-.767,21.031,6.829,27.436,8.817,7.432,21.89,5.782,33.186,3.469s24.084-4.592,33.517,2.043c5.689,4,8.949,10.509,12.427,16.532s7.841,12.173,14.417,14.437c0,0,5.008,11.766.919,19.957s4.806-5.778,4.806-5.778,16.213-28.83,1.992-43.544" transform="translate(-292.773 -130.239)" fill="#263238"/>
                </g>
              </g>
              <g id="Group_11107" data-name="Group 11107" transform="translate(14.334 32.776)">
                <g id="Group_11106" data-name="Group 11106">
                  <g id="Group_11105" data-name="Group 11105">
                    <g id="Group_11104" data-name="Group 11104">
                      <g id="Group_11087" data-name="Group 11087">
                        <g id="Group_11086" data-name="Group 11086">
                          <g id="Group_11085" data-name="Group 11085">
                            <g id="Group_11029" data-name="Group 11029">
                              <g id="Group_11028" data-name="Group 11028">
                                <g id="Group_11027" data-name="Group 11027">
                                  <g id="Group_11026" data-name="Group 11026">
                                    <g id="Group_11025" data-name="Group 11025">
                                      <g id="Group_11024" data-name="Group 11024">
                                        <g id="Group_11023" data-name="Group 11023">
                                          <g id="Group_11022" data-name="Group 11022">
                                            <path id="Path_10580" data-name="Path 10580" d="M319.442,353.687c-.092-15.529.006-59.134,0-59.055,0,0-24.666-4.152-29.707-36.358-2.507-16.016-1.644-42.267-.245-63.722,1.26-19.312,14.109-42.981,33.349-40.9L382.9,168.971a11.323,11.323,0,0,1,10.105,11.507h0l-3.656,149.159Z" transform="translate(-288.138 -153.521)" fill="#ffbe9d"/>
                                          </g>
                                        </g>
                                      </g>
                                    </g>
                                  </g>
                                </g>
                              </g>
                            </g>
                            <g id="Group_11047" data-name="Group 11047" transform="translate(6.95 50.377)">
                              <g id="Group_11037" data-name="Group 11037" transform="translate(4.621 5.33)">
                                <g id="Group_11036" data-name="Group 11036">
                                  <g id="Group_11035" data-name="Group 11035">
                                    <g id="Group_11034" data-name="Group 11034">
                                      <g id="Group_11033" data-name="Group 11033">
                                        <g id="Group_11032" data-name="Group 11032">
                                          <g id="Group_11031" data-name="Group 11031">
                                            <g id="Group_11030" data-name="Group 11030">
                                              <path id="Path_10581" data-name="Path 10581" d="M296.36,196.814a4.13,4.13,0,0,0,3.973,4.176,3.949,3.949,0,0,0,4.264-3.714,4.13,4.13,0,0,0-3.967-4.177A3.953,3.953,0,0,0,296.36,196.814Z" transform="translate(-296.357 -193.092)" fill="#263238"/>
                                            </g>
                                          </g>
                                        </g>
                                      </g>
                                    </g>
                                  </g>
                                </g>
                              </g>
                              <g id="Group_11046" data-name="Group 11046">
                                <g id="Group_11045" data-name="Group 11045">
                                  <g id="Group_11044" data-name="Group 11044">
                                    <g id="Group_11043" data-name="Group 11043">
                                      <g id="Group_11042" data-name="Group 11042">
                                        <g id="Group_11041" data-name="Group 11041">
                                          <g id="Group_11040" data-name="Group 11040">
                                            <g id="Group_11039" data-name="Group 11039">
                                              <g id="Group_11038" data-name="Group 11038">
                                                <path id="Path_10582" data-name="Path 10582" d="M293.14,193.628c.511.541,3.645-1.768,8.088-1.747,4.439-.041,7.694,2.251,8.178,1.709.237-.241-.283-1.214-1.7-2.251a11.332,11.332,0,0,0-6.545-2.033,10.883,10.883,0,0,0-6.438,2.062C293.354,192.414,292.889,193.387,293.14,193.628Z" transform="translate(-293.075 -189.306)" fill="#263238"/>
                                              </g>
                                            </g>
                                          </g>
                                        </g>
                                      </g>
                                    </g>
                                  </g>
                                </g>
                              </g>
                            </g>
                            <g id="Group_11057" data-name="Group 11057" transform="translate(50.623 57.457)">
                              <g id="Group_11056" data-name="Group 11056">
                                <g id="Group_11055" data-name="Group 11055">
                                  <g id="Group_11054" data-name="Group 11054">
                                    <g id="Group_11053" data-name="Group 11053">
                                      <g id="Group_11052" data-name="Group 11052">
                                        <g id="Group_11051" data-name="Group 11051">
                                          <g id="Group_11050" data-name="Group 11050">
                                            <g id="Group_11049" data-name="Group 11049">
                                              <g id="Group_11048" data-name="Group 11048">
                                                <path id="Path_10583" data-name="Path 10583" d="M324.162,198.658c.511.539,3.649-1.768,8.088-1.747,4.439-.042,7.695,2.251,8.178,1.708.237-.241-.277-1.214-1.7-2.25a11.317,11.317,0,0,0-6.543-2.034,10.9,10.9,0,0,0-6.439,2.062C324.38,197.443,323.912,198.416,324.162,198.658Z" transform="translate(-324.097 -194.335)" fill="#263238"/>
                                              </g>
                                            </g>
                                          </g>
                                        </g>
                                      </g>
                                    </g>
                                  </g>
                                </g>
                              </g>
                            </g>
                            <g id="Group_11066" data-name="Group 11066" transform="translate(23.177 51.524)">
                              <g id="Group_11065" data-name="Group 11065">
                                <g id="Group_11064" data-name="Group 11064">
                                  <g id="Group_11063" data-name="Group 11063">
                                    <g id="Group_11062" data-name="Group 11062">
                                      <g id="Group_11061" data-name="Group 11061">
                                        <g id="Group_11060" data-name="Group 11060">
                                          <g id="Group_11059" data-name="Group 11059">
                                            <g id="Group_11058" data-name="Group 11058">
                                              <path id="Path_10584" data-name="Path 10584" d="M315.914,227.138c.023-.253-2.74-.736-7.214-1.319-1.133-.12-2.207-.348-2.4-1.122-.265-.821.213-2.043.766-3.362q1.609-4.114,3.375-8.631c4.686-12.29,8.081-22.4,7.585-22.581s-4.7,9.628-9.386,21.918q-1.691,4.546-3.234,8.683c-.431,1.288-1.173,2.749-.6,4.451a2.854,2.854,0,0,0,1.862,1.664,7.763,7.763,0,0,0,1.927.272C313.1,227.363,315.9,227.39,315.914,227.138Z" transform="translate(-304.601 -190.12)" fill="#263238"/>
                                            </g>
                                          </g>
                                        </g>
                                      </g>
                                    </g>
                                  </g>
                                </g>
                              </g>
                            </g>
                            <g id="Group_11074" data-name="Group 11074" transform="translate(31.304 129.705)">
                              <g id="Group_11073" data-name="Group 11073">
                                <g id="Group_11072" data-name="Group 11072">
                                  <g id="Group_11071" data-name="Group 11071">
                                    <g id="Group_11070" data-name="Group 11070">
                                      <g id="Group_11069" data-name="Group 11069">
                                        <g id="Group_11068" data-name="Group 11068">
                                          <g id="Group_11067" data-name="Group 11067">
                                            <path id="Path_10585" data-name="Path 10585" d="M310.374,257.061a81.906,81.906,0,0,0,43.143-11.406c-.362.077-11.872,22.381-42.725,19.009Z" transform="translate(-310.374 -245.655)" fill="#eb996e"/>
                                          </g>
                                        </g>
                                      </g>
                                    </g>
                                  </g>
                                </g>
                              </g>
                            </g>
                            <g id="Group_11075" data-name="Group 11075" transform="translate(35.714 93.887)">
                              <path id="Path_10586" data-name="Path 10586" d="M313.565,227.691c-.531-2.734,2.686-3.621,5.051-5.091s3.725-3.424,5.941-1.737a8.641,8.641,0,0,1,2.737,3.832,6.054,6.054,0,0,1,.443,3.145,6.128,6.128,0,0,1-1.979,3.289,9.371,9.371,0,0,1-4.823,2.523,6.716,6.716,0,0,1-5.223-1.228,5.267,5.267,0,0,1-1.991-4.872" transform="translate(-313.507 -220.212)" fill="#eb996e"/>
                            </g>
                            <g id="Group_11084" data-name="Group 11084" transform="translate(33.372 91.642)">
                              <g id="Group_11083" data-name="Group 11083">
                                <g id="Group_11082" data-name="Group 11082">
                                  <g id="Group_11081" data-name="Group 11081">
                                    <g id="Group_11080" data-name="Group 11080">
                                      <g id="Group_11079" data-name="Group 11079">
                                        <g id="Group_11078" data-name="Group 11078">
                                          <g id="Group_11077" data-name="Group 11077">
                                            <g id="Group_11076" data-name="Group 11076">
                                              <path id="Path_10587" data-name="Path 10587" d="M326.031,218.618c-.722-.044-.743,4.779-4.879,8.193s-9.267,2.872-9.305,3.546c-.069.3,1.142.939,3.311,1a12,12,0,0,0,7.77-2.687,10.457,10.457,0,0,0,3.78-6.87C326.9,219.787,326.36,218.591,326.031,218.618Z" transform="translate(-311.843 -218.618)" fill="#263238"/>
                                            </g>
                                          </g>
                                        </g>
                                      </g>
                                    </g>
                                  </g>
                                </g>
                              </g>
                            </g>
                          </g>
                        </g>
                      </g>
                      <g id="Group_11095" data-name="Group 11095" transform="translate(50.005 48.542)">
                        <g id="Group_11094" data-name="Group 11094">
                          <g id="Group_11093" data-name="Group 11093">
                            <g id="Group_11092" data-name="Group 11092">
                              <g id="Group_11091" data-name="Group 11091">
                                <g id="Group_11090" data-name="Group 11090">
                                  <g id="Group_11089" data-name="Group 11089">
                                    <g id="Group_11088" data-name="Group 11088">
                                      <path id="Path_10588" data-name="Path 10588" d="M323.681,191.314c.436,1.208,4.874.646,10.084,1.285,5.226.536,9.425,2.071,10.119.988.31-.518-.421-1.656-2.117-2.828a17.661,17.661,0,0,0-15.391-1.733C324.459,189.793,323.495,190.74,323.681,191.314Z" transform="translate(-323.658 -188.002)" fill="#263238"/>
                                    </g>
                                  </g>
                                </g>
                              </g>
                            </g>
                          </g>
                        </g>
                      </g>
                      <g id="Group_11103" data-name="Group 11103" transform="translate(7.521 34.746)">
                        <g id="Group_11102" data-name="Group 11102">
                          <g id="Group_11101" data-name="Group 11101">
                            <g id="Group_11100" data-name="Group 11100">
                              <g id="Group_11099" data-name="Group 11099">
                                <g id="Group_11098" data-name="Group 11098">
                                  <g id="Group_11097" data-name="Group 11097">
                                    <g id="Group_11096" data-name="Group 11096">
                                      <path id="Path_10589" data-name="Path 10589" d="M293.594,182.788c.779,1.011,3.842-.03,7.522-.072,3.68-.169,6.8.693,7.516-.36.315-.512-.173-1.523-1.533-2.482a10.895,10.895,0,0,0-12.117.348C293.68,181.257,293.25,182.294,293.594,182.788Z" transform="translate(-293.48 -178.203)" fill="#263238"/>
                                    </g>
                                  </g>
                                </g>
                              </g>
                            </g>
                          </g>
                        </g>
                      </g>
                    </g>
                  </g>
                </g>
              </g>
              <g id="Group_11109" data-name="Group 11109" transform="translate(41.593 25.91)">
                <g id="Group_11108" data-name="Group 11108">
                  <path id="Path_10590" data-name="Path 10590" d="M388.63,278.667c-8.854,1.785-9.643-2.721-16.259-8.87a29.079,29.079,0,0,1-8.9-24.529c1-7.908,5.265-15.952,2.523-23.435-3.624-9.9-17.495-12.94-21.175-22.813-2.14-5.74-.22-12.452-2.644-18.076-2.281-5.289-7.844-8.336-13.26-10.292s-11.223-3.311-15.77-6.845-7.384-10.205-4.45-15.162a305.151,305.151,0,0,1,70.351,17.093c5.254,1.962,10.774,4.322,13.881,8.992,3.287,4.941,3.13,11.326,2.852,17.255q-2.023,43.363-4.046,86.725" transform="translate(-307.501 -148.644)" fill="#263238"/>
                </g>
              </g>
            </g>
            <g id="Group_11113" data-name="Group 11113" transform="translate(42.076 15.041)">
              <g id="Group_11112" data-name="Group 11112">
                <g id="Group_11111" data-name="Group 11111">
                  <path id="Path_10591" data-name="Path 10591" d="M409.006,271.011c.02.014.138-.121.352-.4a11.311,11.311,0,0,0,.888-1.287,17.12,17.12,0,0,0,2.122-5.63,19.8,19.8,0,0,0-.518-9.508,18.18,18.18,0,0,0-7.492-10.077c-3.819-2.693-8.793-4.57-11.953-8.855a9.662,9.662,0,0,1-1.748-7.56c.432-2.762,1.7-5.471,2.8-8.354a24.026,24.026,0,0,0-.414-19.222A21.058,21.058,0,0,0,386.51,192a25.511,25.511,0,0,0-9.874-4.094c-3.487-.8-6.966-1.257-10.194-2.231a19.886,19.886,0,0,1-8.537-4.668c-2.295-2.236-3.266-5.331-3.7-8.448a72.368,72.368,0,0,0-1.516-9.36A32.265,32.265,0,0,0,344,147.969a25.439,25.439,0,0,0-13.678-6.786,20.324,20.324,0,0,0-12.445,1.884,19.668,19.668,0,0,0-7.2,6.232,16.656,16.656,0,0,0-2.519,5.464,8.55,8.55,0,0,0-.313,2.071c.207.087.251-3.02,3.277-7.212a19.4,19.4,0,0,1,19.042-7.45,24.535,24.535,0,0,1,13.021,6.642,31.239,31.239,0,0,1,8.241,14.714,72.45,72.45,0,0,1,1.442,9.234c.418,3.187,1.489,6.719,4.05,9.218a21.169,21.169,0,0,0,9.12,5.046c3.383,1.021,6.871,1.48,10.285,2.262a24.207,24.207,0,0,1,9.355,3.849,19.7,19.7,0,0,1,6.11,7.567,22.738,22.738,0,0,1,.452,18.173c-1.063,2.835-2.357,5.618-2.811,8.63a10.88,10.88,0,0,0,2.029,8.438c3.512,4.618,8.633,6.417,12.339,8.99a17.422,17.422,0,0,1,7.3,9.488,19.6,19.6,0,0,1,.729,9.175C410.943,268.692,408.794,270.921,409.006,271.011Z" transform="translate(-307.844 -140.923)" fill="#455a64"/>
                </g>
              </g>
            </g>
          </g>
          <g id="Group_11120" data-name="Group 11120" transform="translate(82.99 135.441)">
            <g id="Group_11117" data-name="Group 11117">
              <g id="Group_11115" data-name="Group 11115" transform="translate(0.08)">
                <path id="Path_10592" data-name="Path 10592" d="M355.242,210.6a81.45,81.45,0,0,0-3.762,53.7c1.457,5.267,3.47,10.727,2.226,16.049-1.349,5.761-6.165,9.928-9.679,14.687a36.252,36.252,0,0,0,11.11,52.971c.931-5.295,5.856-8.9,10.715-11.206s10.225-4.009,13.93-7.9,4.753-11.036.446-14.252c12.393-3.238,19.418-17.959,16.809-30.5s-12.808-22.45-24.41-27.883" transform="translate(-336.963 -210.604)" fill="#263238"/>
              </g>
              <g id="Group_11116" data-name="Group 11116" transform="translate(0 95.362)">
                <path id="Path_10593" data-name="Path 10593" d="M368.48,308c-2.216,1.216-4.366,2.3-4.64,4.815-.321,2.949,2.507,8.124,3.522,10.912a15.158,15.158,0,0,1-19.812,19.288c3.966.3,7.33-3.566,7.684-7.529S353.666,327.7,351.3,324.5s-5.227-6.042-7.232-9.479c-4.081-6.994-10.142-26.022-5.476-36.679" transform="translate(-336.906 -278.343)" fill="#263238"/>
              </g>
            </g>
            <g id="Group_11119" data-name="Group 11119" transform="translate(36.291 21.65)">
              <g id="Group_11118" data-name="Group 11118">
                <path id="Path_10594" data-name="Path 10594" d="M369.235,308.862a5.124,5.124,0,0,1,.762-.643c.517-.4,1.264-1,2.209-1.788a49.21,49.21,0,0,0,7.237-7.485,37.609,37.609,0,0,0,6.859-13.679,30.824,30.824,0,0,0-.908-18.487,27.337,27.337,0,0,0-5.095-8.227c-2.071-2.383-4.329-4.46-6.446-6.477a66.511,66.511,0,0,1-5.778-6.014,25.819,25.819,0,0,1-3.787-6.228,16.45,16.45,0,0,1-1.242-10.346,10.962,10.962,0,0,1,1.053-2.668,5.155,5.155,0,0,1,.545-.836,18.46,18.46,0,0,0-1.319,3.567,16.526,16.526,0,0,0,1.439,10.076,25.705,25.705,0,0,0,3.781,6.049,67.566,67.566,0,0,0,5.772,5.908c2.126,2,4.409,4.078,6.524,6.5a27.853,27.853,0,0,1,5.236,8.433,31.222,31.222,0,0,1,.88,18.921,37.478,37.478,0,0,1-7.105,13.833,45.706,45.706,0,0,1-7.464,7.385c-.978.763-1.758,1.329-2.3,1.687A5.134,5.134,0,0,1,369.235,308.862Z" transform="translate(-362.685 -225.983)" fill="#455a64"/>
              </g>
            </g>
          </g>
        </g>
      </g>
    </g>
    <g id="Plant" transform="translate(57.786 502.361)">
      <g id="Group_11140" data-name="Group 11140">
        <g id="Group_11124" data-name="Group 11124" transform="translate(44.242)">
          <g id="Group_11123" data-name="Group 11123">
            <path id="Path_10595" data-name="Path 10595" d="M81.107,418.539c3.559,4.458,9.809,2.514,12.573-.518s3.748-7.236,4.633-11.243c2.022-9.153,4.036-18.749,1.536-27.784a15.357,15.357,0,0,0-3.994-7.275,8.017,8.017,0,0,0-7.744-2.047c-3.146,1.046-4.939,4.306-6.189,7.378a65.857,65.857,0,0,0-4.72,28.62c.269,4.546,1.105,9.277,3.905,12.869" transform="translate(-77.088 -369.349)" fill="#9f2721"/>
          </g>
        </g>
        <g id="Group_11128" data-name="Group 11128" transform="translate(56.268 68.608)">
          <g id="Group_11127" data-name="Group 11127">
            <path id="Path_10597" data-name="Path 10597" d="M91.346,421.515c5.168-3.091,11.434-3.846,17.424-3.238,3.22.325,6.6,1.07,8.918,3.327s2.994,6.441.635,8.654c-1.4,1.316-3.459,1.632-5.382,1.732-4.646.238-9.847-.255-13.38,2.771-2.015,1.727-3.256,4.464-5.737,5.407-2.427.922-5.312-.363-6.764-2.514a10.239,10.239,0,0,1-1.219-7.5A11.544,11.544,0,0,1,91.346,421.515Z" transform="translate(-85.63 -418.083)" fill="#b73730"/>
          </g>
        </g>
        <g id="Group_11130" data-name="Group 11130" transform="translate(0 18.156)">
          <g id="Group_11129" data-name="Group 11129">
            <path id="Path_10598" data-name="Path 10598" d="M85.375,420.535c3.282-4.43,3.569-10.61,1.658-15.784s-5.756-9.434-10.1-12.836a49.894,49.894,0,0,0-17.179-8.731,17.707,17.707,0,0,0-7.529-.8,7.833,7.833,0,0,0-6.014,4.176c-1.534,3.435.391,7.363,2.406,10.539a126.407,126.407,0,0,0,11.923,15.884c3.525,4,7.522,7.91,12.611,9.5s10.239,1.039,12.656-2.573" transform="translate(-45.661 -382.246)" fill="#b73730"/>
          </g>
        </g>
        <g id="Group_11133" data-name="Group 11133" transform="translate(52.201 75.164)">
          <g id="Group_11132" data-name="Group 11132">
            <g id="Group_11131" data-name="Group 11131">
              <path id="Path_10599" data-name="Path 10599" d="M83.008,467.14A10.281,10.281,0,0,0,83.17,465c.054-1.551.12-3.5.2-5.818a84.018,84.018,0,0,1,.767-8.568,65.569,65.569,0,0,1,2.454-10.206,37,37,0,0,1,4.543-9.383,19.137,19.137,0,0,1,6.127-5.78,18.117,18.117,0,0,1,5.337-2.038,10.194,10.194,0,0,0,2.092-.438,9.957,9.957,0,0,0-2.15.1,16.552,16.552,0,0,0-5.585,1.834,19.106,19.106,0,0,0-6.477,5.851,36.134,36.134,0,0,0-4.719,9.577,61.326,61.326,0,0,0-2.421,10.37,72.042,72.042,0,0,0-.587,8.662c-.03,2.468.027,4.461.08,5.838A9.838,9.838,0,0,0,83.008,467.14Z" transform="translate(-82.741 -422.741)" fill="#263238"/>
            </g>
          </g>
        </g>
        <g id="Group_11136" data-name="Group 11136" transform="translate(50.846 18.795)">
          <g id="Group_11135" data-name="Group 11135">
            <g id="Group_11134" data-name="Group 11134">
              <path id="Path_10600" data-name="Path 10600" d="M83.519,478.993a4.181,4.181,0,0,0-.006-.988c-.048-.738-.108-1.67-.183-2.811-.16-2.44-.382-5.972-.527-10.342-.332-8.737-.339-20.824.279-34.15s1.815-25.363,3.042-34.018c.283-2.168.581-4.122.871-5.834.27-1.715.5-3.194.738-4.392.2-1.128.358-2.047.486-2.776a4.209,4.209,0,0,0,.111-.981,4.079,4.079,0,0,0-.284.945c-.17.721-.384,1.63-.648,2.745-.287,1.192-.567,2.665-.886,4.375-.336,1.709-.679,3.66-1,5.828a319.733,319.733,0,0,0-3.305,34.066c-.619,13.354-.514,25.471-.021,34.221.222,4.375.539,7.909.8,10.343.142,1.139.258,2.065.349,2.8A4.2,4.2,0,0,0,83.519,478.993Z" transform="translate(-81.779 -382.7)" fill="#263238"/>
            </g>
          </g>
        </g>
        <g id="Group_11139" data-name="Group 11139" transform="translate(15.92 28.555)">
          <g id="Group_11138" data-name="Group 11138">
            <g id="Group_11137" data-name="Group 11137">
              <path id="Path_10601" data-name="Path 10601" d="M92.228,452.871a18.708,18.708,0,0,0-.206-2.937c-.227-1.882-.657-4.594-1.4-7.9A105.189,105.189,0,0,0,87.3,430.6a102.954,102.954,0,0,0-5.711-13.416A73.224,73.224,0,0,0,65.955,395.9,36.317,36.317,0,0,0,62.41,393c-.542-.4-1.023-.807-1.508-1.121l-1.357-.815a18.852,18.852,0,0,0-2.572-1.427c-.128.2,3.65,2.116,8.562,6.722a77.207,77.207,0,0,1,15.276,21.221,110.052,110.052,0,0,1,5.733,13.288,118.137,118.137,0,0,1,3.476,11.309c.815,3.27,1.336,5.949,1.667,7.806A19.068,19.068,0,0,0,92.228,452.871Z" transform="translate(-56.97 -389.632)" fill="#263238"/>
            </g>
          </g>
        </g>
      </g>
    </g>
    <g id="Confetti" transform="translate(32.292 73.263)">
      <g id="Group_11142" data-name="Group 11142" transform="translate(276.911 190.468)">
        <g id="Group_11141" data-name="Group 11141" transform="translate(0)">
          <path id="Path_10602" data-name="Path 10602" d="M238.8,208.172c-2.6-9.2-14.551-8.306-14.551-8.306l.328,6.4c6.911-1.191,11.206,6.908,11.206,6.908Z" transform="translate(-224.251 -199.842)" fill="#e8505b"/>
        </g>
      </g>
      <g id="Group_11144" data-name="Group 11144" transform="translate(166.615 91.786)">
        <g id="Group_11143" data-name="Group 11143">
          <path id="Path_10603" data-name="Path 10603" d="M153.129,129.745c-6.453.684-7.225,8.787-7.225,8.787l4.319.512c-.007-4.761,5.9-6.708,5.9-6.708Z" transform="translate(-145.904 -129.745)" fill="#e8505b"/>
        </g>
      </g>
      <g id="Group_11146" data-name="Group 11146" transform="translate(233.93)">
        <g id="Group_11145" data-name="Group 11145">
          <path id="Path_10604" data-name="Path 10604" d="M193.72,70.49c3.936,10.03,17.248,7.7,17.248,7.7l-1.08-7.14c-7.62,2.107-13.34-6.5-13.34-6.5Z" transform="translate(-193.72 -64.546)" fill="#e8505b"/>
        </g>
      </g>
      <g id="Group_11148" data-name="Group 11148" transform="translate(76.586 175.389)">
        <g id="Group_11147" data-name="Group 11147">
          <path id="Path_10605" data-name="Path 10605" d="M89.178,189.131c-6.453.686-7.225,8.787-7.225,8.787l4.319.512c-.007-4.761,5.906-6.708,5.906-6.708Z" transform="translate(-81.953 -189.131)" fill="#e8505b"/>
        </g>
      </g>
      <g id="Group_11150" data-name="Group 11150" transform="translate(102.112 28.816)">
        <g id="Group_11149" data-name="Group 11149">
          <path id="Path_10606" data-name="Path 10606" d="M108.373,94.194c.938-6.422-6.719-9.179-6.719-9.179l-1.568,4.056c4.613,1.175,5.033,7.385,5.033,7.385Z" transform="translate(-100.085 -85.015)" fill="#e8505b"/>
        </g>
      </g>
      <g id="Group_11152" data-name="Group 11152" transform="translate(0 132.324)">
        <g id="Group_11151" data-name="Group 11151" transform="translate(0 0)">
          <path id="Path_10607" data-name="Path 10607" d="M27.623,162.77C26.464,172.84,39.8,175.277,39.8,175.277l2.407-6.588c-8-.722-9.158-10.149-9.158-10.149Z" transform="translate(-27.551 -158.54)" fill="#e8505b"/>
        </g>
      </g>
      <g id="Group_11154" data-name="Group 11154" transform="translate(314.533 79.26)">
        <g id="Group_11153" data-name="Group 11153" transform="translate(0)">
          <path id="Path_10608" data-name="Path 10608" d="M253.515,129.554c6.48.369,8.552-7.5,8.552-7.5l-4.178-1.206c-.764,4.7-6.914,5.664-6.914,5.664Z" transform="translate(-250.975 -120.847)" fill="#e8505b"/>
        </g>
      </g>
    </g>
  </g>
</svg>
