<svg xmlns="http://www.w3.org/2000/svg" xmlns:xlink="http://www.w3.org/1999/xlink" width="224.715" height="376.903" viewBox="0 0 224.715 376.903">
  <defs>
    <style>
      .cls-1, .cls-33 {
        fill: #965e60;
      }

      .cls-2, .cls-33, .cls-8 {
        opacity: 0.5;
      }

      .cls-2, .cls-30, .cls-31, .cls-32, .cls-33, .cls-7, .cls-9 {
        mix-blend-mode: multiply;
      }

      .cls-2, .cls-30, .cls-31, .cls-32, .cls-33, .cls-7, .cls-8, .cls-9 {
        isolation: isolate;
      }

      .cls-3 {
        fill: url(#linear-gradient);
      }

      .cls-4, .cls-8 {
        fill: #b2463d;
      }

      .cls-5 {
        fill: #483232;
      }

      .cls-6 {
        fill: url(#linear-gradient-2);
      }

      .cls-7 {
        opacity: 0.4;
      }

      .cls-8 {
        mix-blend-mode: screen;
      }

      .cls-9 {
        opacity: 0.3;
      }

      .cls-10 {
        fill: #646e62;
      }

      .cls-11 {
        fill: url(#linear-gradient-3);
      }

      .cls-12 {
        fill: url(#linear-gradient-4);
      }

      .cls-13 {
        fill: url(#linear-gradient-5);
      }

      .cls-14 {
        fill: #8a9387;
      }

      .cls-15, .cls-31 {
        fill: #002949;
      }

      .cls-16 {
        fill: url(#linear-gradient-6);
      }

      .cls-17 {
        fill: url(#linear-gradient-7);
      }

      .cls-18 {
        fill: url(#linear-gradient-8);
      }

      .cls-19 {
        fill: url(#linear-gradient-9);
      }

      .cls-20 {
        fill: url(#linear-gradient-10);
      }

      .cls-21 {
        fill: url(#linear-gradient-11);
      }

      .cls-22 {
        fill: url(#linear-gradient-12);
      }

      .cls-23 {
        fill: url(#linear-gradient-13);
      }

      .cls-24 {
        fill: url(#linear-gradient-14);
      }

      .cls-25 {
        fill: #ed8a80;
      }

      .cls-26 {
        fill: #f4635b;
      }

      .cls-27 {
        fill: #fff;
      }

      .cls-28 {
        fill: #632e24;
      }

      .cls-29 {
        fill: #e0876c;
      }

      .cls-30 {
        opacity: 0.43;
      }

      .cls-31 {
        opacity: 0.22;
      }

      .cls-32 {
        opacity: 0.7;
      }
    </style>
    <linearGradient id="linear-gradient" x1="38.785" y1="-0.122" x2="38.706" y2="0.607" gradientUnits="objectBoundingBox">
      <stop offset="0.015" stop-color="#fec8c0"/>
      <stop offset="0.98" stop-color="#fdaea3"/>
    </linearGradient>
    <linearGradient id="linear-gradient-2" x1="137.026" y1="0.017" x2="136.751" y2="0.515" xlink:href="#linear-gradient"/>
    <linearGradient id="linear-gradient-3" x1="32335.063" y1="0.5" x2="33875.965" y2="0.5" gradientUnits="objectBoundingBox">
      <stop offset="0.01" stop-color="#1423a4"/>
      <stop offset="0.995" stop-color="#0618a4"/>
    </linearGradient>
    <linearGradient id="linear-gradient-4" x1="1293.24" y1="0.5" x2="1348.26" y2="0.5" gradientUnits="objectBoundingBox">
      <stop offset="0.035" stop-color="#5862e3"/>
      <stop offset="0.995" stop-color="#4859e3"/>
    </linearGradient>
    <linearGradient id="linear-gradient-5" x1="21.875" y1="0.5" x2="22.875" y2="0.5" xlink:href="#linear-gradient"/>
    <linearGradient id="linear-gradient-6" x1="491.179" y1="0.084" x2="490.839" y2="0.529" xlink:href="#linear-gradient"/>
    <linearGradient id="linear-gradient-7" x1="184.542" y1="-0.054" x2="184.479" y2="0.427" xlink:href="#linear-gradient"/>
    <linearGradient id="linear-gradient-8" x1="165.647" y1="0.002" x2="165.593" y2="0.529" xlink:href="#linear-gradient"/>
    <linearGradient id="linear-gradient-9" x1="162.583" y1="-0.071" x2="162.51" y2="0.622" xlink:href="#linear-gradient"/>
    <linearGradient id="linear-gradient-10" x1="162.317" y1="-0.032" x2="162.242" y2="0.613" xlink:href="#linear-gradient"/>
    <linearGradient id="linear-gradient-11" x1="187.92" y1="0.013" x2="187.709" y2="0.526" xlink:href="#linear-gradient"/>
    <linearGradient id="linear-gradient-12" x1="167.555" y1="0.031" x2="167.355" y2="0.552" xlink:href="#linear-gradient"/>
    <linearGradient id="linear-gradient-13" x1="170.917" y1="0.036" x2="170.713" y2="0.558" xlink:href="#linear-gradient"/>
    <linearGradient id="linear-gradient-14" x1="70.286" y1="-0.039" x2="70.099" y2="0.494" xlink:href="#linear-gradient"/>
  </defs>
  <g id="Group_659" data-name="Group 659" transform="translate(-40.885 -205.365)">
    <g id="Group_639" data-name="Group 639" transform="translate(212.719 384.578)">
      <path id="Path_1131" data-name="Path 1131" class="cls-1" d="M134.017,302.226c4.721,2.646,8.474,8.458,8.474,8.458a3.1,3.1,0,0,1,1.668-1.6,10.733,10.733,0,0,1,2.284-.8l.028-.018s-2.837-5.7-5.315-7.627-9.735-5-12.211-4.43a1.129,1.129,0,0,0-.677.395C127,298.348,129.3,299.586,134.017,302.226Z" transform="translate(-127.916 -296.137)"/>
      <image id="Rectangle_428" data-name="Rectangle 428" class="cls-2" width="16.584" height="14.689" transform="translate(0 0.045)" xlink:href="Group%20659-image.png"/>
    </g>
    <g id="Group_640" data-name="Group 640" transform="translate(196.135 378.11)">
      <path id="Path_1132" data-name="Path 1132" class="cls-3" d="M119.524,300.121a41.107,41.107,0,0,0,6.944,2.3,11.321,11.321,0,0,0,5.07-.148c2.357-.531,4.314-1.566,4.687-2.233.65-1.125,2.663.571,2.663.571,2.1,1.7,6.14,2.257,6.14,1.453s-4.116-3.872-6.7-6.462-4.521-1.21-5.641-.644c-1.137.571-7.35-1.453-9.611-2.093a9.235,9.235,0,0,1-1.131,2.014,12.188,12.188,0,0,0-.843,1.548C120.31,298.079,119.524,300.121,119.524,300.121Z" transform="translate(-119.516 -292.861)"/>
      <image id="Rectangle_429" data-name="Rectangle 429" class="cls-2" width="12.32" height="6.634" transform="translate(0 3.196)" xlink:href="Group%20659-image2.png"/>
    </g>
    <path id="Path_1133" data-name="Path 1133" class="cls-4" d="M59.95,342.889c3.42,5.433,13.567,20.89,23.388,33.632,1.374,1.793,2.748,3.534,4.093,5.179,5.048,6.18,10.991,13.019,16.379,19.068,6.721,7.566,12.551,13.868,14.63,16.112.533.571.825.894.825.894a19.32,19.32,0,0,0,2.314-3.992,15.378,15.378,0,0,0,1.323-5.692c.118-5.327-4.839-27.956-8.357-32.316a6.505,6.505,0,0,0-3.341-2.351,6.105,6.105,0,0,0-4.4.531l-14.32-27.018a102.361,102.361,0,0,1-11.177-.113,97.1,97.1,0,0,1-10.865-1.311c-.424-.079-.849-.154-1.279-.243A85.194,85.194,0,0,1,59.95,342.889Z" transform="translate(18.575 133.992)"/>
    <image id="Rectangle_430" data-name="Rectangle 430" class="cls-2" width="62.072" height="75.34" transform="translate(78.15 476.547)" xlink:href="Group%20659-image3.png"/>
    <path id="Path_1134" data-name="Path 1134" class="cls-5" d="M40.885,373.678c4.89,3.777,21.133,13.479,37.64,18.691a85.2,85.2,0,0,0,9.208,2.381A97.569,97.569,0,0,0,99.877,396.3a102.361,102.361,0,0,0,11.177.113,93.5,93.5,0,0,0,27.984-5.546,81.139,81.139,0,0,0,7.645-3.268,97.978,97.978,0,0,0,11.086-6.438,110.248,110.248,0,0,0,19.058-16.073c-13.443-7.508-25.915-42.852-30.872-53.99S133.482,298.03,130.2,297.607c-1.577,2.458-4.172,4.211-8.871,5.1h-.01a37.545,37.545,0,0,1-5.084.573c-.107,0-.219,0-.34.016-.831.051-1.7.067-2.622.079-13.433.1-30.862-6.071-32.44-11.273,0,0-16.7,25.781-25.05,42.967-.225.452-.446.91-.65,1.374-.9,1.9-1.769,3.838-2.624,5.783A335.041,335.041,0,0,0,40.885,373.678Z" transform="translate(0 84.513)"/>
    <image id="Rectangle_431" data-name="Rectangle 431" class="cls-2" width="55.913" height="84.343" transform="translate(121.269 381.78)" xlink:href="Group%20659-image4.png"/>
    <image id="Rectangle_432" data-name="Rectangle 432" class="cls-2" width="67.285" height="64.442" transform="translate(52.089 376.568)" xlink:href="Group%20659-image5.png"/>
    <g id="Group_641" data-name="Group 641" transform="translate(56.208 282.204)">
      <path id="Path_1135" data-name="Path 1135" class="cls-6" d="M49.611,257.23a21.993,21.993,0,0,0,1.621,2.7c1.137,1.6,2.681,3.177,4,2.381.434-.259,3.759-7.261,2.419-10.049a16.846,16.846,0,0,1-1.645-.7c-2.334-1.1-6.383-3.524-7.072-7.281a5.63,5.63,0,0,0,.971,5.327C51.963,252.391,51.55,254.935,49.611,257.23Z" transform="translate(-48.646 -244.284)"/>
      <image id="Rectangle_433" data-name="Rectangle 433" class="cls-2" width="7.108" height="11.372" transform="translate(2.515 7.179)" xlink:href="Group%20659-image6.png"/>
    </g>
    <path id="Path_1136" data-name="Path 1136" class="cls-4" d="M50.531,300.228c13.248,9.982,24.825,3.514,27.076,2.079q.261-.169.344-.237l.051-.034a1.044,1.044,0,0,1,.282.389c.4.707,1.119,2.663,1.781,7.972.967,7.745,0,21.911,0,21.911,1.577,5.2,19.007,11.37,32.44,11.273.632,0,1.238-.022,1.832-.039.328-.012.655-.028.977-.051a35.3,35.3,0,0,0,6.648-.887c3.828-.961,6.045-2.6,7.469-4.794a14.444,14.444,0,0,0,1.714-4.01c1.2-4.263,2.946-10.77,3.866-14.2.379-1.414.612-2.306.612-2.306.079.271.152.543.237.8,3.052,9.307,13.919,16.64,30.517,21.342a66.092,66.092,0,0,0,23.609,2.466c.367-.04.717-.081,1.044-.115a30.493,30.493,0,0,0,4.347-.734l1.119-2.284,2.432-4.975a39.53,39.53,0,0,1-3.67-1.481c-.3-.124-.588-.267-.881-.407-13.123-6.3-27.267-19.941-35.392-28.172-9.074-9.2-11.747-21.554-16.106-25.429a16.125,16.125,0,0,0-5.913-3.04,43.788,43.788,0,0,0-12.669-1.731l-14.337-8.513c-3.99-4.8-8.486-4.764-12.736-3.244a48.12,48.12,0,0,0-7.35,3.71c-5.528,3.157-21.459,11.881-23.6,13.062-.158.077-.243.126-.243.126.5-3.147-1.22-11.5-1.945-15.009-.051-.245-.1-.484-.164-.736-.073-.357-.158-.726-.243-1.094-.73-3-1.656-5.919-1.656-5.919a12.174,12.174,0,0,0-1.951-2.079c-1.662-1.5-3.668-3-3.668-3s-1.386,1.986-3.167,4.659c-.182.261-.367.533-.549.813a123.868,123.868,0,0,0-7,11.445c-.407.843-.965,2.053-1.548,3.526C41.408,278.209,38.354,291.048,50.531,300.228Z" transform="translate(0.766 44.308)"/>
    <image id="Rectangle_434" data-name="Rectangle 434" class="cls-7" width="6.634" height="29.378" transform="translate(60.618 297.912)" xlink:href="Group%20659-image7.png"/>
    <image id="Rectangle_435" data-name="Rectangle 435" class="cls-7" width="38.381" height="34.59" transform="translate(42.139 315.443)" xlink:href="Group%20659-image8.png"/>
    <image id="Rectangle_436" data-name="Rectangle 436" class="cls-7" width="40.276" height="17.058" transform="translate(97.577 305.019)" xlink:href="Group%20659-image9.png"/>
    <g id="Group_645" data-name="Group 645" transform="translate(101.034 205.364)">
      <path id="Path_1137" data-name="Path 1137" class="cls-4" d="M71.483,234.27c1.21,6.653,11.125,9.919,14.88,7.137.073-.057.17-.115.243-.174a12.046,12.046,0,0,1-.243-1.763c.118-.464,1.232-1.044,3.24-4.484.089-.154.18-.318.276-.484.419-.736.707-1.345.965-1.87.13-.259.255-.5.379-.734.961-1.7,2.211-2.577,8.95-5.26a14.71,14.71,0,0,1,5.3-1.035,19.252,19.252,0,0,1,7.814,1.674c.265.107.513.223.756.34,3.031,1.433,4.963,3.157,4.823,3.378a1.735,1.735,0,0,0-.069.438c-.028.417-.049,1.112-.055,1.974-.012,1.512,0,3.534.016,5.5,2.511,1.153,4.263.144,5.745-2.7a3.624,3.624,0,0,1,1.141-1.425c1.289-.843,2.567.446,4.065-1.248,1.939-2.17,5.331-11.737,2.657-17.664-2.657-5.935-8.349-8.6-11.625-7.747s-7.743,1.453-10.039-.736c-2.3-2.168-10.527-3.988-16.1,2.306s-9.317,10.827-13.076,12.675a30.5,30.5,0,0,0-7.062,4.31C72.366,228.566,70.889,231.036,71.483,234.27Z" transform="translate(-71.351 -205.364)"/>
      <g id="Group_642" data-name="Group 642" transform="translate(41.889 11.389)">
        <path id="Path_1138" data-name="Path 1138" class="cls-8" d="M92.614,221.658c.265.107.513.223.756.34-.164-2.624-.174-7.621,1.714-10.294a.36.36,0,1,0-.588-.417C92.55,214.039,92.471,218.87,92.614,221.658Z" transform="translate(-92.568 -211.133)"/>
      </g>
      <g id="Group_643" data-name="Group 643" transform="translate(47.39 21.071)">
        <path id="Path_1139" data-name="Path 1139" class="cls-8" d="M95.354,223.01a.3.3,0,0,0,.18-.2c1.425-4.64,4.513-6.061,4.547-6.073a.373.373,0,0,0,.18-.484.369.369,0,0,0-.48-.184,9.8,9.8,0,0,0-4.371,4.969C95.382,221.453,95.36,222.148,95.354,223.01Z" transform="translate(-95.354 -216.037)"/>
      </g>
      <g id="Group_644" data-name="Group 644" transform="translate(14.646 21.073)">
        <path id="Path_1140" data-name="Path 1140" class="cls-8" d="M78.769,216.4a.367.367,0,0,0,.367.361c1.232,0,2.7,2.488,3.662,4.134.334.561.594,1.007.819,1.335.13-.259.255-.5.379-.734-.18-.31-.383-.65-.565-.969-1.187-2-2.657-4.492-4.3-4.492A.365.365,0,0,0,78.769,216.4Z" transform="translate(-78.769 -216.038)"/>
      </g>
    </g>
    <image id="Rectangle_437" data-name="Rectangle 437" class="cls-9" width="18.48" height="16.11" transform="translate(100.894 226.362)" xlink:href="Group%20659-image10.png"/>
    <image id="Rectangle_438" data-name="Rectangle 438" class="cls-9" width="20.849" height="16.584" transform="translate(135.01 223.046)" xlink:href="Group%20659-image11.png"/>
    <g id="Group_647" data-name="Group 647" transform="translate(41.62 254.752)">
      <g id="Group_646" data-name="Group 646" transform="translate(11.765 16.66)">
        <path id="Path_1141" data-name="Path 1141" class="cls-10" d="M60.3,264.869a1.449,1.449,0,0,0,1.291-2.1L49.958,239.616a1.448,1.448,0,1,0-2.586,1.3L59,264.072A1.448,1.448,0,0,0,60.3,264.869Z" transform="translate(-47.217 -238.818)"/>
      </g>
      <path id="Path_1142" data-name="Path 1142" class="cls-10" d="M56.018,259.2a1.661,1.661,0,0,0,2.255.592h0a1.661,1.661,0,0,0,1-2.112l-3.3-7.064a1.662,1.662,0,0,0-2.257-.594h0a1.663,1.663,0,0,0-1,2.111Z" transform="translate(-30.205 -211.438)"/>
      <path id="Path_1143" data-name="Path 1143" class="cls-10" d="M42,240.053c1.335,3.475,6.14,10.942,8.282,11.042s6.954-3.577,7.706-4.906.164-3.169-1.262-6.954-3.311-8.02-5.319-8.79c-.938-.363-4.29.815-7.36,2.452S40.674,236.578,42,240.053ZM52.536,238.3c-1.228-2.746-2.144-5.712-1.635-6.12.967-.778,6.744,11.554,5.931,12.369S53.762,241.05,52.536,238.3Zm-2.748,2.977c-2.13-3.066-2.509-6.622-1.854-6.952.819-.409,1.538,2.762,3.177,5.826s3.98,6.849,3.358,7.26S51.92,244.349,49.788,241.281Zm-5.433-4.509c.209-.472,1.945,3.281,3.285,5.793s3.771,5.157,3.465,5.668-2.148-.511-4.4-3.579S43.947,237.705,44.354,236.771Z" transform="translate(-41.258 -230.38)"/>
    </g>
    <path id="Path_1144" data-name="Path 1144" class="cls-11" d="M135.334,304.112l.01.006.018.034A.463.463,0,0,1,135.334,304.112Z" transform="translate(92.023 96.211)"/>
    <path id="Path_1145" data-name="Path 1145" class="cls-12" d="M135.348,304.132c.2.3.44.725.695,1.2A4.5,4.5,0,0,1,135.348,304.132Z" transform="translate(92.037 96.231)"/>
    <path id="Path_1146" data-name="Path 1146" class="cls-1" d="M135.414,306.173c0,.016.006.028.006.039a12.369,12.369,0,0,1,.7,1.2c.057.079.124.158.193.243,2.188,2.578,7.71,5.727,15.6,7.366.095.024.18.04.276.063,7.806,1.605,14.953,2.091,18.7.8a6.1,6.1,0,0,0,.713-.288,3.182,3.182,0,0,0,1.978-2.142c.786-3.7-6.875-7.66-15.812-9.8-.729-.188-1.475-.34-2.215-.5-7.254-1.459-12.817-1.414-16.27-.588-2.251.531-3.613,1.4-3.953,2.4A1.861,1.861,0,0,0,135.414,306.173Z" transform="translate(91.959 94.15)"/>
    <path id="Path_1147" data-name="Path 1147" class="cls-1" d="M135.7,304.739c1.51,2.861,3.692,8.185,3.692,8.185a51.094,51.094,0,0,0,10.821,4.432c9.6,2.636,15.806.922,15.806.922.61-1.2,4.823-5.19,5.19-5.354h-.024c-3.532,1.662-11.25,1.189-19.69-.577-1.262-.259-2.454-.559-3.585-.886C141.716,309.657,137.426,306.954,135.7,304.739Z" transform="translate(92.38 96.822)"/>
    <path id="Path_1148" data-name="Path 1148" class="cls-13" d="M72.771,256.445c.638,2.421,8.067,6.294,8.067,6.294A25.459,25.459,0,0,0,84.246,270c.193.3.409.61.612.91a36.154,36.154,0,0,0,8.734,9.414,20.321,20.321,0,0,0,4.766,2.458c.5.193,1,.359,1.52.5a19.149,19.149,0,0,0,16.953-2.961c7.26-5.483,8.233-13.394,6.916-18.235s-.786-10-.136-14.845c.067-.573.124-1.086.152-1.57a3.592,3.592,0,0,1-.916-1.131c-1.939-3.643-5.692-11.137-15.382-10.42-9.68.736-12.829,3.757-14.156,7.262a30.551,30.551,0,0,1-5.858,9.568,10.811,10.811,0,0,1-5.354,3.273,7.3,7.3,0,0,1-3.437-.1,17.891,17.891,0,0,1-5.8-2.723A8.449,8.449,0,0,0,72.771,256.445Z" transform="translate(30.737 27.976)"/>
    <path id="Path_1149" data-name="Path 1149" class="cls-4" d="M78.957,229.482a12.047,12.047,0,0,0,.243,1.763c.322,1.8.871,4.5,1.165,5.86a11.722,11.722,0,0,1,6.592-2.78c.644-.069,1.248-.107,1.83-.124,6.971-.255,10.278,2.419,10.278,2.419s6.168-2.294,10.284-2.294a14.081,14.081,0,0,1,2.085.164c-.022-1.26-.055-3.37-.085-5.568a77.875,77.875,0,0,1,.109-7.913c.31-.482-9.256-8.112-18.691-4.357-2.312.92-3.98,1.627-5.206,2.229-3.8,1.86-3.437,2.711-5.088,5.635C80.3,228.388,79.087,229,78.957,229.482Z" transform="translate(37.09 9.988)"/>
    <path id="Path_1150" data-name="Path 1150" class="cls-14" d="M90.038,404.083c.434.113,2.069-2.454,3.968-5.767,3.325-5.765,7.457-13.816,7.457-13.816-.543-2.776-4.168-6.648-7.072-8.586a15.372,15.372,0,0,1-1.607,6.292,18.021,18.021,0,0,1-2.03,3.392s-.292-.324-.825-.894C89.049,390.03,88.861,403.762,90.038,404.083Z" transform="translate(47.085 166.169)"/>
    <path id="Path_1151" data-name="Path 1151" class="cls-14" d="M72.89,394.6a51.571,51.571,0,0,0,6.766,5.3c5.949,4.026,12.76,7.621,13.694,7.53,1.329-.124,2.782-.61.841-5.2A45.846,45.846,0,0,0,90,394.512a20.145,20.145,0,0,0-5.71-6.022c-.148.543-.233.861-.261.9-.186.282-3.167.282-6.071-1.335A10.714,10.714,0,0,1,75.311,386a8.9,8.9,0,0,1-.922-1.194C73.082,387.864,72.89,394.6,72.89,394.6Z" transform="translate(31.183 174.836)"/>
    <path id="Path_1152" data-name="Path 1152" class="cls-4" d="M76.914,426.394a8.9,8.9,0,0,0,.922,1.194,1.646,1.646,0,0,1,.14.146c3.392,3.495,8.334,3.6,8.576,3.24.028-.039.113-.357.261-.9,1-3.844,4.636-18.989,6.914-28.566.344-1.463.667-2.8.926-3.939.922-3.828,3.574-13.321,6.468-23.405,1.481-5.173,3.025-10.509,4.42-15.321,2.381-8.221,4.338-14.92,4.839-16.712a92.239,92.239,0,0,1-24.2,5.293c-1.256.107-2.527.2-3.783.253a102.369,102.369,0,0,1-11.177-.113l.243,3.55,1.793,26.148.576,8.57s-3.019,2.9-3.5,13.558C69.886,409.1,73.669,421.521,76.914,426.394Z" transform="translate(28.657 133.253)"/>
    <path id="Path_1153" data-name="Path 1153" class="cls-15" d="M72,257.147a14.519,14.519,0,0,0,3.177,3.088,17.891,17.891,0,0,0,5.8,2.723,7.3,7.3,0,0,0,3.437.1c6-1.287,10.081-9.868,11.212-12.841,1.327-3.5,4.476-6.525,14.156-7.262,9.69-.717,13.443,6.778,15.382,10.42a3.592,3.592,0,0,0,.916,1.131c2.3,1.86,6.3-.29,7.672-3.437a20.008,20.008,0,0,0,1.2-3.795,19.172,19.172,0,0,0-1.2-12.067c-2.46-5.337-8.328-9.064-13.648-9.877a14.081,14.081,0,0,0-2.085-.164c-4.116,0-10.284,2.294-10.284,2.294s-3.872-3.137-12.108-2.294a11.722,11.722,0,0,0-6.592,2.78c-3.495,2.971-5.394,7.785-7.333,12.229a9.726,9.726,0,0,1-1.131,1.984c-2.928,3.836-6.981,1.356-9.633,6.247C69.379,251.24,69.991,254.426,72,257.147Z" transform="translate(28.423 19.15)"/>
    <path id="Path_1154" data-name="Path 1154" class="cls-16" d="M53.445,249.52c-1.493-.63-.48-7.625,1.153-6.9S54.6,250.006,53.445,249.52Z" transform="translate(11.528 36.249)"/>
    <path id="Path_1155" data-name="Path 1155" class="cls-17" d="M49.149,246.4c-.7-1.194-.379-2.91,1.866-2.969s4.657.549,4.715,1.485-2.109.693-3.506,1.115S49.471,246.944,49.149,246.4Z" transform="translate(7.73 37.08)"/>
    <path id="Path_1156" data-name="Path 1156" class="cls-18" d="M53.551,244.607c1.933.114,3.143.582,3.267,1.489s-2.12.486-3.51.969-3.692.545-4.122-.424S50.888,244.447,53.551,244.607Z" transform="translate(8.036 38.221)"/>
    <path id="Path_1157" data-name="Path 1157" class="cls-19" d="M53.873,245.746c2.387.338,3.273.618,3.868,1.889s-1.035,1.027-2.612.6-3.465.507-4.748-.774S51.889,245.464,53.873,245.746Z" transform="translate(8.935 39.285)"/>
    <path id="Path_1158" data-name="Path 1158" class="cls-20" d="M55.312,247.018c1.692.77,3.269,1.633,2.782,2.541s-3.747-.122-5.264-.3-2.719-1.2-2.419-1.656A5.639,5.639,0,0,1,55.312,247.018Z" transform="translate(9.237 40.266)"/>
    <path id="Path_1159" data-name="Path 1159" class="cls-21" d="M126.641,295.356c1.266-.328,2.657,1.562,3.872,3.579s.482,3.793-.486,3.951-2.458-1.876-3-3.522S125.188,295.73,126.641,295.356Z" transform="translate(82.902 87.644)"/>
    <path id="Path_1160" data-name="Path 1160" class="cls-22" d="M125.475,295.341c1.639-.146,2.46,2.053,3.449,4.008s1.508,4.174,0,3.931-2.081-1.414-3.449-3.048S123.049,295.551,125.475,295.341Z" transform="translate(81.003 87.659)"/>
    <path id="Path_1161" data-name="Path 1161" class="cls-23" d="M123.588,295.336c1.662-.446,2.142,3.279,3.471,4.93s1.933,4.257-.894,2.318S120.839,296.076,123.588,295.336Z" transform="translate(79.42 87.625)"/>
    <path id="Path_1162" data-name="Path 1162" class="cls-24" d="M78,257.561c2.039,1.986,5.092,5.074,7.512,7.864v.008c.8.94,1.532,1.84,2.132,2.655,1.418,1.925,1.576,3.37,1.362,4.357.055.233.091.367.091.367a77.2,77.2,0,0,1,5.376-7.242l-.012-.012a20.575,20.575,0,0,1-5.609-2.517c-.231-.136-.458-.29-.677-.444a37.169,37.169,0,0,1-9.346-10.324Z" transform="translate(36.158 45.705)"/>
    <path id="Path_1163" data-name="Path 1163" class="cls-14" d="M48.1,336.446c1.566,4.63,6.032,11.368,18.679,14.681,20.335,5.325,41.32-1.605,41.472-2.255s-.316-2.584,0-11.455c.091-2.4.164-5.506.237-8.932q.036-1.833.063-3.765c.13-7.317.215-15.463.31-21.421-.831.051-1.7.067-2.622.079-13.433.1-30.862-6.071-32.44-11.273,0,0-9.277,14.316-17.463,28.72-.944,1.668-1.878,3.329-2.77,4.981-1.769,3.222-3.4,6.371-4.817,9.266C48.525,335.524,48.3,335.982,48.1,336.446Z" transform="translate(7.031 84.513)"/>
    <g id="Group_648" data-name="Group 648" transform="translate(135.616 339.128)">
      <path id="Path_1164" data-name="Path 1164" class="cls-14" d="M89.027,297.9c.379-1.414.612-2.306.612-2.306.079.271.152.543.237.8-.464-8.411,2.916-18.253,4.517-22.369.055-.144.095-.239.107-.271a.486.486,0,1,0-.922-.308c-.01.028-.039.1-.085.231C91.787,278.089,88.05,288.993,89.027,297.9Z" transform="translate(-88.867 -273.116)"/>
    </g>
    <g id="Group_649" data-name="Group 649" transform="translate(77.39 310.284)">
      <path id="Path_1165" data-name="Path 1165" class="cls-14" d="M60.289,294.686a.464.464,0,0,0,.069.152.455.455,0,0,0,.507.2.27.27,0,0,0,.17-.085.48.48,0,0,0,.193-.492c-2.144-9.475-.205-12.464,3.313-17.909,1.83-2.815,4.788-6.476,7.406-9.71,2.2-2.713,4.154-5.123,5.189-6.711a27.213,27.213,0,0,0,13.49,14.42,53.32,53.32,0,0,0,11.222,3.745c5.3,1.291,8.486,2.063,8.728,6.334.2,3.534-1.425,6.2-3.477,9.575a41.167,41.167,0,0,0-5.949,14.022c-2.7,13.228-4,21.95-4.063,27.842.328-.012.655-.028.977-.051.079-5.8,1.345-14.466,4.035-27.593a39.761,39.761,0,0,1,5.83-13.716c2.051-3.38,3.826-6.294,3.611-10.126-.282-4.995-4.138-5.939-9.457-7.234a52.17,52.17,0,0,1-11.03-3.668A25.706,25.706,0,0,1,77.73,258.867a.492.492,0,0,0-.419-.357.483.483,0,0,0-.486.263,67.233,67.233,0,0,1-5.625,7.465c-2.636,3.256-5.615,6.934-7.417,9.722C60.194,281.51,58.05,284.811,60.289,294.686Z" transform="translate(-59.375 -258.507)"/>
    </g>
    <g id="Group_650" data-name="Group 650" transform="translate(84.779 323.065)">
      <path id="Path_1166" data-name="Path 1166" class="cls-14" d="M77.378,287c-.182,1.481.344,2.764,1.159,2.861s1.629-1.023,1.8-2.511-.344-2.764-1.165-2.859S77.548,285.52,77.378,287Z" transform="translate(-49.258 -245.975)"/>
      <path id="Path_1167" data-name="Path 1167" class="cls-14" d="M63.506,281.228c.069,1.493.8,2.669,1.623,2.63s1.431-1.283,1.358-2.776-.8-2.669-1.623-2.63S63.427,279.736,63.506,281.228Z" transform="translate(-62.745 -251.855)"/>
      <path id="Path_1168" data-name="Path 1168" class="cls-14" d="M81.395,276.208c-.519,1.4-.31,2.768.464,3.05s1.82-.616,2.336-2.016.31-2.77-.464-3.052S81.91,274.806,81.395,276.208Z" transform="translate(-45.588 -256.059)"/>
      <path id="Path_1169" data-name="Path 1169" class="cls-14" d="M66.149,267.053c-.515,1.4-.31,2.768.464,3.05s1.82-.616,2.334-2.02.312-2.766-.462-3.05S66.664,265.651,66.149,267.053Z" transform="translate(-60.44 -264.98)"/>
      <path id="Path_1170" data-name="Path 1170" class="cls-14" d="M76.625,295.525c-.209,1.153.142,2.188.776,2.3s1.329-.723,1.536-1.882-.14-2.188-.774-2.3S76.834,294.372,76.625,295.525Z" transform="translate(-50.016 -237.064)"/>
      <path id="Path_1171" data-name="Path 1171" class="cls-14" d="M63.178,291.868c-.207,1.153.136,2.188.776,2.3s1.323-.73,1.536-1.884-.14-2.182-.78-2.3S63.387,290.715,63.178,291.868Z" transform="translate(-63.117 -240.627)"/>
    </g>
    <g id="Group_651" data-name="Group 651" transform="translate(190.751 376.223)">
      <path id="Path_1172" data-name="Path 1172" class="cls-14" d="M116.793,301.9c.367-.04.717-.081,1.044-.115a65.745,65.745,0,0,1,4.229-9.475c-.3-.124-.588-.266-.881-.407A64.385,64.385,0,0,0,116.793,301.9Z" transform="translate(-116.793 -291.905)"/>
    </g>
    <g id="Group_652" data-name="Group 652" transform="translate(53.457 299.809)">
      <path id="Path_1173" data-name="Path 1173" class="cls-14" d="M47.253,254.014a28.065,28.065,0,0,0,11.234,6.624c-.073-.357-.158-.727-.243-1.094A27.764,27.764,0,0,1,47.8,253.2C47.62,253.462,47.435,253.734,47.253,254.014Z" transform="translate(-47.253 -253.201)"/>
    </g>
    <path id="Path_1174" data-name="Path 1174" class="cls-4" d="M87.915,260.1c.018-.016,2.272-.782,2.515.509s-4.839,5.729-7.3,6.012A22.7,22.7,0,0,1,87.915,260.1Z" transform="translate(41.157 53.098)"/>
    <path id="Path_1175" data-name="Path 1175" class="cls-15" d="M87.291,241.025c1.741.269,4.241,2.288,5.388,2.93s2.6-1.356,0-3.293-5.868-2.845-7.927-1.392-2.606,2.845-1.451,2.42A7.644,7.644,0,0,1,87.291,241.025Z" transform="translate(40.746 32.338)"/>
    <path id="Path_1176" data-name="Path 1176" class="cls-15" d="M93.812,244.037c-1.187-.592-.3-3.281,2.969-4.306,2.357-.738,5.749.363,5.986,1.757s-1.453-.33-3.838.64C97.176,242.836,95.022,244.641,93.812,244.037Z" transform="translate(51.078 33.253)"/>
    <path id="Path_1177" data-name="Path 1177" class="cls-25" d="M92.788,257.237H92.8a11.041,11.041,0,0,0,3.607-.079c.843-.136,1.684-.334,2.509-.553a15.205,15.205,0,0,1-1.572-2.144A36.241,36.241,0,0,1,95.6,251.2a68.9,68.9,0,0,1-2.734-6.792l-.006-.014a.361.361,0,0,1,.209-.454.356.356,0,0,1,.468.205,69.024,69.024,0,0,0,2.963,6.608,33.3,33.3,0,0,0,1.8,3.094,10.91,10.91,0,0,0,2.245,2.574.65.65,0,0,1,.231.324.636.636,0,0,1-.428.79l-.012,0h-.006a26.871,26.871,0,0,1-3.81.612,11.774,11.774,0,0,1-3.889-.207.36.36,0,0,1-.265-.415A.365.365,0,0,1,92.788,257.237Z" transform="translate(50.152 37.559)"/>
    <g id="Group_653" data-name="Group 653" transform="translate(134.518 301.87)">
      <path id="Path_1178" data-name="Path 1178" class="cls-26" d="M94.708,256.678a14.007,14.007,0,0,0,2.551-.213.364.364,0,0,0-.221-.693c-.118.026-5.094.89-8.14-1.451a.364.364,0,0,0-.448.575A10.4,10.4,0,0,0,94.708,256.678Z" transform="translate(-88.311 -254.245)"/>
    </g>
    <g id="Group_654" data-name="Group 654" transform="translate(106.855 281.812)">
      <path id="Path_1179" data-name="Path 1179" class="cls-25" d="M77.329,248.831a.424.424,0,0,0,.089-.012.362.362,0,0,0,.261-.442,9.258,9.258,0,0,0-2.776-4.2.363.363,0,1,0-.48.545,8.495,8.495,0,0,1,2.549,3.836A.369.369,0,0,0,77.329,248.831Z" transform="translate(-74.299 -244.086)"/>
    </g>
    <g id="Group_655" data-name="Group 655" transform="translate(124.527 276.936)">
      <path id="Path_1180" data-name="Path 1180" class="cls-27" d="M83.25,246.37s1.966,1.783,6.32,2.14a11.572,11.572,0,0,0,1.605.032c2.884-.126,3.218-1.425,3.218-1.425a5.937,5.937,0,0,0-3.941-4.365,7.7,7.7,0,0,0-.883-.282C86.241,241.608,83.939,244.24,83.25,246.37Z" transform="translate(-83.25 -240.948)"/>
      <path id="Path_1181" data-name="Path 1181" class="cls-28" d="M86.071,245.267a3.247,3.247,0,0,0,2.355,3.052c2.884-.126,3.218-1.425,3.218-1.425a5.937,5.937,0,0,0-3.941-4.365A3.157,3.157,0,0,0,86.071,245.267Z" transform="translate(-80.501 -240.726)"/>
      <path id="Path_1182" data-name="Path 1182" class="cls-29" d="M94.387,247.786a6.661,6.661,0,0,0-3.425-5.506c-3.427-1.876-7.542.387-7.712,4.764,0,0,1.8-4.286,5.57-3.907S94.387,247.786,94.387,247.786Z" transform="translate(-83.25 -241.616)"/>
    </g>
    <g id="Group_656" data-name="Group 656" transform="translate(144.987 277.971)">
      <path id="Path_1183" data-name="Path 1183" class="cls-27" d="M93.613,247.26a7.554,7.554,0,0,0,4.782,1.21c.148-.01.278-.02.413-.039,2.6-.32,3.094-2.024,3.094-2.024s-.73-3.69-3.506-3.564a3.209,3.209,0,0,0-1.232.32C95.042,244.18,93.613,247.26,93.613,247.26Z" transform="translate(-93.613 -241.457)"/>
      <path id="Path_1184" data-name="Path 1184" class="cls-28" d="M95,245.3a3.212,3.212,0,0,0,2.458,3.127c2.6-.32,3.094-2.024,3.094-2.024s-.73-3.69-3.506-3.564a3.209,3.209,0,0,0-1.232.32A3.16,3.16,0,0,0,95,245.3Z" transform="translate(-92.263 -241.457)"/>
      <path id="Path_1185" data-name="Path 1185" class="cls-29" d="M93.613,247.943a6.969,6.969,0,0,1,3.143-5.317c2.967-1.7,5.631,1.382,5.151,4.47,0,0-1.216-3.206-3.455-2.9S93.613,247.943,93.613,247.943Z" transform="translate(-93.613 -242.14)"/>
    </g>
    <path id="Path_1186" data-name="Path 1186" class="cls-1" d="M147.523,300.853l2.426-.612s-1.572-4.505-5.2-3.147-2.419,5.568-2.419,5.568l2.537-.5,1.453,4.3s2.3-1.356,2.3-1.791S147.523,300.853,147.523,300.853Z" transform="translate(98.647 89.125)"/>
    <path id="Path_1187" data-name="Path 1187" class="cls-1" d="M155.012,301.243c-2.12.892-3.585-2.906-.725-3.637S157.312,300.27,155.012,301.243Z" transform="translate(108.939 89.775)"/>
    <path id="Path_1188" data-name="Path 1188" class="cls-1" d="M152.38,304.683c-2.2-1.052-.039-4.942,1.791-3.319S155.162,306.017,152.38,304.683Z" transform="translate(107.726 93.153)"/>
    <path id="Path_1189" data-name="Path 1189" class="cls-1" d="M150.583,305.049c-1.577-.509-3.617-1.668-2.278-4.059s2.563-4.7,4.541-2.567S152.29,305.6,150.583,305.049Z" transform="translate(104.237 89.846)"/>
    <image id="Rectangle_439" data-name="Rectangle 439" class="cls-30" width="10.424" height="18.48" transform="translate(115.583 228.732)" xlink:href="Group%20659-image12.png"/>
    <image id="Rectangle_440" data-name="Rectangle 440" class="cls-2" width="26.535" height="32.695" transform="translate(102.79 278.484)" xlink:href="Group%20659-image13.png"/>
    <image id="Rectangle_441" data-name="Rectangle 441" class="cls-2" width="11.372" height="13.267" transform="translate(113.688 297.912)" xlink:href="Group%20659-image14.png"/>
    <path id="Path_1190" data-name="Path 1190" class="cls-31" d="M72,250.018a14.52,14.52,0,0,0,3.177,3.088,17.891,17.891,0,0,0,5.8,2.723,7.3,7.3,0,0,0,3.437.1c6-1.287,10.081-9.868,11.212-12.841,1.327-3.5,4.476-6.525,14.156-7.262,9.69-.717,13.443,6.778,15.382,10.42a3.592,3.592,0,0,0,.916,1.131c2.3,1.86,6.3-.29,7.672-3.437a20.007,20.007,0,0,0,1.2-3.795c-4.116.561-11.483-.543-18.1-5.406-9.238-6.778-20.624,2.422-24.971,7.6-3.917,4.667-9.56.657-11.313-7.313-2.928,3.836-6.981,1.356-9.633,6.247C69.379,244.11,69.991,247.3,72,250.018Z" transform="translate(28.423 26.279)"/>
    <g id="Group_657" data-name="Group 657" transform="translate(87.197 276.297)">
      <path id="Path_1191" data-name="Path 1191" class="cls-15" d="M64.4,255.189c.357,3.273,3.137,7.785,12.1,10.766,6.274,2.093,14.241-1.092,16.237-2.071-.2-.3-.419-.61-.612-.91a32.752,32.752,0,0,1-2.77-5.277,11.707,11.707,0,0,1-.638-1.986s-7.429-3.874-8.067-6.294a8.449,8.449,0,0,1,.089-5.036,14.52,14.52,0,0,1-3.177-3.088c-2.375,3.333-7.066,4.513-9.181,4.687-1.346.118-2.381,1.406-3.07,3.078A13.611,13.611,0,0,0,64.4,255.189Z" transform="translate(-64.342 -241.292)"/>
      <path id="Path_1192" data-name="Path 1192" class="cls-31" d="M64.4,251.357c.357,3.273,3.137,7.785,12.1,10.766,6.274,2.093,14.241-1.092,16.237-2.071-.2-.3-.419-.61-.612-.91a32.75,32.75,0,0,1-2.77-5.277c-10.649,4.039-19.769-3.177-24.043-8.64A13.611,13.611,0,0,0,64.4,251.357Z" transform="translate(-64.342 -237.46)"/>
    </g>
    <image id="Rectangle_442" data-name="Rectangle 442" class="cls-7" width="81.026" height="39.328" transform="translate(116.531 347.664)" xlink:href="Group%20659-image15.png"/>
    <g id="Group_658" data-name="Group 658" transform="translate(110.371 301.702)">
      <path id="Path_1193" data-name="Path 1193" class="cls-4" d="M76.14,263.183a23.112,23.112,0,0,0,4.845,5.674,8.846,8.846,0,0,0,1.6,1.163,16.763,16.763,0,0,0,7.35,2.1,2.949,2.949,0,0,0,.877-1.568c.213-.987.055-2.432-1.362-4.357-.652-.883-1.453-1.87-2.342-2.886-2.375-2.73-5.319-5.714-7.3-7.641-.594-.58-1.1-1.066-1.495-1.423C77.644,253.616,76.14,263.183,76.14,263.183Z" transform="translate(-76.022 -254.106)"/>
      <image id="Rectangle_443" data-name="Rectangle 443" class="cls-7" width="11.372" height="16.11" xlink:href="Group%20659-image16.png"/>
    </g>
    <image id="Rectangle_444" data-name="Rectangle 444" class="cls-32" width="60.651" height="27.482" transform="translate(54.932 410.21)" xlink:href="Group%20659-image17.png"/>
    <image id="Rectangle_445" data-name="Rectangle 445" class="cls-2" width="16.584" height="81.026" transform="translate(98.525 480.338)" xlink:href="Group%20659-image18.png"/>
    <image id="Rectangle_446" data-name="Rectangle 446" class="cls-7" width="7.108" height="15.637" transform="translate(103.737 559.469)" xlink:href="Group%20659-image19.png"/>
    <image id="Rectangle_447" data-name="Rectangle 447" width="5.212" height="22.27" transform="translate(135.958 548.096)" xlink:href="Group%20659-image20.png"/>
    <path id="Path_1194" data-name="Path 1194" class="cls-33" d="M135.7,304.739c1.51,2.861,3.692,8.185,3.692,8.185a51.094,51.094,0,0,0,10.821,4.432c-.655-1.621-1.431-3.6-2.3-5.9C141.716,309.657,137.426,306.954,135.7,304.739Z" transform="translate(92.38 96.822)"/>
    <path id="Path_1195" data-name="Path 1195" class="cls-1" d="M135.414,306.173c0,.016.006.028.006.039a12.369,12.369,0,0,1,.7,1.2c.057.079.124.158.193.243,2.188,2.578,7.71,5.727,15.6,7.366.095.024.18.04.276.063,1.171-3.98,3.025-8.825,5.579-11.425-.729-.188-1.475-.34-2.215-.5-7.254-1.459-12.817-1.414-16.27-.588-2.251.531-3.613,1.4-3.953,2.4A1.861,1.861,0,0,0,135.414,306.173Z" transform="translate(91.959 94.15)"/>
    <path id="Path_1196" data-name="Path 1196" class="cls-14" d="M135.8,305.777c2.188,2.578,7.71,5.727,15.6,7.366,7.909,1.657,15.184,2.178,18.977.865.4-2.543-5.048-6.727-13.528-8.474C149.348,304.008,138.471,302.737,135.8,305.777Z" transform="translate(92.475 96.026)"/>
    <path id="Path_1197" data-name="Path 1197" class="cls-1" d="M152.68,307.722c.869,1.929-2.906,3.631-3.874,1.092S151.595,305.3,152.68,307.722Z" transform="translate(104.996 98.372)"/>
    <path id="Path_1198" data-name="Path 1198" class="cls-1" d="M151.149,300.1l-.853-3.317,2.419-.7s-1.747-3.583-4.9-2.249-1.615,4.73-1.615,4.73l1.909-.74.746,2.805Z" transform="translate(102.242 85.912)"/>
  </g>
</svg>
