<svg xmlns="http://www.w3.org/2000/svg" width="1030.823" height="1067.663" viewBox="0 0 1030.823 1067.663">
  <defs>
    <style>
      .cls-1 {
        fill: #bcc7b8;
      }
    </style>
  </defs>
  <path id="Path_2277" data-name="Path 2277" class="cls-1" d="M1065.257,18.742v1062.9c-44.283-.909-81.553.205-123,0-67.517-.334-137.933-1.412-208,0-82.134,1.655-175.525,7.36-259.767,0-47.377-4.141-107.073-46.558-153.261-56.972A516.577,516.577,0,0,1,225,992.831C194.2,979.13,162.9,960.1,152.2,930.6c-9.117-25.123-1.244-52.7,10.209-77.024,11.13-23.642,25.941-49.221,17.083-73.635C165,740.012,103.526,737.332,67.149,711.175c-21.165-15.223-33.666-39.818-32.659-64.256,2.971-71.973,104.907-106.14,134.8-172.894,3.8-8.479,6.377-17.792,4.386-26.762-1.827-8.244-7.3-15.374-12.267-22.48C132.772,383.8,117.969,329.924,142.888,287c23.133-39.852,72.824-59.336,113.694-85.026,20.522-12.9,41.123-31.268,39.979-53.849-.683-13.544-9.184-25.556-15.527-37.84-8.267-16-27.623-67.769-11.312-83.64,12.909-12.566,57.058-8.474,74.832-7.9,79.746,2.559,166.074-1.343,245.857,0,119.509,2.01,73.592-2.488,192.29,0C822.12,19.568,1025.207,19.5,1065.257,18.742Z" transform="translate(-34.434 -17.654)"/>
</svg>
