<svg xmlns="http://www.w3.org/2000/svg" width="545.207" height="242.541" viewBox="0 0 545.207 242.541">
  <g id="Group_10583" data-name="Group 10583" transform="translate(-54.455 -42.343)">
    <path id="Path_2332" data-name="Path 2332" d="M367.062,209.5l124.416-.349-31.736-5.833s1.295-32.085-14.249-25.668S429.3,198.064,429.3,198.064s-5.829-12.834-14.25-8.167a32.167,32.167,0,0,0-12.307,12.833s-3.022-9.233-8.42-9.757c-4.615-.448-13.395,8.335-18,13.275Z" transform="translate(108.185 47.442)" fill="#fee" opacity="0.33"/>
    <path id="Path_2333" data-name="Path 2333" d="M217.449,78.649l124.416-.388-31.736-6.477s1.295-35.623-14.25-28.5a27.714,27.714,0,0,0-16.192,22.67s-5.829-14.25-14.25-9.068-12.307,14.25-12.307,14.25-3.022-10.253-8.42-10.835c-4.615-.5-13.395,9.255-18,14.741Z" transform="translate(55.394 0)" fill="#fee" opacity="0.33"/>
    <path id="Path_2331" data-name="Path 2331" d="M60.455,160.665l150.82-.471L172.8,152.342s1.569-43.183-17.274-34.546a33.6,33.6,0,0,0-19.628,27.48S128.833,128,118.626,134.284s-14.918,17.273-14.918,17.273-3.663-12.429-10.207-13.133c-5.594-.6-16.237,11.219-21.816,17.868Z" transform="translate(-6 124.22)" fill="#faeaea" opacity="0.33"/>
  </g>
</svg>
