<svg xmlns="http://www.w3.org/2000/svg" width="170" height="179.728" viewBox="0 0 170 179.728">
  <g id="Group_11535" data-name="Group 11535" transform="translate(-1637.5 -122)">
    <text id="_140" data-name="140" transform="translate(1676 215)" fill="#b0463d" font-size="50" font-family="SegoeUIBlack, Segoe UI" letter-spacing="0.08em"><tspan x="0" y="0">140</tspan></text>
    <text id="Loyalty_Points" data-name="Loyalty Points" fill="#b0463d" stroke="#b0463d" transform="translate(1638.5 150)" stroke-width="1" font-size="25" font-family="SegoeUI-Light, Segoe UI" font-weight="300" letter-spacing="0.08em"><tspan x="0" y="0">Loyalty Points</tspan></text>
    <g id="love-and-romance" transform="translate(1687 236)">
      <g id="Group_11530" data-name="Group 11530" transform="translate(15.743)">
        <path id="Path_10771" data-name="Path 10771" d="M139.755,8.56a8.56,8.56,0,1,0-14.586,6.08l14.586,14.586,9.451-14.587Z" transform="translate(-122.634)" fill="#b0463d"/>
        <path id="Path_10772" data-name="Path 10772" d="M256,29.227,270.586,14.64A8.56,8.56,0,1,0,256,8.56Z" transform="translate(-238.879)" fill="#b0463d"/>
      </g>
      <g id="Group_11534" data-name="Group 11534" transform="translate(0 28.209)">
        <path id="Path_10773" data-name="Path 10773" d="M102.469,399.946v9.6h13.636v-15.09Z" transform="translate(-89.315 -372.026)" fill="#2681ff"/>
        <path id="Path_10774" data-name="Path 10774" d="M24.394,236.089l-9.05-9.05-1.44,1.44a4.091,4.091,0,0,0,0,5.785l3.07,3.07-2.415,2.415-8.3-8.3V223.83a4.091,4.091,0,0,0-4.091-4.091H0v15.1l12.824,12.824a8.182,8.182,0,1,0,11.571-11.571Z" transform="translate(0 -219.739)" fill="#ffcdbe"/>
        <g id="Group_11533" data-name="Group 11533" transform="translate(38.937 22.429)">
          <g id="Group_11532" data-name="Group 11532">
            <g id="Group_11531" data-name="Group 11531">
              <path id="Path_10775" data-name="Path 10775" d="M316.943,399.946v9.6H303.307v-15.09Z" transform="translate(-303.307 -394.455)" fill="#0051be"/>
            </g>
          </g>
        </g>
        <path id="Path_10776" data-name="Path 10776" d="M305.7,236.089l9.05-9.05,1.44,1.44a4.091,4.091,0,0,1,0,5.785l-3.07,3.07,2.415,2.415,8.3-8.3v-7.617a4.091,4.091,0,0,1,4.091-4.091H330.1v15.1L317.274,247.66A8.182,8.182,0,0,1,305.7,236.089Z" transform="translate(-264.37 -219.74)" fill="#faa68e"/>
      </g>
    </g>
  </g>
</svg>
