<svg xmlns="http://www.w3.org/2000/svg" width="570.8" height="597.351" viewBox="0 0 570.8 597.351">
  <g id="Group_11831" data-name="Group 11831" transform="translate(-51.032 -36.743)">
    <g id="Background_Complete" data-name="Background Complete" transform="translate(97.285 58.803)">
      <g id="Group_11538" data-name="Group 11538" transform="translate(355.199 431.025)">
        <path id="Path_12092" data-name="Path 12092" d="M425.445,401.775l3.61-7.994a28.771,28.771,0,0,0-52.75-22.991l-3.679,8.142a16.088,16.088,0,0,0-18.932,9.111l-20.631,47.435a16.1,16.1,0,0,0,8.343,21.186l49.246,21.419a16.1,16.1,0,0,0,21.186-8.343l20.631-47.435A16.1,16.1,0,0,0,425.445,401.775Zm-41.123,41.959-12.881-5.6L377.5,429.7a8.555,8.555,0,1,1,8.574,3.554C385.414,437.261,384.321,443.734,384.321,443.734Zm35.468-44.5-41.4-18.005,3.58-7.926a22.573,22.573,0,0,1,41.417,17.965Z" transform="translate(-331.723 -353.535)" fill="#ebebeb"/>
      </g>
      <g id="Group_11539" data-name="Group 11539" transform="translate(5.445 100.611)">
        <path id="Path_12093" data-name="Path 12093" d="M236.851,179.621,228.6,165.244l-12.928,1.9-10.674-13.413,5.5-13.354-14.414-9.565L185.32,141.664l-14.171-2.484L165.4,122.513l-17.224,1.818-.974,14.578-12.833,6.519-13.584-9.617-13.779,10.036,7.16,15.429-8.2,12.354-14.9-.791-3.892,18.377,14.176,5.453,1.22,15.442-14.7,8.438L94.9,236.484l15.212-2.361,10.076,11.631-5.27,14.5,13.935,9.841,10.874-11.766,15.087,4.082,4.693,15.571,16.768-1.131,2.164-13.986,14.377-8.255,11.764,9.389,14.873-11.089-7.522-13.1,7.33-13.129,15.082,1.111,4.625-17.1-12.946-7.01L224.3,188.1Zm-58.409,50.317a33.893,33.893,0,1,1,12.516-46.269A33.894,33.894,0,0,1,178.442,229.937Z" transform="translate(-87.179 -122.513)" fill="#e0e0e0"/>
      </g>
      <g id="Group_11540" data-name="Group 11540" transform="translate(13.411)">
        <path id="Path_12094" data-name="Path 12094" d="M127.611,68.223c0-12.279-12.9-20.056-26.053-13.9a14.938,14.938,0,0,0-6.921,6.633c-3.31,6.41-1.848,13.73,1.153,19.809l10.236,25.944a4.411,4.411,0,0,0,8.22-.036l10.037-26.079C127.757,72.649,127.611,68.223,127.611,68.223ZM115.254,78.908c-8.842,5.14-17.8-4.362-12.956-13.74a7.374,7.374,0,0,1,2.808-2.979c8.843-5.142,17.8,4.362,12.958,13.74A7.359,7.359,0,0,1,115.254,78.908Z" transform="translate(-92.749 -52.167)" fill="#ebebeb"/>
      </g>
      <g id="Group_11545" data-name="Group 11545" transform="translate(0 495.553)">
        <g id="Group_11542" data-name="Group 11542">
          <g id="Group_11541" data-name="Group 11541">
            <path id="Path_12095" data-name="Path 12095" d="M122.34,432.767a36.4,36.4,0,0,0,2.367-4.667,20.44,20.44,0,0,0,1.343-5.947,21.052,21.052,0,0,0-15.293-22.011,21.04,21.04,0,0,0-12.171.25,20.874,20.874,0,0,0-14.48,20.1,21.047,21.047,0,0,0,3.62,11.626,21.119,21.119,0,0,0,25.724,7.532,20.435,20.435,0,0,0,5.213-3.159,36.14,36.14,0,0,0,3.677-3.723,1.255,1.255,0,0,1-.186.293l-.606.817a9.643,9.643,0,0,1-1.071,1.263,14.913,14.913,0,0,1-1.626,1.572,20.1,20.1,0,0,1-5.235,3.32,21.523,21.523,0,0,1-17.753-.152,21.648,21.648,0,0,1-8.7-7.376A21.655,21.655,0,0,1,83.376,420.5a21.542,21.542,0,0,1,14.984-20.8,21.668,21.668,0,0,1,12.582-.214A21.641,21.641,0,0,1,120.7,405.4a21.517,21.517,0,0,1,5.77,16.791,20.13,20.13,0,0,1-1.489,6.018,14.964,14.964,0,0,1-.977,2.041,9.672,9.672,0,0,1-.857,1.416l-.584.834A1.2,1.2,0,0,1,122.34,432.767Z" transform="translate(-83.372 -398.652)" fill="#e0e0e0"/>
          </g>
        </g>
        <g id="Group_11544" data-name="Group 11544" transform="translate(27.451 42.161)">
          <g id="Group_11543" data-name="Group 11543">
            <path id="Path_12096" data-name="Path 12096" d="M116.526,465.707c-.193.072-3.473-8.282-7.324-18.657s-6.819-18.848-6.628-18.919,3.473,8.281,7.326,18.659S116.717,465.636,116.526,465.707Z" transform="translate(-102.565 -428.131)" fill="#e0e0e0"/>
          </g>
        </g>
      </g>
      <g id="Group_11553" data-name="Group 11553" transform="translate(436.069 4.75)">
        <g id="Group_11546" data-name="Group 11546" transform="translate(0 21.398)">
          <path id="Path_12097" data-name="Path 12097" d="M409.622,81.113A10.678,10.678,0,1,1,398.93,70.449,10.677,10.677,0,0,1,409.622,81.113Z" transform="translate(-388.266 -70.449)" fill="#ebebeb"/>
        </g>
        <g id="Group_11547" data-name="Group 11547" transform="translate(29.889)">
          <path id="Path_12098" data-name="Path 12098" d="M430.52,66.152a10.678,10.678,0,1,1-10.692-10.664A10.677,10.677,0,0,1,430.52,66.152Z" transform="translate(-409.164 -55.488)" fill="#ebebeb"/>
        </g>
        <g id="Group_11548" data-name="Group 11548" transform="translate(29.952 44.321)">
          <path id="Path_12099" data-name="Path 12099" d="M430.564,98.082c.009,6.416-4.766,11.625-10.662,11.632s-10.685-5.186-10.694-11.6,4.764-11.625,10.661-11.633S430.556,91.664,430.564,98.082Z" transform="translate(-409.208 -86.477)" fill="#ebebeb"/>
        </g>
        <g id="Group_11550" data-name="Group 11550" transform="translate(7.381 34.051)">
          <g id="Group_11549" data-name="Group 11549">
            <path id="Path_12100" data-name="Path 12100" d="M423.523,99.816c-.456.672-7.559-3.361-15.863-9.008S392.994,80.04,393.45,79.369s7.557,3.361,15.864,9.008S423.98,99.145,423.523,99.816Z" transform="translate(-393.427 -79.296)" fill="#ebebeb"/>
          </g>
        </g>
        <g id="Group_11552" data-name="Group 11552" transform="translate(12.003 9.864)">
          <g id="Group_11551" data-name="Group 11551">
            <path id="Path_12101" data-name="Path 12101" d="M422.986,62.452c.5.641-4.986,5.722-12.247,11.347s-13.551,9.668-14.049,9.026,4.986-5.722,12.248-11.35S422.489,61.81,422.986,62.452Z" transform="translate(-396.658 -62.385)" fill="#ebebeb"/>
          </g>
        </g>
      </g>
    </g>
    <g id="Mail" transform="translate(433.153 180.511)">
      <g id="Group_11560" data-name="Group 11560" transform="translate(0)">
        <g id="Group_11557" data-name="Group 11557">
          <g id="Group_11554" data-name="Group 11554" transform="translate(0.656 0.479)">
            <rect id="Rectangle_1323" data-name="Rectangle 1323" width="118.202" height="79.672" transform="translate(0 11.163) rotate(-5.419)" fill="#fff"/>
          </g>
          <g id="Group_11556" data-name="Group 11556">
            <g id="Group_11555" data-name="Group 11555">
              <path id="Path_12102" data-name="Path 12102" d="M444.061,217.059s-.082-.513-.187-1.467q-.161-1.5-.449-4.208c-.379-3.719-.927-9.1-1.628-15.976-1.364-13.8-3.318-33.559-5.7-57.624l.478.395L318.924,149.451c-.117.129.925-1.128.486-.586l0,.021,0,.042.009.083.016.166.031.33.063.662.124,1.323.25,2.637q.251,2.634.5,5.25.5,5.235.984,10.391.974,10.311,1.914,20.279c1.249,13.275,2.447,26.039,3.583,38.124l-.546-.452,84.707-7.788,24.262-2.165,6.476-.553,1.683-.13a4.65,4.65,0,0,1,.592-.026,3.352,3.352,0,0,1-.528.079l-1.622.185-6.365.664-24.124,2.424-84.989,8.311-.5.049-.047-.5c-1.157-12.084-2.38-24.844-3.651-38.118q-.948-9.957-1.932-20.278-.491-5.155-.988-10.389-.249-2.617-.5-5.25l-.25-2.639-.126-1.322-.063-.662-.031-.332-.016-.166-.009-.083,0-.04,0-.021c-.443.526.6-.742.5-.611l117.674-11.053.439-.041.04.438c2.2,24.2,4,44.067,5.265,57.94.6,6.838,1.071,12.2,1.4,15.9q.223,2.665.343,4.135C444.049,216.6,444.061,217.059,444.061,217.059Z" transform="translate(-318.207 -137.264)" fill="#455a64"/>
            </g>
          </g>
        </g>
        <g id="Group_11559" data-name="Group 11559" transform="translate(0.656 0.478)">
          <g id="Group_11558" data-name="Group 11558">
            <path id="Path_12103" data-name="Path 12103" d="M436.34,137.6a7.783,7.783,0,0,1-.912,1.173c-.7.818-1.622,1.891-2.772,3.231l-10.376,11.784-34.813,38.931-.309.346-.393-.25c-.993-.634-2.06-1.313-3.134-2-17.945-11.512-34.185-21.928-46.061-29.547l-13.892-9.059c-1.556-1.043-2.8-1.878-3.746-2.51a8.52,8.52,0,0,1-1.266-.938,8.383,8.383,0,0,1,1.384.751l3.857,2.337c3.427,2.134,8.211,5.112,14.078,8.766l46.235,29.275,3.132,2-.7.1,35.065-38.7,10.631-11.556,2.922-3.1A7.441,7.441,0,0,1,436.34,137.6Z" transform="translate(-318.665 -137.598)" fill="#455a64"/>
          </g>
        </g>
      </g>
    </g>
    <g id="Plants" transform="translate(88.555 284.449)">
      <g id="Group_11576" data-name="Group 11576" transform="translate(0 58.304)">
        <g id="Group_11561" data-name="Group 11561">
          <path id="Path_12104" data-name="Path 12104" d="M82.088,251.62s10.075-6.919,22.931,17.241S122.83,307,122.83,307s3.375,5.05,6.825,1.649,8.088-12.958,14.082-11.357c6.217,1.659,8.375,8.527,7.376,18.692s-2.374,32.515-2.491,34.536c-.114,1.985,1.073,4.884,3.794,2.945s18.257-19.869,26.323-11.988.626,35.74-.129,38.8-.136,4.351,1.324,5.08,6.116-5.791,10.742-10.708,10.855-9.81,15.128-4.873,5.98,25.711-13.217,59.844l-9.932,15.233-18.251-.689c-38.971-3.856-55.008-17.171-56.6-23.5s5.987-8.627,12.67-9.6,14.933-2.656,14.933-2.656a5.538,5.538,0,0,0-3.4-4c-2.941-1.137-30.028-11.026-31.857-22.154s21.77-13.567,24.92-14.684,1.456-3.752-.236-4.8c-1.722-1.064-20.818-12.76-29.717-17.772s-13.287-10.72-11.079-16.764c2.127-5.827,12.616-4.145,17.38-5.019s2.564-6.536,2.564-6.536-8.606-12.077-21.02-36.468-.659-28.722-.659-28.722" transform="translate(-77.268 -250.702)" fill="#b0463d"/>
        </g>
        <g id="Group_11563" data-name="Group 11563" transform="translate(16.37 22.535)">
          <g id="Group_11562" data-name="Group 11562">
            <path id="Path_12105" data-name="Path 12105" d="M88.714,266.459a2.575,2.575,0,0,1,.259.428c.174.323.4.749.7,1.29.616,1.178,1.493,2.852,2.613,4.99,2.273,4.379,5.526,10.652,9.541,18.388l31.71,60.543c12.434,23.626,23.59,45.066,31.535,60.653,3.93,7.779,7.117,14.088,9.341,18.491,1.07,2.163,1.907,3.857,2.5,5.049l.634,1.322a2.506,2.506,0,0,1,.193.461,2.7,2.7,0,0,1-.257-.428c-.174-.322-.4-.748-.7-1.29-.616-1.177-1.493-2.852-2.613-4.989-2.271-4.379-5.526-10.651-9.54-18.387-8.056-15.527-19.282-36.927-31.715-60.554s-23.586-45.057-31.529-60.642c-3.93-7.78-7.118-14.089-9.342-18.493l-2.5-5.05-.634-1.322A2.759,2.759,0,0,1,88.714,266.459Z" transform="translate(-88.713 -266.459)" fill="#263238"/>
          </g>
        </g>
        <g id="Group_11565" data-name="Group 11565" transform="translate(52.909 60.218)">
          <g id="Group_11564" data-name="Group 11564">
            <path id="Path_12106" data-name="Path 12106" d="M121.871,292.806a37.565,37.565,0,0,1-.965,4.8c-.689,3.132-1.565,7.111-2.533,11.513-.983,4.5-1.9,8.573-2.656,11.5-.38,1.463-.714,2.642-.97,3.448a4.734,4.734,0,0,1-.472,1.231,44.8,44.8,0,0,1,.955-4.794c.668-3.138,1.515-7.125,2.453-11.536.983-4.5,1.954-8.563,2.739-11.482.395-1.459.728-2.636.985-3.443A4.756,4.756,0,0,1,121.871,292.806Z" transform="translate(-114.261 -292.806)" fill="#263238"/>
          </g>
        </g>
        <g id="Group_11567" data-name="Group 11567" transform="translate(14.097 83.071)">
          <g id="Group_11566" data-name="Group 11566">
            <path id="Path_12107" data-name="Path 12107" d="M124.286,318.772c-.05.189-8.411-1.892-18.672-4.647s-18.542-5.14-18.49-5.329,8.408,1.894,18.673,4.648S124.337,318.585,124.286,318.772Z" transform="translate(-87.124 -308.785)" fill="#263238"/>
          </g>
        </g>
        <g id="Group_11569" data-name="Group 11569" transform="translate(41.125 132.986)">
          <g id="Group_11568" data-name="Group 11568">
            <path id="Path_12108" data-name="Path 12108" d="M140.049,344.4a4.977,4.977,0,0,1-1.33.209c-.858.093-2.1.186-3.644.28-3.081.174-7.347.312-12.058.213s-8.972-.391-12.043-.7c-1.538-.149-2.776-.3-3.631-.423a4.931,4.931,0,0,1-1.32-.263,40.581,40.581,0,0,1,4.99.189c3.074.177,7.321.4,12.017.488s8.948.04,12.027-.007A39.713,39.713,0,0,1,140.049,344.4Z" transform="translate(-106.022 -343.684)" fill="#263238"/>
          </g>
        </g>
        <g id="Group_11571" data-name="Group 11571" transform="translate(74.85 105.841)">
          <g id="Group_11570" data-name="Group 11570">
            <path id="Path_12109" data-name="Path 12109" d="M144.817,324.706a29.73,29.73,0,0,1-2.008,4.156c-1.32,2.524-3.187,5.988-5.286,9.793s-4.038,7.233-5.469,9.7a29.906,29.906,0,0,1-2.446,3.916,30.12,30.12,0,0,1,2.009-4.158c1.32-2.524,3.187-5.988,5.288-9.794s4.035-7.23,5.466-9.693A30.151,30.151,0,0,1,144.817,324.706Z" transform="translate(-129.602 -324.705)" fill="#263238"/>
          </g>
        </g>
        <g id="Group_11573" data-name="Group 11573" transform="translate(95.883 139.043)">
          <g id="Group_11572" data-name="Group 11572">
            <path id="Path_12110" data-name="Path 12110" d="M164.141,347.92a6.9,6.9,0,0,1-.659,1.447c-.548,1.034-1.226,2.311-2.027,3.82-1.739,3.211-4.183,7.622-6.921,12.473s-5.252,9.225-7.1,12.373c-.878,1.466-1.622,2.706-2.223,3.71a7.071,7.071,0,0,1-.9,1.313,6.851,6.851,0,0,1,.659-1.449l2.027-3.82c1.739-3.209,4.183-7.622,6.922-12.474s5.25-9.222,7.1-12.37c.878-1.466,1.622-2.706,2.223-3.71A7,7,0,0,1,164.141,347.92Z" transform="translate(-144.308 -347.919)" fill="#263238"/>
          </g>
        </g>
        <g id="Group_11575" data-name="Group 11575" transform="translate(52.982 171.143)">
          <g id="Group_11574" data-name="Group 11574">
            <path id="Path_12111" data-name="Path 12111" d="M157.455,372.426a7.934,7.934,0,0,1-1.7.156c-1.093.059-2.676.1-4.633.133-3.913.053-9.324.016-15.289-.27s-11.359-.744-15.249-1.171c-1.947-.21-3.517-.409-4.6-.566a8.079,8.079,0,0,1-1.673-.316,7.818,7.818,0,0,1,1.7.043l4.618.343c3.9.3,9.281.685,15.236.962s11.35.4,15.258.476l4.628.091A7.918,7.918,0,0,1,157.455,372.426Z" transform="translate(-114.312 -370.364)" fill="#263238"/>
          </g>
        </g>
      </g>
      <g id="Group_11594" data-name="Group 11594" transform="translate(346.414)">
        <g id="Group_11578" data-name="Group 11578">
          <g id="Group_11577" data-name="Group 11577">
            <path id="Path_12112" data-name="Path 12112" d="M372.8,387.283a63.06,63.06,0,0,1-30.2-7.364l-.149-.1c-20.16-18.408-27.247-48.9-20.5-88.164.172-1,.316-2.011.461-3.026.6-4.189,1.216-8.523,3.8-12,3.2-4.306,9.809-6.864,14.568-3.812,3.092,1.988,4.408,5.486,5.679,8.869.3.805.6,1.608.928,2.381a29.953,29.953,0,0,0,10.345,12.831c2.1,1.469,6.177,3.727,9.857,2.331,4.442-1.685,5.741-7.5,6.377-12.372l3.713-28.49c.664-5.1,1.35-10.366,3.691-15.132,2.659-5.411,7.168-9.033,12.064-9.69a11.351,11.351,0,0,1,8.527,2.491,8.886,8.886,0,0,1,3.417,6.239,16.316,16.316,0,0,1-.372,3.99,23.092,23.092,0,0,0-.349,2.467c-.119,1.728.349,4.015,2.061,4.777,1.342.6,3.115.1,5.273-1.483,5.93-4.338,10.318-10.275,14.658-16.489l1-1.437c3.913-5.621,7.959-11.432,13.185-16.046,6.508-5.747,13.915-8.6,20.861-8.044,8.232.666,15.366,6.917,16.24,14.228.751,6.26-2.513,12.773-9.976,19.912a115.893,115.893,0,0,1-27.226,19.382c-1.726.887-3.5,1.8-4.278,3.382a4.479,4.479,0,0,0,.395,4.268,9.057,9.057,0,0,0,3.733,3.418,28.51,28.51,0,0,0,7.544,2.078c1.374.249,2.8.506,4.176.862,2.446.631,8.278,2.657,9.6,7.845,1.712,6.725-5.655,12.105-8.9,14.106A100.025,100.025,0,0,1,421.318,312.2l-1.449.3c-3.43.708-6.975,1.44-9.871,3.311-3,1.947-5.516,5.948-4.249,9.534,1.292,3.656,5.748,5.127,9.315,4.989a32.857,32.857,0,0,0,7.7-1.6c1.329-.386,2.7-.787,4.078-1.1,7.316-1.635,17.02-.113,21.034,7.1,2.37,4.256,2.3,9.917-.192,15.142-2.3,4.827-6.2,8.641-9.713,11.736-13.92,12.266-30.07,20.469-46.706,23.723A96.181,96.181,0,0,1,372.8,387.283ZM343.349,378.7c14.018,7.326,28.722,8.936,47.645,5.236,16.385-3.207,32.3-11.294,46.035-23.393,3.4-3,7.178-6.685,9.365-11.279,2.291-4.807,2.378-9.979.233-13.832-3.657-6.566-12.658-7.921-19.471-6.395-1.333.3-2.685.692-3.992,1.073a34.151,34.151,0,0,1-8.036,1.655c-4.092.209-9.193-1.6-10.728-5.937-1.527-4.324,1.269-8.913,4.821-11.213,3.121-2.017,6.8-2.776,10.356-3.511l1.442-.3a98.593,98.593,0,0,0,31.242-12.529c2.978-1.836,9.744-6.731,8.267-12.536-1.134-4.447-6.373-6.246-8.573-6.814-1.329-.343-2.723-.6-4.073-.84a30.005,30.005,0,0,1-7.918-2.2,10.387,10.387,0,0,1-4.341-3.983,5.846,5.846,0,0,1-.443-5.617c.984-2.009,3.065-3.078,4.9-4.022a114.525,114.525,0,0,0,26.9-19.146c7.117-6.808,10.238-12.926,9.545-18.707-.89-7.437-8.292-12.436-14.936-12.974-8.846-.728-16.2,4.511-19.8,7.69-5.1,4.5-9.093,10.239-12.959,15.79l-1,1.44c-4.238,6.064-8.885,12.359-14.989,16.824-2.6,1.906-4.856,2.454-6.7,1.636-2.387-1.063-3.058-3.995-2.908-6.181a24.964,24.964,0,0,1,.368-2.62,15.007,15.007,0,0,0,.353-3.641,7.474,7.474,0,0,0-2.895-5.23,9.925,9.925,0,0,0-7.432-2.181c-4.355.584-8.56,4-10.968,8.9-2.24,4.554-2.909,9.7-3.557,14.686l-3.714,28.49c-.688,5.27-2.137,11.571-7.29,13.524-4.295,1.618-8.847-.867-11.182-2.5a31.393,31.393,0,0,1-10.845-13.45c-.332-.791-.638-1.609-.948-2.43-1.19-3.165-2.421-6.439-5.115-8.169-4.08-2.624-9.833-.328-12.646,3.46-2.366,3.188-2.958,7.339-3.53,11.353-.147,1.028-.293,2.055-.466,3.066C318.724,318.9,318.428,355.869,343.349,378.7Z" transform="translate(-319.476 -209.937)" fill="#455a64"/>
          </g>
        </g>
        <g id="Group_11581" data-name="Group 11581" transform="translate(25.378 6.374)">
          <g id="Group_11580" data-name="Group 11580">
            <g id="Group_11579" data-name="Group 11579">
              <path id="Path_12113" data-name="Path 12113" d="M337.22,389.792c2.795-11.988,2.087-15.685,8.807-30.512,6.692-14.843,15.4-30.507,25.068-46.585q3.649-6.016,7.208-11.877c2.373-3.9,4.725-7.753,7.264-11.386a229.855,229.855,0,0,1,15.8-20.053c5.34-6.137,10.635-11.768,15.624-17s9.757-10,14.279-14.176a184.2,184.2,0,0,1,22.8-18.111c2.853-1.924,5.113-3.345,6.658-4.292.751-.453,1.336-.807,1.762-1.065.4-.236.614-.339.614-.339s-.186.149-.571.408c-.416.272-.988.648-1.722,1.128-1.516.988-3.749,2.45-6.57,4.409a192.635,192.635,0,0,0-22.6,18.264c-4.488,4.189-9.211,8.983-14.186,14.219s-10.235,10.89-15.549,17.027a231.226,231.226,0,0,0-15.714,20.015c-2.521,3.62-4.854,7.453-7.231,11.356s-4.77,7.866-7.2,11.874c-9.665,16.069-18.37,31.692-25.082,46.482-6.739,14.773-6.07,18.407-8.925,30.344" transform="translate(-337.22 -214.393)" fill="#263238"/>
            </g>
          </g>
        </g>
        <g id="Group_11584" data-name="Group 11584" transform="translate(73.646 24.312)">
          <g id="Group_11583" data-name="Group 11583">
            <g id="Group_11582" data-name="Group 11582">
              <path id="Path_12114" data-name="Path 12114" d="M371.251,283.985a12.567,12.567,0,0,1-.172-2.241c-.067-1.445-.1-3.537-.109-6.12-.021-5.17.186-12.309.435-20.179s.33-15,.2-20.156c-.059-2.58-.132-4.667-.2-6.107a12.331,12.331,0,0,1-.019-2.247,12.542,12.542,0,0,1,.32,2.224c.164,1.437.32,3.527.449,6.11.275,5.166.277,12.317.03,20.2-.257,7.8-.489,14.863-.664,20.162-.056,2.471-.1,4.525-.137,6.113A12.373,12.373,0,0,1,371.251,283.985Z" transform="translate(-370.969 -226.935)" fill="#263238"/>
            </g>
          </g>
        </g>
        <g id="Group_11587" data-name="Group 11587" transform="translate(73.928 77.014)">
          <g id="Group_11586" data-name="Group 11586">
            <g id="Group_11585" data-name="Group 11585">
              <path id="Path_12115" data-name="Path 12115" d="M439.159,265.013a2.384,2.384,0,0,1-.7.017l-1.987-.1c-1.722-.1-4.214-.242-7.3-.319-6.161-.2-14.688-.179-24.088.265-9.4.462-17.891,1.247-24.012,2-3.064.356-5.534.712-7.243.951l-1.971.266a2.313,2.313,0,0,1-.7.04,2.393,2.393,0,0,1,.671-.195l1.948-.409c1.695-.33,4.159-.772,7.221-1.2,6.116-.892,14.621-1.768,24.048-2.23,9.421-.446,17.972-.385,24.147-.039,3.088.149,5.581.375,7.3.565.784.1,1.435.179,1.977.246A2.346,2.346,0,0,1,439.159,265.013Z" transform="translate(-371.166 -263.784)" fill="#263238"/>
            </g>
          </g>
        </g>
        <g id="Group_11590" data-name="Group 11590" transform="translate(13.128 61.941)">
          <g id="Group_11589" data-name="Group 11589">
            <g id="Group_11588" data-name="Group 11588">
              <path id="Path_12116" data-name="Path 12116" d="M350.616,341.437a4.13,4.13,0,0,1-.326-.865c-.207-.658-.471-1.495-.8-2.529-.684-2.2-1.593-5.4-2.669-9.372-2.158-7.942-4.8-19-7.563-31.242s-5.319-23.311-7.339-31.279c-1.008-3.909-1.832-7.105-2.43-9.43-.267-1.05-.485-1.9-.654-2.566a4.215,4.215,0,0,1-.179-.91,4.012,4.012,0,0,1,.329.867l.794,2.527c.684,2.2,1.593,5.4,2.669,9.372,2.16,7.942,4.8,19,7.565,31.246s5.319,23.306,7.339,31.275c1.008,3.907,1.832,7.107,2.43,9.429l.654,2.567A4.128,4.128,0,0,1,350.616,341.437Z" transform="translate(-328.655 -253.245)" fill="#263238"/>
            </g>
          </g>
        </g>
        <g id="Group_11593" data-name="Group 11593" transform="translate(35.089 134.199)">
          <g id="Group_11592" data-name="Group 11592">
            <g id="Group_11591" data-name="Group 11591">
              <path id="Path_12117" data-name="Path 12117" d="M435.974,303.778a4.7,4.7,0,0,1-.925.219l-2.679.476-9.856,1.695c-8.318,1.439-19.786,3.568-32.448,5.953s-24.159,4.431-32.508,5.732c-4.175.655-7.556,1.15-9.9,1.45l-2.7.335a4.306,4.306,0,0,1-.95.063,4.55,4.55,0,0,1,.927-.219l2.677-.476c2.423-.418,5.765-.991,9.854-1.693,8.32-1.439,19.787-3.571,32.455-5.954s24.154-4.431,32.5-5.732c4.175-.652,7.557-1.15,9.9-1.45l2.7-.335A4.318,4.318,0,0,1,435.974,303.778Z" transform="translate(-344.01 -303.767)" fill="#263238"/>
            </g>
          </g>
        </g>
      </g>
    </g>
    <g id="Character" transform="translate(166.223 145.023)">
      <g id="Group_11732" data-name="Group 11732">
        <g id="Group_11595" data-name="Group 11595" transform="translate(0 4.484)">
          <circle id="Ellipse_3183" data-name="Ellipse 3183" cx="109.866" cy="109.866" r="109.866" transform="translate(0 155.374) rotate(-45)" fill="#fff"/>
        </g>
        <g id="Group_11731" data-name="Group 11731" transform="translate(52.911)">
          <g id="Group_11599" data-name="Group 11599" transform="translate(101.458)">
            <g id="Group_11596" data-name="Group 11596">
              <path id="Path_12118" data-name="Path 12118" d="M308.435,240.17c-.279-8.092,4.691-16.386,1.758-23.933-2.181-5.606-8.172-8.978-10.588-14.487-2.333-5.319-.881-11.426.1-17.151s1.17-12.353-2.883-16.513c-3.331-3.42-8.659-4.178-12.165-7.417-3.185-2.943-4.366-7.487-4.637-11.815s.215-8.7-.336-13a27.682,27.682,0,0,0-14.839-20.881c-7.956-3.966-17.884-3.687-25.335,3.983L266.216,220.44C281.233,223.106,295.165,230.272,308.435,240.17Z" transform="translate(-239.505 -112.451)" fill="#263238"/>
            </g>
            <g id="Group_11598" data-name="Group 11598" transform="translate(38.598 30.851)">
              <g id="Group_11597" data-name="Group 11597">
                <path id="Path_12119" data-name="Path 12119" d="M297.409,189.388a2.279,2.279,0,0,1,.835.423,3.807,3.807,0,0,1,1.357,2.3,4.408,4.408,0,0,1-1.131,4.023,5.517,5.517,0,0,1-5.406,1.106,7.183,7.183,0,0,1-4.624-4.864,13.272,13.272,0,0,1,.113-7.8c.721-2.675,1.959-5.289,2.855-8.1a17.879,17.879,0,0,0,.636-8.943,18.6,18.6,0,0,0-10.106-13.508C279.5,152.857,277,152.08,274.8,151a13.875,13.875,0,0,1-7.829-9.235,13.786,13.786,0,0,1-.459-4.213,12.209,12.209,0,0,1,.4-2.646,5.35,5.35,0,0,1,.306-.881,18.332,18.332,0,0,0-.473,3.534,13.772,13.772,0,0,0,8.27,12.989c2.172,1.044,4.667,1.8,7.167,2.983a19.076,19.076,0,0,1,10.459,13.9,18.394,18.394,0,0,1-.668,9.229c-.921,2.859-2.165,5.455-2.88,8.065a12.835,12.835,0,0,0-.176,7.493,6.753,6.753,0,0,0,4.273,4.611,5.168,5.168,0,0,0,5.049-.941,4.169,4.169,0,0,0,1.133-3.734,3.787,3.787,0,0,0-1.2-2.248C297.707,189.523,297.391,189.426,297.409,189.388Z" transform="translate(-266.492 -134.022)" fill="#263238"/>
              </g>
            </g>
          </g>
          <g id="Group_11600" data-name="Group 11600" transform="translate(37.15 15.843)">
            <path id="Path_12120" data-name="Path 12120" d="M233.64,123.529c-3.834,10.418-5.554,18.872-9.3,27.16-2.122,4.69-4.941,9.4-4.68,14.541.179,3.528,1.824,6.9,1.732,10.426-.162,6.22-5.445,10.905-10.13,15s-9.584,9.484-8.616,15.631c.422,2.673,1.948,5.1,2.18,7.8.283,3.294-1.409,6.442-3.443,9.048s-4.471,4.92-6.108,7.792l-.729,4.963,58.572-18.52" transform="translate(-194.542 -123.529)" fill="#263238"/>
          </g>
          <g id="Group_11604" data-name="Group 11604" transform="translate(178.771 65.72)">
            <g id="Group_11601" data-name="Group 11601">
              <path id="Path_12121" data-name="Path 12121" d="M334.352,199.1c-1.475-9.806-.07-19.741-.458-24.86-.721-9.525-1.582-9.494-2.683-9.249-2.962.659.631,16.788-2.16,13.717s-2.091-20.178-5.155-19.362c-3.992,1.063.079,17.886.318,19.334.233,1.406-1.852,1.788-2,.472-.21-1.892-2.9-21.715-6.832-20.708-2.18.558-.709,4.372-.709,4.372s3.89,18.4,2.018,18.809c-1.9.42-4.551-10.313-5.189-13.989-.629-3.633-2.62-4.854-4-3.282-.944,1.073.739,12.37,1.456,15.991s2.853,13.529-2.187,9.4-10.438-5.458-12.124-4.817-1.343,3.228.6,3.757a24.341,24.341,0,0,1,5.762,3.151,23.319,23.319,0,0,1,3.809,3.638c1.276,1.383,5.915,7.05,7.031,12.748l22.5-9.119" transform="translate(-293.562 -158.402)" fill="#ffbe9d"/>
            </g>
            <g id="Group_11603" data-name="Group 11603" transform="translate(18.624 34.364)">
              <g id="Group_11602" data-name="Group 11602">
                <path id="Path_12122" data-name="Path 12122" d="M322.5,183.735c.024.092-.616.246-1.509.841a5.992,5.992,0,0,0-2.457,3.4l-.207.788-.419-.708a9.91,9.91,0,0,0-2.278-2.617,11.281,11.281,0,0,0-6.187-2.484c-1.745-.16-2.828.157-2.856.02a5.364,5.364,0,0,1,2.879-.539,10.742,10.742,0,0,1,6.629,2.436,9.847,9.847,0,0,1,2.406,2.846l-.625.08a5.991,5.991,0,0,1,2.9-3.574A2.878,2.878,0,0,1,322.5,183.735Z" transform="translate(-306.584 -182.429)" fill="#eb996e"/>
              </g>
            </g>
          </g>
          <g id="Group_11661" data-name="Group 11661" transform="translate(0 104.513)">
            <g id="Group_11605" data-name="Group 11605">
              <path id="Path_12123" data-name="Path 12123" d="M388.881,185.526l-24.919,9.826,7.25,55.86-5.25-8.016L356.1,230.364c-26.4-45.466-60.23-38.276-60.23-38.276l-44.529-3.473s-28.184.506-44.433,18.943c-4.178,4.74-28.346,53.074-38.337,73.218a110.056,110.056,0,0,0,28.207,41.129l25.4-52.487,4.3,18.406a55.8,55.8,0,0,1,.12,30.607l-6.837,19.661a110,110,0,0,0,105.891-1.917l-6.555-15.559a56.692,56.692,0,0,1-3.285-33.008l4.764-23.783L347.18,289.13a73.442,73.442,0,0,0,9.042,8.6h0c12.311,9.78,21.928,10.047,21.928,10.047C420.329,306.083,388.881,185.526,388.881,185.526Z" transform="translate(-168.567 -185.526)" fill="#b0463d"/>
            </g>
            <g id="Group_11606" data-name="Group 11606" transform="translate(65.24 47.88)">
              <path id="Path_12124" data-name="Path 12124" d="M217.45,220.636A1.634,1.634,0,1,1,215.817,219,1.634,1.634,0,0,1,217.45,220.636Z" transform="translate(-214.182 -219.003)" fill="#fafafa"/>
            </g>
            <g id="Group_11607" data-name="Group 11607" transform="translate(53.461 64.904)">
              <path id="Path_12125" data-name="Path 12125" d="M209.214,232.539a1.634,1.634,0,1,1-1.633-1.633A1.634,1.634,0,0,1,209.214,232.539Z" transform="translate(-205.946 -230.906)" fill="#fafafa"/>
            </g>
            <g id="Group_11608" data-name="Group 11608" transform="translate(90.634 47.88)">
              <path id="Path_12126" data-name="Path 12126" d="M235.205,220.636A1.634,1.634,0,1,1,233.57,219,1.635,1.635,0,0,1,235.205,220.636Z" transform="translate(-231.937 -219.003)" fill="#fafafa"/>
            </g>
            <g id="Group_11609" data-name="Group 11609" transform="translate(53.004 13.77)">
              <path id="Path_12127" data-name="Path 12127" d="M208.9,196.787a1.634,1.634,0,1,1-1.633-1.633A1.635,1.635,0,0,1,208.9,196.787Z" transform="translate(-205.627 -195.154)" fill="#fafafa"/>
            </g>
            <g id="Group_11610" data-name="Group 11610" transform="translate(102.389 67.317)">
              <path id="Path_12128" data-name="Path 12128" d="M243.424,234.226a1.634,1.634,0,1,1-1.633-1.633A1.634,1.634,0,0,1,243.424,234.226Z" transform="translate(-240.156 -232.593)" fill="#fafafa"/>
            </g>
            <g id="Group_11611" data-name="Group 11611" transform="translate(122.533 60.437)">
              <path id="Path_12129" data-name="Path 12129" d="M257.509,229.416a1.634,1.634,0,1,1-1.635-1.633A1.635,1.635,0,0,1,257.509,229.416Z" transform="translate(-254.241 -227.783)" fill="#fafafa"/>
            </g>
            <g id="Group_11612" data-name="Group 11612" transform="translate(155.021 44.158)">
              <path id="Path_12130" data-name="Path 12130" d="M280.224,218.036a1.634,1.634,0,1,1-1.635-1.635A1.635,1.635,0,0,1,280.224,218.036Z" transform="translate(-276.956 -216.401)" fill="#fafafa"/>
            </g>
            <g id="Group_11613" data-name="Group 11613" transform="translate(185.145 70.958)">
              <path id="Path_12131" data-name="Path 12131" d="M301.286,236.774a1.634,1.634,0,1,1-1.635-1.635A1.633,1.633,0,0,1,301.286,236.774Z" transform="translate(-298.018 -235.139)" fill="#fafafa"/>
            </g>
            <g id="Group_11614" data-name="Group 11614" transform="translate(201.04 80.079)">
              <path id="Path_12132" data-name="Path 12132" d="M312.4,243.151a1.634,1.634,0,1,1-1.635-1.635A1.634,1.634,0,0,1,312.4,243.151Z" transform="translate(-309.132 -241.516)" fill="#fafafa"/>
            </g>
            <g id="Group_11615" data-name="Group 11615" transform="translate(205.567 103.12)">
              <path id="Path_12133" data-name="Path 12133" d="M315.564,259.261a1.633,1.633,0,1,1-1.633-1.635A1.634,1.634,0,0,1,315.564,259.261Z" transform="translate(-312.297 -257.626)" fill="#fafafa"/>
            </g>
            <g id="Group_11616" data-name="Group 11616" transform="translate(221.07 86.742)">
              <path id="Path_12134" data-name="Path 12134" d="M326.405,247.808a1.634,1.634,0,1,1-1.633-1.633A1.635,1.635,0,0,1,326.405,247.808Z" transform="translate(-323.137 -246.175)" fill="#fafafa"/>
            </g>
            <g id="Group_11617" data-name="Group 11617" transform="translate(210.621 64.904)">
              <path id="Path_12135" data-name="Path 12135" d="M319.1,232.539a1.634,1.634,0,1,1-1.635-1.633A1.635,1.635,0,0,1,319.1,232.539Z" transform="translate(-315.831 -230.906)" fill="#fafafa"/>
            </g>
            <g id="Group_11618" data-name="Group 11618" transform="translate(221.07 46.245)">
              <path id="Path_12136" data-name="Path 12136" d="M326.405,219.495a1.634,1.634,0,1,1-1.633-1.635A1.634,1.634,0,0,1,326.405,219.495Z" transform="translate(-323.137 -217.86)" fill="#fafafa"/>
            </g>
            <g id="Group_11619" data-name="Group 11619" transform="translate(208.038 29.925)">
              <path id="Path_12137" data-name="Path 12137" d="M317.293,208.082a1.634,1.634,0,1,1-1.635-1.633A1.635,1.635,0,0,1,317.293,208.082Z" transform="translate(-314.025 -206.449)" fill="#fafafa"/>
            </g>
            <g id="Group_11620" data-name="Group 11620" transform="translate(217.215 12.135)">
              <path id="Path_12138" data-name="Path 12138" d="M323.709,195.646a1.634,1.634,0,1,1-1.633-1.635A1.633,1.633,0,0,1,323.709,195.646Z" transform="translate(-320.441 -194.011)" fill="#fafafa"/>
            </g>
            <g id="Group_11621" data-name="Group 11621" transform="translate(181.432 94.82)">
              <path id="Path_12139" data-name="Path 12139" d="M298.69,253.456a1.634,1.634,0,1,1-1.633-1.633A1.633,1.633,0,0,1,298.69,253.456Z" transform="translate(-295.422 -251.823)" fill="#fafafa"/>
            </g>
            <g id="Group_11622" data-name="Group 11622" transform="translate(163.231 68.95)">
              <path id="Path_12140" data-name="Path 12140" d="M285.964,235.37a1.634,1.634,0,1,1-1.633-1.635A1.633,1.633,0,0,1,285.964,235.37Z" transform="translate(-282.696 -233.735)" fill="#fafafa"/>
            </g>
            <g id="Group_11623" data-name="Group 11623" transform="translate(185.145 51.696)">
              <path id="Path_12141" data-name="Path 12141" d="M301.286,223.3a1.634,1.634,0,1,1-1.635-1.633A1.634,1.634,0,0,1,301.286,223.3Z" transform="translate(-298.018 -221.671)" fill="#fafafa"/>
            </g>
            <g id="Group_11624" data-name="Group 11624" transform="translate(74.082 26.656)">
              <circle id="Ellipse_3184" data-name="Ellipse 3184" cx="1.634" cy="1.634" r="1.634" fill="#fafafa"/>
            </g>
            <g id="Group_11625" data-name="Group 11625" transform="translate(30.063 63.269)">
              <path id="Path_12142" data-name="Path 12142" d="M192.855,231.4a1.634,1.634,0,1,1-1.633-1.635A1.633,1.633,0,0,1,192.855,231.4Z" transform="translate(-189.587 -229.763)" fill="#fafafa"/>
            </g>
            <g id="Group_11626" data-name="Group 11626" transform="translate(28.43 106.352)">
              <path id="Path_12143" data-name="Path 12143" d="M191.713,261.521a1.634,1.634,0,1,1-1.635-1.635A1.635,1.635,0,0,1,191.713,261.521Z" transform="translate(-188.445 -259.886)" fill="#fafafa"/>
            </g>
            <g id="Group_11627" data-name="Group 11627" transform="translate(14.421 115.66)">
              <circle id="Ellipse_3185" data-name="Ellipse 3185" cx="1.634" cy="1.634" r="1.634" fill="#fafafa"/>
            </g>
            <g id="Group_11628" data-name="Group 11628" transform="translate(68.508 70.958)">
              <path id="Path_12144" data-name="Path 12144" d="M219.735,236.774a1.634,1.634,0,1,1-1.633-1.635A1.633,1.633,0,0,1,219.735,236.774Z" transform="translate(-216.467 -235.139)" fill="#fafafa"/>
            </g>
            <g id="Group_11629" data-name="Group 11629" transform="translate(91.201 81.713)">
              <path id="Path_12145" data-name="Path 12145" d="M235.6,244.292a1.634,1.634,0,1,1-1.635-1.633A1.635,1.635,0,0,1,235.6,244.292Z" transform="translate(-232.334 -242.659)" fill="#fafafa"/>
            </g>
            <g id="Group_11630" data-name="Group 11630" transform="translate(131.84 83.347)">
              <path id="Path_12146" data-name="Path 12146" d="M264.016,245.436a1.634,1.634,0,1,1-1.633-1.635A1.633,1.633,0,0,1,264.016,245.436Z" transform="translate(-260.748 -243.801)" fill="#fafafa"/>
            </g>
            <g id="Group_11631" data-name="Group 11631" transform="translate(142.371 61.636)">
              <path id="Path_12147" data-name="Path 12147" d="M271.379,230.254a1.634,1.634,0,1,1-1.635-1.633A1.635,1.635,0,0,1,271.379,230.254Z" transform="translate(-268.111 -228.621)" fill="#fafafa"/>
            </g>
            <g id="Group_11632" data-name="Group 11632" transform="translate(134.456 137.933)">
              <path id="Path_12148" data-name="Path 12148" d="M265.845,283.6a1.634,1.634,0,1,1-1.635-1.633A1.635,1.635,0,0,1,265.845,283.6Z" transform="translate(-262.577 -281.967)" fill="#fafafa"/>
            </g>
            <g id="Group_11633" data-name="Group 11633" transform="translate(134.456 154.93)">
              <path id="Path_12149" data-name="Path 12149" d="M265.845,295.484a1.634,1.634,0,1,1-1.635-1.633A1.635,1.635,0,0,1,265.845,295.484Z" transform="translate(-262.577 -293.851)" fill="#fafafa"/>
            </g>
            <g id="Group_11634" data-name="Group 11634" transform="translate(140.736 109.621)">
              <path id="Path_12150" data-name="Path 12150" d="M270.236,263.805a1.634,1.634,0,1,1-1.633-1.633A1.633,1.633,0,0,1,270.236,263.805Z" transform="translate(-266.968 -262.172)" fill="#fafafa"/>
            </g>
            <g id="Group_11635" data-name="Group 11635" transform="translate(112.745 96.453)">
              <path id="Path_12151" data-name="Path 12151" d="M250.665,254.6a1.634,1.634,0,1,1-1.633-1.633A1.635,1.635,0,0,1,250.665,254.6Z" transform="translate(-247.397 -252.965)" fill="#fafafa"/>
            </g>
            <g id="Group_11636" data-name="Group 11636" transform="translate(119.265 117.294)">
              <path id="Path_12152" data-name="Path 12152" d="M255.224,269.17a1.634,1.634,0,1,1-1.635-1.633A1.635,1.635,0,0,1,255.224,269.17Z" transform="translate(-251.956 -267.537)" fill="#fafafa"/>
            </g>
            <g id="Group_11637" data-name="Group 11637" transform="translate(87.933 107.987)">
              <path id="Path_12153" data-name="Path 12153" d="M233.317,262.664a1.634,1.634,0,1,1-1.635-1.635A1.635,1.635,0,0,1,233.317,262.664Z" transform="translate(-230.049 -261.029)" fill="#fafafa"/>
            </g>
            <g id="Group_11638" data-name="Group 11638" transform="translate(81.054 146.431)">
              <path id="Path_12154" data-name="Path 12154" d="M228.507,289.542a1.634,1.634,0,1,1-1.635-1.633A1.635,1.635,0,0,1,228.507,289.542Z" transform="translate(-225.239 -287.909)" fill="#fafafa"/>
            </g>
            <g id="Group_11639" data-name="Group 11639" transform="translate(96.416 131.053)">
              <path id="Path_12155" data-name="Path 12155" d="M239.248,278.79a1.634,1.634,0,1,1-1.635-1.633A1.635,1.635,0,0,1,239.248,278.79Z" transform="translate(-235.98 -277.157)" fill="#fafafa"/>
            </g>
            <g id="Group_11640" data-name="Group 11640" transform="translate(63.828 151.692)">
              <path id="Path_12156" data-name="Path 12156" d="M216.463,293.222a1.634,1.634,0,1,1-1.633-1.635A1.633,1.633,0,0,1,216.463,293.222Z" transform="translate(-213.195 -291.587)" fill="#fafafa"/>
            </g>
            <g id="Group_11641" data-name="Group 11641" transform="translate(98.05 160.999)">
              <circle id="Ellipse_3186" data-name="Ellipse 3186" cx="1.634" cy="1.634" r="1.634" fill="#fafafa"/>
            </g>
            <g id="Group_11642" data-name="Group 11642" transform="translate(114.221 148.064)">
              <path id="Path_12157" data-name="Path 12157" d="M251.7,290.686a1.635,1.635,0,1,1-1.635-1.635A1.634,1.634,0,0,1,251.7,290.686Z" transform="translate(-248.429 -289.051)" fill="#fafafa"/>
            </g>
            <g id="Group_11643" data-name="Group 11643" transform="translate(66.875 96.453)">
              <path id="Path_12158" data-name="Path 12158" d="M218.593,254.6a1.634,1.634,0,1,1-1.635-1.633A1.635,1.635,0,0,1,218.593,254.6Z" transform="translate(-215.325 -252.965)" fill="#fafafa"/>
            </g>
            <g id="Group_11644" data-name="Group 11644" transform="translate(67.684 127.816)">
              <circle id="Ellipse_3187" data-name="Ellipse 3187" cx="1.634" cy="1.634" r="1.634" fill="#fafafa"/>
            </g>
            <g id="Group_11645" data-name="Group 11645" transform="translate(11.479 88.375)">
              <path id="Path_12159" data-name="Path 12159" d="M179.861,248.952a1.634,1.634,0,1,1-1.633-1.635A1.633,1.633,0,0,1,179.861,248.952Z" transform="translate(-176.593 -247.317)" fill="#fafafa"/>
            </g>
            <g id="Group_11646" data-name="Group 11646" transform="translate(35.515 86.742)">
              <path id="Path_12160" data-name="Path 12160" d="M196.667,247.808a1.634,1.634,0,1,1-1.633-1.633A1.634,1.634,0,0,1,196.667,247.808Z" transform="translate(-193.399 -246.175)" fill="#fafafa"/>
            </g>
            <g id="Group_11647" data-name="Group 11647" transform="translate(43.419 35.955)">
              <path id="Path_12161" data-name="Path 12161" d="M202.193,212.3a1.634,1.634,0,1,1-1.635-1.633A1.634,1.634,0,0,1,202.193,212.3Z" transform="translate(-198.925 -210.665)" fill="#fafafa"/>
            </g>
            <g id="Group_11648" data-name="Group 11648" transform="translate(53.608 74.224)" opacity="0.2">
              <path id="Path_12162" data-name="Path 12162" d="M206.049,247.091s4.321-9.809,4.112-9.667,4.108,37.373,2.208,48.027C212.369,285.452,210.7,263.715,206.049,247.091Z" transform="translate(-206.049 -237.423)"/>
            </g>
            <g id="Group_11650" data-name="Group 11650" transform="translate(111.503 12.028)" opacity="0.2">
              <g id="Group_11649" data-name="Group 11649">
                <path id="Path_12163" data-name="Path 12163" d="M257.2,208.923l-10.645,11.528c-.362,5.379,3.023,13.222,6.15,17.613,1.416,1.987,3.3,3.963,5.735,4.145a9.547,9.547,0,0,0,3.753-.751l28.4-9.818-2.343-3.82a14.508,14.508,0,0,0,21.382-6.555c-9.767-4.362-16.488-13.657-16.485-24.354l-5.259-2.975Z" transform="translate(-246.528 -193.936)"/>
              </g>
            </g>
            <g id="Group_11652" data-name="Group 11652" transform="translate(82.956 104.267)" opacity="0.2">
              <g id="Group_11651" data-name="Group 11651">
                <path id="Path_12164" data-name="Path 12164" d="M283.518,258.52c.293.8-12.452,6.174-28.137,12.812-15.7,6.621-28.436,12.01-28.8,11.243-.358-.735,11.852-7.373,27.629-14.026C269.968,261.878,283.241,257.751,283.518,258.52Z" transform="translate(-226.569 -258.428)"/>
              </g>
            </g>
            <g id="Group_11654" data-name="Group 11654" transform="translate(202.065 65.274)">
              <g id="Group_11653" data-name="Group 11653">
                <path id="Path_12165" data-name="Path 12165" d="M314.187,254.083c-.164.031-1.264-5.074-2.456-11.4s-2.027-11.483-1.862-11.515,1.263,5.074,2.456,11.4S314.35,254.052,314.187,254.083Z" transform="translate(-309.849 -231.165)" fill="#263238"/>
              </g>
            </g>
            <g id="Group_11656" data-name="Group 11656" transform="translate(202.868 65.654)">
              <g id="Group_11655" data-name="Group 11655">
                <path id="Path_12166" data-name="Path 12166" d="M319.528,251.65a14.487,14.487,0,0,1-1.905-2.66,58.945,58.945,0,0,1-6.47-14.37,14.35,14.35,0,0,1-.729-3.189,22.439,22.439,0,0,1,1.136,3.059c.665,1.9,1.642,4.491,2.9,7.284s2.556,5.243,3.534,7A22.187,22.187,0,0,1,319.528,251.65Z" transform="translate(-310.41 -231.431)" fill="#263238"/>
              </g>
            </g>
            <g id="Group_11658" data-name="Group 11658" transform="translate(42.534 17.783)">
              <g id="Group_11657" data-name="Group 11657">
                <path id="Path_12167" data-name="Path 12167" d="M214.01,246.751a2.005,2.005,0,0,1-.013-.558c.02-.435.046-.96.076-1.592.083-1.476.193-3.45.328-5.845a74.3,74.3,0,0,0-1.106-19.158,34.754,34.754,0,0,0-8.674-16.824,31.36,31.36,0,0,0-6.312-4.811,1.912,1.912,0,0,1,.518.206,14.5,14.5,0,0,1,1.422.732,23,23,0,0,1,4.674,3.57c3.613,3.425,7.351,9.537,8.962,17a69.214,69.214,0,0,1,.943,19.312c-.174,2.47-.37,4.462-.519,5.838-.076.629-.137,1.151-.189,1.583A1.954,1.954,0,0,1,214.01,246.751Z" transform="translate(-198.306 -197.96)" fill="#263238"/>
              </g>
            </g>
            <g id="Group_11660" data-name="Group 11660" transform="translate(150.888 46.611)">
              <g id="Group_11659" data-name="Group 11659">
                <path id="Path_12168" data-name="Path 12168" d="M274.1,218.116a19.374,19.374,0,0,1,.628,3.657c.28,2.274.549,5.433.632,8.932s-.039,6.668-.212,8.952a19.235,19.235,0,0,1-.456,3.683,27.2,27.2,0,0,1,.029-3.7c.064-2.283.116-5.436.036-8.917s-.283-6.626-.453-8.9A26.581,26.581,0,0,1,274.1,218.116Z" transform="translate(-274.066 -218.116)" fill="#263238"/>
              </g>
            </g>
          </g>
          <g id="Group_11662" data-name="Group 11662" transform="translate(87.933 13.916)">
            <path id="Path_12169" data-name="Path 12169" d="M230.049,214.68c.905-11.352,14-4.445,12.545-15.738a477.149,477.149,0,0,1-3.676-76.76" transform="translate(-230.049 -122.181)" fill="#263238"/>
          </g>
          <g id="Group_11663" data-name="Group 11663" transform="translate(73.083 11.057)">
            <path id="Path_12170" data-name="Path 12170" d="M274.258,215.837l5.064-77.587c-12.946-17.768-30.391-21.524-51.62-15.209,0,0-9.015,37.5-7.949,55.421,1.117,18.79,15.066,22.54,15.066,22.54s-.492,6.326-1.171,14.066c-3.611.591-7.4,1.36-11.349,2.343-1.519.378,28.085,43.139,28.085,43.139l36.934-40S282.859,217.9,274.258,215.837Z" transform="translate(-219.666 -120.183)" fill="#ffbe9d"/>
          </g>
          <g id="Group_11707" data-name="Group 11707" transform="translate(76.996 36.077)">
            <g id="Group_11690" data-name="Group 11690" transform="translate(1.268 3.107)">
              <g id="Group_11689" data-name="Group 11689">
                <g id="Group_11688" data-name="Group 11688">
                  <g id="Group_11687" data-name="Group 11687">
                    <g id="Group_11686" data-name="Group 11686">
                      <g id="Group_11669" data-name="Group 11669">
                        <g id="Group_11665" data-name="Group 11665" transform="translate(2.856 2.186)">
                          <g id="Group_11664" data-name="Group 11664">
                            <path id="Path_12171" data-name="Path 12171" d="M225.3,143.305a2.384,2.384,0,0,0,2.052,2.619,2.279,2.279,0,0,0,2.656-1.9,2.385,2.385,0,0,0-2.049-2.62A2.281,2.281,0,0,0,225.3,143.305Z" transform="translate(-225.285 -141.377)" fill="#263238"/>
                          </g>
                        </g>
                        <g id="Group_11668" data-name="Group 11668">
                          <g id="Group_11667" data-name="Group 11667">
                            <g id="Group_11666" data-name="Group 11666">
                              <path id="Path_12172" data-name="Path 12172" d="M223.317,141.917c.263.339,2.191-.814,4.744-.556,2.554.222,4.3,1.719,4.607,1.433.149-.124-.1-.712-.852-1.387a6.543,6.543,0,0,0-3.65-1.53,6.285,6.285,0,0,0-3.814.83C223.505,141.231,223.185,141.764,223.317,141.917Z" transform="translate(-223.288 -139.848)" fill="#263238"/>
                            </g>
                          </g>
                        </g>
                      </g>
                      <g id="Group_11675" data-name="Group 11675" transform="translate(26.13 2.983)">
                        <g id="Group_11671" data-name="Group 11671" transform="translate(2.82 2.226)">
                          <g id="Group_11670" data-name="Group 11670">
                            <path id="Path_12173" data-name="Path 12173" d="M243.549,145.419a2.385,2.385,0,0,0,2.052,2.619,2.281,2.281,0,0,0,2.657-1.9,2.386,2.386,0,0,0-2.051-2.62A2.282,2.282,0,0,0,243.549,145.419Z" transform="translate(-243.529 -143.491)" fill="#263238"/>
                          </g>
                        </g>
                        <g id="Group_11674" data-name="Group 11674">
                          <g id="Group_11673" data-name="Group 11673">
                            <g id="Group_11672" data-name="Group 11672">
                              <path id="Path_12174" data-name="Path 12174" d="M241.585,144c.265.338,2.2-.815,4.746-.556,2.554.22,4.3,1.719,4.607,1.433.149-.126-.093-.712-.854-1.387a6.534,6.534,0,0,0-3.649-1.53,6.288,6.288,0,0,0-3.814.83C241.778,143.317,241.455,143.85,241.585,144Z" transform="translate(-241.558 -141.934)" fill="#263238"/>
                            </g>
                          </g>
                        </g>
                      </g>
                      <g id="Group_11678" data-name="Group 11678" transform="translate(8.376 1.49)">
                        <g id="Group_11677" data-name="Group 11677">
                          <g id="Group_11676" data-name="Group 11676">
                            <path id="Path_12175" data-name="Path 12175" d="M235.48,162.052c.026-.143-1.535-.574-4.075-1.156-.645-.132-1.249-.322-1.316-.778a3.339,3.339,0,0,1,.626-1.889q1.152-2.276,2.417-4.774c3.372-6.806,5.883-12.427,5.608-12.562s-3.234,5.275-6.606,12.08q-1.223,2.521-2.338,4.813a3.793,3.793,0,0,0-.591,2.526,1.642,1.642,0,0,0,.978,1.058,4.477,4.477,0,0,0,1.093.263C233.851,162.027,235.455,162.2,235.48,162.052Z" transform="translate(-229.145 -140.89)" fill="#263238"/>
                          </g>
                        </g>
                      </g>
                      <g id="Group_11680" data-name="Group 11680" transform="translate(9.793 48.521)">
                        <g id="Group_11679" data-name="Group 11679">
                          <path id="Path_12176" data-name="Path 12176" d="M230.315,177.946a47.3,47.3,0,0,0,25.429-4.172s-7.263,12.118-25.61,8.564Z" transform="translate(-230.135 -173.774)" fill="#eb996e"/>
                        </g>
                      </g>
                      <g id="Group_11682" data-name="Group 11682" transform="translate(14.874 27.51)">
                        <g id="Group_11681" data-name="Group 11681">
                          <path id="Path_12177" data-name="Path 12177" d="M234,160.485a4.622,4.622,0,0,1,4.292-1.3,4.227,4.227,0,0,1,2.749,1.842,2.677,2.677,0,0,1-.1,3.064,3.1,3.1,0,0,1-3.431.516,9.715,9.715,0,0,1-3.072-2.27,2.855,2.855,0,0,1-.655-.825.86.86,0,0,1,.1-.951" transform="translate(-233.688 -159.083)" fill="#eb996e"/>
                        </g>
                      </g>
                      <g id="Group_11685" data-name="Group 11685" transform="translate(13.245 25.156)">
                        <g id="Group_11684" data-name="Group 11684">
                          <g id="Group_11683" data-name="Group 11683">
                            <path id="Path_12178" data-name="Path 12178" d="M241.355,157.438c-.413-.064-.691,2.706-3.257,4.441s-5.486,1.138-5.546,1.523c-.056.17.6.6,1.849.759a6.928,6.928,0,0,0,4.614-1.116,6.041,6.041,0,0,0,2.553-3.74C241.788,158.158,241.547,157.441,241.355,157.438Z" transform="translate(-232.549 -157.437)" fill="#263238"/>
                          </g>
                        </g>
                      </g>
                    </g>
                  </g>
                </g>
              </g>
            </g>
            <g id="Group_11692" data-name="Group 11692" transform="translate(1.911)">
              <g id="Group_11691" data-name="Group 11691">
                <path id="Path_12179" data-name="Path 12179" d="M231.862,139.111c-.153.39-1.915.03-4.058.034-2.142-.029-3.907.312-4.056-.082-.162-.356,1.608-1.409,4.065-1.387S232.026,138.754,231.862,139.111Z" transform="translate(-223.738 -137.676)" fill="#263238"/>
              </g>
            </g>
            <g id="Group_11694" data-name="Group 11694" transform="translate(27.221 0.001)">
              <g id="Group_11693" data-name="Group 11693">
                <path id="Path_12180" data-name="Path 12180" d="M249.951,140.214c-.08-.056-.087-.206-.029-.438l.064.375a17.668,17.668,0,0,0-4-.983c-2.411-.255-4.334.533-4.54.164-.093-.166.292-.616,1.126-1.028a6.788,6.788,0,0,1,3.543-.6,5.917,5.917,0,0,1,4.189,2l.18.293-.116.082C250.172,140.223,250.029,140.269,249.951,140.214Z" transform="translate(-241.434 -137.677)" fill="#263238"/>
              </g>
            </g>
            <g id="Group_11696" data-name="Group 11696" transform="translate(35.94 17.844)">
              <g id="Group_11695" data-name="Group 11695">
                <path id="Path_12181" data-name="Path 12181" d="M247.982,151.483c-.2.024-.4-.255-.442-.622s.084-.684.286-.708.4.255.442.622S248.183,151.459,247.982,151.483Z" transform="translate(-247.531 -150.152)" fill="#eb996e"/>
              </g>
            </g>
            <g id="Group_11698" data-name="Group 11698" transform="translate(30.285 17.825)">
              <g id="Group_11697" data-name="Group 11697">
                <path id="Path_12182" data-name="Path 12182" d="M243.829,151.236c-.2-.013-.339-.342-.189-.7s.483-.483.631-.349a.573.573,0,0,1,.044.635C244.214,151.057,244.033,151.25,243.829,151.236Z" transform="translate(-243.577 -150.139)" fill="#eb996e"/>
              </g>
            </g>
            <g id="Group_11700" data-name="Group 11700" transform="translate(33.365 20.545)">
              <g id="Group_11699" data-name="Group 11699">
                <path id="Path_12183" data-name="Path 12183" d="M246.069,152.945a.463.463,0,1,1,.395-.429A.417.417,0,0,1,246.069,152.945Z" transform="translate(-245.73 -152.041)" fill="#eb996e"/>
              </g>
            </g>
            <g id="Group_11702" data-name="Group 11702" transform="translate(0 16.448)">
              <g id="Group_11701" data-name="Group 11701">
                <path id="Path_12184" data-name="Path 12184" d="M222.694,150.506c-.2-.026-.328-.342-.283-.709s.245-.644.446-.619.328.342.283.709S222.9,150.53,222.694,150.506Z" transform="translate(-222.402 -149.176)" fill="#eb996e"/>
              </g>
            </g>
            <g id="Group_11704" data-name="Group 11704" transform="translate(5.851 16.811)">
              <g id="Group_11703" data-name="Group 11703">
                <path id="Path_12185" data-name="Path 12185" d="M226.831,150.514c-.2-.01-.353-.262-.336-.562s.193-.533.395-.522.353.263.338.562S227.034,150.526,226.831,150.514Z" transform="translate(-226.493 -149.43)" fill="#eb996e"/>
              </g>
            </g>
            <g id="Group_11706" data-name="Group 11706" transform="translate(2.939 18.437)">
              <g id="Group_11705" data-name="Group 11705">
                <path id="Path_12186" data-name="Path 12186" d="M224.829,151.893c-.2,0-.369-.295-.372-.661s.159-.664.362-.665.369.295.372.661S225.032,151.891,224.829,151.893Z" transform="translate(-224.457 -150.567)" fill="#eb996e"/>
              </g>
            </g>
          </g>
          <g id="Group_11715" data-name="Group 11715" transform="translate(52.903 0.605)">
            <g id="Group_11708" data-name="Group 11708" transform="translate(14.041)">
              <path id="Path_12187" data-name="Path 12187" d="M247.415,117.259a41.248,41.248,0,0,1-10.5,24.074c-6,6.593-12.773,12.351-21.544,13.94,2.383-7.559,2.892-13.642,4.828-19.943s4.633-12.65,9.565-17.025a22.369,22.369,0,0,1,23.055-3.763" transform="translate(-215.374 -112.875)" fill="#263238"/>
            </g>
            <g id="Group_11710" data-name="Group 11710" transform="translate(15.916 11.375)">
              <g id="Group_11709" data-name="Group 11709">
                <path id="Path_12188" data-name="Path 12188" d="M216.685,144.736a23.786,23.786,0,0,0,5.6-.712,19.159,19.159,0,0,0,5.456-2.693,45.4,45.4,0,0,0,5.735-4.86,64.686,64.686,0,0,0,8.37-10.827l2.205-3.54a7.638,7.638,0,0,1,.851-1.276,7.307,7.307,0,0,1-.646,1.393c-.456.875-1.143,2.128-2.047,3.647A57.349,57.349,0,0,1,233.9,136.9a42.663,42.663,0,0,1-5.85,4.893,18.7,18.7,0,0,1-5.655,2.645,14.751,14.751,0,0,1-4.182.471A5.94,5.94,0,0,1,216.685,144.736Z" transform="translate(-216.685 -120.827)" fill="#455a64"/>
              </g>
            </g>
            <g id="Group_11712" data-name="Group 11712" transform="translate(0 36.199)">
              <g id="Group_11711" data-name="Group 11711">
                <path id="Path_12189" data-name="Path 12189" d="M227.162,138.185a4.814,4.814,0,0,1-.528.7c-.358.446-.872,1.116-1.469,2.02a24.957,24.957,0,0,0-3.561,8.38,24,24,0,0,0-.572,6.26,42.381,42.381,0,0,0,1.08,7.173,45.116,45.116,0,0,1,1.2,8.026,18.393,18.393,0,0,1-1.812,8.534,18.763,18.763,0,0,1-5.475,6.8c-2.271,1.718-4.753,2.859-6.685,4.5-1.931,1.6-3.331,3.77-3.282,6.01a12.437,12.437,0,0,0,1.977,5.848,29.11,29.11,0,0,1,2.4,4.7,9.659,9.659,0,0,1,.624,3.946,5.062,5.062,0,0,1-.767,2.4,3,3,0,0,1-.558.681c-.029-.023.18-.247.453-.742a5.227,5.227,0,0,0,.636-2.356,9.661,9.661,0,0,0-.707-3.816,29.837,29.837,0,0,0-2.454-4.6,12.759,12.759,0,0,1-2.107-6.058,6.924,6.924,0,0,1,.937-3.514,11.067,11.067,0,0,1,2.487-2.922c2-1.711,4.494-2.868,6.686-4.542a18.275,18.275,0,0,0,5.289-6.591,17.914,17.914,0,0,0,1.765-8.261,45.442,45.442,0,0,0-1.154-7.928,41.925,41.925,0,0,1-1.035-7.267,24.557,24.557,0,0,1,4.439-14.791,20.024,20.024,0,0,1,1.57-1.965A4.844,4.844,0,0,1,227.162,138.185Z" transform="translate(-205.556 -138.185)" fill="#455a64"/>
              </g>
            </g>
            <g id="Group_11714" data-name="Group 11714" transform="translate(0.557 13.885)">
              <g id="Group_11713" data-name="Group 11713">
                <path id="Path_12190" data-name="Path 12190" d="M205.946,184.17c.039-.017.14.328.5.877a5.42,5.42,0,0,0,2.125,1.869,7.094,7.094,0,0,0,4.394.622,6.908,6.908,0,0,0,4.677-3.36,10.847,10.847,0,0,0,1.346-6.978,18.348,18.348,0,0,0-3.205-7.655c-1.618-2.489-3.849-4.724-5.618-7.524a13.085,13.085,0,0,1-1.872-4.685,11.7,11.7,0,0,1,.276-5.2,12.719,12.719,0,0,1,6.447-7.692,16.441,16.441,0,0,1,4.625-1.469c1.536-.319,3.028-.631,4.455-1.037,5.81-1.483,9.969-5.186,13.41-8.032a39.918,39.918,0,0,0,7.175-7.853,21.2,21.2,0,0,0,1.785-3.474,6.3,6.3,0,0,1-.287.978,15.837,15.837,0,0,1-1.3,2.622,38.139,38.139,0,0,1-7.091,8.048,63.816,63.816,0,0,1-5.815,4.614,24.622,24.622,0,0,1-7.725,3.634c-1.449.419-2.959.742-4.488,1.066a15.931,15.931,0,0,0-4.472,1.429,12.158,12.158,0,0,0-6.14,7.333,11.144,11.144,0,0,0-.265,4.926,12.516,12.516,0,0,0,1.783,4.478c1.7,2.72,3.94,4.986,5.578,7.527a18.756,18.756,0,0,1,3.239,7.9A11.254,11.254,0,0,1,218,184.4a7.122,7.122,0,0,1-9.542,2.72,5.32,5.32,0,0,1-2.12-2.012A3.277,3.277,0,0,1,205.946,184.17Z" transform="translate(-205.946 -122.583)" fill="#263238"/>
              </g>
            </g>
          </g>
          <g id="Group_11730" data-name="Group 11730" transform="translate(95.722 0.854)">
            <g id="Group_11717" data-name="Group 11717" transform="translate(39.089 30.783)">
              <g id="Group_11716" data-name="Group 11716">
                <path id="Path_12191" data-name="Path 12191" d="M291.288,224.984a24.222,24.222,0,0,0,2.273-3.593,18.121,18.121,0,0,0,1.485-4.733,17.707,17.707,0,0,0-.092-6.535A16.262,16.262,0,0,0,291.631,203a43.8,43.8,0,0,0-6.714-6.246,30.654,30.654,0,0,1-7.107-7.4,13.6,13.6,0,0,1-1.979-5.116,10.632,10.632,0,0,1,.734-5.6c1.439-3.571,3.957-6.369,5.3-9.59a9.785,9.785,0,0,0,.78-4.94,9.958,9.958,0,0,0-1.879-4.428,23.752,23.752,0,0,0-6.935-5.865,37.135,37.135,0,0,1-6.532-4.764,16.118,16.118,0,0,1-3.756-5.518,9.64,9.64,0,0,1-.625-4.99,10.193,10.193,0,0,1,.436-1.795c.216-.489.368-.917.551-1.233l.422-.712a.142.142,0,1,1,.053.03l-.366.737c-.163.32-.293.749-.489,1.236a10.469,10.469,0,0,0-.373,1.768,9.531,9.531,0,0,0,.707,4.836,15.96,15.96,0,0,0,3.74,5.338,37.312,37.312,0,0,0,6.5,4.644,24.113,24.113,0,0,1,7.118,5.963,10.5,10.5,0,0,1,2,4.677,10.362,10.362,0,0,1-.805,5.246c-1.4,3.341-3.917,6.15-5.289,9.584a10.057,10.057,0,0,0-.7,5.293,13.091,13.091,0,0,0,1.889,4.891,30.351,30.351,0,0,0,6.957,7.28,43.643,43.643,0,0,1,6.754,6.363,16.607,16.607,0,0,1,3.348,7.354,18.115,18.115,0,0,1-1.6,11.453,16.208,16.208,0,0,1-1.736,2.667c-.22.25-.4.455-.545.622C291.364,224.924,291.3,224.99,291.288,224.984Z" transform="translate(-262.825 -134.572)" fill="#455a64"/>
              </g>
            </g>
            <g id="Group_11729" data-name="Group 11729">
              <g id="Group_11718" data-name="Group 11718">
                <path id="Path_12192" data-name="Path 12192" d="M293.575,231.193c-.974-8.5-2.645-12.008-2.593-20.562.047-7.836-7.206-18.261-2.725-27.468a104.257,104.257,0,0,0-6.206-16.914c-1.5-3.4-6.958-13.713-8.343-17.17.907-6.369,5.482-5.893,4.6-12.243-1.057-7.62-4.647-15.249-11.121-19.4-4.055-2.6-8.912-3.663-13.706-4.148a27.8,27.8,0,0,0-10,.456,12.986,12.986,0,0,0-7.989,5.692l1.676-1.609c-1.539,7.09.92,14.713,5.622,20.238s11.436,9.072,18.473,10.835a14.062,14.062,0,0,0,1.552,6.851l-.176.236c.143.069.276.152.413.227a13.4,13.4,0,0,0,4.258,4.645,10.446,10.446,0,0,1-.031,9.231c-1.766,3.3-5.335,5.669-6.054,9.345-.808,4.126,2.337,8.084,2.268,12.289A13.309,13.309,0,0,1,261.4,198c-7.635,9.8-6.287,19.9-1.969,31.547,1.606,4.334,4.079,8.856,2.819,13.3-1.186,4.189-5.4,6.952-6.729,11.1-1.845,5.761,2.407,11.531,6.38,16.092a135.632,135.632,0,0,1,26.426-8.729,47.919,47.919,0,0,1-1.352-11.641,10.148,10.148,0,0,0,18.968,2.869C298.4,248.5,294.549,239.692,293.575,231.193Z" transform="translate(-235.495 -113.049)" fill="#263238"/>
              </g>
              <g id="Group_11720" data-name="Group 11720" transform="translate(1.306 11.126)">
                <g id="Group_11719" data-name="Group 11719">
                  <path id="Path_12193" data-name="Path 12193" d="M281.011,137c.014.016-.13.157-.416.415s-.7.652-1.3,1.077a25.568,25.568,0,0,1-5.352,3.125,27.545,27.545,0,0,1-8.92,2.231,27.025,27.025,0,0,1-11.159-1.445,26.01,26.01,0,0,1-9.467-6.083,28.494,28.494,0,0,1-5.369-7.466,29,29,0,0,1-2.185-5.8c-.2-.7-.276-1.27-.356-1.646a2.141,2.141,0,0,1-.076-.582,22.354,22.354,0,0,1,.658,2.164,32.682,32.682,0,0,0,2.34,5.667,29.049,29.049,0,0,0,5.381,7.267,25.962,25.962,0,0,0,9.279,5.91,27.011,27.011,0,0,0,10.913,1.457,28.073,28.073,0,0,0,8.794-2.07A35.65,35.65,0,0,0,281.011,137Z" transform="translate(-236.408 -120.828)" fill="#455a64"/>
                </g>
              </g>
              <g id="Group_11722" data-name="Group 11722" transform="translate(13.506 5.848)">
                <g id="Group_11721" data-name="Group 11721">
                  <path id="Path_12194" data-name="Path 12194" d="M276.018,129.133a5.505,5.505,0,0,1-1.337.426,24.294,24.294,0,0,1-3.78.614,27.9,27.9,0,0,1-22.868-8.827,24.275,24.275,0,0,1-2.387-2.992,5.61,5.61,0,0,1-.705-1.214c.094-.067,1.156,1.635,3.4,3.91a29.15,29.15,0,0,0,22.53,8.7C274.065,129.57,275.994,129.02,276.018,129.133Z" transform="translate(-244.938 -117.138)" fill="#455a64"/>
                </g>
              </g>
              <g id="Group_11724" data-name="Group 11724" transform="translate(35.72 22.035)">
                <g id="Group_11723" data-name="Group 11723">
                  <path id="Path_12195" data-name="Path 12195" d="M270.659,128.461a11.818,11.818,0,0,1-10.189,5.149c-.023-.189,2.639-.339,5.485-1.8C268.821,130.384,270.522,128.331,270.659,128.461Z" transform="translate(-260.47 -128.455)" fill="#455a64"/>
                </g>
              </g>
              <g id="Group_11726" data-name="Group 11726" transform="translate(33.121 33.761)">
                <g id="Group_11725" data-name="Group 11725">
                  <path id="Path_12196" data-name="Path 12196" d="M269.335,253.464c-.029.006-.12-.462-.368-1.322a6.359,6.359,0,0,0-2.1-3.2c-.648-.543-1.476-1.027-2.276-1.728a7.783,7.783,0,0,1-2.008-2.779,12.268,12.268,0,0,1-.609-1.814,8.952,8.952,0,0,1-.339-2.015,6.874,6.874,0,0,1,1.127-4.272,9.52,9.52,0,0,1,3.71-3.152,7.058,7.058,0,0,0,3.487-3.5,6.046,6.046,0,0,0,.5-2.563,7.94,7.94,0,0,0-.645-2.649,38.336,38.336,0,0,0-2.9-5.1,20.642,20.642,0,0,1-3.038-12.306,20.973,20.973,0,0,1,5.209-12.54c1.459-1.778,2.872-3.713,2.843-5.937a10.48,10.48,0,0,0-2.368-5.973c-1.266-1.766-2.8-3.332-3.965-5.149a9.8,9.8,0,0,1-1.931-5.988,10.03,10.03,0,0,1,2.6-5.389,18.542,18.542,0,0,0,3.056-4.564,10.763,10.763,0,0,0-.249-9.462,10.393,10.393,0,0,0-2.9-3.121c-1.088-.828-2.193-1.522-3.182-2.24a10.5,10.5,0,0,1-2.516-2.323,9.7,9.7,0,0,1-1.343-2.547,6.808,6.808,0,0,1-.328-3.926,3.072,3.072,0,0,1,.586-1.249,6.607,6.607,0,0,0-.468,1.277,6.863,6.863,0,0,0,.429,3.817,9.532,9.532,0,0,0,1.354,2.454,10.232,10.232,0,0,0,2.48,2.22c.988.7,2.1,1.379,3.218,2.208a10.756,10.756,0,0,1,3.035,3.212,11.186,11.186,0,0,1,.34,9.873,18.912,18.912,0,0,1-3.1,4.7,9.517,9.517,0,0,0-2.464,5.1,9.26,9.26,0,0,0,1.856,5.629c1.133,1.759,2.655,3.307,3.963,5.12a11.031,11.031,0,0,1,2.489,6.324,7.133,7.133,0,0,1-.933,3.423,19.66,19.66,0,0,1-2.041,2.888,20.414,20.414,0,0,0-5.089,12.2,20.114,20.114,0,0,0,2.923,11.98,38.363,38.363,0,0,1,2.918,5.189,8.467,8.467,0,0,1,.671,2.835,6.56,6.56,0,0,1-.562,2.782,7.537,7.537,0,0,1-3.736,3.711,9.1,9.1,0,0,0-3.563,2.971,6.5,6.5,0,0,0-1.1,4.018,11.921,11.921,0,0,0,.874,3.713,7.526,7.526,0,0,0,1.891,2.7c.759.689,1.579,1.19,2.235,1.762a6.327,6.327,0,0,1,2.065,3.35,9.562,9.562,0,0,1,.209,1.008A1.42,1.42,0,0,1,269.335,253.464Z" transform="translate(-258.653 -136.654)" fill="#455a64"/>
                </g>
              </g>
              <g id="Group_11728" data-name="Group 11728" transform="translate(3.617 5.703)">
                <g id="Group_11727" data-name="Group 11727">
                  <path id="Path_12197" data-name="Path 12197" d="M280.506,136.391a2.316,2.316,0,0,1-.345.493,14.453,14.453,0,0,1-1.137,1.3,19.614,19.614,0,0,1-5.14,3.72,20.9,20.9,0,0,1-9.141,2.2,24.91,24.91,0,0,1-11.207-2.616,17.086,17.086,0,0,1-4.783-3.647,18.106,18.106,0,0,1-3.021-4.713c-1.473-3.245-2.33-6.314-3.32-8.779a23.215,23.215,0,0,0-2.918-5.531c-.885-1.19-1.522-1.726-1.469-1.781a2.216,2.216,0,0,1,.465.382,10.735,10.735,0,0,1,1.19,1.254,21.5,21.5,0,0,1,3.128,5.515c1.048,2.467,1.954,5.531,3.427,8.7a17.788,17.788,0,0,0,2.955,4.55,16.648,16.648,0,0,0,4.625,3.51,24.792,24.792,0,0,0,10.926,2.6,20.758,20.758,0,0,0,14.118-5.532C279.945,137,280.456,136.35,280.506,136.391Z" transform="translate(-238.024 -117.036)" fill="#455a64"/>
                </g>
              </g>
            </g>
          </g>
        </g>
      </g>
    </g>
    <g id="Starts" transform="translate(51.032 36.743)">
      <g id="Group_11751" data-name="Group 11751" transform="translate(138.309 354.332)">
        <g id="Group_11737" data-name="Group 11737">
          <g id="Group_11734" data-name="Group 11734" transform="translate(0 34.686)">
            <g id="Group_11733" data-name="Group 11733">
              <path id="Path_12198" data-name="Path 12198" d="M169.79,309.113c0,.206-4.937.372-11.026.372s-11.029-.166-11.029-.372,4.937-.373,11.029-.373S169.79,308.907,169.79,309.113Z" transform="translate(-147.736 -308.74)" fill="#455a64"/>
            </g>
          </g>
          <g id="Group_11736" data-name="Group 11736" transform="translate(33.393)">
            <g id="Group_11735" data-name="Group 11735">
              <path id="Path_12199" data-name="Path 12199" d="M171.456,284.488c.206,0,.372,5.855.372,13.077s-.166,13.078-.372,13.078-.372-5.854-.372-13.078S171.25,284.488,171.456,284.488Z" transform="translate(-171.084 -284.488)" fill="#455a64"/>
            </g>
          </g>
        </g>
        <g id="Group_11742" data-name="Group 11742" transform="translate(34.154 33.848)">
          <g id="Group_11739" data-name="Group 11739" transform="translate(12.083)">
            <g id="Group_11738" data-name="Group 11738">
              <path id="Path_12200" data-name="Path 12200" d="M180.064,308.526c0-.206,4.937-.372,11.027-.372s11.027.166,11.027.372-4.936.372-11.027.372S180.064,308.732,180.064,308.526Z" transform="translate(-180.064 -308.154)" fill="#455a64"/>
            </g>
          </g>
          <g id="Group_11741" data-name="Group 11741" transform="translate(0 9.276)">
            <g id="Group_11740" data-name="Group 11740">
              <path id="Path_12201" data-name="Path 12201" d="M171.988,340.793c-.2,0-.372-5.854-.372-13.075s.167-13.078.372-13.078.373,5.854.373,13.078S172.194,340.793,171.988,340.793Z" transform="translate(-171.616 -314.64)" fill="#455a64"/>
            </g>
          </g>
        </g>
        <g id="Group_11744" data-name="Group 11744" transform="translate(44.498 43.263)">
          <g id="Group_11743" data-name="Group 11743">
            <path id="Path_12202" data-name="Path 12202" d="M186.7,325.715c-.167.119-2.058-2.241-4.222-5.27s-3.784-5.584-3.617-5.7,2.057,2.24,4.222,5.27S186.867,325.6,186.7,325.715Z" transform="translate(-178.849 -314.737)" fill="#455a64"/>
          </g>
        </g>
        <g id="Group_11746" data-name="Group 11746" transform="translate(43.168 14.476)">
          <g id="Group_11745" data-name="Group 11745">
            <path id="Path_12203" data-name="Path 12203" d="M186.07,294.616c.156.133-1.539,2.39-3.786,5.04s-4.2,4.691-4.355,4.558,1.538-2.39,3.786-5.04S185.913,294.483,186.07,294.616Z" transform="translate(-177.919 -294.61)" fill="#455a64"/>
          </g>
        </g>
        <g id="Group_11748" data-name="Group 11748" transform="translate(18.284 17.064)">
          <g id="Group_11747" data-name="Group 11747">
            <path id="Path_12204" data-name="Path 12204" d="M168.279,303.966c-.143.147-2-1.42-4.135-3.5s-3.76-3.889-3.616-4.036,1.994,1.42,4.135,3.5S168.422,303.819,168.279,303.966Z" transform="translate(-160.52 -296.419)" fill="#455a64"/>
          </g>
        </g>
        <g id="Group_11750" data-name="Group 11750" transform="translate(17.65 42.129)">
          <g id="Group_11749" data-name="Group 11749">
            <path id="Path_12205" data-name="Path 12205" d="M167.477,313.95c.163.126-1.36,2.35-3.4,4.967s-3.826,4.637-3.987,4.51,1.36-2.35,3.4-4.967S167.316,313.822,167.477,313.95Z" transform="translate(-160.077 -313.944)" fill="#455a64"/>
          </g>
        </g>
      </g>
      <g id="Group_11770" data-name="Group 11770" transform="translate(545.216 185.482)">
        <g id="Group_11756" data-name="Group 11756">
          <g id="Group_11753" data-name="Group 11753" transform="translate(0 12.762)">
            <g id="Group_11752" data-name="Group 11752">
              <path id="Path_12206" data-name="Path 12206" d="M440.5,175.725c0,.206-1.849.373-4.131.373s-4.132-.167-4.132-.373,1.849-.372,4.132-.372S440.5,175.52,440.5,175.725Z" transform="translate(-432.241 -175.353)" fill="#455a64"/>
            </g>
          </g>
          <g id="Group_11755" data-name="Group 11755" transform="translate(12.277)">
            <g id="Group_11754" data-name="Group 11754">
              <path id="Path_12207" data-name="Path 12207" d="M441.2,166.43c.206,0,.373,2.194.373,4.9s-.167,4.9-.373,4.9-.372-2.193-.372-4.9S440.992,166.43,441.2,166.43Z" transform="translate(-440.825 -166.43)" fill="#455a64"/>
            </g>
          </g>
        </g>
        <g id="Group_11761" data-name="Group 11761" transform="translate(12.562 12.447)">
          <g id="Group_11758" data-name="Group 11758" transform="translate(4.76)">
            <g id="Group_11757" data-name="Group 11757">
              <path id="Path_12208" data-name="Path 12208" d="M444.352,175.506c0-.206,1.849-.373,4.13-.373s4.132.167,4.132.373-1.849.372-4.132.372S444.352,175.711,444.352,175.506Z" transform="translate(-444.352 -175.133)" fill="#455a64"/>
            </g>
          </g>
          <g id="Group_11760" data-name="Group 11760" transform="translate(0 3.709)">
            <g id="Group_11759" data-name="Group 11759">
              <path id="Path_12209" data-name="Path 12209" d="M441.4,187.524c-.206,0-.373-2.194-.373-4.9s.167-4.9.373-4.9.372,2.194.372,4.9S441.6,187.524,441.4,187.524Z" transform="translate(-441.024 -177.726)" fill="#455a64"/>
            </g>
          </g>
        </g>
        <g id="Group_11763" data-name="Group 11763" transform="translate(16.644 16.199)">
          <g id="Group_11762" data-name="Group 11762">
            <path id="Path_12210" data-name="Path 12210" d="M446.846,181.878c-.167.12-.96-.7-1.771-1.839s-1.333-2.152-1.166-2.271.96.7,1.771,1.839S447.013,181.758,446.846,181.878Z" transform="translate(-443.878 -177.756)" fill="#455a64"/>
          </g>
        </g>
        <g id="Group_11765" data-name="Group 11765" transform="translate(16.149 5.41)">
          <g id="Group_11764" data-name="Group 11764">
            <path id="Path_12211" data-name="Path 12211" d="M446.608,170.229c.157.133-.4,1.046-1.24,2.038s-1.652,1.691-1.809,1.558.4-1.046,1.241-2.04S446.452,170.1,446.608,170.229Z" transform="translate(-443.532 -170.213)" fill="#455a64"/>
          </g>
        </g>
        <g id="Group_11767" data-name="Group 11767" transform="translate(6.829 6.372)">
          <g id="Group_11766" data-name="Group 11766">
            <path id="Path_12212" data-name="Path 12212" d="M439.944,173.734c-.144.147-.91-.365-1.712-1.146s-1.336-1.53-1.193-1.678.91.365,1.712,1.144S440.087,173.587,439.944,173.734Z" transform="translate(-437.016 -170.885)" fill="#455a64"/>
          </g>
        </g>
        <g id="Group_11769" data-name="Group 11769" transform="translate(6.585 15.77)">
          <g id="Group_11768" data-name="Group 11768">
            <path id="Path_12213" data-name="Path 12213" d="M439.645,177.472c.162.126-.326,1.023-1.091,2s-1.515,1.673-1.678,1.546.326-1.023,1.091-2S439.482,177.344,439.645,177.472Z" transform="translate(-436.845 -177.456)" fill="#455a64"/>
          </g>
        </g>
      </g>
      <g id="Group_11789" data-name="Group 11789" transform="translate(5.772 441.034)">
        <g id="Group_11775" data-name="Group 11775">
          <g id="Group_11772" data-name="Group 11772" transform="translate(0 12.762)">
            <g id="Group_11771" data-name="Group 11771">
              <path id="Path_12214" data-name="Path 12214" d="M63.33,354.4c0,.206-1.851.373-4.132.373s-4.131-.167-4.131-.373,1.849-.372,4.131-.372S63.33,354.2,63.33,354.4Z" transform="translate(-55.068 -354.032)" fill="#455a64"/>
            </g>
          </g>
          <g id="Group_11774" data-name="Group 11774" transform="translate(12.277)">
            <g id="Group_11773" data-name="Group 11773">
              <path id="Path_12215" data-name="Path 12215" d="M64.024,345.109c.206,0,.372,2.194.372,4.9s-.166,4.9-.372,4.9-.372-2.194-.372-4.9S63.818,345.109,64.024,345.109Z" transform="translate(-63.652 -345.109)" fill="#455a64"/>
            </g>
          </g>
        </g>
        <g id="Group_11780" data-name="Group 11780" transform="translate(12.562 12.447)">
          <g id="Group_11777" data-name="Group 11777" transform="translate(4.76)">
            <g id="Group_11776" data-name="Group 11776">
              <path id="Path_12216" data-name="Path 12216" d="M67.179,354.184c0-.2,1.849-.372,4.131-.372s4.132.167,4.132.372-1.849.373-4.132.373S67.179,354.39,67.179,354.184Z" transform="translate(-67.179 -353.812)" fill="#455a64"/>
            </g>
          </g>
          <g id="Group_11779" data-name="Group 11779" transform="translate(0 3.709)">
            <g id="Group_11778" data-name="Group 11778">
              <path id="Path_12217" data-name="Path 12217" d="M64.223,366.2c-.2,0-.372-2.194-.372-4.9s.167-4.9.372-4.9.373,2.193.373,4.9S64.429,366.2,64.223,366.2Z" transform="translate(-63.851 -356.405)" fill="#455a64"/>
            </g>
          </g>
        </g>
        <g id="Group_11782" data-name="Group 11782" transform="translate(16.643 16.197)">
          <g id="Group_11781" data-name="Group 11781">
            <path id="Path_12218" data-name="Path 12218" d="M69.673,360.557c-.167.119-.961-.7-1.772-1.839s-1.333-2.153-1.164-2.273.96.7,1.771,1.839S69.84,360.437,69.673,360.557Z" transform="translate(-66.705 -356.434)" fill="#455a64"/>
          </g>
        </g>
        <g id="Group_11784" data-name="Group 11784" transform="translate(16.149 5.41)">
          <g id="Group_11783" data-name="Group 11783">
            <path id="Path_12219" data-name="Path 12219" d="M69.435,348.908c.157.133-.4,1.045-1.24,2.038s-1.653,1.691-1.809,1.556.4-1.045,1.24-2.038S69.278,348.775,69.435,348.908Z" transform="translate(-66.359 -348.892)" fill="#455a64"/>
          </g>
        </g>
        <g id="Group_11786" data-name="Group 11786" transform="translate(6.829 6.371)">
          <g id="Group_11785" data-name="Group 11785">
            <path id="Path_12220" data-name="Path 12220" d="M62.769,352.413c-.143.147-.91-.366-1.711-1.146s-1.336-1.532-1.193-1.679.91.366,1.712,1.146S62.914,352.266,62.769,352.413Z" transform="translate(-59.843 -349.563)" fill="#455a64"/>
          </g>
        </g>
        <g id="Group_11788" data-name="Group 11788" transform="translate(6.585 15.77)">
          <g id="Group_11787" data-name="Group 11787">
            <path id="Path_12221" data-name="Path 12221" d="M62.471,356.151c.163.126-.326,1.023-1.09,2s-1.516,1.673-1.678,1.546.326-1.024,1.09-2S62.309,356.023,62.471,356.151Z" transform="translate(-59.672 -356.135)" fill="#455a64"/>
          </g>
        </g>
      </g>
      <g id="Group_11790" data-name="Group 11790" transform="translate(431.128 117.373)">
        <path id="Path_12222" data-name="Path 12222" d="M357.905,118.809l.435,1.043a7.387,7.387,0,0,0,4.043,4.007l1.134.459-1.088.442a7.388,7.388,0,0,0-4.075,4.083l-.307.761-.459-.955a7.388,7.388,0,0,0-4.128-3.741l-.988-.36,1.292-.626a7.385,7.385,0,0,0,3.6-3.81Z" transform="translate(-352.472 -118.809)" fill="#455a64"/>
      </g>
      <g id="Group_11791" data-name="Group 11791" transform="translate(4.64 252.096)">
        <path id="Path_12223" data-name="Path 12223" d="M59.455,213.006l.413.994a7.043,7.043,0,0,0,3.854,3.819l1.08.439-1.037.421a7.04,7.04,0,0,0-3.883,3.893l-.293.724-.438-.91a7.045,7.045,0,0,0-3.933-3.567l-.943-.343,1.231-.6a7.047,7.047,0,0,0,3.431-3.631Z" transform="translate(-54.276 -213.006)" fill="#455a64"/>
      </g>
      <g id="Group_11792" data-name="Group 11792" transform="translate(515.334 439.966)">
        <path id="Path_12224" data-name="Path 12224" d="M418.781,344.362l.594,1.426a10.114,10.114,0,0,0,5.532,5.482l1.552.629-1.489.605a10.106,10.106,0,0,0-5.575,5.588l-.42,1.04-.628-1.307a10.121,10.121,0,0,0-5.647-5.12l-1.352-.493,1.765-.855a10.108,10.108,0,0,0,4.926-5.213Z" transform="translate(-411.348 -344.362)" fill="#455a64"/>
      </g>
      <g id="Group_11811" data-name="Group 11811" transform="translate(427.736)">
        <g id="Group_11797" data-name="Group 11797" transform="translate(0)">
          <g id="Group_11794" data-name="Group 11794" transform="translate(0 21.954)">
            <g id="Group_11793" data-name="Group 11793">
              <path id="Path_12225" data-name="Path 12225" d="M366.515,52.466c0,.2-3.674.372-8.207.372s-8.208-.167-8.208-.372,3.674-.373,8.208-.373S366.515,52.26,366.515,52.466Z" transform="translate(-350.1 -52.093)" fill="#455a64"/>
            </g>
          </g>
          <g id="Group_11796" data-name="Group 11796" transform="translate(24.759)">
            <g id="Group_11795" data-name="Group 11795">
              <path id="Path_12226" data-name="Path 12226" d="M367.783,36.743c.206,0,.373,3.729.373,8.328s-.167,8.328-.373,8.328-.372-3.729-.372-8.328S367.578,36.743,367.783,36.743Z" transform="translate(-367.411 -36.743)" fill="#455a64"/>
            </g>
          </g>
        </g>
        <g id="Group_11802" data-name="Group 11802" transform="translate(25.325 21.419)">
          <g id="Group_11799" data-name="Group 11799" transform="translate(9.089)">
            <g id="Group_11798" data-name="Group 11798">
              <path id="Path_12227" data-name="Path 12227" d="M374.162,52.092c0-.206,3.674-.373,8.207-.373s8.208.167,8.208.373-3.674.372-8.208.372S374.162,52.3,374.162,52.092Z" transform="translate(-374.162 -51.719)" fill="#455a64"/>
            </g>
          </g>
          <g id="Group_11801" data-name="Group 11801" transform="translate(0 6.044)">
            <g id="Group_11800" data-name="Group 11800">
              <path id="Path_12228" data-name="Path 12228" d="M368.18,72.6c-.206,0-.373-3.729-.373-8.327s.167-8.328.373-8.328.372,3.727.372,8.328S368.385,72.6,368.18,72.6Z" transform="translate(-367.807 -55.945)" fill="#455a64"/>
            </g>
          </g>
        </g>
        <g id="Group_11804" data-name="Group 11804" transform="translate(33.114 27.546)">
          <g id="Group_11803" data-name="Group 11803">
            <path id="Path_12229" data-name="Path 12229" d="M379.1,63c-.157.132-1.592-1.326-3.2-3.255s-2.789-3.6-2.632-3.733,1.592,1.324,3.2,3.255S379.26,62.868,379.1,63Z" transform="translate(-373.253 -56.003)" fill="#455a64"/>
          </g>
        </g>
        <g id="Group_11806" data-name="Group 11806" transform="translate(32.126 9.212)">
          <g id="Group_11805" data-name="Group 11805">
            <path id="Path_12230" data-name="Path 12230" d="M378.633,43.2c.146.144-1.093,1.63-2.765,3.318s-3.149,2.938-3.3,2.793,1.093-1.63,2.766-3.318S378.487,43.05,378.633,43.2Z" transform="translate(-372.562 -43.184)" fill="#455a64"/>
          </g>
        </g>
        <g id="Group_11808" data-name="Group 11808" transform="translate(13.604 10.856)">
          <g id="Group_11807" data-name="Group 11807">
            <path id="Path_12231" data-name="Path 12231" d="M365.392,49.151c-.132.157-1.53-.788-3.124-2.114s-2.778-2.529-2.646-2.687,1.529.789,3.124,2.115S365.523,48.993,365.392,49.151Z" transform="translate(-359.612 -44.333)" fill="#455a64"/>
          </g>
        </g>
        <g id="Group_11810" data-name="Group 11810" transform="translate(13.131 26.822)">
          <g id="Group_11809" data-name="Group 11809">
            <path id="Path_12232" data-name="Path 12232" d="M364.794,55.507c.153.139-.955,1.6-2.474,3.268s-2.873,2.906-3.025,2.767.955-1.6,2.474-3.268S364.643,55.368,364.794,55.507Z" transform="translate(-359.281 -55.497)" fill="#455a64"/>
          </g>
        </g>
      </g>
      <g id="Group_11830" data-name="Group 11830" transform="translate(0 111.727)">
        <g id="Group_11816" data-name="Group 11816">
          <g id="Group_11813" data-name="Group 11813" transform="translate(0 21.954)">
            <g id="Group_11812" data-name="Group 11812">
              <path id="Path_12233" data-name="Path 12233" d="M67.447,130.584c0,.206-3.674.372-8.207.372s-8.208-.166-8.208-.372,3.674-.373,8.208-.373S67.447,130.378,67.447,130.584Z" transform="translate(-51.032 -130.211)" fill="#455a64"/>
            </g>
          </g>
          <g id="Group_11815" data-name="Group 11815" transform="translate(24.759)">
            <g id="Group_11814" data-name="Group 11814">
              <path id="Path_12234" data-name="Path 12234" d="M68.716,114.861c.206,0,.372,3.729.372,8.328s-.166,8.328-.372,8.328-.373-3.729-.373-8.328S68.51,114.861,68.716,114.861Z" transform="translate(-68.343 -114.861)" fill="#455a64"/>
            </g>
          </g>
        </g>
        <g id="Group_11821" data-name="Group 11821" transform="translate(25.326 21.421)">
          <g id="Group_11818" data-name="Group 11818" transform="translate(9.088)">
            <g id="Group_11817" data-name="Group 11817">
              <path id="Path_12235" data-name="Path 12235" d="M75.094,130.21c0-.206,3.676-.372,8.208-.372s8.207.166,8.207.372-3.674.372-8.207.372S75.094,130.416,75.094,130.21Z" transform="translate(-75.094 -129.838)" fill="#455a64"/>
            </g>
          </g>
          <g id="Group_11820" data-name="Group 11820" transform="translate(0 6.043)">
            <g id="Group_11819" data-name="Group 11819">
              <path id="Path_12236" data-name="Path 12236" d="M69.112,150.718c-.206,0-.372-3.729-.372-8.327s.166-8.328.372-8.328.372,3.729.372,8.328S69.318,150.718,69.112,150.718Z" transform="translate(-68.74 -134.063)" fill="#455a64"/>
            </g>
          </g>
        </g>
        <g id="Group_11823" data-name="Group 11823" transform="translate(33.114 27.547)">
          <g id="Group_11822" data-name="Group 11822">
            <path id="Path_12237" data-name="Path 12237" d="M80.035,141.118c-.157.132-1.592-1.326-3.2-3.255s-2.79-3.6-2.633-3.733,1.593,1.326,3.2,3.255S80.193,140.986,80.035,141.118Z" transform="translate(-74.185 -134.121)" fill="#455a64"/>
          </g>
        </g>
        <g id="Group_11825" data-name="Group 11825" transform="translate(32.127 9.212)">
          <g id="Group_11824" data-name="Group 11824">
            <path id="Path_12238" data-name="Path 12238" d="M79.565,121.313c.146.144-1.091,1.63-2.765,3.318s-3.148,2.939-3.294,2.793,1.091-1.63,2.765-3.318S79.419,121.169,79.565,121.313Z" transform="translate(-73.495 -121.302)" fill="#455a64"/>
          </g>
        </g>
        <g id="Group_11827" data-name="Group 11827" transform="translate(13.606 10.857)">
          <g id="Group_11826" data-name="Group 11826">
            <path id="Path_12239" data-name="Path 12239" d="M66.323,127.269c-.132.157-1.529-.788-3.122-2.114s-2.779-2.529-2.646-2.686,1.529.788,3.122,2.114S66.455,127.11,66.323,127.269Z" transform="translate(-60.545 -122.452)" fill="#455a64"/>
          </g>
        </g>
        <g id="Group_11829" data-name="Group 11829" transform="translate(13.131 26.822)">
          <g id="Group_11828" data-name="Group 11828">
            <path id="Path_12240" data-name="Path 12240" d="M65.728,133.625c.152.139-.957,1.6-2.474,3.268s-2.873,2.906-3.026,2.767.957-1.6,2.476-3.268S65.575,133.486,65.728,133.625Z" transform="translate(-60.213 -133.615)" fill="#455a64"/>
          </g>
        </g>
      </g>
    </g>
  </g>
</svg>
