<svg xmlns="http://www.w3.org/2000/svg" xmlns:xlink="http://www.w3.org/1999/xlink" width="2028.488" height="1106.646" viewBox="0 0 2028.488 1106.646">
  <defs>
    <clipPath id="clip-path">
      <rect id="Rectangle_1242" data-name="Rectangle 1242" width="1918.044" height="1074.308" rx="9.086" fill="none"/>
    </clipPath>
  </defs>
  <g id="Group_11845" data-name="Group 11845" transform="translate(-13351.513 -4928.533)">
    <g id="Group_10842" data-name="Group 10842" transform="translate(13316.818 4899.023)" opacity="0.13">
      <image id="Rectangle_1241" data-name="Rectangle 1241" width="1569.485" height="1106.646" transform="translate(34.694 29.509)" opacity="0.25" xlink:href="Group%2011845-image.png" style="mix-blend-mode: multiply;isolation: isolate"/>
      <g id="Group_10798" data-name="Group 10798" transform="translate(145.138 59.472)">
        <g id="Group_10796" data-name="Group 10796">
          <g id="Group_10754" data-name="Group 10754">
            <g id="Group_10753" data-name="Group 10753" clip-path="url(#clip-path)">
              <g id="Group_10752" data-name="Group 10752" transform="translate(-120.319 -3.776)">
                <path id="Path_10238" data-name="Path 10238" d="M334.984,1120.648l12.643-.031,25.3.008q2.37-.008,4.743-.018l12.649.015q3.163,0,6.323.01c28.836.575,57.715-.888,86.524,1.036,2.368.057,4.736.163,7.1.163q209.343.008,418.685-.005,388.857.008,777.718.008c2.368,0,4.737-.114,7.1-.176l13.027-.036c2.368.073,4.736.207,7.1.21q141.114.016,282.227.005c1.843,0,3.689-.023,5.525-.111a2.989,2.989,0,0,0,3.087-2.388q-.034-8.252-.069-16.5a18.517,18.517,0,0,0,.069-13.441q-.064-38.9-.125-77.805a70.717,70.717,0,0,0-.128-26.008c.1-3.942.286-7.882.286-11.822q.025-214.156.01-428.314,0-78.13-.052-156.263.01-10.024.016-20.048l-.039-23.941q.015-25.379.023-50.755.025-122.038.043-244.074c0-6.535-.082-6.595-8.336-6.595q-201.445,0-402.889.026l-1.5-.018c-1.219-3.577-4.99-2.393-7.831-2.4-21.761-.088-43.522-.041-65.282-.054-3.16,0-6.313-.093-9.138,1.308l-48.981.023c-2.867-2.238-6.494-1.282-9.775-1.282q-174.208-.078-348.42-.041c-2.368,0-4.74.018-7.1.1a2.978,2.978,0,0,0-3.13,2.342c-.483.01-.966.016-1.449.018l-240.687-.008c-4.066-2.585-8.152-3.01-12.271-.075q-70.515.051-141.033.106c-5.456,1.028-10.961-1.443-16.407.15-4.467-.067-8.937-.194-13.4-.194q-118.716-.016-237.435-.008a15.083,15.083,0,0,0-6.8-1.145q-21.965-.008-43.926-.023c-2.043,0-4.25-.321-5.781,1.238l-164.837-.039c-1.981-1.3-4.355-1.246-6.724-1.241-12.58.028-25.16.036-37.741.091-2.036.008-4.264-.365-5.807,1.2q-33.38-.047-66.767-.073c-7.571.005-7.666.124-7.7,6.4-.049,8.05,0,16.1,0,24.146-.926,1.767-.841,3.626-.841,5.484q0,16.381-.01,32.764c0,1.645-.154,3.308.834,4.846v24.9q-.01,324.072-.02,648.144l.01,30.917-.056,18.072.076,48.082-.007,2.5v3.733l-.007,98.465.007,127.128a1.755,1.755,0,0,0,1.534,1.246q18.181.012,36.364.018h3.16l53.767,0,9.479.013,11.069-.047,34.788.031,64.836,0,3.157,0,9.493-.005,3.16,0,17.4.013Z" transform="translate(36.695 -41.165)" fill="#dfdfdf"/>
                <path id="Path_10239" data-name="Path 10239" d="M46.484,495.909l1.58,1.248Q46.025,497.519,46.484,495.909Z" transform="translate(-46.399 681.98)" fill="#f4f4f4"/>
                <path id="Path_10240" data-name="Path 10240" d="M703.536,497.157l1.583-1.248Q705.578,497.521,703.536,497.157Z" transform="translate(1454.933 681.98)" fill="#f4f4f4"/>
                <path id="Path_10241" data-name="Path 10241" d="M849.688,42.181l240.683.008c3.807,2.37,2.986,6.545,5.84,9.286,6.307,6.051,11.542,12.8,19.409,17.831,2.8,1.79,6.507,3.984,7.091,6.4,1.675,6.944,8.8,11.04,12.554,16.831,2.4,3.709,6.421,6.75,9.135,10.361a98.671,98.671,0,0,0,10.087,10.97,126.9,126.9,0,0,1,21.137,28.078c5.436,9.488,10.83,19,17.4,28.039,2.207,3.041,5.1,5.8,7.036,8.928,2.417,3.914,5.787,7.229,8.839,10.781,4.424,5.147,10.117,9.529,13.779,15.174,2.7,4.155,5.879,9.107,10.626,11.2,6.658,2.937,11.726,6.893,16.542,11.081,3.206,2.79,7.5,4.6,10.245,7.473,4.037,4.225,7.732,8.281,15.28,8.372a3.693,3.693,0,0,1,2.618,1.111c1.885,3.585,5.587,3.963,9.752,3.805,2.286-.085,3.883,1.132,5.617,2.057a21.3,21.3,0,0,0,10.12,3,67.927,67.927,0,0,1,12.025,1.313,44.05,44.05,0,0,0,18.4-.427c1.005-.21,1.836-.7,2.92-.228,5.995,2.6,11.907.036,16.9-1.422,9.21-2.691,15.75-9.086,23.59-13.71,3.383-1.994,7.8-3.339,10.238-6.333a3.952,3.952,0,0,1,5.906-.733c7.036,5.131,18.013,2.836,24.871,8.3.463.365,2.01.023,2.986-.181a6.477,6.477,0,0,1,4.553.456c6.842,3.821,14.965,3.147,22.628,4.1,5.663.7,11.4.391,17.024.645,7.732.352,15.549-1.373,23.219.554,1.711.43,3.649-.176,5.328-.855a30.677,30.677,0,0,1,8.32-1.684c5.338-.583,10.307-2.417,15.622-3.308,7.128-1.2,12.314-5.906,19.468-7.359a9.333,9.333,0,0,0,4.369-2.582c1.875-1.881,4.375-2.829,6.9-3.971,8.836-3.989,17.405-8.312,22.247-15.8.768-1.192,2.385-1.7,3.124-2.707,2.375-3.214,7.919-4.09,9.282-7.978,3.863-.495,6.678-4,10.5-3.313,6.954,1.254,12.761-1.347,18.614-2.927,6.776-1.831,13.947-2.614,20.493-5.02,1.521-.559,3.337-1.417,5.239-.692,1.984.754,3.528-.026,5.088-.78a110.552,110.552,0,0,1,25.341-8.641c3.39-.725,7.525-1.741,9.8-4.559l3.084-.575c1.981.267,2.864-.6,3.258-1.963a6.215,6.215,0,0,0,1.475-.386c11.056-2.37,21.068-6.639,31.017-10.92,11.493-4.945,23.63-8.716,35.615-12.767,7.213-2.437,14.745-4.323,21.83-6.965a396.262,396.262,0,0,1,38.467-12.376c4.31-1.122,8.806-1.2,13.014-2.3,10.189-2.678,20.45-4.831,31.336-4.414a24.249,24.249,0,0,0,7.062-.35c8.179-2.254,14.866.787,21.712,3.4a5.429,5.429,0,0,1,3.508,3.971c.759,3.865,1.925,7.864,1.376,11.669-1.639,11.363-6.55,21.96-12.859,32.285-3.265,5.341-8.136,10.218-9.1,16.378-1.892.562-2.463,2-3.518,3.163-2.933,3.212-3.209,7.351-6.07,10.571l-1.508,3.714c-5.659,2.406-6.241,7.413-8.793,11.275-6.172,9.325-10.238,19.377-14.948,29.218-5.456,11.4-9.072,23.188-12.653,34.872a61.031,61.031,0,0,0-2.322,26.449c1.064,7.325,1.912,14.855,9.063,20.579,4.322,5.924,12.35,7.988,19.2,11.169,12.36,5.742,26.359,4.929,39.721,4.287,11.355-.547,22.881-2.026,33.743-5.393,6.04-1.873,12.183-3.582,18.394-5.061,13.382-3.186,25.709-8.312,38.115-13.164,5.784-2.261,11.637-4.227,17.865-6.553.572,2.621-.913,4.365-1.836,6.242-4.536,9.237-10.452,18.072-13.336,27.785a43.679,43.679,0,0,0-.654,23.429c2.6,10.151,12.7,14.617,24.431,17.2q.03,78.13.052,156.26.01,214.156-.01,428.314c0,3.94-.187,7.879-.286,11.819-.979-.083-2.1.174-2.746-.7a3.979,3.979,0,0,0-3.5-1.189c-6.28,2.365-11.03,5.5-11.789,11.573-.578,4.631-2.247,8.646,4.51,12.081,4.441,2.256,7.933,5.056,13.658,4.248l.125,77.808a25.088,25.088,0,0,0-3.087-.427,181.709,181.709,0,0,1-38.306-4.932c-7.19-1.673-14.354-3.676-21.9-4.341l-2.572-.4c-2.05-2.507-5.285-2.448-8.5-2.432a.52.52,0,0,0-.7-.153c-1.347-1.531-3.4-1.8-5.535-1.935-12.373-4.028-25.236-6.882-38.109-9.669-6.514-1.409-13.2-2.857-20.033-2.067a80.89,80.89,0,0,0-17.182,4.028c-7.423,2.572-14.2,5.952-21.117,9.208-6.218,2.924-11.838,6.385-15.027,11.384-2.992,4.691-7.482,5.056-13.017,5a91.51,91.51,0,0,1-22.155-3.367c-6.941-1.808-14.193-2.448-21.061-4.763-9.762-3.292-19.915-6.26-31.185-4.769-7.213.953-13.559,2.963-18.361,7.193-10.416,9.18-14.787,20.178-14.63,32.385l-784.888-.008c-9.135-7.838-15.921-17.181-26.441-24.205-9.128-6.095-17.149-13.221-25.65-19.9-7.893-6.2-15.812-12.374-23.646-18.616-6.648-5.3-11.68-11.871-19.406-16.28-12.7-7.245-25.44-14.425-39.041-20.662-11.3-5.183-23.528-7.079-36.138-7.387-17.376-.422-34.778-.109-52.17-.075a32.91,32.91,0,0,0-7.055.378c-4.983,1.137-9.315-.073-13.49-1.86-20.141-8.625-33.822-22.39-46.465-36.864a75.438,75.438,0,0,0-8.4-8.905,121.054,121.054,0,0,1-14.324-13.865,143.417,143.417,0,0,0-33.5-29.005,88.718,88.718,0,0,0-21.324-9.9c-6.589-2-13.2-3.632-19.889-5.287-5.048-1.248-10.35-1.129-15.146-2.759-5.117-1.736-10.537-2.254-15.96-3.057-8.133-1.207-16.358-.326-24.333-1.3-11.825-1.445-22.546,2.531-33.888,3.163-.943.052-1.767.894-2.736,1.184a81.915,81.915,0,0,0-23.213,11.28c-9.082,6.3-17.658,13.135-24.586,20.867-5.63,6.289-11.92,12.583-14.062,20.5a9.12,9.12,0,0,1-1.839,2.717c-5.058,6.54-6.9,13.793-7.594,21.3a7.719,7.719,0,0,1-2.326.021c-11.989-3.953-25.256-2.79-37.484-5.818a15.817,15.817,0,0,0-5.452-.192,23.768,23.768,0,0,1-10.731-1.285c-5.374-2.007-11.217-1.953-16.594-3.5-1.987-.57-4.093.1-6.152-.637-9-3.248-18.966-4.168-28.107-7.087-7.5-2.4-14.482-5.209-18.22-11.527-1.636-2.769-1.491-6.092-4.4-8.408a18.465,18.465,0,0,1-4.05-9.991c-.434-3.538-3.649-6.786-1.715-10.6.207-.409-.453-1.171-.87-1.689-3.692-4.551,1.136-10.589-4.185-14.847,1.636-3.028-.516-6.131.062-8.965.519-2.546.184-4.385-1.662-6.193-2.073-2.031,1.347-3.432.585-5.9-1.586-5.149-4.211-10.1-5.229-15.36-.857-4.45.427-9.439-5-12.793-.158-.1-.151-.391-.164-.6-.3-5-6.95-8.061-6.546-13.29a1.254,1.254,0,0,0-.654-1.083c-5.686-1.886-7.223-6.141-9.476-10.035a10,10,0,0,0-2.838-2.966c-7.643-5.458-13.02-12.731-22.293-16.909-7.456-3.36-13.559-8.356-21.787-10.879-6.224-1.909-12.577-3.94-18.066-6.859-7.246-3.857-15.067-4.357-23.173-4.186-5.666.122-11.309.8-16.965,1.233q.01-324.072.02-648.144V115.816c4.145-.694,6.97,1.114,9.746,3.116,1.291.933,2.365,1.79,4.736,1.285,6.72-1.432,9.532-7.892,17.139-8.037.24-.005.44-.679.7-1.023,2.772-3.689-.3-9.079,5.538-11.91.108-.052-.181-.767-.434-1.1-3.3-4.367-5.994-8.941-9.811-13.166-2.851-3.155-6.835-4.129-10.1-5.929a58.83,58.83,0,0,0-17.494-6.328c-.007-8.048-.053-16.1,0-24.146.036-6.279.131-6.4,7.7-6.4q33.385-.019,66.767.07c5.584,4.455,9.4,9.908,12.807,15.412,3.186,5.149,5.357,6.411,12.472,5.939,3.058-.2,6.195-1.171,9.335-.269-1.971,8.4,2.615,15.676,6.7,22.923,2.562,4.551,6.422,5.875,12.616,4.466,4.9-1.114,9.411-3.264,14.167-4.81,2.345-.762,1.9-2.026,1.757-3.51-.348-3.6-3.288-6.551-3.886-10.022-.42-2.463-2.109-3.484-4.848-4.23-7.029-1.914-14.131-3.751-20.27-7.232-.677-2.94,2.411-2.453,4.388-3.046,5.5-1.645,9.516-5.061,6.267-10.348a7.816,7.816,0,0,1-1.232-5.326q82.419.019,164.837.036c6.543,2.132,12.735,5.015,19.675,6.292,9.545,1.759,17.491,6.248,26.336,9.177,7.407,2.45,13.576,6.934,21.708,8.183,3.239.891,5.351,3.077,8.438,4.315,12.823,5.144,25.384,10.7,37.971,16.2a19.142,19.142,0,0,0,7.41,1.738,13.458,13.458,0,0,0,5.183,3.484c7.266,2.629,14.656,5,22.01,7.447,17.32,5.768,34.66,10.9,54.148,9.423,11.345-.863,22.8.117,34.216-1.619,10.971-1.665,20.854-4.331,28.209-11.286C648.759,90.566,653.8,81.609,660.8,74.1c4.139-4.434,8.149-8.993,12.5-13.3,3.508-3.473,8.363-4.416,14.141-3.536,7.633,1.163,13.979,4.385,20.706,7.032,12.084,4.758,23.384,10.9,37.018,12.917a23.7,23.7,0,0,1,4.408,1.318A108.686,108.686,0,0,0,770.42,83.8c8.225,2.689,16.364,5.691,25.689,4.222,4.76,2.725,9.949.9,14.958.85a51,51,0,0,0,27.778-8.237c.841-.013,1.268-.324,1.176-1.01q1.665-1.581,3.327-3.163c1.784-.575,2.828-1.539,2.651-3.142.719-2.261,3.879-3.673,3.528-6.307,2.9-4.427,2.762-9.011,1.12-13.669q.094-1.181.187-2.357C851.751,47.944,849.327,45.175,849.688,42.181ZM1959.738,965.8c.992,2.81,3.8,2.469,6.5,2.334q1.256.171,2.519.345c6.428,2.344,8.422,1.658,9.746-3.22.772-2.847-.476-5.193-2.529-7.405q-.04-1.034-.079-2.067,1.458-.183,2.92-.368c2.168.992,3.593,2.634,6.763,2.676,6.133.08,7.693-3.468,10.291-6.553s1.511-5.869-.483-8.587c-2.326-3.17-5.889-4.789-10.6-5.572-6.579-1.093-10.882.484-11.447,5.416-.21,1.824-1.557,3.575-.723,5.471a6.851,6.851,0,0,1-6.583-.539c-3.442-2.225-6.336-.272-8.685,1.334a17.824,17.824,0,0,0-4.365,5.09c-4.224,6.248-2.125,9.809,6.743,11.723ZM165.09,149.8l-.3-.28c-.631-3.779-4.592-5.035-8.231-5.867-5.354-1.225-10.1-2.943-14.121-6.035-2.155-1.655-4.9-2.722-7.64-.733-2.477,1.8-4.907,3.582-2.92,6.885,2.572,4.279,4.635,8.729,9.7,11.684.618,2.772,4.385,3.334,6.077,5.38,2.033,2.456,5.439,2.639,8.419,2.064,4.007-.774,8.034-2.114,10.678-4.771,2.447-2.463.033-5.028-.663-7.522Zm68.17-25.358c-3.436,1.748-5.032-1.093-7.42-1.891a23.483,23.483,0,0,0-17.146.78c-5.154,2.108-3.4,5.541-3.767,8.641a9.475,9.475,0,0,0-.079,2.474,18.276,18.276,0,0,0,9.181,13.614c1.853,1.127,3.045,1.054,5.367.72a32.392,32.392,0,0,0,12.817-4.976c5.774-3.492,7.282-4.9,3.781-9.529-1.8-2.38-1.544-4.131.381-6.095a3.932,3.932,0,0,1,2.933.414c7.213,4.269,9.755,4.212,16.86-.067a42.568,42.568,0,0,1,6.55-3.269c4.1-1.588,4.158-3.973,4.227-7.3.072-3.569-3.7-4.841-4.651-7.561-1.3-3.688-5.058-5.732-9.325-6.678-4.355-.964-8.938-2.72-13.559-1.021-8.241,3.028-11.076,8.659-7.87,15.386C232.528,120.162,234.354,122.032,233.26,124.439ZM1943.653,1041c1.645,1.953-.089,4.991,2.769,7.178a18.644,18.644,0,0,1,4.947,6.146c1.393,2.526,3.981,5.592,7.571,5.908,4.181.365,7.3,2.1,10.928,3.142,1.652.477,3.807,1.606,5.107.184,4.2-4.587,11.046-7.644,12.653-13.754.68-2.583,1.2-5.035-2.329-6.47-2.437-.992-3.564-2.409-3.432-4.458.171-2.694-1.879-3.58-4.763-3.95a14.531,14.531,0,0,1-5.032-1.492c-6.9-3.567-14.042-5.929-21.252-.287a4.3,4.3,0,0,1-1.425.518C1945.24,1034.811,1944.32,1037.577,1943.653,1041ZM126.85,158.676c1.209-2.409-.509-3.665-2.526-5.266-2.155-1.71-5.453-2.238-6.8-4.823-2.322-4.434-10.2-7.978-15.993-7.859a8.044,8.044,0,0,0-5.508,1.987,18.631,18.631,0,0,1-4.927,3.038c-6.195,2.715-6.185,2.782-5.137,8.159a12.658,12.658,0,0,0,2.562,5.167c4.057,5.333,10.609,8.366,16.965,11.526,4.034,2,9.043,2.414,12.551.057C122.561,167.625,128.444,164.678,126.85,158.676Zm122.8-102.708c-.838.142-2.493.031-3.272.629-3.173,2.437-6.149,5.046-9.02,7.708a2.391,2.391,0,0,0-.378,2.336c2.355,6.372,5.39,12.544,12.235,16.8,3.206,1.992,7.371,3.321,11.46,2.339,5.436-1.308,8.028-6.139,13.664-7.579.88-.223,1.495-2.222,1.448-3.38-.207-4.9-3.5-9.286-7.308-12.41C263.913,58.652,256.785,57.241,249.654,55.969Zm91.783,9.291a22.368,22.368,0,0,1,.319-3.1c.755-3.072-3.62-6-.388-9.123-2.375-1.8-.828-5.3-5.2-6.429a53.236,53.236,0,0,0-24.625-.857c-8.524,1.8-10.577,6.09-6.231,12.151,1.159,1.616,2.532,3.139,3.859,4.678,4.6,5.346,12.143,6.426,19.209,8.185a2.346,2.346,0,0,0,2.562-.878c1.206-1.321,3.032-2.334,3.984-3.735C336.7,63.553,338.98,64.366,341.437,65.26Zm18.457,122.922c.749,6.641,2.674,11.568,4.454,16.482a6.071,6.071,0,0,0,6.063,4.1c4.332-.357,8.261.762,12.383,1.127,5.4.482,8.189-1.528,8.757-5.789.3-2.246-.466-4.574.9-6.742,1.876-2.984.286-5.131-2.805-6.88a114.125,114.125,0,0,0-15.839-7.7C365.891,179.784,359.769,182.7,359.894,188.181Zm-73.182-17.927c-.085-7.069-8.9-14.757-18.489-17.523-6.471-1.868-11.486-1.246-16.252,2.59-3.074,2.474-4.362,6.331-1.373,8.8,4.332,3.577,6.9,8.19,11.631,11.48,2.726,1.9,5.682,4.2,9.312,3.53a31.457,31.457,0,0,0,14.925-7.372C286.892,171.392,286.672,170.563,286.711,170.255Zm1586.019,867.737c-1.659-4.074-2.325-7.706-4.579-10.558-1.544-1.951-5.111-3.391-8.12-4s-6.044-1.228-9.082-1.79c-8.964-1.66-16.312,5.7-13.733,9.571,2.775,4.168,4.677,8.732,8.6,12.392,4.267,3.981,5.948,4.31,12.2,2.7,2.234-.575,4.51-1.057,6.766-1.58C1867.6,1044.087,1872.625,1039.308,1872.731,1037.992ZM172.688,83.36c-8.451-.073-11.6,1.774-13.69,7.408-.621,1.678-.677,3.354.818,4.706,3.758,3.411,7.243,7.058,12.235,9.485,9.594,4.66,10.892,4.587,20.22-1.619,1.153-.767,2.963-.754,3.567-2.184,1.189-2.8-1.271-10.915-4.592-12.4C185.206,86.049,179.576,82.091,172.688,83.36ZM312.555,100.4c-1.045.044-2.1.01-3.127.142-6.238.8-8.773,4.087-6.471,8.77,2.069,4.207,4.352,8.361,6.839,12.423,2.68,4.375,5.324,5.3,11.319,3.72,3.653-.966,6.914-2.753,10.823-3.362a5.285,5.285,0,0,0,2.858-2.01c2.487-3.152-1.944-15.241-6.333-16.463C323.325,102.189,318.221,100.375,312.555,100.4Zm1536.923,902.408c2.618-.176,5.348-.047,7.814-.622,2.079-.482,4.4-1.057,5.072-3.378,1.068-3.707,1.613-7.89-.939-10.669a31.971,31.971,0,0,0-14.216-9.47,3.861,3.861,0,0,0-2.3-.041c-3.859,1.751-8.359,2.466-11.949,4.652a4.509,4.509,0,0,0-2.211,2.474C1828.562,993.1,1839.592,1003.078,1849.479,1002.809Zm-144.8-13.052c-.131-1.865-1.3-4.605-2.707-7.294-2.684-5.118-9.65-7.991-16.844-7.245-2.644.275-4.471.888-5.127,3.031-1.11,3.6-2.372,7.172-3.327,10.8-.555,2.1,1.127,3.346,3.225,4.538,4.162,2.367,9.273,2.567,13.858,3.883C1701.915,999.807,1704.8,997.709,1704.681,989.757Zm201.29,53.7c2.93.119,8.349-2.106,10.267-3.872,2.457-2.264.385-4.15-.272-6.266-.864-2.777-2.733-4.466-5.794-6.115-3.9-2.1-8.235-3.5-12.068-5.543-3.761-2-5.955-.052-8.281,1.368-2.289,1.394-2.555,3.23-1.146,5.5a49.262,49.262,0,0,0,11.733,12.98A9.312,9.312,0,0,0,1905.972,1043.455ZM1752.4,999.825c.02,1.5.355,2.443,1.527,3.126,2.306,1.344,4.51,2.81,6.9,4.054,4.848,2.518,8.9,2.658,12.245.591,4.8-2.968,5.955-6.4,3.8-10.9-1.573-3.3-4.7-5.331-8.54-6.851-4.379-1.733-9-1.064-11.736,1.9C1754.276,994.264,1755.36,997.882,1752.4,999.825ZM124.131,75.507c7.542-.513,11.158-2.531,8.8-8.066-.838-1.969-1.077-4.564-3.367-5.406-5.942-2.184-9.818-6.965-16.407-8.089-3.8-.65-6.444,1.7-5.968,4.8a6.96,6.96,0,0,0,1.882,4.02,53.7,53.7,0,0,1,7.6,9.294C118.232,74.548,121.1,75.424,124.131,75.507Zm312.394,139.46c2.844.326,4.671-.655,5.834-2.528.8-1.3,1.324-2.707,2.188-3.971,2.891-4.235,2.848-5-1.889-7.747-2.066-1.2-4.132-2.531-6.908-2.841-1.958-.22-3.4-2.349-5.725-1.259-2.237,1.052-4.6,2.129-5.922,3.986a27.713,27.713,0,0,0-2.017,4.02c-1.1,2.233.1,6.419,2.631,7.271C428.513,213.175,432.576,213.97,436.525,214.967ZM1976.417,1023.02c5.088-.067,8.652-1.823,7.867-4.3-.857-2.707-1.5-5.582-4.96-7.514-3.722-2.077-7.929-3.173-12.028-4.4-4.135-1.235-8.875,2.08-8.192,5.3C1960,1016.338,1970.725,1023.1,1976.417,1023.02Zm-47.782-26.04a9.989,9.989,0,0,0,.21-2.544c-.421-3.349-7.883-8.271-11.726-7.825a9.845,9.845,0,0,0-8.409,9.232c-.039,4.6,2.316,6.862,8.067,7.47a36.847,36.847,0,0,0,5.449-.057C1928.872,1002.967,1928.872,1002.954,1928.635,996.981Z" transform="translate(37.267 -39.564)" fill="#fefafb"/>
                <path id="Path_10242" data-name="Path 10242" d="M542.724,42.2q201.445-.019,402.889-.026c8.254,0,8.336.06,8.336,6.595q0,122.034-.043,244.074c-12.216,2.391-23.318,7.017-34.729,10.964-19.025,6.577-38,13.006-58.345,16.906-12.626,2.419-25.256,4.31-37.993,3-15.454-1.58-20.168,1.761-27.394-15.487-.082-.2-.184-.389-.276-.583a3.986,3.986,0,0,0-.118-3.686,2.752,2.752,0,0,0-.91-3.751c-.8-3.805,1.255-7.336,1.718-11.024,1.475-11.726,4.789-23.167,8.376-34.6,2.089-6.66,6.7-12.425,9.1-18.927,2.536-6.9,7.8-13.034,9.263-20.248.985-.642,2.289-1.137,2.907-1.953,4.743-6.261,7.072-13.459,12.2-19.6.565-.673-.115-1.989-.217-3.01,2.2-.689,2.805-2.354,3.771-3.815,5.932-8.988,10.114-18.551,15.008-27.886,4.943-9.434,6.349-19.168,5.692-29.143a19.945,19.945,0,0,0-5.439-12.669c-7.361-7.5-16.473-13.114-29.273-14.135-8.556-.686-17.185-.79-25.63-1.451-11.309-.886-22.017,1.036-32.679,2.326-14.925,1.8-29.187,6.382-43.548,10.231-9.91,2.655-19.737,5.473-29.447,8.623-14.456,4.686-29.684,7.9-43.141,14.461-1.258.614-3.015.616-4.556.839-1.813.262-3.659.42-5.078,1.5-2.776,2.127-6.287,2.94-9.962,3.411a4.364,4.364,0,0,0-3.633,2.07c-8.021,1.759-15.136,5.3-23.308,6.939-6.5,1.3-12.774,3.779-19.117,5.4-8.888,2.274-17.856,4.714-27.1,6.188a54.212,54.212,0,0,1,1-7.361c.713-3.479,2.73-6.665,3.242-10.115.861-5.818,1.281-11.674,2.086-17.5.6-4.365-.581-8.664,1.133-13.21,1.061-2.813-.591-6.737-.752-10.26-.785-17.256-6.983-33.572-15.888-49.31C548.239,51.358,543.854,47.369,542.724,42.2Z" transform="translate(1087.533 -39.566)" fill="#fefafb"/>
                <path id="Path_10243" data-name="Path 10243" d="M882.738,199.05c-1.36,3.89-6.9,4.766-9.279,7.98-.739,1-2.355,1.515-3.124,2.707-4.842,7.488-13.411,11.811-22.247,15.8-2.529,1.142-5.029,2.09-6.9,3.971a9.332,9.332,0,0,1-4.368,2.582c-7.154,1.453-12.341,6.16-19.468,7.359-5.315.891-10.284,2.725-15.622,3.308a30.677,30.677,0,0,0-8.32,1.684c-1.679.679-3.617,1.285-5.328.855-7.67-1.927-15.487-.2-23.219-.554-5.623-.254-11.362.06-17.024-.645-7.663-.956-15.786-.282-22.628-4.1a6.476,6.476,0,0,0-4.553-.456c-.976.2-2.523.547-2.986.181-6.859-5.463-17.836-3.168-24.872-8.3a3.952,3.952,0,0,0-5.906.733c-2.437,2.994-6.855,4.339-10.238,6.333-7.841,4.624-14.38,11.019-23.59,13.71-4.993,1.458-10.905,4.025-16.9,1.422-1.084-.471-1.915.018-2.92.228a44.049,44.049,0,0,1-18.4.427,67.924,67.924,0,0,0-12.025-1.313,21.3,21.3,0,0,1-10.12-3c-1.734-.925-3.331-2.142-5.617-2.057-4.165.158-7.867-.22-9.752-3.805a3.693,3.693,0,0,0-2.618-1.111c-7.548-.091-11.243-4.147-15.28-8.372-2.746-2.873-7.039-4.683-10.245-7.473-4.815-4.188-9.883-8.144-16.542-11.081-4.746-2.093-7.929-7.045-10.626-11.2-3.662-5.644-9.355-10.027-13.779-15.174-3.052-3.551-6.422-6.867-8.839-10.781-1.935-3.132-4.828-5.888-7.036-8.928-6.573-9.042-11.966-18.551-17.4-28.039a126.9,126.9,0,0,0-21.137-28.078,98.649,98.649,0,0,1-10.087-10.97c-2.713-3.611-6.73-6.652-9.135-10.361-3.758-5.792-10.879-9.887-12.554-16.831-.585-2.414-4.29-4.608-7.092-6.4-7.867-5.033-13.1-11.78-19.409-17.831-2.854-2.74-2.033-6.916-5.84-9.286.486,0,.969-.008,1.452-.018q184.072.023,368.144.044c-5.072,3.038-8.057,7.626-11.125,11.612-5.009,6.509-11.109,12.412-16.022,18.994C725.708,81.449,719.217,90,713.919,99.107A82.067,82.067,0,0,0,703.586,128c-2.069,13.236-.483,25.625,7.43,37.856,5.679,8.778,14.256,14.785,23.344,20.787a7.023,7.023,0,0,0,2.693,1.16c4,.6,7.036,2.6,10.491,4.033,6.773,2.808,12.994,7.167,21.587,6.224a4.989,4.989,0,0,1,3.626,1c4.49,3.611,10.435,3.484,16.144,3.916,2.871.218,6.257-.471,8.557.505,6.2,2.629,12.666,1.458,19.035,1.754,5.177-.13,10.274.383,15.553-.6,3.4-.637,7.41,1.1,11.286.611,2.8-.352,4.956-2.09,8.629-.653,2.047.8,6.054-1.536,9.187-2.44a13.038,13.038,0,0,1,6.192-.262c1.334.264,2.671.427,3.659-.427C874.273,198.639,878.615,199.206,882.738,199.05Z" transform="translate(737.935 -39.564)" fill="#f4d7db"/>
                <path id="Path_10244" data-name="Path 10244" d="M227.034,390.644c2.913,2.316,2.769,5.639,4.4,8.408,3.738,6.318,10.718,9.131,18.22,11.526,9.141,2.919,19.107,3.839,28.107,7.087,2.059.741,4.165.067,6.152.637,5.377,1.546,11.22,1.492,16.594,3.5a23.768,23.768,0,0,0,10.731,1.285,15.815,15.815,0,0,1,5.453.192c12.229,3.028,25.5,1.865,37.484,5.818a7.716,7.716,0,0,0,2.326-.021q14.17,5.179,28.337,10.353c7.042,3.067,14.117,6.09,21.111,9.226,2.027.909,2.326,3.748,4.894,3.784,5.39.078,8.031,3.168,11.749,5.377,7.124,4.232,13.648,8.646,17.777,15.047,1.537,2.38,2.467,5.367,7.029,5.87,1.879.207,2.253,2.072,2.368,3.6.072,1-.036,2.248,1.412,2.689,7.016,2.14,8.8,7.973,12.452,12.086,4.641,5.23,9.617,10.654,10.931,17.826,1.1,6.009,5.522,11.648,3.774,18.15a2.4,2.4,0,0,0,.588,1.73c4.2,5.908,4.733,12.3,3.866,18.826-.22,1.629-1.5,3.375.368,4.668,3.551,2.456,2.194,5.118,1.025,7.854-1.534,1-1.091,2.518-1.6,3.784-28.81-1.925-57.688-.461-86.524-1.036a2.692,2.692,0,0,0-2.779-2.378c-2.158-.132-3.252.751-3.544,2.368l-12.649-.016c-.259-.966-.48-2.015-2.023-2.168-2.023-.2-2.421.984-2.72,2.186l-25.3-.008v-3.758a7.522,7.522,0,0,1,.713-3.383c-.138-.764-.345-.231-.6.313-.3.622-.164.728.627.495.69-.2,1.439-.37,1.488-1.033.013-.212-.522-.448-1.514.223-3.357.927-5.988.917-8.307-.345-3.045-1.66-3.393-3.2-.884-5.434a43.1,43.1,0,0,0,5.814-6.621c1.77-2.362.276-4.481-.88-6.5a4.361,4.361,0,0,0-4.973-1.9c-.108.461-.266.694-.187.852,1.56,3.067,1.58,3.1-2.184,4.139-.933.259-.884.764-1.133,1.331-2.151,4.88-6.221,6.408-11.5,4.15-3.13-1.339-6.008-3.046-8.727-4.448a1.782,1.782,0,0,1,1.715-1.668,11.905,11.905,0,0,0,2.3-.433c4.431-1.767,4.924-3.191,1.994-6.639a20.2,20.2,0,0,1-3.656-7.5c-.486-1.552-1.068-2.761-3.3-2.989-.3-2.344-2.444-2.51-4.746-2.492,1.429-5.336,1.429-5.336-4.74-6.232v-2.489a52.541,52.541,0,0,0,5.209.945c1.465.124,2.4-.637,2.322-1.844-.145-2.357-4.966-5.149-9.118-5.341l-3.16,0c.177-1.912-.742-3.634-1.508-5.377-3.048-6.962-13.976-8.074-20.631-2.1-4.582,2.989-4.562,2.984-6.619-1.078a7.487,7.487,0,0,0-1.284-1.414c.5-3.308,6.987-2.911,6.7-6.706-1.087-.821-2.365-.653-3.666-.539-5.6.5-5.426.508-4.694-3.947.338-2.039,3.071-4.168.075-6.253l-.007-3.74c1.872-1.634,3.262-.466,4.612.534a15.435,15.435,0,0,0,7.571,3.113c6.885.788,12.285,2.645,12.235,9.252-.01,1.412,2.013,2.36,3.4,3.31,1.235.847,2.7,1.448,4.277.627,1.373-.717,2.759-2.279,1.987-3.093-2.585-2.728-.972-5.963-2.395-8.82-2.033-4.1-.746-5.582,4.746-6.084,2.6-.238,5.272-.021,7.883-.223,2.766-.212,3.219-1.88,2.973-3.668-.3-2.145-2.079-1.932-4.066-1.508-4.894,1.044-9.762,1.6-14.242-1.039-2.128-1.256-3.065.22-4.569,1.057-9.279,5.168-18.647,3.883-25.3-3.357a22.313,22.313,0,0,0-6.681-5.154c-2.4-1.186-2.174-2.722.729-3.536,1.2-.337,2.661-.342,2.615-2.147-3.16-1.7-7.1-2.945-10.764-1.937-3.045.837-3.334.225-4.319-1.614-1.212-2.261-3.12-1.264-3.777.3-1.2,2.87-1.186,5.688,2.322,7.866,1.918,1.192,2.48,2.981.388,4.227-2.033,1.21-3.662.321-5.091-1.37-2.385-2.831-4.066-6.061-8.6-7.672-2.135-.759-2.523-2.945.322-4.5,3.426-1.867,6.681-3.947,9.854-6.077,2.01-1.352,2.493-5.03.828-6.157-2.585-1.748-4.25.308-6.132,1.212-1.429.686-2.5,1.72-2.3,3.051.519,3.471-2.946,4.046-5.521,5.73-2.756,1.8-4.037,4.629-8.823,3.31-1.514-.417-5.019.71-3.271,2.774,3.327,3.932.982,6.747-2.03,9.436-2.362,2.106-3.485,4.2-1.711,6.711.972,1.375,3.646,2.292,4.392.673,2.1-4.535,8-4.815,11.72-7.421,2.312-1.622,3.636-.759,5.016.852,1.314,1.528,1.048,3.929,3.4,4.753,5.029,1.764,4.122,4.719,3.028,7.828-1.554,2.357-5.239,4.437-1.583,7.481-.22,3.779,2.48,5.579,6.776,6.553,4.017.912,5.446,2.575,4.736,6.413-1.071,5.774-2.132,11.775,1.179,17.572,1.524,2.668,2.874,3.217,5.669,1.23a7.517,7.517,0,0,1,2.191-.614c.043,1.658-.033,3.536,2.155,4.318,5.679,2.031,7.078,6.165,8.481,10.275.8,2.36.916,4.893,3.6,6.595-.217,4.424,3.8,9.265-2.319,13.148-.939.6.171,1.95,1.439,2.44,1.642.637,3.419.406,3.672-1.088.627-3.7,3.472-4.789,7.647-4.559,2.92.161,4.237-2.355,6.957-2.461q0,1.243,0,2.487c-.023,1.811.187,3.5,3.157,3.743h0c1.288,4.8,5.049,6.768,11.2,6.263,2.565-.212,5.18-.036,7.775-.036,2.138,2.484,4.066,5.287,7.509.72.939-1.249,3.37-.606,5.137-.72-.752,3.326,3.942,5.424,3.17,8.752l-17.4-.013c-.266-1.08.5-2.875-1.583-2.872s-1.311,1.8-1.577,2.875l-9.493.005c-.263-1.083.5-2.878-1.577-2.88s-1.314,1.8-1.58,2.878l-64.836,0c-.752-4.6-1.764-5.826-7.407-6.043-5.824-.223-10.961-.124-10.577-6.553.105-1.761-2.618-2.326-4.855-2.329-1.876-.005-3.945.1-4.625,1.692-.877,2.057,2.155,1.875,3.193,2.88,2.191,2.129,1.816,3.189-1.82,4.16-4.05,1.08-7.959,2.209-8.7,6.162l-11.069.047c-.407-2.36-1.718-4.445-4.95-4.473-3.318-.026-4.743,1.878-4.53,4.46l-53.767,0c-.181-.8-.273-1.8-1.58-1.8s-1.4,1-1.58,1.8q-18.181-.008-36.368-.018l-1.531-1.246q0-63.564-.007-127.128c7.614-1.339,13.7.829,18.371,5.416,2.372,2.326,4.661,2.51,7.361.875,2.089-1.264,4.02-2.678,6.576-3.347,1.537-.4,3.16-.642,4.447.324,1.317.99.887,2.171.365,3.427-1.586,3.808-.526,5.092,4.027,4.139,4.71-.987,9.374-.761,14.078-.862,2.362-.052,4.766.114,6.829-1.078,2.615-1.508,5.121-1.834,7.854-.018a2.274,2.274,0,0,0,3.633-1c.92-2.79-3.137-5.582-6.6-4.476-1.455.466-2.677,1.614-4.011.236-1.36-1.4.516-2.046,1.389-3.012,2.28-2.526,1.649-3.261-2.109-3.914-6.431-1.116-12.784.246-18.539,1.583-5.042,1.171-8.721.655-13.139-.492,2.286-4.681,5-8.276,11.509-8.659,1.35-.078,2.736-.2,3.18,1.119s-.719,1.831-2.066,2.158a13.963,13.963,0,0,0-1.518.331c-1.038.386-1.751.99-1.087,1.932a2.374,2.374,0,0,0,2.585,1.021c2.217-.559,3.968-1.948,6.5-2.067,1.971-.093,3.488-1.013,3.725-2.7s-1.081-2.774-2.867-3.347c-3.984-1.282-6.881-3.774-10.38-5.595-1.977-1.028-2.578-2.362-.69-4.129,4.589-4.3,4.533-6.924.417-11.708a28.527,28.527,0,0,1-2.959-4.367,3.032,3.032,0,0,1,.207-3.582c.716-.912,2.654-1.8,3.009-.686,1.163,3.665,4.989,3.463,8.231,4.543,2.464.821,5.278,2.362,4.687,5.149-.677,3.181,1.82,3.106,4.221,2.536,3.291-.78,4.3.2,4.444,2.6a37.22,37.22,0,0,0,.867,4.549c-3.794.606-6.875,2.155-10.113,3.45-1.682.673-2.027,1.875-1.409,3.157.742,1.536,2.5,1.588,3.905.922,6.011-2.841,10.977-1.274,15.727,1.966,1.738,1.186,4.057,1.629,5.794.409,3.672-2.58,7.975-1.476,12.048-1.754.246.578.292,1.3.769,1.712,1.56,1.373,2.454,2.629.319,4.191-1.665,1.215-3.061,1.116-4.783.018-1.455-.927-3.2-1.4-5.042.5,2.684,2.168,6.684,4.082,4.369,8.045-.493.839.772,1.844,1.938,2.448,3.134,1.624,14.791.71,15.724-1.891,1.258-3.494,4.365-4.8,7.469-6.535a5.517,5.517,0,0,0,2.956-6,6.637,6.637,0,0,0,5.147-2.494c1.347-1.717-1.077-2.533-1.5-3.821-.729-2.189-1.334-4.409-1.836-6.636-.319-1.425-.611-3.132,1.215-3.963,2.687-1.223,4.168-2.735,2.533-5-1.57-2.173-3.547-4.121-7.535-3.207a4.476,4.476,0,0,1-5.052-2.173,6.9,6.9,0,0,0-4.034-2.72c-2.312-.728-5.367-6.965-4.07-8.395,2.381-2.632,5.554-1.2,8.478-.484.25.06.506.111.755.174,7.289,1.839,7.282,1.836,4.191,7.121a4.3,4.3,0,0,0-.778,1.7c-.049.889.627,1.575,1.751,1.8a1.808,1.808,0,0,0,1.948-.692,34.385,34.385,0,0,1,1.9-3.4c3.153-4.085,7.039-6.794,13.907-6.595C217.292,389.4,222.012,390.952,227.034,390.644Zm-1.935,43.07c-2.151,2.235-4.162,1.653-5.9,1.852-1.422.163-3.084.666-2.562,1.761,1.514,3.168-1.784,5.647-1.734,8.162.1,5.025-2.509,4.792-7.036,3.867-2.368-.482-5.6.109-5.712,2.225-.246,4.8-4.628,7.745-7.174,11.48-1.258,1.849-1.261,3.225.93,4.193,2.138.946,5.748,1.329,6.3-.484,1.238-4.072,6.76-5.854,7.532-9.978a5.609,5.609,0,0,1,1.813-2.715c1.77-1.645,4.438-.914,6.691-1.29,4.191-.7-1.054-3.15,1.869-4.989,5.906-3.717,9.526-8.234,8.947-15.458-.509-6.369-4.625-9.579-9.158-13.379a2.567,2.567,0,0,0-2.861-.269,1.462,1.462,0,0,0-.7,2.212C219.591,425.055,218.961,430.712,225.1,433.714ZM143.972,453.2c-.736,1.593-1.205,2.515-1.593,3.458-.808,1.984.332,3.194,2.713,3.564,1.974.306,4.3.653,5.351-1.285,1.035-1.917-.384-2.976-2.552-3.717A33.782,33.782,0,0,1,143.972,453.2Zm71.362,26.135a5.24,5.24,0,0,0-4.907-1.274,3.7,3.7,0,0,0-3.35,2.955c-.112.412.46,1.23.972,1.409,1.642.57,2.923-.269,4.135-1.018C213.163,480.8,214.1,480.147,215.334,479.331Zm-31.966-25.638a3.062,3.062,0,0,0-3.626-1.58c-1.169.241-1.629.961-1.33,1.86.414,1.248,1.747,1.373,3.065,1.3C182.616,455.213,183.325,454.687,183.368,453.693Zm101.253,35.916a1.318,1.318,0,0,0-1.534-1.381c-2.1.1-2.378,1.277-2.211,2.606a1.212,1.212,0,0,0,1.389,1.192A2.49,2.49,0,0,0,284.621,489.609ZM278.153,561a1.225,1.225,0,0,0,1.652,1.052,2.544,2.544,0,0,0,2.1-2.38,1.132,1.132,0,0,0-1.3-1.236C278.7,558.659,278.393,559.938,278.153,561Zm-94.772-113.9c.269-.453.122-.8-.476-.951-.2-.052-.654.008-.677.083a4.4,4.4,0,0,0-.131,1Zm28.547-27.967a.828.828,0,0,0-1.192-.4c-.191.078-.447.373-.4.438a6.166,6.166,0,0,0,.808.774C211.409,419.667,211.669,419.4,211.928,419.126Z" transform="translate(37.279 510.56)" fill="#e6939f"/>
                <path id="Path_10245" data-name="Path 10245" d="M644.457,42.193c1.13,5.173,5.515,9.162,8.139,13.8,8.9,15.738,15.1,32.054,15.888,49.31.161,3.523,1.813,7.447.752,10.26-1.715,4.546-.529,8.846-1.133,13.21-.8,5.823-1.225,11.679-2.086,17.5-.512,3.45-2.529,6.636-3.242,10.115a53.694,53.694,0,0,0-1,7.356c-6.937,1.759-14.206,2.458-21.278,3.784-5.039.945-9.985,2.7-15.086,2.878-11.224.394-21.974,3.318-33.2,3.424-6.277.06-12.478,2.608-18.828.381l-3.163.008c-2.628-.306-5.134-1.305-7.893-.863-9.391-.267-18.335-2.639-27.578-3.631a45.1,45.1,0,0,1-11.877-3.015c-6.891-2.735-12.114-7.043-17.52-11.04-3.344-2.468-6.651-6.421-6.829-9.812-.466-8.877-1.031-17.917,2.923-26.609,2.818-6.191,6.369-12.179,8.353-18.6a4.619,4.619,0,0,1,2.424-3.1c4.47-2.1,5.075-5.88,6.5-9.26.3-.7-.191-1.782.778-2.217,4.993-2.23,5.7-6.849,9.1-9.949,6.72-6.141,9.417-14.539,17.862-19.737a6.437,6.437,0,0,0,2.667-3c1.764-5.167,6.947-8,11.723-11.135l82.1-.078C643.456,42.18,643.955,42.188,644.457,42.193Z" transform="translate(985.8 -39.563)" fill="#f4d5da"/>
                <path id="Path_10246" data-name="Path 10246" d="M292.367,594.725c.509-1.266.066-2.787,1.6-3.784,2.572,2.106,5.912,1.422,8.977,1.425q177.8.043,355.617-.008c1.954,0,4.145.591,6.458-1.041-4.08-4.473-7.542-9.39-12.406-13.189-3.015-2.355-6.077-4.608-7.965-7.506a31.065,31.065,0,0,0-5.472-6.015,189.81,189.81,0,0,1-22.851-24.172A82.28,82.28,0,0,0,599.4,523.691a276.113,276.113,0,0,0-27.19-16.539,52.443,52.443,0,0,0-35.681-6.071c-3.823.681-7.945,1.811-11.595,1.285-8.021-1.153-15.612.124-23.236,1.316a116.18,116.18,0,0,1-22.72,1.448c-2.608-.106-5.453-1.2-7.742-.666-7.5,1.764-13.034-1.7-19.137-3.756-7.535-2.544-12.807-7.667-19.833-10.8-3.653-1.629-7.489-3.139-8.52-6.856a2.571,2.571,0,0,0-1.531-1.3c-4.346-1.508-6.445-4.652-9.2-7.4-7.926-7.911-15.021-16.318-23.469-23.918a160.127,160.127,0,0,1-14.712-14.448c-10.012-11.682-21.991-21.2-38.907-26.806-17.7-5.862-35.865-10.234-54.936-11.382-10.051-.606-20.013-.969-30.018,3.7-9.332,4.354-17.556,9.224-24.549,15.495-3.272,2.93-8.267,5.118-9.949,8.491-3.35,6.714-9.936,11.684-13.717,18.284-3.853,6.719-5.535,13.619-8.139,20.45q-14.17-5.175-28.337-10.353c.7-7.506,2.536-14.759,7.594-21.3a9.123,9.123,0,0,0,1.839-2.717c2.142-7.918,8.432-14.213,14.062-20.5,6.927-7.732,15.5-14.562,24.586-20.867a81.913,81.913,0,0,1,23.213-11.28c.969-.29,1.793-1.132,2.736-1.184,11.342-.632,22.063-4.608,33.888-3.163,7.975.977,16.2.1,24.333,1.3,5.423.8,10.843,1.321,15.96,3.057,4.8,1.629,10.1,1.51,15.146,2.759,6.688,1.655,13.3,3.287,19.889,5.287a88.72,88.72,0,0,1,21.324,9.9,143.417,143.417,0,0,1,33.5,29.005,121.058,121.058,0,0,0,14.324,13.865,75.436,75.436,0,0,1,8.4,8.905c12.643,14.474,26.323,28.239,46.465,36.864,4.175,1.787,8.507,3,13.49,1.86a32.91,32.91,0,0,1,7.055-.378c17.392-.034,34.794-.347,52.17.075,12.61.308,24.839,2.2,36.138,7.387,13.6,6.237,26.346,13.417,39.041,20.662,7.725,4.409,12.758,10.983,19.406,16.28,7.834,6.242,15.753,12.417,23.646,18.616,8.5,6.675,16.522,13.8,25.65,19.9,10.521,7.025,17.307,16.368,26.441,24.206q.783,1.247,1.57,2.495-209.343.008-418.685.005C297.1,594.888,294.735,594.782,292.367,594.725Z" transform="translate(227.499 485.779)" fill="#f4d9dd"/>
                <path id="Path_10247" data-name="Path 10247" d="M83.052,331.219c5.656-.43,11.3-1.111,16.965-1.233,8.107-.171,15.927.329,23.173,4.186,5.489,2.919,11.841,4.95,18.066,6.859,8.228,2.523,14.331,7.519,21.787,10.879,9.273,4.178,14.65,11.451,22.293,16.909a10,10,0,0,1,2.838,2.966c2.253,3.893,3.79,8.149,9.476,10.035a1.254,1.254,0,0,1,.654,1.083c-.4,5.23,6.244,8.291,6.546,13.29.013.2.007.5.164.6,5.426,3.354,4.142,8.343,5,12.793,1.018,5.263,3.643,10.211,5.229,15.36.762,2.463-2.657,3.865-.585,5.9,1.846,1.808,2.181,3.647,1.662,6.193-.578,2.834,1.573,5.937-.062,8.965,5.321,4.258.493,10.3,4.185,14.847.417.518,1.077,1.28.87,1.689-1.935,3.815,1.281,7.064,1.718,10.6-2.592.026-3.764.707-3.235,3.064.4,1.8-2.063,2.292-2.89,1.132-5.1-7.167-17.451-4.945-23.055-11.3a2.11,2.11,0,0,0-1.5-.238,15.449,15.449,0,0,1-11.91-2.155c-.949,2.331-1.59,4.118-2.4,5.854-1.11,2.362-2.8,3.259-4.8.6-2.174-2.888-4.165-1.28-6.461-.187-2.67,1.274-2.779,2.564-1.068,4.551a12.706,12.706,0,0,1,2.224,4.624c.657,2.119-1.314,2.955-3.39,3.543-2.247.635-3.751-.153-3.935-1.9-.2-1.9-3.449-3-1.442-5.657,1.376-1.826-1.068-3.427-3.9-2.751a20.888,20.888,0,0,0-4.865,2.013c-1.872,1-3.324,1.148-4.47-.65-1.153-1.818.056-2.3,2.017-3.139,4.07-1.746,3.886-3.331-.135-4.994-.93-.386-1.954-.632-2.881-1.021-3.262-1.375-5.935-1.837-6.94,1.982-.4,1.526-2.3,1.826-3.761,1.031-2.874-1.564-5.265-2-8.6-.326-2.8,1.4-6.063-.249-8.944-1.065-1.337-.376-1.583-1.536-.749-2.624.535-.694,1.6-1.531,1.422-2.114-1.481-4.841,2.917-5.88,7.1-7.209a19.284,19.284,0,0,1,13.674.72c2.47,1,4.6,1.238,4.126-2.127-.407-2.9,3.281-5.688,5.308-4.883,4.254,1.689,9.69,2.751,12.373,6.711-2.582,1.116-4.487-.3-6.569-.143-2.578.194-4.769.684-5.236,2.963-.457,2.222.466,4.155,2.953,5.362,3.662,1.782,11.621,1.365,14.2-.637,2.053-1.593,1.54-3.9,2.529-5.8,1.12-2.158-.808-3.435-2.707-4.673-1.432-.935-1.258-2.194-.644-3.417.956-1.912.667-4.137,2.513-5.836,1.071-.987,1.741-2.287.788-3.45a32.73,32.73,0,0,0-9.345-7.468,1.516,1.516,0,0,0-2,.427,1.807,1.807,0,0,0-.283,1.168,3.526,3.526,0,0,0,2.23,2.443c4.835,2.435-2.027,6.926,2.684,9.356a4.057,4.057,0,0,1-1.215.7c-1.669.29-3.317,1.572-5.075.194.145-4.743-1.143-6.053-6.76-7.3-2.358-.526-5.285.51-7.3-1.388,3.676-3.054,3.771-3.821-.02-4.574-4.52-.9-8.261-3.292-13.29-3.383-3.61-.067-6.852-2.22-9.066-4.58-1.35-1.437-2.464-3.129-4.815-2.139-3.18,1.334.736,2.782.407,4.113-.838,3.391.972,4.51,4.989,4.328,1.33-.062,3.055.306,3.117,1.443.174,3.227,4.53,3.738,6.323,6.035-5.338.834-5.354.839-3.475,4.385,1.048,1.979,1.376,3.909-.062,5.781-2.506.412-2.148-2.246-3.5-2.064-4.733.632-5.1-1.471-5.219-4.295-.108-2.645-2.243-2.251-4.438-1.414-2.447.933-3.327,2.528-3.314,4.561a8.907,8.907,0,0,1-2.854,7.11c-1.8-.552-1.872-1.427-1.83-2.217.217-3.891-.394-7.152-6.852-7.159-1.83,0-2.25-1.378-2.664-2.673-2.161-6.727-2.207-6.719-11.059-5.849V430.79c1.35-.21,3.587.368,3.593-1.246s-2.237-1.041-3.587-1.254q-.039-24.042-.076-48.077a34,34,0,0,0,3.784.764c7.946.738,15.671,1.484,22.92,4.911,4.782,2.261,10.5,3.432,15.507,5.642,1.008.443,2.483.907,3.511-.85a42.8,42.8,0,0,0-9.532-10.762c-10.074-8.278-20.056-16.969-36.135-17.782Zm98.339,122.875c-4.809-3.784-4.809-3.784-9.046-5.079-.358,2.1,1.787,3.4,2.444,5.074,2.079,5.3,9.654,6.5,14.561,2.515,2.569-2.088,2.355-4.131-.854-6.131-3.012-1.878-4.014.282-5.3,1.79C182.764,452.768,182.249,453.229,181.391,454.094Zm-39.265-29.42c-2.125-2.026-4.155-3.942-7.709-3.808-1.636.062-3.38.228-3.518,1.831-.145,1.72,1.32,2.922,3.344,2.816C136.773,425.382,139.3,425,142.127,424.675Zm31.707,39.879c0-.692-.486-1.049-1.314-1.072-.755-.023-1.455.215-1.573.844-.125.679.466,1.039,1.291,1.064A1.5,1.5,0,0,0,173.833,464.554Zm-39.574-7.379c.082-.821-.466-1.137-1.274-1.168-.752-.031-1.452.215-1.57.842-.125.679.466,1.039,1.291,1.064A1.488,1.488,0,0,0,134.26,457.174Zm66.56,2.207a6.966,6.966,0,0,0-1.045-.591c-.092-.036-.558.275-.532.331a6.143,6.143,0,0,0,.611.92Q200.337,459.715,200.82,459.381Zm-69.727-65.035c-.407-.153-.874-.484-1.205-.414-.552.114-.591.562-.171.93a1.117,1.117,0,0,0,.634.244C130.952,395.1,131.2,394.822,131.093,394.346Z" transform="translate(37.235 418.081)" fill="#e6939f"/>
                <path id="Path_10248" data-name="Path 10248" d="M590.97,42.954c-4.776,3.137-9.959,5.968-11.723,11.135a6.437,6.437,0,0,1-2.667,3c-8.445,5.2-11.142,13.6-17.862,19.737-3.4,3.1-4.1,7.719-9.1,9.949-.969.435-.483,1.52-.778,2.217-1.429,3.38-2.033,7.165-6.5,9.26a4.619,4.619,0,0,0-2.424,3.1c-1.984,6.424-5.535,12.412-8.353,18.6-3.955,8.693-3.39,17.733-2.923,26.609.177,3.391,3.485,7.343,6.829,9.812,5.406,4,10.629,8.3,17.521,11.04a45.1,45.1,0,0,0,11.877,3.015c9.243.992,18.187,3.365,27.578,3.629.128,2.228-.775,4.761,1.652,6.46,6.165,4.315,3.035,9.281.946,13.57-2.772,5.7-3.39,5.483,2.194,9.763a8.363,8.363,0,0,1,1.508,2.09c-6.369-.293-12.833.878-19.034-1.751-2.3-.977-5.686-.288-8.556-.505-5.709-.433-11.654-.306-16.144-3.916a4.99,4.99,0,0,0-3.626-1c-8.593.943-14.814-3.416-21.587-6.224-3.456-1.432-6.487-3.437-10.491-4.033a7.022,7.022,0,0,1-2.693-1.16c-9.089-6-17.665-12.008-23.344-20.786-7.913-12.231-9.5-24.62-7.43-37.856A82.068,82.068,0,0,1,496.172,99.81c5.3-9.1,11.789-17.658,18.233-26.286,4.914-6.582,11.013-12.485,16.022-18.994,3.068-3.986,6.054-8.574,11.125-11.612a3.847,3.847,0,0,0,.286-1.166l48.981-.023A7.065,7.065,0,0,0,590.97,42.954Z" transform="translate(955.682 -40.267)" fill="#e79aa4"/>
                <path id="Path_10249" data-name="Path 10249" d="M83.032,377.929c8.852-.87,8.9-.878,11.059,5.849.414,1.3.834,2.673,2.664,2.673,6.458.008,7.069,3.269,6.852,7.159-.043.79.033,1.665,1.83,2.217a8.907,8.907,0,0,0,2.854-7.11c-.013-2.033.867-3.629,3.314-4.561,2.194-.837,4.329-1.23,4.438,1.414.115,2.823.486,4.927,5.219,4.295,1.35-.181.992,2.476,3.5,2.064,1.439-1.873,1.11-3.8.062-5.781-1.879-3.546-1.862-3.551,3.475-4.385-1.793-2.3-6.149-2.808-6.323-6.035-.062-1.137-1.787-1.5-3.117-1.443-4.017.181-5.827-.938-4.989-4.328.328-1.331-3.587-2.779-.407-4.113,2.352-.989,3.465.7,4.815,2.14,2.214,2.36,5.456,4.512,9.066,4.58,5.029.091,8.77,2.487,13.29,3.383,3.79.754,3.7,1.52.02,4.574,2.017,1.9,4.943.863,7.3,1.388,5.617,1.251,6.9,2.562,6.76,7.3,1.757,1.378,3.406.1,5.075-.194a4.056,4.056,0,0,0,1.215-.7c-4.71-2.43,2.151-6.921-2.684-9.356a3.526,3.526,0,0,1-2.23-2.443,1.807,1.807,0,0,1,.283-1.168,1.516,1.516,0,0,1,2-.427,32.73,32.73,0,0,1,9.345,7.468c.953,1.163.283,2.463-.788,3.45-1.846,1.7-1.557,3.924-2.513,5.836-.614,1.222-.788,2.481.644,3.417,1.9,1.238,3.827,2.515,2.707,4.673-.989,1.9-.476,4.206-2.529,5.8-2.575,2-10.534,2.419-14.2.637-2.486-1.207-3.409-3.139-2.953-5.362.466-2.279,2.657-2.769,5.236-2.963,2.082-.158,3.988,1.259,6.569.143-2.684-3.961-8.12-5.022-12.373-6.711-2.027-.806-5.715,1.981-5.308,4.883.476,3.365-1.655,3.132-4.126,2.127a19.284,19.284,0,0,0-13.674-.72c-4.181,1.329-8.58,2.367-7.1,7.209.177.583-.887,1.419-1.422,2.114-.834,1.088-.588,2.248.749,2.624,2.881.816,6.146,2.463,8.944,1.065,3.334-1.671,5.725-1.238,8.6.326,1.465.8,3.36.495,3.761-1.031,1.005-3.818,3.679-3.357,6.94-1.981.926.388,1.951.635,2.881,1.021,4.02,1.663,4.2,3.248.135,4.994-1.961.839-3.17,1.321-2.017,3.139,1.146,1.8,2.6,1.647,4.47.65a20.888,20.888,0,0,1,4.865-2.013c2.835-.676,5.278.925,3.9,2.751-2.007,2.658,1.242,3.758,1.442,5.657.184,1.751,1.688,2.538,3.935,1.9,2.076-.588,4.047-1.425,3.39-3.543a12.706,12.706,0,0,0-2.224-4.624c-1.711-1.987-1.6-3.277,1.068-4.551,2.3-1.093,4.286-2.7,6.461.186,2,2.658,3.685,1.761,4.8-.6.815-1.735,1.455-3.523,2.4-5.854a15.449,15.449,0,0,0,11.91,2.155,2.11,2.11,0,0,1,1.5.238c5.6,6.356,17.957,4.134,23.055,11.3.828,1.16,3.291.666,2.89-1.132-.529-2.357.644-3.038,3.235-3.064a18.435,18.435,0,0,0,4.047,9.99c-5.022.308-9.742-1.241-14.771-1.391-6.868-.2-10.754,2.51-13.907,6.595a34.387,34.387,0,0,0-1.9,3.4,1.808,1.808,0,0,1-1.948.691c-1.123-.223-1.8-.909-1.751-1.8a4.3,4.3,0,0,1,.778-1.7c3.091-5.284,3.1-5.281-4.191-7.121-.25-.062-.506-.114-.755-.173-2.923-.715-6.1-2.147-8.478.484-1.3,1.43,1.757,7.667,4.07,8.395a6.9,6.9,0,0,1,4.034,2.72,4.476,4.476,0,0,0,5.052,2.173c3.988-.914,5.965,1.034,7.535,3.207,1.636,2.264.154,3.777-2.533,5-1.826.831-1.534,2.538-1.215,3.963.5,2.228,1.107,4.447,1.836,6.636.424,1.287,2.848,2.1,1.5,3.821a6.637,6.637,0,0,1-5.147,2.494c.282-2.867-1.859-5.09-3.173-7.545-1.468-2.748-3.321-3.947-7.161-2.178-3.363,1.552-7.078,2.424-11.007.251-.9,2.632-1.636,4.807-2.378,6.981-4.073.277-8.376-.826-12.048,1.754-1.738,1.22-4.057.777-5.794-.409-4.75-3.24-9.716-4.807-15.727-1.966-1.406.666-3.163.614-3.905-.922-.618-1.282-.273-2.484,1.409-3.158,3.239-1.3,6.32-2.844,10.113-3.45a37.223,37.223,0,0,1-.867-4.548c-.148-2.391-1.153-3.375-4.444-2.6-2.4.57-4.9.645-4.221-2.536.591-2.787-2.224-4.328-4.687-5.149-3.242-1.08-7.069-.878-8.231-4.543-.355-1.116-2.293-.225-3.009.686a3.032,3.032,0,0,0-.207,3.582,28.529,28.529,0,0,0,2.959,4.367c4.116,4.784,4.172,7.411-.417,11.708-1.889,1.767-1.288,3.1.69,4.129,3.5,1.821,6.4,4.313,10.38,5.595,1.787.572,3.107,1.65,2.867,3.347s-1.754,2.611-3.725,2.7c-2.529.119-4.28,1.508-6.5,2.067a2.374,2.374,0,0,1-2.585-1.021c-.663-.943.049-1.546,1.087-1.932a13.949,13.949,0,0,1,1.518-.331c1.347-.326,2.506-.847,2.066-2.158s-1.83-1.2-3.18-1.119c-6.513.383-9.223,3.979-11.509,8.659,4.418,1.147,8.1,1.663,13.139.492,5.755-1.337,12.107-2.7,18.539-1.583,3.758.653,4.388,1.388,2.109,3.914-.874.966-2.749,1.608-1.389,3.012,1.334,1.378,2.555.231,4.011-.236,3.459-1.106,7.515,1.686,6.6,4.476a2.274,2.274,0,0,1-3.633,1c-2.733-1.816-5.239-1.489-7.854.018-2.063,1.192-4.467,1.026-6.829,1.078-4.7.1-9.368-.124-14.078.862-4.553.953-5.613-.331-4.027-4.139.522-1.256.953-2.437-.365-3.427-1.288-.966-2.91-.725-4.447-.324-2.555.668-4.487,2.083-6.576,3.347-2.7,1.634-4.989,1.451-7.361-.875-4.667-4.587-10.757-6.755-18.371-5.416Q83.03,427.158,83.032,377.929Zm13.382,27.778c.269-.451.122-.8-.476-.951-.207-.052-.654.01-.677.083a4.439,4.439,0,0,0-.131,1C95.556,405.8,95.986,405.753,96.413,405.706Z" transform="translate(37.279 474.675)" fill="#e798a2"/>
                <path id="Path_10250" data-name="Path 10250" d="M874.19,468.819q.039,8.252.072,16.5-144.287,0-288.573,0c-2.631,0-5.265-.1-7.9-.153-1.173-7.19,3.028-13.27,6.655-19.416,4.947-8.372,15.185-8.916,23.134-6.152,5.761,2,11.569,3.782,17.517,5.235,16.377,4,32.745,7.843,50.311,7.206,8.832-.321,14.8-3.1,18.946-9.055,2.9-4.162,5.856-8.6,11.049-11.091,7.341-3.523,14.279-7.654,22.339-10.218a34.628,34.628,0,0,1,19.291-.8c7.39,1.94,14.833,3.758,22.211,5.727,13.566,3.621,27.036,7.465,40.546,11.216,16.042,5.761,33.264,7.921,50.469,9.952C864.825,468.306,869.434,469.456,874.19,468.819Z" transform="translate(1167.188 592.85)" fill="#fdf8f9"/>
                <path id="Path_10251" data-name="Path 10251" d="M188.394,42.167q118.721,0,237.435.008c4.467,0,8.938.127,13.4.194a46.386,46.386,0,0,0-24.678,13.184c-9.256,9.441-17.33,19.608-26.612,29.067l-.108.119-1.652,1.083c-2.526,1.984-5.981,2.2-9.115,3.1-19.583,5.642-39.748,4.823-59.659,2.456-12.281-1.461-23.738-5.97-35.149-10.042-6.421-2.29-12.409-5.39-19.406-6.641l-.072-.062c-5.085-3.246-10.511-5.942-17.179-6.641a.981.981,0,0,0-.476-.837c-.3-1.29-1.626-1.176-2.8-1.272l-.033-.013a3.271,3.271,0,0,0-3.127-1.135,1.016,1.016,0,0,0-1-.272q-4.134-2.044-8.264-4.087a.68.68,0,0,0-.5-.7c-.923-1.476-2.841-1.184-4.4-1.533-3.771-1.958-6.895-4.893-11.943-4.927-1.1-.984-2.036-2.152-3.974-2.2a1.243,1.243,0,0,0-.985-.319c-.782-1.145-2.227-1.531-3.564-2.145C199.319,46.151,192.864,45.711,188.394,42.167Z" transform="translate(278.011 -39.571)" fill="#fdf8f9"/>
                <path id="Path_10252" data-name="Path 10252" d="M631.337,153.751c.092.194.194.386.276.583,7.226,17.248,11.94,13.907,27.394,15.487,12.738,1.305,25.367-.585,37.993-3,20.342-3.9,39.321-10.33,58.345-16.906,11.411-3.947,22.513-8.574,34.729-10.964q-.01,25.379-.02,50.758c-5.295,6.644-2.963,13.891-2.559,20.963.069,1.163,1.255,2.235,2.595,2.976q-.01,10.024-.017,20.051c-11.73-2.585-21.83-7.051-24.431-17.2a43.682,43.682,0,0,1,.654-23.429c2.884-9.713,8.8-18.549,13.336-27.785.923-1.878,2.407-3.621,1.836-6.242-6.228,2.326-12.081,4.292-17.865,6.553-12.406,4.851-24.734,9.977-38.115,13.163-6.211,1.479-12.354,3.189-18.394,5.061-10.863,3.367-22.388,4.846-33.743,5.393-13.362.642-27.361,1.456-39.721-4.287-6.845-3.181-14.873-5.245-19.2-11.169,5.482-.917,8.52,3.316,13.687,4.339-.2-3.989-2.112-6.564-7.374-7.952,3.616-2.127,4.454-4.473,5.19-7.193C626.807,159.724,629.458,156.8,631.337,153.751Z" transform="translate(1251.366 114.328)" fill="#e9a5af"/>
                <path id="Path_10253" data-name="Path 10253" d="M820.782,464.606c-13.51-3.751-26.98-7.595-40.546-11.216-7.378-1.969-14.821-3.787-22.211-5.727a34.628,34.628,0,0,0-19.291.8c-8.061,2.564-15,6.7-22.339,10.218-5.193,2.492-8.149,6.929-11.049,11.091-4.145,5.952-10.114,8.734-18.946,9.055-17.566.637-33.934-3.209-50.311-7.206-5.948-1.453-11.756-3.233-17.517-5.235-7.949-2.764-18.187-2.22-23.134,6.152-3.626,6.147-7.827,12.226-6.655,19.419q-.739,1.216-1.471,2.437-6.514.02-13.034.039c-.5-.772-1-1.546-1.5-2.321-.158-12.208,4.214-23.206,14.63-32.385,4.8-4.23,11.148-6.24,18.361-7.193,11.27-1.492,21.423,1.476,31.184,4.769,6.868,2.316,14.121,2.955,21.062,4.763a91.519,91.519,0,0,0,22.155,3.367c5.535.052,10.025-.313,13.017-5,3.189-5,8.81-8.46,15.027-11.384,6.921-3.256,13.694-6.636,21.117-9.208a80.9,80.9,0,0,1,17.182-4.028c6.829-.79,13.52.658,20.033,2.067,12.873,2.787,25.735,5.641,38.108,9.669,1.268,1.676,3.124,2.3,5.535,1.935a.525.525,0,0,1,.7.153,15.037,15.037,0,0,0,8.5,2.432l2.572.4c.168,4.269,5.15,7.46,4.313,12.135Z" transform="translate(1156.193 586.059)" fill="#c86f7b"/>
                <path id="Path_10254" data-name="Path 10254" d="M269.756,42.252q70.515-.054,141.033-.106l-.02.075a1.248,1.248,0,0,0,.25,1.158c1.974,4.885.378,9.858.6,14.785A2.778,2.778,0,0,0,411,60.889l-2.1,3.748c-3.794,1.22-3.84,4.968-7.913,6.473-11.214,4.147-22.773,3.238-33.76,1.142-16.121-3.072-31.779-7.664-47.634-11.609-3.511-3.145-8.938-3.093-13.3-4.911C294.407,50.774,282.921,45.07,269.756,42.252Z" transform="translate(463.895 -39.604)" fill="#fdf8f9"/>
                <path id="Path_10255" data-name="Path 10255" d="M316.847,42.433c13.165,2.818,24.651,8.522,36.535,13.48,4.359,1.818,9.785,1.767,13.3,4.911-4.168.448-8.038-2.326-12.643-1.189,1.869,3.012,6.625,2.492,7.923,5.336-1.222.878-2.838,1.52-3.357,2.52-1.008,1.945-.282,3.9,2.519,4.478,3.347.692,1.534-1.945,2.5-2.847a1.621,1.621,0,0,1,2.141-.29,11.423,11.423,0,0,1,.2,2.347c-.348,3.3,1.077,5.131,5.715,4.95a12.237,12.237,0,0,1,7.817,2.6,10.4,10.4,0,0,0,7.029,2.344c1.764-.9,1.662-2.316,1.626-3.712l.033-.01c5.236,1.132,3.853,3.927,2.7,6.667a108.882,108.882,0,0,1-20.838-5.271,23.7,23.7,0,0,0-4.408-1.318C352,75.412,340.7,69.271,328.619,64.512c-6.727-2.647-13.073-5.869-20.706-7.032-5.778-.881-10.633.062-14.141,3.536-4.355,4.308-8.366,8.866-12.5,13.3-7.006,7.514-12.045,16.471-22.868,21.491-.667-2.792-3.4-4.947-3.436-8.048-.03-2.6-3.022-2.976-5.82-2.924,9.282-9.46,17.356-19.626,26.612-29.067a46.386,46.386,0,0,1,24.678-13.184C305.886,40.99,311.392,43.462,316.847,42.433Z" transform="translate(416.804 -39.785)" fill="#d37b87"/>
                <path id="Path_10256" data-name="Path 10256" d="M1118.71,457.418c.5.775,1,1.549,1.5,2.321-2.362.06-4.73.174-7.1.174q-388.857,0-777.718-.008-.788-1.247-1.57-2.494Z" transform="translate(610.264 620.758)" fill="#f4d5da"/>
                <path id="Path_10257" data-name="Path 10257" d="M83.629,53.966a58.83,58.83,0,0,1,17.494,6.328c3.268,1.8,7.253,2.774,10.1,5.929,3.817,4.225,6.513,8.8,9.811,13.166.253.334.542,1.049.434,1.1-5.84,2.831-2.766,8.221-5.538,11.91-.259.344-.46,1.018-.7,1.023-7.607.145-10.419,6.605-17.139,8.037-2.372.505-3.446-.352-4.736-1.285-2.776-2-5.6-3.81-9.746-3.116-.989-1.539-.834-3.2-.834-4.846q0-16.384.01-32.764C82.788,57.592,82.7,55.733,83.629,53.966Z" transform="translate(36.695 -20.808)" fill="#c16975"/>
                <path id="Path_10258" data-name="Path 10258" d="M758.576,42.65a3.849,3.849,0,0,1-.286,1.166q-184.072-.019-368.144-.044a2.978,2.978,0,0,1,3.13-2.342c2.365-.085,4.736-.1,7.1-.1q174.208-.008,348.42.041C752.082,41.368,755.709,40.412,758.576,42.65Z" transform="translate(738.945 -41.165)" fill="#e8e1ba"/>
                <path id="Path_10259" data-name="Path 10259" d="M140.316,64.075c-3.14-.9-6.277.067-9.335.269-7.115.471-9.286-.79-12.472-5.939-3.409-5.5-7.223-10.957-12.807-15.412,1.544-1.567,3.771-1.194,5.807-1.2,12.58-.054,25.16-.062,37.741-.091,2.368-.005,4.743-.054,6.724,1.241a7.816,7.816,0,0,0,1.232,5.325c3.248,5.287-.772,8.7-6.267,10.348-1.977.593-5.065.106-4.388,3.046l.115-.049c-2.785-.15-6.573-1.87-6.438,2.554Z" transform="translate(89.088 -40.314)" fill="#c16975"/>
                <path id="Path_10260" data-name="Path 10260" d="M227.7,42.9c4.47,3.543,10.925,3.984,16.138,6.385,1.337.614,2.782,1,3.564,2.145a5.534,5.534,0,0,0-3.988,2.554c-3,3.924-1.793,8.7-4.5,12.635-8.133-1.249-14.3-5.732-21.708-8.183-8.846-2.93-16.791-7.418-26.336-9.177-6.941-1.277-13.132-4.16-19.675-6.292,1.531-1.557,3.738-1.236,5.781-1.236q21.964-.012,43.926.023A15.083,15.083,0,0,1,227.7,42.9Z" transform="translate(238.708 -40.305)" fill="#c86f7b"/>
                <path id="Path_10261" data-name="Path 10261" d="M648.281,454.242h5.5c.838-4.675-4.145-7.867-4.313-12.135,7.545.666,14.709,2.668,21.9,4.341a181.712,181.712,0,0,0,38.306,4.932,25.093,25.093,0,0,1,3.088.427,18.518,18.518,0,0,1-.069,13.441c-4.759.635-9.368-.515-13.937-1.054C681.545,462.163,664.323,460,648.281,454.242Z" transform="translate(1328.694 596.423)" fill="#d37b87"/>
                <path id="Path_10262" data-name="Path 10262" d="M577.2,459.79q.734-1.22,1.472-2.437c2.634.052,5.269.15,7.9.15q144.287.012,288.574,0a2.989,2.989,0,0,1-3.088,2.388c-1.836.088-3.682.111-5.525.111q-141.114.008-282.228-.005C581.938,460,579.57,459.863,577.2,459.79Z" transform="translate(1166.303 620.667)" fill="#f4d5da"/>
                <path id="Path_10263" data-name="Path 10263" d="M198.6,476.918l0,2.492c-2.362-.039-4.73.008-7.078-.135-4.9-.3-4.894-.342-5.564,3.924l-3.163-.023c.772-3.328-3.922-5.427-3.17-8.752,1.826-.834,4.175-1.769,3.846-3.525-.411-2.2-3.416-1.173-5.239-1.653a29.73,29.73,0,0,0-4.53-.94c-6.609-.676-7.995.619-6.724,6.118-2.595,0-5.209-.176-7.775.036-6.155.505-9.916-1.458-11.2-6.263,9.631,1.945,9.608,1.909,14.269-3.74.943-1.145,1.669-2.132.654-3.357a4.043,4.043,0,0,0-4.8-1.064c-1.826.634-3.413,2.5-5.636,1.3-2.309-1.248-.026-3.072-.335-4.618a40.707,40.707,0,0,1-.893-4.269c-.194-2.111,1.189-3.492,3.633-4.336,2.188-.759,3.528.158,4.7,1.352,1.327,1.352,2.483,2.909,4.97,1.207,1.823-1.248,2.532-2.6.828-4.295-1.432-1.425-2.138-2.9.007-4.352,2.234.228,2.815,1.438,3.3,2.989a20.2,20.2,0,0,0,3.656,7.5c2.93,3.448,2.437,4.872-1.994,6.639a11.908,11.908,0,0,1-2.3.433,1.782,1.782,0,0,0-1.715,1.668c2.72,1.4,5.6,3.108,8.727,4.447,5.275,2.259,9.345.73,11.5-4.15.25-.567.2-1.072,1.133-1.331,3.764-1.041,3.745-1.072,2.184-4.139-.079-.158.079-.391.187-.852a4.362,4.362,0,0,1,4.973,1.9c1.156,2.023,2.651,4.142.88,6.5a43.106,43.106,0,0,1-5.814,6.621c-2.51,2.23-2.161,3.774.884,5.434C193.321,476.941,195.952,476.952,198.6,476.918Z" transform="translate(185.722 596.284)" fill="#e798a2"/>
                <path id="Path_10264" data-name="Path 10264" d="M83.062,342.381c16.078.813,26.06,9.5,36.135,17.782a42.8,42.8,0,0,1,9.532,10.762c-1.028,1.756-2.5,1.293-3.511.85-5-2.21-10.724-3.38-15.507-5.642-7.249-3.427-14.975-4.173-22.92-4.911a34,34,0,0,1-3.784-.764Q83.036,351.413,83.062,342.381Z" transform="translate(37.235 437.836)" fill="#fdf8f9"/>
                <path id="Path_10265" data-name="Path 10265" d="M678.058,406.23c.65.878,1.767.622,2.746.7a70.719,70.719,0,0,1,.128,26.008c-5.725.808-9.217-1.992-13.658-4.248-6.756-3.435-5.088-7.45-4.51-12.081.759-6.069,5.508-9.208,11.789-11.573.131,1.311-.217,2.8,2,3.344,1.146-.5,2.473-.92,1.471-2.277Z" transform="translate(1360.393 537.479)" fill="#c16975"/>
                <path id="Path_10266" data-name="Path 10266" d="M314.839,59.414c-.22-4.927,1.376-9.9-.595-14.782.1-.132.309-.3.266-.394a4.432,4.432,0,0,0-.519-.767l.02-.075c4.119-2.935,8.205-2.51,12.271.075-.361,2.994,2.063,5.763,1.146,8.8-.962.2-2.138.368-1.849,1.394.115.4,1.084.648,1.662.964,1.642,4.657,1.784,9.242-1.12,13.669-3.16-.909-2-3.935-4.684-5.768-1.632,3.826-5.538,3.463-9.322,3.357q1.054-1.873,2.1-3.745C316.951,61.59,317.072,60.671,314.839,59.414Zm7.716-3.546a7.161,7.161,0,0,0-1.068-.6c-.1-.039-.489.192-.558.35-.2.469.053.891.634.883C321.9,56.5,322.223,56.1,322.555,55.868Z" transform="translate(560.673 -40.855)" fill="#d37b87"/>
                <path id="Path_10267" data-name="Path 10267" d="M118.152,467.039c.739-3.953,4.648-5.082,8.7-6.162,3.636-.971,4.011-2.031,1.82-4.16-1.038-1-4.07-.824-3.193-2.88.68-1.593,2.749-1.7,4.625-1.692,2.237,0,4.96.567,4.855,2.329-.384,6.429,4.753,6.331,10.577,6.553,5.643.218,6.655,1.448,7.407,6.043Z" transform="translate(117.532 612.385)" fill="#e79aa4"/>
                <path id="Path_10268" data-name="Path 10268" d="M517.376,43.834a7.077,7.077,0,0,1-.151-1.225c2.825-1.4,5.978-1.311,9.138-1.308,21.761.013,43.522-.034,65.282.054,2.841.01,6.612-1.173,7.831,2.4Q558.424,43.794,517.376,43.834Z" transform="translate(1029.276 -41.147)" fill="#e8e1ba"/>
                <path id="Path_10269" data-name="Path 10269" d="M670.314,182.48c-1.34-.741-2.526-1.813-2.595-2.976-.4-7.071-2.736-14.319,2.559-20.963Q670.293,170.508,670.314,182.48Z" transform="translate(1371.142 145.49)" fill="#f4f4f4"/>
                <path id="Path_10270" data-name="Path 10270" d="M159.555,460.4c.67-4.266.664-4.225,5.564-3.924,2.349.143,4.717.1,7.078.135v3.759Z" transform="translate(212.124 619.084)" fill="#e79aa4"/>
                <path id="Path_10271" data-name="Path 10271" d="M111.91,460.647c-.214-2.582,1.212-4.486,4.53-4.46,3.232.029,4.543,2.114,4.95,4.473Z" transform="translate(103.225 618.811)" fill="#e79aa4"/>
                <path id="Path_10272" data-name="Path 10272" d="M176.4,459.37c.292-1.616,1.386-2.5,3.544-2.368a2.692,2.692,0,0,1,2.779,2.378Z" transform="translate(250.615 620.088)" fill="#e79aa4"/>
                <path id="Path_10273" data-name="Path 10273" d="M83.034,367.921c1.35.212,3.59-.365,3.587,1.254s-2.243,1.036-3.593,1.246C83.03,369.589,83.03,368.755,83.034,367.921Z" transform="translate(37.283 478.45)" fill="#e798a2"/>
                <path id="Path_10274" data-name="Path 10274" d="M152.333,459.67c.266-1.078-.493-2.873,1.577-2.875s1.317,1.792,1.583,2.872Z" transform="translate(195.624 619.78)" fill="#e798a2"/>
                <path id="Path_10275" data-name="Path 10275" d="M171.108,459.265c.3-1.2.7-2.386,2.72-2.186,1.544.153,1.764,1.2,2.023,2.168Z" transform="translate(238.518 620.195)" fill="#e79aa4"/>
                <path id="Path_10276" data-name="Path 10276" d="M148.482,459.673c.266-1.08-.5-2.878,1.58-2.878s1.314,1.8,1.577,2.88Z" transform="translate(186.826 619.78)" fill="#e79aa4"/>
                <path id="Path_10277" data-name="Path 10277" d="M94.565,459.011c.177-.8.273-1.8,1.58-1.8s1.4,1,1.58,1.8Z" transform="translate(63.644 620.449)" fill="#e79aa4"/>
                <path id="Path_10278" data-name="Path 10278" d="M83.027,457.421l1.531,1.246A1.754,1.754,0,0,1,83.027,457.421Z" transform="translate(37.283 620.775)" fill="#e79aa4"/>
                <path id="Path_10279" data-name="Path 10279" d="M570.1,108.778a4.363,4.363,0,0,1,3.633-2.07c3.676-.471,7.187-1.285,9.962-3.411,1.419-1.085,3.265-1.243,5.078-1.5,1.541-.223,3.3-.225,4.556-.839,13.457-6.566,28.685-9.776,43.141-14.461,9.709-3.15,19.537-5.968,29.447-8.623,14.361-3.849,28.622-8.429,43.548-10.231,10.662-1.29,21.37-3.212,32.679-2.326,8.445.661,17.074.764,25.63,1.451,12.8,1.021,21.912,6.634,29.273,14.135a19.945,19.945,0,0,1,5.439,12.669c.657,9.975-.749,19.709-5.692,29.143-4.894,9.335-9.076,18.9-15.008,27.886-.966,1.461-1.567,3.126-3.777,3.813l-.618-.383a42.161,42.161,0,0,0-.351-6.154,4.02,4.02,0,0,0-3.515-3.041c-2.661-.352-2.486,1.73-3.081,2.927-2.177,4.377-2.118,4.39-7.775,3.834-1.038-.1-2.082-.153-3.124-.231.966-6.157,5.837-11.034,9.1-16.375,6.31-10.325,11.22-20.921,12.86-32.285.549-3.805-.618-7.8-1.376-11.669a5.429,5.429,0,0,0-3.508-3.971c-6.845-2.608-13.533-5.649-21.712-3.4a24.25,24.25,0,0,1-7.062.35c-10.885-.417-21.147,1.735-31.336,4.414-4.208,1.1-8.7,1.181-13.014,2.3a396.265,396.265,0,0,0-38.467,12.376c-7.085,2.642-14.617,4.528-21.83,6.965-11.986,4.051-24.122,7.822-35.615,12.767-9.949,4.282-19.961,8.55-31.017,10.923,1.15-2.352-3.183-3.365-2.056-6.012,1.711-4.01,1.37-4.1-4.208-6.09-1.6-2.663-2.654-5.248.381-7.838C572.73,112.086,570.842,110.425,570.1,108.778Z" transform="translate(1146.997 -3.125)" fill="#e9a5af"/>
                <path id="Path_10280" data-name="Path 10280" d="M686.736,81.954c.739,1.647,2.628,3.308.588,5.043-3.035,2.59-1.984,5.175-.381,7.838V97.33a9.633,9.633,0,0,0-4.979,1.357c-5.026,2.852-5.078,3.966.233,7.372,3.019.246,3.173,1.987,3.193,3.8-2.273,2.818-6.408,3.834-9.8,4.559a110.552,110.552,0,0,0-25.341,8.641c-1.56.754-3.1,1.533-5.088.78-1.9-.725-3.718.132-5.239.692-6.546,2.406-13.717,3.189-20.493,5.02-5.853,1.58-11.66,4.181-18.614,2.927-3.827-.692-6.642,2.818-10.5,3.313-4.126.153-8.468-.414-11.743,2.412-.989.855-2.326.692-3.659.427a13.039,13.039,0,0,0-6.192.262c-3.133.9-7.141,3.24-9.187,2.44-3.672-1.438-5.834.3-8.629.653-3.876.49-7.887-1.249-11.286-.611-5.279.987-10.376.474-15.553.6a8.332,8.332,0,0,0-1.508-2.093c-5.584-4.279-4.967-4.067-2.194-9.763,2.089-4.289,5.219-9.255-.946-13.57-2.427-1.7-1.524-4.232-1.652-6.46,2.759-.44,5.265.559,7.893.865.132.743.247,1.7,1.242,1.836,1.675.233,1.659-.971,1.921-1.844,6.349,2.228,12.551-.321,18.828-.381,11.227-.106,21.977-3.031,33.2-3.424,5.1-.181,10.048-1.932,15.086-2.878,7.072-1.326,14.341-2.026,21.278-3.784,9.243-1.469,18.21-3.909,27.1-6.183,6.342-1.624,12.616-4.1,19.117-5.4C671.6,87.256,678.715,83.713,686.736,81.954Z" transform="translate(1030.364 23.699)" fill="#e798a2"/>
                <path id="Path_10281" data-name="Path 10281" d="M638.027,207.524c-1.879,3.051-4.53,5.973-5.4,9.193-.736,2.72-1.573,5.066-5.19,7.193,5.262,1.388,7.174,3.963,7.374,7.952-5.167-1.023-8.205-5.256-13.687-4.339-7.151-5.724-8-13.254-9.062-20.579a61.028,61.028,0,0,1,2.322-26.449c3.58-11.684,7.2-23.473,12.652-34.872,4.71-9.84,8.777-19.893,14.948-29.218,2.552-3.862,3.134-8.869,8.8-11.275,5.725,1.049,10.189,3.259,11.992,7.983a4.533,4.533,0,0,0,2.677,2.178c-1.462,7.214-6.727,13.35-9.263,20.248-2.391,6.5-7.006,12.267-9.1,18.927-3.587,11.431-6.9,22.872-8.376,34.6-.463,3.688-2.516,7.219-1.718,11.024-2.069,1.609-1.8,2.862.91,3.751A3.986,3.986,0,0,1,638.027,207.524Z" transform="translate(1244.676 60.554)" fill="#e79aa4"/>
                <path id="Path_10282" data-name="Path 10282" d="M348.752,64.651c2.8-.052,5.791.326,5.82,2.924.036,3.1,2.769,5.256,3.436,8.048-7.354,6.955-17.238,9.62-28.209,11.286-11.414,1.735-22.871.756-34.216,1.619-19.488,1.479-36.828-3.655-54.148-9.423-7.354-2.45-14.745-4.818-22.011-7.447a13.458,13.458,0,0,1-5.183-3.484,19.338,19.338,0,0,1,.532-4.276c1.054-3.051-1.38-3.59-4.181-3.805-.985-.075-2.027.466-3.042.461a2.617,2.617,0,0,1-1.889-.774c-.4-.837.283-1.59,1.265-2.007,3.613-1.526,9.026-.544,12.051,2.155,1.114.995,1.222,2.867,3.777,2.655,3.134-2.411,2.917-5.066.907-7.856,7,1.251,12.984,4.352,19.406,6.641,11.411,4.072,22.868,8.581,35.149,10.042,19.912,2.367,40.076,3.186,59.659-2.456,3.134-.9,6.589-1.116,9.115-3.1l1.652-1.083Z" transform="translate(317.196 -19.601)" fill="#c86f7b"/>
                <path id="Path_10283" data-name="Path 10283" d="M383.027,54.18c3.784.106,7.689.469,9.322-3.357,2.684,1.834,1.524,4.859,4.684,5.768.352,2.634-2.808,4.046-3.528,6.307-2.2.357-2.4,1.764-2.651,3.142L387.53,69.2l-1.179,1.01a51,51,0,0,1-27.778,8.237c-5.009.047-10.2,1.875-14.958-.85.907-3.212-2.713-6.105-2.033-8.752,1.127-4.362-2.217-1.927-3.311-1.658-2.4.6-2.776,2.9-4.592,4.1-.792.521-1.547,1.238-2.73.917s-1.554-1.22-1.11-1.984c1.554-2.678-2.552-4.862-.87-7.626.611-1.008-.939-1.684-2.181-2.176-5.709-2.256-9.365-.282-11.559,6.294l-.033.01c-3.935.313-2.457,2.1-1.626,3.712a10.4,10.4,0,0,1-7.029-2.344,12.237,12.237,0,0,0-7.817-2.6c-4.638.181-6.064-1.653-5.715-4.95a11.425,11.425,0,0,0-.2-2.347,1.621,1.621,0,0,0-2.141.29c-.969.9.844,3.538-2.5,2.847-2.8-.578-3.528-2.533-2.519-4.479.519-1,2.135-1.642,3.357-2.52-1.3-2.844-6.054-2.323-7.923-5.336,4.605-1.137,8.474,1.637,12.643,1.189,15.855,3.945,31.513,8.537,47.634,11.609,10.987,2.1,22.546,3,33.76-1.142C379.187,59.148,379.233,55.4,383.027,54.18Z" transform="translate(489.762 -29.148)" fill="#c86f7b"/>
                <path id="Path_10284" data-name="Path 10284" d="M649.482,434.683c.667-3.424,1.587-6.191,5.741-7.335a4.3,4.3,0,0,0,1.426-.518c7.21-5.641,14.347-3.279,21.252.288a14.533,14.533,0,0,0,5.032,1.492c2.884.37,4.934,1.256,4.763,3.95-.132,2.049,1,3.466,3.432,4.458,3.524,1.435,3.009,3.888,2.329,6.47-1.606,6.11-8.451,9.167-12.652,13.754-1.3,1.422-3.455.293-5.108-.184-3.626-1.044-6.747-2.777-10.928-3.142-3.59-.316-6.178-3.383-7.571-5.908a18.64,18.64,0,0,0-4.947-6.146C649.394,439.674,651.128,436.636,649.482,434.683Z" transform="translate(1331.438 566.755)" fill="#c16975"/>
                <path id="Path_10285" data-name="Path 10285" d="M255.048,69.461c2.01,2.79,2.227,5.445-.907,7.856-2.555.212-2.664-1.66-3.777-2.655-3.025-2.7-8.438-3.681-12.051-2.155-.982.417-1.665,1.171-1.265,2.007a2.617,2.617,0,0,0,1.889.774c1.015.005,2.056-.536,3.042-.461,2.8.215,5.236.754,4.181,3.805a19.333,19.333,0,0,0-.532,4.276,19.142,19.142,0,0,1-7.41-1.738c-12.587-5.5-25.147-11.06-37.971-16.2-3.088-1.238-5.2-3.424-8.438-4.315,2.707-3.932,1.5-8.711,4.5-12.635a5.535,5.535,0,0,1,3.988-2.554,1.243,1.243,0,0,1,.985.319c.361,1.813,1.836,2.38,3.974,2.2,5.049.034,8.172,2.968,11.943,4.927.91,1.5,2.654,1.515,4.4,1.533a.681.681,0,0,1,.5.7c1.343,4.183,1.343,4.183,8.264,4.085a1.016,1.016,0,0,1,1,.272,3.951,3.951,0,0,0,3.127,1.135l.033.013a3.512,3.512,0,0,0,2.8,1.272.981.981,0,0,1,.476.837c4.395,4.354,10.734,5.579,17.179,6.641Z" transform="translate(285.811 -34.337)" fill="#c16975"/>
                <path id="Path_10286" data-name="Path 10286" d="M125.172,98.17c1.593,6-4.29,8.949-8.816,11.988-3.508,2.357-8.517,1.945-12.551-.057-6.356-3.16-12.909-6.193-16.965-11.526a12.658,12.658,0,0,1-2.562-5.168c-1.048-5.377-1.058-5.445,5.137-8.159a18.631,18.631,0,0,0,4.927-3.038,8.044,8.044,0,0,1,5.508-1.987c5.794-.119,13.671,3.424,15.993,7.859,1.35,2.585,4.648,3.113,6.8,4.823C124.663,94.505,126.381,95.762,125.172,98.17Z" transform="translate(38.946 20.942)" fill="#c86f7b"/>
                <path id="Path_10287" data-name="Path 10287" d="M142.662,47.5c7.131,1.272,14.259,2.683,18.831,6.442,3.8,3.124,7.1,7.506,7.308,12.41.046,1.158-.568,3.157-1.448,3.38-5.636,1.44-8.228,6.271-13.664,7.579-4.089.982-8.254-.347-11.46-2.339-6.845-4.253-9.88-10.426-12.235-16.8a2.39,2.39,0,0,1,.378-2.336c2.871-2.663,5.847-5.271,9.02-7.709C140.169,47.529,141.824,47.64,142.662,47.5Z" transform="translate(144.26 -31.093)" fill="#c16975"/>
                <path id="Path_10288" data-name="Path 10288" d="M130.853,87.715c1.094-2.406-.732-4.276-1.721-6.354C125.926,74.635,128.761,69,137,65.976c4.622-1.7,9.2.057,13.559,1.021,4.267.945,8.028,2.989,9.325,6.678.956,2.72,4.723,3.992,4.651,7.561-.069,3.323-.128,5.709-4.227,7.3a42.567,42.567,0,0,0-6.55,3.269c-7.1,4.279-9.647,4.336-16.86.067a3.932,3.932,0,0,0-2.933-.414l.062.039c.335-2,.785-4.069-3.209-3.8Z" transform="translate(139.674 -2.841)" fill="#c16975"/>
                <path id="Path_10289" data-name="Path 10289" d="M188.356,63.713c-2.457-.894-4.733-1.707-6.507.891-.953,1.4-2.779,2.414-3.984,3.735a2.346,2.346,0,0,1-2.562.878c-7.065-1.759-14.61-2.839-19.209-8.185-1.327-1.539-2.7-3.062-3.859-4.678C147.889,50.293,149.942,46,158.466,44.2a53.236,53.236,0,0,1,24.625.857c4.369,1.132,2.822,4.634,5.2,6.429-3.232,3.124,1.143,6.051.388,9.123A22.375,22.375,0,0,0,188.356,63.713Z" transform="translate(190.348 -38.017)" fill="#c16975"/>
                <path id="Path_10290" data-name="Path 10290" d="M122.8,49.436c6.139,3.481,13.24,5.318,20.27,7.232,2.739.746,4.428,1.767,4.848,4.23.6,3.471,3.538,6.424,3.886,10.022.145,1.484.588,2.748-1.757,3.51-4.756,1.546-9.266,3.7-14.167,4.81-6.195,1.409-10.054.085-12.616-4.466-4.083-7.247-8.668-14.526-6.7-22.923l-.089.091c3.12.676,5.209-.264,6.438-2.554Z" transform="translate(112.836 -28.089)" fill="#c16975"/>
                <path id="Path_10291" data-name="Path 10291" d="M167.314,102.594c-.125-5.478,6-8.4,13.911-5.4a114.129,114.129,0,0,1,15.839,7.7c3.091,1.748,4.681,3.9,2.805,6.88-1.363,2.168-.6,4.5-.9,6.742-.568,4.261-3.354,6.271-8.757,5.789-4.122-.365-8.051-1.484-12.383-1.127a6.071,6.071,0,0,1-6.063-4.1C169.988,114.162,168.063,109.235,167.314,102.594Z" transform="translate(229.847 46.023)" fill="#c16975"/>
                <path id="Path_10292" data-name="Path 10292" d="M151.674,79.606c-1.925,1.963-2.184,3.714-.381,6.095,3.5,4.631,1.994,6.038-3.781,9.529a32.392,32.392,0,0,1-12.817,4.976c-2.322.334-3.515.407-5.367-.72a18.276,18.276,0,0,1-9.181-13.614,9.475,9.475,0,0,1,.079-2.474c.365-3.1-1.386-6.533,3.767-8.641a23.483,23.483,0,0,1,17.146-.78c2.388.8,3.984,3.639,7.42,1.891l-.033-.026c-.88,2.29-.332,3.828,3.209,3.8Z" transform="translate(121.967 9.006)" fill="#c86f7b"/>
                <path id="Path_10293" data-name="Path 10293" d="M171.331,103c-.039.308.181,1.137-.246,1.5a31.457,31.457,0,0,1-14.925,7.372c-3.63.666-6.586-1.632-9.312-3.53-4.73-3.29-7.3-7.9-11.631-11.48-2.989-2.468-1.7-6.325,1.373-8.8,4.766-3.836,9.782-4.458,16.253-2.59C162.429,88.245,171.245,95.933,171.331,103Z" transform="translate(152.648 27.689)" fill="#d37b87"/>
                <path id="Path_10294" data-name="Path 10294" d="M652.955,436.807c-.105,1.316-5.131,6.095-7.945,6.742-2.257.523-4.533,1.005-6.766,1.58-6.251,1.606-7.932,1.277-12.2-2.7-3.925-3.66-5.827-8.224-8.6-12.392-2.578-3.872,4.77-11.231,13.733-9.571,3.038.562,6.077,1.184,9.082,1.79s6.576,2.046,8.12,4C650.629,429.1,651.3,432.732,652.955,436.807Z" transform="translate(1257.043 561.621)" fill="#c16975"/>
                <path id="Path_10295" data-name="Path 10295" d="M120.127,58.223c6.888-1.269,12.518,2.689,18.558,5.4,3.321,1.487,5.781,9.6,4.592,12.4-.6,1.43-2.414,1.417-3.567,2.184-9.328,6.206-10.626,6.279-20.22,1.619-4.993-2.427-8.478-6.074-12.235-9.485-1.495-1.352-1.439-3.028-.818-4.706C108.522,60,111.676,58.15,120.127,58.223Z" transform="translate(89.828 -14.427)" fill="#c86f7b"/>
                <path id="Path_10296" data-name="Path 10296" d="M160.16,64.652c5.666-.026,10.77,1.787,15.908,3.22,4.388,1.223,8.819,13.311,6.333,16.463a5.285,5.285,0,0,1-2.858,2.01c-3.909.609-7.17,2.4-10.823,3.362-5.994,1.583-8.639.655-11.319-3.72-2.486-4.061-4.769-8.216-6.839-12.423-2.3-4.683.233-7.97,6.471-8.77C158.057,64.663,159.115,64.7,160.16,64.652Z" transform="translate(189.663 -3.815)" fill="#c16975"/>
                <path id="Path_10297" data-name="Path 10297" d="M634.033,427.984c-9.887.269-20.917-9.708-18.729-17.054a4.508,4.508,0,0,1,2.211-2.474c3.59-2.186,8.09-2.9,11.95-4.652a3.86,3.86,0,0,1,2.3.041,31.971,31.971,0,0,1,14.216,9.47c2.552,2.779,2.007,6.963.939,10.669-.667,2.321-2.992,2.9-5.072,3.378C639.381,427.938,636.651,427.808,634.033,427.984Z" transform="translate(1252.713 535.261)" fill="#c86f7b"/>
                <path id="Path_10298" data-name="Path 10298" d="M596.281,417c.118,7.952-2.766,10.05-10.921,7.708-4.585-1.316-9.7-1.515-13.858-3.883-2.1-1.192-3.78-2.44-3.225-4.538.956-3.624,2.217-7.2,3.327-10.8.657-2.142,2.483-2.756,5.127-3.03,7.193-.746,14.16,2.127,16.844,7.245C594.981,412.4,596.15,415.136,596.281,417Z" transform="translate(1145.667 533.192)" fill="#c86f7b"/>
                <path id="Path_10299" data-name="Path 10299" d="M650.64,442.64a9.292,9.292,0,0,1-5.561-1.948,49.263,49.263,0,0,1-11.733-12.98c-1.409-2.269-1.143-4.105,1.146-5.5,2.326-1.419,4.52-3.372,8.281-1.368,3.833,2.041,8.169,3.44,12.068,5.543,3.061,1.65,4.93,3.339,5.794,6.115.657,2.116,2.729,4,.273,6.266C658.99,440.536,653.57,442.761,650.64,442.64Z" transform="translate(1292.599 561.249)" fill="#c86f7b"/>
                <path id="Path_10300" data-name="Path 10300" d="M658.489,398.873c-.834-1.9.512-3.647.722-5.471.565-4.932,4.868-6.509,11.447-5.416,4.707.782,8.271,2.4,10.6,5.572,1.994,2.717,3.084,5.491.483,8.587s-4.158,6.634-10.291,6.553c-3.169-.041-4.6-1.684-6.763-2.676Q661.584,402.448,658.489,398.873Z" transform="translate(1351.399 509.834)" fill="#c86f7b"/>
                <path id="Path_10301" data-name="Path 10301" d="M591.257,418.6c2.956-1.943,1.872-5.561,4.195-8.079,2.733-2.966,7.358-3.634,11.736-1.9,3.836,1.521,6.967,3.554,8.54,6.851,2.155,4.5,1,7.931-3.8,10.9-3.344,2.067-7.4,1.927-12.245-.591-2.388-1.243-4.592-2.709-6.9-4.054C591.612,421.039,591.277,420.093,591.257,418.6Z" transform="translate(1198.414 541.665)" fill="#c86f7b"/>
                <path id="Path_10302" data-name="Path 10302" d="M107.357,68.345c-3.035-.083-5.9-.958-7.453-3.445a53.7,53.7,0,0,0-7.6-9.294,6.96,6.96,0,0,1-1.882-4.02c-.476-3.1,2.168-5.452,5.968-4.8,6.589,1.124,10.465,5.906,16.407,8.089,2.289.842,2.529,3.437,3.367,5.406C118.515,65.814,114.9,67.832,107.357,68.345Z" transform="translate(54.042 -32.402)" fill="#d37b87"/>
                <path id="Path_10303" data-name="Path 10303" d="M200.972,120.335c-3.948-1-8.011-1.792-11.808-3.069-2.536-.852-3.735-5.038-2.631-7.271a27.709,27.709,0,0,1,2.017-4.02c1.324-1.857,3.685-2.935,5.922-3.986,2.325-1.09,3.767,1.039,5.725,1.259,2.776.311,4.842,1.642,6.908,2.841,4.736,2.751,4.779,3.512,1.889,7.747-.864,1.264-1.386,2.676-2.188,3.971C205.643,119.68,203.817,120.662,200.972,120.335Z" transform="translate(272.82 55.068)" fill="#d37b87"/>
                <path id="Path_10304" data-name="Path 10304" d="M125.44,87c.7,2.494,3.111,5.059.663,7.522-2.644,2.658-6.671,4-10.678,4.771-2.979.575-6.385.391-8.419-2.064-1.692-2.046-5.459-2.608-6.077-5.38-.631-2.476,1.508-4.194,2.5-6.263,1.123-2.349,2.8-2.316,5.423-2.976,6.444-1.616,10.435,1.624,15.287,3.305l.3.28A2,2,0,0,0,125.44,87Z" transform="translate(77.923 24.04)" fill="#c16975"/>
                <path id="Path_10305" data-name="Path 10305" d="M671.545,430.961c-5.692.075-16.417-6.683-17.313-10.913-.683-3.22,4.057-6.535,8.192-5.3,4.1,1.225,8.307,2.321,12.028,4.4,3.456,1.932,4.1,4.807,4.96,7.514C680.2,429.137,676.633,430.893,671.545,430.961Z" transform="translate(1342.139 552.496)" fill="#d37b87"/>
                <path id="Path_10306" data-name="Path 10306" d="M658.769,417.175c.237,5.973.237,5.986-6.408,6.276a36.844,36.844,0,0,1-5.449.057c-5.751-.609-8.107-2.867-8.067-7.47a9.845,9.845,0,0,1,8.409-9.232c3.843-.446,11.306,4.476,11.726,7.825A9.985,9.985,0,0,1,658.769,417.175Z" transform="translate(1307.134 540.242)" fill="#d37b87"/>
                <path id="Path_10307" data-name="Path 10307" d="M291.475,60.082c2.194-6.577,5.85-8.55,11.559-6.294,1.242.492,2.792,1.168,2.181,2.176-1.682,2.764,2.424,4.947.87,7.626-.443.764-.076,1.663,1.11,1.984s1.938-.4,2.73-.917c1.816-1.194,2.194-3.5,4.592-4.1,1.094-.269,4.438-2.7,3.311,1.658-.68,2.647,2.94,5.541,2.033,8.752-9.325,1.469-17.465-1.533-25.689-4.222C295.328,64.009,296.711,61.214,291.475,60.082Z" transform="translate(513.515 -22.515)" fill="#c16975"/>
                <path id="Path_10308" data-name="Path 10308" d="M638.132,124.368a4.533,4.533,0,0,1-2.677-2.178c-1.8-4.725-6.267-6.934-11.992-7.983q.749-1.857,1.508-3.714c1.163.474,2.595.743,3.429,1.453,3.39,2.873,6.116,1.847,9.23-.412,7.151-5.188,7.19-5.377-2.007-8.41,4.983-3.637,10.879-3.673,16.775-3.7l.618.383c.108,1.023.788,2.339.223,3.012-5.128,6.139-7.456,13.337-12.2,19.6C640.421,123.231,639.118,123.726,638.132,124.368Z" transform="translate(1271.994 51.477)" fill="#e9a5af"/>
                <path id="Path_10309" data-name="Path 10309" d="M674.507,397.949q.04,1.033.079,2.069c-.4,1.989-1.491,4.072-1.071,5.945.972,4.346-2.408,4.515-6.145,4.678q-1.261-.175-2.519-.344c-.811-3.126-3.919-2.274-6.5-2.334l-.007.078q.064-1.931.125-3.862c-.476-.65-.972-.642-1.485-.023-3.006,0-5.019-.5-4.132-3.546,1.82-6.268,3.823-7.649,11.972-7.644.388,2.3,2.513,2.458,4.8,2.412C672,395.356,672.8,397.182,674.507,397.949Z" transform="translate(1338.655 518.276)" fill="#c16975"/>
                <path id="Path_10310" data-name="Path 10310" d="M131.317,92.034c-4.851-1.681-8.842-4.921-15.287-3.305-2.628.661-4.3.627-5.423,2.976-.992,2.07-3.13,3.787-2.5,6.263-5.068-2.955-7.131-7.405-9.7-11.685-1.987-3.3.443-5.082,2.92-6.885,2.736-1.989,5.485-.922,7.64.733,4.02,3.093,8.767,4.81,14.121,6.035C126.725,87,130.686,88.255,131.317,92.034Z" transform="translate(70.746 17.919)" fill="#d37b87"/>
                <path id="Path_10311" data-name="Path 10311" d="M651.349,105.092c-5.9.029-11.792.065-16.775,3.7,9.2,3.033,9.158,3.222,2.007,8.41-3.114,2.259-5.84,3.284-9.23.412-.834-.71-2.266-.979-3.429-1.453,2.858-3.22,3.133-7.359,6.067-10.571,1.055-1.158,1.626-2.6,3.518-3.163,1.038.075,2.082.127,3.12.228,5.656.557,5.6.544,7.775-3.834.595-1.2.42-3.279,3.081-2.927A4.02,4.02,0,0,1,651,98.937,42.178,42.178,0,0,1,651.349,105.092Z" transform="translate(1273.042 45.808)" fill="#e79aa4"/>
                <path id="Path_10312" data-name="Path 10312" d="M676.692,400.449c-1.7-.767-2.509-2.593-4.884-2.572a5.16,5.16,0,0,0-4.8-2.412c-8.149-.005-10.153,1.375-11.972,7.644-.887,3.049,1.127,3.546,4.132,3.546.5,0,.992.005,1.485.023q-.059,1.931-.125,3.862c-8.869-1.914-10.967-5.476-6.743-11.723a17.823,17.823,0,0,1,4.365-5.09c2.348-1.606,5.242-3.559,8.685-1.334a6.851,6.851,0,0,0,6.583.539q3.094,3.575,6.195,7.149Q678.149,400.268,676.692,400.449Z" transform="translate(1336.47 515.776)" fill="#d37b87"/>
                <path id="Path_10313" data-name="Path 10313" d="M572.527,89.421V86.927c5.577,1.989,5.919,2.08,4.208,6.09-1.127,2.647,3.206,3.66,2.056,6.012a6.333,6.333,0,0,1-1.475.383c-1.669.054-2.854.606-3.258,1.963l-3.084.575c-.02-1.813-.174-3.554-3.193-3.8.66-2.481,3.249-4.049,4.75-6.139C573.253,91.007,573.759,90.294,572.527,89.421Z" transform="translate(1144.78 31.608)" fill="#e79aa4"/>
                <path id="Path_10314" data-name="Path 10314" d="M657.125,406.311c3.738-.163,7.118-.332,6.145-4.678-.42-1.873.667-3.955,1.071-5.945,2.053,2.209,3.3,4.556,2.529,7.4C665.547,407.968,663.553,408.655,657.125,406.311Z" transform="translate(1348.9 522.606)" fill="#d37b87"/>
                <path id="Path_10315" data-name="Path 10315" d="M654.379,398.794c2.581.06,5.689-.793,6.5,2.334C658.183,401.262,655.371,401.6,654.379,398.794Z" transform="translate(1342.626 527.445)" fill="#c86f7b"/>
                <path id="Path_10316" data-name="Path 10316" d="M653.768,443.447a15.038,15.038,0,0,1-8.5-2.432C648.483,441,651.719,440.94,653.768,443.447Z" transform="translate(1321.818 594.681)" fill="#d37b87"/>
                <path id="Path_10317" data-name="Path 10317" d="M648.907,442.142c-2.411.363-4.267-.259-5.535-1.935C645.5,440.342,647.56,440.611,648.907,442.142Z" transform="translate(1317.479 593.401)" fill="#d37b87"/>
                <path id="Path_10318" data-name="Path 10318" d="M314.5,57.337c.253-1.378.453-2.784,2.651-3.142C317.327,55.8,316.283,56.762,314.5,57.337Z" transform="translate(566.117 -20.444)" fill="#d37b87"/>
                <path id="Path_10319" data-name="Path 10319" d="M667.927,408.4c-2.214-.541-1.866-2.033-2-3.344a3.979,3.979,0,0,1,3.5,1.189l-.036-.122A1.925,1.925,0,0,0,667.927,408.4Z" transform="translate(1369.016 537.467)" fill="#e9a5af"/>
                <path id="Path_10320" data-name="Path 10320" d="M569.692,93.71c.4-1.357,1.59-1.909,3.258-1.963C572.556,93.115,571.673,93.977,569.692,93.71Z" transform="translate(1149.146 39.272)" fill="#e9a5af"/>
                <path id="Path_10321" data-name="Path 10321" d="M317.908,47.93c-.578-.316-1.547-.565-1.662-.964-.289-1.026.887-1.194,1.849-1.394Q318,46.75,317.908,47.93Z" transform="translate(570.007 -34.154)" fill="#c86f7b"/>
                <path id="Path_10322" data-name="Path 10322" d="M109.011,84.528a2,2,0,0,1-1.005-.806Z" transform="translate(94.352 26.511)" fill="#d37b87"/>
                <path id="Path_10323" data-name="Path 10323" d="M313.128,57.639l1.179-1.01C314.4,57.315,313.969,57.626,313.128,57.639Z" transform="translate(562.985 -16.573)" fill="#d37b87"/>
                <path id="Path_10324" data-name="Path 10324" d="M621.126,145.541c-2.71-.888-2.979-2.142-.91-3.751A2.752,2.752,0,0,1,621.126,145.541Z" transform="translate(1261.458 118.852)" fill="#e9a5af"/>
                <path id="Path_10325" data-name="Path 10325" d="M174.912,448.914c2.6-6.83,4.286-13.731,8.139-20.45,3.781-6.6,10.366-11.57,13.717-18.284,1.682-3.373,6.678-5.561,9.949-8.491,6.993-6.271,15.218-11.141,24.55-15.495,10.005-4.665,19.967-4.3,30.018-3.7,19.071,1.148,37.232,5.52,54.936,11.381,16.916,5.6,28.9,15.124,38.907,26.806a160.127,160.127,0,0,0,14.712,14.448c8.448,7.6,15.543,16.008,23.469,23.918,2.756,2.751,4.855,5.9,9.2,7.4a2.571,2.571,0,0,1,1.531,1.3c1.031,3.717,4.868,5.227,8.52,6.856,7.026,3.132,12.3,8.255,19.833,10.8,6.1,2.059,11.634,5.52,19.137,3.756,2.289-.539,5.134.56,7.742.666a116.181,116.181,0,0,0,22.72-1.448c7.624-1.191,15.215-2.469,23.236-1.316,3.649.526,7.771-.6,11.595-1.285a52.443,52.443,0,0,1,35.681,6.071,276.107,276.107,0,0,1,27.19,16.539,82.279,82.279,0,0,1,16.923,16.743,189.824,189.824,0,0,0,22.851,24.172,31.062,31.062,0,0,1,5.472,6.015c1.889,2.9,4.95,5.152,7.965,7.506,4.865,3.8,8.327,8.716,12.406,13.19-2.312,1.632-4.5,1.041-6.458,1.041q-177.81.051-355.617.008c-3.065,0-6.405.681-8.977-1.425,1.166-2.735,2.523-5.4-1.028-7.854-1.866-1.293-.588-3.038-.368-4.668.867-6.525.338-12.917-3.866-18.826a2.4,2.4,0,0,1-.588-1.73c1.747-6.5-2.677-12.14-3.774-18.15-1.314-7.172-6.29-12.6-10.931-17.826-3.649-4.113-5.436-9.946-12.452-12.086-1.449-.44-1.34-1.691-1.412-2.689-.115-1.528-.489-3.393-2.368-3.6-4.562-.5-5.492-3.489-7.029-5.869-4.129-6.4-10.652-10.814-17.777-15.047-3.718-2.209-6.359-5.3-11.749-5.377-2.569-.036-2.867-2.875-4.894-3.784C189.029,455,181.954,451.981,174.912,448.914Z" transform="translate(247.209 501.074)" fill="#fefafb"/>
                <path id="Path_10326" data-name="Path 10326" d="M151.4,448.044c1.094-3.108,2-6.064-3.028-7.828-2.352-.824-2.086-3.225-3.4-4.753-1.38-1.611-2.7-2.474-5.016-.852-3.722,2.606-9.624,2.886-11.72,7.421-.746,1.619-3.419.7-4.392-.673-1.774-2.513-.65-4.605,1.711-6.711,3.012-2.689,5.357-5.5,2.03-9.436-1.747-2.064,1.757-3.191,3.271-2.774,4.786,1.318,6.067-1.51,8.823-3.31,2.575-1.684,6.041-2.259,5.521-5.73-.2-1.331.87-2.365,2.3-3.051,1.882-.9,3.547-2.961,6.132-1.212,1.665,1.127,1.182,4.8-.828,6.157-3.173,2.129-6.428,4.209-9.854,6.077-2.844,1.552-2.457,3.738-.322,4.5,4.533,1.611,6.215,4.841,8.6,7.672,1.429,1.691,3.058,2.58,5.091,1.37,2.092-1.246,1.531-3.036-.388-4.227-3.508-2.178-3.521-5-2.322-7.866.657-1.567,2.565-2.564,3.777-.3.985,1.839,1.274,2.45,4.319,1.614,3.662-1.008,7.6.241,10.764,1.937.046,1.805-1.416,1.811-2.615,2.147-2.9.813-3.127,2.349-.729,3.536a22.312,22.312,0,0,1,6.681,5.155c6.655,7.24,16.023,8.524,25.3,3.357,1.5-.837,2.44-2.313,4.569-1.057,4.48,2.642,9.348,2.083,14.242,1.039,1.987-.425,3.771-.637,4.066,1.508.246,1.787-.207,3.455-2.973,3.668-2.611.2-5.278-.016-7.883.223-5.492.5-6.78,1.987-4.746,6.084,1.422,2.857-.19,6.092,2.395,8.82.772.813-.614,2.375-1.987,3.093-1.573.821-3.042.22-4.277-.627-1.386-.951-3.409-1.9-3.4-3.31.049-6.608-5.351-8.465-12.235-9.252a15.435,15.435,0,0,1-7.571-3.113c-1.35-1-2.739-2.168-4.612-.534-7.328-1.2-9.144-2.443-8.645-6.224.158-1.2,1.051-2.538-.723-3.209-2.447-.922-3.748.51-4.865,1.961-4.622-1.01-4.661-.987-6.32,3.738C156.261,445.724,155.354,447.783,151.4,448.044Z" transform="translate(128.558 542.903)" fill="#e798a2"/>
                <path id="Path_10327" data-name="Path 10327" d="M194.334,458.854c-2.145,1.448-1.439,2.927-.007,4.352,1.7,1.7,1,3.046-.828,4.295-2.487,1.7-3.643.145-4.97-1.207-1.176-1.194-2.516-2.111-4.7-1.352-2.444.844-3.827,2.225-3.633,4.336a40.7,40.7,0,0,0,.893,4.269c.309,1.546-1.974,3.37.335,4.618,2.224,1.2,3.81-.661,5.636-1.3a4.043,4.043,0,0,1,4.8,1.064c1.015,1.225.289,2.212-.654,3.357-4.661,5.649-4.638,5.686-14.269,3.74h0c.033-1.816-.181-3.5-3.157-3.743q0-1.243,0-2.487c-.286-.546-.683-1.59-.841-1.567-5.7.782-8.865-2.2-12.229-4.95-1.169-.956-2.779-.927-4.326-.964-2.68-1.7-2.792-4.235-3.6-6.595-1.4-4.111-2.8-8.245-8.481-10.275-2.188-.782-2.112-2.66-2.155-4.318,1.826-1.6,4.293-1.158,6.579-1.267,1.866-.088,3.751-.168,4.188-2.028a2.344,2.344,0,0,0-1.284-2.709c-1.544-.909-3.114-1.453-5-.5a44,44,0,0,1-4.713,2.145c-3.439,1.251-4.533-.818-5.807-2.658-1.412-2.038-.966-3.6,1.889-4.372,3.889-1.057,7.932-1.707,8.034-6.079.03-1.217,2.483-1.142,4.027-1.228a7.486,7.486,0,0,1,1.284,1.414c2.056,4.062,2.036,4.067,6.619,1.078,4.112,1.344,8.067-.187,12.061-.513,1.984-.163,3.656-.414,4.667,1.228a2.233,2.233,0,0,1-.953,3.336c-2.372,1.342-2.861,3.168-3.393,5.274-.716,2.839-2.306,3.119-5.732,2.036-2.536-.8-3.853-3.385-6.839-3.22-2.486,7.133,4.914,12.57,4.323,19.24-.056.648.877,1.7,1.682,1.984,4.122,1.443,5.5,4.041,5.886,7.354.125,1.088.884,2.461,3.235,2.261a46.508,46.508,0,0,1,5.906-9.887c.719-.979,1.587-2.673,3.393-2.051,6.4,2.207,5.663-2.36,7.387-4.605C191.89,456.344,194.032,456.51,194.334,458.854Z" transform="translate(156.786 579.45)" fill="#e79aa4"/>
                <path id="Path_10328" data-name="Path 10328" d="M174.334,457.212c-1.724,2.246-.985,6.812-7.387,4.605-1.807-.622-2.674,1.072-3.393,2.051a46.508,46.508,0,0,0-5.906,9.887c-2.352.2-3.111-1.173-3.235-2.261-.388-3.313-1.764-5.911-5.886-7.354-.8-.282-1.738-1.337-1.682-1.984.591-6.67-6.809-12.107-4.323-19.24,2.986-.166,4.3,2.417,6.839,3.22,3.426,1.083,5.016.8,5.732-2.036.532-2.106,1.022-3.932,3.393-5.274a2.233,2.233,0,0,0,.953-3.336c-1.012-1.642-2.684-1.391-4.667-1.228-3.994.326-7.949,1.857-12.061.513,6.655-5.973,17.583-4.862,20.631,2.1.765,1.743,1.685,3.466,1.508,5.377.71,3.445-1.462,6.608-1.583,9.972-2.023-.3-4.037-.648-6.073-.888a2.943,2.943,0,0,0-2.723.8c-1.235,1.409-.933,6.266.667,6.877,3.038,1.16,2.969-1.536,4.418-2.38a10.4,10.4,0,0,1,2.128-.673c2.391,1.707,2.792.254,3.166-1.241l0-2.492,4.75-1.251C175.763,451.876,175.763,451.876,174.334,457.212Z" transform="translate(172.039 578.601)" fill="#e798a2"/>
                <path id="Path_10329" data-name="Path 10329" d="M159.627,442.638c-1.544.086-4,.01-4.027,1.228-.1,4.372-4.145,5.022-8.034,6.079-2.854.774-3.3,2.334-1.889,4.372,1.274,1.839,2.368,3.909,5.807,2.658a44,44,0,0,0,4.713-2.145c1.882-.951,3.452-.407,5,.5a2.344,2.344,0,0,1,1.284,2.709c-.437,1.86-2.322,1.94-4.188,2.028-2.286.109-4.753-.337-6.579,1.267a7.512,7.512,0,0,0-2.191.614c-2.8,1.987-4.145,1.438-5.669-1.23-3.311-5.8-2.25-11.8-1.179-17.572.71-3.839-.719-5.5-4.736-6.413-4.3-.974-7-2.774-6.776-6.553,2.158-2.041,4.053-4.043,8.356-3.072,1.34.3,4.523.521,5.61-1.075,1.521-2.235,3.58-1.935,4.943-.632,3.032,2.893,5.39,1.158,7.978-.21,3,2.085.263,4.214-.075,6.253-.733,4.455-.907,4.447,4.694,3.947,1.3-.114,2.578-.282,3.666.539C166.613,439.726,160.123,439.33,159.627,442.638Zm-5.072-6.931c-1.281-2.225-1.685-4.637-5.259-4.541a2.011,2.011,0,0,0-1.544,2.559C148.856,436,151.159,436.455,154.555,435.706Zm-16.161-4.074a3.824,3.824,0,0,0,3.258.971c1.593-.075,3.235-.251,3.219-1.956-.01-1.026-1.044-1.461-2.109-1.4C140.937,429.345,139.2,429.744,138.395,431.632Zm17.977,6.649a5.691,5.691,0,0,0-.749.824c-.046.073.345.44.42.42a9.159,9.159,0,0,0,1.166-.482Q156.8,438.662,156.372,438.281Z" transform="translate(147.219 568.246)" fill="#e798a2"/>
                <path id="Path_10330" data-name="Path 10330" d="M147.817,415.132c-6.139-3-5.508-8.659-8.75-12.809a1.462,1.462,0,0,1,.7-2.212,2.567,2.567,0,0,1,2.861.269c4.533,3.8,8.649,7.009,9.158,13.379.578,7.224-3.042,11.741-8.947,15.458-2.923,1.839,2.322,4.289-1.869,4.989-2.253.376-4.92-.355-6.691,1.29a5.609,5.609,0,0,0-1.813,2.715c-.772,4.124-6.293,5.906-7.532,9.978-.555,1.813-4.165,1.43-6.3.484-2.191-.969-2.188-2.344-.93-4.194,2.546-3.735,6.927-6.683,7.174-11.48.108-2.116,3.344-2.707,5.712-2.225,4.526.925,7.134,1.158,7.036-3.867-.049-2.515,3.249-4.994,1.734-8.162-.522-1.1,1.14-1.6,2.562-1.761C143.656,416.784,145.666,417.367,147.817,415.132Z" transform="translate(114.561 529.142)" fill="#e798a2"/>
                <path id="Path_10331" data-name="Path 10331" d="M139.765,405.112a5.517,5.517,0,0,1-2.956,6c-3.1,1.73-6.211,3.041-7.469,6.535-.933,2.6-12.59,3.515-15.724,1.891-1.166-.6-2.431-1.609-1.938-2.448,2.316-3.963-1.685-5.877-4.369-8.045,1.843-1.9,3.587-1.427,5.042-.5,1.721,1.1,3.117,1.2,4.782-.018,2.135-1.562,1.242-2.818-.319-4.191-.476-.417-.522-1.134-.769-1.712,2.792.5,5.485,1.023,8.448.23,1.9-.508,4.707-.642,5.324,1.417,1.136,3.8,3.36,2.611,6.126,1.347C136.989,405.135,138.48,405.262,139.765,405.112Z" transform="translate(92.759 533.49)" fill="#e798a2"/>
                <path id="Path_10332" data-name="Path 10332" d="M159.127,432.966c-2.588,1.368-4.947,3.1-7.978.21-1.363-1.3-3.423-1.6-4.943.632-1.087,1.6-4.27,1.375-5.61,1.075-4.3-.971-6.2,1.031-8.356,3.072-3.656-3.043.03-5.123,1.583-7.481,3.951-.262,4.858-2.321,4.746-4.984l3.16-.005a8.294,8.294,0,0,0,.943,2.215,3.119,3.119,0,0,0,3.827,1.041c1.833-.935.3-1.994-.342-3a21.03,21.03,0,0,1-1.268-2.746v-1.238c1.117-1.451,2.417-2.883,4.865-1.961,1.774.671.88,2.013.723,3.209-.5,3.782,1.317,5.028,8.645,6.224Z" transform="translate(146.139 560.473)" fill="#e79aa4"/>
                <path id="Path_10333" data-name="Path 10333" d="M143.6,446.833c1.547.036,3.157.008,4.326.964,3.363,2.748,6.533,5.732,12.229,4.95.158-.023.555,1.021.841,1.567-2.72.106-4.037,2.621-6.957,2.461-4.175-.231-7.019.857-7.647,4.559-.253,1.494-2.03,1.725-3.672,1.088-1.268-.49-2.378-1.844-1.439-2.44C147.4,456.1,143.38,451.257,143.6,446.833Z" transform="translate(169.566 603.938)" fill="#e798a2"/>
                <path id="Path_10334" data-name="Path 10334" d="M154.073,458.387c-1.271-5.5.115-6.794,6.724-6.118a29.723,29.723,0,0,1,4.53.94c1.823.479,4.828-.552,5.239,1.653.328,1.756-2.02,2.691-3.846,3.525-1.767.114-4.2-.529-5.137.72C158.14,463.673,156.212,460.871,154.073,458.387Z" transform="translate(198.627 612.321)" fill="#e79aa4"/>
                <path id="Path_10335" data-name="Path 10335" d="M102.868,413.239a33.776,33.776,0,0,0,3.919,2.02c2.168.741,3.587,1.8,2.552,3.717-1.048,1.938-3.377,1.59-5.351,1.285-2.381-.37-3.521-1.58-2.713-3.564C101.662,415.754,102.132,414.832,102.868,413.239Z" transform="translate(78.383 550.516)" fill="#e798a2"/>
                <path id="Path_10336" data-name="Path 10336" d="M149.925,435.282c4.152.192,8.974,2.984,9.118,5.341.076,1.207-.857,1.969-2.322,1.844a52.541,52.541,0,0,1-5.209-.945C151.847,439.3,150.184,437.4,149.925,435.282Z" transform="translate(190.122 585.569)" fill="#e798a2"/>
                <path id="Path_10337" data-name="Path 10337" d="M153.224,435.282c.259,2.121,1.921,4.023,1.586,6.24v2.489l-4.75,1.251-1.58-.005c.122-3.365,2.293-6.527,1.583-9.972Z" transform="translate(186.823 585.569)" fill="#e79aa4"/>
                <path id="Path_10338" data-name="Path 10338" d="M129.059,424.189c-1.235.816-2.171,1.469-3.15,2.072-1.212.749-2.493,1.588-4.135,1.018-.512-.179-1.084-1-.972-1.409a3.7,3.7,0,0,1,3.35-2.955A5.24,5.24,0,0,1,129.059,424.189Z" transform="translate(123.554 565.701)" fill="#e798a2"/>
                <path id="Path_10339" data-name="Path 10339" d="M117.083,414.461c-.043.995-.752,1.52-1.892,1.583-1.317.07-2.651-.054-3.065-1.3-.3-.9.161-1.619,1.33-1.86A3.062,3.062,0,0,1,117.083,414.461Z" transform="translate(103.564 549.791)" fill="#e798a2"/>
                <path id="Path_10340" data-name="Path 10340" d="M147.033,428.146a2.491,2.491,0,0,1-2.355,2.417,1.212,1.212,0,0,1-1.389-1.191c-.167-1.329.108-2.5,2.211-2.606A1.318,1.318,0,0,1,147.033,428.146Z" transform="translate(174.867 572.022)" fill="#e798a2"/>
                <path id="Path_10341" data-name="Path 10341" d="M142.431,456.438c.24-1.057.545-2.336,2.447-2.564a1.132,1.132,0,0,1,1.3,1.236,2.544,2.544,0,0,1-2.1,2.38A1.225,1.225,0,0,1,142.431,456.438Z" transform="translate(173.001 615.117)" fill="#e798a2"/>
                <path id="Path_10342" data-name="Path 10342" d="M147.038,450.681c2.976.241,3.189,1.927,3.157,3.743C147.225,454.183,147.015,452.492,147.038,450.681Z" transform="translate(183.523 610.057)" fill="#e798a2"/>
                <path id="Path_10343" data-name="Path 10343" d="M114.471,411.479l-1.284.132a4.4,4.4,0,0,1,.131-1c.023-.075.473-.135.677-.083C114.593,410.681,114.741,411.025,114.471,411.479Z" transform="translate(106.189 546.174)" fill="#e798a2"/>
                <path id="Path_10344" data-name="Path 10344" d="M123.379,400.4c-.259.272-.519.541-.782.811a6.171,6.171,0,0,1-.808-.774c-.049-.065.207-.36.4-.438A.828.828,0,0,1,123.379,400.4Z" transform="translate(125.828 529.291)" fill="#e798a2"/>
                <path id="Path_10345" data-name="Path 10345" d="M164.849,454.8c.282.22.818.456.8.668-.049.663-.8.829-1.488,1.033-.792.233-.926.127-.627-.495C163.8,455.467,164.005,454.934,164.849,454.8Z" transform="translate(220.891 616.614)" fill="#e798a2"/>
                <path id="Path_10346" data-name="Path 10346" d="M523.286,93.147c-.263.873-.246,2.077-1.922,1.844-1-.14-1.11-1.093-1.242-1.836Z" transform="translate(1035.897 41.499)" fill="#e79aa4"/>
                <path id="Path_10347" data-name="Path 10347" d="M119.279,381c.857-.865,1.373-1.326,1.8-1.831,1.288-1.507,2.289-3.668,5.3-1.79,3.209,2,3.423,4.043.854,6.131C122.33,387.5,114.756,386.3,112.677,381c-.657-1.673-2.8-2.971-2.444-5.074C114.47,377.217,114.47,377.217,119.279,381Z" transform="translate(99.348 491.174)" fill="#e798a2"/>
                <path id="Path_10348" data-name="Path 10348" d="M108.821,368.867c-2.831.321-5.354.707-7.883.839-2.023.106-3.488-1.1-3.344-2.816.138-1.6,1.882-1.769,3.518-1.831C104.666,364.924,106.7,366.841,108.821,368.867Z" transform="translate(70.541 473.889)" fill="#e798a2"/>
                <path id="Path_10349" data-name="Path 10349" d="M112.681,382.578a1.506,1.506,0,0,1-1.6.839c-.824-.026-1.416-.386-1.291-1.064.118-.629.818-.868,1.573-.844C112.192,381.531,112.678,381.889,112.681,382.578Z" transform="translate(98.391 500.054)" fill="#e798a2"/>
                <path id="Path_10350" data-name="Path 10350" d="M100.6,379.791a1.488,1.488,0,0,1-1.554.738c-.824-.026-1.416-.386-1.291-1.065.118-.627.818-.873,1.57-.842C100.134,378.654,100.682,378.97,100.6,379.791Z" transform="translate(70.895 495.464)" fill="#e798a2"/>
                <path id="Path_10351" data-name="Path 10351" d="M119.971,380.291q-.483.33-.966.658a6.146,6.146,0,0,1-.611-.92c-.026-.057.44-.368.532-.331A6.761,6.761,0,0,1,119.971,380.291Z" transform="translate(118.084 497.174)" fill="#e798a2"/>
                <path id="Path_10352" data-name="Path 10352" d="M98.8,355.076c.108.477-.138.759-.739.759a1.118,1.118,0,0,1-.634-.243c-.42-.368-.381-.816.171-.93C97.927,354.592,98.393,354.923,98.8,355.076Z" transform="translate(69.528 457.35)" fill="#fdf8f9"/>
                <path id="Path_10353" data-name="Path 10353" d="M133.687,410.009c-1.284.15-2.776.023-3.82.5-2.766,1.264-4.989,2.456-6.126-1.347-.618-2.059-3.429-1.924-5.324-1.417-2.963.793-5.656.272-8.448-.23.742-2.173,1.481-4.349,2.378-6.981,3.928,2.173,7.643,1.3,11.007-.251,3.84-1.769,5.692-.57,7.161,2.178C131.828,404.919,133.97,407.142,133.687,410.009Z" transform="translate(98.837 528.592)" fill="#e6939f"/>
                <path id="Path_10354" data-name="Path 10354" d="M87.994,381.649c-.427.044-.857.088-1.284.129a4.438,4.438,0,0,1,.131-1c.023-.073.47-.135.677-.083C88.116,380.849,88.264,381.2,87.994,381.649Z" transform="translate(45.698 498.735)" fill="#e6939f"/>
                <path id="Path_10355" data-name="Path 10355" d="M222.988,58.778c-6.445-1.062-12.784-2.287-17.179-6.641C212.477,52.836,217.9,55.533,222.988,58.778Z" transform="translate(317.798 -23.716)" fill="#c86f7b"/>
                <path id="Path_10356" data-name="Path 10356" d="M209.293,53.283c-6.921.1-6.921.1-8.264-4.085Z" transform="translate(306.877 -28.39)" fill="#c86f7b"/>
                <path id="Path_10357" data-name="Path 10357" d="M198.666,47.782c-2.138.181-3.613-.386-3.974-2.2C196.63,45.63,197.566,46.8,198.666,47.782Z" transform="translate(292.4 -34.139)" fill="#c86f7b"/>
                <path id="Path_10358" data-name="Path 10358" d="M203.936,49.867c-1.744-.018-3.488-.034-4.4-1.533C201.095,48.684,203.013,48.391,203.936,49.867Z" transform="translate(303.471 -29.764)" fill="#c86f7b"/>
                <path id="Path_10359" data-name="Path 10359" d="M207.611,52.595a3.512,3.512,0,0,1-2.8-1.272C205.985,51.419,207.312,51.3,207.611,52.595Z" transform="translate(315.52 -25.011)" fill="#c86f7b"/>
                <path id="Path_10360" data-name="Path 10360" d="M206.977,52.027a3.951,3.951,0,0,1-3.127-1.135A3.271,3.271,0,0,1,206.977,52.027Z" transform="translate(313.322 -25.728)" fill="#c86f7b"/>
                <path id="Path_10361" data-name="Path 10361" d="M250.26,58.6l-1.652,1.083Z" transform="translate(415.579 -13.434)" fill="#d37b87"/>
                <path id="Path_10362" data-name="Path 10362" d="M313.448,48.33c2.233,1.256,2.112,2.176-.621,2.727A2.782,2.782,0,0,1,313.448,48.33Z" transform="translate(562.064 -29.77)" fill="#c86f7b"/>
                <path id="Path_10363" data-name="Path 10363" d="M312.722,42.175a4.436,4.436,0,0,1,.519.767c.043.1-.168.262-.266.394A1.247,1.247,0,0,1,312.722,42.175Z" transform="translate(561.943 -39.558)" fill="#f4d5da"/>
                <path id="Path_10364" data-name="Path 10364" d="M291.648,59.384c-.831-1.611-2.309-3.4,1.626-3.712C293.31,57.068,293.412,58.48,291.648,59.384Z" transform="translate(511.684 -18.095)" fill="#c16975"/>
                <path id="Path_10365" data-name="Path 10365" d="M122.653,49.665c-1.228,2.29-3.317,3.23-6.438,2.554C116.081,47.8,119.868,49.515,122.653,49.665Z" transform="translate(113.1 -28.368)" fill="#fefafb"/>
                <path id="Path_10366" data-name="Path 10366" d="M666.542,407.73a1.925,1.925,0,0,1,1.472-2.277C669.015,406.81,667.688,407.233,666.542,407.73Z" transform="translate(1370.402 538.135)" fill="#fefafb"/>
                <path id="Path_10367" data-name="Path 10367" d="M316.473,47.332c-.332.225-.657.629-.992.635-.581.008-.838-.414-.634-.883.069-.158.46-.389.558-.35A6.955,6.955,0,0,1,316.473,47.332Z" transform="translate(566.755 -32.316)" fill="#c86f7b"/>
                <path id="Path_10368" data-name="Path 10368" d="M575.3,87.89c1.232.873.726,1.585,0,2.59-1.5,2.09-4.09,3.657-4.75,6.139-5.311-3.406-5.259-4.52-.233-7.372A9.633,9.633,0,0,1,575.3,87.89Z" transform="translate(1142.002 33.139)" fill="#e9a5af"/>
                <path id="Path_10369" data-name="Path 10369" d="M132.216,77.739c-3.541.026-4.089-1.513-3.209-3.8C133,73.67,132.551,75.734,132.216,77.739Z" transform="translate(141.488 10.912)" fill="#fefafb"/>
                <path id="Path_10370" data-name="Path 10370" d="M656.35,392.965a5.16,5.16,0,0,1,4.8,2.412C658.863,395.423,656.738,395.268,656.35,392.965Z" transform="translate(1347.129 518.276)" fill="#c86f7b"/>
                <path id="Path_10371" data-name="Path 10371" d="M655.448,397.593c-.493-.018-.989-.026-1.485-.023C654.476,396.951,654.971,396.943,655.448,397.593Z" transform="translate(1341.676 524.861)" fill="#c86f7b"/>
                <path id="Path_10372" data-name="Path 10372" d="M136.237,424.429l-3.16.005c1.659-4.725,1.7-4.748,6.32-3.738v1.238A5.512,5.512,0,0,0,136.237,424.429Z" transform="translate(151.63 561.529)" fill="#e6939f"/>
                <path id="Path_10373" data-name="Path 10373" d="M155.128,439.7l1.58.005,0,2.492a4.12,4.12,0,0,0-3.166,1.241,10.4,10.4,0,0,0-2.128.673c-1.449.844-1.38,3.541-4.418,2.38-1.6-.611-1.9-5.468-.667-6.877a2.943,2.943,0,0,1,2.723-.8C151.091,439.055,153.1,439.4,155.128,439.7Z" transform="translate(180.176 591.124)" fill="#e6939f"/>
                <path id="Path_10374" data-name="Path 10374" d="M148,441.338a4.12,4.12,0,0,1,3.166-1.241C150.791,441.592,150.39,443.045,148,441.338Z" transform="translate(185.722 593.226)" fill="#e79aa4"/>
                <path id="Path_10375" data-name="Path 10375" d="M143.087,431.547c-3.4.749-5.7.29-6.8-1.981a2.01,2.01,0,0,1,1.544-2.559C141.4,426.911,141.806,429.322,143.087,431.547Z" transform="translate(158.688 572.405)" fill="#e79aa4"/>
                <path id="Path_10376" data-name="Path 10376" d="M133.353,428.653c.8-1.888,2.542-2.287,4.369-2.386,1.064-.06,2.1.376,2.109,1.4.016,1.7-1.626,1.881-3.219,1.956A3.824,3.824,0,0,1,133.353,428.653Z" transform="translate(152.261 571.226)" fill="#e79aa4"/>
                <path id="Path_10377" data-name="Path 10377" d="M139.353,429.752c.279.254.558.508.834.761a9.154,9.154,0,0,1-1.166.482c-.076.021-.466-.347-.42-.42A5.533,5.533,0,0,1,139.353,429.752Z" transform="translate(164.241 576.775)" fill="#e79aa4"/>
                <path id="Path_10378" data-name="Path 10378" d="M134.039,423.342a5.512,5.512,0,0,1,3.16-2.494,21.032,21.032,0,0,0,1.268,2.746c.644,1.01,2.174,2.07.342,3a3.119,3.119,0,0,1-3.827-1.041A8.3,8.3,0,0,1,134.039,423.342Z" transform="translate(153.828 562.616)" fill="#e798a2"/>
              </g>
            </g>
          </g>
        </g>
      </g>
    </g>
    <g id="Path_10414" data-name="Path 10414" transform="translate(13460 4955)" fill="#b0463d" opacity="0.06">
      <path d="M 1919.5 1079.5 L 0.5 1079.5 L 0.5 0.5 L 1919.5 0.5 L 1919.5 1079.5 Z" stroke="none"/>
      <path d="M 1 1 L 1 1079 L 1919 1079 L 1919 1 L 1 1 M 0 0 L 1920 0 L 1920 1080 L 0 1080 L 0 0 Z" stroke="none" fill="#707070"/>
    </g>
  </g>
</svg>
