<svg xmlns="http://www.w3.org/2000/svg" width="689.842" height="645.717" viewBox="0 0 689.842 645.717">
  <defs>
    <style>
      .cls-1 {
        fill: #b0463d;
      }

      .cls-2 {
        fill: #494949;
      }

      .cls-3 {
        fill: #646f61;
      }

      .cls-4 {
        fill: #955f61;
      }

      .cls-5 {
        fill: #fff;
      }

      .cls-6 {
        fill: #e0e0e0;
      }

      .cls-7 {
        fill: #263238;
      }

      .cls-8 {
        fill: #ffbe9d;
      }

      .cls-9 {
        fill: #eb996e;
      }

      .cls-10 {
        fill: #455a64;
      }

      .cls-11 {
        fill: #e8505b;
      }

      .cls-12 {
        fill: #656e62;
      }

      .cls-13, .cls-14 {
        opacity: 0.4;
      }

      .cls-15 {
        fill: #f5f5f5;
      }

      .cls-16 {
        fill: #4e4e4e;
      }

      .cls-17 {
        fill: #fafafa;
      }
    </style>
  </defs>
  <g id="Group_361" data-name="Group 361" transform="translate(-475.156 -176)">
    <g id="Group_184" data-name="Group 184">
      <circle id="Ellipse_10" data-name="Ellipse 10" class="cls-1" cx="23.608" cy="23.608" r="23.608" transform="translate(530.995 606.028)"/>
      <circle id="Ellipse_11" data-name="Ellipse 11" class="cls-2" cx="23.608" cy="23.608" r="23.608" transform="matrix(0.957, -0.29, 0.29, 0.957, 571.228, 613.491)"/>
      <circle id="Ellipse_12" data-name="Ellipse 12" class="cls-3" cx="23.608" cy="23.608" r="23.608" transform="translate(475.156 629.245) rotate(-45)"/>
      <path id="Path_199" data-name="Path 199" class="cls-4" d="M477.165,634.325h154.2s-1.586,63.588-42.985,71.366l-.645,13.5H518.291V705.447S477.164,694.92,477.165,634.325Z"/>
      <g id="Group_182" data-name="Group 182">
        <path id="Path_200" data-name="Path 200" class="cls-5" d="M588.378,705.691c0,.221-15.739.4-35.151.4s-35.155-.18-35.155-.4,15.737-.4,35.155-.4S588.378,705.469,588.378,705.691Z"/>
      </g>
      <g id="Group_183" data-name="Group 183">
        <path id="Path_201" data-name="Path 201" class="cls-5" d="M625.392,667.092s-.333.055-.987.121l-2.907.249a38.99,38.99,0,0,1-11.2-.544,22.347,22.347,0,0,1-7.539-3.015,17.164,17.164,0,0,1-6.395-7.2,12.635,12.635,0,0,1-1.077-5.318,9.4,9.4,0,0,1,1.951-5.435,6.614,6.614,0,0,1,2.4-1.919,5.742,5.742,0,0,1,3.148-.416,7.524,7.524,0,0,1,5.164,3.791,10.056,10.056,0,0,1,.887,6.688,18.938,18.938,0,0,1-2.656,6.538,23.27,23.27,0,0,1-11.482,9.275,22.247,22.247,0,0,1-15.758-.169,23.312,23.312,0,0,1-7.158-4.36,16,16,0,0,1-4.859-7.119,7.927,7.927,0,0,1,.024-4.491,5.982,5.982,0,0,1,2.828-3.586c2.885-1.475,6.5-.381,8.576,1.948a16.2,16.2,0,0,1,3.6,8.5,25.969,25.969,0,0,1-.283,9.393A27.542,27.542,0,0,1,571.7,686.17a24.945,24.945,0,0,1-8.857,4.338,28.137,28.137,0,0,1-9.969.669,26.419,26.419,0,0,1-17.32-8.968,18.733,18.733,0,0,1-4.247-8.751,12.619,12.619,0,0,1,1.971-9.329,9.544,9.544,0,0,1,8.136-4.485A8.943,8.943,0,0,1,549,664.68a6.721,6.721,0,0,1,.313,4.649,8.885,8.885,0,0,1-2.436,3.889,17.676,17.676,0,0,1-7.815,4.111c-11.3,3.082-23.316-.346-30.671-7.662a17.75,17.75,0,0,1-4.158-6.39,12.558,12.558,0,0,1-.417-7.331,10.352,10.352,0,0,1,3.789-5.941,8.942,8.942,0,0,1,6.543-1.594,8.745,8.745,0,0,1,5.627,3.1,9.354,9.354,0,0,1,2.085,5.742,9.072,9.072,0,0,1-1.8,5.477,13.64,13.64,0,0,1-4.06,3.589,31.973,31.973,0,0,1-9.045,3.4,57.78,57.78,0,0,1-8.011,1.331,55.783,55.783,0,0,1-11.216-.066,37.686,37.686,0,0,1-3.867-.588s.337.024.988.11,1.62.205,2.895.317a58.094,58.094,0,0,0,19.12-1.476,31.748,31.748,0,0,0,8.9-3.414,13.207,13.207,0,0,0,3.9-3.487,8.576,8.576,0,0,0,1.684-5.188,8.838,8.838,0,0,0-1.991-5.407,8.2,8.2,0,0,0-5.287-2.877,8.364,8.364,0,0,0-6.113,1.511,9.745,9.745,0,0,0-3.54,5.608,11.924,11.924,0,0,0,.42,6.966,17.1,17.1,0,0,0,4.028,6.142c7.174,7.108,18.981,10.453,30,7.416a16.95,16.95,0,0,0,7.486-3.938,8.126,8.126,0,0,0,2.231-3.557,5.951,5.951,0,0,0-.282-4.129,8.182,8.182,0,0,0-6.918-4.571,7.74,7.74,0,0,0-4.214,1.075,10.207,10.207,0,0,0-3.234,3.076,11.818,11.818,0,0,0-1.838,8.754,17.96,17.96,0,0,0,4.077,8.371,25.641,25.641,0,0,0,16.8,8.682,27.356,27.356,0,0,0,9.678-.647,24.151,24.151,0,0,0,8.571-4.2,26.767,26.767,0,0,0,9.692-15.676,25.169,25.169,0,0,0,.284-9.111,15.464,15.464,0,0,0-3.391-8.094c-1.88-2.141-5.19-3.082-7.659-1.8a5.231,5.231,0,0,0-2.47,3.141,7.177,7.177,0,0,0-.023,4.074,15.306,15.306,0,0,0,4.63,6.777,22.574,22.574,0,0,0,6.927,4.238,21.566,21.566,0,0,0,15.273.2,22.646,22.646,0,0,0,11.19-8.982,18.379,18.379,0,0,0,2.594-6.312,9.492,9.492,0,0,0-.8-6.3,6.983,6.983,0,0,0-4.754-3.536,5.207,5.207,0,0,0-2.849.363,6.119,6.119,0,0,0-2.22,1.758,8.927,8.927,0,0,0-1.869,5.136,12.205,12.205,0,0,0,1.008,5.118,16.805,16.805,0,0,0,6.193,7.057,22.14,22.14,0,0,0,7.4,3.03,40.064,40.064,0,0,0,11.117.687l2.91-.169C625.054,667.092,625.392,667.092,625.392,667.092Z"/>
      </g>
    </g>
    <g id="Group_197" data-name="Group 197">
      <path id="Path_202" data-name="Path 202" class="cls-4" d="M1089.261,362.178c-.6,2.021-10.876,18.211-25.689,23.722s-25.839,11.591-21.722,18.851,22.317,3.3,22.317,3.3S1027.24,448.2,1062,471.137c42.4,27.977,86.7-72.163,86.7-72.163Z"/>
      <g id="Group_185" data-name="Group 185">
        <path id="Path_203" data-name="Path 203" class="cls-6" d="M1141.728,412.717c-.116.19-14.093-8.14-31.216-18.6s-30.915-19.1-30.8-19.29,14.09,8.139,31.219,18.6S1141.843,412.528,1141.728,412.717Z"/>
      </g>
      <g id="Group_186" data-name="Group 186">
        <path id="Path_204" data-name="Path 204" class="cls-6" d="M1135.164,424.725c-.114.19-15.213-8.671-33.719-19.788s-33.423-20.288-33.308-20.478,15.209,8.668,33.721,19.789S1135.278,424.535,1135.164,424.725Z"/>
      </g>
      <g id="Group_187" data-name="Group 187">
        <path id="Path_205" data-name="Path 205" class="cls-6" d="M1127.241,436.105c-.114.19-17.067-9.785-37.862-22.277s-37.566-22.777-37.451-22.968,17.063,9.783,37.865,22.279S1127.355,435.915,1127.241,436.105Z"/>
      </g>
      <g id="Group_188" data-name="Group 188">
        <path id="Path_206" data-name="Path 206" class="cls-6" d="M1117.352,450.185c-.118.188-13.257-7.825-29.344-17.9s-29.037-18.39-28.92-18.578,13.254,7.823,29.346,17.9S1117.469,450,1117.352,450.185Z"/>
      </g>
      <g id="Group_189" data-name="Group 189">
        <path id="Path_207" data-name="Path 207" class="cls-6" d="M1105.731,463.782c-.123.185-12.358-7.709-27.324-17.629s-27.005-18.117-26.883-18.3,12.355,7.708,27.326,17.632S1105.853,463.6,1105.731,463.782Z"/>
      </g>
      <g id="Group_190" data-name="Group 190">
        <path id="Path_208" data-name="Path 208" class="cls-6" d="M1090.893,473.215a10.022,10.022,0,0,1-1.852-.871c-1.169-.6-2.839-1.516-4.888-2.671-4.1-2.309-9.687-5.625-15.73-9.5s-11.391-7.572-15.2-10.332c-1.9-1.379-3.43-2.517-4.467-3.326a9.942,9.942,0,0,1-1.564-1.32,10.191,10.191,0,0,1,1.747,1.066l4.61,3.115c3.887,2.637,9.275,6.252,15.307,10.121s11.565,7.252,15.584,9.683l4.755,2.889A10.039,10.039,0,0,1,1090.893,473.215Z"/>
      </g>
      <g id="Group_191" data-name="Group 191">
        <path id="Path_209" data-name="Path 209" class="cls-6" d="M1056.124,408.964c-.06.192-3.966-1.047-8.193-3.754-4.242-2.686-7.017-5.7-6.868-5.837.165-.177,3.138,2.527,7.3,5.159C1052.506,407.189,1056.215,408.739,1056.124,408.964Z"/>
      </g>
      <g id="Group_192" data-name="Group 192">
        <path id="Path_210" data-name="Path 210" class="cls-6" d="M1145.952,396.886a4.871,4.871,0,0,1-.531.868l-1.648,2.4c-1.442,2.075-3.57,5.049-6.233,8.7-5.324,7.3-12.835,17.276-21.409,28.076s-16.6,20.375-22.5,27.214c-2.952,3.42-5.367,6.166-7.061,8.04l-1.963,2.148a4.785,4.785,0,0,1-.725.713,4.843,4.843,0,0,1,.6-.819l1.849-2.246c1.684-2.013,4.013-4.8,6.865-8.2,5.793-6.929,13.733-16.554,22.307-27.346s16.145-20.7,21.582-27.915c2.673-3.548,4.857-6.448,6.437-8.544l1.769-2.31A4.842,4.842,0,0,1,1145.952,396.886Z"/>
      </g>
      <g id="Group_193" data-name="Group 193">
        <path id="Path_211" data-name="Path 211" class="cls-6" d="M1133.933,388.32c.175.136-14.551,19.353-32.887,42.916s-33.349,42.564-33.524,42.428,14.548-19.349,32.89-42.921S1133.758,388.184,1133.933,388.32Z"/>
      </g>
      <g id="Group_194" data-name="Group 194">
        <path id="Path_212" data-name="Path 212" class="cls-6" d="M1117.169,378.818a5.245,5.245,0,0,1-.479.954c-.384.678-.885,1.56-1.508,2.657-1.333,2.294-3.326,5.578-5.912,9.557-5.145,7.975-12.8,18.639-21.822,29.961s-17.542,21.286-23.695,28.5l-7.331,8.506-2.024,2.287a5.34,5.34,0,0,1-.748.762,5.307,5.307,0,0,1,.624-.867l1.909-2.383,7.136-8.671c6.041-7.308,14.5-17.315,23.5-28.634s16.72-21.893,21.977-29.774c2.642-3.932,4.7-7.164,6.119-9.406l1.636-2.578A5.38,5.38,0,0,1,1117.169,378.818Z"/>
      </g>
      <g id="Group_195" data-name="Group 195">
        <path id="Path_213" data-name="Path 213" class="cls-6" d="M1103.413,370.939c.176.135-12.375,16.749-28.029,37.1s-28.493,36.754-28.668,36.618,12.372-16.745,28.032-37.107S1103.237,370.8,1103.413,370.939Z"/>
      </g>
      <g id="Group_196" data-name="Group 196">
        <path id="Path_214" data-name="Path 214" class="cls-6" d="M1093.065,364.2a15.844,15.844,0,0,1-1.32,2.217c-.441.706-1,1.556-1.706,2.5s-1.459,2.064-2.414,3.2a86,86,0,0,1-6.98,7.773,88.428,88.428,0,0,1-20.575,15.113,86.018,86.018,0,0,1-9.5,4.337c-1.374.57-2.663.963-3.78,1.345s-2.092.671-2.9.88a15.725,15.725,0,0,1-2.51.6,15.893,15.893,0,0,1,2.418-.895c.787-.254,1.747-.575,2.842-1.005s2.364-.848,3.716-1.449a96.356,96.356,0,0,0,9.364-4.46,94.192,94.192,0,0,0,20.409-14.992,96.313,96.313,0,0,0,7.056-7.6c.978-1.11,1.764-2.192,2.494-3.113s1.331-1.736,1.809-2.412A15.841,15.841,0,0,1,1093.065,364.2Z"/>
      </g>
    </g>
    <rect id="Rectangle_378" data-name="Rectangle 378" class="cls-1" width="197.192" height="20.82" transform="translate(967.805 342.074)"/>
    <g id="Group_210" data-name="Group 210">
      <path id="Path_215" data-name="Path 215" class="cls-4" d="M1030.321,362.178c-.6,2.021-10.876,18.211-25.689,23.722s-25.838,11.591-21.722,18.851,22.318,3.3,22.318,3.3-36.928,40.147-2.164,63.086c42.4,27.977,86.7-72.163,86.7-72.163Z"/>
      <g id="Group_198" data-name="Group 198">
        <path id="Path_216" data-name="Path 216" class="cls-6" d="M1082.788,412.717c-.115.19-14.093-8.14-31.215-18.6s-30.916-19.1-30.8-19.29,14.09,8.139,31.218,18.6S1082.9,412.528,1082.788,412.717Z"/>
      </g>
      <g id="Group_199" data-name="Group 199">
        <path id="Path_217" data-name="Path 217" class="cls-6" d="M1076.224,424.725c-.114.19-15.212-8.671-33.719-19.788s-33.422-20.288-33.308-20.478,15.209,8.668,33.722,19.789S1076.338,424.535,1076.224,424.725Z"/>
      </g>
      <g id="Group_200" data-name="Group 200">
        <path id="Path_218" data-name="Path 218" class="cls-6" d="M1068.3,436.105c-.115.19-17.068-9.785-37.862-22.277s-37.566-22.777-37.452-22.968,17.064,9.783,37.865,22.279S1068.416,435.915,1068.3,436.105Z"/>
      </g>
      <g id="Group_201" data-name="Group 201">
        <path id="Path_219" data-name="Path 219" class="cls-6" d="M1058.412,450.185c-.118.188-13.257-7.825-29.343-17.9s-29.038-18.39-28.92-18.578,13.254,7.823,29.346,17.9S1058.53,450,1058.412,450.185Z"/>
      </g>
      <g id="Group_202" data-name="Group 202">
        <path id="Path_220" data-name="Path 220" class="cls-6" d="M1046.791,463.782c-.123.185-12.357-7.709-27.324-17.629s-27.005-18.117-26.882-18.3,12.354,7.708,27.326,17.632S1046.914,463.6,1046.791,463.782Z"/>
      </g>
      <g id="Group_203" data-name="Group 203">
        <path id="Path_221" data-name="Path 221" class="cls-6" d="M1031.954,473.215a9.973,9.973,0,0,1-1.853-.871c-1.168-.6-2.839-1.516-4.887-2.671-4.1-2.309-9.688-5.625-15.731-9.5s-11.391-7.572-15.2-10.332c-1.9-1.379-3.43-2.517-4.467-3.326a9.983,9.983,0,0,1-1.565-1.32A10.145,10.145,0,0,1,990,446.264l4.611,3.115c3.887,2.637,9.274,6.252,15.306,10.121s11.565,7.252,15.585,9.683l4.755,2.889A10.046,10.046,0,0,1,1031.954,473.215Z"/>
      </g>
      <g id="Group_204" data-name="Group 204">
        <path id="Path_222" data-name="Path 222" class="cls-6" d="M997.185,408.964c-.06.192-3.967-1.047-8.194-3.754-4.242-2.686-7.017-5.7-6.868-5.837.165-.177,3.138,2.527,7.3,5.159C993.567,407.189,997.275,408.739,997.185,408.964Z"/>
      </g>
      <g id="Group_205" data-name="Group 205">
        <path id="Path_223" data-name="Path 223" class="cls-6" d="M1087.012,396.886a4.81,4.81,0,0,1-.53.868l-1.648,2.4c-1.443,2.075-3.571,5.049-6.234,8.7-5.323,7.3-12.835,17.276-21.408,28.076s-16.6,20.375-22.5,27.214c-2.953,3.42-5.367,6.166-7.062,8.04l-1.962,2.148a4.742,4.742,0,0,1-.726.713,4.9,4.9,0,0,1,.6-.819l1.848-2.246,6.865-8.2c5.793-6.929,13.733-16.554,22.308-27.346s16.144-20.7,21.581-27.915c2.674-3.548,4.858-6.448,6.437-8.544l1.77-2.31A4.885,4.885,0,0,1,1087.012,396.886Z"/>
      </g>
      <g id="Group_206" data-name="Group 206">
        <path id="Path_224" data-name="Path 224" class="cls-6" d="M1074.994,388.32c.175.136-14.551,19.353-32.888,42.916s-33.349,42.564-33.524,42.428,14.548-19.349,32.891-42.921S1074.819,388.184,1074.994,388.32Z"/>
      </g>
      <g id="Group_207" data-name="Group 207">
        <path id="Path_225" data-name="Path 225" class="cls-6" d="M1058.229,378.818a5.27,5.27,0,0,1-.478.954l-1.509,2.657c-1.333,2.294-3.326,5.578-5.911,9.557-5.146,7.975-12.8,18.639-21.823,29.961s-17.542,21.286-23.694,28.5c-3.049,3.538-5.538,6.426-7.332,8.506l-2.024,2.287a5.308,5.308,0,0,1-.747.762,5.256,5.256,0,0,1,.623-.867c.488-.608,1.121-1.4,1.909-2.383l7.136-8.671c6.042-7.308,14.5-17.315,23.5-28.634s16.719-21.893,21.977-29.774c2.641-3.932,4.7-7.164,6.118-9.406l1.637-2.578A5.5,5.5,0,0,1,1058.229,378.818Z"/>
      </g>
      <g id="Group_208" data-name="Group 208">
        <path id="Path_226" data-name="Path 226" class="cls-6" d="M1044.474,370.939c.175.135-12.375,16.749-28.029,37.1s-28.493,36.754-28.669,36.618,12.372-16.745,28.032-37.107S1044.3,370.8,1044.474,370.939Z"/>
      </g>
      <g id="Group_209" data-name="Group 209">
        <path id="Path_227" data-name="Path 227" class="cls-6" d="M1034.125,364.2a15.735,15.735,0,0,1-1.32,2.217c-.44.706-1,1.556-1.706,2.5s-1.459,2.064-2.414,3.2a86.032,86.032,0,0,1-6.98,7.773,88.451,88.451,0,0,1-20.574,15.113,86.016,86.016,0,0,1-9.505,4.337c-1.374.57-2.663.963-3.78,1.345s-2.092.671-2.9.88a15.667,15.667,0,0,1-2.51.6,15.889,15.889,0,0,1,2.418-.895c.788-.254,1.747-.575,2.842-1.005s2.365-.848,3.717-1.449a96.349,96.349,0,0,0,9.363-4.46,94.166,94.166,0,0,0,20.41-14.992,96.724,96.724,0,0,0,7.056-7.6c.977-1.11,1.764-2.192,2.494-3.113s1.331-1.736,1.808-2.412A15.943,15.943,0,0,1,1034.125,364.2Z"/>
      </g>
    </g>
    <g id="Group_212" data-name="Group 212">
      <rect id="Rectangle_379" data-name="Rectangle 379" class="cls-7" width="12.611" height="12.611" transform="translate(1060.211 237.892)"/>
      <rect id="Rectangle_380" data-name="Rectangle 380" class="cls-2" width="117.538" height="74.183" transform="translate(1008.04 267.284)"/>
      <path id="Path_228" data-name="Path 228" class="cls-2" d="M1008.04,267.284s17.993-18.8,63.108-18.045,54.429,18.045,54.429,18.045Z"/>
      <g id="Group_211" data-name="Group 211">
        <path id="Path_229" data-name="Path 229" class="cls-7" d="M1125.124,268.492c0,.222-26.423.4-59.01.4s-59.015-.179-59.015-.4,26.417-.4,59.015-.4S1125.124,268.27,1125.124,268.492Z"/>
      </g>
      <path id="Rectangle_381" data-name="Rectangle 381" class="cls-7" d="M0,0H28.046a2.763,2.763,0,0,1,2.763,2.763V7.392a2.764,2.764,0,0,1-2.764,2.764H0a0,0,0,0,1,0,0V0A0,0,0,0,1,0,0Z" transform="translate(1125.124 268.492)"/>
      <path id="Rectangle_382" data-name="Rectangle 382" class="cls-7" d="M0,0H28.046A2.764,2.764,0,0,1,30.81,2.764V7.392a2.764,2.764,0,0,1-2.764,2.764H0a0,0,0,0,1,0,0V0A0,0,0,0,1,0,0Z" transform="translate(1008.475 278.647) rotate(180)"/>
      <rect id="Rectangle_383" data-name="Rectangle 383" class="cls-7" width="31.81" height="7.271" rx="1.979" transform="translate(1050.903 234.256)"/>
    </g>
    <g id="Group_213" data-name="Group 213">
      <path id="Path_230" data-name="Path 230" class="cls-7" d="M1160.319,718.791c0,.221-152.25.4-340.017.4-187.832,0-340.05-.18-340.05-.4s152.218-.4,340.05-.4C1008.069,718.389,1160.319,718.569,1160.319,718.791Z"/>
    </g>
    <path id="Path_231" data-name="Path 231" class="cls-1" d="M934.275,493.325c-.613,2.633-13.741,122.117-13.741,122.117l-11.871,16.88-3.218,25.848L930.071,719.2h-182.5s-2.9-32.245-2.646-40.868,4.646-40.253,4.646-40.253l-.424-32.113-6.911-140.014L804.079,446c37.363-6.431,92.349,21.524,92.349,21.524Z"/>
    <path id="Path_232" data-name="Path 232" class="cls-7" d="M910.558,404.271c8.126-.509,14.357-7.3,18.838-14.1,4.183-6.346,7.764-13.48,7.8-21.081.033-6.6-2.6-12.887-5.188-18.959-2.665-6.253-5.377-12.586-9.566-17.94s-10.1-9.7-16.845-10.54"/>
    <g id="Group_280" data-name="Group 280">
      <g id="Group_279" data-name="Group 279">
        <g id="Group_278" data-name="Group 278">
          <g id="Group_267" data-name="Group 267">
            <g id="Group_266" data-name="Group 266">
              <g id="Group_265" data-name="Group 265">
                <g id="Group_218" data-name="Group 218">
                  <g id="Group_217" data-name="Group 217">
                    <g id="Group_216" data-name="Group 216">
                      <g id="Group_215" data-name="Group 215">
                        <g id="Group_214" data-name="Group 214">
                          <path id="Path_233" data-name="Path 233" class="cls-8" d="M815.574,436.1l.082-2.01,4.767-116.659,2.634-6.619,58.351-8.071a33.6,33.6,0,0,1,36.179,32.331c.751,21.235.83,47.189-2.117,62.936-5.927,31.664-30.415,35.039-30.415,35.039s-.421,8.291-.875,20.265c-.343,9.047-8.329,35.121-17.379,35.377-3.888.109-14.5-3.26-19.558-4C815.329,480.033,815.574,436.1,815.574,436.1Z"/>
                        </g>
                      </g>
                    </g>
                  </g>
                </g>
                <g id="Group_230" data-name="Group 230">
                  <g id="Group_223" data-name="Group 223">
                    <g id="Group_222" data-name="Group 222">
                      <g id="Group_221" data-name="Group 221">
                        <g id="Group_220" data-name="Group 220">
                          <g id="Group_219" data-name="Group 219">
                            <path id="Path_234" data-name="Path 234" class="cls-7" d="M906.817,353.583a4.082,4.082,0,0,1-4.047,4.007,3.9,3.9,0,0,1-4.1-3.793,4.082,4.082,0,0,1,4.042-4.009A3.906,3.906,0,0,1,906.817,353.583Z"/>
                          </g>
                        </g>
                      </g>
                    </g>
                  </g>
                  <g id="Group_229" data-name="Group 229">
                    <g id="Group_228" data-name="Group 228">
                      <g id="Group_227" data-name="Group 227">
                        <g id="Group_226" data-name="Group 226">
                          <g id="Group_225" data-name="Group 225">
                            <g id="Group_224" data-name="Group 224">
                              <path id="Path_235" data-name="Path 235" class="cls-7" d="M911.589,348.411c-.519.517-3.547-1.854-7.937-1.964-4.382-.172-7.665,2-8.127,1.446-.227-.244.314-1.19,1.745-2.172a11.2,11.2,0,0,1,6.525-1.816,10.743,10.743,0,0,1,6.3,2.227C911.415,347.2,911.845,348.179,911.589,348.411Z"/>
                            </g>
                          </g>
                        </g>
                      </g>
                    </g>
                  </g>
                </g>
                <g id="Group_242" data-name="Group 242">
                  <g id="Group_235" data-name="Group 235">
                    <g id="Group_234" data-name="Group 234">
                      <g id="Group_233" data-name="Group 233">
                        <g id="Group_232" data-name="Group 232">
                          <g id="Group_231" data-name="Group 231">
                            <path id="Path_236" data-name="Path 236" class="cls-7" d="M863.865,353.162a4.081,4.081,0,0,1-4.046,4.007,3.9,3.9,0,0,1-4.1-3.793,4.081,4.081,0,0,1,4.042-4.009A3.9,3.9,0,0,1,863.865,353.162Z"/>
                          </g>
                        </g>
                      </g>
                    </g>
                  </g>
                  <g id="Group_241" data-name="Group 241">
                    <g id="Group_240" data-name="Group 240">
                      <g id="Group_239" data-name="Group 239">
                        <g id="Group_238" data-name="Group 238">
                          <g id="Group_237" data-name="Group 237">
                            <g id="Group_236" data-name="Group 236">
                              <path id="Path_237" data-name="Path 237" class="cls-7" d="M868.424,348.04c-.521.517-3.552-1.854-7.937-1.964-4.383-.171-7.667,2-8.129,1.446-.225-.244.311-1.189,1.747-2.172a11.188,11.188,0,0,1,6.523-1.816,10.764,10.764,0,0,1,6.3,2.227C868.245,346.834,868.679,347.809,868.424,348.04Z"/>
                            </g>
                          </g>
                        </g>
                      </g>
                    </g>
                  </g>
                </g>
                <g id="Group_248" data-name="Group 248">
                  <g id="Group_247" data-name="Group 247">
                    <g id="Group_246" data-name="Group 246">
                      <g id="Group_245" data-name="Group 245">
                        <g id="Group_244" data-name="Group 244">
                          <g id="Group_243" data-name="Group 243">
                            <path id="Path_238" data-name="Path 238" class="cls-7" d="M883.455,381.028c-.014-.249,2.728-.645,7.165-1.089,1.123-.085,2.19-.278,2.4-1.038.287-.8-.149-2.024-.656-3.343q-1.469-4.112-3.08-8.625c-4.267-12.278-7.323-22.361-6.828-22.528s4.358,9.648,8.626,21.926q1.536,4.539,2.938,8.672c.389,1.286,1.078,2.75.46,4.415a2.817,2.817,0,0,1-1.888,1.588,7.631,7.631,0,0,1-1.911.212C886.226,381.334,883.465,381.279,883.455,381.028Z"/>
                          </g>
                        </g>
                      </g>
                    </g>
                  </g>
                </g>
                <g id="Group_253" data-name="Group 253">
                  <g id="Group_252" data-name="Group 252">
                    <g id="Group_251" data-name="Group 251">
                      <g id="Group_250" data-name="Group 250">
                        <g id="Group_249" data-name="Group 249">
                          <path id="Path_239" data-name="Path 239" class="cls-9" d="M885.055,433.05a80.936,80.936,0,0,1-42.28-12.536s9.731,22.132,41.643,20.033Z"/>
                        </g>
                      </g>
                    </g>
                  </g>
                </g>
                <g id="Group_258" data-name="Group 258">
                  <g id="Group_257" data-name="Group 257">
                    <g id="Group_256" data-name="Group 256">
                      <g id="Group_255" data-name="Group 255">
                        <g id="Group_254" data-name="Group 254">
                          <path id="Path_240" data-name="Path 240" class="cls-9" d="M881.308,391.555a7.912,7.912,0,0,0-7.009-3.133,7.225,7.225,0,0,0-5.06,2.537,4.577,4.577,0,0,0-.492,5.222c1.138,1.7,3.6,2.151,5.713,1.614a16.644,16.644,0,0,0,5.7-3.193,4.863,4.863,0,0,0,1.289-1.264,1.467,1.467,0,0,0,.038-1.634"/>
                        </g>
                      </g>
                    </g>
                  </g>
                </g>
                <g id="Group_264" data-name="Group 264">
                  <g id="Group_263" data-name="Group 263">
                    <g id="Group_262" data-name="Group 262">
                      <g id="Group_261" data-name="Group 261">
                        <g id="Group_260" data-name="Group 260">
                          <g id="Group_259" data-name="Group 259">
                            <path id="Path_241" data-name="Path 241" class="cls-7" d="M870.455,383.709c.715-.022.592,4.742,4.577,8.236s9.07,3.109,9.089,3.777c.058.3-1.156.894-3.3.893a11.87,11.87,0,0,1-7.6-2.883,10.332,10.332,0,0,1-3.532-6.9C869.565,384.837,870.13,383.672,870.455,383.709Z"/>
                          </g>
                        </g>
                      </g>
                    </g>
                  </g>
                </g>
              </g>
            </g>
          </g>
          <g id="Group_272" data-name="Group 272">
            <g id="Group_271" data-name="Group 271">
              <g id="Group_270" data-name="Group 270">
                <g id="Group_269" data-name="Group 269">
                  <g id="Group_268" data-name="Group 268">
                    <path id="Path_242" data-name="Path 242" class="cls-7" d="M870.032,330.871c-.466,1.181-4.832.494-10,.973-5.177.375-9.371,1.768-10.024.679-.291-.521.464-1.623,2.175-2.732a17.459,17.459,0,0,1,15.253-1.259C869.308,329.345,870.233,330.31,870.032,330.871Z"/>
                  </g>
                </g>
              </g>
            </g>
          </g>
          <g id="Group_277" data-name="Group 277">
            <g id="Group_276" data-name="Group 276">
              <g id="Group_275" data-name="Group 275">
                <g id="Group_274" data-name="Group 274">
                  <g id="Group_273" data-name="Group 273">
                    <path id="Path_243" data-name="Path 243" class="cls-7" d="M910.326,335.664c-.8.975-3.794-.143-7.429-.292-3.629-.276-6.733.485-7.413-.577-.3-.515.216-1.5,1.587-2.407a10.765,10.765,0,0,1,11.959.7C910.287,334.148,910.68,335.187,910.326,335.664Z"/>
                  </g>
                </g>
              </g>
            </g>
          </g>
        </g>
      </g>
    </g>
    <path id="Path_244" data-name="Path 244" class="cls-7" d="M815.256,353.075s-7.8,4.18-16.022,14.5c-5.058,6.348-8.346,14.554-7.082,22.572,1.75,11.109,11.387,19.014,20.34,25.82,5.16.75,9-4.944,9.8-10.1s.082-10.719,2.523-15.328c2.188-4.134,6.512-6.666,9.4-10.348,5.367-6.852,5-16.49,3.691-25.1s.051-21.617,11.06-33.851C848.966,321.247,822.08,331.792,815.256,353.075Z"/>
    <path id="Path_245" data-name="Path 245" class="cls-7" d="M805.722,381.727c4.7-6.678,3.46-16.484-1.883-22.659s-14-8.867-22.137-8.168c-5.928.509-11.916,2.83-15.745,7.384s-4.985,11.557-1.806,16.585c1.758,2.78,4.819,5.409,4.112,8.621-.68,3.094-4.337,4.267-6.938,6.075-4.545,3.162-6.309,9.55-4.565,14.8a16.545,16.545,0,0,0,11.986,10.438A21.993,21.993,0,0,0,784.7,411.95c-.03,4.944,5.309,8.72,10.235,8.3s9.1-4,11.734-8.181c3.726-5.9,5.011-13.085,4.849-20.064s-1.683-13.847-3.2-20.662"/>
    <g id="Group_281" data-name="Group 281">
      <path id="Path_246" data-name="Path 246" class="cls-10" d="M813.872,417.484a3.48,3.48,0,0,1-.73-.46l-2-1.448c-1.714-1.283-4.193-3.15-7.081-5.682a51.857,51.857,0,0,1-9.031-10.019,30.424,30.424,0,0,1-5.276-15.594,21.531,21.531,0,0,1,1.339-8.517,20.887,20.887,0,0,1,4.307-6.779c3.541-3.736,7.493-6.14,10.615-8.321a61.765,61.765,0,0,0,7.171-5.475c.792-.714,1.371-1.3,1.753-1.717a3.457,3.457,0,0,1,.631-.589,3.468,3.468,0,0,1-.51.7,18.669,18.669,0,0,1-1.657,1.836,53.614,53.614,0,0,1-7.063,5.714c-3.089,2.244-6.984,4.7-10.4,8.357a20.328,20.328,0,0,0-4.116,6.556,20.954,20.954,0,0,0-1.273,8.211,30.1,30.1,0,0,0,5.091,15.214,53.412,53.412,0,0,0,8.794,10c2.819,2.568,5.24,4.5,6.893,5.857l1.9,1.567A3.486,3.486,0,0,1,813.872,417.484Z"/>
    </g>
    <g id="Group_282" data-name="Group 282">
      <path id="Path_247" data-name="Path 247" class="cls-10" d="M791.2,377.23c-.131.076-.944-1.625-2.967-3.8a19.531,19.531,0,0,0-21.1-5.167c-2.8.99-4.3,2.123-4.385,1.995-.028-.039.316-.358,1.012-.844a16.54,16.54,0,0,1,3.173-1.683,19.025,19.025,0,0,1,21.725,5.321,16.5,16.5,0,0,1,2.037,2.958A3.706,3.706,0,0,1,791.2,377.23Z"/>
    </g>
    <g id="Group_283" data-name="Group 283">
      <path id="Path_248" data-name="Path 248" class="cls-10" d="M766.45,385.679c-.088-.009.481-1.529,2.558-2.829a11.057,11.057,0,0,1,3.944-1.424,26.64,26.64,0,0,1,5.076-.287,35.537,35.537,0,0,1,9.067,1.426,12.379,12.379,0,0,1,3.526,1.416,31.565,31.565,0,0,1-3.671-.867,45.122,45.122,0,0,0-8.944-1.172c-3.525-.129-6.731.254-8.714,1.4A11.891,11.891,0,0,0,766.45,385.679Z"/>
    </g>
    <g id="Group_284" data-name="Group 284">
      <path id="Path_249" data-name="Path 249" class="cls-10" d="M761.15,410.887c0-.146,2.207-.1,5.665-.771a32.589,32.589,0,0,0,21.828-15.237c1.825-3.013,2.54-5.105,2.676-5.051a5.237,5.237,0,0,1-.417,1.494,26.5,26.5,0,0,1-1.769,3.843,30.89,30.89,0,0,1-22.219,15.51,26.406,26.406,0,0,1-4.217.336A5.2,5.2,0,0,1,761.15,410.887Z"/>
    </g>
    <g id="Group_285" data-name="Group 285">
      <path id="Path_250" data-name="Path 250" class="cls-10" d="M792.742,376.733c.061-.074.938.832,2.884,1.9a17.6,17.6,0,0,0,9.031,1.983,20.816,20.816,0,0,0,6.306-1.215,23.045,23.045,0,0,0,6.4-3.643,37.382,37.382,0,0,0,10.146-13.5,139.081,139.081,0,0,0,5.874-16.118,92.794,92.794,0,0,1,5.11-13.134,40.174,40.174,0,0,1,5.138-8,23.067,23.067,0,0,1,1.756-1.9,3.9,3.9,0,0,1,.68-.594c.053.052-.825.929-2.192,2.689a43.926,43.926,0,0,0-4.872,8.052,98.848,98.848,0,0,0-4.916,13.112,131.557,131.557,0,0,1-5.852,16.234,37.524,37.524,0,0,1-10.416,13.736,23.351,23.351,0,0,1-6.636,3.688,21,21,0,0,1-6.513,1.155,17.327,17.327,0,0,1-9.2-2.278,9.772,9.772,0,0,1-1.248-.832,6.611,6.611,0,0,1-.849-.695A3.793,3.793,0,0,1,792.742,376.733Z"/>
    </g>
    <g id="Group_286" data-name="Group 286">
      <path id="Path_251" data-name="Path 251" class="cls-10" d="M838.01,348.146c.076.047-.561.932-1.272,2.729a27.6,27.6,0,0,0-1.552,8.01c-.312,3.447-.182,7.659-1.37,12.21a25.562,25.562,0,0,1-8.088,12.628,24.381,24.381,0,0,1-13.763,5.932,25.657,25.657,0,0,1-12.138-1.863,24.2,24.2,0,0,1-7.037-4.379,15.706,15.706,0,0,1-1.587-1.6,2.845,2.845,0,0,1-.487-.617c.069-.066.767.766,2.277,1.983a26.165,26.165,0,0,0,18.9,5.743,23.932,23.932,0,0,0,13.31-5.8,25.152,25.152,0,0,0,7.9-12.217c1.193-4.389,1.135-8.593,1.517-12.061a25.821,25.821,0,0,1,1.829-8.081,12.244,12.244,0,0,1,1.085-1.982A2.826,2.826,0,0,1,838.01,348.146Z"/>
    </g>
    <g id="Group_287" data-name="Group 287">
      <path id="Path_252" data-name="Path 252" class="cls-10" d="M929.388,388.11c-.052-.066.518-.487,1.349-1.431a14.515,14.515,0,0,0,2.7-4.523,18.532,18.532,0,0,0,1.094-7.7,25.306,25.306,0,0,0-2.635-9.19c-3.055-6.174-7.259-10.9-10.007-14.521a39,39,0,0,1-3-4.492,7.847,7.847,0,0,1-.855-1.788,11.536,11.536,0,0,1,1.122,1.625c.7,1.057,1.755,2.55,3.183,4.3,2.838,3.5,7.158,8.212,10.282,14.521a25.181,25.181,0,0,1,2.652,9.5,18.436,18.436,0,0,1-1.305,7.952,13.513,13.513,0,0,1-3,4.529,8.53,8.53,0,0,1-1.132.95C929.556,388.041,929.405,388.132,929.388,388.11Z"/>
    </g>
    <g id="Group_288" data-name="Group 288">
      <path id="Path_253" data-name="Path 253" class="cls-10" d="M924.818,397.133c-.155-.125,2.074-1.725,3.819-5.514a17.672,17.672,0,0,0,1.524-7.038,21.772,21.772,0,0,0-1.8-8.643,74.926,74.926,0,0,0-4.15-7.982c-1.34-2.443-2.5-4.668-3.438-6.554s-1.661-3.432-2.127-4.515a7.446,7.446,0,0,1-.631-1.724,8.833,8.833,0,0,1,.913,1.589c.634,1.185,1.419,2.652,2.349,4.388,1,1.847,2.208,4.04,3.58,6.455a67.231,67.231,0,0,1,4.247,8.04A21.822,21.822,0,0,1,930.9,384.6a17.524,17.524,0,0,1-1.75,7.263,15.186,15.186,0,0,1-2.913,4.1,9.574,9.574,0,0,1-1.019.909C924.973,397.064,924.836,397.154,924.818,397.133Z"/>
    </g>
    <path id="Path_254" data-name="Path 254" class="cls-11" d="M813.753,357.17c10.557-18.026,25.338-34.8,45.656-39.65a74.9,74.9,0,0,1,58.619,9.82V291.807l-25.37-81.887L872.884,199.5l-46.7,26.673L814.1,324.668Z"/>
    <path id="Path_255" data-name="Path 255" class="cls-12" d="M813.753,357.17c10.557-18.026,25.338-34.8,45.656-39.65a74.9,74.9,0,0,1,58.619,9.82V291.807l-25.37-81.887L872.884,199.5l-46.7,26.673L814.1,324.668Z"/>
    <g id="Group_289" data-name="Group 289">
      <path id="Path_256" data-name="Path 256" class="cls-7" d="M917.033,293.1a7.2,7.2,0,0,1-1.118-.527c-.726-.355-1.752-.962-3.153-1.586a68.514,68.514,0,0,0-12.123-4.536,79.592,79.592,0,0,0-18.962-2.732,97.061,97.061,0,0,0-11.327.422,57.878,57.878,0,0,0-11.928,2.171,80.164,80.164,0,0,0-20.935,10.486,73.368,73.368,0,0,0-14.248,12.788,57.661,57.661,0,0,0-7.157,10.756q-.9,2.016-1.435,3.22a7.125,7.125,0,0,1-.546,1.111,7.114,7.114,0,0,1,.395-1.169c.294-.754.7-1.881,1.3-3.3a54.174,54.174,0,0,1,7-10.985,72.022,72.022,0,0,1,14.262-13.031,79.415,79.415,0,0,1,21.121-10.646,57.875,57.875,0,0,1,12.089-2.187,95.406,95.406,0,0,1,11.423-.379,77.848,77.848,0,0,1,19.1,2.926,63.342,63.342,0,0,1,12.108,4.8c1.386.671,2.391,1.324,3.094,1.725A7.046,7.046,0,0,1,917.033,293.1Z"/>
    </g>
    <g id="Group_290" data-name="Group 290">
      <path id="Path_257" data-name="Path 257" class="cls-7" d="M886.18,283.585c-.218.037-3.527-18.675-7.388-41.788s-6.816-41.887-6.6-41.924,3.526,18.671,7.389,41.792S886.4,283.549,886.18,283.585Z"/>
    </g>
    <g id="Group_291" data-name="Group 291">
      <path id="Path_258" data-name="Path 258" class="cls-7" d="M855.232,286.965c-.221-.007.129-17.763.782-39.653s1.363-39.64,1.585-39.633-.129,17.758-.782,39.657S855.454,286.971,855.232,286.965Z"/>
    </g>
    <g id="Group_292" data-name="Group 292">
      <path id="Path_259" data-name="Path 259" class="cls-7" d="M828.892,301.716a3.448,3.448,0,0,1-.019-.849c.027-.644.06-1.444.1-2.422.1-2.1.3-5.142.6-8.893.584-7.505,1.6-17.855,3.036-29.25s3.013-21.68,4.307-29.1c.64-3.708,1.2-6.7,1.622-8.764.2-.957.369-1.741.5-2.372a.426.426,0,1,1,.16.029c-.094.638-.211,1.43-.354,2.4-.341,2.191-.8,5.17-1.369,8.8-1.15,7.432-2.636,17.716-4.072,29.1s-2.538,21.714-3.266,29.2c-.352,3.657-.641,6.658-.854,8.866-.1.973-.185,1.77-.252,2.411A3.376,3.376,0,0,1,828.892,301.716Z"/>
    </g>
    <g id="Group_293" data-name="Group 293">
      <path id="Path_260" data-name="Path 260" class="cls-7" d="M890.685,289.575a16.47,16.47,0,0,1-.085,3.576c-.182,2.5-.392,5.39-.625,8.579s-.463,6.075-.654,8.578a16.587,16.587,0,0,1-.447,3.548,15.247,15.247,0,0,1-.12-3.577c.038-2.206.17-5.252.42-8.609s.572-6.388.861-8.575A15.263,15.263,0,0,1,890.685,289.575Z"/>
    </g>
    <g id="Group_295" data-name="Group 295">
      <path id="Path_261" data-name="Path 261" class="cls-11" d="M743.516,640.271c-1.943-2.844-7.165-5.369-10.59-5.743-11.846-1.294-22.645,3.81-31.977,11.222l-1.837,3.338c-5.029,3.921-10.27,8.4-11.833,14.579s-2.008,13.233-2.139,19.609c-.059,2.918,1.283,6.2,4,9.367a12.937,12.937,0,0,0,8.664,4.211,31.584,31.584,0,0,0,18.056-4.052A49.417,49.417,0,0,0,730,680.618a69.348,69.348,0,0,0,14.435-30.767C745.061,646.614,745.376,642.993,743.516,640.271Z"/>
      <g id="Group_294" data-name="Group 294" class="cls-13">
        <path id="Path_262" data-name="Path 262" d="M743.516,640.271c-1.943-2.844-7.165-5.369-10.59-5.743-11.846-1.294-22.645,3.81-31.977,11.222l-1.837,3.338c-5.029,3.921-10.27,8.4-11.833,14.579s-2.008,13.233-2.139,19.609c-.059,2.918,1.283,6.2,4,9.367a12.937,12.937,0,0,0,8.664,4.211,31.584,31.584,0,0,0,18.056-4.052A49.417,49.417,0,0,0,730,680.618a69.348,69.348,0,0,0,14.435-30.767C745.061,646.614,745.376,642.993,743.516,640.271Z"/>
      </g>
    </g>
    <path id="Path_263" data-name="Path 263" class="cls-1" d="M742.233,465.949c-1.858.619-94.274,131.6-96.753,140.279s-16.021,29.474,3.1,48.947a380.048,380.048,0,0,0,37.778,33.508c-4.285-33.011,28.208-59.627,50.823-52.715L719.831,624.2l39.653-52.665"/>
    <path id="Path_264" data-name="Path 264" class="cls-1" d="M934.275,493.325s14.539,18.173,18.176,29.949c3.106,10.056,19.581,56.568,19.581,56.568l30.025,74.408S997.5,660.828,996.4,666.4c-.435,2.212-4.25,36.4-13.346,50.947L934.9,695.816l-6.069-43.107-8.292-37.267,8.582-100.005Z"/>
    <path id="Path_265" data-name="Path 265" class="cls-1" d="M799.109,447.049s12.389-11.391,15.768-12.988c0,0,3.918,13.362,15.37,19.69s18.929,13.144,18.929,14.048v16.574S802.079,471.5,799.109,447.049Z"/>
    <path id="Path_266" data-name="Path 266" class="cls-1" d="M806.989,531.381l91.6-5.533-4.23-52.323-3.99-8.873-6.2-11.125a17.527,17.527,0,0,1-4.326,10.159c-7.553,8.217-18.613,9.839-18.613,9.839l-1.808,10.848L813.043,465.2s-6.054,63.166-6.054,64.673"/>
    <g id="Group_296" data-name="Group 296">
      <path id="Path_267" data-name="Path 267" class="cls-7" d="M861.23,473.525a4.085,4.085,0,0,1-.071.708c-.074.51-.173,1.2-.3,2.08-.294,1.881-.716,4.586-1.263,8.089l-.022.143-.148,0L821.747,485.7l-6.217.177-3.211.091a9.656,9.656,0,0,0-3.126.4,7.052,7.052,0,0,0-4.356,4.382,8.342,8.342,0,0,0-.36,3.283q.033,1.742.066,3.511c.2,9.434.412,19.424.631,29.765.7,28.96,1.152,55.188,1.019,74.172-.041,9.492-.163,17.173-.279,22.479-.071,2.615-.127,4.664-.166,6.11-.027.664-.048,1.189-.064,1.588a2.74,2.74,0,0,1-.049.541,2.685,2.685,0,0,1-.033-.542c0-.4-.009-.925-.016-1.59,0-1.446.009-3.5.015-6.111.006-5.356.014-13.022.024-22.475-.013-18.979-.552-45.192-1.253-74.154-.208-10.342-.409-20.334-.6-29.77q-.028-1.769-.058-3.511a9.088,9.088,0,0,1,.41-3.539,7.789,7.789,0,0,1,4.832-4.831,10.364,10.364,0,0,1,3.343-.428l3.211-.078,6.218-.149,37.688-.828-.169.147c.619-3.49,1.1-6.187,1.429-8.061.165-.876.294-1.559.39-2.065A3.937,3.937,0,0,1,861.23,473.525Z"/>
    </g>
    <g id="Group_299" data-name="Group 299">
      <circle id="Ellipse_13" data-name="Ellipse 13" class="cls-7" cx="3.924" cy="3.924" r="3.924" transform="translate(811.343 500.66)"/>
      <g id="Group_297" data-name="Group 297">
        <path id="Path_268" data-name="Path 268" class="cls-7" d="M837.173,500.375c.024.236-4.418.812-9.779,2.063-5.367,1.231-9.61,2.665-9.691,2.442-.078-.191,4.082-1.979,9.51-3.225C832.635,500.391,837.159,500.17,837.173,500.375Z"/>
      </g>
      <g id="Group_298" data-name="Group 298">
        <path id="Path_269" data-name="Path 269" class="cls-7" d="M830.6,508.153c-.076.219-3.08-.656-6.843-1.437s-6.864-1.2-6.845-1.43c.011-.211,3.188-.163,7.009.644S830.673,507.955,830.6,508.153Z"/>
      </g>
    </g>
    <g id="Group_302" data-name="Group 302">
      <circle id="Ellipse_14" data-name="Ellipse 14" class="cls-7" cx="3.924" cy="3.924" r="3.924" transform="translate(811.343 544.952)"/>
      <g id="Group_300" data-name="Group 300">
        <path id="Path_270" data-name="Path 270" class="cls-7" d="M837.173,544.667c.024.236-4.418.811-9.779,2.062-5.367,1.231-9.61,2.665-9.691,2.442-.078-.19,4.082-1.979,9.51-3.225C832.635,544.682,837.159,544.461,837.173,544.667Z"/>
      </g>
      <g id="Group_301" data-name="Group 301">
        <path id="Path_271" data-name="Path 271" class="cls-7" d="M830.6,552.444c-.076.22-3.08-.656-6.843-1.437s-6.864-1.2-6.845-1.43c.011-.211,3.188-.163,7.009.644S830.673,552.246,830.6,552.444Z"/>
      </g>
    </g>
    <g id="Group_305" data-name="Group 305">
      <circle id="Ellipse_15" data-name="Ellipse 15" class="cls-7" cx="3.924" cy="3.924" r="3.924" transform="translate(811.343 589.243)"/>
      <g id="Group_303" data-name="Group 303">
        <path id="Path_272" data-name="Path 272" class="cls-7" d="M837.173,588.958c.024.236-4.418.811-9.779,2.062-5.367,1.232-9.61,2.666-9.691,2.443-.078-.191,4.082-1.979,9.51-3.225C832.635,588.973,837.159,588.752,837.173,588.958Z"/>
      </g>
      <g id="Group_304" data-name="Group 304">
        <path id="Path_273" data-name="Path 273" class="cls-7" d="M830.6,596.735c-.076.22-3.08-.655-6.843-1.437s-6.864-1.2-6.845-1.43c.011-.21,3.188-.163,7.009.644S830.673,596.537,830.6,596.735Z"/>
      </g>
    </g>
    <g id="Group_306" data-name="Group 306">
      <path id="Path_274" data-name="Path 274" class="cls-7" d="M753.894,583.469a6.077,6.077,0,0,1,.217-1.119c.2-.8.452-1.854.772-3.169.684-2.748,1.7-6.719,2.856-11.644s2.439-10.814,3.439-17.419a119.519,119.519,0,0,0,1.414-21.632,79.825,79.825,0,0,0-3.663-21.3,62.56,62.56,0,0,0-7.624-15.9,51.484,51.484,0,0,0-7.722-9.071c-1-1-1.9-1.637-2.441-2.147a5.96,5.96,0,0,1-.836-.777,6.123,6.123,0,0,1,.935.65,31.869,31.869,0,0,1,2.551,2.042,48.183,48.183,0,0,1,7.981,8.982,61.441,61.441,0,0,1,7.859,15.994,78.833,78.833,0,0,1,3.762,21.5,116.379,116.379,0,0,1-1.485,21.772c-1.045,6.631-2.39,12.524-3.618,17.44s-2.329,8.867-3.106,11.592l-.918,3.13A5.908,5.908,0,0,1,753.894,583.469Z"/>
    </g>
    <g id="Group_307" data-name="Group 307">
      <path id="Path_275" data-name="Path 275" class="cls-7" d="M752.471,582.119a10.771,10.771,0,0,1-.524-2.055c-.3-1.331-.641-3.276-.994-5.689a122.086,122.086,0,0,1,.542-37.991c.422-2.4.822-4.335,1.155-5.658a10.712,10.712,0,0,1,.583-2.039,10.747,10.747,0,0,1-.276,2.1c-.239,1.339-.553,3.282-.9,5.685a144.258,144.258,0,0,0-.539,37.829c.28,2.412.539,4.364.739,5.709A10.858,10.858,0,0,1,752.471,582.119Z"/>
    </g>
    <g id="Group_308" data-name="Group 308">
      <path id="Path_276" data-name="Path 276" class="cls-7" d="M664.762,622.3a20.617,20.617,0,0,1,2.4-.6,32.5,32.5,0,0,0,6.2-2.5c2.526-1.286,5.382-3.1,8.627-5.037,3.252-1.872,6.973-4,11.383-4.728a19.248,19.248,0,0,1,12.123,1.985,37.348,37.348,0,0,1,8.17,5.89,49.255,49.255,0,0,1,4.671,4.9,12.789,12.789,0,0,1,1.495,1.982,17.221,17.221,0,0,1-1.729-1.775,63.42,63.42,0,0,0-4.815-4.687,38.764,38.764,0,0,0-8.119-5.651,18.764,18.764,0,0,0-11.663-1.857c-4.226.7-7.892,2.746-11.143,4.576-3.248,1.887-6.157,3.669-8.746,4.9A28.55,28.55,0,0,1,667.231,622a17.845,17.845,0,0,1-1.827.27A1.926,1.926,0,0,1,664.762,622.3Z"/>
    </g>
    <g id="Group_309" data-name="Group 309">
      <path id="Path_277" data-name="Path 277" class="cls-7" d="M696.7,590.213a5.828,5.828,0,0,1,1.468.563,13.731,13.731,0,0,1,1.647.827,23.3,23.3,0,0,1,2.1,1.258,34.232,34.232,0,0,1,4.975,3.976,36.153,36.153,0,0,1,8.6,12.921,34.109,34.109,0,0,1,1.745,6.126,22.785,22.785,0,0,1,.35,2.419,13.644,13.644,0,0,1,.127,1.839,5.841,5.841,0,0,1-.048,1.571c-.157.009-.209-2.228-.985-5.714a38.161,38.161,0,0,0-1.876-5.966,38.284,38.284,0,0,0-8.428-12.668,38.244,38.244,0,0,0-4.777-4.035C698.678,591.267,696.635,590.354,696.7,590.213Z"/>
    </g>
    <g id="Group_310" data-name="Group 310" class="cls-13">
      <path id="Path_278" data-name="Path 278" d="M716.976,619.8A37.685,37.685,0,0,0,684.5,597.369a11.209,11.209,0,0,0-5.487.853,4.775,4.775,0,0,0-2.813,4.465,13.14,13.14,0,0,1,.431,2.7c-.224,2.062-2.767,2.794-4.762,3.363a20.211,20.211,0,0,0-9.92,6.458c-1.341,1.612-2.415,4.037-1.128,5.691,1.057,1.358,3.092,1.355,4.785,1.058,6.353-1.117,12.014-4.542,17.822-7.346s12.33-5.069,18.621-3.65c6.958,1.569,12.12,7.249,16.8,12.632"/>
    </g>
    <g id="Group_311" data-name="Group 311">
      <path id="Path_279" data-name="Path 279" class="cls-7" d="M920.534,615.442a3.644,3.644,0,0,1-.574.672l-1.759,1.818c-.763.791-1.716,1.74-2.876,2.785s-2.432,2.291-3.954,3.537a133.947,133.947,0,0,1-10.934,8.435,136.468,136.468,0,0,1-29.928,15.64,133.737,133.737,0,0,1-13.169,4.161c-1.891.537-3.638.88-5.161,1.226s-2.843.6-3.928.771l-2.5.406a3.69,3.69,0,0,1-.879.088,3.631,3.631,0,0,1,.851-.247l2.464-.554c1.074-.221,2.383-.505,3.889-.9s3.239-.766,5.113-1.336c3.778-1.029,8.213-2.48,13.055-4.3a144.55,144.55,0,0,0,29.772-15.558c4.262-2.933,7.985-5.745,10.987-8.26,1.539-1.213,2.839-2.417,4.017-3.434s2.166-1.924,2.961-2.678L919.846,616A3.7,3.7,0,0,1,920.534,615.442Z"/>
    </g>
    <g id="Group_312" data-name="Group 312">
      <path id="Path_280" data-name="Path 280" class="cls-7" d="M934.9,514.029a5.159,5.159,0,0,1-.1,1.039c-.114.756-.262,1.736-.446,2.952-.419,2.655-1,6.334-1.71,10.84-1.411,9.158-3.275,21.823-5.2,35.831-1.876,13.977-3.573,26.625-4.816,35.9-.607,4.521-1.1,8.214-1.46,10.878-.177,1.217-.319,2.2-.429,2.954a5.125,5.125,0,0,1-.2,1.024,5.075,5.075,0,0,1,.042-1.043c.072-.761.164-1.748.279-2.972.3-2.672.705-6.376,1.207-10.912,1.07-9.208,2.654-21.917,4.584-35.933s3.875-26.673,5.43-35.813c.795-4.568,1.448-8.262,1.963-10.8.245-1.205.442-2.176.595-2.926A4.964,4.964,0,0,1,934.9,514.029Z"/>
    </g>
    <g id="Group_313" data-name="Group 313">
      <path id="Path_281" data-name="Path 281" class="cls-7" d="M882.705,666.5a6.883,6.883,0,0,1,.836-1.476c.581-.921,1.452-2.234,2.55-3.841,2.2-3.215,5.324-7.591,8.924-12.316s6.994-8.9,9.511-11.872c1.258-1.485,2.294-2.672,3.028-3.477a7,7,0,0,1,1.2-1.2,6.829,6.829,0,0,1-.96,1.4l-2.829,3.636c-2.4,3.057-5.715,7.283-9.312,12s-6.789,9.032-9.1,12.158l-2.756,3.691A6.941,6.941,0,0,1,882.705,666.5Z"/>
    </g>
    <g id="Group_314" data-name="Group 314">
      <path id="Path_282" data-name="Path 282" class="cls-7" d="M981.982,634.4a19.726,19.726,0,0,1-2.468-1.018c-1.572-.684-3.856-1.656-6.748-2.659a66.138,66.138,0,0,0-23.392-3.935,18.765,18.765,0,0,0-6.526,1.346,16.958,16.958,0,0,0-5.129,3.472,26.91,26.91,0,0,0-5.79,8.858c-1.192,2.809-1.905,5.193-2.436,6.823a17.876,17.876,0,0,1-.874,2.524,16.121,16.121,0,0,1,.573-2.61,58.529,58.529,0,0,1,2.212-6.954,26.691,26.691,0,0,1,5.8-9.17,17.479,17.479,0,0,1,5.338-3.666,19.258,19.258,0,0,1,6.8-1.425,62.953,62.953,0,0,1,23.623,4.2,67.206,67.206,0,0,1,6.687,2.909c.774.377,1.357.706,1.753.926A2.251,2.251,0,0,1,981.982,634.4Z"/>
    </g>
    <g id="Group_315" data-name="Group 315">
      <path id="Path_283" data-name="Path 283" class="cls-7" d="M970.439,610.186c0,.162-2.419.085-6.227.744a40.115,40.115,0,0,0-6.538,1.736,40.438,40.438,0,0,0-14.036,8.592,40.154,40.154,0,0,0-4.52,5.034c-2.317,3.091-3.35,5.282-3.494,5.206a6.874,6.874,0,0,1,.661-1.564,14.687,14.687,0,0,1,.946-1.753,24.574,24.574,0,0,1,1.428-2.223,36.3,36.3,0,0,1,4.469-5.236,38.428,38.428,0,0,1,14.3-8.754,36.3,36.3,0,0,1,6.694-1.6,24.531,24.531,0,0,1,2.63-.26,14.653,14.653,0,0,1,1.992-.046A6.8,6.8,0,0,1,970.439,610.186Z"/>
    </g>
    <g id="Group_317" data-name="Group 317">
      <path id="Path_284" data-name="Path 284" class="cls-11" d="M982.839,707.906a30.41,30.41,0,0,0-17.6-23.254c-7.345-3.288-17.5-4.04-24.483-.039s-16.325,13.974-14.439,21.8l16.024,26.913c8.057,6.185,20.048,6.415,28.578.9S984.14,717.98,982.839,707.906Z"/>
      <g id="Group_316" data-name="Group 316" class="cls-13">
        <path id="Path_285" data-name="Path 285" d="M982.839,707.906a30.41,30.41,0,0,0-17.6-23.254c-7.345-3.288-17.5-4.04-24.483-.039s-16.325,13.974-14.439,21.8l16.024,26.913c8.057,6.185,20.048,6.415,28.578.9S984.14,717.98,982.839,707.906Z"/>
      </g>
    </g>
    <g id="Group_318" data-name="Group 318">
      <path id="Path_286" data-name="Path 286" class="cls-7" d="M977.849,727.525c-.059-.038.562-1.081,1.577-3a30.979,30.979,0,0,0,2.767-8.725,28.055,28.055,0,0,0-1.18-13.391,32.259,32.259,0,0,0-1.472-3.63,33.093,33.093,0,0,0-2.079-3.517,29.216,29.216,0,0,0-5.756-6.343,28.546,28.546,0,0,0-7.35-4.369,29.858,29.858,0,0,0-21.137-.057,31.924,31.924,0,0,0-8.085,4.313c-1.739,1.3-2.631,2.13-2.686,2.069a3.6,3.6,0,0,1,.606-.639,21.374,21.374,0,0,1,1.89-1.678,29.964,29.964,0,0,1,8.077-4.6,30.045,30.045,0,0,1,21.622-.143,28.966,28.966,0,0,1,7.575,4.484,29.591,29.591,0,0,1,5.9,6.521,33.333,33.333,0,0,1,2.116,3.619,32.606,32.606,0,0,1,1.485,3.734,28.128,28.128,0,0,1,1.038,13.716,29.119,29.119,0,0,1-3.05,8.779c-.525.965-1.029,1.659-1.334,2.148A3.577,3.577,0,0,1,977.849,727.525Z"/>
    </g>
    <g id="Group_319" data-name="Group 319">
      <path id="Path_287" data-name="Path 287" class="cls-7" d="M933.778,689.684c-.219.035-2.094-10.526-4.187-23.585s-3.613-23.678-3.394-23.713,2.093,10.523,4.187,23.586S934,689.649,933.778,689.684Z"/>
    </g>
    <g id="Group_320" data-name="Group 320" class="cls-13">
      <path id="Path_288" data-name="Path 288" d="M923.336,628.032l8.184-.561a37.719,37.719,0,0,1,23.64-16.34,14.582,14.582,0,0,1,6.828-.136,6.674,6.674,0,0,1,4.837,4.461c.566,2.228-.789,4.923-3.049,5.342a16.964,16.964,0,0,1,10.711,8.487c.461.886.8,2.083.095,2.791a2.484,2.484,0,0,1-1.843.495c-3.785-.056-7.526-.842-11.307-1.021s-7.78.326-10.845,2.549c-3.05,2.213-4.751,5.8-6.217,9.267a187.181,187.181,0,0,0-11.4,38.738c-1.888-7.512-2.067-15.487-3.438-22.545-1.962-10.1-3.858-20.432-6.191-31.527"/>
    </g>
    <g id="Group_321" data-name="Group 321" class="cls-13">
      <path id="Path_289" data-name="Path 289" d="M745.724,696.131c10.2,10.886,23.957,15.967,38.68,18.369s29.759,1.56,44.653.71c3.672-.209,8.03-.851,9.627-4.165,1.133-2.35.36-5.142-.561-7.583-6.557-17.38-19.552-31.422-32.244-44.985-4.642-4.962-9.592-10.12-16.086-12.118-7.137-2.2-15.251-.255-22.022-3.406-8.131-3.783-11.456-13.376-13.97-21.985-2.59-8.869-2.59-8.869-5.181-17.739,1.142,19.325.948,34.847.948,34.847s-5.335,35.711-4.679,43.815S745.724,696.131,745.724,696.131Z"/>
    </g>
    <g id="Group_322" data-name="Group 322">
      <path id="Path_290" data-name="Path 290" class="cls-7" d="M847.243,475.687a10.181,10.181,0,0,1-2.026-.447c-1.294-.326-3.141-.9-5.391-1.7a88.561,88.561,0,0,1-31.5-19.564c-1.713-1.663-3.045-3.064-3.912-4.08a10.24,10.24,0,0,1-1.3-1.617,10.327,10.327,0,0,1,1.526,1.4c.933.946,2.321,2.28,4.073,3.88a99.868,99.868,0,0,0,31.31,19.447c2.211.861,4.022,1.513,5.284,1.93A10.4,10.4,0,0,1,847.243,475.687Z"/>
    </g>
    <g id="Group_323" data-name="Group 323">
      <path id="Path_291" data-name="Path 291" class="cls-7" d="M890.237,467.124a3.926,3.926,0,0,1-.581,1.143,25.228,25.228,0,0,1-2,2.86,36.142,36.142,0,0,1-19.037,12.386,25.263,25.263,0,0,1-3.424.67,3.958,3.958,0,0,1-1.281.068c-.022-.138,1.77-.43,4.549-1.284a40.641,40.641,0,0,0,18.756-12.2C889.127,468.569,890.12,467.048,890.237,467.124Z"/>
    </g>
    <g id="Group_324" data-name="Group 324">
      <path id="Path_292" data-name="Path 292" class="cls-7" d="M897.379,476.635c.185.057-1.424,4.17-5.021,8.159-3.568,4.018-7.477,6.072-7.554,5.894-.141-.209,3.485-2.515,6.956-6.429C895.264,480.377,897.156,476.518,897.379,476.635Z"/>
    </g>
    <path id="Path_293" data-name="Path 293" class="cls-8" d="M816.487,660s.357-.075.968-.2c3.411-.668,14.765-2.727,16.594-.9,2.158,2.158,17.532,17.262,17.532,17.262s-2.967,4.855-12.677,0S816.487,660,816.487,660Z"/>
    <path id="Path_294" data-name="Path 294" class="cls-2" d="M794.68,629.342h0a7.793,7.793,0,0,1,10.612,1.88l46.862,62.155-12,8.753-47.329-61.552A7.794,7.794,0,0,1,794.68,629.342Z"/>
    <path id="Path_295" data-name="Path 295" class="cls-8" d="M687.52,670.96s55.656,9.033,63.322,9.646,28.821,23,34.954,25.143,22.689,1.839,22.689,1.839,30.049,1.564,30.968.016,2.76-1.242,0-7.068a59.229,59.229,0,0,0-6.132-10.118s7.665,9.5,9.812,9.812,6.745.857,6.439-3.251-8.279-20.972-8.279-20.972-3.373-7.874-9.505-9.609-32.808-14.614-32.808-14.614H770.465l-33.286-15.816s-20.141-6.472-39.312,14.665a41.369,41.369,0,0,0-8.335,14.452Z"/>
    <g id="Group_325" data-name="Group 325">
      <path id="Path_296" data-name="Path 296" class="cls-9" d="M846.649,688.683a7.8,7.8,0,0,1-.827-1.617l-1.981-4.528c-.833-1.981-1.791-4.261-2.843-6.761a14.641,14.641,0,0,0-4.859-7.088,22.291,22.291,0,0,0-3.989-2.189l-3.941-1.761c-2.519-1.107-4.8-2.07-6.723-2.871l-4.556-1.89a8.22,8.22,0,0,1-1.642-.775,7.668,7.668,0,0,1,1.752.482c1.109.363,2.7.921,4.655,1.655s4.264,1.647,6.807,2.719l3.972,1.724a22.332,22.332,0,0,1,4.14,2.258,15.053,15.053,0,0,1,5.083,7.493c.989,2.515,1.891,4.807,2.674,6.8l1.74,4.614A7.98,7.98,0,0,1,846.649,688.683Z"/>
    </g>
    <g id="Group_326" data-name="Group 326">
      <path id="Path_297" data-name="Path 297" class="cls-9" d="M818.663,673.243a14.393,14.393,0,0,1,2.942,2.28,63.519,63.519,0,0,1,11.51,13.731,14.344,14.344,0,0,1,1.731,3.295,21.2,21.2,0,0,1-2.205-2.982c-1.312-1.867-3.178-4.405-5.41-7.071s-4.407-4.943-6.016-6.561A21.139,21.139,0,0,1,818.663,673.243Z"/>
    </g>
    <g id="Group_327" data-name="Group 327">
      <path id="Path_298" data-name="Path 298" class="cls-9" d="M834.577,708.032a3.626,3.626,0,0,1-1.173-.463,22.023,22.023,0,0,1-2.922-1.8,49.689,49.689,0,0,1-8.127-7.817c-2.886-3.308-5.455-6.333-7.289-8.549a26.82,26.82,0,0,1-2.84-3.7,26.792,26.792,0,0,1,3.269,3.323c1.942,2.118,4.582,5.088,7.464,8.391a62.078,62.078,0,0,0,7.866,7.9C833.052,707.1,834.64,707.913,834.577,708.032Z"/>
    </g>
    <g id="Group_328" data-name="Group 328">
      <path id="Path_299" data-name="Path 299" class="cls-9" d="M818.055,708a11.659,11.659,0,0,1-2.868-1.436,66.321,66.321,0,0,1-6.415-4.316,75.1,75.1,0,0,1-5.9-4.992,12,12,0,0,1-2.194-2.338c.167-.184,3.818,3.054,8.581,6.691S818.18,707.792,818.055,708Z"/>
    </g>
    <path id="Path_300" data-name="Path 300" class="cls-8" d="M909.362,731.131s-4.893-7.557-5.568-10.26,0-15.541-9.01-13.514v.931c.226,1.1,0,27.223,0,27.223Z"/>
    <path id="Path_301" data-name="Path 301" class="cls-4" d="M793.969,744.8s-8.324,76.714,81.491,74.476c73.227-1.824,71.937-73.2,71.937-73.2Z"/>
    <ellipse id="Ellipse_16" data-name="Ellipse 16" class="cls-4" cx="83.693" cy="20.233" rx="83.693" ry="20.233" transform="translate(785.645 725.293)"/>
    <ellipse id="Ellipse_17" data-name="Ellipse 17" class="cls-14" cx="76.816" cy="12.786" rx="76.816" ry="12.786" transform="translate(793.766 732.018)"/>
    <g id="Group_329" data-name="Group 329">
      <path id="Path_302" data-name="Path 302" class="cls-7" d="M950.191,751.31a1.61,1.61,0,0,1-.339.245l-1.039.65c-.911.576-2.3,1.355-4.118,2.291a82.227,82.227,0,0,1-16.218,6.083,202.15,202.15,0,0,1-25.259,4.717,245.5,245.5,0,0,1-31.421,1.546c-11.16-.094-21.793-.465-31.435-1.307a179.212,179.212,0,0,1-25.39-3.95,113.546,113.546,0,0,1-16.535-5.158c-1.916-.721-3.346-1.419-4.329-1.856l-1.109-.52a1.651,1.651,0,0,1-.366-.2,1.6,1.6,0,0,1,.4.127l1.139.445c1,.389,2.449,1.039,4.377,1.714a123.328,123.328,0,0,0,16.552,4.9,185.518,185.518,0,0,0,25.325,3.766c9.615.8,20.233,1.149,31.376,1.242a253.073,253.073,0,0,0,31.327-1.477,210.974,210.974,0,0,0,25.2-4.532,86.99,86.99,0,0,0,16.224-5.814c1.835-.889,3.241-1.622,4.176-2.151l1.078-.58A1.656,1.656,0,0,1,950.191,751.31Z"/>
    </g>
    <path id="Path_303" data-name="Path 303" class="cls-8" d="M898.912,743.077s9.161-30.705,12.314-34.789c2.606-3.375,21.07-17.339,27.4-22.086a15.135,15.135,0,0,1,5.228-2.535c6.28-1.661,12.542-2.763,22.88,1.711a26.119,26.119,0,0,1,14.094,15.2L946.363,722l-1.341,14.5-27.741-7.075s.349-1.476-.814-4.233C916.467,725.191,907.675,746.561,898.912,743.077Z"/>
    <g id="Group_330" data-name="Group 330">
      <path id="Path_304" data-name="Path 304" class="cls-15" d="M865.661,721.277c-3.5-4.7-6.42-9.087-8.742-12.856-2.271-3.8-3.957-6.963-5.058-9.183a23.554,23.554,0,0,0-1.79-3.421,23.427,23.427,0,0,0,1.362,3.62,97.59,97.59,0,0,0,4.748,9.42,153.216,153.216,0,0,0,8.58,13.083c3.459,4.766,7.508,9.815,11.817,15.048,6,7.218,11.562,13.959,16.078,19.868l1.243-.058c-4.515-6.141-10.2-13.142-16.385-20.581C873.209,730.989,869.15,725.981,865.661,721.277Z"/>
      <path id="Path_305" data-name="Path 305" class="cls-15" d="M843.626,699.278a24.488,24.488,0,0,0,1.461,3.574c1,2.272,2.448,5.555,4.154,9.646a321.875,321.875,0,0,1,11.617,32.6c1.205,4.329,2.484,8.536,3.994,12.442l1.24-.011c-1.527-3.961-2.813-8.257-4.072-12.775a265.267,265.267,0,0,0-11.992-32.6c-1.812-4.06-3.385-7.3-4.515-9.509A22.717,22.717,0,0,0,843.626,699.278Z"/>
      <path id="Path_306" data-name="Path 306" class="cls-15" d="M846.655,695.6a23.79,23.79,0,0,0,1.654,3.526c1.138,2.231,2.813,5.443,4.929,9.389,4.242,7.883,10.185,18.745,17.418,30.355,4.186,6.756,8.392,12.949,12.283,18.35l1.295-.041c-3.922-5.565-8.226-11.974-12.549-18.951-7.212-11.576-13.264-22.354-17.7-30.128l-5.266-9.2A23.99,23.99,0,0,0,846.655,695.6Z"/>
      <path id="Path_307" data-name="Path 307" class="cls-15" d="M914.094,748.315a51.082,51.082,0,0,0-13.648-18.73,124.261,124.261,0,0,0-16.973-12.35c-5.549-3.5-10.75-6.681-15.276-9.9a106.76,106.76,0,0,1-19.4-17.686c-2.024-2.362-3.51-4.27-4.506-5.572l-1.132-1.483a2.54,2.54,0,0,0-.418-.484,2.448,2.448,0,0,0,.316.555c.272.409.613.921,1.037,1.556.934,1.352,2.364,3.313,4.342,5.732a102.236,102.236,0,0,0,19.26,18.079c4.525,3.291,9.72,6.528,15.234,10.056A124.993,124.993,0,0,1,899.7,730.414,50.142,50.142,0,0,1,913,748.773a37.71,37.71,0,0,1,2.053,6.509c.4-.041.8-.082,1.2-.125A38.7,38.7,0,0,0,914.094,748.315Z"/>
      <path id="Path_308" data-name="Path 308" class="cls-15" d="M911.315,753.391a53.625,53.625,0,0,0-8.233-14.053A89.186,89.186,0,0,0,888.744,725.5c-5.542-4.383-11.073-8.189-16.01-11.752s-9.294-6.881-12.772-9.885a95.055,95.055,0,0,1-7.835-7.542,36.507,36.507,0,0,0-2.722-2.937,3.412,3.412,0,0,0,.55.885c.385.564,1,1.358,1.817,2.363A75.842,75.842,0,0,0,859.4,704.5a161.847,161.847,0,0,0,12.681,10.145c4.915,3.622,10.416,7.45,15.914,11.8a92.193,92.193,0,0,1,14.223,13.595,55.072,55.072,0,0,1,8.306,13.668c.273.667.509,1.309.736,1.942l.8-.073C911.824,754.86,911.6,754.148,911.315,753.391Z"/>
      <path id="Path_309" data-name="Path 309" class="cls-15" d="M870.874,746.257c-5.911-10.844-10.9-20.854-14.43-28.138l-4.158-8.64a19.529,19.529,0,0,0-1.64-3.12,19.556,19.556,0,0,0,1.208,3.312c.857,2.1,2.15,5.115,3.814,8.812,3.338,7.388,8.216,17.484,14.141,28.354,2.009,3.692,4,7.22,5.936,10.557l1.326-.028C875.07,753.862,872.988,750.142,870.874,746.257Z"/>
      <path id="Path_310" data-name="Path 310" class="cls-15" d="M883.206,732.406a317.385,317.385,0,0,1-23.529-25.825c-2.829-3.467-5.055-6.326-6.6-8.295a24.881,24.881,0,0,0-2.481-3.006,23.239,23.239,0,0,0,2.1,3.287c1.434,2.058,3.56,5,6.312,8.548a263.543,263.543,0,0,0,23.351,26.157c4.874,4.823,9.817,9.086,13.969,13.265a64.392,64.392,0,0,1,8.089,9.657c.345-.024.686-.051,1.03-.075a61.05,61.05,0,0,0-8.322-10.365C892.964,741.482,888.052,737.2,883.206,732.406Z"/>
      <path id="Path_311" data-name="Path 311" class="cls-15" d="M857.886,753.637c-2.054-6.19-3.441-12.14-4.745-17.552-2.493-10.856-4.817-19.635-7.3-25.391a45,45,0,0,0-4.437-8.615,2.57,2.57,0,0,0,.255.587c.225.435.506.98.854,1.657.73,1.466,1.777,3.644,2.89,6.546,2.33,5.775,4.512,14.522,6.9,25.409,1.253,5.433,2.592,11.4,4.626,17.676.4,1.185.835,2.4,1.295,3.611h1.1C858.812,756.245,858.33,754.928,857.886,753.637Z"/>
    </g>
    <g id="Group_331" data-name="Group 331">
      <path id="Path_312" data-name="Path 312" class="cls-7" d="M920.033,735.02a1.21,1.21,0,0,1,.366-.026c.245-.01.6.02,1.076.046.941.076,2.325.231,4.1.489a93.046,93.046,0,0,1,14.829,3.283,32.458,32.458,0,0,1,4.646,2.043,6.3,6.3,0,0,1,2.106,1.832,3.533,3.533,0,0,1,.437,2.924,4.038,4.038,0,0,1-2.017,2.27,16.305,16.305,0,0,1-2.659,1.418,44.721,44.721,0,0,1-5.883,2.046,182.512,182.512,0,0,1-27.069,5.205c-19.462,2.3-37.234,1.848-50.015,1.378-6.4-.247-11.571-.548-15.145-.77l-4.113-.286-1.068-.1a1.247,1.247,0,0,1-.363-.06,1.26,1.26,0,0,1,.367-.022l1.073.015,4.12.136,15.148.514c12.777.325,30.514.685,49.9-1.607a187.584,187.584,0,0,0,26.968-5.122,44.41,44.41,0,0,0,5.8-1.981,15.571,15.571,0,0,0,2.57-1.349,3.4,3.4,0,0,0,1.744-1.868,2.879,2.879,0,0,0-.333-2.392,5.725,5.725,0,0,0-1.884-1.652,32.432,32.432,0,0,0-4.521-2.042,101.67,101.67,0,0,0-14.688-3.509c-1.762-.3-3.135-.509-4.067-.637S920.033,735.051,920.033,735.02Z"/>
    </g>
    <g id="Group_332" data-name="Group 332">
      <path id="Path_313" data-name="Path 313" class="cls-9" d="M927.513,716.041c.136.19-2.738,2.423-6.018,5.464s-5.743,5.719-5.921,5.568c-.164-.13,2.041-3.086,5.376-6.158S927.4,715.868,927.513,716.041Z"/>
    </g>
    <g id="Group_333" data-name="Group 333">
      <path id="Path_314" data-name="Path 314" class="cls-9" d="M926.829,728.215c-.12.207-2.135-1.12-4.957-1.029-2.824.026-4.782,1.436-4.91,1.234-.061-.075.339-.547,1.194-1.045a8.015,8.015,0,0,1,7.437-.154C926.467,727.682,926.886,728.138,926.829,728.215Z"/>
    </g>
    <g id="Group_335" data-name="Group 335">
      <path id="Path_315" data-name="Path 315" class="cls-2" d="M647.091,409.926c-.9.7-49.8,22.661-49.8,22.661s13.465,28.594,39.595,15.854C660.742,436.812,647.091,409.926,647.091,409.926Z"/>
      <g id="Group_334" data-name="Group 334">
        <path id="Path_316" data-name="Path 316" class="cls-2" d="M646.546,252c1.109,0,2.008,37.966,2.008,84.788,0,46.839-.9,84.8-2.008,84.8s-2.007-37.958-2.007-84.8C644.539,289.969,645.438,252,646.546,252Z"/>
      </g>
    </g>
    <g id="Group_337" data-name="Group 337">
      <path id="Path_317" data-name="Path 317" class="cls-2" d="M611.755,366.537c-.9.7-49.8,22.661-49.8,22.661s13.465,28.594,39.6,15.854C625.406,393.423,611.755,366.537,611.755,366.537Z"/>
      <g id="Group_336" data-name="Group 336">
        <path id="Path_318" data-name="Path 318" class="cls-2" d="M611.21,249.133c1.109,0,2.008,28.9,2.008,64.53s-.9,64.536-2.008,64.536S609.2,349.31,609.2,313.663,610.1,249.133,611.21,249.133Z"/>
      </g>
    </g>
    <g id="Group_339" data-name="Group 339">
      <path id="Path_319" data-name="Path 319" class="cls-2" d="M568.948,323.73c-.9.7-49.8,22.661-49.8,22.661s13.464,28.594,39.595,15.854C582.6,350.616,568.948,323.73,568.948,323.73Z"/>
      <g id="Group_338" data-name="Group 338">
        <path id="Path_320" data-name="Path 320" class="cls-2" d="M568.4,253.5c1.109,0,2.008,18.334,2.008,40.945s-.9,40.95-2.008,40.95-2.007-18.33-2.007-40.95S567.295,253.5,568.4,253.5Z"/>
      </g>
    </g>
    <g id="Group_341" data-name="Group 341">
      <circle id="Ellipse_18" data-name="Ellipse 18" class="cls-2" cx="49.96" cy="49.96" r="49.96" transform="translate(654.763 317.795)"/>
      <path id="Path_321" data-name="Path 321" class="cls-2" d="M702.849,323.377l-3.917-64.245h18.412l-5.093,64.245Z"/>
      <g id="Group_340" data-name="Group 340">
        <path id="Path_322" data-name="Path 322" class="cls-7" d="M725.74,402.8a1.477,1.477,0,0,1-.33.225l-1.01.591c-.45.248-.991.59-1.667.922l-2.371,1.071a41.3,41.3,0,0,1-16.227,2.988,42.361,42.361,0,0,1-23.2-7.373,37.412,37.412,0,0,1-10.091-10.439,42.843,42.843,0,0,1-6.392-30,37.409,37.409,0,0,1,4.96-13.649,42.361,42.361,0,0,1,18.179-16.189,41.3,41.3,0,0,1,16.035-3.885l2.6.012c.752.027,1.385.119,1.9.161l1.163.129a1.429,1.429,0,0,1,.392.071,1.494,1.494,0,0,1-.4.01l-1.167-.048c-.512-.017-1.143-.083-1.891-.084l-2.583.061a42.3,42.3,0,0,0-33.592,20.142,36.828,36.828,0,0,0-4.818,13.393,42.281,42.281,0,0,0,6.274,29.444,36.854,36.854,0,0,0,9.858,10.264,42.312,42.312,0,0,0,38.884,4.7l2.383-1c.683-.306,1.232-.624,1.693-.848l1.046-.52A1.533,1.533,0,0,1,725.74,402.8Z"/>
      </g>
    </g>
    <g id="Group_343" data-name="Group 343">
      <path id="Path_323" data-name="Path 323" class="cls-16" d="M504.4,176,522.1,240h74.929l17.692-64Z"/>
      <g id="Group_342" data-name="Group 342">
        <path id="Path_324" data-name="Path 324" class="cls-7" d="M611.21,188.687c0,.222-23.126.4-51.646.4s-51.652-.18-51.652-.4,23.121-.4,51.652-.4S611.21,188.465,611.21,188.687Z"/>
      </g>
      <path id="Path_325" data-name="Path 325" class="cls-7" d="M624.948,192.508H609.611l2.455-6.695h12.882a3.348,3.348,0,0,1,3.347,3.347h0A3.348,3.348,0,0,1,624.948,192.508Z"/>
      <path id="Path_326" data-name="Path 326" class="cls-7" d="M494.058,192.508h15.336l-2.454-6.695H494.058a3.347,3.347,0,0,0-3.347,3.347h0A3.347,3.347,0,0,0,494.058,192.508Z"/>
    </g>
    <rect id="Rectangle_384" data-name="Rectangle 384" class="cls-1" width="279.851" height="20.007" transform="translate(485.467 239.13)"/>
    <g id="Group_352" data-name="Group 352">
      <path id="Path_327" data-name="Path 327" class="cls-1" d="M1127.349,523.948a8.329,8.329,0,0,0-10.764,4.725l-12.418,33.255h0l15.446,5.674,12.509-32.933A8.326,8.326,0,0,0,1127.349,523.948Z"/>
      <path id="Path_328" data-name="Path 328" class="cls-17" d="M1127.015,534.462a3.541,3.541,0,1,1-3.541-3.54A3.54,3.54,0,0,1,1127.015,534.462Z"/>
      <path id="Path_329" data-name="Path 329" class="cls-17" d="M1118.218,556.274a3.541,3.541,0,1,1-3.541-3.541A3.54,3.54,0,0,1,1118.218,556.274Z"/>
      <path id="Path_330" data-name="Path 330" class="cls-6" d="M1104.167,561.928l-23.918,62.39,29.444-.368,24.014-51.554Z"/>
      <g id="Group_350" data-name="Group 350">
        <rect id="Rectangle_385" data-name="Rectangle 385" class="cls-1" width="82.504" height="94.879" transform="translate(1043.903 624.318)"/>
        <g id="Group_344" data-name="Group 344">
          <path id="Path_331" data-name="Path 331" class="cls-5" d="M1126.407,647.955c0,.222-18.47.4-41.25.4s-41.253-.18-41.253-.4,18.466-.4,41.253-.4S1126.407,647.734,1126.407,647.955Z"/>
        </g>
        <g id="Group_345" data-name="Group 345">
          <path id="Path_332" data-name="Path 332" class="cls-5" d="M1126.407,658.17c0,.221-18.47.4-41.25.4s-41.253-.18-41.253-.4,18.466-.4,41.253-.4S1126.407,657.948,1126.407,658.17Z"/>
        </g>
        <g id="Group_346" data-name="Group 346">
          <path id="Path_333" data-name="Path 333" class="cls-5" d="M1126.407,668.384c0,.222-18.47.4-41.25.4s-41.253-.18-41.253-.4,18.466-.4,41.253-.4S1126.407,668.163,1126.407,668.384Z"/>
        </g>
        <g id="Group_347" data-name="Group 347">
          <path id="Path_334" data-name="Path 334" class="cls-5" d="M1126.407,678.6c0,.221-18.47.4-41.25.4s-41.253-.18-41.253-.4,18.466-.4,41.253-.4S1126.407,678.377,1126.407,678.6Z"/>
        </g>
        <g id="Group_348" data-name="Group 348">
          <path id="Path_335" data-name="Path 335" class="cls-5" d="M1126.407,688.813c0,.222-18.47.4-41.25.4s-41.253-.179-41.253-.4,18.466-.4,41.253-.4S1126.407,688.591,1126.407,688.813Z"/>
        </g>
        <g id="Group_349" data-name="Group 349">
          <path id="Path_336" data-name="Path 336" class="cls-5" d="M1126.407,699.027c0,.222-18.47.4-41.25.4s-41.253-.18-41.253-.4,18.466-.4,41.253-.4S1126.407,698.806,1126.407,699.027Z"/>
        </g>
      </g>
      <path id="Path_337" data-name="Path 337" class="cls-2" d="M995.416,572.09l55.164,4.413s1.576-26.793-24.273-29.63S995.416,572.09,995.416,572.09Z"/>
      <g id="Group_351" data-name="Group 351">
        <path id="Path_338" data-name="Path 338" class="cls-2" d="M1065.711,624.318c-1.048.364-6.779-13.385-12.8-30.705s-10.055-31.662-9.007-32.026,6.777,13.382,12.8,30.708S1066.757,623.954,1065.711,624.318Z"/>
      </g>
    </g>
    <g id="Group_354" data-name="Group 354">
      <g id="Group_353" data-name="Group 353">
        <path id="Path_339" data-name="Path 339" class="cls-3" d="M1069.008,806.036a5.937,5.937,0,0,1-1.092.236l-3.159.522-2.288.359c-.839.109-1.756.177-2.739.277-1.969.167-4.206.458-6.7.489l-3.9.134c-1.358.038-2.771-.04-4.235-.058-2.931.007-6.047-.293-9.33-.545a126.382,126.382,0,0,1-41.142-11.274c-2.953-1.457-5.787-2.788-8.306-4.288-1.268-.731-2.524-1.384-3.673-2.109l-3.291-2.107c-2.127-1.295-3.9-2.686-5.511-3.834-.8-.587-1.55-1.113-2.216-1.635l-1.785-1.474-2.451-2.06a5.745,5.745,0,0,1-.819-.759,5.864,5.864,0,0,1,.922.635l2.541,1.939,1.823,1.415c.678.5,1.443,1.008,2.248,1.575,1.627,1.109,3.418,2.462,5.555,3.721l3.3,2.053c1.151.708,2.409,1.343,3.677,2.058,2.519,1.467,5.349,2.768,8.294,4.2a130.1,130.1,0,0,0,40.906,11.21c3.262.27,6.359.594,9.274.616,1.455.032,2.861.125,4.213.1l3.888-.083c2.48.007,4.71-.244,6.676-.369.981-.077,1.9-.124,2.737-.209l2.29-.289,3.175-.372A5.728,5.728,0,0,1,1069.008,806.036Z"/>
      </g>
      <path id="Path_340" data-name="Path 340" class="cls-3" d="M1003.352,799.946c-11.576-1.541-26.683,2.939-35.342,10.774a114.108,114.108,0,0,0,35.342-10.774"/>
      <path id="Path_341" data-name="Path 341" class="cls-3" d="M1003.938,800.092c4.239-10.882-2.028-26.214-2.028-26.214-1.219-2.067-.669,14.14,2.028,26.214"/>
      <path id="Path_342" data-name="Path 342" class="cls-3" d="M985.681,791.458c3.094-7.989-1.4-19.213-1.4-19.213-.877-1.513-.52,10.368,1.4,19.213"/>
      <path id="Path_343" data-name="Path 343" class="cls-3" d="M1020.277,803.888c3.094-7.989-1.4-19.213-1.4-19.213-.877-1.513-.52,10.368,1.4,19.213"/>
      <path id="Path_344" data-name="Path 344" class="cls-3" d="M986.029,791.627c-8.614-1.146-19.855,2.187-26.3,8.017a84.887,84.887,0,0,0,26.3-8.017"/>
      <path id="Path_345" data-name="Path 345" class="cls-3" d="M1022.038,805.182c-12.225.165-27.192,7.1-34.971,16.535a119.451,119.451,0,0,0,34.971-16.535"/>
    </g>
    <path id="Path_346" data-name="Path 346" class="cls-1" d="M1068.645,746.786a24.92,24.92,0,0,0-43.687,4.085,28.705,28.705,0,0,0,.349,22,39.4,39.4,0,0,0,14.4,17c16.3,11.1,39.944,10.6,55.092-2.026,5.626-4.691,10.142-11.093,11.178-18.344a22.835,22.835,0,0,0-33.786-23.142"/>
    <path id="Path_347" data-name="Path 347" class="cls-3" d="M1068.7,746.753a8.689,8.689,0,0,0-9.219-6.358l5.454,6.5a8.466,8.466,0,0,0-6.7,5.257c-.256.669-.333,1.6.3,1.934a1.657,1.657,0,0,0,1.368-.141l6.627-2.751a22.82,22.82,0,0,0,3.951,10.289,27.044,27.044,0,0,0,2.5-10.351l7.321,3.245a10.939,10.939,0,0,0-3.441-5.423,18.173,18.173,0,0,0,6.125-2.389c.565-.349,1.186-.955.929-1.567-.2-.472-.793-.6-1.3-.651a24.15,24.15,0,0,0-13.963,2.9"/>
    <path id="Path_348" data-name="Path 348" class="cls-3" d="M1068.223,749.488a47.658,47.658,0,0,0-1.821-22.1c1.745-.389,3.894-.65,5.023.737a4.676,4.676,0,0,1,.74,2.951,51.774,51.774,0,0,1-3.913,20.388"/>
    <g id="Group_355" data-name="Group 355">
      <path id="Path_349" data-name="Path 349" class="cls-5" d="M1032.663,776.033a5.367,5.367,0,0,1-1.145-1.147,20.083,20.083,0,0,1-2.449-3.682,22.581,22.581,0,0,1,4.468-27.015,20.1,20.1,0,0,1,3.5-2.7,5.389,5.389,0,0,1,1.453-.717,46.59,46.59,0,0,0-4.558,3.819,22.985,22.985,0,0,0-4.359,26.357A46.707,46.707,0,0,0,1032.663,776.033Z"/>
    </g>
    <g id="Group_356" data-name="Group 356">
      <path id="Path_350" data-name="Path 350" class="cls-5" d="M1040.013,781.588c-.072.2-1.232-.046-2.4-.882s-1.781-1.847-1.613-1.981,1,.565,2.08,1.327S1040.1,781.376,1040.013,781.588Z"/>
    </g>
    <g id="Group_359" data-name="Group 359">
      <path id="Path_351" data-name="Path 351" class="cls-2" d="M730.112,662.17c-.666.15,4.3,25.165,4.3,25.165h12.748l5.629-24.172S743.357,659.19,730.112,662.17Z"/>
      <g id="Group_358" data-name="Group 358">
        <path id="Path_352" data-name="Path 352" class="cls-15" d="M722.438,802.975s-18.755-52.517-16.13-66.771,8.253-17.256,12.754-21.757,8.253-8.252,9.378-12.754,0-22.507,0-22.507-3.376-5.251-2.251-7.127,28.884,0,28.884,0a12.635,12.635,0,0,1-2.25,6.377s-.75,21.006.375,23.257,18.381,21.382,21.006,31.135-10.358,70.147-10.358,70.147Z"/>
        <g id="Group_357" data-name="Group 357">
          <path id="Path_353" data-name="Path 353" class="cls-7" d="M722.438,802.975s.254-.02.731-.03l2.112-.031,8.145-.064,30.42-.133-.252.2c1.6-7.633,3.323-16.29,5.081-25.81,1.724-9.524,3.587-19.909,4.865-31.053.3-2.785.565-5.622.627-8.492a20.29,20.29,0,0,0-.254-4.265,20.76,20.76,0,0,0-1.523-4.051A99.322,99.322,0,0,0,762.381,714.1c-1.886-2.469-3.852-4.919-5.84-7.394-.993-1.242-2-2.471-2.973-3.771a10.883,10.883,0,0,1-.712-1.048,5.1,5.1,0,0,1-.317-1.287c-.126-.826-.177-1.633-.221-2.447-.282-6.495-.088-13.066.1-19.736l0-.109.064-.1a15.157,15.157,0,0,0,.857-1.477,12.049,12.049,0,0,0,1.326-4.677l.374.4c-6.33-.4-12.584-.721-18.707-.819a57.812,57.812,0,0,0-9,.355,2.366,2.366,0,0,0-.793.265,1.5,1.5,0,0,0-.183.823,6.589,6.589,0,0,0,.457,2.033,22.3,22.3,0,0,0,1.949,3.859l.056.09.005.1c.275,4.8.466,9.515.488,14.158a65.019,65.019,0,0,1-.264,6.918,13.749,13.749,0,0,1-2.505,6.37,39.754,39.754,0,0,1-4.276,5.1c-1.522,1.564-3.022,3.1-4.6,4.549a48.706,48.706,0,0,0-4.434,4.393,23.893,23.893,0,0,0-3.3,5.043,40.51,40.51,0,0,0-3.378,11.084,25.6,25.6,0,0,0-.064,5.511c.124,1.817.373,3.6.626,5.34,1.108,6.967,2.712,13.319,4.213,19.062,3.073,11.479,5.986,20.516,7.981,26.719l2.336,7.1c.26.788.459,1.4.6,1.836.136.418.185.63.185.63s-.1-.206-.251-.607c-.161-.435-.382-1.035-.669-1.813-.578-1.6-1.415-3.975-2.461-7.063-2.076-6.18-5.065-15.2-8.208-26.674a193.471,193.471,0,0,1-4.319-19.1c-.261-1.755-.52-3.545-.652-5.386a26.139,26.139,0,0,1,.048-5.65,41.065,41.065,0,0,1,3.4-11.291,24.6,24.6,0,0,1,3.38-5.189,49.232,49.232,0,0,1,4.483-4.468c1.55-1.427,3.051-2.972,4.558-4.528a39.09,39.09,0,0,0,4.186-5.009,13.009,13.009,0,0,0,2.372-6.047,64.645,64.645,0,0,0,.248-6.827c-.029-4.619-.226-9.333-.505-14.112l.061.186a23.076,23.076,0,0,1-2.03-4.011,7.243,7.243,0,0,1-.506-2.3,2.181,2.181,0,0,1,.343-1.306,2.28,2.28,0,0,1,1.26-.559,57.967,57.967,0,0,1,9.171-.378c6.148.1,12.4.412,18.75.814l.394.025-.019.376a12.753,12.753,0,0,1-1.412,5.038,15.77,15.77,0,0,1-.906,1.562l.067-.209c-.191,6.649-.386,13.237-.11,19.663.042.8.095,1.605.211,2.37a4.683,4.683,0,0,0,.24,1.05,11.158,11.158,0,0,0,.643.937c.947,1.268,1.961,2.507,2.949,3.746,1.987,2.477,3.955,4.934,5.845,7.414a99.719,99.719,0,0,1,10.07,15.29,21.435,21.435,0,0,1,1.573,4.221,20.872,20.872,0,0,1,.263,4.437c-.069,2.914-.343,5.762-.649,8.559-1.308,11.18-3.2,21.562-4.962,31.088-1.793,9.522-3.557,18.173-5.2,25.8l-.044.2h-.208L733.3,803.1l-8.1-.065-2.076-.03C722.664,802.995,722.438,802.975,722.438,802.975Z"/>
        </g>
      </g>
      <path id="Path_354" data-name="Path 354" class="cls-1" d="M760.248,797.53a299.894,299.894,0,0,0,9.415-53.614c.158-2.07.158-4.46-1.4-5.826-1.911-1.672-4.838-.778-7.256-.007A43.776,43.776,0,0,1,739,739.251c-7.111-1.462-14.16-4.718-21.322-3.532a6.823,6.823,0,0,0-4.7,2.483c-1.162,1.725-.88,4-.552,6.058,2.812,17.629,8.565,37.9,13.243,53.27Z"/>
    </g>
    <g id="Group_360" data-name="Group 360">
      <path id="Path_355" data-name="Path 355" class="cls-5" d="M764.96,740.253a8.315,8.315,0,0,1-1.353,1.469,33.567,33.567,0,0,1-4.245,3.416,37.907,37.907,0,0,1-34.493,4.334,33.751,33.751,0,0,1-4.957-2.26,8.328,8.328,0,0,1-1.674-1.089c.074-.141,2.5,1.371,6.818,2.812a39.327,39.327,0,0,0,33.993-4.27C762.877,742.2,764.853,740.135,764.96,740.253Z"/>
    </g>
  </g>
</svg>
