<svg xmlns="http://www.w3.org/2000/svg" viewBox="0 0 250.63 218.05"><defs><style>.cls-1{fill:#e8505b;}.cls-2{opacity:0.8;}.cls-3{fill:#fff;}.cls-4{opacity:0.4;}.cls-5{opacity:0.5;}.cls-6{fill:#fafafa;}</style></defs><title>Asset 1</title><g id="Layer_2" data-name="Layer 2"><g id="Device"><path class="cls-1" d="M192.74,25.05,124.72,0,57.37,24.72c-8.6,4.17-16.14,6.66-16.14,14.88V80.5a157.6,157.6,0,0,0,22.19,81.41c12.56,20.91,32,42.45,62,56.14,27.53-9.17,48.08-33.63,60.65-54.54A157.6,157.6,0,0,0,208.21,82.1V45.31C208.21,33.59,202.16,27.87,192.74,25.05Z"/><g class="cls-2"><path class="cls-3" d="M192.74,25.05,124.72,0,57.37,24.72c-8.6,4.17-16.14,6.66-16.14,14.88V80.5a157.6,157.6,0,0,0,22.19,81.41c12.56,20.91,32,42.45,62,56.14,27.53-9.17,48.08-33.63,60.65-54.54A157.6,157.6,0,0,0,208.21,82.1V45.31C208.21,33.59,202.16,27.87,192.74,25.05Z"/></g><path class="cls-1" d="M166.25,128.61h-12.5v-68a29,29,0,1,0-58.07,0v68H83.19v-68a41.53,41.53,0,1,1,83.07,0Z"/><g class="cls-4"><path d="M166.25,128.61h-12.5v-68a29,29,0,1,0-58.07,0v68H83.19v-68a41.53,41.53,0,1,1,83.07,0Z"/></g><rect class="cls-1" x="68.75" y="98.35" width="111.95" height="71.82" rx="5.81" ry="5.81"/><g class="cls-5"><path d="M134.08,124.91a9.36,9.36,0,1,0-11.91,9v14h5.11v-14A9.33,9.33,0,0,0,134.08,124.91Z"/></g><ellipse class="cls-6" cx="74.72" cy="136.61" rx="0.46" ry="26.75"/><path class="cls-6" d="M117.39,136.9s-.44-.15-1.1-.62a11.44,11.44,0,0,1-2.41-2.46,13.11,13.11,0,0,1,4.66-19.68A11.44,11.44,0,0,1,121.8,113a2.88,2.88,0,0,1,1.26-.06,29.19,29.19,0,0,0-4.2,1.76,13,13,0,0,0-4.43,18.73A29.16,29.16,0,0,0,117.39,136.9Z"/><path class="cls-1" d="M208.8,202.19s.27-.37.81-1.09l.46-.6c.15-.23.29-.5.46-.79a12.28,12.28,0,0,0,1-2.06c.16-.41.35-.83.51-1.29l.41-1.48a10.44,10.44,0,0,0,.34-1.65,17.55,17.55,0,0,0,.25-1.82,34.39,34.39,0,0,0-.4-8.77c-1-6.56-3.8-14.29-8.06-22.69a177.15,177.15,0,0,0-17.3-26.9,275.34,275.34,0,0,0-25.8-29,315.53,315.53,0,0,0-33.87-28.91c-6.32-4.65-13-9.15-20-13.4A193.24,193.24,0,0,0,85.39,50.11a103.9,103.9,0,0,0-24.74-7.76A43.75,43.75,0,0,0,47.46,42a24.73,24.73,0,0,0-6.37,1.85,18,18,0,0,0-5.35,3.91,18,18,0,0,0-3.29,5.76,24.73,24.73,0,0,0-1.11,6.54,43.64,43.64,0,0,0,1.82,13.08A103.84,103.84,0,0,0,43.67,96.87a193.27,193.27,0,0,0,14.12,20.77c5,6.5,10.26,12.62,15.59,18.37A315.53,315.53,0,0,0,106,166.38a275.35,275.35,0,0,0,31.73,22.33,177.15,177.15,0,0,0,28.7,14.13c8.83,3.28,16.82,5.16,23.45,5.42a34.4,34.4,0,0,0,8.76-.6,17.61,17.61,0,0,0,1.78-.46,10.42,10.42,0,0,0,1.6-.53l1.43-.57c.44-.21.83-.45,1.22-.66a12.28,12.28,0,0,0,1.92-1.25c.26-.2.52-.37.73-.55l.54-.52c.65-.62,1-.93,1-.93s-.32.33-1,1l-.54.53c-.21.18-.46.36-.73.56a12.16,12.16,0,0,1-1.92,1.28c-.38.21-.78.45-1.22.67l-1.43.59a10.47,10.47,0,0,1-1.61.54,17.64,17.64,0,0,1-1.79.47,34.35,34.35,0,0,1-8.8.65c-6.66-.23-14.69-2.09-23.55-5.35A176.56,176.56,0,0,1,137.49,189a274.49,274.49,0,0,1-31.81-22.31A314.87,314.87,0,0,1,73,136.34c-5.35-5.76-10.6-11.88-15.63-18.39A193.46,193.46,0,0,1,43.23,97.13,104.25,104.25,0,0,1,32.65,73.31a44.13,44.13,0,0,1-1.84-13.23A25.24,25.24,0,0,1,32,53.38a18.56,18.56,0,0,1,3.39-5.94,18.53,18.53,0,0,1,5.52-4,25.24,25.24,0,0,1,6.52-1.89,44.24,44.24,0,0,1,13.35.33,104.3,104.3,0,0,1,24.87,7.8,193.44,193.44,0,0,1,22.29,11.7c7,4.26,13.72,8.78,20,13.44a314.87,314.87,0,0,1,33.89,29,274.5,274.5,0,0,1,25.79,29.06,176.57,176.57,0,0,1,17.27,27c4.24,8.43,7,16.19,8,22.79a34.34,34.34,0,0,1,.36,8.82,17.56,17.56,0,0,1-.27,1.83,10.51,10.51,0,0,1-.36,1.66l-.42,1.49c-.17.46-.36.88-.53,1.29a12.15,12.15,0,0,1-1.06,2.06c-.17.28-.31.56-.47.79l-.47.59C209.1,201.84,208.8,202.19,208.8,202.19Z"/><path class="cls-1" d="M240.82,124.92s0-.46-.12-1.35l-.06-.75c0-.27-.12-.57-.18-.89a12.28,12.28,0,0,0-.6-2.22c-.15-.41-.29-.85-.47-1.3L238.7,117a10.45,10.45,0,0,0-.84-1.46,17.56,17.56,0,0,0-1-1.53,34.39,34.39,0,0,0-6.14-6.28c-5.12-4.22-12.34-8.14-21.11-11.57a177.16,177.16,0,0,0-30.82-8.56,275.32,275.32,0,0,0-38.54-4.45,315.51,315.51,0,0,0-44.52,1c-7.81.74-15.79,1.82-23.86,3.33a193.26,193.26,0,0,0-24.36,6.1,103.89,103.89,0,0,0-23.63,10.68A43.75,43.75,0,0,0,13.8,112.8a24.73,24.73,0,0,0-3.53,5.62,15.89,15.89,0,0,0,0,13A24.73,24.73,0,0,0,13.79,137a43.64,43.64,0,0,0,10.06,8.55,103.84,103.84,0,0,0,23.63,10.69,193.26,193.26,0,0,0,24.36,6.1c8.07,1.51,16.05,2.59,23.86,3.33a315.52,315.52,0,0,0,44.52,1,275.33,275.33,0,0,0,38.54-4.45,177.15,177.15,0,0,0,30.82-8.56c8.77-3.43,16-7.35,21.11-11.57a34.4,34.4,0,0,0,6.14-6.28,17.6,17.6,0,0,0,1-1.53,10.45,10.45,0,0,0,.84-1.46l.68-1.38c.18-.45.32-.89.47-1.3a12.27,12.27,0,0,0,.6-2.22c.07-.32.14-.62.18-.89l.06-.75c.07-.89.12-1.35.12-1.35s0,.46-.07,1.35l0,.75c0,.28-.11.57-.17.9a12.14,12.14,0,0,1-.58,2.24c-.15.41-.28.86-.46,1.31l-.67,1.39a10.48,10.48,0,0,1-.84,1.48,17.63,17.63,0,0,1-1,1.54,34.35,34.35,0,0,1-6.13,6.34c-5.13,4.26-12.35,8.22-21.13,11.68a176.55,176.55,0,0,1-30.85,8.65,274.48,274.48,0,0,1-38.59,4.52,314.87,314.87,0,0,1-44.59-.92c-7.83-.74-15.82-1.81-23.91-3.32a193.47,193.47,0,0,1-24.43-6.11A104.25,104.25,0,0,1,23.57,146a44.13,44.13,0,0,1-10.18-8.65,25.24,25.24,0,0,1-3.6-5.75,16.4,16.4,0,0,1,0-13.37,25.24,25.24,0,0,1,3.61-5.75,44.24,44.24,0,0,1,10.18-8.64A104.3,104.3,0,0,1,47.33,93.1,193.46,193.46,0,0,1,71.75,87c8.09-1.51,16.08-2.58,23.91-3.32a314.89,314.89,0,0,1,44.58-.92,274.5,274.5,0,0,1,38.59,4.52,176.57,176.57,0,0,1,30.86,8.65c8.78,3.47,16,7.42,21.13,11.68a34.34,34.34,0,0,1,6.14,6.34,17.55,17.55,0,0,1,1,1.54,10.5,10.5,0,0,1,.84,1.48l.67,1.39c.18.45.32.9.46,1.31a12.16,12.16,0,0,1,.58,2.24c.06.33.14.62.17.9l0,.75C240.8,124.46,240.82,124.92,240.82,124.92Z"/><path class="cls-1" d="M198.4,28.73s-.39-.24-1.14-.73l-.63-.41c-.24-.14-.52-.26-.82-.4a12.27,12.27,0,0,0-2.12-.88c-.42-.13-.85-.29-1.32-.42l-1.51-.31a10.45,10.45,0,0,0-1.67-.23,17.5,17.5,0,0,0-1.83-.13,34.39,34.39,0,0,0-8.72,1c-6.48,1.46-14,4.77-22.08,9.6a177.16,177.16,0,0,0-25.65,19.11,275.35,275.35,0,0,0-27.13,27.73,315.52,315.52,0,0,0-26.51,35.78c-4.2,6.63-8.24,13.59-12,20.9a193.27,193.27,0,0,0-10.1,23,103.89,103.89,0,0,0-6,25.22,43.75,43.75,0,0,0,.58,13.19A24.73,24.73,0,0,0,52,207,18,18,0,0,0,56.29,212a18.05,18.05,0,0,0,6,2.88,24.73,24.73,0,0,0,6.61.66,43.64,43.64,0,0,0,12.92-2.71,103.85,103.85,0,0,0,22.93-12.13,193.27,193.27,0,0,0,19.75-15.51c6.14-5.45,11.88-11.1,17.25-16.82a315.54,315.54,0,0,0,28-34.59,275.35,275.35,0,0,0,20.09-33.19A177.15,177.15,0,0,0,202,71c2.66-9,4-17.14,3.79-23.77a34.4,34.4,0,0,0-1.2-8.7A17.62,17.62,0,0,0,204,36.8a10.44,10.44,0,0,0-.64-1.56l-.67-1.38c-.24-.42-.51-.8-.74-1.17a12.28,12.28,0,0,0-1.38-1.83c-.22-.25-.4-.49-.6-.69l-.56-.51c-.66-.6-1-.92-1-.92s.35.29,1,.88l.57.5c.2.2.39.44.61.69A12.16,12.16,0,0,1,202,32.63c.24.37.51.75.75,1.17l.69,1.39a10.49,10.49,0,0,1,.65,1.57,17.66,17.66,0,0,1,.59,1.75A34.36,34.36,0,0,1,206,47.23c.23,6.66-1.08,14.8-3.71,23.86a176.55,176.55,0,0,1-12.07,29.69A274.51,274.51,0,0,1,170.11,134a314.88,314.88,0,0,1-28,34.67c-5.38,5.73-11.12,11.39-17.27,16.86A193.45,193.45,0,0,1,105,201.15a104.26,104.26,0,0,1-23,12.19,44.13,44.13,0,0,1-13.08,2.75,25.24,25.24,0,0,1-6.75-.68,18.56,18.56,0,0,1-6.16-3,18.53,18.53,0,0,1-4.41-5.23,25.24,25.24,0,0,1-2.33-6.37,44.24,44.24,0,0,1-.59-13.34,104.3,104.3,0,0,1,6.07-25.34,193.43,193.43,0,0,1,10.14-23c3.76-7.32,7.81-14.29,12-20.93a314.88,314.88,0,0,1,26.58-35.8,274.5,274.5,0,0,1,27.22-27.73,176.57,176.57,0,0,1,25.74-19.09c8.12-4.82,15.67-8.11,22.18-9.55a34.35,34.35,0,0,1,8.77-1,17.58,17.58,0,0,1,1.84.14,10.49,10.49,0,0,1,1.68.24l1.51.32c.47.14.91.3,1.32.44a12.16,12.16,0,0,1,2.12.91c.3.15.58.28.82.42l.62.43C198,28.46,198.4,28.73,198.4,28.73Z"/><circle class="cls-1" cx="4.31" cy="175.88" r="4.31" transform="translate(-123.1 54.56) rotate(-45)"/><circle class="cls-1" cx="246.32" cy="39.23" r="4.31"/><circle class="cls-1" cx="33.49" cy="187.01" r="1.1"/><circle class="cls-1" cx="56.88" cy="66.19" r="1.1"/><circle class="cls-1" cx="227.87" cy="124.92" r="1.1"/><circle class="cls-1" cx="243.1" cy="73.83" r="1.1"/></g></g></svg>