<svg xmlns="http://www.w3.org/2000/svg" xmlns:xlink="http://www.w3.org/1999/xlink" width="617" height="937" viewBox="0 0 617 937">
  <defs>
    <filter id="Rectangle_1082" x="0" y="0" width="617" height="937" filterUnits="userSpaceOnUse">
      <feOffset dy="3" input="SourceAlpha"/>
      <feGaussianBlur stdDeviation="3" result="blur"/>
      <feFlood flood-opacity="0.161"/>
      <feComposite operator="in" in2="blur"/>
      <feComposite in="SourceGraphic"/>
    </filter>
  </defs>
  <g id="Group_11846" data-name="Group 11846" transform="translate(-1085 -75)">
    <g transform="matrix(1, 0, 0, 1, 1085, 75)" filter="url(#Rectangle_1082)">
      <rect id="Rectangle_1082-2" data-name="Rectangle 1082" width="599" height="919" rx="39" transform="translate(9 6)" fill="#e3d1d0"/>
    </g>
    <g id="Floor" transform="translate(1125 985.332)">
      <g id="Group_1827" data-name="Group 1827">
        <g id="Group_1826" data-name="Group 1826">
          <path id="Path_2285" data-name="Path 2285" d="M561.944,453.087c0,.185-120.212.334-268.465.334-148.3,0-268.489-.149-268.489-.334s120.185-.336,268.489-.336C441.732,452.751,561.944,452.9,561.944,453.087Z" transform="translate(-24.99 -452.751)" fill="#263238"/>
        </g>
      </g>
    </g>
    <g id="Group_10582" data-name="Group 10582" transform="translate(1052.545 80.657)">
      <path id="Path_2332" data-name="Path 2332" d="M367.062,209.5l124.416-.349-31.736-5.833s1.295-32.085-14.249-25.668S429.3,198.064,429.3,198.064s-5.829-12.834-14.25-8.167a32.167,32.167,0,0,0-12.307,12.833s-3.022-9.233-8.42-9.757c-4.615-.448-13.395,8.335-18,13.275Z" transform="translate(108.185 47.442)" fill="#fee" opacity="0.33"/>
      <path id="Path_2333" data-name="Path 2333" d="M217.449,78.649l124.416-.388-31.736-6.477s1.295-35.623-14.25-28.5a27.714,27.714,0,0,0-16.192,22.67s-5.829-14.25-14.25-9.068-12.307,14.25-12.307,14.25-3.022-10.253-8.42-10.835c-4.615-.5-13.395,9.255-18,14.741Z" transform="translate(55.394 0)" fill="#fee" opacity="0.33"/>
      <path id="Path_2331" data-name="Path 2331" d="M60.455,160.665l150.82-.471L172.8,152.342s1.569-43.183-17.274-34.546a33.6,33.6,0,0,0-19.628,27.48S128.833,128,118.626,134.284s-14.918,17.273-14.918,17.273-3.663-12.429-10.207-13.133c-5.594-.6-16.237,11.219-21.816,17.868Z" transform="translate(0 26.22)" fill="#faeaea" opacity="0.33"/>
    </g>
  </g>
</svg>
