<svg xmlns="http://www.w3.org/2000/svg" width="534.215" height="402.617" viewBox="0 0 534.215 402.617">
  <g id="chefs" transform="translate(-254 -565)">
    <g id="Group_10624" data-name="Group 10624" transform="translate(-192.388 39.704)">
      <path id="Path_2589" data-name="Path 2589" d="M717.425,677.566l-8.67-2.022a2.633,2.633,0,0,1-2.032-2.439l-.107-2.219a2.025,2.025,0,0,1,2.814-1.961l8.7,3.69Z" fill="#b7af9c"/>
      <path id="Path_2590" data-name="Path 2590" d="M970.879,761.309c.958.311,2.412.7,3.8,1.1,2.323.667,4.461,2.128,4.2,2.885-.242.626-1.8-.467-3.439-.925-1.521-.426-2.041-.615-2.129-.3-.076.216,1.814,1.053,3.789,2.009,2.39,1.129,3.765,2.191,3.467,2.952-.279.756-1.656-.3-3.935-1.106-2.117-.743-3.05-1.185-3.465-.395-.211.382,1.227,1.018,3.165,2.335,2.141,1.45,3.153,2.8,2.706,3.39-.667.87-1.227-.425-3.986-1.786-3.872-1.909-4.042-2.94-7.04-2.685-3.056.261,3.236,8.129.837,7.523-1.974-.526-11.511-14.256-11.3-16.754C959.01,755.485,962.535,760.374,970.879,761.309Z" fill="#ffb882"/>
      <path id="Path_2591" data-name="Path 2591" d="M752.116,544.59c-1.006-.051-2.511-.043-3.953-.066-2.416-.035-4.864-.885-4.805-1.686.071-.667,1.855-.02,3.563-.008,1.579.015,2.129.061,2.131-.269.017-.227-2.027-.54-4.182-.948-2.6-.463-4.209-1.128-4.12-1.941.071-.8,1.679-.14,4.088.039,2.237.162,3.254.344,3.447-.527.106-.423-1.45-.661-3.665-1.425-2.445-.838-3.776-1.874-3.5-2.563.417-1.015,1.3.088,4.315.68,4.238.829,4.67,1.779,7.5.75,2.881-1.052-5.252-7-2.776-7.042,2.041-.009,14.841,10.747,15.288,13.213C765.1,547.1,760.414,543.308,752.116,544.59Z" fill="#ffb882"/>
      <path id="Path_2592" data-name="Path 2592" d="M734.431,711.482l-1.8-.662,3.108,15.86,3.483-.382Z" fill="#725951"/>
      <path id="Path_2593" data-name="Path 2593" d="M779.222,711.363l1.174-.874-.257,16.107-2.467.042Z" fill="#725951"/>
      <path id="Path_2594" data-name="Path 2594" d="M790.65,707.842l2.031-1.111-.989,19.742-4.21.138Z" fill="#725951"/>
      <path id="Path_2595" data-name="Path 2595" d="M722.776,707.744l-2.412-.965L723.1,726.4l4.825-.161Z" fill="#725951"/>
      <path id="Path_2596" data-name="Path 2596" d="M884.539,620.188c0-1.632-2.674-2.956-5.971-2.956s-5.971,1.324-5.971,2.956,2.673,2.955,5.971,2.955S884.539,621.82,884.539,620.188Z" fill="#b79763"/>
      <path id="Path_2597" data-name="Path 2597" d="M833.491,649.18c-12.512-24.852-45.322-62.876-65.68-80.721l-4.463-29.894s71.9,67.746,89.269,79.2Z" fill="#b0463d"/>
      <path id="Path_2598" data-name="Path 2598" d="M767.516,566.475l.295,1.984c20.358,17.845,52.345,57.336,64.858,82.188l1.68-2.875C819.926,621.792,788.421,585.293,767.516,566.475Z" fill="#b45048"/>
      <path id="Path_2599" data-name="Path 2599" d="M799.234,768.8l-9.193-8.288-.013,4.907,9.051,8.6Z" fill="#914d3d"/>
      <path id="Path_2600" data-name="Path 2600" d="M806.732,725.184l-89.907,1.861-9.63,5.4,26.035,7.788,71.091-2.733Z" fill="#914d3d"/>
      <path id="Path_2601" data-name="Path 2601" d="M741.256,772.624l-17.149-7.933-.022,4.906,16.885,8.248Z" fill="#914d3d"/>
      <path id="Path_2602" data-name="Path 2602" d="M799.963,771.338l-58.27,1.383-.078,4.919,57.37-.924Z" fill="#914d3d"/>
      <path id="Path_2603" data-name="Path 2603" d="M797.357,727.6l14.028,200.246h-5.913L794.616,727.118Z" fill="#914d3d"/>
      <path id="Path_2604" data-name="Path 2604" d="M737.451,729.009l9.265,198.838h6.213L740.273,728.529Z" fill="#914d3d"/>
      <path id="Path_2605" data-name="Path 2605" d="M807.109,725.184H703.388l3.99,7.171,97.237-3.825Z" fill="#ba715d"/>
      <path id="Path_2606" data-name="Path 2606" d="M790.635,760.021,724.049,762.1l-.125,6.9,65.593-3.557Z" fill="#ba715d"/>
      <path id="Path_2607" data-name="Path 2607" d="M722.771,729.009l1.622,198.838h6.214l-4.994-199.317Z" fill="#ba715d"/>
      <path id="Path_2608" data-name="Path 2608" d="M789.073,728.249l-3.027,199.6h6.213l-.333-200.078Z" fill="#ba715d"/>
      <path id="Path_2609" data-name="Path 2609" d="M753.249,578.323c-.646.8-2.973-1.106-3.864-3.021a2.129,2.129,0,0,1,.656-2.571C751.222,571.424,754.885,576.31,753.249,578.323Z" fill="#ff934a"/>
      <rect id="Rectangle_1104" data-name="Rectangle 1104" width="1.911" height="2.39" transform="translate(750.855 589.136) rotate(-49.875)" fill="#d65c80"/>
      <rect id="Rectangle_1105" data-name="Rectangle 1105" width="2.39" height="1.912" transform="translate(754.96 595.357) rotate(-5.909)" fill="#ef7ba1"/>
      <path id="Path_2610" data-name="Path 2610" d="M760.133,630.519c1.046-1.13,1.369-2.537.723-3.142s-2.016-.188-3.061.939-1.368,2.534-.722,3.139S759.09,631.644,760.133,630.519Z" fill="#ff774d"/>
      <path id="Path_2611" data-name="Path 2611" d="M752.894,621.16c-1.136-1.368-2.716-1.929-3.526-1.254s-.547,2.332.589,3.7,2.717,1.931,3.526,1.255S754.03,622.527,752.894,621.16Z" fill="#ffae4d"/>
      <path id="Path_2612" data-name="Path 2612" d="M751.837,598.7l-.616,1.023s3.581,4.436,3.882,9.69l1.189-.123S755.843,602.614,751.837,598.7Z" fill="#c6c639"/>
      <path id="Path_2613" data-name="Path 2613" d="M749.572,607.315l-.9.575c2.523,8.147,11.3,9.4,11.3,9.4l.139-.977C751.62,615.513,749.572,607.315,749.572,607.315Z" fill="#c6c639"/>
      <path id="Path_2614" data-name="Path 2614" d="M759.83,640.188l.32-2.5-2.417,1.026Z" fill="#796d84"/>
      <path id="Path_2615" data-name="Path 2615" d="M751.867,631.577l.321-2.5-2.418,1.027Z" fill="#796d84"/>
      <path id="Path_2616" data-name="Path 2616" d="M754.119,646.065l-.814-2.37-1.7,2Z" fill="#796d84"/>
      <path id="Path_2617" data-name="Path 2617" d="M719.8,654.444s-7.587,38.8-.956,50.345c8.6,14.978,53.8,19.972,71.486,4.885,9.387-8.005,9.451-41.21,8.178-47.9Z" fill="#b7af9c"/>
      <path id="Path_2618" data-name="Path 2618" d="M798.932,663.884c.032-.891-17.744-3.214-39.705-5.188s-39.794-2.85-39.829-1.96,21.143,5.651,43.065,8.024C790.328,667.775,798.9,664.773,798.932,663.884Z" fill="#a59a84"/>
      <path id="Path_2619" data-name="Path 2619" d="M798.507,661.772l-2.268.213c-.374,11.831-.531,25.194-6.029,29.883-17.686,15.087-64.05,9.241-72.653-5.735a14.753,14.753,0,0,1-1.289-3.124c-.426,8.79.012,17.32,2.575,21.78,8.6,14.978,54.967,20.823,72.653,5.736C800.883,702.521,799.78,668.464,798.507,661.772Z" fill="#a59a84"/>
      <g id="Group_10621" data-name="Group 10621">
        <path id="Path_2620" data-name="Path 2620" d="M798.507,661.772l-.738.069c1.142,9.226,1.577,39.719-7.238,47.236-17.113,14.6-61.079,9.6-71.7-4.311,0,.007.007.016.012.023,8.6,14.978,55.368,21.5,73.053,6.412C801.283,703.2,799.78,668.464,798.507,661.772Z" fill="#b7af9c"/>
      </g>
      <path id="Path_2621" data-name="Path 2621" d="M879.249,610.6s12.576-12.849,5.977-38.717l-15.443-2.3Z" fill="#7f3932"/>
      <path id="Path_2622" data-name="Path 2622" d="M888.58,688.9c21.894,17.232,47.6,48.534,62.879,72.606l12.108-4.46S904.522,629.9,890.279,631.5Z" fill="#b0463d"/>
      <path id="Path_2623" data-name="Path 2623" d="M888.663,686.118l.419,4.255c21.9,17.231,47.1,47.065,62.377,71.137l1.459-.537C937.024,736.206,911.275,704.773,888.663,686.118Z" fill="#b45048"/>
      <path id="Path_2624" data-name="Path 2624" d="M846.022,895.969l4.7,28.292s5.74.118,5.367-.621-3.862-24.705-3.862-24.705Z" fill="#ff9d6c"/>
      <path id="Path_2625" data-name="Path 2625" d="M856.727,927.913h-21.5s-.488-1.592,2.117-2.868,12.185-4.607,12.185-4.607l6.711,1.261A19.746,19.746,0,0,1,856.727,927.913Z" fill="#7f6366"/>
      <path id="Path_2626" data-name="Path 2626" d="M935.818,900.032l9.188,23.274s-5.558.1-5.555-.513-8.264-20.323-8.264-20.323Z" fill="#ff9d6c"/>
      <path id="Path_2627" data-name="Path 2627" d="M938.2,927.913h21.032s.479-1.592-2.071-2.868-11.916-4.607-11.916-4.607l-6.565,1.261A20.242,20.242,0,0,0,938.2,927.913Z" fill="#7f6366"/>
      <path id="Path_2628" data-name="Path 2628" d="M844.31,907.419l20.808,4.749s-20.7-134.957-21.507-143.7l-18.671-10.02S826.539,844.334,844.31,907.419Z" fill="#b0463d"/>
      <path id="Path_2629" data-name="Path 2629" d="M840.194,879.225c6.142-2.863,14.312.742,21.173,8.425-6.005-39.334-17.17-112.806-17.756-119.181l-18.671-10.02s1.2,64.1,12.981,122.227A10.318,10.318,0,0,1,840.194,879.225Z" fill="#b45048"/>
      <path id="Path_2630" data-name="Path 2630" d="M924.467,907.344l20.874,2.726S900.051,781.7,897.228,773.19l-25.355-6.741S892.566,849.094,924.467,907.344Z" fill="#b0463d"/>
      <path id="Path_2631" data-name="Path 2631" d="M927.364,878.233a12.621,12.621,0,0,1,6.929.5c-13.6-38.583-35.146-99.762-37.065-105.547l-25.355-6.741s17.372,69.372,44.818,125.8C917.883,884.951,921.687,879.505,927.364,878.233Z" fill="#b45048"/>
      <path id="Path_2632" data-name="Path 2632" d="M828.93,870.19s64.977,2.252,105.638-4.162c0,0-40.149-107.7-43.972-129.373l1.912-5.416-4.143-4.78s8.286-5.736,8.286-6.692-1.912-30.909-.637-34.414-4.143-51.3-4.78-52.9-9.561-7.012-14.659-9.241-20.712-5.418-26.765-5.735-28.125,26.007-25.174,96.869l2.585,2.2-2.585,1.621S810.768,771.726,828.93,870.19Z" fill="#b0463d"/>
      <path id="Path_2633" data-name="Path 2633" d="M838.338,706.136s2.733-56.039,13.831-75.581l.4,2.963S845.624,642.543,838.338,706.136Z" fill="#b45048"/>
      <g id="Group_10622" data-name="Group 10622">
        <path id="Path_2634" data-name="Path 2634" d="M827.2,716.532l2.938-.385-3.74-3.256c-.669-9.721-1.867-17.661-1.638-25.77-.458,8.234-.536,17.293-.122,27.229Z" fill="#f9dfaf"/>
        <path id="Path_2635" data-name="Path 2635" d="M831.343,870.512c-21.126-97.943-5.879-152.851-5.879-152.851l.357-.233-1.185.744s-13.868,53.554,4.294,152.018Z" fill="#f9dfaf"/>
      </g>
      <path id="Path_2636" data-name="Path 2636" d="M827.221,716.551l-2.479,1.553c12.149.094,46.7,13.674,55.817,20.6,9.845,7.483,37.208,92.516,50.351,127.868,1.238-.175,2.46-.355,3.658-.545,0,0-40.149-107.7-43.972-129.373l1.912-5.416-4.143-4.78s8.286-5.736,8.286-6.692-.924-22.831.35-26.336c-7.331-11.419-6.925-17.051-8.239-19.784-2.128,23.357-3.91,45.414-8.686,47.929-7.664,4.033-39.591-3.732-55.5-8.926.022.567.039,1.127.063,1.7Z" fill="#b45048"/>
      <path id="Path_2637" data-name="Path 2637" d="M854.269,618.116s-3.665,10.517-2.947,18.641c0,0,20.792-1.433,31.632-10.248C873.685,621.136,866.82,618.719,854.269,618.116Z" fill="#ffb882"/>
      <path id="Path_2638" data-name="Path 2638" d="M882.654,626.488s-5.973-45.886-6.691-46.363c-.751-.5-19.358,15.773-19.119,23.183l.716,18.639Z" fill="#ffb882"/>
      <path id="Path_2639" data-name="Path 2639" d="M853.048,653.455c.14-1.459-.462-2.711-1.345-2.8s-1.716,1.028-1.856,2.489.462,2.709,1.345,2.8S852.907,654.914,853.048,653.455Z" fill="#8e7973"/>
      <path id="Path_2640" data-name="Path 2640" d="M849.992,670.986c.142-1.459-.462-2.71-1.345-2.8s-1.714,1.029-1.855,2.488.462,2.711,1.346,2.8S849.852,672.446,849.992,670.986Z" fill="#8e7973"/>
      <path id="Path_2641" data-name="Path 2641" d="M847.266,691.134c.034-1.465-.66-2.669-1.547-2.69s-1.636,1.152-1.668,2.617.66,2.67,1.548,2.691S847.232,692.6,847.266,691.134Z" fill="#8e7973"/>
      <path id="Path_2642" data-name="Path 2642" d="M824.995,718.049l-.649,2.924c11.165,1.777,37.515,13.993,37.515,13.993C855.72,728.541,830.576,719.48,824.995,718.049Z" fill="#b45048"/>
      <path id="Path_2643" data-name="Path 2643" d="M849.839,638.262l5.307-8.042c12.366-1.6,20.175-3.536,29.393-10.093l-.442,7.037S874.124,636.976,849.839,638.262Z" fill="#f9dfaf"/>
      <path id="Path_2644" data-name="Path 2644" d="M798.549,660.664c-3.4-2.057-56.793-9.615-78.693-7.562-2.227.208-2.665,3.2-.359,3.418,30.326,4.53,47.965,6.8,78.065,7.5C799.883,664.244,800.387,661.777,798.549,660.664Z" fill="#b7af9c"/>
      <path id="Path_2645" data-name="Path 2645" d="M795.675,661.471c.032-.891-16.636-3.214-37.232-5.187s-37.322-2.851-37.356-1.961,16.636,3.213,37.232,5.187S795.641,662.361,795.675,661.471Z" fill="#8e7973"/>
      <path id="Path_2646" data-name="Path 2646" d="M722.5,679.18c.123-3.9-.523-7.084-1.442-7.113s-1.763,3.111-1.885,7.01.524,7.085,1.443,7.113S722.379,683.078,722.5,679.18Z" fill="#c9c0ad"/>
      <path id="Path_2647" data-name="Path 2647" d="M722.5,664.166c.155-1.871-.3-3.434-1.006-3.493s-1.412,1.409-1.567,3.28.3,3.434,1.007,3.493S722.341,666.037,722.5,664.166Z" fill="#c9c0ad"/>
      <path id="Path_2648" data-name="Path 2648" d="M797.49,682.262l7.527-.689a3.623,3.623,0,0,0,3.224-2.9l.261-1.311a2.082,2.082,0,0,0-2.6-2.413l-8.316,2.321Z" fill="#a59a84"/>
      <path id="Path_2649" data-name="Path 2649" d="M847.58,643.756c10.834,7.627,31.23-4.766,47.525-9.752-1.847-1.669-3.436-2.569-4.688-2.5a45.316,45.316,0,0,0-6.329-4.331l.009-.009.432-6.879c0-.033.01-.064.01-.1l0-.023,0-.038-.006,0c-.041-1.084-1.259-2.025-3.05-2.521-.8-6.036-1.9-14.192-2.912-21.358L865.405,594.1l-7.8,5.977a7.8,7.8,0,0,0-.762,3.232l.576,15.013c-.486-.038-.981-.075-1.486-.107-1.2-.191-2.334-.353-3.359-.477a51,51,0,0,1-5.175-3.79C840.465,625.629,839.545,638.1,847.58,643.756Z" fill="#b95959" opacity="0.6" style="mix-blend-mode: multiply;isolation: isolate"/>
      <path id="Path_2650" data-name="Path 2650" d="M830.608,573.49c-4.728,11.429-.24,17.267,6.364,16.4Z" fill="#93483e"/>
      <path id="Path_2651" data-name="Path 2651" d="M850.321,629.577c4.823-.575,22.559-7.974,23.16-18.5l-.321-41.495-42.613,1.939S837.935,619.513,850.321,629.577Z" fill="#ffb882"/>
      <path id="Path_2652" data-name="Path 2652" d="M877.846,569.045l-10.873,3.684c-2.651,7.217-2.821,16.879,3.257,31.935l4.139,3.767a51.564,51.564,0,0,0,6.068-19.426C881.052,582.864,879.018,575.262,877.846,569.045Z" fill="#93483e"/>
      <path id="Path_2653" data-name="Path 2653" d="M866.889,573.319c-4.083,6.6-19.82,10.843-18.73-3.82l19.641,1.25Z" fill="#93483e"/>
      <path id="Path_2654" data-name="Path 2654" d="M841.4,576.043c-2.249,4.542-12.015,9.336-12.086.379l12.53-2.052Z" fill="#93483e"/>
      <path id="Path_2655" data-name="Path 2655" d="M851.618,575.039c-2.651,5.15-12.846,9.414-12.122-1.454l12.715-.5Z" fill="#93483e"/>
      <path id="Path_2656" data-name="Path 2656" d="M874.837,609.572c4.571-.571,12.333-13.375,9.265-16.624-4.527-4.8-9.634,3.216-10.3,4.818C873.124,599.411,869.683,610.212,874.837,609.572Z" fill="#ffb882"/>
      <path id="Path_2657" data-name="Path 2657" d="M828.688,579.355s42.583-9.478,56.946-6.144c0,0-3.046-39.889-12.513-44.535-21.393-10.5-59.432,6.079-60.455,14.1C811.473,552.138,821.812,553.386,828.688,579.355Z" fill="#b0463d"/>
      <path id="Path_2658" data-name="Path 2658" d="M873.121,528.676a36.423,36.423,0,0,0-14.8-3.335,52.888,52.888,0,0,1,9.6,20.313,51.13,51.13,0,0,1-.661,27.39c7.374-.684,14.114-.822,18.373.167C885.634,573.211,882.588,533.322,873.121,528.676Z" fill="#b45048"/>
      <path id="Path_2659" data-name="Path 2659" d="M876.2,606.034c2.628-.327,7.087-7.684,5.325-9.552-2.6-2.756-5.537,1.847-5.919,2.768C875.217,600.2,873.24,606.4,876.2,606.034Z" fill="#ea7b59"/>
      <path id="Path_2660" data-name="Path 2660" d="M876.034,606.775c1.58-.355,3.957-4.056,2.554-4.995-2.458-1.651-3.964,1.525-4.072,2.055S874.226,607.185,876.034,606.775Z" fill="#ffb882"/>
      <path id="Path_2661" data-name="Path 2661" d="M863.2,573.508l5.683-.606s-.46-18.262-8.714-33.354C860.172,539.548,866.685,561.743,863.2,573.508Z" fill="#b45048"/>
      <path id="Path_2662" data-name="Path 2662" d="M951.246,762.348l-5.066-6.273,14.476-8.443,4.584,9.892Z" fill="#b45048"/>
      <path id="Path_2663" data-name="Path 2663" d="M775.852,576.822l-1.688-29.434-12.545-11.58,2.171,29.433Z" fill="#b45048"/>
      <g id="Group_10623" data-name="Group 10623">
        <path id="Path_2664" data-name="Path 2664" d="M860.495,588.034c2,.1,2.574-4.438.446-4.721-2.15-.284-9.9,1.667-10.778,2.563-.918.934-1.14,2.665-.277,2.827S858.088,587.916,860.495,588.034Z" fill="#93483e"/>
        <path id="Path_2665" data-name="Path 2665" d="M841.6,588.025c1.877-.455,1.679-4.131-.592-3.749s-10.334,2.52-10.624,3.574,2.16,3.8,2.953,3.718S839.371,588.57,841.6,588.025Z" fill="#93483e"/>
        <path id="Path_2666" data-name="Path 2666" d="M836.915,596.293c.941-2,4.145-3.683,8.322-1.809,0,0,.58,5.331-2.958,6.3C839.284,600.964,836.915,596.293,836.915,596.293Z" fill="#fffae9"/>
        <path id="Path_2667" data-name="Path 2667" d="M839.33,595.227a1.442,1.442,0,0,0-.691,1.405,2.778,2.778,0,0,0,.88,1.772c.849.807,1.994,1.527,3.1,1.014a1.917,1.917,0,0,0,.9-2.34,3.042,3.042,0,0,0-1.171-1.808,2.3,2.3,0,0,0-1.9-.48A5.073,5.073,0,0,0,839.33,595.227Z" fill="#4e8aa5"/>
        <path id="Path_2668" data-name="Path 2668" d="M842.054,596.7c-.285-.708-.158-1.291.284-1.306s1.032.554,1.317,1.264.153,1.292-.289,1.3S842.339,597.413,842.054,596.7Z" fill="#fffae9"/>
        <path id="Path_2669" data-name="Path 2669" d="M836.871,596.834c-.142-.18-.226-.295-.226-.295.961-2.214,4.361-4.145,8.891-2.249,0,0,.019.121.04.323C841.174,592.839,837.864,594.682,836.871,596.834Z" fill="#ea7b59"/>
        <path id="Path_2670" data-name="Path 2670" d="M850.475,593.4c1.275-1.916,4.709-3.208,8.471-.754,0,0,.517,4.061-2.8,5.379C853.377,599.121,850.475,593.4,850.475,593.4Z" fill="#fffae9"/>
        <path id="Path_2671" data-name="Path 2671" d="M853.027,592.63a1.58,1.58,0,0,0-.924,1.341,2.8,2.8,0,0,0,.548,1.92c.692.929,1.686,1.813,2.865,1.435a2.089,2.089,0,0,0,1.292-2.263,3.023,3.023,0,0,0-.831-2,2.143,2.143,0,0,0-1.775-.735A5.181,5.181,0,0,0,853.027,592.63Z" fill="#4e8aa5"/>
        <path id="Path_2672" data-name="Path 2672" d="M855.435,594.487c-.153-.757.076-1.335.509-1.292s.913.7,1.069,1.46-.081,1.335-.513,1.287S855.589,595.25,855.435,594.487Z" fill="#fffae9"/>
        <path id="Path_2673" data-name="Path 2673" d="M850.335,593.945c-.107-.2-.167-.329-.167-.329,1.331-2.129,5-3.651,9.1-1.13,0,0,0,.127-.019.336C855.255,590.441,851.688,591.885,850.335,593.945Z" fill="#ea7b59"/>
        <path id="Path_2674" data-name="Path 2674" d="M846.147,590.928s8.02,15.58-.8,18.78c0,0,5.178,2.226,8.1-.21,0,0-3.03.823-5.151-.31C848.291,609.188,854.4,605.328,846.147,590.928Z" fill="#ea7b59"/>
        <path id="Path_2675" data-name="Path 2675" d="M846.3,613.763s3.443,7.134,3.959,7.361,7.807-2.855,8.146-3.5,1.858-6.446,1.462-6.871S846.3,613.763,846.3,613.763Z" fill="#5e2b26"/>
        <path id="Path_2676" data-name="Path 2676" d="M847.165,614.012s3.041,6.392,3.506,6.6,7-2.571,7.3-3.149,1.63-5.741,1.277-6.114S847.165,614.012,847.165,614.012Z" fill="#fffae9"/>
        <path id="Path_2677" data-name="Path 2677" d="M849.59,616.073l.533,4.642-2.812-5.761Z" fill="#5e2b26"/>
      </g>
    </g>
    <g id="Group_10628" data-name="Group 10628" transform="translate(-295.809 489.513)">
      <path id="Path_2678" data-name="Path 2678" d="M574.326,214.052s-6.617-9.126-12.127-9.487c-1.492-.1,1.5-4.38,1.5-4.38s8.455,3.011,12.477,9.123S574.326,214.052,574.326,214.052Z" fill="#ffb882"/>
      <path id="Path_2679" data-name="Path 2679" d="M558.306,206.017c-.676.2-1.7.556-2.7.883-1.717.566-3.581.554-3.6-.048,0-.5,1.35-.464,2.568-.862,1.1-.356,1.485-.451,1.453-.679a11.833,11.833,0,0,0-3.019.294c-1.939.283-3.19.184-3.178-.426.006-.592,1.242-.488,3-.9,1.582-.378,2.3-.472,2.351-1.1.031-.3-1.051-.141-2.663-.194-1.816-.055-2.863-.487-2.7-1.017.239-.77.944-.205,3.121-.415,2.938-.283,3.314.25,5.035-.946,1.673-1.163-4.023-3.419-2.431-3.838,1.277-.319,10.019,3.945,10.613,5.351C566.591,204.868,563.348,203.4,558.306,206.017Z" fill="#ffb882"/>
      <path id="Path_2680" data-name="Path 2680" d="M756.863,165.4l-3.6,8.521,4.825,1.77,2.09-10.937Z" fill="#ffb882"/>
      <path id="Path_2681" data-name="Path 2681" d="M764.935,162.379c.543-.51,1.4-1.224,2.2-1.925,1.343-1.174,2.315-2.821,1.9-3.239-.358-.339-1.053.875-2.01,1.7-.881.763-1.172,1.053-1.33.87a12.78,12.78,0,0,1,1.9-2.53c1.246-1.5,1.832-2.642,1.394-3.053s-1.012.725-2.284,1.977c-1.183,1.158-1.67,1.745-2.194,1.353-.26-.186.5-1.063,1.385-2.549.977-1.635,1.237-2.852.749-3.1-.72-.367-.689.669-2.106,2.44-1.99,2.49-1.781,3.228-3.867,4.005-2.125.788-.381-6.42-1.8-5.259-1.152.971-3.233,13.094-2.309,14.688C758.821,169.988,759.65,165.631,764.935,162.379Z" fill="#ffb882"/>
      <path id="Path_2682" data-name="Path 2682" d="M600.382,134.478c.707,17.5,20.684,32.148,29.169,27.02L644.4,114.122C644.931,99.1,599.676,116.977,600.382,134.478Z" fill="#5e4442"/>
      <path id="Path_2683" data-name="Path 2683" d="M625.473,150.039c-12.161,0-22.2-9.68-23.782-22.231-1.36,2.291-1.588,4.687-2.015,7-2.912,15.716,13.252,32.845,29.875,26.693l4.068-12.979A22.557,22.557,0,0,1,625.473,150.039Z" fill="#513735"/>
      <path id="Path_2684" data-name="Path 2684" d="M672.193,175.435c12.653,3.234,44.769,29.6,50.264,33.005,5.337,3.3,10.8,18,5.67,18.8-5.344.838-32-2.067-42.22-6.876C678.112,216.7,649.192,169.553,672.193,175.435Z" fill="#b0463d"/>
      <path id="Path_2685" data-name="Path 2685" d="M729.844,226.223c-5.739.886-34.022-4.468-44.781-9.6-4.77-2.275-4.436,1.967.643,4.358,10.222,4.809,37.054,7.889,42.4,7.051a2.276,2.276,0,0,0,1.845-1.839C729.912,226.2,729.881,226.218,729.844,226.223Z" fill="#b45048"/>
      <path id="Path_2686" data-name="Path 2686" d="M702.706,445.489l6.147,22.524,3.575-1.25-2.356-25.34Z" fill="#ffb882"/>
      <path id="Path_2687" data-name="Path 2687" d="M707.286,471.37h18.352s-8.057-6.713-14.322-7.162S707.286,471.37,707.286,471.37Z" fill="#b0463d"/>
      <path id="Path_2688" data-name="Path 2688" d="M630.06,440.269l-6.119,27.509-4.481-2.7L624.3,435.4Z" fill="#ffb882"/>
      <path id="Path_2689" data-name="Path 2689" d="M624.543,471.463l-17.221-.27s7.343-6.727,13.209-7.091S624.543,471.463,624.543,471.463Z" fill="#b0463d"/>
      <path id="Path_2690" data-name="Path 2690" d="M616.435,450.357l15.238,6.363s13.3-92.92,24.439-143.833L674.1,310.7s11.314,100.765,25.1,147.435l14.143-3.359s-14.85-143.192-18.563-182.967l-56.216,3.182A1693.088,1693.088,0,0,0,616.435,450.357Z" fill="#b0463d"/>
      <path id="Path_2691" data-name="Path 2691" d="M694.782,271.809l-56.216,3.182S626.182,339.8,618.705,422.458a27.644,27.644,0,0,1,16.987,7.249c4.792-31.417,13.077-83.249,20.42-116.82L674.1,310.7s7.879,70.171,18.5,120.52a18.938,18.938,0,0,1,12-4.46,17.887,17.887,0,0,1,5.951,1.029C706.068,384.318,697.482,300.731,694.782,271.809Z" fill="#b45048"/>
      <path id="Path_2692" data-name="Path 2692" d="M615.762,406.868s58.691,20.861,97.937,4.95c0,0-6.72-111.371-13.789-130.463s-2.83-20.507-2.475-26.871-4.95-67.528-17.678-75.661S649.7,166.1,642.278,169.277s-24.749,9.9-26.516,18.739,9.9,45.962,14.5,47.377-2.123,20.154,2.474,20.506-6.717,10.253,2.828,15.557C632.38,276.759,626.724,283.477,615.762,406.868Z" fill="#b0463d"/>
      <path id="Path_2693" data-name="Path 2693" d="M652.734,269.461l-3.132.264s-5.279,23.785-3.763,29.864-1.617,27.485-3.026,30.921l6.544,2.643s3.089-25.371,1.055-34.621S652.734,269.461,652.734,269.461Z" fill="#b45048"/>
      <path id="Path_2694" data-name="Path 2694" d="M697.435,254.484c.14-2.532-.616-13.742-2.377-26.834.862,13.825.2,29.031-1.62,29.4-3.217.644-40.7,4.937-50.836-2.542-7.7-5.68-.724-23.884-.724-23.884-7.423-2.673-25.646-40.9-26.2-38.152-1.767,8.839,9.979,41.511,14.576,42.926s-2.123,20.154,2.474,20.506-6.717,10.253,2.828,15.557c-3.181,5.3-8.837,12.021-19.8,135.412,0,0,2.858,1.016,7.73,2.426-.017-1.2-.029-2.4-.029-3.6,0-54.12-.085-115.606,25.412-136.551,4.358-3.581,10.5-4.645,16.405-5.71,7.929-1.431,20.159,2.233,31.107,6.03C694.822,261.167,697.174,259.157,697.435,254.484Z" fill="#b45048"/>
      <path id="Path_2695" data-name="Path 2695" d="M617.177,184.832c-6.334,7.54-9.538,44.259-11.387,50.3s.631,27.237,5.09,24.218,25.858-31.511,29.036-40.265C642.23,212.707,625.633,184.211,617.177,184.832Z" fill="#b0463d"/>
      <path id="Path_2696" data-name="Path 2696" d="M609.619,257.982a1.822,1.822,0,0,1-1.777.189c1.014,1.314,2.087,1.861,3.126,1.177,4.561-3,25.667-26.717,28.739-35.082a44.358,44.358,0,0,0,.376-5.9C635.967,227.607,614.342,254.854,609.619,257.982Z" fill="#b45048"/>
      <path id="Path_2697" data-name="Path 2697" d="M725.761,226.511c4.549,3.457,23.115-10.006,34.784-51.577l-12.374-3.005s-21.456,29.861-25.353,36.185S719.7,221.906,725.761,226.511Z" fill="#b0463d"/>
      <path id="Path_2698" data-name="Path 2698" d="M724.662,226.435a13.716,13.716,0,0,0,1.227,1.062c4.314,3.279,21.127-9.574,32.8-46.393C745.666,215.175,729.881,227.713,724.662,226.435Z" fill="#b45048"/>
      <path id="Path_2699" data-name="Path 2699" d="M611.226,259.089c-4,3.991-22.428-6.1-41.489-45.983l2.8-10.474s34.327,29.725,39.371,35.532S616.553,253.773,611.226,259.089Z" fill="#b0463d"/>
      <path id="Path_2700" data-name="Path 2700" d="M611.226,256.677c-3.971,3.962-22.16-5.969-41.072-45.13l-.417,1.559c19.061,39.883,37.325,50.481,41.325,46.49C616.8,253.864,622.138,245.783,611.226,256.677Z" fill="#b45048"/>
      <path id="Path_2701" data-name="Path 2701" d="M627.43,156.2l5.1,17.373,23.284-4.5-13.8-20.568Z" fill="#ffb882"/>
      <path id="Path_2702" data-name="Path 2702" d="M816.526,123.156c-2.753-8.654-30.905-5.72-62.88,6.552S697.985,158.942,700.74,167.6s30.905,5.719,62.88-6.552S819.28,131.811,816.526,123.156Z" fill="#968b77"/>
      <path id="Path_2703" data-name="Path 2703" d="M816.285,120.744c-2.753-8.654-30.9-5.721-62.88,6.552s-55.661,29.233-52.906,37.888,30.9,5.719,62.88-6.553S819.039,129.4,816.285,120.744Z" fill="#d3c6ab"/>
      <path id="Path_2704" data-name="Path 2704" d="M745.015,155.534c-.747-1.965-5.125-2.123-9.781-.352s-7.82,4.8-7.073,6.761,5.125,2.123,9.779.352S745.762,157.5,745.015,155.534Z" fill="#968b77"/>
      <path id="Path_2705" data-name="Path 2705" d="M725.057,161.439c-.59-2.019-4.942-2.522-9.723-1.126s-8.175,4.164-7.585,6.181,4.94,2.521,9.721,1.125S725.646,163.455,725.057,161.439Z" fill="#968b77"/>
      <path id="Path_2706" data-name="Path 2706" d="M733.1,146.079c-.589-2.019-4.942-2.522-9.722-1.126s-8.176,4.164-7.586,6.181,4.941,2.521,9.722,1.125S733.687,148.1,733.1,146.079Z" fill="#968b77"/>
      <path id="Path_2707" data-name="Path 2707" d="M757.6,132.347c-.589-2.018-6.5-1.95-13.209.151s-11.662,5.441-11.072,7.458,6.5,1.949,13.208-.153S758.191,134.363,757.6,132.347Z" fill="#968b77"/>
      <path id="Path_2708" data-name="Path 2708" d="M767.493,139.665c-.589-2.019-6.5-1.95-13.209.151s-11.661,5.441-11.071,7.458,6.5,1.95,13.208-.152S768.083,141.682,767.493,139.665Z" fill="#968b77"/>
      <path id="Path_2709" data-name="Path 2709" d="M767.115,153.075c-.868-1.217-5.062-1.106-9.371.249s-7.092,3.438-6.224,4.654,5.064,1.1,9.371-.248S767.983,154.291,767.115,153.075Z" fill="#968b77"/>
      <path id="Path_2710" data-name="Path 2710" d="M781.992,144.229c-.867-1.217-5.062-1.106-9.37.248s-7.093,3.439-6.224,4.655,5.063,1.106,9.37-.249S782.861,145.445,781.992,144.229Z" fill="#968b77"/>
      <path id="Path_2711" data-name="Path 2711" d="M791.481,137.554c-.867-1.217-5.062-1.106-9.37.249s-7.092,3.438-6.223,4.654,5.062,1.106,9.369-.249S792.351,138.77,791.481,137.554Z" fill="#968b77"/>
      <path id="Path_2712" data-name="Path 2712" d="M809.84,120.81c-1.165-1.454-7.154-1.063-13.378.873s-10.322,4.681-9.156,6.134,7.155,1.062,13.378-.872S811.007,122.262,809.84,120.81Z" fill="#968b77"/>
      <path id="Path_2713" data-name="Path 2713" d="M787.732,121.346c-1.294-1.523-8.151-.959-15.315,1.258s-11.917,5.247-10.619,6.768,8.153.958,15.316-1.258S789.031,122.866,787.732,121.346Z" fill="#968b77"/>
      <path id="Path_2714" data-name="Path 2714" d="M781.027,135.3c-.867-1.217-5.062-1.1-9.37.249s-7.093,3.438-6.223,4.655,5.062,1.105,9.369-.249S781.9,136.519,781.027,135.3Z" fill="#968b77"/>
      <path id="Path_2715" data-name="Path 2715" d="M654.022,199.014,644.693,180.2l-12.162-6.627,22.456-5.274.828.779-10.64,8.067Z" fill="#545144"/>
      <g id="Group_10625" data-name="Group 10625">
        <path id="Path_2716" data-name="Path 2716" d="M681.3,290.353c.273,36.025-7.815,127.32-7.815,127.32l3.619.122C680.4,366.768,681.949,313.153,681.3,290.353Z" fill="#ead7a0"/>
      </g>
      <path id="Path_2717" data-name="Path 2717" d="M657.547,189.815c-.247-1.354-1.2-2.438-2.122-2.421s-1.476,1.129-1.229,2.483,1.2,2.439,2.121,2.421S657.794,191.169,657.547,189.815Z" fill="#545144"/>
      <path id="Path_2718" data-name="Path 2718" d="M666.292,210.336c-.428-1.308-1.516-2.253-2.431-2.11s-1.308,1.318-.88,2.626,1.517,2.254,2.43,2.111S666.721,211.645,666.292,210.336Z" fill="#545144"/>
      <path id="Path_2719" data-name="Path 2719" d="M670.649,230.918c-.108-1.372-.944-2.547-1.867-2.623s-1.581.975-1.472,2.347.944,2.547,1.866,2.623S670.759,232.29,670.649,230.918Z" fill="#545144"/>
      <path id="Path_2720" data-name="Path 2720" d="M673,251.606c.149-1.348-.452-2.64-1.343-2.886s-1.731.648-1.881,2,.451,2.64,1.34,2.885S672.846,252.954,673,251.606Z" fill="#545144"/>
      <path id="Path_2721" data-name="Path 2721" d="M674.612,278.431c.15-1.348-.452-2.64-1.343-2.886s-1.731.648-1.88,2,.45,2.64,1.339,2.885S674.462,279.778,674.612,278.431Z" fill="#545144"/>
      <path id="Path_2722" data-name="Path 2722" d="M696.482,221.692a83.845,83.845,0,0,1-6.031-20.507l.564,16.969.964-5.79,2.735,11.9Z" fill="#b45048"/>
      <path id="Path_2723" data-name="Path 2723" d="M638.14,225.45l-1.329,3c9.973,6.273,22.679,3.056,22.679,3.056C645.658,233.273,638.14,225.45,638.14,225.45Z" fill="#b45048"/>
      <path id="Path_2724" data-name="Path 2724" d="M652.092,189.364c11.323-2.876,14.208-10.72,14.552-17.086a67.042,67.042,0,0,0-10.833-3.2l0,0-13.8-20.568L627.43,156.2l5.1,17.373h0c-5.692,2.734-11.75,6.26-14.839,10.393C627.661,186.752,639.815,192.481,652.092,189.364Z" fill="#b45048" opacity="0.6" style="mix-blend-mode: multiply;isolation: isolate"/>
      <path id="Path_2725" data-name="Path 2725" d="M611.148,133.419c-.462,6.244,6.553,23.1,8.9,25.1s24.3,7.169,38.472,5.911c0,0,9.456-21.383,3.854-29.509s-15.64-21.441-19.617-22.33C633.627,110.553,611.849,123.952,611.148,133.419Z" fill="#ffdcae"/>
      <path id="Path_2726" data-name="Path 2726" d="M621.95,156.549s-5.127-26.517-15.026-27.047,6.717,22.981,6.717,22.981Z" fill="#5e4442"/>
      <path id="Path_2727" data-name="Path 2727" d="M622.31,159.461c-4.869,1.058-12.626,1.655-15.213-2.36s3.183-6.411,6.855-5.835S627.227,158.394,622.31,159.461Z" fill="#ffdcae"/>
      <path id="Path_2728" data-name="Path 2728" d="M619.282,158.541c-2.972.645-7.707,1.009-9.286-1.441s1.942-3.912,4.184-3.561S622.283,157.89,619.282,158.541Z" fill="#f2aa79"/>
      <path id="Path_2729" data-name="Path 2729" d="M621.115,158.488c-2.086.452-5.408.708-6.514-1.011s1.362-2.745,2.935-2.5S623.221,158.031,621.115,158.488Z" fill="#ffdcae"/>
      <path id="Path_2730" data-name="Path 2730" d="M599.512,141.339s-21.4-22.8-22.994-23.859c0,0,18.88-28.807,42.923-34.993l22.485,26.862S613.654,113.939,599.512,141.339Z" fill="#b0463d"/>
      <path id="Path_2731" data-name="Path 2731" d="M612.265,116.993a87.706,87.706,0,0,1-25.434-12.423,113.23,113.23,0,0,0-10.313,12.91c1.59,1.062,22.994,23.859,22.994,23.859a60.026,60.026,0,0,1,19.955-22.375C617.1,118.407,614.69,117.754,612.265,116.993Z" fill="#b45048"/>
      <path id="Path_2732" data-name="Path 2732" d="M696.885,263.912c-34.018-9.409-63.933,7.479-63.933,7.479l.483,3.619c32.81-13.269,63.932-4.1,63.932-4.1Z" fill="#545144"/>
      <path id="Path_2733" data-name="Path 2733" d="M642.6,269.782a5.326,5.326,0,0,1,1.031-3.03,76.248,76.248,0,0,0-10.681,4.639l.483,3.619a94.525,94.525,0,0,1,9.584-3.283A4.868,4.868,0,0,1,642.6,269.782Z" fill="#424036"/>
      <path id="Path_2734" data-name="Path 2734" d="M651.287,268.737l-3.137.242s-5.548,21.712-4.1,27.261-1.931,25.091-3.378,28.227l6.513,2.413s3.378-23.161,1.449-31.605S651.287,268.737,651.287,268.737Z" fill="#545144"/>
      <path id="Path_2735" data-name="Path 2735" d="M722.7,208.664l32.489-17.209,5.357-16.521-12.594-3.584S723.825,204,722.7,208.664Z" fill="#b45048"/>
      <path id="Path_2736" data-name="Path 2736" d="M574.567,224.1,580.84,207.7l-8.685-6.272-3.619,12.063Z" fill="#545144"/>
      <path id="Path_2737" data-name="Path 2737" d="M743.126,176.658l4.985-6.434,13.35,3.86-2.894,8.524Z" fill="#424036"/>
      <path id="Path_2738" data-name="Path 2738" d="M722.009,153.643a2.238,2.238,0,0,0-2.171-1.4,12.185,12.185,0,0,0-8.68,3.7,1.649,1.649,0,0,0-.417,1.839l3.153,7.776c3.86,3.052,10.253-.326,11.121-4.508Z" fill="#424036"/>
      <path id="Path_2739" data-name="Path 2739" d="M715.819,159.684a13.921,13.921,0,0,1-.822-6.4,14.392,14.392,0,0,0-3.84,2.665,1.649,1.649,0,0,0-.417,1.839l3.154,7.776a6.351,6.351,0,0,0,6.54.514A12.446,12.446,0,0,1,715.819,159.684Z" fill="#333127"/>
      <path id="Path_2740" data-name="Path 2740" d="M721.131,153.62c-.449-1.057-3-.98-5.7.172s-4.524,2.945-4.074,4,3,.98,5.706-.173S721.581,154.678,721.131,153.62Z" fill="#e2dcc3"/>
      <path id="Path_2741" data-name="Path 2741" d="M729.97,138.042a2.236,2.236,0,0,0-2.172-1.394,12.178,12.178,0,0,0-8.679,3.7,1.651,1.651,0,0,0-.417,1.84l3.152,7.774c3.861,3.052,10.254-.325,11.121-4.507Z" fill="#424036"/>
      <path id="Path_2742" data-name="Path 2742" d="M725.274,143.588a20.441,20.441,0,0,1-1.1-6.356,12.969,12.969,0,0,0-5.055,3.116,1.652,1.652,0,0,0-.418,1.839l3.153,7.775c2.047,1.619,4.8,1.419,7.074.26A19.345,19.345,0,0,1,725.274,143.588Z" fill="#333127"/>
      <path id="Path_2743" data-name="Path 2743" d="M729.093,138.019c-.45-1.058-3.005-.98-5.705.172s-4.524,2.945-4.073,4,3,.98,5.705-.172S729.543,139.077,729.093,138.019Z" fill="#e2dcc3"/>
      <path id="Path_2744" data-name="Path 2744" d="M741.952,148.416a2.237,2.237,0,0,0-2.171-1.4,12.183,12.183,0,0,0-8.679,3.7,1.65,1.65,0,0,0-.417,1.839l3.152,7.775c3.86,3.052,10.254-.325,11.12-4.507Z" fill="#424036"/>
      <g id="Group_10626" data-name="Group 10626">
        <path id="Path_2745" data-name="Path 2745" d="M742.325,150.481a13.61,13.61,0,0,1,1.541,7.669,5.931,5.931,0,0,0,1.092-2.321l-3.006-7.413a2.232,2.232,0,0,0-1.873-1.384A16.694,16.694,0,0,1,742.325,150.481Z" fill="#333127"/>
        <path id="Path_2746" data-name="Path 2746" d="M733.3,154.913a16.143,16.143,0,0,1-1.518-4.783c-.225.192-.449.383-.678.592a1.65,1.65,0,0,0-.417,1.839l3.153,7.775a6.019,6.019,0,0,0,5.456.891C737.19,160.457,734.876,158.125,733.3,154.913Z" fill="#333127"/>
      </g>
      <path id="Path_2747" data-name="Path 2747" d="M741.075,148.393c-.449-1.058-3.005-.98-5.7.172s-4.523,2.945-4.073,4,3,.98,5.705-.173S741.525,149.451,741.075,148.393Z" fill="#e2dcc3"/>
      <path id="Path_2748" data-name="Path 2748" d="M780.328,139.406a1.57,1.57,0,0,0-1.6-.9,12.038,12.038,0,0,0-7.151,2.384,1.029,1.029,0,0,0-.481,1.184l1.839,5.008c2.789,1.965,8.112-.21,9.143-2.9Z" fill="#424036"/>
      <path id="Path_2749" data-name="Path 2749" d="M775.293,142.078a9.71,9.71,0,0,1,.529-3.192,12.539,12.539,0,0,0-4.241,2.006,1.029,1.029,0,0,0-.481,1.184l1.839,5.008a5.363,5.363,0,0,0,4.234.572A8.532,8.532,0,0,1,775.293,142.078Z" fill="#333127"/>
      <path id="Path_2750" data-name="Path 2750" d="M780.041,139.926c-.5-.988-2.735-1.2-4.992-.475s-3.682,2.116-3.182,3.106,2.736,1.2,4.993.475S780.54,140.915,780.041,139.926Z" fill="#e2dcc3"/>
      <path id="Path_2751" data-name="Path 2751" d="M779.989,130.283a1.57,1.57,0,0,0-1.6-.9,12.041,12.041,0,0,0-7.151,2.384,1.03,1.03,0,0,0-.482,1.184l1.841,5.008c2.789,1.965,8.11-.209,9.142-2.9Z" fill="#424036"/>
      <path id="Path_2752" data-name="Path 2752" d="M776.258,132.186a10.405,10.405,0,0,1,.332-2.635,11.989,11.989,0,0,0-5.348,2.218,1.03,1.03,0,0,0-.482,1.184l1.841,5.008c1.528,1.078,3.816.906,5.744.091A8.277,8.277,0,0,1,776.258,132.186Z" fill="#333127"/>
      <path id="Path_2753" data-name="Path 2753" d="M779.7,130.8c-.5-.988-2.735-1.2-4.992-.475s-3.683,2.116-3.182,3.106,2.736,1.2,4.993.475S780.2,131.792,779.7,130.8Z" fill="#e2dcc3"/>
      <path id="Path_2754" data-name="Path 2754" d="M757.037,131.242c-.555-1.456-2.356-2.9-9.983,0s-7.47,4.977-6.915,6.434,1.826,2.323,9.454-.582S757.592,132.7,757.037,131.242Z" fill="#e2dcc3"/>
      <path id="Path_2755" data-name="Path 2755" d="M741.976,136.849c-2.06,1.749-6.542,0-6.175-1.884s2.551-.442,3.844-1.26,6.495-6.964,16.331-6.2c2.392.186,7.278,3.117-.57,3.195S744.778,134.469,741.976,136.849Z" fill="#ff7748"/>
      <path id="Path_2756" data-name="Path 2756" d="M736.716,135.949c.314-1.892,2.539-.51,3.809-1.363s6.3-7.136,16.158-6.635a6.581,6.581,0,0,1,2.083.531,6.886,6.886,0,0,0-2.79-.974c-9.836-.767-15.036,5.378-16.331,6.2s-3.479-.623-3.844,1.26c-.127.648.33,1.278,1.058,1.758A1.222,1.222,0,0,1,736.716,135.949Z" fill="#ef553c"/>
      <path id="Path_2757" data-name="Path 2757" d="M744.171,130.176l3.056,7.8a14.09,14.09,0,0,0,6.032-2.573l-4.343-7.319Z" fill="#424036"/>
      <path id="Path_2758" data-name="Path 2758" d="M751.514,145.573c-.662-1.406-.46-3.679,6.844-6.991s8.678-1.752,9.339-.344.408,2.9-6.9,6.216S752.173,146.981,751.514,145.573Z" fill="#e2dcc3"/>
      <path id="Path_2759" data-name="Path 2759" d="M765.846,138.943c2.661-.218,4.482-4.582,2.886-5.643s-2.065,1.478-3.537,1.813-9.429-.321-15.624,7.106c-1.507,1.805-2.762,7.279,2.673,1.836S762.223,139.242,765.846,138.943Z" fill="#ff7748"/>
      <path id="Path_2760" data-name="Path 2760" d="M751.181,143.087c5.943-7.629,13.918-7.239,15.379-7.622,1.035-.271,1.53-1.627,2.311-2.038a1.044,1.044,0,0,0-.139-.127c-1.6-1.06-2.065,1.478-3.537,1.813s-9.429-.321-15.624,7.106c-1.251,1.5-2.324,5.516.452,3.732A6.621,6.621,0,0,1,751.181,143.087Z" fill="#ef553c"/>
      <path id="Path_2761" data-name="Path 2761" d="M759.57,135.815l3.481,7.6c-2.179,1.412-3.679,2.515-5.932,2.687l-2.3-8.423Z" fill="#424036"/>
      <path id="Path_2762" data-name="Path 2762" d="M789.576,133.133a1.571,1.571,0,0,0-1.6-.9,12.051,12.051,0,0,0-7.15,2.384,1.029,1.029,0,0,0-.481,1.184l1.839,5.008c2.79,1.966,8.111-.209,9.143-2.9Z" fill="#424036"/>
      <path id="Path_2763" data-name="Path 2763" d="M786.149,135.684a10.287,10.287,0,0,1,.544-3.353,11.9,11.9,0,0,0-5.864,2.288,1.029,1.029,0,0,0-.481,1.184l1.839,5.008c1.473,1.038,3.649.915,5.529.177A8.857,8.857,0,0,1,786.149,135.684Z" fill="#333127"/>
      <path id="Path_2764" data-name="Path 2764" d="M785.4,116.52c-.243-.64-1.3-.936-2.645-.741a36.037,36.037,0,0,0-13.278,4.433c-.852.458-1.3,1.073-1.122,1.539l2.163,5.66c4.534,1.773,14.505-2.013,16.945-5.494Z" fill="#424036"/>
      <path id="Path_2765" data-name="Path 2765" d="M789.289,133.653c-.5-.988-2.735-1.2-4.992-.475s-3.682,2.116-3.182,3.106,2.737,1.2,4.993.475S789.788,134.642,789.289,133.653Z" fill="#e2dcc3"/>
      <path id="Path_2766" data-name="Path 2766" d="M761.3,157.035c-3.354,1.264-6.353-.161-4.468-1.769a3.992,3.992,0,0,1,1.171-2.9c1.608-1.287.8-2.01.322-2.01s-.482-1.367.321-1.689a.781.781,0,0,0,.885.8c.884-.081,1.93.08,1.689.563,0,0,2.413,0,2.172.884C763.393,150.923,773.043,152.612,761.3,157.035Z" fill="#e5dd45"/>
      <path id="Path_2767" data-name="Path 2767" d="M784.763,116.2c-.434-1.18-5.817-3.384-10.19-2.024s-6.079,5.767-5.645,6.948,4.887,2.165,9.26.806S785.2,117.382,784.763,116.2Z" fill="#ff734d"/>
      <path id="Path_2768" data-name="Path 2768" d="M779.516,118.274c-3.639,0-6.679-1.192-7.472-2.793-2.492,1.871-3.452,4.729-3.116,5.646.433,1.179,4.887,2.165,9.26.806,3.294-1.025,5.6-3.086,6.353-4.546A13.564,13.564,0,0,1,779.516,118.274Z" fill="#ef6141"/>
      <path id="Path_2769" data-name="Path 2769" d="M776.46,117.852a.825.825,0,1,0-.824.864A.845.845,0,0,0,776.46,117.852Z" fill="#ff734d"/>
      <path id="Path_2770" data-name="Path 2770" d="M779.556,118.012a.825.825,0,1,0-.824.865A.846.846,0,0,0,779.556,118.012Z" fill="#ff734d"/>
      <path id="Path_2771" data-name="Path 2771" d="M773,119.017a.825.825,0,1,0-.823.865A.846.846,0,0,0,773,119.017Z" fill="#ff734d"/>
      <path id="Path_2772" data-name="Path 2772" d="M773.886,116.565a.825.825,0,1,0-.824.864A.845.845,0,0,0,773.886,116.565Z" fill="#ff734d"/>
      <path id="Path_2773" data-name="Path 2773" d="M782.611,118.012a.825.825,0,1,0-.824.865A.846.846,0,0,0,782.611,118.012Z" fill="#ff734d"/>
      <path id="Path_2774" data-name="Path 2774" d="M784.589,115.569a.724.724,0,1,0-.724.7A.714.714,0,0,0,784.589,115.569Z" fill="#ff734d"/>
      <path id="Path_2775" data-name="Path 2775" d="M782.5,114.523a.724.724,0,1,0-.724.7A.714.714,0,0,0,782.5,114.523Z" fill="#ff734d"/>
      <path id="Path_2776" data-name="Path 2776" d="M777.191,114.162a.724.724,0,1,0-.723.7A.714.714,0,0,0,777.191,114.162Z" fill="#ff734d"/>
      <path id="Path_2777" data-name="Path 2777" d="M773.412,115.207a.724.724,0,1,0-.724.7A.714.714,0,0,0,773.412,115.207Z" fill="#ff734d"/>
      <path id="Path_2778" data-name="Path 2778" d="M771.884,116.936a.725.725,0,1,0-.724.7A.714.714,0,0,0,771.884,116.936Z" fill="#ef6141"/>
      <path id="Path_2779" data-name="Path 2779" d="M770.219,119.9a.724.724,0,1,0-.724.7A.714.714,0,0,0,770.219,119.9Z" fill="#ef6141"/>
      <path id="Path_2780" data-name="Path 2780" d="M808.2,115.917c-.243-.64-1.3-.936-2.645-.742a36.048,36.048,0,0,0-13.278,4.434c-.852.458-1.3,1.073-1.122,1.539l2.163,5.66c4.533,1.773,14.505-2.013,16.945-5.494Z" fill="#424036"/>
      <path id="Path_2781" data-name="Path 2781" d="M807.633,116.371c-.322-.888-5.258-2.242-9.508-.9s-6.207,4.877-5.887,5.763,4.47,1.359,8.721.015S807.954,117.257,807.633,116.371Z" fill="#f7f1da"/>
      <path id="Path_2782" data-name="Path 2782" d="M599.015,225.874l9.741,9.655.553-20.431-2.9,14.958Z" fill="#b45048"/>
      <path id="Path_2783" data-name="Path 2783" d="M640.231,205.436s-.108,12.618-3.727,21.971l2.077,1.523C638.748,228.277,643.476,220.881,640.231,205.436Z" fill="#b45048"/>
      <path id="Path_2784" data-name="Path 2784" d="M635.475,212.333s2.567,9.318,1.3,17.135l2.18.588C638.969,229.532,641.638,222.872,635.475,212.333Z" fill="#b45048"/>
      <g id="Group_10627" data-name="Group 10627">
        <path id="Path_2785" data-name="Path 2785" d="M628.706,128.288c.612-1.392-.5-3.436-1.735-3.3-.872.1-8.643,9.815-8.869,10.6s.036,1.155.675,1.179S628.389,129.008,628.706,128.288Z" fill="#5e4442"/>
        <path id="Path_2786" data-name="Path 2786" d="M640.657,123.124c-1.21-.507-2.276-2.052-1.6-3.039.477-.695,11.053-1.312,11.684-.924.614.382.494,1.01.21,1.591S641.283,123.386,640.657,123.124Z" fill="#5e4442"/>
        <path id="Path_2787" data-name="Path 2787" d="M655.128,151.348c-3.055,2.932-10.147,5.307-13.817.576,0,0,8.492-3.28,12.764-6.808Z" fill="#492222"/>
        <path id="Path_2788" data-name="Path 2788" d="M653.726,145.821l.278,2.316s-7.73,5.427-12.137,3.714C645.693,150.232,650.879,148.174,653.726,145.821Z" fill="#fffae9"/>
        <path id="Path_2789" data-name="Path 2789" d="M654.282,149.783l.377,1.389a13.6,13.6,0,0,1-8.994,3.073S651.223,152.862,654.282,149.783Z" fill="#fffae9"/>
        <path id="Path_2790" data-name="Path 2790" d="M653.887,154.337c-.118-.241-.717-.178-1.339.143s-1.029.776-.916,1.018.716.178,1.336-.143S654,154.579,653.887,154.337Z" fill="#e5935c"/>
        <path id="Path_2791" data-name="Path 2791" d="M640.068,155.2s-1.644-2.617.106-4.911C640.174,150.287,636.537,152.1,640.068,155.2Z" fill="#e5935c"/>
        <path id="Path_2792" data-name="Path 2792" d="M652.964,127.989a4.25,4.25,0,0,0-.435-1.093c-2.633-1.187-7.714-.662-11.282,3.646,0,0,.066.11.188.286A10.393,10.393,0,0,1,652.964,127.989Z" fill="#422020"/>
        <path id="Path_2793" data-name="Path 2793" d="M635.438,133.144c-.086-.258-.149-.415-.149-.415-5.145.629-8.713,4.307-10.726,7.959a6.991,6.991,0,0,0,.914.943C627.507,138.071,630.43,133.775,635.438,133.144Z" fill="#422020"/>
        <path id="Path_2794" data-name="Path 2794" d="M649.215,138.265c-3.6,1.555-5.022.859-5.022.859-2.134-2.435-7.369-9.094-7.369-9.094.622,2.306,5.407,7.622,6.936,9.583,0,0,1.141.8,4.824-.535a5.723,5.723,0,0,1-2.163,4.186,3.745,3.745,0,0,1,.194.358A5.98,5.98,0,0,0,649.215,138.265Z" fill="#e5935c"/>
      </g>
      <path id="Path_2795" data-name="Path 2795" d="M780.963,115.821a.729.729,0,1,0-.724.643A.687.687,0,0,0,780.963,115.821Z" fill="#ffc97b"/>
      <path id="Path_2796" data-name="Path 2796" d="M778.16,115.523a.36.36,0,1,0-.238.418A.341.341,0,0,0,778.16,115.523Z" fill="#ffc97b"/>
      <path id="Path_2797" data-name="Path 2797" d="M777.944,119.624a.36.36,0,1,0-.238.418A.34.34,0,0,0,777.944,119.624Z" fill="#ff734d"/>
      <path id="Path_2798" data-name="Path 2798" d="M784,115.668a.36.36,0,1,0-.238.418A.34.34,0,0,0,784,115.668Z" fill="#ffc97b"/>
      <path id="Path_2799" data-name="Path 2799" d="M776.518,113.939a.36.36,0,1,0-.239.418A.342.342,0,0,0,776.518,113.939Z" fill="#ffc97b"/>
      <path id="Path_2800" data-name="Path 2800" d="M773.7,116.553a.36.36,0,1,0-.238.418A.341.341,0,0,0,773.7,116.553Z" fill="#ffc97b"/>
      <path id="Path_2801" data-name="Path 2801" d="M738.7,149.5c-.208-.538-1.479-.546-2.842-.018s-2.293,1.392-2.085,1.93,1.482.547,2.842.019S738.907,150.042,738.7,149.5Z" fill="#ef553c"/>
      <path id="Path_2802" data-name="Path 2802" d="M777.978,140.65c-.174-.443-1.2-.46-2.3-.038s-1.841,1.125-1.666,1.569,1.2.461,2.3.038S778.154,141.094,777.978,140.65Z" fill="#afac2e"/>
      <path id="Path_2803" data-name="Path 2803" d="M777.495,131.362c-.174-.443-1.2-.461-2.3-.038s-1.841,1.125-1.666,1.568,1.205.461,2.3.039S777.672,131.806,777.495,131.362Z" fill="#afac2e"/>
      <path id="Path_2804" data-name="Path 2804" d="M787.327,134.378c-.175-.443-1.2-.461-2.3-.038s-1.841,1.124-1.666,1.568,1.205.461,2.3.038S787.5,134.821,787.327,134.378Z" fill="#afac2e"/>
      <path id="Path_2805" data-name="Path 2805" d="M786.865,134.093c-.084-.22-.589-.227-1.13-.018s-.91.558-.826.777.59.227,1.129.018S786.95,134.312,786.865,134.093Z" fill="#e5dd45"/>
      <path id="Path_2806" data-name="Path 2806" d="M776.994,131.083c-.084-.219-.589-.228-1.13-.018s-.909.558-.825.777.59.227,1.129.017S777.079,131.3,776.994,131.083Z" fill="#e5dd45"/>
      <path id="Path_2807" data-name="Path 2807" d="M777.356,140.371c-.084-.219-.589-.227-1.129-.017s-.911.557-.827.776.59.227,1.129.018S777.44,140.59,777.356,140.371Z" fill="#e5dd45"/>
      <path id="Path_2808" data-name="Path 2808" d="M726.755,139.01c-.208-.538-1.48-.547-2.842-.019s-2.293,1.393-2.085,1.93,1.482.548,2.842.019S726.966,139.548,726.755,139.01Z" fill="#ef553c"/>
      <path id="Path_2809" data-name="Path 2809" d="M718.492,154.873c-.208-.539-1.479-.547-2.842-.019s-2.293,1.393-2.085,1.93,1.482.547,2.841.019S718.7,155.411,718.492,154.873Z" fill="#ef553c"/>
      <path id="Path_2810" data-name="Path 2810" d="M759.625,153.643a2.767,2.767,0,0,1,1.22-2.633c-1.121-.187-1.957-.872-1.957-1.695,0-.012.005-.023.006-.035a.965.965,0,0,1-.247-.608c-.8.322-.8,1.689-.321,1.689s1.286.723-.322,2.01a3.992,3.992,0,0,0-1.171,2.9c-1.885,1.608,1.114,3.033,4.468,1.769a25.825,25.825,0,0,0,3.741-1.694C762.334,155.787,760.009,155.1,759.625,153.643Z" fill="#afac2e"/>
      <path id="Path_2811" data-name="Path 2811" d="M803.887,119.251c-3.6.677-6.847-.509-7.248-2.649a2.339,2.339,0,0,1-.034-.515c-3.2,1.592-4.645,4.376-4.367,5.149.322.887,4.47,1.359,8.721.015a15.909,15.909,0,0,0,5.1-2.649A10.761,10.761,0,0,1,803.887,119.251Z" fill="#e2dcc3"/>
      <path id="Path_2812" data-name="Path 2812" d="M803.034,116.768c.1-.775-1.343-1.056-3.228-.629s-3.5,1.4-3.6,2.177,1.343,1.055,3.226.628S802.932,117.542,803.034,116.768Z" fill="#ff7748"/>
    </g>
  </g>
</svg>
