<svg xmlns="http://www.w3.org/2000/svg" xmlns:xlink="http://www.w3.org/1999/xlink" width="517" height="358.838" viewBox="0 0 517 358.838">
  <defs>
    <clipPath id="clip-path">
      <path id="Path_2364" data-name="Path 2364" d="M119.936,310.441c-5.022-25.209-1.58-52.795,12.491-74.646,16.433-25.519,46.874-40.292,68.528-60.032C236.546,143.32,270.367,76.117,326.613,71.17c54.053-4.752,74.9,51.948,116.941,74.814,33.429,18.181,72.02,22.481,104.413,43.077,20.8,13.227,37.2,35.531,44.719,60.84s6.085,53.332-3.92,76.439c-15.792,36.477-50.914,57.842-87,64.21s-73.518-.174-110.141-7.376-73.727-15.109-110.241-11.444c-29.31,2.943-56.832,16.689-86.836,14.516C154.772,383.364,127.63,349.068,119.936,310.441Z" transform="translate(-117.755 -70.888)" fill="none"/>
    </clipPath>
    <clipPath id="clip-path-2">
      <rect id="Rectangle_1085" data-name="Rectangle 1085" width="486.892" height="134.373" fill="none"/>
    </clipPath>
  </defs>
  <g id="Group_10580" data-name="Group 10580" transform="translate(-97.75 -57.568)">
    <g id="Group_10448" data-name="Group 10448" transform="translate(97.75 57.567)">
      <g id="Group_10427" data-name="Group 10427" opacity="0.3">
        <path id="Path_2350" data-name="Path 2350" d="M97.77,265.212c-.5-26.7,8.491-54.305,27.723-74.112,22.459-23.131,57.8-32.727,84.713-49,44.241-26.743,93.294-89.373,154.279-84.236,58.608,4.937,69.921,66.731,110.387,97.75,32.174,24.664,72.533,36.06,103.134,63.006,19.653,17.306,32.851,43.1,36,70.359s-3.787,55.672-18.921,77.5c-23.887,34.459-65.492,49.952-105.238,49.924S411.415,402.9,373.716,388.888s-75.777-28.826-115.454-31.7c-31.85-2.3-63.874,6.772-95.479-.891C120.891,346.143,98.534,306.13,97.77,265.212Z" transform="translate(-97.75 -57.568)" fill="#ffd3a3"/>
      </g>
      <g id="Group_10428" data-name="Group 10428" transform="translate(47.967 60.926)" opacity="0.3">
        <path id="Path_2351" data-name="Path 2351" d="M157.233,164.412c8.087-18.562,22.686-33.4,45.606-39.364,29.8-7.748,63.258,7.507,91.783,15.173,34.615,9.3,70.527,6.886,106.437,7.2,18.02.158,35.6-2.406,53.5-3.412,26.485-1.489,56.5-4.114,81.684,7.394,27.1,12.384,36.582,36.127,33.147,62.487-1.894,14.529-6.375,28.621-11.214,42.46a248.49,248.49,0,0,1-44.98,77.987q-5.952,7.036-12.454,13.636C467.2,381.947,420.628,405.4,371.273,408.132c-41.6,2.3-83.622-10.149-118.266-32.3a223.3,223.3,0,0,1-62.254-60.215c-16.679-23.8-31.9-51.721-38.216-79.678C147.231,212.462,147.855,185.937,157.233,164.412Z" transform="translate(-149.196 -122.913)" fill="#ffd3a3"/>
      </g>
      <g id="Group_10429" data-name="Group 10429" transform="translate(18.652 12.42)">
        <path id="Path_2352" data-name="Path 2352" d="M119.936,310.441c-5.022-25.209-1.58-52.795,12.491-74.646,16.433-25.519,46.874-40.292,68.528-60.032C236.546,143.32,270.367,76.117,326.613,71.17c54.053-4.752,74.9,51.948,116.941,74.814,33.429,18.181,72.02,22.481,104.413,43.077,20.8,13.227,37.2,35.531,44.719,60.84s6.085,53.332-3.92,76.439c-15.792,36.477-50.914,57.842-87,64.21s-73.518-.174-110.141-7.376-73.727-15.109-110.241-11.444c-29.31,2.943-56.832,16.689-86.836,14.516C154.772,383.364,127.63,349.068,119.936,310.441Z" transform="translate(-117.755 -70.888)" fill="#fff"/>
      </g>
      <g id="Group_10447" data-name="Group 10447" transform="translate(18.652 12.42)">
        <g id="Group_10446" data-name="Group 10446" clip-path="url(#clip-path)">
          <g id="Group_10445" data-name="Group 10445" transform="translate(-3.598 214.41)">
            <g id="Group_10430" data-name="Group 10430">
              <rect id="Rectangle_1084" data-name="Rectangle 1084" width="486.892" height="134.373" fill="#ffd3a3"/>
            </g>
            <g id="Group_10444" data-name="Group 10444">
              <g id="Group_10443" data-name="Group 10443" clip-path="url(#clip-path-2)">
                <g id="Group_10442" data-name="Group 10442" transform="translate(-25.654 5.565)">
                  <g id="Group_10431" data-name="Group 10431" transform="translate(16.927)">
                    <path id="Path_2353" data-name="Path 2353" d="M150.313,324c-15.641,0-31.206-1.835-45.777-3.551l.218-1.853c28.237,3.329,60.242,7.1,89.006-3.024,2.406-.847,4.842-1.81,7.2-2.741,6.725-2.659,13.68-5.408,21.037-5.925,9.819-.688,19.276,2.63,28.421,5.841,3.622,1.271,7.367,2.585,11.064,3.624,20.052,5.632,41.423,3.85,62.092,2.128,8.865-.738,18.031-1.5,27-1.679,13.587-.268,27.356.819,40.67,1.869,14.085,1.11,28.65,2.259,42.971,1.8,7.81-.252,15.738-.989,23.405-1.7,6.92-.644,14.076-1.31,21.146-1.62,16.213-.711,32.768.406,48.777,1.488,25.527,1.723,51.924,3.506,77.118-2.2l.412,1.819c-25.46,5.764-51.995,3.972-77.656,2.24-15.958-1.078-32.46-2.191-48.569-1.485-7.025.308-14.157.972-21.055,1.613-7.695.716-15.652,1.456-23.519,1.71-14.425.464-29.042-.688-43.177-1.8-13.27-1.046-26.991-2.128-40.486-1.863-8.914.175-18.051.937-26.887,1.673-20.833,1.736-42.375,3.532-62.751-2.191-3.755-1.055-7.528-2.378-11.177-3.66-8.968-3.149-18.24-6.4-27.673-5.741-7.071.5-13.89,3.192-20.483,5.8-2.372.938-4.825,1.907-7.264,2.765C180.154,322.342,165.2,324,150.313,324Z" transform="translate(-104.536 -306.819)" fill="#f9bf87"/>
                  </g>
                  <g id="Group_10432" data-name="Group 10432" transform="translate(18.672 14.026)">
                    <path id="Path_2354" data-name="Path 2354" d="M558.756,340.326c-4.337,0-8.924-.131-13.834-.391-6.446-.34-13-.858-19.336-1.358-16.809-1.329-34.19-2.7-51.153-.878-2.358.254-4.76.573-7.083.884-6.467.863-13.153,1.757-19.8,1.333a101.559,101.559,0,0,1-13.824-2.167c-3.718-.761-7.564-1.548-11.375-1.949-10.143-1.067-20.513.531-30.544,2.076-9.851,1.518-20.037,3.087-30.124,2.182a125.5,125.5,0,0,1-15.715-2.776,109.54,109.54,0,0,0-17.4-2.877c-8.651-.48-17.493,1.142-26.045,2.71-11.109,2.037-22.6,4.144-33.8,1.671-6.5-1.436-12.625-4.371-18.548-7.209-7.178-3.44-14.6-7-22.519-7.712-9.037-.812-18.014,2.117-26.7,4.953-2.819.92-5.732,1.872-8.613,2.684-28.291,7.981-58.915,3.813-85.934.138l.252-1.848c26.838,3.652,57.258,7.791,85.176-.085,2.844-.8,5.741-1.748,8.541-2.662,8.861-2.894,18.024-5.885,27.443-5.038,8.252.744,15.83,4.376,23.157,7.888,5.827,2.792,11.852,5.68,18.144,7.068,10.839,2.392,22.137.321,33.064-1.683,8.658-1.589,17.613-3.231,26.485-2.738a111.076,111.076,0,0,1,17.7,2.918,123.9,123.9,0,0,0,15.479,2.739c9.863.886,19.933-.667,29.673-2.168,10.148-1.563,20.64-3.179,31.023-2.088,3.9.41,7.792,1.206,11.554,1.976a100.179,100.179,0,0,0,13.568,2.133c6.465.411,13.061-.469,19.438-1.32,2.336-.312,4.749-.634,7.131-.89,17.137-1.841,34.606-.462,51.5.874,6.325.5,12.866,1.017,19.287,1.356,20.276,1.07,46.385.78,68.486-11.07l.881,1.643c-9.758,5.232-20.8,8.614-33.768,10.34A164.591,164.591,0,0,1,558.756,340.326Z" transform="translate(-106.407 -321.862)" fill="#f9bf87"/>
                  </g>
                  <g id="Group_10433" data-name="Group 10433" transform="translate(129.695 28.124)">
                    <path id="Path_2355" data-name="Path 2355" d="M233.5,347.136l-.546,0a15.1,15.1,0,0,1-4.086-.465h0c-1.992-.582-3.219-1.868-3.368-3.53-.176-1.973,1.226-4.113,3.41-5.2,3.242-1.62,8.229-.809,11.871-.218.346.056.678.11.992.159,1.866.292,3.934.726,4.841,2.213a3.209,3.209,0,0,1-.532,3.743A7.4,7.4,0,0,1,243.06,346a15.964,15.964,0,0,1-4.573.922C236.837,347.064,235.162,347.136,233.5,347.136Zm-4.109-2.257a13.517,13.517,0,0,0,3.58.39c1.783.019,3.585-.052,5.355-.207a14.364,14.364,0,0,0,4.039-.793,5.632,5.632,0,0,0,2.263-1.606c.183-.228.752-1.016.394-1.6-.533-.873-2.562-1.189-3.537-1.342q-.477-.074-1-.16c-3.2-.52-8.034-1.305-10.738.046a3.878,3.878,0,0,0-2.386,3.37c.1,1.113,1.161,1.651,2.033,1.907Z" transform="translate(-225.483 -336.983)" fill="#f9bf87"/>
                  </g>
                  <g id="Group_10434" data-name="Group 10434" transform="translate(0 32.683)">
                    <path id="Path_2356" data-name="Path 2356" d="M226.567,368.23a41.9,41.9,0,0,1-12.435-1.8c-5.288-1.631-10.136-4.413-14.824-7.1-3-1.723-6.109-3.506-9.28-4.952-16.275-7.424-34.894-6.512-52.9-5.629-17.079.837-34.739,1.7-50.747-4.391l.664-1.743c15.642,5.953,33.1,5.1,49.992,4.27,18.229-.893,37.078-1.816,53.765,5.8,3.25,1.482,6.394,3.286,9.434,5.031,4.6,2.639,9.355,5.369,14.445,6.938,14.144,4.362,28.228-.225,43.139-5.081,9.412-3.066,19.145-6.235,28.933-6.966,10.209-.762,20.418,1.165,30.293,3.026,8.253,1.556,16.788,3.165,25.235,3.18h.116c8.314,0,16.726-1.537,24.863-3.024,10.1-1.846,20.545-3.754,30.957-2.765a114.159,114.159,0,0,1,12.473,2.128,102.25,102.25,0,0,0,13.448,2.195c9.744.7,19.565-1.467,29.062-3.564,4.328-.956,8.8-1.945,13.24-2.657,18.992-3.053,38.51-1.253,57.384.488,5.258.485,10.694.986,16.025,1.373,21.349,1.55,48.7,1.688,70.892-11.1l.931,1.616c-22.629,13.046-50.343,12.918-71.959,11.349-5.349-.389-10.794-.89-16.061-1.376-18.758-1.73-38.157-3.519-56.917-.5-4.382.7-8.831,1.687-13.133,2.637-8.35,1.844-16.951,3.743-25.619,3.743-1.326,0-2.652-.044-3.979-.14a103.791,103.791,0,0,1-13.695-2.229,112.417,112.417,0,0,0-12.268-2.1c-10.154-.965-20.469.92-30.445,2.743-8.218,1.5-16.716,3.054-25.2,3.054h-.118c-8.62-.015-17.24-1.64-25.578-3.212-9.756-1.84-19.844-3.743-29.808-3-9.563.714-19.188,3.848-28.5,6.879C247.942,364.742,237.231,368.229,226.567,368.23Z" transform="translate(-86.381 -341.873)" fill="#f9bf87"/>
                  </g>
                  <g id="Group_10435" data-name="Group 10435" transform="translate(15.126 95.377)">
                    <path id="Path_2357" data-name="Path 2357" d="M483.038,426.3c-8.874,0-17.452-3.012-25.774-5.934-3.621-1.271-7.366-2.585-11.064-3.624-20.052-5.632-41.423-3.85-62.092-2.128-8.865.738-18.031,1.5-27,1.679-13.587.268-27.357-.82-40.671-1.869-14.084-1.11-28.649-2.259-42.97-1.8-7.81.252-15.738.989-23.4,1.7-6.92.644-14.076,1.31-21.147,1.62-16.214.711-32.768-.407-48.777-1.488-25.527-1.723-51.924-3.506-77.118,2.2l-.412-1.819c25.46-5.764,52-3.973,77.656-2.24,15.958,1.078,32.46,2.191,48.569,1.485,7.025-.308,14.158-.972,21.057-1.613,7.694-.716,15.651-1.456,23.517-1.71,14.424-.464,29.041.688,43.176,1.8,13.27,1.047,26.994,2.129,40.487,1.864,8.914-.175,18.051-.937,26.887-1.673,20.833-1.736,42.375-3.531,62.751,2.191,3.755,1.055,7.528,2.378,11.177,3.66,8.968,3.149,18.241,6.4,27.673,5.741,7.071-.5,13.89-3.192,20.483-5.8,2.372-.937,4.825-1.907,7.264-2.765,29.173-10.267,61.405-6.469,89.843-3.118l-.218,1.853c-28.236-3.329-60.242-7.1-89.006,3.024-2.406.847-4.842,1.81-7.2,2.741-6.725,2.659-13.68,5.408-21.038,5.925Q484.357,426.3,483.038,426.3Z" transform="translate(-102.604 -409.114)" fill="#f9bf87"/>
                  </g>
                  <g id="Group_10436" data-name="Group 10436" transform="translate(5.944 80.073)">
                    <path id="Path_2358" data-name="Path 2358" d="M482.636,411.163c-1.1,0-2.2-.047-3.311-.146-8.252-.743-15.83-4.375-23.157-7.887-5.827-2.792-11.852-5.68-18.144-7.069-10.839-2.392-22.137-.32-33.064,1.684-8.658,1.589-17.611,3.231-26.484,2.738a110.963,110.963,0,0,1-17.7-2.918,123.914,123.914,0,0,0-15.479-2.739c-9.861-.885-19.933.667-29.673,2.168-10.148,1.563-20.641,3.179-31.023,2.088-3.9-.41-7.792-1.206-11.554-1.976a100.007,100.007,0,0,0-13.568-2.133c-6.466-.411-13.061.469-19.439,1.32-2.335.312-4.749.634-7.13.89-17.137,1.841-34.606.462-51.5-.874-6.325-.5-12.866-1.017-19.287-1.356-20.275-1.07-46.384-.78-68.486,11.07l-.882-1.643c9.758-5.232,20.8-8.615,33.769-10.34,10.405-1.385,21.749-1.687,35.7-.949,6.445.34,13,.858,19.335,1.358,16.81,1.328,34.19,2.7,51.154.878,2.358-.254,4.76-.573,7.083-.884,6.467-.863,13.153-1.757,19.8-1.333a101.533,101.533,0,0,1,13.822,2.167c3.719.761,7.565,1.548,11.376,1.949,10.142,1.068,20.514-.531,30.544-2.076,9.85-1.518,20.037-3.086,30.124-2.182a125.345,125.345,0,0,1,15.715,2.776,109.647,109.647,0,0,0,17.4,2.877c8.651.481,17.494-1.142,26.046-2.71,11.108-2.037,22.6-4.143,33.8-1.671,6.5,1.436,12.625,4.371,18.548,7.209,7.179,3.44,14.6,7,22.519,7.712,9.036.814,18.014-2.117,26.7-4.953,2.819-.92,5.733-1.872,8.613-2.684,28.291-7.981,58.915-3.813,85.934-.138l-.252,1.848c-26.838-3.651-57.259-7.791-85.176.085-2.844.8-5.741,1.748-8.541,2.662C498.948,408.534,490.893,411.163,482.636,411.163Z" transform="translate(-92.756 -392.7)" fill="#f9bf87"/>
                  </g>
                  <g id="Group_10437" data-name="Group 10437" transform="translate(376.539 74.285)">
                    <path id="Path_2359" data-name="Path 2359" d="M503.324,396.646a43.852,43.852,0,0,1-6.869-.735c-.346-.056-.678-.11-.992-.159-1.867-.292-3.934-.726-4.841-2.213a3.207,3.207,0,0,1,.532-3.743,7.393,7.393,0,0,1,3.018-2.166,15.97,15.97,0,0,1,4.574-.922c1.83-.16,3.693-.233,5.535-.214a15.106,15.106,0,0,1,4.087.465h0c1.991.582,3.219,1.868,3.367,3.53.177,1.973-1.225,4.113-3.41,5.2A11.307,11.307,0,0,1,503.324,396.646Zm.411-8.29c-1.61,0-3.23.071-4.826.21a14.36,14.36,0,0,0-4.038.793,5.618,5.618,0,0,0-2.263,1.606c-.184.227-.753,1.016-.394,1.6.532.873,2.561,1.189,3.536,1.342.318.049.654.1,1,.16,3.2.519,8.035,1.3,10.738-.046a3.878,3.878,0,0,0,2.386-3.369c-.1-1.114-1.161-1.652-2.034-1.908h0a13.518,13.518,0,0,0-3.58-.39Z" transform="translate(-490.231 -386.492)" fill="#f9bf87"/>
                  </g>
                  <g id="Group_10438" data-name="Group 10438" transform="translate(2.464 53.522)">
                    <path id="Path_2360" data-name="Path 2360" d="M89.955,390.58l-.931-1.616c22.629-13.046,50.343-12.917,71.959-11.349,5.348.389,10.794.89,16.06,1.376,18.759,1.73,38.157,3.52,56.917.5,4.382-.7,8.831-1.687,13.133-2.637,9.629-2.127,19.584-4.327,29.6-3.6a103.8,103.8,0,0,1,13.695,2.229,112.408,112.408,0,0,0,12.268,2.1c10.154.965,20.469-.92,30.445-2.743,8.218-1.5,16.716-3.054,25.2-3.054h.118c8.619.015,17.241,1.64,25.577,3.212,9.757,1.84,19.846,3.742,29.808,3,9.564-.714,19.188-3.848,28.5-6.879,14.531-4.732,29.557-9.625,44.265-5.089,5.288,1.631,10.136,4.412,14.824,7.1,3,1.723,6.109,3.506,9.279,4.952,16.275,7.424,34.894,6.512,52.9,5.629,17.078-.836,34.739-1.7,50.746,4.391l-.663,1.743c-15.642-5.954-33.1-5.1-49.993-4.27-18.228.893-37.077,1.817-53.765-5.795-3.249-1.482-6.393-3.287-9.434-5.032-4.6-2.64-9.354-5.369-14.445-6.938-14.143-4.362-28.228.225-43.138,5.08-9.412,3.065-19.145,6.235-28.934,6.965-10.207.763-20.417-1.163-30.292-3.025-8.254-1.556-16.788-3.165-25.236-3.18H358.3c-8.314,0-16.727,1.537-24.864,3.024-10.1,1.845-20.545,3.754-30.956,2.765A113.734,113.734,0,0,1,290,377.309a102.4,102.4,0,0,0-13.447-2.194c-9.745-.7-19.565,1.467-29.062,3.564-4.329.956-8.8,1.945-13.24,2.657-18.992,3.053-38.51,1.253-57.384-.488-5.258-.485-10.694-.986-16.025-1.373C139.5,377.926,112.144,377.788,89.955,390.58Z" transform="translate(-89.024 -364.223)" fill="#f9bf87"/>
                  </g>
                  <g id="Group_10439" data-name="Group 10439" transform="translate(6.367 48.456)">
                    <path id="Path_2361" data-name="Path 2361" d="M107.688,366.627q-7.245,0-14.478-.661l.17-1.857a157.036,157.036,0,0,0,41.523-1.723c2.034-.358,4.1-.765,6.1-1.157a121.277,121.277,0,0,1,16.33-2.438l.107,1.862a119.7,119.7,0,0,0-16.078,2.406c-2.008.394-4.085.8-6.137,1.164A158.844,158.844,0,0,1,107.688,366.627Z" transform="translate(-93.21 -358.79)" fill="#f9bf87"/>
                  </g>
                  <g id="Group_10440" data-name="Group 10440" transform="translate(390.747 54.783)">
                    <path id="Path_2362" data-name="Path 2362" d="M525.219,372.971a181.393,181.393,0,0,1-19.749-1.079l.2-1.854a179.51,179.51,0,0,0,46.262-.931c2.358-.355,4.755-.765,7.074-1.161a132.272,132.272,0,0,1,19.767-2.359c8.311-.154,16.62,1.279,24.652,2.661,4.237.729,8.617,1.483,12.934,1.992a122.3,122.3,0,0,0,33.912-.732l.3,1.841a124.178,124.178,0,0,1-34.429.742c-4.366-.515-8.772-1.273-13.032-2.006-7.947-1.367-16.162-2.778-24.3-2.634a130.9,130.9,0,0,0-19.487,2.332c-2.328.4-4.735.809-7.11,1.166A181.267,181.267,0,0,1,525.219,372.971Z" transform="translate(-505.47 -365.576)" fill="#f9bf87"/>
                  </g>
                  <g id="Group_10441" data-name="Group 10441" transform="translate(8.218 109.141)">
                    <path id="Path_2363" data-name="Path 2363" d="M110.243,435.1a55.549,55.549,0,0,1-15.048-1.946l.5-1.8c14.731,4.119,29.539.794,45.217-2.725,9.006-2.021,18.319-4.112,27.544-4.623,10.586-.585,21.248.92,31.559,2.377,2.5.352,5.074.716,7.607,1.044a328.489,328.489,0,0,0,69.123,1.6c5.366-.444,10.821-1.03,16.1-1.6,12.112-1.3,24.637-2.649,37.039-2.38,6.58.143,13.233.743,19.668,1.324A232.62,232.62,0,0,0,373.6,427.7c6.82-.093,13.751-.8,20.453-1.487,8.339-.852,16.965-1.734,25.505-1.451,9.823.325,19.618,2.192,29.09,4,7.254,1.383,14.755,2.812,22.193,3.532,19.694,1.9,39.907-1.041,59.456-3.888,24.357-3.549,49.544-7.219,73.78-1.464l-.431,1.814c-23.887-5.672-48.9-2.029-73.079,1.495-19.66,2.864-39.989,5.825-59.906,3.9-7.523-.728-15.067-2.166-22.363-3.556-9.4-1.792-19.124-3.645-28.8-3.965-8.417-.281-16.977.6-25.254,1.442-6.742.689-13.715,1.4-20.617,1.5a235.4,235.4,0,0,1-24.237-1.344c-6.4-.578-13.026-1.176-19.542-1.317-12.282-.266-24.746,1.073-36.8,2.369-5.287.569-10.755,1.157-16.143,1.6a330.215,330.215,0,0,1-69.517-1.6c-2.544-.329-5.128-.694-7.629-1.047-10.222-1.443-20.792-2.935-31.194-2.36-9.071.5-18.307,2.574-27.239,4.58C131.089,432.746,120.621,435.1,110.243,435.1Z" transform="translate(-95.195 -423.876)" fill="#f9bf87"/>
                  </g>
                </g>
              </g>
            </g>
          </g>
        </g>
      </g>
    </g>
    <g id="Group_10482" data-name="Group 10482" transform="translate(213.386 70.412)">
      <g id="Group_10463" data-name="Group 10463" transform="translate(74.564)">
        <g id="Group_10449" data-name="Group 10449" transform="translate(67.412 1.893)">
          <path id="Path_2365" data-name="Path 2365" d="M395.021,86.564c-3.076,12.79-22.579,8.883-20.867-3.913C376.155,67.687,398.484,72.164,395.021,86.564Z" transform="translate(-374.047 -73.374)"/>
        </g>
        <g id="Group_10450" data-name="Group 10450" transform="translate(0 27.517)">
          <path id="Path_2366" data-name="Path 2366" d="M343.748,168.67c-5.388,3.4-10.881,6.839-17.108,8.624s-13.415,1.687-18.764-1.689-7.989-10.549-4.655-15.715c2.713-4.2,8.761-6.744,9.3-11.6.462-4.146-3.486-7.6-4.2-11.71-.9-5.2,3.607-10,8.62-12.586s10.774-3.826,15.58-6.726,8.6-8.443,6.538-13.346a79.568,79.568,0,0,0,36.452-3.068c-.65,4.2,6.228,9.242,10.531,10.718s9.039,1.362,13.581,2.02,9.354,2.427,11.392,6.211c1.514,2.811,1.2,6.211,2.562,9.089,1.958,4.152,6.846,6.31,10.34,9.492,8.092,7.369,7.194,21.321-1.794,27.874s-26.464,7.434-32.381-1.521" transform="translate(-301.745 -100.857)"/>
        </g>
        <g id="Group_10451" data-name="Group 10451" transform="translate(38.333 44.947)">
          <path id="Path_2367" data-name="Path 2367" d="M385.805,163.961l-4.458,15.08-38.488-3.962,5.086-11.631L352.31,135.9l27.384-16.347Z" transform="translate(-342.859 -119.551)" fill="#ffb78f"/>
        </g>
        <g id="Group_10452" data-name="Group 10452" transform="translate(44.925 57.218)">
          <path id="Path_2368" data-name="Path 2368" d="M368.315,137.314a32.617,32.617,0,0,1-18.386,17.517l2.729-17.211,8.168-4.909C363.338,134.251,365.749,135.766,368.315,137.314Z" transform="translate(-349.929 -132.712)"/>
        </g>
        <g id="Group_10453" data-name="Group 10453" transform="translate(28.289)">
          <path id="Path_2369" data-name="Path 2369" d="M385.905,105.312c0,.417-.019.707-.024.852a.837.837,0,0,1-.007.1l-.738,1.586-13.8,29.812s-16.81,15-31.927-.341c-8.385-8.53-9.442-29.6-3.806-45.655q.264-.752.543-1.48c0-.009.007-.024.014-.038l.085-.218c.036-.1.076-.206.121-.308a1.149,1.149,0,0,0,.048-.126.033.033,0,0,1,.009-.024c.177-.438.361-.876.55-1.3.061-.135.123-.269.184-.4.053-.111.092-.223.145-.329.126-.291.261-.576.4-.86.168-.356.342-.7.521-1.051.077-.15.152-.3.232-.448,2.76-5.223,6.4-9.416,10.89-11.743a18.065,18.065,0,0,1,3.2-1.283,15.884,15.884,0,0,1,1.554-.382c.424-.08.857-.15,1.29-.2a18.538,18.538,0,0,1,3.513-.077c.114.014.232.021.344.036,10.331.818,16.667,5.5,20.565,11.156,4.5,6.514,5.718,14.351,6.021,19.169,0,.061.009.121.009.182s.01.111.01.17a1.8,1.8,0,0,1,.014.2l.007.143c.009.206.017.4.024.6,0,.17.012.327.015.487v.223l0,.45C385.913,104.634,385.916,105.005,385.905,105.312Z" transform="translate(-332.086 -71.344)" fill="#ffb78f"/>
        </g>
        <g id="Group_10454" data-name="Group 10454" transform="translate(41.2 33.084)">
          <path id="Path_2370" data-name="Path 2370" d="M349.286,123.189a3.612,3.612,0,0,1-3.312-4.148l1.862-12.214,1.843.281-1.862,12.214a1.747,1.747,0,0,0,1.6,2.007Z" transform="translate(-345.933 -106.827)"/>
        </g>
        <g id="Group_10455" data-name="Group 10455" transform="translate(53.1 33.462)">
          <path id="Path_2371" data-name="Path 2371" d="M358.7,108.836c-.067.932.418,1.728,1.084,1.775s1.261-.669,1.328-1.6-.418-1.728-1.084-1.775S358.77,107.9,358.7,108.836Z" transform="translate(-358.696 -107.233)"/>
        </g>
        <g id="Group_10456" data-name="Group 10456" transform="translate(34.767 32.139)">
          <path id="Path_2372" data-name="Path 2372" d="M339.041,107.418c-.067.932.419,1.728,1.084,1.775s1.261-.669,1.328-1.6-.418-1.728-1.083-1.776S339.109,106.485,339.041,107.418Z" transform="translate(-339.034 -105.814)"/>
        </g>
        <g id="Group_10457" data-name="Group 10457" transform="translate(50.703 26.635)">
          <path id="Path_2373" data-name="Path 2373" d="M363.256,100.746a5.057,5.057,0,0,1,1.415.669,1.107,1.107,0,0,1,.562,1.05c-.159.578-1.144.751-2.011.759a15.582,15.582,0,0,1-5.583-1.013c-.627-.239-1.3-.577-1.463-1.043-.39-1.084,1.58-1.266,2.377-1.257A15.843,15.843,0,0,1,363.256,100.746Z" transform="translate(-356.126 -99.911)"/>
        </g>
        <g id="Group_10458" data-name="Group 10458" transform="translate(32.419 25.387)">
          <path id="Path_2374" data-name="Path 2374" d="M342.7,98.758a4.151,4.151,0,0,1,1.3.387.958.958,0,0,1,.6.862c-.076.545-.914.851-1.666.99a13.016,13.016,0,0,1-4.963-.064c-.57-.12-1.188-.324-1.384-.719-.456-.919,1.237-1.383,1.931-1.5A13.277,13.277,0,0,1,342.7,98.758Z" transform="translate(-336.516 -98.572)"/>
        </g>
        <g id="Group_10459" data-name="Group 10459" transform="translate(46.563 50.252)">
          <path id="Path_2375" data-name="Path 2375" d="M358.788,125.241a3.576,3.576,0,0,1-7.1.849" transform="translate(-351.686 -125.241)" fill="#fff"/>
        </g>
        <g id="Group_10460" data-name="Group 10460" transform="translate(33.173)">
          <path id="Path_2376" data-name="Path 2376" d="M386.226,102.448a10.607,10.607,0,0,1-13.464-5.465c-1.794-3.891-1.31-8.927-4.377-11.917-2.149-2.094-5.418-2.5-7.965-4.089a9.679,9.679,0,0,1-4.143-5.968,7.88,7.88,0,0,1-3.893,3.571c-1.589.623-3.4.623-4.9,1.451-2.046,1.136-3,3.523-4.571,5.259a9.219,9.219,0,0,1-5.592,2.876c.061-.135.123-.269.184-.4.053-.111.092-.223.145-.329.126-.291.261-.576.4-.86.168-.356.342-.7.521-1.051.077-.15.152-.3.232-.448,2.76-5.223,6.4-9.416,10.89-11.743a18.065,18.065,0,0,1,3.2-1.283,15.884,15.884,0,0,1,1.554-.382c.424-.08.857-.15,1.29-.2a18.538,18.538,0,0,1,3.513-.077c.114.014.232.021.344.036,10.331.818,16.667,5.5,20.565,11.156,4.5,6.514,5.718,14.351,6.021,19.169,0,.061.009.121.009.182s.01.111.01.17a1.8,1.8,0,0,1,.014.2Z" transform="translate(-337.324 -71.344)"/>
        </g>
        <g id="Group_10461" data-name="Group 10461" transform="translate(74.054 29.899)">
          <path id="Path_2377" data-name="Path 2377" d="M381.733,106.3a6.14,6.14,0,0,1,5.489-2.888,8.671,8.671,0,0,1,5.76,2.7,10.9,10.9,0,0,1-11.811,17.774" transform="translate(-381.171 -103.412)" fill="#ffb78f"/>
        </g>
        <g id="Group_10462" data-name="Group 10462" transform="translate(77.459 35.525)">
          <path id="Path_2378" data-name="Path 2378" d="M389.515,118.154l-1.864-.064a9.386,9.386,0,0,0-2.828-6.977l.635-1.6,4.839-.062.023,1.865-2.855.036A11.307,11.307,0,0,1,389.515,118.154Z" transform="translate(-384.823 -109.446)"/>
        </g>
      </g>
      <g id="Group_10464" data-name="Group 10464" transform="translate(12.606 88.844)">
        <path id="Path_2379" data-name="Path 2379" d="M443.271,264.172,411.338,236.23l-14.214,8.121L304.35,291.773V274.76a32.4,32.4,0,0,1-10.76,5.525,28.171,28.171,0,0,1-7.936,1.077c-36.559-.241-50.36-63.675-50.36-63.675l29.781-22.275,21.306,23.728s9.048-18.139,16.694-31.669c3.9-6.905,7.433-12.609,9.212-14.091,2.888-2.409,9.924-4.089,16.268-5.174,3.431-.584,6.661-1,8.922-1.249,1.961-.221,3.193-.324,3.193-.324,7.748,23.485,37.862.513,37.862.513s1.208.047,3.155.156c2.3.131,5.648.346,9.251.672,7.162.652,15.35,1.744,18.437,3.47C417.606,176.042,448.6,230.277,443.271,264.172Z" transform="translate(-235.294 -166.632)" fill="#bfd6b0"/>
      </g>
      <g id="Group_10465" data-name="Group 10465" transform="translate(81.609 89.169)">
        <path id="Path_2380" data-name="Path 2380" d="M410.748,291.8H309.3l.053-17.013-.053-37.947s12.832-11.621,20.1-35.591l4.162-33.017c3.431-.584,6.661-1,8.922-1.249l-3.641,34.267h43.822l4.029-33.923c2.3.131,5.648.346,9.251.672l-3.155,33.25,5.128,18.884,4.213,24.244Z" transform="translate(-309.302 -166.98)" fill="#b74852"/>
      </g>
      <g id="Group_10466" data-name="Group 10466" transform="translate(134.39 142.319)">
        <path id="Path_2381" data-name="Path 2381" d="M447.62,279.706c-4.186,6.552-10.7,11.791-17.965,15.945H373.494l-7.583-21.306,32.928-26.632,2.905-23.728,19.651,23.868Z" transform="translate(-365.911 -223.986)" fill="#b74852"/>
      </g>
      <g id="Group_10467" data-name="Group 10467" transform="translate(70.903 159.026)">
        <path id="Path_2382" data-name="Path 2382" d="M308.579,279.851a32.4,32.4,0,0,1-10.76,5.525L308.525,241.9Z" transform="translate(-297.819 -241.904)" fill="#a4c092"/>
      </g>
      <g id="Group_10468" data-name="Group 10468" transform="translate(63.693 109.683)">
        <path id="Path_2383" data-name="Path 2383" d="M306.78,188.982l-12.094,36.653-4.6-4.984S299.134,202.512,306.78,188.982Z" transform="translate(-290.086 -188.982)" fill="#a4c092"/>
      </g>
      <g id="Group_10469" data-name="Group 10469" transform="translate(112.457 135.54)">
        <path id="Path_2384" data-name="Path 2384" d="M342.531,216.715h38.5s-.726,37.528-21.064,37.528S342.531,216.715,342.531,216.715Z" transform="translate(-342.387 -216.715)" fill="#d66c76"/>
      </g>
      <g id="Group_10470" data-name="Group 10470" transform="translate(47.231 187.982)">
        <path id="Path_2385" data-name="Path 2385" d="M273.944,285.131l-1.514-1.09a37.219,37.219,0,0,1,5.374-5.748c4.357-3.765,8.765-5.6,12.752-5.3,5.122.382,9.554,4.14,13.172,11.168l-1.658.853c-3.3-6.412-7.22-9.831-11.653-10.162C281.907,274.222,274.022,285.022,273.944,285.131Z" transform="translate(-272.43 -272.961)"/>
      </g>
      <g id="Group_10471" data-name="Group 10471" transform="translate(112.568 143.747)">
        <rect id="Rectangle_1086" data-name="Rectangle 1086" width="37.676" height="1.865"/>
      </g>
      <g id="Group_10472" data-name="Group 10472" transform="translate(103.92 117.66)">
        <path id="Path_2386" data-name="Path 2386" d="M336.1,203.277a2.869,2.869,0,1,1,2.87-2.869A2.872,2.872,0,0,1,336.1,203.277Zm0-3.874a1,1,0,1,0,1.005,1.005A1.005,1.005,0,0,0,336.1,199.4Z" transform="translate(-333.231 -197.538)"/>
      </g>
      <g id="Group_10473" data-name="Group 10473" transform="translate(157.185 117.66)">
        <path id="Path_2387" data-name="Path 2387" d="M393.229,203.277a2.869,2.869,0,1,1,2.869-2.869A2.872,2.872,0,0,1,393.229,203.277Zm0-3.874a1,1,0,1,0,1,1.005A1.005,1.005,0,0,0,393.229,199.4Z" transform="translate(-390.36 -197.538)"/>
      </g>
      <g id="Group_10476" data-name="Group 10476" transform="translate(0 90.338)">
        <g id="Group_10474" data-name="Group 10474" transform="translate(0 6.056)">
          <path id="Path_2388" data-name="Path 2388" d="M245.1,174.729l15.553,8.419L242.6,222.8l-20.826-11.273Z" transform="translate(-221.773 -174.729)" fill="#e4eff1"/>
        </g>
        <g id="Group_10475" data-name="Group 10475" transform="translate(22.008)">
          <path id="Path_2389" data-name="Path 2389" d="M245.378,173.576a10.192,10.192,0,1,1,17.926,9.7" transform="translate(-245.378 -168.234)" fill="#701d2e"/>
        </g>
      </g>
      <g id="Group_10477" data-name="Group 10477" transform="translate(28.182 106.556)">
        <path id="Path_2390" data-name="Path 2390" d="M256.519,197.17s-2.905-9.432,1.7-11.368,5.074,13.077,5.074,13.077L252,207.419" transform="translate(-252 -185.629)" fill="#ffb78f"/>
      </g>
      <g id="Group_10481" data-name="Group 10481" transform="translate(4.064 103.439)">
        <g id="Group_10478" data-name="Group 10478">
          <path id="Path_2391" data-name="Path 2391" d="M246,198.016s1.5.986.277,2.909c-1.2,1.886-16.549,3.61-19.083,1.642-3.558-2.765,2.449-18.72,8.324-20.163,4.67-1.147,16.341,6.336,16.64,9.008.276,2.441-2.393,2.519-2.393,2.519a2.435,2.435,0,0,1,.278,2.909C249.047,198.372,246,198.016,246,198.016Z" transform="translate(-226.132 -182.286)" fill="#ffb78f"/>
        </g>
        <g id="Group_10479" data-name="Group 10479" transform="translate(11.621 6.279)">
          <path id="Path_2392" data-name="Path 2392" d="M250.132,195.189a43.043,43.043,0,0,0-11.536-4.348l.4-1.821a44.086,44.086,0,0,1,12.092,4.569Z" transform="translate(-238.596 -189.02)"/>
        </g>
        <g id="Group_10480" data-name="Group 10480" transform="translate(9.85 11.925)">
          <path id="Path_2393" data-name="Path 2393" d="M246.385,199.753A71.265,71.265,0,0,0,236.7,196.9l.369-1.827a71.872,71.872,0,0,1,9.987,2.935Z" transform="translate(-236.696 -195.076)"/>
        </g>
      </g>
    </g>
    <g id="Group_10522" data-name="Group 10522" transform="translate(183.865 262.992)">
      <g id="Group_10491" data-name="Group 10491" transform="translate(91.64 35.783)">
        <g id="Group_10483" data-name="Group 10483" transform="translate(0 16.25)">
          <path id="Path_2394" data-name="Path 2394" d="M381.612,333.7c0,27.078-20.866,49.029-46.606,49.029S288.4,360.777,288.4,333.7" transform="translate(-288.398 -333.699)" fill="#c8956e"/>
        </g>
        <g id="Group_10484" data-name="Group 10484" transform="translate(0 4.75)">
          <path id="Path_2395" data-name="Path 2395" d="M381.612,332.865c0,2.2-2.5,4.252-6.837,6a62,62,0,0,1-11.217,3.093c-1.007.193-2.05.378-3.123.549-1.871.3-3.835.569-5.878.8-3.657.419-7.571.724-11.666.9-.607.027-1.22.048-1.835.068-.261.007-.526.017-.789.021q-2.59.073-5.261.076c-14.091,0-26.725-1.545-35.272-3.983-7.063-2.017-11.336-4.643-11.336-7.518,0-3.627,6.806-6.861,17.44-8.97,2.719-.54,5.685-1,8.854-1.382a172.369,172.369,0,0,1,20.314-1.148C360.744,321.365,381.612,326.514,381.612,332.865Z" transform="translate(-288.398 -321.365)" fill="#b37d62"/>
        </g>
        <g id="Group_10485" data-name="Group 10485" transform="translate(6.953)">
          <path id="Path_2396" data-name="Path 2396" d="M341.56,343.924q-2.971.1-6.05.1c-12.973,0-24.711-1.31-33.161-3.419-.728-.184-1.433-.37-2.111-.564a17.49,17.49,0,0,1-2.312-1.992,7.208,7.208,0,0,1-1.941-3.055,3.333,3.333,0,0,1,.86-3.36c2.108-1.8,5.6.569,8.057-.7a3.3,3.3,0,0,0,1.39-1.412,5.757,5.757,0,0,0,.581-3.061,18.931,18.931,0,0,0-.53-2.905,17.057,17.057,0,0,1-.4-2.181c-.177-1.719.247-3.683,1.7-4.612a2.974,2.974,0,0,1,.7-.329,4.806,4.806,0,0,1,4.857,1.8,13.537,13.537,0,0,1,2,3.937c.213.581.423,1.166.656,1.738.789,1.944,2.019,3.922,4.006,4.6,1.842.627,3.867-.029,5.622-.869s3.484-1.882,5.421-2.073,4.182.823,4.571,2.731c.368,1.791-.969,3.43-2.124,4.847s-2.261,3.339-1.435,4.97a4.322,4.322,0,0,0,3.416,1.915,19.449,19.449,0,0,1,3.232.508,4.773,4.773,0,0,1,.738.3A4.607,4.607,0,0,1,341.56,343.924Z" transform="translate(-295.856 -316.27)" fill="#bfd6b0"/>
        </g>
        <g id="Group_10486" data-name="Group 10486" transform="translate(66.098 15.161)">
          <path id="Path_2397" data-name="Path 2397" d="M379.569,339.617a62,62,0,0,1-11.217,3.093c-1.007.193-2.05.378-3.123.549-1.871.3-3.835.569-5.878.8a9.877,9.877,0,0,1-.061-1.119,10.39,10.39,0,0,1,3.535-7.818c.029-.027.058-.051.087-.077a10.416,10.416,0,0,1,16.658,4.57Z" transform="translate(-359.29 -332.531)" fill="#b0463d"/>
        </g>
        <g id="Group_10487" data-name="Group 10487" transform="translate(54.476 16.614)">
          <path id="Path_2398" data-name="Path 2398" d="M367.509,342.815c-1.007.193-2.05.378-3.123.549-1.871.3-3.835.569-5.878.8-3.657.419-7.571.724-11.666.9-.012-.186-.017-.372-.017-.561a10.418,10.418,0,0,1,15.157-9.271l.271.145A10.414,10.414,0,0,1,367.509,342.815Z" transform="translate(-346.825 -334.089)" fill="#da685e"/>
        </g>
        <g id="Group_10488" data-name="Group 10488" transform="translate(51.328 13.951)">
          <path id="Path_2399" data-name="Path 2399" d="M364.272,341.643a10.212,10.212,0,0,1-.115,1.528c-1.871.3-3.835.569-5.878.8-3.657.419-7.571.724-11.666.9-.607.027-1.22.048-1.835.068-.261.007-.526.017-.789.021a10.411,10.411,0,0,1,17.85-10c.065.073.126.147.185.223A10.367,10.367,0,0,1,364.272,341.643Z" transform="translate(-343.449 -331.233)" fill="#b0463d"/>
        </g>
        <g id="Group_10489" data-name="Group 10489" transform="translate(19.437)">
          <path id="Path_2400" data-name="Path 2400" d="M339.468,340.532c-2.438.632-4.951.849-7.062-.385a6.024,6.024,0,0,1-2.843-5.982c.194-1.24.729-2.688-.114-3.62a2.408,2.408,0,0,0-2.794-.222c-.9.44-1.641,1.165-2.542,1.607-2.547,1.254-5.734-.082-7.583-2.235s-2.729-4.946-3.787-7.58a15.574,15.574,0,0,0-3.5-5.687,4.806,4.806,0,0,1,4.857,1.8,13.537,13.537,0,0,1,2,3.937c.213.581.423,1.166.656,1.738.789,1.944,2.019,3.922,4.006,4.6,1.842.627,3.867-.029,5.622-.869s3.484-1.882,5.421-2.073,4.182.823,4.571,2.731c.368,1.791-.969,3.43-2.124,4.847s-2.261,3.339-1.435,4.97a4.322,4.322,0,0,0,3.416,1.915A19.449,19.449,0,0,1,339.468,340.532Z" transform="translate(-309.245 -316.27)" fill="#a4c092"/>
        </g>
        <g id="Group_10490" data-name="Group 10490" transform="translate(6.953 13.246)">
          <path id="Path_2401" data-name="Path 2401" d="M306.291,330.477a4.029,4.029,0,0,1-.255,1.55,4.145,4.145,0,0,1-2.946,2.537c-.617.133-1.261.124-1.882.252a2.134,2.134,0,0,0-1.537,1,2.646,2.646,0,0,0,.36,2.353,18.694,18.694,0,0,0,2.317,3.392c-.728-.184-1.433-.37-2.111-.564a17.49,17.49,0,0,1-2.312-1.992,7.208,7.208,0,0,1-1.941-3.055,3.333,3.333,0,0,1,.86-3.36c2.108-1.8,5.6.569,8.057-.7A3.3,3.3,0,0,0,306.291,330.477Z" transform="translate(-295.856 -330.477)" fill="#a4c092"/>
        </g>
      </g>
      <g id="Group_10494" data-name="Group 10494" transform="translate(44.496 64.936)">
        <g id="Group_10492" data-name="Group 10492">
          <path id="Path_2402" data-name="Path 2402" d="M239.392,354.335l25.625,18.482,4.391-6.087-25.627-18.482a3.752,3.752,0,0,0-5.238.848h0A3.752,3.752,0,0,0,239.392,354.335Z" transform="translate(-237.834 -347.538)" fill="#701d2e"/>
        </g>
        <g id="Group_10493" data-name="Group 10493" transform="translate(23.886 15.718)">
          <path id="Path_2403" data-name="Path 2403" d="M263.452,376.654,298.9,402.222s9.184,4.236,14.849-3.619L266.323,364.4" transform="translate(-263.452 -364.396)" fill="#c4d1d6"/>
        </g>
      </g>
      <g id="Group_10499" data-name="Group 10499">
        <g id="Group_10495" data-name="Group 10495" transform="translate(0 10.411)">
          <path id="Rectangle_1087" data-name="Rectangle 1087" d="M12.711,0h0A12.711,12.711,0,0,1,25.422,12.711v57.5a0,0,0,0,1,0,0H0a0,0,0,0,1,0,0v-57.5A12.711,12.711,0,0,1,12.711,0Z" fill="#e4eff1"/>
        </g>
        <g id="Group_10496" data-name="Group 10496" transform="translate(0 37.77)">
          <rect id="Rectangle_1088" data-name="Rectangle 1088" width="25.422" height="15.495" fill="#fff"/>
        </g>
        <g id="Group_10497" data-name="Group 10497" transform="translate(7.748 3.147)">
          <rect id="Rectangle_1089" data-name="Rectangle 1089" width="9.685" height="11.621" fill="#e4eff1"/>
        </g>
        <g id="Group_10498" data-name="Group 10498" transform="translate(6.053)">
          <rect id="Rectangle_1090" data-name="Rectangle 1090" width="13.316" height="5.811" fill="#701d2e"/>
        </g>
      </g>
      <g id="Group_10521" data-name="Group 10521" transform="translate(191.876 47.592)">
        <g id="Group_10503" data-name="Group 10503" transform="translate(0 1.414)">
          <g id="Group_10500" data-name="Group 10500" transform="translate(0 4.843)">
            <path id="Path_2404" data-name="Path 2404" d="M547.3,351.626H527.548a4.841,4.841,0,0,1-4.5-3.059l-5.117-12.92H415.273L395.9,384.554H537.3l-3.705-9.354a4.842,4.842,0,0,1,4.5-6.625h9.371a8.474,8.474,0,0,0,8.472-8.685A8.587,8.587,0,0,0,547.3,351.626ZM544.684,361.8c-2.206,0-4-.814-4-1.816s1.789-1.815,4-1.815,3.994.813,3.994,1.815S546.889,361.8,544.684,361.8Z" transform="translate(-395.904 -335.647)" fill="#c4d1d6"/>
          </g>
          <g id="Group_10501" data-name="Group 10501" transform="translate(0)">
            <path id="Path_2405" data-name="Path 2405" d="M547.3,346.433H527.548a4.842,4.842,0,0,1-4.5-3.059l-5.117-12.921H415.273L395.9,379.361H537.3l-3.705-9.354a4.842,4.842,0,0,1,4.5-6.625h9.371a8.472,8.472,0,0,0,8.472-8.685A8.586,8.586,0,0,0,547.3,346.433ZM544.684,356.6c-2.206,0-4-.813-4-1.815s1.789-1.816,4-1.816,3.994.814,3.994,1.816S546.889,356.6,544.684,356.6Z" transform="translate(-395.904 -330.453)" fill="#e4eff1"/>
          </g>
          <g id="Group_10502" data-name="Group 10502" transform="translate(0 48.907)">
            <rect id="Rectangle_1091" data-name="Rectangle 1091" width="141.395" height="4.842" fill="#c4d1d6"/>
          </g>
        </g>
        <g id="Group_10506" data-name="Group 10506" transform="translate(38.738)">
          <g id="Group_10504" data-name="Group 10504" transform="translate(0 3.352)">
            <circle id="Ellipse_3140" data-name="Ellipse 3140" cx="14.043" cy="14.043" r="14.043" fill="#b0463d"/>
          </g>
          <g id="Group_10505" data-name="Group 10505" transform="translate(2.022)">
            <path id="Path_2406" data-name="Path 2406" d="M453.489,335.285a11.429,11.429,0,0,1-2.978,1.864,4.289,4.289,0,0,1-3.409-.011,10.577,10.577,0,0,0-.957,5.129,8.151,8.151,0,0,1-1.712-5.93c-1.474-.72-3.217-1.537-4.813-1.16a3.806,3.806,0,0,1,3.981-1.228,9.063,9.063,0,0,0-2.171-4.819,9.8,9.8,0,0,1,4.568,4.7,6.166,6.166,0,0,1,4.554-4.891,8.989,8.989,0,0,0-2.381,5.135A7.674,7.674,0,0,0,453.489,335.285Z" transform="translate(-439.621 -328.936)" fill="#a4c092"/>
          </g>
        </g>
        <g id="Group_10513" data-name="Group 10513" transform="translate(65.371 29.984)">
          <g id="Group_10507" data-name="Group 10507" transform="translate(0 5.327)">
            <path id="Path_2407" data-name="Path 2407" d="M492.649,369.229c0,2.942-5.962,5.327-13.316,5.327s-13.317-2.385-13.317-5.327v-2.421h26.633Z" transform="translate(-466.016 -366.808)" fill="#b0463d"/>
          </g>
          <g id="Group_10508" data-name="Group 10508">
            <path id="Path_2408" data-name="Path 2408" d="M492.649,366.422c0,2.942-5.962,5.327-13.316,5.327s-13.317-2.385-13.317-5.327,5.963-5.327,13.317-5.327S492.649,363.48,492.649,366.422Z" transform="translate(-466.016 -361.095)" fill="#e7584c"/>
          </g>
          <g id="Group_10509" data-name="Group 10509" transform="translate(2.664 1.695)">
            <path id="Path_2409" data-name="Path 2409" d="M490.179,366.545c0,2.006-4.769,3.632-10.652,3.632s-10.653-1.626-10.653-3.632,4.769-3.632,10.653-3.632S490.179,364.539,490.179,366.545Z" transform="translate(-468.873 -362.913)" fill="#ff7882"/>
          </g>
          <g id="Group_10510" data-name="Group 10510" transform="translate(14.061 2.485)">
            <path id="Path_2410" data-name="Path 2410" d="M481.644,364.48a2.152,2.152,0,0,1,1.624-.72,3.486,3.486,0,0,1,1.985.837c.344.261.7.627.638,1.054a.877.877,0,0,1-.507.618,2.593,2.593,0,0,1-.8.2l-2.144.288a1.912,1.912,0,0,1-.746,0C480.669,366.488,481.178,365.01,481.644,364.48Z" transform="translate(-481.097 -363.76)" fill="#ff5158"/>
          </g>
          <g id="Group_10511" data-name="Group 10511" transform="translate(7.69 2.799)">
            <path id="Path_2411" data-name="Path 2411" d="M477.5,364.18a2.15,2.15,0,0,0-1.442.1,4.706,4.706,0,0,0-1.235.8c-.307.257-.628.613-.54,1s.5.563.871.668a7.877,7.877,0,0,0,2.084.291c.5,0,1.338.08,1.671-.38C479.528,365.792,478.264,364.425,477.5,364.18Z" transform="translate(-474.263 -364.097)" fill="#ff5158"/>
          </g>
          <g id="Group_10512" data-name="Group 10512" transform="translate(10.931 5.8)">
            <path id="Path_2412" data-name="Path 2412" d="M478.019,368.705a.766.766,0,0,0-.272.613.544.544,0,0,0,.386.385,1.61,1.61,0,0,0,.568.037l2.7-.147a2.129,2.129,0,0,0,.708-.12.716.716,0,0,0,.453-.52c.052-.359-.263-.659-.567-.856a3.728,3.728,0,0,0-2.186-.762A4.319,4.319,0,0,0,478.019,368.705Z" transform="translate(-477.739 -367.315)" fill="#ff5158"/>
          </g>
        </g>
        <g id="Group_10520" data-name="Group 10520" transform="translate(76.428 9.497)">
          <g id="Group_10514" data-name="Group 10514" transform="translate(0.105 2.434)">
            <path id="Path_2413" data-name="Path 2413" d="M504.087,344.038c.9,2.8-4.049,6.894-11.052,9.14s-13.408,1.8-14.307-1l-.739-2.306,25.36-8.136Z" transform="translate(-477.988 -341.733)" fill="#b0463d"/>
          </g>
          <g id="Group_10515" data-name="Group 10515">
            <path id="Path_2414" data-name="Path 2414" d="M503.34,341.556c.9,2.8-4.05,6.893-11.052,9.14s-13.408,1.8-14.307-1,4.049-6.893,11.052-9.14S502.441,338.755,503.34,341.556Z" transform="translate(-477.875 -339.122)" fill="#e7584c"/>
          </g>
          <g id="Group_10516" data-name="Group 10516" transform="translate(2.58 1.754)">
            <path id="Path_2415" data-name="Path 2415" d="M500.991,342.5c.613,1.91-3.432,4.915-9.035,6.713s-10.64,1.706-11.253-.2,3.432-4.915,9.034-6.713S500.378,340.587,500.991,342.5Z" transform="translate(-480.642 -341.003)" fill="#ff7882"/>
          </g>
          <g id="Group_10517" data-name="Group 10517" transform="translate(13.198 2.806)">
            <path id="Path_2416" data-name="Path 2416" d="M492.2,343.413a2.152,2.152,0,0,1,1.327-1.182,3.493,3.493,0,0,1,2.146.191c.407.144.86.382.93.808a.882.882,0,0,1-.295.744,2.592,2.592,0,0,1-.706.434l-1.952.93a1.933,1.933,0,0,1-.71.23C491.884,345.623,491.917,344.06,492.2,343.413Z" transform="translate(-492.03 -342.132)" fill="#ff5158"/>
          </g>
          <g id="Group_10518" data-name="Group 10518" transform="translate(7.189 4.906)">
            <path id="Path_2417" data-name="Path 2417" d="M488.154,344.384a2.149,2.149,0,0,0-1.343.536,4.68,4.68,0,0,0-.932,1.135,1.129,1.129,0,0,0-.208,1.121,1.1,1.1,0,0,0,1.033.369,7.917,7.917,0,0,0,2.074-.359c.472-.148,1.3-.333,1.474-.874C490.582,345.3,488.96,344.382,488.154,344.384Z" transform="translate(-485.586 -344.384)" fill="#ff5158"/>
          </g>
          <g id="Group_10519" data-name="Group 10519" transform="translate(11.224 6.899)">
            <path id="Path_2418" data-name="Path 2418" d="M490.037,348.541a.767.767,0,0,0-.072.668.541.541,0,0,0,.485.248,1.593,1.593,0,0,0,.552-.138l2.528-.966a2.1,2.1,0,0,0,.637-.33.714.714,0,0,0,.272-.634c-.06-.357-.451-.547-.8-.641a3.734,3.734,0,0,0-2.315-.058A4.324,4.324,0,0,0,490.037,348.541Z" transform="translate(-489.913 -346.521)" fill="#ff5158"/>
          </g>
        </g>
      </g>
    </g>
    <g id="Group_10523" data-name="Group 10523" transform="translate(348.096 284.397)">
      <path id="Path_2419" data-name="Path 2419" d="M439.329,300.85c-24.037,17.355-65.4,21.548-65.4,21.548l-5.687-15.979-1.983-5.569Z" transform="translate(-366.254 -300.85)" fill="#f9bf87"/>
    </g>
    <g id="Group_10530" data-name="Group 10530" transform="translate(329.712 212.731)">
      <g id="Group_10527" data-name="Group 10527" transform="translate(0 56.648)">
        <g id="Group_10524" data-name="Group 10524">
          <path id="Path_2420" data-name="Path 2420" d="M360.416,294.4c-5.172,1.825-8.68.835-9.237-1.969-.457-2.3,7.546-4.625,14.626-5.571a87.6,87.6,0,0,0,10.083-2.115l10.973,25.406s-29.281,7.678-32.111,5.08c-1.694-1.556-.485-2.906-.485-2.906s-2.871,1.136-4.241-.093a2.455,2.455,0,0,1-.485-2.906s-2.621.617-2.986-1.834C346.153,304.811,353.154,299.316,360.416,294.4Z" transform="translate(-346.536 -284.743)" fill="#ffb78f"/>
        </g>
        <g id="Group_10525" data-name="Group 10525" transform="translate(2.333 16.343)">
          <path id="Path_2421" data-name="Path 2421" d="M350.377,311.159l-1.338-1.3a44.468,44.468,0,0,1,10.587-7.59l.858,1.656A43.42,43.42,0,0,0,350.377,311.159Z" transform="translate(-349.039 -302.271)"/>
        </g>
        <g id="Group_10526" data-name="Group 10526" transform="translate(7.183 21.373)">
          <path id="Path_2422" data-name="Path 2422" d="M355.333,314.63l-1.093-1.511a72.36,72.36,0,0,1,8.962-5.453l.827,1.672A71.711,71.711,0,0,0,355.333,314.63Z" transform="translate(-354.24 -307.666)"/>
        </g>
      </g>
      <g id="Group_10528" data-name="Group 10528" transform="translate(24.117)">
        <path id="Path_2423" data-name="Path 2423" d="M452.543,268.051a30.179,30.179,0,0,1-4.484,11.656c-4.186,6.552-10.7,11.791-17.965,15.945-.215.124-.431.245-.649.366a97.744,97.744,0,0,1-10.917,5.2,152.328,152.328,0,0,1-33.051,8.958l-3.692-8.958-2.3-5.569-7.087-17.19,34.38-27.116-4.6-27.36" transform="translate(-372.403 -223.986)" fill="#bfd6b0"/>
      </g>
      <g id="Group_10529" data-name="Group 10529" transform="translate(86.989 32.527)">
        <path id="Path_2424" data-name="Path 2424" d="M447.428,288.439a43.82,43.82,0,0,1-4.763-7.335c-2.92-5.7-3.584-10.485-1.974-14.21,2.061-4.768,7.769-7.467,16.968-8.022l.112,1.861c-8.439.509-13.61,2.831-15.368,6.9-3.337,7.722,6.361,19.494,6.459,19.612Z" transform="translate(-439.835 -258.872)"/>
      </g>
    </g>
    <g id="Group_10579" data-name="Group 10579" transform="translate(193.973 84.895)">
      <g id="Group_10562" data-name="Group 10562" transform="translate(232.309 13.074)">
        <g id="Group_10547" data-name="Group 10547" transform="translate(12.287 78.445)">
          <g id="Group_10533" data-name="Group 10533" transform="translate(15.798)">
            <g id="Group_10531" data-name="Group 10531" transform="translate(35.348)">
              <path id="Path_2425" data-name="Path 2425" d="M518.146,189.15a4.116,4.116,0,1,0,4.116-4.115A4.117,4.117,0,0,0,518.146,189.15Z" transform="translate(-518.146 -185.035)" fill="#ffd3a3"/>
            </g>
            <g id="Group_10532" data-name="Group 10532">
              <circle id="Ellipse_3141" data-name="Ellipse 3141" cx="4.116" cy="4.116" r="4.116" fill="#ffd3a3"/>
            </g>
          </g>
          <g id="Group_10536" data-name="Group 10536" transform="translate(34.683 4.115)">
            <g id="Group_10534" data-name="Group 10534" transform="translate(14.043)">
              <path id="Path_2426" data-name="Path 2426" d="M522.087,189.449l24.7,78.688s-12.106,13.075-31.233,9.685Z" transform="translate(-515.55 -189.449)" fill="#fff0e1"/>
            </g>
            <g id="Group_10535" data-name="Group 10535">
              <path id="Path_2427" data-name="Path 2427" d="M521.068,189.449l-20.58,57.139c3.079.592,5.2,3.251,7.272,5.608s4.065,4.928,6.874,6.322a10.615,10.615,0,0,0,12.832-3.087" transform="translate(-500.488 -189.449)" fill="#ffe6cd"/>
            </g>
          </g>
          <g id="Group_10546" data-name="Group 10546" transform="translate(0 4.115)">
            <g id="Group_10537" data-name="Group 10537">
              <path id="Path_2428" data-name="Path 2428" d="M483.079,249.028l15.834-18.908a16.948,16.948,0,0,0,0-21.762l-15.834-18.909-15.834,18.909a16.948,16.948,0,0,0,0,21.762Z" transform="translate(-463.29 -189.449)" fill="#fff0e1"/>
            </g>
            <g id="Group_10541" data-name="Group 10541" transform="translate(1.795 9.549)" opacity="0.3">
              <g id="Group_10538" data-name="Group 10538" transform="translate(12.832)">
                <path id="Path_2429" data-name="Path 2429" d="M478.978,203.429,499,227.34l3.131-3.739L482.109,199.69Z" transform="translate(-478.978 -199.69)" fill="#ff5158"/>
              </g>
              <g id="Group_10539" data-name="Group 10539" transform="translate(6.416 6.416)">
                <path id="Path_2430" data-name="Path 2430" d="M472.1,210.311l20.024,23.91,3.131-3.739-20.024-23.911Z" transform="translate(-472.097 -206.572)" fill="#ff5158"/>
              </g>
              <g id="Group_10540" data-name="Group 10540" transform="translate(0 12.832)">
                <path id="Path_2431" data-name="Path 2431" d="M465.215,217.192,485.239,241.1l3.131-3.739-20.024-23.911Z" transform="translate(-465.215 -213.453)" fill="#ff5158"/>
              </g>
            </g>
            <g id="Group_10545" data-name="Group 10545" transform="translate(1.795 9.549)" opacity="0.3">
              <g id="Group_10542" data-name="Group 10542">
                <path id="Path_2432" data-name="Path 2432" d="M488.37,203.429,468.346,227.34l-3.131-3.739,20.024-23.911Z" transform="translate(-465.215 -199.69)" fill="#ff5158"/>
              </g>
              <g id="Group_10543" data-name="Group 10543" transform="translate(6.416 6.416)">
                <path id="Path_2433" data-name="Path 2433" d="M495.251,210.311l-20.024,23.91-3.131-3.739,20.024-23.911Z" transform="translate(-472.097 -206.572)" fill="#ff5158"/>
              </g>
              <g id="Group_10544" data-name="Group 10544" transform="translate(12.832 12.832)">
                <path id="Path_2434" data-name="Path 2434" d="M502.133,217.192,482.109,241.1l-3.131-3.739L499,213.453Z" transform="translate(-478.978 -213.453)" fill="#ff5158"/>
              </g>
            </g>
          </g>
        </g>
        <g id="Group_10561" data-name="Group 10561">
          <g id="Group_10548" data-name="Group 10548" transform="translate(0 57.26)">
            <rect id="Rectangle_1092" data-name="Rectangle 1092" width="92.246" height="9.685" fill="#ffd3a3"/>
          </g>
          <g id="Group_10560" data-name="Group 10560" transform="translate(17.455)">
            <g id="Group_10553" data-name="Group 10553" transform="translate(48.835)">
              <g id="Group_10549" data-name="Group 10549" transform="translate(0 7.379)">
                <path id="Path_2435" data-name="Path 2435" d="M530.217,108.814h0a9.008,9.008,0,0,1,9.009,9.008v40.873H521.209V117.822A9.007,9.007,0,0,1,530.217,108.814Z" transform="translate(-521.209 -108.814)" fill="#c4d1d6"/>
              </g>
              <g id="Group_10550" data-name="Group 10550" transform="translate(0 26.768)">
                <rect id="Rectangle_1093" data-name="Rectangle 1093" width="18.017" height="10.982" fill="#fff"/>
              </g>
              <g id="Group_10551" data-name="Group 10551" transform="translate(5.491 2.231)">
                <rect id="Rectangle_1094" data-name="Rectangle 1094" width="6.863" height="8.236" fill="#c4d1d6"/>
              </g>
              <g id="Group_10552" data-name="Group 10552" transform="translate(4.29)">
                <rect id="Rectangle_1095" data-name="Rectangle 1095" width="9.437" height="4.118" fill="#701d2e"/>
              </g>
            </g>
            <g id="Group_10556" data-name="Group 10556" transform="translate(25.422 25.543)">
              <g id="Group_10554" data-name="Group 10554" transform="translate(0 6.024)">
                <path id="Path_2436" data-name="Path 2436" d="M497.87,134.757h10.454L510.1,160.45h-14Z" transform="translate(-496.098 -134.757)" fill="#e4eff1"/>
              </g>
              <g id="Group_10555" data-name="Group 10555" transform="translate(0.886)">
                <path id="Path_2437" data-name="Path 2437" d="M497.048,134.32a6.025,6.025,0,0,1,12.049,0" transform="translate(-497.048 -128.296)" fill="#701d2e"/>
              </g>
            </g>
            <g id="Group_10559" data-name="Group 10559" transform="translate(0 15.859)">
              <g id="Group_10557" data-name="Group 10557" transform="translate(0 6.024)">
                <path id="Path_2438" data-name="Path 2438" d="M470.6,124.37h10.454l1.772,35.377h-14Z" transform="translate(-468.832 -124.37)" fill="#e4eff1"/>
              </g>
              <g id="Group_10558" data-name="Group 10558" transform="translate(0.886)">
                <path id="Path_2439" data-name="Path 2439" d="M469.782,123.933a6.025,6.025,0,0,1,12.049,0" transform="translate(-469.782 -117.909)" fill="#701d2e"/>
              </g>
            </g>
          </g>
        </g>
      </g>
      <g id="Group_10578" data-name="Group 10578">
        <g id="Group_10563" data-name="Group 10563" transform="translate(0 42.007)">
          <rect id="Rectangle_1096" data-name="Rectangle 1096" width="92.246" height="9.685" fill="#ffd3a3"/>
        </g>
        <g id="Group_10577" data-name="Group 10577" transform="translate(16.034)">
          <g id="Group_10568" data-name="Group 10568">
            <g id="Group_10564" data-name="Group 10564" transform="translate(0 5.409)">
              <path id="Path_2440" data-name="Path 2440" d="M224.753,92.679h0a6.6,6.6,0,0,1,6.6,6.6v29.994H218.149V99.282A6.6,6.6,0,0,1,224.753,92.679Z" transform="translate(-218.149 -92.679)" fill="#c4d1d6"/>
            </g>
            <g id="Group_10565" data-name="Group 10565" transform="translate(0 19.622)">
              <rect id="Rectangle_1097" data-name="Rectangle 1097" width="13.207" height="8.05" fill="#fff"/>
            </g>
            <g id="Group_10566" data-name="Group 10566" transform="translate(4.025 1.635)">
              <rect id="Rectangle_1098" data-name="Rectangle 1098" width="5.031" height="6.038" fill="#c4d1d6"/>
            </g>
            <g id="Group_10567" data-name="Group 10567" transform="translate(3.145)">
              <rect id="Rectangle_1099" data-name="Rectangle 1099" width="6.918" height="3.019" fill="#701d2e"/>
            </g>
          </g>
          <g id="Group_10571" data-name="Group 10571" transform="translate(49.723 10.411)">
            <g id="Group_10569" data-name="Group 10569" transform="translate(0 6.024)">
              <path id="Path_2441" data-name="Path 2441" d="M273.25,104.505H283.7l1.772,25.693h-14Z" transform="translate(-271.478 -104.505)" fill="#e4eff1"/>
            </g>
            <g id="Group_10570" data-name="Group 10570" transform="translate(0.886)">
              <path id="Path_2442" data-name="Path 2442" d="M272.428,104.068a6.025,6.025,0,0,1,12.049,0" transform="translate(-272.428 -98.044)" fill="#701d2e"/>
            </g>
          </g>
          <g id="Group_10576" data-name="Group 10576" transform="translate(20.363 15.495)">
            <g id="Group_10572" data-name="Group 10572" transform="translate(0 5.327)">
              <path id="Path_2443" data-name="Path 2443" d="M261.3,119.862a10.648,10.648,0,1,1-.82-4.1A10.612,10.612,0,0,1,261.3,119.862Z" transform="translate(-239.989 -109.21)" fill="#c4d1d6"/>
            </g>
            <g id="Group_10573" data-name="Group 10573" transform="translate(8.138 1.635)">
              <rect id="Rectangle_1100" data-name="Rectangle 1100" width="5.031" height="6.038" fill="#c4d1d6"/>
            </g>
            <g id="Group_10574" data-name="Group 10574" transform="translate(7.194)">
              <rect id="Rectangle_1101" data-name="Rectangle 1101" width="6.918" height="3.019" fill="#701d2e"/>
            </g>
            <g id="Group_10575" data-name="Group 10575" transform="translate(12.324 11.876)">
              <path id="Path_2444" data-name="Path 2444" d="M262.189,120.337a10.613,10.613,0,0,1-.755,3.944h-8.227v-8.047h8.162A10.586,10.586,0,0,1,262.189,120.337Z" transform="translate(-253.207 -116.234)" fill="#fff"/>
            </g>
          </g>
        </g>
      </g>
    </g>
  </g>
</svg>
