<svg xmlns="http://www.w3.org/2000/svg" xmlns:xlink="http://www.w3.org/1999/xlink" width="617" height="937" viewBox="0 0 617 937">
  <defs>
    <filter id="Rectangle_1082" x="0" y="0" width="617" height="937" filterUnits="userSpaceOnUse">
      <feOffset dy="3" input="SourceAlpha"/>
      <feGaussianBlur stdDeviation="3" result="blur"/>
      <feFlood flood-opacity="0.161"/>
      <feComposite operator="in" in2="blur"/>
      <feComposite in="SourceGraphic"/>
    </filter>
  </defs>
  <g id="Group_11846" data-name="Group 11846" transform="translate(-212 -71)">
    <g transform="matrix(1, 0, 0, 1, 212, 71)" filter="url(#Rectangle_1082)">
      <rect id="Rectangle_1082-2" data-name="Rectangle 1082" width="599" height="919" rx="39" transform="translate(9 6)" fill="#e3d1d0"/>
    </g>
    <g id="Group_10583" data-name="Group 10583" transform="translate(183.545 80.657)">
      <path id="Path_2332" data-name="Path 2332" d="M367.062,209.5l124.416-.349-31.736-5.833s1.295-32.085-14.249-25.668S429.3,198.064,429.3,198.064s-5.829-12.834-14.25-8.167a32.167,32.167,0,0,0-12.307,12.833s-3.022-9.233-8.42-9.757c-4.615-.448-13.395,8.335-18,13.275Z" transform="translate(108.185 47.442)" fill="#fee" opacity="0.33"/>
      <path id="Path_2333" data-name="Path 2333" d="M217.449,78.649l124.416-.388-31.736-6.477s1.295-35.623-14.25-28.5a27.714,27.714,0,0,0-16.192,22.67s-5.829-14.25-14.25-9.068-12.307,14.25-12.307,14.25-3.022-10.253-8.42-10.835c-4.615-.5-13.395,9.255-18,14.741Z" transform="translate(55.394 0)" fill="#fee" opacity="0.33"/>
      <path id="Path_2331" data-name="Path 2331" d="M60.455,160.665l150.82-.471L172.8,152.342s1.569-43.183-17.274-34.546a33.6,33.6,0,0,0-19.628,27.48S128.833,128,118.626,134.284s-14.918,17.273-14.918,17.273-3.663-12.429-10.207-13.133c-5.594-.6-16.237,11.219-21.816,17.868Z" transform="translate(-6 124.22)" fill="#faeaea" opacity="0.33"/>
    </g>
    <g id="Group_1842" data-name="Group 1842" transform="translate(219.01 502.255)">
      <g id="Floor" transform="translate(24.99 482.077)">
        <g id="Group_1827" data-name="Group 1827">
          <g id="Group_1826" data-name="Group 1826">
            <path id="Path_2285" data-name="Path 2285" d="M561.944,453.087c0,.185-120.212.334-268.465.334-148.3,0-268.489-.149-268.489-.334s120.185-.336,268.489-.336C441.732,452.751,561.944,452.9,561.944,453.087Z" transform="translate(-24.99 -452.751)" fill="#263238"/>
          </g>
        </g>
      </g>
      <g id="Plant" transform="translate(497.269 327.961)">
        <g id="Group_1841" data-name="Group 1841">
          <g id="Group_1828" data-name="Group 1828" transform="translate(37.608 62.102)">
            <path id="Path_2286" data-name="Path 2286" d="M445.867,449.307c-.859-3.4,1.39-6.8,3.9-9.256s5.514-4.645,6.831-7.9c2.137-5.272-.656-12.129,2.963-16.517,2.129-2.581,5.925-3.427,7.816-6.187a14.16,14.16,0,0,0,1.718-4.94,50.282,50.282,0,0,1,12.64-23.332A43.634,43.634,0,0,1,476.7,403.7c-1.471,2.763-3.273,5.455-3.773,8.545-.812,5.019,1.962,10.209.7,15.134-1.444,5.631-7.8,9.37-8.134,15.175-.282,4.907,3.972,9.241,3.625,14.142a13.241,13.241,0,0,1-2.218,5.809c-3.831,6.288-9.431,10.6-17.881,10.412l-10.353.3Z" transform="translate(-438.669 -381.176)" fill="#e8505b"/>
          </g>
          <g id="Group_1830" data-name="Group 1830" transform="translate(37.608 62.102)" opacity="0.3">
            <g id="Group_1829" data-name="Group 1829">
              <path id="Path_2287" data-name="Path 2287" d="M445.867,449.307c-.859-3.4,1.39-6.8,3.9-9.256s5.514-4.645,6.831-7.9c2.137-5.272-.656-12.129,2.963-16.517,2.129-2.581,5.925-3.427,7.816-6.187a14.16,14.16,0,0,0,1.718-4.94,50.282,50.282,0,0,1,12.64-23.332A43.634,43.634,0,0,1,476.7,403.7c-1.471,2.763-3.273,5.455-3.773,8.545-.812,5.019,1.962,10.209.7,15.134-1.444,5.631-7.8,9.37-8.134,15.175-.282,4.907,3.972,9.241,3.625,14.142a13.241,13.241,0,0,1-2.218,5.809c-3.831,6.288-9.431,10.6-17.881,10.412l-10.353.3Z" transform="translate(-438.669 -381.176)"/>
            </g>
          </g>
          <g id="Group_1840" data-name="Group 1840">
            <g id="Group_1835" data-name="Group 1835" transform="translate(0 26.092)">
              <g id="Group_1832" data-name="Group 1832">
                <g id="Group_1831" data-name="Group 1831">
                  <path id="Path_2288" data-name="Path 2288" d="M444.926,481.483a8.285,8.285,0,0,1-2.85-.077,17.332,17.332,0,0,1-3.359-.866,14.221,14.221,0,0,1-4.142-2.3,5.784,5.784,0,0,1-1.7-2.287,10.711,10.711,0,0,1-.469-3.1,30.218,30.218,0,0,0-.224-3.349,9.219,9.219,0,0,0-1.246-3.336c-1.208-2.151-3.223-4.191-3.862-7.107-.692-2.868-.166-5.964.333-9.072s.983-6.483-.186-9.724c-1.091-3.243-3.345-6.178-4.46-9.835-1.109-3.693-.559-7.654-.776-11.566a15.339,15.339,0,0,0-1.316-5.754c-.827-1.836-1.979-3.571-2.875-5.5-1.815-3.911-2.115-8.332-2.592-12.665q-.349-3.276-.706-6.618a32.355,32.355,0,0,0-1.112-6.626,58.422,58.422,0,0,0-2.44-6.42,21.48,21.48,0,0,1-1.183-3.353,33.9,33.9,0,0,1-.314-3.562,41.972,41.972,0,0,1,.316-7.164c.3-2.387.739-4.753,1.01-7.145l.048-.413.057-.479.426.216a16.005,16.005,0,0,1,5.547,4.735,25.364,25.364,0,0,1,3.387,6.33c1.7,4.457,2.3,9.121,3.147,13.573.825,4.452,1.922,8.833,4.181,12.542,1.124,1.85,2.486,3.54,3.678,5.345a14.64,14.64,0,0,1,2.535,5.915c.587,4.382-1.847,8.215-1.367,12.095a13.411,13.411,0,0,0,1.858,5.381c.93,1.66,2.026,3.2,3.065,4.746a30.406,30.406,0,0,1,2.752,4.791,15.144,15.144,0,0,1,1.242,5.2c.233,3.492-.281,6.8-.044,9.928a22.852,22.852,0,0,0,2.506,8.521c1.237,2.553,2.617,4.865,3.771,7.1a36.072,36.072,0,0,1,1.55,3.308,16.221,16.221,0,0,1,.891,3.277,20.692,20.692,0,0,1,.042,5.91,14.886,14.886,0,0,1-3,7.517,7.168,7.168,0,0,1-.843.9,4.185,4.185,0,0,1-.683.573c-.388.281-.594.411-.594.411a13.221,13.221,0,0,0,2.015-1.971,14.981,14.981,0,0,0,2.851-7.468,20.5,20.5,0,0,0-.1-5.822,15.952,15.952,0,0,0-.9-3.2c-.435-1.07-.974-2.157-1.559-3.263-1.163-2.22-2.558-4.521-3.823-7.092a23.239,23.239,0,0,1-2.594-8.672c-.255-3.193.246-6.514,0-9.924a14.616,14.616,0,0,0-1.219-5.02,30.053,30.053,0,0,0-2.72-4.7c-1.039-1.536-2.148-3.083-3.1-4.776a13.982,13.982,0,0,1-1.944-5.6c-.476-4.134,1.94-7.992,1.341-12.064a14.034,14.034,0,0,0-2.449-5.656c-1.171-1.772-2.542-3.465-3.7-5.361-2.331-3.817-3.445-8.282-4.281-12.753-.854-4.479-1.451-9.094-3.124-13.459a24.713,24.713,0,0,0-3.3-6.162,15.334,15.334,0,0,0-5.312-4.538l.482-.264-.049.417c-.274,2.421-.72,4.791-1.012,7.15a41.376,41.376,0,0,0-.314,7.054,33.883,33.883,0,0,0,.3,3.454,20.854,20.854,0,0,0,1.143,3.233,58.629,58.629,0,0,1,2.458,6.491,32.953,32.953,0,0,1,1.127,6.736q.353,3.346.7,6.623c.47,4.353.77,8.7,2.517,12.476.864,1.88,2.013,3.619,2.864,5.516a15.912,15.912,0,0,1,1.354,5.968c.2,4-.338,7.9.721,11.441,1.053,3.528,3.295,6.478,4.417,9.826,1.2,3.382.676,6.875.165,9.967-.518,3.114-1.037,6.144-.386,8.9.582,2.783,2.539,4.805,3.772,7.018a9.581,9.581,0,0,1,1.264,3.468,29.915,29.915,0,0,1,.2,3.39,10.453,10.453,0,0,0,.424,3.011,5.537,5.537,0,0,0,1.593,2.188,14.229,14.229,0,0,0,4.041,2.309,17.8,17.8,0,0,0,3.312.919,13.4,13.4,0,0,0,2.1.216C444.678,481.473,444.926,481.483,444.926,481.483Z" transform="translate(-409.415 -353.165)" fill="#263238"/>
                </g>
              </g>
              <g id="Group_1834" data-name="Group 1834" transform="translate(3.493 6.191)">
                <g id="Group_1833" data-name="Group 1833">
                  <path id="Path_2289" data-name="Path 2289" d="M412.137,357.981a1.245,1.245,0,0,1,.1.314l.224.933c.2.816.436,2.049.818,3.588.4,1.535,1.327,3.276,2.117,5.419.823,2.126,1.656,4.589,2.419,7.356s1.457,5.834,2.169,9.122a38.392,38.392,0,0,0,3.256,10.126c.839,1.687,1.784,3.394,2.533,5.259a24.4,24.4,0,0,1,1.457,5.95,120.221,120.221,0,0,0,2.161,12.534c2.027,8.495,3.958,16.584,5.716,23.951,1.8,7.342,3.426,13.957,4.794,19.534,1.332,5.527,2.413,10.016,3.177,13.183q.526,2.279.83,3.593c.081.379.147.688.2.938a1.167,1.167,0,0,1,.045.325,1.285,1.285,0,0,1-.112-.309l-.264-.923c-.231-.865-.55-2.056-.953-3.562l-3.382-13.132c-1.408-5.567-3.079-12.17-4.933-19.5-1.775-7.369-3.726-15.461-5.772-23.958a118.411,118.411,0,0,1-2.156-12.587,23.9,23.9,0,0,0-1.4-5.8c-.721-1.818-1.652-3.517-2.491-5.222a38.616,38.616,0,0,1-3.246-10.283c-.689-3.3-1.342-6.357-2.083-9.116s-1.527-5.219-2.313-7.347c-.749-2.135-1.648-3.9-2.02-5.484-.35-1.577-.54-2.8-.7-3.628-.064-.383-.116-.694-.158-.946A1.171,1.171,0,0,1,412.137,357.981Z" transform="translate(-412.132 -357.981)" fill="#263238"/>
                </g>
              </g>
            </g>
            <g id="Group_1839" data-name="Group 1839" transform="translate(26.642)">
              <g id="Group_1836" data-name="Group 1836">
                <path id="Path_2290" data-name="Path 2290" d="M437.18,482.392c-6.738-3.9-8.608-15.628-5.746-22.665s7.836-13.456,8.642-20.973c.62-5.779-1.316-11.722.118-17.366,1.937-7.616,9.721-13.48,9.678-21.319-.023-4.4-2.6-8.552-2.371-12.945.287-5.388,4.618-9.64,7.312-14.373,4.125-7.245,4.444-15.837,5.888-23.977s4.728-16.849,12.268-20.813c1.07,6.924,2.936,11.672,2.286,21.04-.234,3.364-4.341,9.786-4.938,17.159-.357,4.407-.613,8.821-.919,13.232-.3,4.292-.615,8.662-2.239,12.671-1.246,3.07-3.234,5.857-4.165,9.03-1.75,5.969.465,12.456-.955,18.507-1.2,5.126-4.926,9.521-5.713,14.721-1.1,7.306,3.777,14.93,1.214,21.89-1.271,3.453-4.25,6.216-5.113,9.786-.669,2.769.026,5.707-.581,8.49-.978,4.481-9.908,7.918-14.664,7.614" transform="translate(-430.139 -327.961)" fill="#e8505b"/>
              </g>
              <g id="Group_1838" data-name="Group 1838" transform="translate(7.037 7.136)">
                <g id="Group_1837" data-name="Group 1837">
                  <path id="Path_2291" data-name="Path 2291" d="M469.5,333.512a1.655,1.655,0,0,1-.031.391c-.041.29-.094.663-.159,1.133-.161,1-.343,2.46-.706,4.351-.39,1.9-1.424,4.039-2.258,6.619-.878,2.573-1.753,5.54-2.533,8.864s-1.458,7-2.158,10.958c-.724,3.928-1.466,8.271-3.539,12.384-.962,2.067-2.038,4.136-2.849,6.341a27.485,27.485,0,0,0-1.467,7,135.857,135.857,0,0,1-2.072,15.091c-2.131,10.219-4.161,19.951-6.01,28.811-1.944,8.823-3.7,16.773-5.171,23.465-1.49,6.643-2.7,12.032-3.544,15.808-.424,1.831-.758,3.269-1,4.292-.114.461-.2.827-.275,1.112a1.729,1.729,0,0,1-.117.375,1.635,1.635,0,0,1,.05-.388c.053-.287.122-.658.21-1.125.208-1.028.5-2.474.874-4.315.8-3.786,1.934-9.189,3.335-15.849,1.435-6.7,3.139-14.659,5.032-23.493,1.831-8.857,3.841-18.587,5.953-28.8a137.287,137.287,0,0,0,2.079-15.041,28,28,0,0,1,1.517-7.137c.837-2.252,1.927-4.329,2.889-6.379,2.062-4.053,2.8-8.292,3.555-12.235.725-3.951,1.422-7.639,2.246-10.968a89.82,89.82,0,0,1,2.638-8.875c.874-2.589,1.941-4.708,2.358-6.56.4-1.856.625-3.334.827-4.318.094-.465.167-.836.225-1.123A1.7,1.7,0,0,1,469.5,333.512Z" transform="translate(-435.613 -333.512)" fill="#263238"/>
                </g>
              </g>
            </g>
          </g>
        </g>
      </g>
    </g>
  </g>
</svg>
