<svg id="Group_11845" data-name="Group 11845" xmlns="http://www.w3.org/2000/svg" width="1920" height="1080" viewBox="0 0 1920 1080">
  <path id="Path_2349" data-name="Path 2349" d="M361.086,395.2c-4.689-9.138,6.291-18.925,16.4-20.731s21.562-.422,29.613-6.8c10.751-8.514,10.2-27.079,22.113-33.877,9.56-5.455,22.219-.251,32.346-4.561,12.582-5.359,16.121-22.889,28.466-28.774,9.841-4.692,22.709.61,27.731,10.285s2.714,22.183-4.25,30.57c-5.446,6.561-13.511,11.157-16.9,18.982-5.3,12.255,3.065,27.1-1.812,39.533-9,22.952-51.549,16.042-58.94,39.566-1.643,5.237-.951,10.882-1.381,16.356-1.275,16.279-12.751,30.5-26.924,38.607s-30.755,10.923-47.045,12.062c-6.656.466-13.672.6-19.6-2.449-5.583-2.874-9.468-8.217-12.5-13.718-19.562-35.49-27.627-81.74,32.681-95.049" transform="translate(1299.945 444.279)" fill="#e0e0e0"/>
  <g id="Path_2278" data-name="Path 2278" fill="#b0463d" opacity="0.06">
    <path d="M 1919.5 1079.5 L 0.5 1079.5 L 0.5 0.5 L 1919.5 0.5 L 1919.5 1079.5 Z" stroke="none"/>
    <path d="M 1 1 L 1 1079 L 1919 1079 L 1919 1 L 1 1 M 0 0 L 1920 0 L 1920 1080 L 0 1080 L 0 0 Z" stroke="none" fill="#707070"/>
  </g>
  <path id="Path_2338" data-name="Path 2338" d="M287.045,418.942c8.967-5.927,3.981-20.483-4.31-27.32s-19.443-11.454-23.512-21.4c-5.43-13.282,4.6-29.928-2.768-42.239-5.915-9.882-20.128-11.633-27.148-20.762-8.723-11.345-2.949-29.146-11.185-40.848-6.563-9.329-21.017-11.1-30.565-4.856s-13.86,18.83-11.816,30.054c1.6,8.776,6.591,17.107,5.66,25.978-1.458,13.892-16.707,23.14-18.642,36.974-3.572,25.548,38.765,41.09,33.428,66.329-1.189,5.62-4.717,10.411-7.137,15.623-7.195,15.495-4.029,34.352,4.731,49.021s22.434,25.746,36.7,35.144c5.829,3.841,12.155,7.569,19.132,7.831,6.565.246,12.852-2.631,18.437-6.089,36.055-22.316,67.149-60.344,18.995-103.436" transform="translate(842.455 365.315)" fill="#e0e0e0"/>
  <g id="Group_10426" data-name="Group 10426" transform="matrix(0.996, 0.087, -0.087, 0.996, 1653.604, 555.999)">
    <g id="Group_10425" data-name="Group 10425" transform="translate(0 34.067)">
      <path id="Path_2339" data-name="Path 2339" d="M319.321,465.832c12.543-5.409,23.832-15.411,33.2-25.075,25.251-26.064,40.906-60.1,49.139-95.143,7.45-31.707,9.113-64.492,7.555-96.943-.132-2.747-4.422-2.764-4.287,0,3.5,72.9-10.978,162.368-76.225,206.744a70.916,70.916,0,0,1-11.542,6.712c-2.527,1.092-.344,4.786,2.164,3.7Z" transform="translate(-316.033 -246.605)" fill="#b74852"/>
    </g>
    <path id="Path_2340" data-name="Path 2340" d="M353.156,299.534s4.131-23.618,35.423-27.358C388.579,272.176,377.165,300.126,353.156,299.534Z" transform="translate(-266.944 -178.724)" fill="#b74852"/>
    <path id="Path_2341" data-name="Path 2341" d="M348.739,309.66s9.533-22,40.832-18.331C389.571,291.329,371.946,315.842,348.739,309.66Z" transform="translate(-272.785 -153.942)" fill="#b74852"/>
    <path id="Path_2342" data-name="Path 2342" d="M343.015,319s14.22-19.3,43.9-8.716C386.915,310.289,364.246,330.231,343.015,319Z" transform="translate(-280.354 -132.521)" fill="#b74852"/>
    <path id="Path_2343" data-name="Path 2343" d="M355.225,283.478s4.062-23.219,34.822-26.893C390.047,256.585,378.827,284.061,355.225,283.478Z" transform="translate(-264.208 -199.341)" fill="#b74852"/>
    <path id="Path_2344" data-name="Path 2344" d="M360.661,275.724s-17.515-15.773-4.292-43.788C356.369,231.936,373.69,256.038,360.661,275.724Z" transform="translate(-269.226 -231.936)" fill="#b74852"/>
    <path id="Path_2345" data-name="Path 2345" d="M370.579,281.065s-23.177-4.278-26.568-35.07C344.011,245.995,371.382,257.47,370.579,281.065Z" transform="translate(-279.037 -213.345)" fill="#b74852"/>
    <path id="Path_2346" data-name="Path 2346" d="M369.585,296.3s-23.18-4.278-26.57-35.07C343.015,261.226,370.386,272.7,369.585,296.3Z" transform="translate(-280.354 -193.204)" fill="#b74852"/>
    <path id="Path_2347" data-name="Path 2347" d="M365.555,311.573s-22.822-5.892-24.044-36.847C341.511,274.726,368.009,288.091,365.555,311.573Z" transform="translate(-282.343 -175.352)" fill="#b74852"/>
    <path id="Path_2348" data-name="Path 2348" d="M361.028,325.824s-22.822-5.892-24.046-36.847C336.982,288.977,363.483,302.342,361.028,325.824Z" transform="translate(-288.332 -156.507)" fill="#b74852"/>
  </g>
  <g id="Group_1866" data-name="Group 1866" transform="translate(486.267 173.784) rotate(14)">
    <g id="Group_1844" data-name="Group 1844" transform="translate(355.326 108.948)">
      <g id="Group_1843" data-name="Group 1843">
        <path id="Path_2292" data-name="Path 2292" d="M550.635,109.811s-20.017-9.867-36.924,37.163-22.2,73.588-22.2,73.588-4.776,10.01-11.9,4.768-18.011-21.3-28.425-16.838c-10.8,4.627-12.9,17.6-8.434,35.709s12.805,58.141,13.547,61.763c.726,3.558-.659,9.108-6.086,6.315s-38.2-31.128-50.711-14.773,8.228,64.756,10.393,70.091,1.387,7.83-1.063,9.528-12.566-8.863-22.218-16.54-22.188-14.886-28.617-4.844-4.072,48.032,39.561,104.69l21.935,24.932,32.807-6.027c69.418-17.175,94.915-45.437,96.135-57.3s-13.078-14.023-25.411-14.025-26.825,1.965-27.684-.888.084-5.294,5.1-8.12,51.378-27.79,51.769-48.379-42.9-18.821-48.882-20.013-3.613-6.4-.83-8.728c2.834-2.375,34.282-28.511,49.052-39.9s21.2-22.851,15.632-33.2c-5.372-9.975-23.887-4.185-32.726-4.519s-6.345-11.142-6.345-11.142,12.39-24.079,28.439-71.409-6.331-52.08-6.331-52.08" transform="translate(-355.326 -108.948)" fill="#e0e0e0"/>
      </g>
    </g>
    <g id="Group_1847" data-name="Group 1847" transform="translate(401.417 151.902)">
      <g id="Group_1846" data-name="Group 1846">
        <g id="Group_1845" data-name="Group 1845">
          <path id="Path_2293" data-name="Path 2293" d="M512.83,130.849s-.08.347-.286,1.008q-.335,1.047-.939,2.928c-.863,2.607-2.11,6.38-3.709,11.221-3.232,9.742-8.008,23.8-13.976,41.16-11.925,34.713-28.8,82.526-47.6,135.271-18.811,52.763-35.794,100.538-47.891,135.189-6.021,17.3-10.9,31.314-14.284,41.046-1.679,4.813-2.989,8.565-3.893,11.158-.443,1.242-.788,2.2-1.036,2.893-.239.649-.386.975-.386.975s.08-.347.286-1.008c.224-.7.535-1.671.939-2.926.861-2.607,2.108-6.38,3.709-11.221,3.23-9.74,8.008-23.8,13.976-41.156,11.923-34.713,28.8-82.532,47.609-135.295,18.8-52.745,35.786-100.517,47.883-135.165,6.021-17.3,10.9-31.316,14.286-41.05l3.891-11.158,1.038-2.895C512.683,131.175,512.83,130.849,512.83,130.849Z" transform="translate(-378.826 -130.849)" fill="#ebebeb"/>
        </g>
      </g>
    </g>
    <g id="Group_1850" data-name="Group 1850" transform="translate(465.495 231.565)">
      <g id="Group_1849" data-name="Group 1849">
        <g id="Group_1848" data-name="Group 1848">
          <path id="Path_2294" data-name="Path 2294" d="M411.507,171.467a10.618,10.618,0,0,1,1.114,2.128c.663,1.394,1.559,3.44,2.646,5.976,2.161,5.078,4.966,12.166,7.92,20.045,2.885,7.78,5.494,14.814,7.488,20.2.916,2.42,1.687,4.462,2.308,6.1a10.553,10.553,0,0,1,.759,2.277,10.826,10.826,0,0,1-1.13-2.12c-.657-1.4-1.557-3.444-2.616-5.994-2.11-5.1-4.821-12.223-7.775-20.1-2.94-7.755-5.6-14.767-7.631-20.133-.928-2.416-1.708-4.456-2.338-6.094A10.9,10.9,0,0,1,411.507,171.467Z" transform="translate(-411.497 -171.467)" fill="#ebebeb"/>
        </g>
      </g>
    </g>
    <g id="Group_1853" data-name="Group 1853" transform="translate(490.84 260.723)">
      <g id="Group_1852" data-name="Group 1852">
        <g id="Group_1851" data-name="Group 1851">
          <path id="Path_2295" data-name="Path 2295" d="M424.42,214.1c-.112-.263,14.247-6.69,32.069-14.355s32.367-13.668,32.481-13.407S474.726,193.029,456.9,200.7,424.532,214.364,424.42,214.1Z" transform="translate(-424.42 -186.333)" fill="#ebebeb"/>
        </g>
      </g>
    </g>
    <g id="Group_1856" data-name="Group 1856" transform="translate(458.304 358.047)">
      <g id="Group_1855" data-name="Group 1855">
        <g id="Group_1854" data-name="Group 1854">
          <path id="Path_2296" data-name="Path 2296" d="M407.831,246.11a11.331,11.331,0,0,1,2.416-.42c1.773-.218,3.985-.492,6.614-.816,5.582-.7,13.288-1.693,21.747-3.1,8.467-1.391,16.085-2.916,21.592-4.066l6.525-1.353a11.245,11.245,0,0,1,2.422-.382,11.222,11.222,0,0,1-2.328.773c-1.516.43-3.721,1.014-6.459,1.675-5.476,1.334-13.094,2.977-21.584,4.372-8.485,1.412-16.226,2.295-21.837,2.809-2.807.245-5.08.416-6.655.49A11.193,11.193,0,0,1,407.831,246.11Z" transform="translate(-407.831 -235.955)" fill="#ebebeb"/>
        </g>
      </g>
    </g>
    <g id="Group_1859" data-name="Group 1859" transform="translate(424.051 321.755)">
      <g id="Group_1858" data-name="Group 1858">
        <g id="Group_1857" data-name="Group 1857">
          <path id="Path_2297" data-name="Path 2297" d="M390.371,217.453a9.59,9.59,0,0,1,1.524,1.679q1.568,1.962,3.848,4.811c3.215,4.089,6.333,11.417,12.39,16.11,4.793,6.327,9.085,12.091,12.15,16.293l3.587,5.009a9.619,9.619,0,0,1,1.2,1.922,9.594,9.594,0,0,1-1.524-1.679q-1.568-1.962-3.848-4.811c-3.215-4.089-7.6-9.783-12.391-16.112s-9.083-12.089-12.148-16.291l-3.589-5.011A9.617,9.617,0,0,1,390.371,217.453Z" transform="translate(-390.366 -217.451)" fill="#ebebeb"/>
        </g>
      </g>
    </g>
    <g id="Group_1862" data-name="Group 1862" transform="translate(386.389 388.475)">
      <g id="Group_1861" data-name="Group 1861">
        <g id="Group_1860" data-name="Group 1860">
          <path id="Path_2298" data-name="Path 2298" d="M371.168,251.471a15.866,15.866,0,0,1,1.928,2.169c1.291,1.6,2.956,3.668,4.956,6.147,4.148,5.219,9.824,12.472,16.042,20.521S405.9,295.684,409.9,301.015c1.895,2.561,3.471,4.7,4.7,6.349a15.417,15.417,0,0,1,1.61,2.414,15.877,15.877,0,0,1-1.928-2.169c-1.291-1.6-2.956-3.668-4.954-6.147-4.15-5.219-9.826-12.472-16.045-20.525s-11.8-15.373-15.8-20.705c-1.895-2.559-3.472-4.693-4.7-6.347A15.643,15.643,0,0,1,371.168,251.471Z" transform="translate(-371.164 -251.469)" fill="#ebebeb"/>
        </g>
      </g>
    </g>
    <g id="Group_1865" data-name="Group 1865" transform="translate(430.748 430.096)">
      <g id="Group_1864" data-name="Group 1864">
        <g id="Group_1863" data-name="Group 1863">
          <path id="Path_2299" data-name="Path 2299" d="M393.781,287.68a17.882,17.882,0,0,1,3.046-.61l8.349-1.338c7.047-1.136,16.773-2.742,27.46-4.821,10.693-2.061,20.321-4.181,27.28-5.766,3.344-.759,6.119-1.389,8.245-1.869a17.793,17.793,0,0,1,3.054-.573,17.749,17.749,0,0,1-2.954.961c-1.92.553-4.711,1.312-8.173,2.191-6.923,1.767-16.546,4.005-27.258,6.07-10.7,2.081-20.466,3.575-27.548,4.529-3.542.469-6.411.818-8.4,1.014A17.841,17.841,0,0,1,393.781,287.68Z" transform="translate(-393.781 -272.69)" fill="#ebebeb"/>
        </g>
      </g>
    </g>
  </g>
  <g id="Group_1825" data-name="Group 1825" transform="translate(-18.786 149.283)">
    <g id="Group_1799" data-name="Group 1799" transform="translate(54.786 60.717)">
      <g id="Group_1798" data-name="Group 1798">
        <g id="Group_1797" data-name="Group 1797">
          <g id="Group_1796" data-name="Group 1796">
            <path id="Path_2279" data-name="Path 2279" d="M281,331.033C318.777,293.727,319,236.425,308.758,186.7c-1.71-8.3-2.3-17.258-7.52-23.9s-15.344-10.067-22.217-5.272c-5.7,3.978-7.172,11.652-9.621,18.209a49.524,49.524,0,0,1-16.383,22.044c-4.842,3.668-11.132,6.478-16.876,4.482-7.877-2.743-10.427-12.545-11.795-20.86q-3.821-23.238-7.644-46.471c-1.368-8.312-2.791-16.794-6.719-24.234S199.1,96.915,190.821,96.051s-17.265,5.362-17.546,13.775c-.117,3.5,1.174,6.894,1.532,10.377s-.6,7.575-3.705,9.094c-3.146,1.54-6.873-.246-9.77-2.25-10-6.92-17.663-16.725-24.933-26.537S121.974,80.6,112.636,72.79,91.3,59.567,79.3,60.927,55.875,71.788,54.865,83.975c-1.013,12.222,7.846,22.93,16.9,31.136A188.054,188.054,0,0,0,116.636,145.3c2.934,1.41,6.115,2.931,7.641,5.836,2.749,5.227-1.556,11.62-6.711,14.374-5.836,3.12-12.662,3.626-19,5.492s-12.868,5.924-14.273,12.463c-1.951,9.065,6.669,16.749,14.647,21.382a161.143,161.143,0,0,0,51.624,19.094c6.488,1.19,13.253,2.051,18.909,5.5s9.908,10.406,7.933,16.762-9.3,9.542-15.9,9.446-12.919-2.587-19.407-3.846c-12.147-2.356-26.749.949-32.371,12.06-3.7,7.3-2.576,16.4,1.174,23.712s9.812,13.125,16.094,18.368c21.954,18.331,48.316,31.6,76.356,36.256s52.986,2.947,77.647-11.167" transform="translate(-54.786 -60.717)" fill="#ebebeb"/>
          </g>
        </g>
      </g>
    </g>
    <g id="Group_1804" data-name="Group 1804" transform="translate(64.913 70.535)">
      <g id="Group_1803" data-name="Group 1803">
        <g id="Group_1802" data-name="Group 1802">
          <g id="Group_1801" data-name="Group 1801">
            <g id="Group_1800" data-name="Group 1800">
              <path id="Path_2280" data-name="Path 2280" d="M58.607,64.423a6.144,6.144,0,0,0,.941.652c.708.443,1.649,1.028,2.841,1.776,2.5,1.551,6.194,3.841,10.867,6.915a316.07,316.07,0,0,1,37.563,28.808c7.493,6.64,15.4,14.257,23.746,22.585,8.328,8.349,17.173,17.324,26.118,27.109a380.85,380.85,0,0,1,26.548,31.984c4.286,5.8,8.275,11.954,12.343,18.228q6.079,9.415,12.328,19.086c16.558,25.827,31.533,50.967,43.246,74.843a376.443,376.443,0,0,1,25.479,65.762,275.277,275.277,0,0,1,8.792,46.763c.512,5.6.822,9.963.925,12.927.077,1.415.138,2.529.183,3.363a6.818,6.818,0,0,0,.111,1.15,6.049,6.049,0,0,0,.048-1.15c-.011-.838-.016-1.956-.027-3.374-.005-2.969-.217-7.342-.636-12.969a263.543,263.543,0,0,0-8.341-47,369.79,369.79,0,0,0-25.259-66.112c-11.676-23.979-26.651-49.2-43.222-75.052q-6.25-9.665-12.341-19.092c-4.063-6.255-8.095-12.46-12.41-18.286a377.352,377.352,0,0,0-26.728-32.053c-8.993-9.783-17.883-18.739-26.259-27.054-8.4-8.3-16.367-15.887-23.926-22.492a299.024,299.024,0,0,0-37.961-28.49c-4.729-3-8.471-5.208-11.031-6.671l-2.918-1.643A6.175,6.175,0,0,0,58.607,64.423Z" transform="translate(-58.607 -64.421)" fill="#e0e0e0"/>
            </g>
          </g>
        </g>
      </g>
    </g>
    <g id="Group_1809" data-name="Group 1809" transform="translate(189.909 96.051)">
      <g id="Group_1808" data-name="Group 1808">
        <g id="Group_1807" data-name="Group 1807">
          <g id="Group_1806" data-name="Group 1806">
            <g id="Group_1805" data-name="Group 1805">
              <path id="Path_2281" data-name="Path 2281" d="M110.166,167.468a17.149,17.149,0,0,0,.207-3.682c.042-2.37-.005-5.8-.13-10.032-.239-8.466-.967-20.149-1.821-33.025s-1.413-24.544-1.524-32.991c-.066-4.222-.085-7.641-.069-10.006a16.893,16.893,0,0,0-.151-3.684,16.821,16.821,0,0,0-.451,3.658c-.2,2.362-.35,5.791-.421,10.027-.172,8.479.217,20.194,1.073,33.089.872,12.707,1.665,24.2,2.269,32.98.249,3.968.453,7.313.62,10A16.755,16.755,0,0,0,110.166,167.468Z" transform="translate(-105.766 -74.048)" fill="#e0e0e0"/>
            </g>
          </g>
        </g>
      </g>
    </g>
    <g id="Group_1814" data-name="Group 1814" transform="translate(84.151 184.349)">
      <g id="Group_1813" data-name="Group 1813">
        <g id="Group_1812" data-name="Group 1812">
          <g id="Group_1811" data-name="Group 1811">
            <g id="Group_1810" data-name="Group 1810">
              <path id="Path_2282" data-name="Path 2282" d="M65.865,110.777a23.654,23.654,0,0,0,4.344-.217c2.78-.225,6.8-.573,11.784-.84,9.958-.615,23.743-.983,38.968-.726,15.232.286,29,1.132,38.947,2.033,4.978.413,9,.856,11.774,1.148a23.465,23.465,0,0,0,4.342.31,23.273,23.273,0,0,0-4.262-.917c-2.762-.474-6.772-1.087-11.75-1.646-9.942-1.182-23.754-2.205-39.029-2.5a383.141,383.141,0,0,0-39.071,1.19c-4.988.413-9.006.925-11.774,1.341A22.864,22.864,0,0,0,65.865,110.777Z" transform="translate(-65.865 -107.361)" fill="#e0e0e0"/>
            </g>
          </g>
        </g>
      </g>
    </g>
    <g id="Group_1819" data-name="Group 1819" transform="translate(261.064 154.622)">
      <g id="Group_1818" data-name="Group 1818">
        <g id="Group_1817" data-name="Group 1817">
          <g id="Group_1816" data-name="Group 1816">
            <g id="Group_1815" data-name="Group 1815">
              <path id="Path_2283" data-name="Path 2283" d="M132.628,241.67a5.518,5.518,0,0,0,.509-1.426c.315-1.129.7-2.507,1.166-4.175,1-3.629,2.3-8.916,3.825-15.474,3.061-13.109,6.719-31.35,10.483-51.531s7.249-38.443,10.032-51.595c1.37-6.4,2.5-11.662,3.34-15.572.355-1.7.647-3.1.885-4.243a5.6,5.6,0,0,0,.207-1.508,5.628,5.628,0,0,0-.509,1.431c-.315,1.126-.7,2.5-1.166,4.172-1,3.629-2.3,8.916-3.827,15.471-3.059,13.109-6.716,31.35-10.48,51.542s-7.249,38.435-10.032,51.59c-1.373,6.4-2.5,11.66-3.34,15.569-.355,1.7-.647,3.1-.885,4.243A5.609,5.609,0,0,0,132.628,241.67Z" transform="translate(-132.612 -96.146)" fill="#e0e0e0"/>
            </g>
          </g>
        </g>
      </g>
    </g>
    <g id="Group_1824" data-name="Group 1824" transform="translate(111.414 278.636)">
      <g id="Group_1823" data-name="Group 1823">
        <g id="Group_1822" data-name="Group 1822">
          <g id="Group_1821" data-name="Group 1821">
            <g id="Group_1820" data-name="Group 1820">
              <path id="Path_2284" data-name="Path 2284" d="M76.151,142.97a5.884,5.884,0,0,0,1.508.339c1.172.183,2.611.406,4.355.676l16.033,2.327c13.536,1.969,32.2,4.9,52.819,8.169s39.336,6.033,52.918,7.721c6.791.845,12.293,1.474,16.1,1.832,1.76.154,3.21.278,4.389.384a5.536,5.536,0,0,0,1.543.027,5.855,5.855,0,0,0-1.508-.342l-4.355-.673L203.927,161.1c-13.536-1.967-32.2-4.9-52.83-8.169s-39.328-6.033-52.91-7.721c-6.791-.846-12.29-1.474-16.1-1.832L77.7,143A5.561,5.561,0,0,0,76.151,142.97Z" transform="translate(-76.151 -142.935)" fill="#e0e0e0"/>
            </g>
          </g>
        </g>
      </g>
    </g>
  </g>
  <g id="Plant" transform="matrix(0.819, 0.574, -0.574, 0.819, 1744.471, 766.345)">
    <g id="Group_1841" data-name="Group 1841">
      <g id="Group_1828" data-name="Group 1828" transform="translate(26.879 77.298)">
        <path id="Path_2286" data-name="Path 2286" d="M443.814,429.871c-.614-2.433.993-4.863,2.789-6.616s3.941-3.32,4.883-5.645c1.527-3.768-.469-8.669,2.118-11.805,1.522-1.845,4.235-2.45,5.586-4.422a10.12,10.12,0,0,0,1.228-3.531,35.938,35.938,0,0,1,9.034-16.676,31.187,31.187,0,0,1-3.6,16.1c-1.051,1.975-2.339,3.9-2.7,6.107-.581,3.587,1.4,7.3.5,10.816-1.032,4.024-5.575,6.7-5.813,10.846-.2,3.507,2.839,6.6,2.591,10.108a9.464,9.464,0,0,1-1.585,4.152c-2.738,4.494-6.741,7.578-12.78,7.442l-7.4.218Z" transform="translate(-438.669 -381.176)" fill="#e8505b"/>
      </g>
      <g id="Group_1830" data-name="Group 1830" transform="translate(26.879 77.298)" opacity="0.3">
        <g id="Group_1829" data-name="Group 1829">
          <path id="Path_2287" data-name="Path 2287" d="M443.814,429.871c-.614-2.433.993-4.863,2.789-6.616s3.941-3.32,4.883-5.645c1.527-3.768-.469-8.669,2.118-11.805,1.522-1.845,4.235-2.45,5.586-4.422a10.12,10.12,0,0,0,1.228-3.531,35.938,35.938,0,0,1,9.034-16.676,31.187,31.187,0,0,1-3.6,16.1c-1.051,1.975-2.339,3.9-2.7,6.107-.581,3.587,1.4,7.3.5,10.816-1.032,4.024-5.575,6.7-5.813,10.846-.2,3.507,2.839,6.6,2.591,10.108a9.464,9.464,0,0,1-1.585,4.152c-2.738,4.494-6.741,7.578-12.78,7.442l-7.4.218Z" transform="translate(-438.669 -381.176)"/>
        </g>
      </g>
      <g id="Group_1840" data-name="Group 1840">
        <g id="Group_1835" data-name="Group 1835" transform="translate(0 51.561)">
          <g id="Group_1832" data-name="Group 1832">
            <g id="Group_1831" data-name="Group 1831">
              <path id="Path_2288" data-name="Path 2288" d="M434.8,444.878a5.921,5.921,0,0,1-2.037-.055,12.389,12.389,0,0,1-2.4-.619,10.164,10.164,0,0,1-2.96-1.643,4.134,4.134,0,0,1-1.212-1.635,7.655,7.655,0,0,1-.335-2.212,21.6,21.6,0,0,0-.16-2.394,6.589,6.589,0,0,0-.89-2.384c-.864-1.537-2.3-3-2.76-5.079a16.778,16.778,0,0,1,.238-6.484c.357-2.217.7-4.634-.133-6.95-.78-2.318-2.391-4.416-3.187-7.029-.793-2.64-.4-5.471-.555-8.267a10.963,10.963,0,0,0-.941-4.113c-.591-1.312-1.414-2.552-2.055-3.934-1.3-2.8-1.512-5.955-1.852-9.052q-.249-2.342-.5-4.73a23.127,23.127,0,0,0-.795-4.736,41.755,41.755,0,0,0-1.744-4.589,15.354,15.354,0,0,1-.845-2.4,24.225,24.225,0,0,1-.224-2.546,30,30,0,0,1,.226-5.121c.211-1.706.528-3.4.722-5.107l.034-.295.04-.343.3.154a11.439,11.439,0,0,1,3.965,3.384,18.128,18.128,0,0,1,2.421,4.524,55.548,55.548,0,0,1,2.249,9.7,26.318,26.318,0,0,0,2.988,8.964c.8,1.322,1.777,2.53,2.629,3.82a10.464,10.464,0,0,1,1.812,4.228c.42,3.132-1.32,5.871-.977,8.644a9.585,9.585,0,0,0,1.328,3.846c.664,1.186,1.448,2.286,2.191,3.392a21.732,21.732,0,0,1,1.967,3.424,10.824,10.824,0,0,1,.888,3.715c.166,2.5-.2,4.861-.031,7.1a16.333,16.333,0,0,0,1.791,6.09c.884,1.825,1.871,3.477,2.695,5.077a25.788,25.788,0,0,1,1.108,2.364,11.593,11.593,0,0,1,.637,2.342,14.789,14.789,0,0,1,.03,4.224,10.64,10.64,0,0,1-2.147,5.372,5.124,5.124,0,0,1-.6.645,2.992,2.992,0,0,1-.488.41c-.277.2-.424.294-.424.294a9.448,9.448,0,0,0,1.44-1.409,10.707,10.707,0,0,0,2.038-5.337,14.652,14.652,0,0,0-.071-4.161,11.4,11.4,0,0,0-.641-2.288c-.311-.764-.7-1.542-1.115-2.332-.832-1.587-1.828-3.232-2.733-5.069a16.61,16.61,0,0,1-1.854-6.2c-.182-2.282.175-4.656,0-7.093a10.447,10.447,0,0,0-.871-3.588,21.481,21.481,0,0,0-1.944-3.356c-.742-1.1-1.535-2.2-2.219-3.413a9.993,9.993,0,0,1-1.389-4.005c-.34-2.955,1.387-5.712.958-8.622a10.031,10.031,0,0,0-1.75-4.043c-.837-1.266-1.816-2.476-2.643-3.832a26.735,26.735,0,0,1-3.06-9.115,55.333,55.333,0,0,0-2.233-9.619,17.663,17.663,0,0,0-2.358-4.4,10.959,10.959,0,0,0-3.8-3.243l.345-.188-.035.3c-.2,1.73-.515,3.424-.723,5.111a29.571,29.571,0,0,0-.224,5.042,24.215,24.215,0,0,0,.213,2.469,14.907,14.907,0,0,0,.817,2.311,41.9,41.9,0,0,1,1.757,4.639,23.551,23.551,0,0,1,.806,4.815q.252,2.391.5,4.734c.336,3.111.55,6.22,1.8,8.917.617,1.343,1.439,2.586,2.047,3.943a11.372,11.372,0,0,1,.968,4.265c.145,2.857-.242,5.644.515,8.178s2.355,4.63,3.157,7.023c.859,2.417.483,4.914.118,7.124a16.525,16.525,0,0,0-.276,6.36c.416,1.989,1.815,3.435,2.7,5.016a6.848,6.848,0,0,1,.9,2.479,21.374,21.374,0,0,1,.142,2.423,7.471,7.471,0,0,0,.3,2.152,3.957,3.957,0,0,0,1.138,1.564,10.169,10.169,0,0,0,2.888,1.65,12.723,12.723,0,0,0,2.367.657,9.571,9.571,0,0,0,1.5.154C434.618,444.87,434.8,444.878,434.8,444.878Z" transform="translate(-409.415 -353.165)" fill="#263238"/>
            </g>
          </g>
          <g id="Group_1834" data-name="Group 1834" transform="translate(2.497 4.425)">
            <g id="Group_1833" data-name="Group 1833">
              <path id="Path_2289" data-name="Path 2289" d="M412.136,357.981a.892.892,0,0,1,.07.224l.16.667c.142.583.312,1.465.584,2.564s.948,2.341,1.513,3.873c.588,1.52,1.183,3.28,1.729,5.258s1.041,4.17,1.55,6.52a27.442,27.442,0,0,0,2.327,7.238c.6,1.206,1.275,2.426,1.81,3.759a17.44,17.44,0,0,1,1.041,4.252,85.923,85.923,0,0,0,1.545,8.959c1.449,6.072,2.829,11.853,4.085,17.119,1.288,5.247,2.449,9.976,3.426,13.962.952,3.95,1.725,7.159,2.27,9.423q.376,1.629.594,2.568c.058.271.1.492.142.671a.833.833,0,0,1,.032.232.919.919,0,0,1-.08-.221l-.188-.66c-.165-.618-.393-1.469-.681-2.546l-2.417-9.386c-1.006-3.979-2.2-8.7-3.526-13.937-1.269-5.267-2.663-11.051-4.126-17.123a84.632,84.632,0,0,1-1.541-9,17.081,17.081,0,0,0-1-4.148c-.515-1.3-1.181-2.514-1.781-3.732a27.6,27.6,0,0,1-2.32-7.35c-.492-2.356-.959-4.544-1.489-6.515s-1.092-3.73-1.653-5.251c-.536-1.526-1.178-2.785-1.443-3.92-.25-1.127-.386-2-.5-2.593-.046-.274-.083-.5-.113-.676A.837.837,0,0,1,412.136,357.981Z" transform="translate(-412.132 -357.981)" fill="#263238"/>
            </g>
          </g>
        </g>
        <g id="Group_1839" data-name="Group 1839" transform="translate(19.042)">
          <g id="Group_1836" data-name="Group 1836">
            <path id="Path_2290" data-name="Path 2290" d="M435.171,471.249c-4.816-3.616-6.152-14.5-4.107-21.03s5.6-12.485,6.176-19.46c.443-5.362-.941-10.877.085-16.112,1.385-7.066,6.948-12.507,6.917-19.781-.017-4.082-1.862-7.935-1.694-12.011.2-5,3.3-8.944,5.226-13.336,2.949-6.722,3.176-14.694,4.208-22.247s3.379-15.634,8.768-19.311c.764,6.424,2.1,10.83,1.634,19.522-.167,3.122-3.1,9.08-3.529,15.921-.255,4.089-.438,8.185-.657,12.277a48.313,48.313,0,0,1-1.6,11.757c-.89,2.849-2.312,5.434-2.977,8.378-1.251,5.539.333,11.557-.683,17.171-.86,4.756-3.521,8.834-4.083,13.659-.789,6.778,2.7,13.853.867,20.31-.909,3.2-3.038,5.768-3.654,9.08-.478,2.569.018,5.3-.415,7.877-.7,4.158-7.081,7.347-10.481,7.065" transform="translate(-430.139 -327.961)" fill="#e8505b"/>
          </g>
          <g id="Group_1838" data-name="Group 1838" transform="translate(5.03 5.1)">
            <g id="Group_1837" data-name="Group 1837">
              <path id="Path_2291" data-name="Path 2291" d="M459.834,333.512a2.034,2.034,0,0,1-.022.367c-.029.272-.067.622-.114,1.063-.115.936-.245,2.309-.5,4.084-.278,1.785-1.018,3.791-1.613,6.213-.628,2.415-1.253,5.2-1.81,8.32s-1.042,6.569-1.543,10.286a52.225,52.225,0,0,1-2.53,11.624c-.687,1.94-1.456,3.882-2.036,5.952a32.923,32.923,0,0,0-1.048,6.567c-.27,4.589-.777,9.359-1.481,14.165-1.523,9.592-2.974,18.726-4.3,27.043-1.389,8.282-2.642,15.743-3.7,22.025-1.065,6.235-1.928,11.294-2.533,14.837-.3,1.718-.542,3.068-.712,4.029-.082.433-.146.776-.2,1.044a.183.183,0,1,1-.048-.013c.038-.27.087-.618.15-1.056.149-.965.358-2.322.625-4.051.569-3.553,1.382-8.626,2.383-14.877,1.025-6.289,2.244-13.759,3.6-22.051,1.308-8.313,2.745-17.446,4.255-27.036q1.056-7.215,1.486-14.118a33.52,33.52,0,0,1,1.084-6.7c.6-2.114,1.377-4.063,2.065-5.988a51.851,51.851,0,0,0,2.541-11.484c.518-3.708,1.016-7.17,1.605-10.3s1.23-5.917,1.885-8.33c.625-2.43,1.387-4.419,1.685-6.158s.447-3.13.591-4.053c.067-.436.119-.784.161-1.054A2,2,0,0,1,459.834,333.512Z" transform="translate(-435.613 -333.512)" fill="#263238"/>
            </g>
          </g>
        </g>
      </g>
    </g>
  </g>
</svg>
