<svg xmlns="http://www.w3.org/2000/svg" width="13.5" height="13.5" viewBox="0 0 13.5 13.5">
  <g id="pencil" transform="translate(0 -0.002)">
    <g id="Group_11529" data-name="Group 11529" transform="translate(0 0.002)">
      <path id="Path_10770" data-name="Path 10770" d="M13.14,2.193,11.3.35a1.255,1.255,0,0,0-1.736,0L1.316,8.68a.309.309,0,0,0-.077.132l-1.227,4.3a.307.307,0,0,0,.379.38l4.3-1.228a.308.308,0,0,0,.132-.077L13.14,3.93a1.229,1.229,0,0,0,0-1.737Zm-4.914.39L9.355,3.713l-5.9,5.9-.423-.847a.307.307,0,0,0-.274-.17H2.27ZM.753,12.748l.4-1.4,1,1ZM4.3,11.737l-1.468.419L1.346,10.674l.419-1.468h.806L3.1,10.264a.307.307,0,0,0,.137.137L4.3,10.93v.806Zm.614-.5v-.491a.307.307,0,0,0-.17-.274l-.847-.423,5.9-5.9,1.129,1.129Zm7.8-7.729L11.354,4.844l-2.7-2.7L10,.8a.628.628,0,0,1,.868,0l1.841,1.841a.613.613,0,0,1,0,.867Z" transform="translate(0 -0.002)" fill="#955f61"/>
    </g>
  </g>
</svg>
