<svg id="Group_11528" data-name="Group 11528" xmlns="http://www.w3.org/2000/svg" width="136" height="136" viewBox="0 0 136 136">
  <g id="Ellipse_3182" data-name="Ellipse 3182" fill="#955f61" stroke="#707070" stroke-width="1" opacity="0.21">
    <circle cx="68" cy="68" r="68" stroke="none"/>
    <circle cx="68" cy="68" r="67.5" fill="none"/>
  </g>
  <g id="Group_11527" data-name="Group 11527" transform="translate(26.664 2.353)">
    <path id="Path_10758" data-name="Path 10758" d="M632.112,104.846c-1.507,3.153-1.4,6.8-2.013,10.241-1.848,10.277-9.966,18.038-16.23,26.391a14.623,14.623,0,0,0-2.9,5.459,5.626,5.626,0,0,0,1.7,5.651,6.047,6.047,0,0,1,2.063-4.774,17.886,17.886,0,0,1,4.541-2.851c-1.755,1.916-3.225,4.3-3.244,6.894-.031,4.141,3.492,7.362,6.888,9.732,7.613,5.315,16.669,9.455,25.9,8.477,5.788-.612,11.189-3.192,16.169-6.2,5.536-3.348,7.288-9.929,8.679-15.917,2.413-10.382,2.143-21.063,1.97-31.644-.06-3.662-1.952-6.155-3.714-9.444-2.571-4.8-7.9-7.638-13.272-8.509s-10.869-.049-16.237.865C638.716,99.846,633.729,101.466,632.112,104.846Z" transform="translate(-610.813 -75.411)" fill="#b75c5c"/>
    <path id="Path_10759" data-name="Path 10759" d="M661.217,193.79c18.375.649,21.16-14.506,21.042-24.37-5.483-4.258-12.677-7.184-22.1-7.184a37.764,37.764,0,0,0-22.71,7.158C637.273,175.359,638.678,192.995,661.217,193.79Z" transform="translate(-616.557 -89.276)" fill="#e5b5a3"/>
    <path id="Path_10760" data-name="Path 10760" d="M676.757,171.39c.118,9.864-2.666,25.018-21.042,24.37-22.539-.8-23.944-18.431-23.771-24.4-15.728,11.389-20.008,32.37-20.008,32.37h81.9S691.436,182.785,676.757,171.39Z" transform="translate(-611.055 -91.245)" fill="#373c44"/>
    <circle id="Ellipse_3178" data-name="Ellipse 3178" cx="6.431" cy="6.431" r="6.431" transform="matrix(0.231, -0.973, 0.973, 0.231, 10.709, 42.879)" fill="#ce8282"/>
    <circle id="Ellipse_3179" data-name="Ellipse 3179" cx="6.431" cy="6.431" r="6.431" transform="matrix(0.231, -0.973, 0.973, 0.231, 58.461, 42.879)" fill="#ce8282"/>
    <path id="Path_10761" data-name="Path 10761" d="M671.5,143.629l-1.087-14.285-11.154,1.531-1.823,20.883A20.133,20.133,0,0,0,671.5,143.629Z" transform="translate(-620.874 -82.179)" fill="#d19582"/>
    <path id="Path_10762" data-name="Path 10762" d="M645.115,101.377c12.839-2.8,15.388-15.554,21.125-17.083-1.447,2.532,3.042,17.908,14.968,17.911-.016-1.414-.065-2.8-.132-4.138-1.141-22.827-19.729-22.49-19.729-22.49s-24.378-1.873-24.7,26.258A22.182,22.182,0,0,0,645.115,101.377Z" transform="translate(-616.387 -70.571)" fill="#b75c5c"/>
    <path id="Path_10763" data-name="Path 10763" d="M666.212,86.7c-5.737,1.529-8.286,14.278-21.125,17.083a22.182,22.182,0,0,1-8.468.458c0,.24-.009.476-.008.721a35.29,35.29,0,0,0,.322,7.851c.747,6.748,3.973,12.623,10.1,15.888,6.142,3.275,14.506,4.437,21.041,1.746a19.488,19.488,0,0,0,10.978-10.808c1.788-4.47,2.188-9.916,2.131-15.027C669.254,104.608,664.765,89.232,666.212,86.7Z" transform="translate(-616.359 -72.977)" fill="#e5b5a3"/>
    <path id="Path_10764" data-name="Path 10764" d="M657.219,155.688l-.8,9.19s.328,4.593,7.765,5.468,8.311-6.889,8.311-6.889l-1.21-15.9A20.133,20.133,0,0,1,657.219,155.688Z" transform="translate(-620.653 -86.109)" fill="#e5b5a3"/>
    <path id="Path_10765" data-name="Path 10765" d="M652.791,115.213c0,1.261-.51,2.283-1.141,2.283s-1.141-1.022-1.141-2.283.511-2.283,1.141-2.283S652.791,113.953,652.791,115.213Z" transform="translate(-619.378 -78.637)" fill="#373c44"/>
    <path id="Path_10766" data-name="Path 10766" d="M679.732,115.706c0,1.261-.511,2.283-1.141,2.283s-1.141-1.022-1.141-2.283.511-2.282,1.141-2.282S679.732,114.446,679.732,115.706Z" transform="translate(-625.191 -78.743)" fill="#373c44"/>
    <path id="Path_10767" data-name="Path 10767" d="M664.54,117.79s-3.424,1.141-2.283,2.283a1.581,1.581,0,0,0,2.283,0" transform="translate(-621.863 -79.685)" fill="none" stroke="#373c44" stroke-miterlimit="10" stroke-width="0.75"/>
    <path id="Path_10768" data-name="Path 10768" d="M661.187,124.617s3.292,3.487,6.294,0" transform="translate(-621.682 -81.159)" fill="none" stroke="#373c44" stroke-miterlimit="10" stroke-width="0.75"/>
    <circle id="Ellipse_3180" data-name="Ellipse 3180" cx="2.402" cy="2.402" r="2.402" transform="translate(28.728 40.224)" fill="#ce8282"/>
    <circle id="Ellipse_3181" data-name="Ellipse 3181" cx="2.402" cy="2.402" r="2.402" transform="translate(50.997 41.306)" fill="#ce8282"/>
    <path id="Path_10769" data-name="Path 10769" d="M669,75.759s-1.761-6.24,0-6.545,1.064,5.137,1.064,5.137,1.155-3.458,2.834-2.542S671.207,75.74,669,75.759Z" transform="translate(-623.199 -69.201)" fill="#b75c5c"/>
  </g>
</svg>
