<svg xmlns="http://www.w3.org/2000/svg" width="361.398" height="369.86" viewBox="0 0 361.398 369.86">
  <defs>
    <style>
      .cls-1 {
        opacity: 0.1;
      }

      .cls-2 {
        fill: #3f4443;
      }

      .cls-3 {
        fill: #aaa;
      }

      .cls-4 {
        fill: #9b9b9b;
      }

      .cls-5 {
        fill: #c6c6c6;
      }

      .cls-6 {
        fill: #272727;
      }

      .cls-7 {
        opacity: 0.3;
      }

      .cls-8 {
        fill: #898989;
      }

      .cls-9 {
        fill: #b73730;
      }

      .cls-10, .cls-22 {
        fill: #9b1e1e;
      }

      .cls-11 {
        fill: #931b1b;
      }

      .cls-12 {
        fill: #4e4e50;
      }

      .cls-13 {
        fill: #282828;
      }

      .cls-14 {
        fill: #677677;
      }

      .cls-15 {
        fill: #98d8d6;
      }

      .cls-16 {
        fill: #bdf2ef;
      }

      .cls-17 {
        fill: #cc7b1b;
      }

      .cls-18 {
        fill: #c62c2c;
      }

      .cls-19 {
        fill: #666;
      }

      .cls-20 {
        fill: #fff;
      }

      .cls-21 {
        fill: #dbdbdb;
      }

      .cls-22 {
        font-size: 19px;
        font-family: BrandonGrotesque-Black, Brandon Grotesque;
        font-weight: 800;
      }

      .cls-23 {
        fill: #ce996a;
      }

      .cls-24 {
        fill: #bfbfbf;
      }

      .cls-25 {
        fill: #969696;
      }

      .cls-26 {
        fill: #7f5d46;
      }

      .cls-27 {
        fill: #685141;
      }

      .cls-28 {
        fill: #513a2a;
      }

      .cls-29 {
        fill: #e2b07f;
      }

      .cls-30 {
        fill: #cc9364;
      }

      .cls-31 {
        fill: #6d6d6d;
      }

      .cls-32 {
        fill: #99704f;
      }

      .cls-33 {
        fill: #66452e;
      }

      .cls-34 {
        fill: #5f7060;
      }

      .cls-35, .cls-36 {
        fill: none;
        stroke-miterlimit: 10;
      }

      .cls-35 {
        stroke: #000;
        stroke-width: 2px;
      }

      .cls-36 {
        stroke: #cc9364;
      }
    </style>
  </defs>
  <g id="Group_689" data-name="Group 689" transform="translate(-65.147 -45.959)">
    <g id="Group_660" data-name="Group 660" transform="translate(65.147 387.178)">
      <ellipse id="Ellipse_29" data-name="Ellipse 29" class="cls-1" cx="180.394" cy="10.796" rx="180.394" ry="10.796"/>
    </g>
    <g id="Group_663" data-name="Group 663" transform="translate(329.326 316.607)">
      <path id="Path_1199" data-name="Path 1199" class="cls-2" d="M391.549,414.844A39.845,39.845,0,1,1,431.394,375,39.889,39.889,0,0,1,391.549,414.844Zm0-62.832A22.987,22.987,0,1,0,414.536,375,23.013,23.013,0,0,0,391.549,352.012Z" transform="translate(-345.888 -333.321)"/>
      <circle id="Ellipse_30" data-name="Ellipse 30" class="cls-3" cx="31.416" cy="31.416" r="31.416" transform="matrix(0.974, -0.227, 0.227, 0.974, 2.13, 18.194)"/>
      <g id="Group_661" data-name="Group 661" transform="translate(27.254 29.688)">
        <circle id="Ellipse_31" data-name="Ellipse 31" class="cls-4" cx="8.94" cy="8.94" r="8.94" transform="matrix(0.385, -0.923, 0.923, 0.385, 1.079, 17.581)"/>
        <path id="Path_1200" data-name="Path 1200" class="cls-5" d="M387.228,390.259A12.771,12.771,0,1,1,400,377.489,12.786,12.786,0,0,1,387.228,390.259Zm0-17.878a5.108,5.108,0,1,0,5.11,5.108A5.114,5.114,0,0,0,387.228,372.381Z" transform="translate(-374.457 -364.718)"/>
      </g>
      <path id="Path_1201" data-name="Path 1201" class="cls-6" d="M385.376,414.844A39.845,39.845,0,1,1,425.221,375,39.889,39.889,0,0,1,385.376,414.844Zm0-62.832A22.987,22.987,0,1,0,408.363,375,23.013,23.013,0,0,0,385.376,352.012Z" transform="translate(-345.531 -333.321)"/>
      <g id="Group_662" data-name="Group 662" class="cls-7" transform="translate(0.373)">
        <path id="Path_1202" data-name="Path 1202" d="M430.636,376.2h0c0-23.706-19-42.991-42.355-42.991s-42.354,19.285-42.354,42.991h84.709Z" transform="translate(-345.927 -333.209)"/>
      </g>
    </g>
    <g id="Group_664" data-name="Group 664" transform="translate(375.859 297.847)">
      <path id="Path_1203" data-name="Path 1203" class="cls-8" d="M394.918,313.3s33.386,2.844,38.171,8.4l2.375,19.167Z" transform="translate(-394.918 -313.298)"/>
    </g>
    <g id="Group_665" data-name="Group 665" transform="translate(323.278 296.984)">
      <path id="Path_1204" data-name="Path 1204" class="cls-9" d="M390.746,312.382a51.633,51.633,0,0,0-51.634,51.634H442.379A51.633,51.633,0,0,0,390.746,312.382Z" transform="translate(-339.112 -312.382)"/>
    </g>
    <g id="Group_666" data-name="Group 666" transform="translate(323.278 296.984)">
      <path id="Path_1205" data-name="Path 1205" class="cls-10" d="M400.933,313.392a51.656,51.656,0,0,0-61.821,50.624h20.375A51.647,51.647,0,0,1,400.933,313.392Z" transform="translate(-339.112 -312.382)"/>
    </g>
    <path id="Path_1206" data-name="Path 1206" class="cls-9" d="M99.812,338.063s20.756-57.861,64.473-58.6H251.72s-29.639,10.374-29.639,37.79,23.712,27.415,37.79,27.415h33.74s45.42,4.351,33.811-65.205l-15.53-54.846,14.318,6.478,37.349,70.9-1.642,5.9c-21.279,6.187-36.7,25.766-41.347,47.7-11.381,4.831-41.928,5.386-70.332,5.386H93.892S95.613,347.081,99.812,338.063Z" transform="translate(-1.661 -10.326)"/>
    <g id="Group_667" data-name="Group 667" transform="translate(110.71 318.44)">
      <circle id="Ellipse_32" data-name="Ellipse 32" class="cls-2" cx="39.845" cy="39.845" r="39.845" transform="translate(4.504)"/>
      <circle id="Ellipse_33" data-name="Ellipse 33" class="cls-3" cx="30.38" cy="30.38" r="30.38" transform="translate(1.909 18.692) rotate(-13.472)"/>
      <path id="Path_1207" data-name="Path 1207" class="cls-6" d="M152.036,415.005a38.531,38.531,0,1,1,38.531-38.53A38.574,38.574,0,0,1,152.036,415.005Zm0-60.76a22.229,22.229,0,1,0,22.229,22.229A22.253,22.253,0,0,0,152.036,354.245Z" transform="translate(-113.505 -335.316)"/>
    </g>
    <g id="Group_668" data-name="Group 668" transform="translate(182.091 239.387)">
      <path id="Path_1208" data-name="Path 1208" class="cls-6" d="M272.792,266.185c0,6.955-4.137,12.594-9.24,12.594H198.5c-5.1,0-9.24-5.638-9.24-12.594h0c0-6.955,3.89-14.933,8.993-14.933l65.193,9.157c9.338.865,9.342,5.776,9.342,5.776Z" transform="translate(-189.264 -251.252)"/>
    </g>
    <g id="Group_669" data-name="Group 669" transform="translate(182.471 254.472)">
      <path id="Path_1209" data-name="Path 1209" d="M255.383,271.361c-1.5,0-64.322-.509-64.322-.509a7.765,7.765,0,0,1-1.393-.14c1.128,5.2,4.665,8.992,8.86,8.992h65.048c5.079,0,9.2-5.562,9.236-12.442C267.512,270.651,261.864,271.361,255.383,271.361Z" transform="translate(-189.668 -267.262)"/>
    </g>
    <g id="Group_670" data-name="Group 670" transform="translate(136.891 347.25)">
      <circle id="Ellipse_34" data-name="Ellipse 34" class="cls-4" cx="8.645" cy="8.645" r="8.645" transform="translate(3.705 3.705)"/>
      <path id="Path_1210" data-name="Path 1210" class="cls-5" d="M153.641,390.429a12.349,12.349,0,1,1,12.349-12.348A12.363,12.363,0,0,1,153.641,390.429Zm0-17.288a4.939,4.939,0,1,0,4.94,4.939A4.945,4.945,0,0,0,153.641,373.141Z" transform="translate(-141.292 -365.731)"/>
    </g>
    <g id="Group_671" data-name="Group 671" class="cls-7" transform="translate(110.71 316.607)">
      <path id="Path_1211" data-name="Path 1211" d="M198.215,376.2h0c0-23.706-19-42.991-42.355-42.991s-42.355,19.285-42.355,42.991h84.71Z" transform="translate(-113.505 -333.209)"/>
    </g>
    <g id="Group_673" data-name="Group 673" transform="translate(92.231 269.136)">
      <g id="Group_672" data-name="Group 672">
        <path id="Path_1212" data-name="Path 1212" class="cls-9" d="M189.231,359.887s75.032,4.554,104.627-2.963,37.643-32,34.916-63.928c0,60.76-35.163,55.035-35.163,55.035h-33.74c-14.078,0-37.79,0-37.79-27.415s29.639-37.79,29.639-37.79H164.285c-43.717.741-64.473,58.6-64.473,58.6-4.2,9.018-5.92,22.906-5.92,22.906h96.694Z" transform="translate(-93.892 -282.826)"/>
      </g>
    </g>
    <g id="Group_674" data-name="Group 674" transform="translate(104.749 276.546)">
      <path id="Path_1213" data-name="Path 1213" class="cls-9" d="M139.612,290.69H121.29s-19.221,8.4-12.8,17.783c0,0,7.9,5.928,10.374,2.964Z" transform="translate(-107.178 -290.69)"/>
    </g>
    <g id="Group_675" data-name="Group 675" transform="translate(107.186 276.546)">
      <path id="Path_1214" data-name="Path 1214" class="cls-8" d="M127.215,290.69c-1.536,2.567-12.15,16.235-17.45,18.563,2.267,1.5,7.354,4.459,9.25,2.184l20.747-20.747Z" transform="translate(-109.765 -290.69)"/>
    </g>
    <g id="Group_676" data-name="Group 676" transform="translate(103.55 280.892)">
      <path id="Path_1215" data-name="Path 1215" class="cls-10" d="M193.44,296.877c-53.9-11.478-87.534,42.647-87.534,70.362H206.27C226.4,341.733,226.443,303.906,193.44,296.877Z" transform="translate(-105.906 -295.303)"/>
    </g>
    <path id="Path_1216" data-name="Path 1216" class="cls-10" d="M194.4,305.011c-49.008-10.436-81.257,33.359-86.709,62.228h-1.782c0-27.715,33.633-81.84,87.534-70.362,18.179,3.871,26.314,17.092,26.606,32.447C217.406,317.6,209.263,308.177,194.4,305.011Z" transform="translate(-2.356 -14.411)"/>
    <g id="Group_678" data-name="Group 678" transform="translate(90.041 266.538)">
      <g id="Group_677" data-name="Group 677">
        <path id="Path_1217" data-name="Path 1217" class="cls-11" d="M251.585,280.444H202.721c-13.094,0-26.519-.881-39.588.055-42.018,3.008-64.569,46.578-71.519,83.085-.533,2.8,3.752,4,4.287,1.182,6.464-33.95,27.811-78.272,68.1-79.871,29.1-1.155,58.456,0,87.583,0,2.867,0,2.867-4.445,0-4.445Z" transform="translate(-91.568 -280.068)"/>
      </g>
    </g>
    <path id="Path_1218" data-name="Path 1218" class="cls-12" d="M292.663,226.714a4.351,4.351,0,0,0,5.153,2.721l27.412-5.616c2.3-.471,3.716-2.453,3.169-4.426h0a4.352,4.352,0,0,0-5.154-2.721l-27.412,5.616c-2.3.471-3.716,2.453-3.168,4.426Z" transform="translate(-13.143 -9.861)"/>
    <path id="Path_1219" data-name="Path 1219" class="cls-13" d="M292.67,226.887a4.351,4.351,0,0,0,5.153,2.721l27.412-5.616c2.3-.471,3.716-2.453,3.169-4.426h0l-35.733,7.32Z" transform="translate(-13.15 -10.034)"/>
    <g id="Group_679" data-name="Group 679" transform="translate(307.803 195.091)">
      <path id="Path_1220" data-name="Path 1220" class="cls-10" d="M354.078,216.339a14.57,14.57,0,0,1-11.886,16.833c-7.93,1.365-17.983-3.523-19.348-11.452s6.472-15.9,14.4-17.266A14.569,14.569,0,0,1,354.078,216.339Z" transform="translate(-322.687 -204.239)"/>
    </g>
    <path id="Path_1221" data-name="Path 1221" class="cls-9" d="M337.246,209.921c-6.37,1.1-12.669,6.457-14.2,12.631-.071-.277-.155-.549-.2-.834-1.366-7.931,6.472-15.9,14.4-17.266a14.54,14.54,0,0,1,16.772,17.089A14.564,14.564,0,0,0,337.246,209.921Z" transform="translate(-14.885 -9.148)"/>
    <path id="Path_1222" data-name="Path 1222" class="cls-14" d="M338.139,204.453a14.57,14.57,0,1,1,4.946,28.717Z" transform="translate(-15.778 -9.148)"/>
    <path id="Path_1223" data-name="Path 1223" class="cls-12" d="M344.86,211.431a19.48,19.48,0,0,0,7.19-1.39,14.566,14.566,0,0,1-8.9,23.465l-3.843-22.313C341.1,211.368,342.941,211.431,344.86,211.431Z" transform="translate(-15.845 -9.483)"/>
    <path id="Path_1224" data-name="Path 1224" class="cls-15" d="M344.829,204.8a14.548,14.548,0,0,1,4.477,26Z" transform="translate(-16.164 -9.18)"/>
    <path id="Path_1225" data-name="Path 1225" class="cls-16" d="M346.019,211.708l-1.19-6.908a14.528,14.528,0,0,1,10.362,17.3A14.542,14.542,0,0,0,346.019,211.708Z" transform="translate(-16.164 -9.18)"/>
    <path id="Path_1226" data-name="Path 1226" class="cls-17" d="M320.668,225.715a2.871,2.871,0,0,0,3.211,2.085h0a2.4,2.4,0,0,0,2.311-2.7l-1.4-7.463a2.871,2.871,0,0,0-3.211-2.085h0a2.4,2.4,0,0,0-2.312,2.7Z" transform="translate(-14.685 -9.801)"/>
    <g id="Group_680" data-name="Group 680" transform="translate(163.632 298.784)">
      <path id="Path_1227" data-name="Path 1227" class="cls-18" d="M183.562,315.382a1.091,1.091,0,0,0,1.091,1.091h9.693a1.09,1.09,0,0,0,1.09-1.091h0a1.09,1.09,0,0,0-1.09-1.09h-9.693a1.09,1.09,0,0,0-1.091,1.09Z" transform="translate(-170.476 -314.292)"/>
      <path id="Path_1228" data-name="Path 1228" class="cls-18" d="M183.562,348.048a1.09,1.09,0,0,0,1.091,1.09h9.693a1.09,1.09,0,0,0,1.09-1.09h0a1.091,1.091,0,0,0-1.09-1.091h-9.693a1.091,1.091,0,0,0-1.091,1.091Z" transform="translate(-170.476 -316.18)"/>
      <path id="Path_1229" data-name="Path 1229" class="cls-18" d="M174.046,320.784a1.09,1.09,0,0,0,1.09,1.09h26.173a1.09,1.09,0,0,0,1.091-1.09h0a1.091,1.091,0,0,0-1.091-1.091H175.136a1.091,1.091,0,0,0-1.09,1.091Z" transform="translate(-169.926 -314.604)"/>
      <path id="Path_1230" data-name="Path 1230" class="cls-18" d="M170.83,326.185a1.092,1.092,0,0,0,1.091,1.091h31.868a1.091,1.091,0,0,0,1.09-1.091h0a1.09,1.09,0,0,0-1.09-1.09H171.921a1.091,1.091,0,0,0-1.091,1.09Z" transform="translate(-169.74 -314.916)"/>
      <path id="Path_1231" data-name="Path 1231" class="cls-18" d="M169.673,331.844a1.09,1.09,0,0,0,1.09,1.09h33.868a1.091,1.091,0,0,0,1.091-1.09h0a1.092,1.092,0,0,0-1.091-1.091H170.763a1.091,1.091,0,0,0-1.09,1.091Z" transform="translate(-169.673 -315.243)"/>
      <path id="Path_1232" data-name="Path 1232" class="cls-18" d="M171.8,336.988a1.09,1.09,0,0,0,1.09,1.09h30.96a1.09,1.09,0,0,0,1.09-1.09h0a1.091,1.091,0,0,0-1.09-1.091h-30.96a1.091,1.091,0,0,0-1.09,1.091Z" transform="translate(-169.796 -315.541)"/>
      <path id="Path_1233" data-name="Path 1233" class="cls-18" d="M175.139,342.389a1.091,1.091,0,0,0,1.09,1.091h25.143a1.091,1.091,0,0,0,1.091-1.091h0a1.09,1.09,0,0,0-1.091-1.09H176.229a1.09,1.09,0,0,0-1.09,1.09Z" transform="translate(-169.989 -315.853)"/>
    </g>
    <g id="Group_681" data-name="Group 681" transform="translate(95.403 263.329)">
      <path id="Path_1234" data-name="Path 1234" class="cls-19" d="M97.259,276.663l39.29,13.217,16.857-9.986Z" transform="translate(-97.259 -276.663)"/>
    </g>
    <g id="Group_682" data-name="Group 682" transform="translate(70.385 259.316)">
      <path id="Path_1235" data-name="Path 1235" class="cls-8" d="M178.466,276.417a4.148,4.148,0,0,1-4.27,4.014H74.976a4.148,4.148,0,0,1-4.27-4.014h0a4.148,4.148,0,0,1,4.27-4.014H174.2a4.148,4.148,0,0,1,4.27,4.014Z" transform="translate(-70.706 -272.403)"/>
    </g>
    <rect id="Rectangle_448" data-name="Rectangle 448" class="cls-20" width="100.221" height="71.502" transform="translate(74.655 187.814)"/>
    <path id="Path_1236" data-name="Path 1236" class="cls-21" d="M165.924,258.813v-62.3h9.535v71.5H75.238v-9.2Z" transform="translate(-0.583 -8.701)"/>
    <text id="KHANA_SHANA" data-name="KHANA 
SHANA" class="cls-22" transform="translate(72.658 193.406)"><tspan x="14.819" y="20">KHANA </tspan><tspan x="16.007" y="42.8">SHANA</tspan></text>
    <path id="Path_1237" data-name="Path 1237" class="cls-23" d="M290.3,165.834s-8.8,28.861.879,31.181,24.574-11.907,37.581-37.287l2.747-10.376s-3.63,1.367-9.293,6.861-15.287,15.209-20.238,18.345l1.353-15.112Z" transform="translate(-12.801 -5.976)"/>
    <path id="Path_1238" data-name="Path 1238" class="cls-24" d="M234.866,210.992s-5.23,74.33,9.65,111.954l73.826,54.735,2.772-10.458-57.388-55.4s-8.563-33.825-4.229-54.5l11.434-2.637s2.354,95.462,7.059,149.182h10.54s10.436-150.466,4.281-183.8S234.866,210.992,234.866,210.992Z" transform="translate(-9.757 -9.045)"/>
    <g id="Group_683" data-name="Group 683" transform="translate(224.218 193.425)">
      <path id="Path_1239" data-name="Path 1239" class="cls-25" d="M275.434,324.05l8.74,7.249c-1.491-36.013-2.856-74.959-2.856-74.959L273.2,257.8C273.371,264.379,274.386,297.309,275.434,324.05Z" transform="translate(-236.242 -205.584)"/>
      <path id="Path_1240" data-name="Path 1240" class="cls-25" d="M283.7,352.031c-.116,2.123,2.605,6.3,2.491,8.327l35.023,25.966,1.436-5.416Z" transform="translate(-236.849 -211.115)"/>
      <path id="Path_1241" data-name="Path 1241" class="cls-25" d="M282.985,344.986l-29.728-22.04c-14.88-37.624-9.65-111.954-9.65-111.954s14.953-7,29.744-8.312c-16.948-1.774-38.484,8.312-38.484,8.312s-5.23,74.33,9.65,111.954l29.728,22.04c1.015,20.911,2.263,41.968,3.745,58.884h8.74C285.248,386.954,284,365.9,282.985,344.986Z" transform="translate(-233.975 -202.471)"/>
    </g>
    <path id="Path_1242" data-name="Path 1242" class="cls-26" d="M280.69,416.224V424.1s20.231,11.22,35.091,13.121c0,0,2.281-10.5-23.432-17.684l-1.118-3.311Z" transform="translate(-12.457 -21.4)"/>
    <path id="Path_1243" data-name="Path 1243" class="cls-27" d="M289.783,416.224H280.69V424.1s5.513,3.056,12.892,6.248A32.641,32.641,0,0,1,289.783,416.224Z" transform="translate(-12.457 -21.4)"/>
    <path id="Path_1244" data-name="Path 1244" class="cls-28" d="M280.69,422.009v2.423s20.231,11.22,35.091,13.121a5.776,5.776,0,0,0-.2-2.453C300.737,433.124,280.69,422.009,280.69,422.009Z" transform="translate(-12.457 -21.734)"/>
    <path id="Path_1245" data-name="Path 1245" class="cls-26" d="M325.037,379.926l14.849,10.889s-4.066,21.142-10.638,23.311h-16.16s-.239-6.361,10.752-9.389l3.692-15.422-4.165-3.083Z" transform="translate(-14.33 -19.302)"/>
    <path id="Path_1246" data-name="Path 1246" class="cls-27" d="M327.231,393.206a33.941,33.941,0,0,1,10.018,9.658,96.559,96.559,0,0,0,3.268-12.049l-14.849-10.889L324,386.232l4.165,3.083Z" transform="translate(-14.96 -19.302)"/>
    <g id="Group_684" data-name="Group 684" transform="translate(298.758 370.243)">
      <path id="Path_1247" data-name="Path 1247" class="cls-28" d="M338.154,390.135c-.579,2.83-4.5,20.927-10.561,22.927H313.4a5.2,5.2,0,0,0-.31,1.655h16.16c6.573-2.169,10.638-23.311,10.638-23.311Z" transform="translate(-313.088 -390.135)"/>
    </g>
    <path id="Path_1248" data-name="Path 1248" class="cls-9" d="M234.144,224.967s32.924,13.12,61.826,6.275c0,0-11.578-54.362-3.971-86.309,0,0-28.56-24.8-54.3-8.826C237.7,136.108,222.608,149.094,234.144,224.967Z" transform="translate(-9.516 -4.9)"/>
    <path id="Path_1249" data-name="Path 1249" class="cls-10" d="M275.625,205.378a54.715,54.715,0,0,1-29.069-22.527c-5.419-6.464-8.973-13.212-9.178-22.059a33.346,33.346,0,0,1,1.2-9.646,33.42,33.42,0,0,1,9.441-19.326,35.251,35.251,0,0,0-10.317,4.35s-15.094,12.986-3.559,88.859c0,0,32.924,13.12,61.826,6.275,0,0-2.177-10.231-4.023-24.42A39.729,39.729,0,0,1,275.625,205.378Z" transform="translate(-9.516 -4.962)"/>
    <path id="Path_1250" data-name="Path 1250" class="cls-29" d="M201.365,241.087c4.357,2.892.889,2.472,3.3,7.057.517-.319,11-4.276,11.267-4.838,6.712-14.108,16.259-92.226,16.259-92.226s-1.586-1.8-1.633-3.083c-2.072.185-4.212.252-6.436.252-1.014,0,7.484-12.985,6.507-13.106-.06.989-11.386,1-13.27,15.23C209.627,208.774,211.657,241.447,201.365,241.087Z" transform="translate(-7.873 -5.154)"/>
    <g id="Group_685" data-name="Group 685" transform="translate(193.492 129.989)">
      <path id="Path_1251" data-name="Path 1251" class="cls-30" d="M231.255,148c-2.072.185-4.213.252-6.436.252-1.014,0,7.484-12.985,6.507-13.106-.044.724-6.115.93-10.11,6.558,3.052-1.873,5.863-2.124,5.893-2.615.977.12-7.52,13.105-6.507,13.105,2.225,0,4.364-.066,6.436-.251.047,1.283,1.633,3.083,1.633,3.083s-8.68,71.028-15.306,89.858a15.812,15.812,0,0,0,3.264-1.575c6.712-14.108,16.259-92.226,16.259-92.226S231.3,149.282,231.255,148Z" transform="translate(-202.059 -135.143)"/>
      <path id="Path_1252" data-name="Path 1252" class="cls-30" d="M202.155,247.53a4.433,4.433,0,0,1-.79.053c.214.142.394.269.571.4C202.01,247.835,202.082,247.683,202.155,247.53Z" transform="translate(-201.365 -141.638)"/>
    </g>
    <path id="Path_1253" data-name="Path 1253" class="cls-9" d="M247.3,122.732s-15.008-4.742-23.49,6.289c-3.737,5.393-8.612,8.68-10.561,29.376,0,0,6.158,6.565,19.127,6.527l4.849-10.969,45.762.6,3.383,14.669,14.8-6.176s5.942-23.263-13.572-29.488C278.761,130.744,247.3,122.732,247.3,122.732Z" transform="translate(-8.56 -4.379)"/>
    <path id="Path_1254" data-name="Path 1254" class="cls-10" d="M236.422,152.453a90.124,90.124,0,0,1,5.962-30.613c-5.134-.469-13.174.159-18.573,7.181-3.737,5.393-8.612,8.68-10.561,29.376,0,0,6.158,6.565,19.127,6.527l4.166-9.425A29.13,29.13,0,0,1,236.422,152.453Z" transform="translate(-8.56 -4.379)"/>
    <path id="Path_1255" data-name="Path 1255" class="cls-29" d="M202.058,247.34s-11.586.93-11.313,8.17c0,0,1.187,9.725,2.47,8.122,0,0,1.947-.667,1.069-8.122,0,0-.214,9.689,3.709,9.716,1.355.009.927-9.785.927-9.785s.694,9.764,4.516,9.785c1.729.008.476-9.652.476-9.652s10.556.084,11.409-5.844S202.058,247.34,202.058,247.34Z" transform="translate(-7.259 -11.578)"/>
    <path id="Path_1256" data-name="Path 1256" class="cls-30" d="M213.643,246.908c-4.008,4.52-12.89,5.312-17.928,5.312a23.36,23.36,0,0,1-3.85-.361,5.691,5.691,0,0,0-1.12,3.686s1.187,9.725,2.47,8.122c0,0,1.225-.434,1.29-4.346.348,2.723,1.235,5.925,3.488,5.941,1.355.009.927-9.785.927-9.785s.694,9.764,4.516,9.785c1.729.008.476-9.652.476-9.652s10.556.084,11.409-5.844A2.484,2.484,0,0,0,213.643,246.908Z" transform="translate(-7.259 -11.614)"/>
    <g id="Group_686" data-name="Group 686" transform="translate(300.796 147.07)">
      <path id="Path_1257" data-name="Path 1257" class="cls-31" d="M316.225,171.122l-.974-15.778,33.552-2.072.975,15.778-.967.06L347.9,154.3l-31.617,1.952.914,14.811Z" transform="translate(-315.251 -153.272)"/>
    </g>
    <path id="Path_1258" data-name="Path 1258" class="cls-20" d="M315.133,170.278l35.506-2.192L345.813,196.1,323.37,197.49Z" transform="translate(-14.448 -7.058)"/>
    <path id="Path_1259" data-name="Path 1259" class="cls-29" d="M250.111,122.98s-2.049,15.857,13.951,17.046,12.411-10.206,12.411-10.206Z" transform="translate(-10.685 -4.451)"/>
    <path id="Path_1260" data-name="Path 1260" class="cls-29" d="M248.624,76.645c-5.31,17.708,2.494,36.32,17.791,40.281,17.507,4.533,31.71-6.138,37.019-23.847S300.779,57.336,285.643,52.8,253.933,58.936,248.624,76.645Z" transform="translate(-10.508 -0.335)"/>
    <path id="Path_1261" data-name="Path 1261" class="cls-30" d="M255,95.942a50.766,50.766,0,0,1,2.309-9.754,44.087,44.087,0,0,1,4.56-8.753,26.63,26.63,0,0,1,10.546-8.611l6.85-2.049A26.6,26.6,0,0,1,304.746,77.1c-1.564-11.519-8.607-21.159-19.1-24.306-15.136-4.539-31.71,6.138-37.019,23.847-4.436,14.794.285,30.211,10.877,37.2A25.68,25.68,0,0,1,255,95.942Z" transform="translate(-10.508 -0.335)"/>
    <path id="Path_1262" data-name="Path 1262" class="cls-30" d="M259.4,117.464l-2.536,12.513,12.117,4.144L271.5,122.16A20.738,20.738,0,0,1,259.4,117.464Z" transform="translate(-11.081 -4.133)"/>
    <path id="Path_1263" data-name="Path 1263" class="cls-29" d="M265.682,125.3a19.53,19.53,0,0,1-7.488-1.506l-1.328,6.548,12.117,4.144,1.977-9.4C269.26,125.243,267.5,125.3,265.682,125.3Z" transform="translate(-11.081 -4.499)"/>
    <path id="Path_1264" data-name="Path 1264" class="cls-32" d="M246.979,93.486a62.074,62.074,0,0,0,4.374,10.691c.449.836.937,1.646,1.421,2.45s1,1.582,1.556,2.328c.263.384.56.74.847,1.1s.584.713.889,1.055a23.68,23.68,0,0,0,1.893,1.967l1.007.9,1.06.827a22.37,22.37,0,0,0,2.244,1.434,8.915,8.915,0,0,0,1.18.6c.408.167.788.4,1.211.531l1.243.454,1.28.341a11.163,11.163,0,0,0,1.3.274,11.448,11.448,0,0,0,1.318.2,23.547,23.547,0,0,0,2.686.156,26.356,26.356,0,0,0,2.72-.106c.911-.063,1.821-.235,2.735-.344l-.17.043,2.746-.856,1.381-.416a12.352,12.352,0,0,0,1.342-.489l2.662-1.049c.827-.442,1.678-.852,2.529-1.28a9.107,9.107,0,0,0,1.2-.74l1.184-.783a12,12,0,0,0,1.113-.879c.357-.311.751-.592,1.086-.934s.664-.693,1.011-1.035a14.657,14.657,0,0,0,.983-1.09l1.951-2.25c-.428.9-.847,1.8-1.328,2.68-.239.44-.457.894-.742,1.314-.269.431-.547.856-.832,1.282s-.642.794-.963,1.2a13.7,13.7,0,0,1-1.023,1.165l-1.153,1.036a10.72,10.72,0,0,1-1.193.993c-.845.581-1.685,1.19-2.557,1.749l-2.722,1.415a13.858,13.858,0,0,1-1.379.67l-1.411.567-2.84,1.109-.062.024-.108.019c-1.009.18-2.007.418-3.032.545a26.338,26.338,0,0,1-3.1.231c-.522,0-1.044.038-1.568,0l-1.573-.124a14.862,14.862,0,0,1-1.567-.225,12.57,12.57,0,0,1-1.555-.319l-1.535-.429-1.494-.562a14.352,14.352,0,0,1-1.449-.665,11.784,11.784,0,0,1-1.394-.769,21.638,21.638,0,0,1-2.6-1.808l-1.19-1.034c-.378-.362-.742-.737-1.108-1.108a26.922,26.922,0,0,1-1.986-2.388,14.45,14.45,0,0,1-.876-1.268c-.277-.432-.562-.856-.806-1.3-.519-.877-.982-1.781-1.423-2.69s-.8-1.853-1.149-2.791c-.336-.944-.655-1.891-.923-2.85-.253-.965-.488-1.93-.682-2.9-.211-.968-.333-1.954-.463-2.93A25.972,25.972,0,0,1,246.979,93.486Z" transform="translate(-10.509 -2.747)"/>
    <path id="Path_1265" data-name="Path 1265" class="cls-33" d="M261.278,115.649c-.421-.273-.836-.557-1.252-.841l-1.06-.827-1.007-.9a23.68,23.68,0,0,1-1.893-1.967c-.305-.342-.61-.687-.889-1.055s-.584-.716-.847-1.1c-.553-.746-1.062-1.53-1.556-2.328s-.971-1.614-1.421-2.45a62.074,62.074,0,0,1-4.374-10.691,25.972,25.972,0,0,0,.193,2.949c.13.976.252,1.963.463,2.93.194.971.429,1.936.682,2.9.269.959.587,1.905.923,2.85.352.937.714,1.879,1.149,2.791s.9,1.813,1.423,2.69c.244.448.529.872.806,1.3a14.45,14.45,0,0,0,.876,1.268,26.922,26.922,0,0,0,1.986,2.388c.367.371.73.746,1.108,1.108l1.19,1.034a21.638,21.638,0,0,0,2.6,1.808,11.784,11.784,0,0,0,1.394.769c.236.109.466.23.7.345A28.7,28.7,0,0,1,261.278,115.649Z" transform="translate(-10.509 -2.747)"/>
    <path id="Path_1266" data-name="Path 1266" class="cls-18" d="M309.4,79.4c.219-15.028-8.6-28.358-22.815-32.3-17.657-4.9-36.976,6.525-43.345,25.552,0,0-3.738,11.881,0,22.79,0,0,7.511-9.366,11.511-19.329h0l13.831-4.491,20.959,7.836,5.213,9.89h0c-1.429,4.719-2.481,12.014,1.892,17.727C296.65,107.069,311.049,95.436,309.4,79.4Z" transform="translate(-10.197 0)"/>
    <path id="Path_1267" data-name="Path 1267" class="cls-10" d="M267.655,68.83a26.841,26.841,0,0,1,9.608-17.651,23.86,23.86,0,0,1,8.055-4.4c-17.3-4.028-35.857,7.295-42.075,25.866,0,0-3.738,11.881,0,22.79,0,0,7.511-9.366,11.511-19.329h0l12.776-4.149A23.132,23.132,0,0,1,267.655,68.83Z" transform="translate(-10.197 -0.001)"/>
    <g id="Group_687" data-name="Group 687" transform="translate(230.272 68.58)">
      <path id="Path_1268" data-name="Path 1268" class="cls-34" d="M245.23,98.88c1.7-2.048,3.251-4.219,4.751-6.414,3.139-4.594,4.942-9.738,7.711-14.465,2.747-4.691,14.866-1.41,18.582-.357A37.674,37.674,0,0,1,286.842,82.5c1.3.86,5.993,4.881,5.367,6.433-2.886,7.16-2.487,15.431,2.316,21.58,2.307,2.954,6.393-1.194,4.113-4.113-5.658-7.244,1.537-14.8-2.257-22.194-3.531-6.884-12.553-10.467-19.513-12.44-6.562-1.86-15.469-3.153-21.59.7-3.661,2.3-4.631,7.33-6.545,10.9a69.224,69.224,0,0,1-7.617,11.4c-2.375,2.864,1.717,7,4.113,4.113Z" transform="translate(-240.401 -69.968)"/>
    </g>
    <g id="Group_688" data-name="Group 688" transform="translate(257.468 68.668)">
      <path id="Path_1269" data-name="Path 1269" class="cls-34" d="M300.306,106.4c-5.658-7.244,1.537-14.8-2.257-22.194-3.531-6.884-12.553-10.467-19.513-12.44a46.826,46.826,0,0,0-9.271-1.71,24.765,24.765,0,0,1,.205,5.75,61.173,61.173,0,0,1,8.471,1.838A37.673,37.673,0,0,1,288.51,82.5c1.3.86,5.993,4.881,5.367,6.433-2.886,7.16-2.486,15.431,2.316,21.58C298.5,113.471,302.586,109.324,300.306,106.4Z" transform="translate(-269.265 -70.061)"/>
    </g>
    <path id="Path_1270" data-name="Path 1270" class="cls-35" d="M256.913,87.792a6.008,6.008,0,0,1,6.341-3.36c4.488.741,3.593,5.694,3.593,5.694" transform="translate(-11.083 -2.218)"/>
    <path id="Path_1271" data-name="Path 1271" class="cls-35" d="M280.055,93.147a6.008,6.008,0,0,1,6.629-2.748c4.4,1.161,3.04,6.008,3.04,6.008" transform="translate(-12.421 -2.556)"/>
    <path id="Path_1272" data-name="Path 1272" d="M256.926,80.172s3.092-7.874,13.846-2.994L268.616,79.9S263.763,77.841,256.926,80.172Z" transform="translate(-11.084 -1.712)"/>
    <path id="Path_1273" data-name="Path 1273" d="M293.744,89.38s.8-8.421-11-8.926l.691,3.406S288.7,84.212,293.744,89.38Z" transform="translate(-12.576 -1.994)"/>
    <path id="Path_1274" data-name="Path 1274" class="cls-30" d="M277,93.112s-.335,4.442,2.9,4.445,1.953,4.98-2,4.9-5.175-6.652-4.223-8.691S277.31,90.215,277,93.112Z" transform="translate(-12.034 -2.632)"/>
    <path id="Path_1275" data-name="Path 1275" class="cls-20" d="M258.532,99.8s14.236,8.62,24.74,6.589a13.349,13.349,0,0,1-12.408,3.788A15.372,15.372,0,0,1,258.532,99.8Z" transform="translate(-11.177 -3.112)"/>
    <path id="Path_1276" data-name="Path 1276" class="cls-36" d="M264.274,111.086s7.441,4.567,11.924,1.981" transform="translate(-11.509 -3.764)"/>
    <path id="Path_1277" data-name="Path 1277" class="cls-23" d="M325.332,155.972s1.178,3.9,2.677,4.833c3.359,2.084,9.827-.236,9.525-3.373S325.332,155.972,325.332,155.972Z" transform="translate(-15.038 -6.332)"/>
    <path id="Path_1278" data-name="Path 1278" class="cls-29" d="M342.945,149.772c-.291-.051-1.377-.067-2.43-.1-.094-.018-.182-.042-.281-.054-4.524-.527-8.135-.832-10.551,1a14.214,14.214,0,0,0-3.562,3.861c7.4-1.051,4.543,5.27,4.543,5.27-1.455,5.621,3.513,1.7,3.513,1.7,2.321,2.554,4.181-.364,4.181-.364.905,1.482,2.165,1.3,3.006-.027.34.154.025-.157,0,0C344.325,165.753,350.406,151.083,342.945,149.772Z" transform="translate(-15.083 -5.968)"/>
  </g>
</svg>
