<svg xmlns="http://www.w3.org/2000/svg" xmlns:xlink="http://www.w3.org/1999/xlink" width="254" height="48" viewBox="0 0 254 48">
  <defs>
    <filter id="Rectangle_1108" x="12" y="14" width="227" height="20" filterUnits="userSpaceOnUse">
      <feOffset dy="3" input="SourceAlpha"/>
      <feGaussianBlur stdDeviation="3" result="blur"/>
      <feFlood flood-opacity="0.161"/>
      <feComposite operator="in" in2="blur"/>
      <feComposite in="SourceGraphic"/>
    </filter>
    <filter id="Ellipse_3145" x="0" y="0" width="48" height="48" filterUnits="userSpaceOnUse">
      <feOffset dy="3" input="SourceAlpha"/>
      <feGaussianBlur stdDeviation="3" result="blur-2"/>
      <feFlood flood-opacity="0.161"/>
      <feComposite operator="in" in2="blur-2"/>
      <feComposite in="SourceGraphic"/>
    </filter>
    <filter id="Ellipse_3146" x="103" y="0" width="48" height="48" filterUnits="userSpaceOnUse">
      <feOffset dy="3" input="SourceAlpha"/>
      <feGaussianBlur stdDeviation="3" result="blur-3"/>
      <feFlood flood-opacity="0.161"/>
      <feComposite operator="in" in2="blur-3"/>
      <feComposite in="SourceGraphic"/>
    </filter>
    <filter id="Ellipse_3147" x="206" y="0" width="48" height="48" filterUnits="userSpaceOnUse">
      <feOffset dy="3" input="SourceAlpha"/>
      <feGaussianBlur stdDeviation="3" result="blur-4"/>
      <feFlood flood-opacity="0.161"/>
      <feComposite operator="in" in2="blur-4"/>
      <feComposite in="SourceGraphic"/>
    </filter>
  </defs>
  <g id="step2" transform="translate(-810 -338)">
    <g transform="matrix(1, 0, 0, 1, 810, 338)" filter="url(#Rectangle_1108)">
      <rect id="Rectangle_1108-2" data-name="Rectangle 1108" width="209" height="2" rx="1" transform="translate(21 20)" fill="#b0463d"/>
    </g>
    <g transform="matrix(1, 0, 0, 1, 810, 338)" filter="url(#Ellipse_3145)">
      <circle id="Ellipse_3145-2" data-name="Ellipse 3145" cx="15" cy="15" r="15" transform="translate(9 6)" fill="#b0463d"/>
    </g>
    <g transform="matrix(1, 0, 0, 1, 810, 338)" filter="url(#Ellipse_3146)">
      <circle id="Ellipse_3146-2" data-name="Ellipse 3146" cx="15" cy="15" r="15" transform="translate(112 6)" fill="#b0463d"/>
    </g>
    <g transform="matrix(1, 0, 0, 1, 810, 338)" filter="url(#Ellipse_3147)">
      <circle id="Ellipse_3147-2" data-name="Ellipse 3147" cx="15" cy="15" r="15" transform="translate(215 6)" fill="#ca9b97"/>
    </g>
  </g>
</svg>
