<svg xmlns="http://www.w3.org/2000/svg" xmlns:xlink="http://www.w3.org/1999/xlink" width="378" height="434.544" viewBox="0 0 378 434.544">
  <defs>
    <filter id="Rectangle_1223" x="0" y="339.544" width="378" height="95" filterUnits="userSpaceOnUse">
      <feOffset dy="3" input="SourceAlpha"/>
      <feGaussianBlur stdDeviation="3" result="blur"/>
      <feFlood flood-opacity="0.161"/>
      <feComposite operator="in" in2="blur"/>
      <feComposite in="SourceGraphic"/>
    </filter>
    <linearGradient id="linear-gradient" x1="0.5" y1="1" x2="0.5" gradientUnits="objectBoundingBox">
      <stop offset="0" stop-color="gray" stop-opacity="0.251"/>
      <stop offset="0.54" stop-color="gray" stop-opacity="0.122"/>
      <stop offset="1" stop-color="gray" stop-opacity="0.102"/>
    </linearGradient>
    <linearGradient id="linear-gradient-2" x1="0.507" y1="1.003" x2="0.507" y2="0" xlink:href="#linear-gradient"/>
  </defs>
  <g id="verify" transform="translate(-752 -423.456)">
    <g id="Group_10727" data-name="Group 10727" transform="translate(818.726 649)">
      <g transform="matrix(1, 0, 0, 1, -66.73, -225.54)" filter="url(#Rectangle_1223)">
        <rect id="Rectangle_1223-2" data-name="Rectangle 1223" width="360" height="77" rx="26" transform="translate(9 345.54)" fill="#949e90" opacity="0.45"/>
      </g>
      <text id="Verification_Email_sent" data-name="Verification Email sent" transform="translate(119.274 166)" fill="#b0463d" font-size="23" font-family="CaviarDreams-Bold, Caviar Dreams" font-weight="700" letter-spacing="0.1em"><tspan x="-148.386" y="0">Verification Email sent</tspan></text>
    </g>
    <g id="undraw_super_thank_you_obwk_2_" data-name="undraw_super_thank_you_obwk (2)" transform="translate(772.663 423.276)">
      <ellipse id="Ellipse_3160" data-name="Ellipse 3160" cx="79.288" cy="6.063" rx="79.288" ry="6.063" transform="translate(97.082 292.342)" fill="#3c82ff" opacity="0.19"/>
      <path id="Path_10095" data-name="Path 10095" d="M243.686,87.862c11.116-9.922,28.6-11.944,44.517-11.144,49.974,2.481,95.09,26.61,134.106,53.9,14.124,9.882,28.033,20.528,37.206,34.133,18.667,27.7,13.127,66.067-12.83,88.883-8.832,7.763-19.535,13.715-30.525,19-19.542,9.38-40.63,16.91-62.808,19.051-15.817,1.531-31.83.287-47.554-1.847-43.925-5.981-87.047-19.137-123.191-41.7-15.853-9.886-30.794-22.174-37.327-38.17s-2.352-36.259,13.834-45.725c6.695-3.916,14.7-5.683,22.536-7.344,11.535-2.445,23.257-4.855,33.666-9.821,10.757-5.135,23.479-15.06,21.353-26.416C234.384,108.48,232.57,97.773,243.686,87.862Z" transform="translate(-142.33 -58.175)" fill="#6c63ff"/>
      <path id="Path_10096" data-name="Path 10096" d="M243.686,87.862c11.116-9.922,28.6-11.944,44.517-11.144,49.974,2.481,95.09,26.61,134.106,53.9,14.124,9.882,28.033,20.528,37.206,34.133,18.667,27.7,13.127,66.067-12.83,88.883-8.832,7.763-19.535,13.715-30.525,19-19.542,9.38-40.63,16.91-62.808,19.051-15.817,1.531-31.83.287-47.554-1.847-43.925-5.981-87.047-19.137-123.191-41.7-15.853-9.886-30.794-22.174-37.327-38.17s-2.352-36.259,13.834-45.725c6.695-3.916,14.7-5.683,22.536-7.344,11.535-2.445,23.257-4.855,33.666-9.821,10.757-5.135,23.479-15.06,21.353-26.416C234.384,108.48,232.57,97.773,243.686,87.862Z" transform="translate(-142.33 -58.175)" fill="#949e90"/>
      <path id="Path_10097" data-name="Path 10097" d="M574.168,51.883v.642a4.149,4.149,0,0,1-.025.552v.115c0,.154-.018.308-.032.459v.133a.485.485,0,0,1,0,.072,4.138,4.138,0,0,1-.036.42c-.014.14-.025.222-.036.337-.032.276-.068.552-.111.828-.025.183-.054.359-.082.545a.158.158,0,0,0,0,.039c-.018.09-.032.179-.05.273s-.018.1-.029.158a.4.4,0,0,1-.029.143,1.808,1.808,0,0,0-.057.287c-.022.093-.039.19-.061.287s-.029.14-.047.212-.054.24-.082.359a.044.044,0,0,0,0,.022l-.065.247-.075.3c-.032.122-.068.244-.1.359a.125.125,0,0,1-.029.1l-.108.359c-.115.38-.24.76-.359,1.137l-.129.359-.075.2a25.462,25.462,0,0,1-3.5,6.282c-.086.122-.179.24-.269.359a26.783,26.783,0,0,1-2.205,2.51l-36.664,36.668L493.256,69.97a25.968,25.968,0,0,1-2.869-3.414,25.1,25.1,0,0,1-1.492-2.381,25.942,25.942,0,0,1-3.134-14.741c.039-.47.093-.939.158-1.406.115-.825.273-1.646.466-2.46.039-.165.082-.33.126-.491.021-.082.043-.169.065-.247s.025-.1.039-.151l.108-.359h0c.086-.283.172-.567.265-.85l.133-.387c.194-.549.4-1.076.631-1.628l.14-.319c.072-.161.143-.323.219-.484.122-.258.247-.516.359-.771l.032-.057h0c.057-.118.118-.229.179-.359l.212-.391c.09-.161.183-.323.276-.484.043-.075.09-.151.133-.229s.054-.082.079-.129a.157.157,0,0,0,0-.025h0c.057-.093.115-.186.176-.28s.133-.212.2-.316c.151-.233.3-.466.463-.7l.169-.24.212-.29c.072-.1.147-.2.226-.3l.273-.359c.086-.1.169-.212.251-.316l.09-.108.183-.222c.093-.115.19-.226.287-.337l.126-.147.022-.025.219-.244.244-.269c.229-.247.466-.495.717-.717l.283-.28.441-.416c.1-.09.194-.179.294-.265s.229-.208.359-.308l.229-.194c.075-.068.154-.133.229-.194a5.8,5.8,0,0,1,.466-.359l.237-.186c.394-.3.792-.592,1.2-.871l.244-.165.247-.161.233-.151.359-.215.172-.1.251-.147c.337-.2.674-.387,1.015-.567l.2-.108.316-.161.262-.129.262-.122.262-.126.265-.118.265-.115c.359-.154.717-.3,1.076-.434l.233-.143.287-.1.255-.09.215-.072.495-.158.255-.079.2-.057.2-.057q.179-.054.359-.1l.473-.122c.488-.118.979-.226,1.47-.316l.2-.036.28-.047.287-.047.359-.054.212-.029c.473-.061.947-.111,1.434-.147h3.331a2.068,2.068,0,0,1,.359.022h.244c.38.029.76.068,1.137.111l.509.068.359.05.283.047.283.047.187.032q.735.136,1.463.312l.6.154.165.047.255.072c.165.047.33.093.491.147l.215.068q.538.165,1.076.359l.244.09.319.122.48.194c.187.079.359.158.549.24l.215.093.294.14.262.122.258.129.326.165.258.136c.2.108.4.215.6.33l.251.143c.294.169.581.359.868.527l.233.151.247.161.244.165h0l.161.111c.359.24.685.491,1.022.749l.237.186c.154.122.312.247.466.359.075.061.154.125.23.194l.229.194.359.308c.1.086.2.176.294.265l.412.437.283.28.287-.28.437-.416c.1-.09.194-.179.294-.265s.229-.208.359-.308l.229-.194c.075-.068.154-.133.229-.194a5.775,5.775,0,0,1,.466-.359l.237-.186c.394-.3.792-.592,1.2-.871l.244-.165.247-.161.233-.151.341-.215.172-.1.251-.147c.337-.2.674-.387,1.015-.567l.2-.108.316-.161.262-.129.262-.122.262-.125.265-.118.265-.115c.359-.154.717-.3,1.076-.434.086-.032.176-.068.265-.1l.283-.1.258-.09.212-.072.495-.158.255-.079.2-.057.2-.057c.118-.036.237-.068.359-.1l.47-.122c.488-.118.979-.226,1.47-.316l.2-.036.28-.047.287-.047.359-.054.211-.029c.473-.061.947-.111,1.434-.147h3.3a2.068,2.068,0,0,1,.359.022h.244c.38.029.76.068,1.137.111l.509.068.359.05.283.047.283.047.186.032q.735.136,1.463.312l.6.154.165.047.255.072c.165.047.33.093.495.147l.212.068c.358.111.717.233,1.076.359l.24.09.319.122.48.194c.187.079.359.158.549.24l.215.093.294.14.262.122.258.129.326.165.262.136c.2.108.4.215.6.33l.251.143c.294.169.585.359.868.527l.233.151.247.161.244.165h.018l.161.111c.359.24.685.491,1.022.749l.237.186c.154.122.312.247.466.359.075.061.154.125.229.194l.23.194.3.265c.1.09.2.179.3.273l.168.154h0a.158.158,0,0,1,.025.025c.1.086.19.179.287.269l.129.125c.05.054.1.1.154.154l.283.29c.143.147.287.3.427.452.082.086.165.176.244.265.136.151.269.3.4.455l.423.506c.484.6.936,1.2,1.362,1.829l.172.262c.065.093.122.186.183.28l.154.24c.086.14.172.276.255.416l.226.387c.047.079.093.158.136.237l.1.186.1.186.15.283.147.283q.506.99.918,2.019l.118.29c.111.283.215.563.316.85l.09.258c.039.122.082.244.118.359s.072.219.1.33l.065.208c.032.1.061.2.09.3s.068.247.1.359c.054.2.1.4.154.606l.075.316c.036.151.068.3.1.452a.925.925,0,0,0,.039.194c.014.065.036.172.05.258s.029.136.039.2l.032.172a.322.322,0,0,0,.029.161c.029.054,0,.1.025.158l.054.323a2,2,0,0,0,.047.323c.018.108.032.24.047.359s.029.229.039.359l.021.2c0,.118.025.237.036.359v.176c0,.122.021.244.029.359a.053.053,0,0,1,0,.025v.463a2.817,2.817,0,0,0,.018.387h0v.4A4.589,4.589,0,0,1,574.168,51.883Z" transform="translate(-362.558 -25.61)" fill="#b0463d"/>
      <path id="Path_10098" data-name="Path 10098" d="M575.439,51.883v.642a4.149,4.149,0,0,1-.025.552v.115c0,.154-.018.308-.032.459v.133a.521.521,0,0,1,0,.072,4.1,4.1,0,0,1-.036.42c-.014.14-.025.222-.036.337-.032.276-.068.552-.111.828-.025.183-.054.359-.082.545a.164.164,0,0,0,0,.039c-.018.09-.032.179-.05.273s-.018.1-.029.158a.4.4,0,0,1-.029.143,1.822,1.822,0,0,0-.057.287c-.022.093-.039.19-.061.287s-.029.14-.047.212-.054.24-.082.359a.046.046,0,0,0,0,.022l-.065.247-.075.3c-.032.122-.068.244-.1.359a.124.124,0,0,1-.029.1l-.107.359c-.115.38-.24.76-.359,1.137l-.129.359-.075.2A25.942,25.942,0,0,0,562.513,32.85q-.7-.445-1.413-.839a25.918,25.918,0,0,0-30.873,4.432,25.984,25.984,0,0,0-3.166-2.689h0a25.553,25.553,0,0,0-2.682-1.7,25.979,25.979,0,0,0-24.964,0,25.619,25.619,0,0,0-3.682,2.46,26.488,26.488,0,0,0-6.454,7.555.13.13,0,0,1,0,.032,24.609,24.609,0,0,0-1.108,2.22c-.186.416-.359.839-.52,1.262.039-.165.083-.33.126-.491.021-.082.043-.169.065-.247s.025-.1.039-.151l.108-.359h0c.086-.283.172-.567.265-.85l.133-.387c.194-.549.4-1.076.631-1.628l.14-.319c.072-.161.143-.323.219-.484.122-.258.247-.516.359-.771l.032-.057h0c.057-.118.118-.229.179-.359l.212-.391c.09-.161.183-.323.276-.484.043-.075.09-.151.133-.229s.054-.082.079-.129a.172.172,0,0,0,0-.025h0c.057-.093.115-.186.176-.28s.133-.212.2-.316c.151-.233.3-.466.463-.7l.169-.24.211-.29c.072-.1.147-.2.226-.3l.273-.359c.086-.1.169-.212.251-.316l.09-.108.183-.222c.093-.115.19-.226.287-.337l.126-.147.021-.025.219-.244.244-.269c.23-.247.466-.495.717-.717l.283-.28.441-.416c.1-.09.194-.179.294-.265s.23-.208.359-.308l.229-.194c.075-.068.154-.133.229-.194a5.807,5.807,0,0,1,.466-.359l.237-.186c.394-.3.792-.592,1.2-.871l.244-.165.247-.161.233-.151.359-.215.172-.1.251-.147c.337-.2.674-.387,1.015-.567l.2-.108.315-.161.262-.129.262-.122.262-.126.265-.118.265-.115c.359-.154.717-.3,1.076-.434l.24-.158.287-.1.255-.09.215-.072.495-.158.255-.079.2-.057.2-.057q.179-.054.359-.1l.473-.122c.488-.118.979-.226,1.47-.316l.2-.036.28-.047.287-.047.359-.054.212-.029c.473-.061.947-.111,1.434-.147h3.331a2.065,2.065,0,0,1,.359.022h.244c.38.029.76.068,1.137.111l.509.068.358.05.283.047.283.047.187.032q.735.136,1.463.312l.6.154.165.047.255.072c.165.047.33.093.491.147l.215.068q.538.165,1.076.359l.244.09.319.122.48.194c.187.079.359.158.549.24l.215.093.294.14.262.122.258.129.326.165.258.136c.2.108.4.215.6.33l.251.143c.294.169.581.359.868.527l.233.151.247.161.244.165h0l.161.111c.359.24.685.491,1.022.749l.237.186c.154.122.312.247.466.359.075.061.154.125.23.194l.229.194.359.308c.1.086.2.176.294.265l.412.437.283.28.287-.28.437-.416c.1-.09.194-.179.294-.265s.229-.208.359-.308l.229-.194c.075-.068.154-.133.229-.194a5.807,5.807,0,0,1,.466-.359l.237-.186c.394-.3.792-.592,1.2-.871l.244-.165.247-.161.233-.151.341-.215.172-.1.251-.147c.337-.2.674-.387,1.015-.567l.2-.108.316-.161.262-.129.262-.122.262-.125L539,27.97l.265-.115c.359-.154.717-.3,1.076-.434.086-.032.176-.068.265-.1l.283-.1.258-.09.212-.072.495-.158.255-.079.2-.057.2-.057c.118-.036.237-.068.359-.1l.47-.122c.488-.118.979-.226,1.47-.316l.2-.036.28-.047.287-.047.358-.054.212-.029c.473-.061.947-.111,1.434-.147h3.3a2.067,2.067,0,0,1,.359.022h.244c.38.029.76.068,1.137.111l.509.068.358.05.283.047.283.047.187.032q.735.136,1.463.312l.6.154.165.047.255.072c.165.047.33.093.495.147l.211.068c.359.111.717.233,1.076.359l.24.09.319.122.481.194c.186.079.358.158.549.24l.215.093.294.14.262.122.258.129.326.165.262.136c.2.108.4.215.6.33l.251.143c.294.169.584.359.868.527l.233.151.247.161.244.165h.018l.161.111c.359.24.685.491,1.022.749l.237.186c.154.122.312.247.466.359.075.061.154.125.23.194l.229.194.3.265c.1.09.2.179.3.273l.168.154h0a.165.165,0,0,1,.025.025c.1.086.19.179.287.269l.129.125c.05.054.1.1.154.154l.283.29c.143.147.287.3.427.452.082.086.165.176.244.265.136.151.269.3.4.455l.423.506c.484.6.936,1.2,1.363,1.829l.172.262c.065.093.122.186.183.28l.154.24c.086.14.172.276.255.416L572,38.7c.047.079.093.158.136.237l.1.186.1.186.151.283.147.283q.506.99.918,2.019l.118.29c.111.283.215.563.315.85l.09.258c.039.122.082.244.118.359s.072.219.1.33l.064.208c.032.1.061.2.09.3s.068.247.1.359c.054.2.1.4.154.606l.075.316c.036.151.068.3.1.452a.936.936,0,0,0,.039.194c.014.065.036.172.05.258s.029.136.039.2l.032.172a.321.321,0,0,0,.029.161c.029.054,0,.1.025.158l.054.323a2,2,0,0,0,.047.323c.018.108.032.24.047.359s.029.229.039.359l.021.2c0,.118.025.237.036.359v.176c0,.122.021.244.029.359a.053.053,0,0,1,0,.025v.463a2.789,2.789,0,0,0,.018.387h0v.4A4.588,4.588,0,0,1,575.439,51.883Z" transform="translate(-363.83 -25.61)" opacity="0.1"/>
      <path id="Path_10099" data-name="Path 10099" d="M851.486,307.312v.57a.044.044,0,0,1,0,.021v.229l-.032.255a1.315,1.315,0,0,1-.025.165h0v.133a.181.181,0,0,1,0,.043v.09a.71.71,0,0,1-.018.086v.065a.2.2,0,0,1-.025.111h0l-.021.075-.021.09-.032.111v.032a.74.74,0,0,1-.036.111c-.032.118-.072.233-.111.359a.41.41,0,0,1-.039.111.457.457,0,0,1-.025.061,7.726,7.726,0,0,1-1.047,1.911l-.082.111a7.9,7.9,0,0,1-.674.764l-11.313,11.2-11.191-11.191a7.981,7.981,0,0,1-.878-1.04,8.148,8.148,0,0,1-.455-.717,7.944,7.944,0,0,1-.957-4.5,2.918,2.918,0,0,1,.05-.43c.036-.251.082-.5.143-.749a.58.58,0,0,1,.036-.151l.022-.075v-.047l.032-.111h0c.025-.086.054-.172.082-.258s.025-.079.039-.118q.086-.254.194-.495l.043-.1.065-.147c.039-.079.075-.158.118-.233v-.018h0l.057-.1.064-.118c.025-.05.054-.1.083-.151l.043-.068.021-.039h0c0-.029.032-.057.05-.086s.043-.065.061-.1.093-.143.143-.212l.05-.075.065-.09.068-.09.086-.111.075-.1.029-.032.054-.068.09-.1.036-.043h0l.068-.075c.022-.029.05-.054.075-.082s.14-.151.215-.226l.086-.083.133-.129.09-.082.107-.093.068-.057.072-.061.14-.115.075-.057c.118-.09.24-.179.359-.265l.075-.05.072-.05.072-.043.107-.068.05-.029.079-.047c.1-.061.2-.118.308-.172l.061-.032.1-.05.079-.039.082-.039.079-.036.079-.036.082-.036.326-.133.083-.029.086-.032.079-.029.064-.021.151-.047.079-.025.061-.018.061-.018.111-.029.143-.036c.147-.039.3-.072.448-.1h.409c.143-.018.287-.036.434-.047h1.2l.359.036.158.022h.333c.151.025.3.057.448.093l.179.047h.05l.079.022.151.047.065.018c.111.036.219.072.326.115l.075.025.1.039.147.057.165.072.068.032.09.039.079.039.079.04.1.05.079.043.183.1.075.047c.09.05.179.1.265.161l.072.043.075.05.075.05h0l.05.036.312.226a.559.559,0,0,0,.072.057l.143.115.068.061.072.057.1.093.09.082.133.129a.963.963,0,0,1,.09.082.635.635,0,0,1,.086-.082l.133-.129.09-.082.1-.093.072-.057.068-.061.144-.115a.557.557,0,0,0,.072-.057l.359-.265.075-.05.075-.05.072-.043.1-.068.054-.029.075-.047q.154-.093.312-.172l.061-.032.1-.05.079-.039.079-.04.082-.036.079-.036.083-.036.326-.133.082-.029.086-.032.079-.029.065-.022.151-.047.079-.025.061-.018.061-.018.108-.029.143-.036q.226-.057.452-.1h.405c.147-.018.29-.036.434-.047h1.2l.359.036a.375.375,0,0,1,.154.021h.337c.147.025.3.057.445.093l.183.047h.05l.079.021.151.047.065.018c.108.036.219.072.326.115l.072.025.1.039.147.057.169.072.064.032.09.039.082.039.079.039.1.05.082.043.179.1.079.047c.09.05.176.1.265.161l.072.043.072.05.075.05h0l.047.036q.161.108.312.226l.075.057.14.115.072.061.068.057.093.082.09.082.05.047h0l.086.082.039.036.047.047.086.09.133.136c.025.029.05.054.072.082l.126.14.129.154a5.948,5.948,0,0,1,.416.559l.054.079.054.086.047.072.079.129.068.115.043.075.032.057.029.057a.617.617,0,0,1,.047.082l.043.09c.1.2.2.405.283.613,0,.032.025.061.036.09l.1.258a.107.107,0,0,0,.025.083c.025.029.025.072.039.111a.819.819,0,0,1,.029.1l.021.061a.445.445,0,0,0,.025.093l.032.115c.018.061.032.122.047.183a.984.984,0,0,1,.025.1.974.974,0,0,0,.029.14.131.131,0,0,1,0,.057v1.04h0v.068a.469.469,0,0,0,0,.072v.118h0v.122C851.271,307.107,851.49,307.233,851.486,307.312Z" transform="translate(-579.876 -201.13)" fill="#b0463d"/>
      <path id="Path_10100" data-name="Path 10100" d="M852.113,307.26v.57a.046.046,0,0,1,0,.022v.229l-.032.255a1.306,1.306,0,0,1-.025.165h0v.133a.169.169,0,0,1,0,.043v.09a.711.711,0,0,1-.018.086v.065a.2.2,0,0,1-.025.111h0l-.021.075-.021.09-.032.111v.032a.734.734,0,0,1-.036.111c-.032.118-.072.233-.111.359a1.761,1.761,0,0,1-.065.172,7.7,7.7,0,0,0,.219-1.918,7.932,7.932,0,0,0-3.668-6.616c-.144-.093-.287-.176-.434-.258a7.936,7.936,0,0,0-7.616,0,8.27,8.27,0,0,0-.753.47,7.892,7.892,0,0,0-1.033.875,8.022,8.022,0,0,0-.968-.825h0a8.251,8.251,0,0,0-.818-.52,7.889,7.889,0,0,0-8.746.753,8.472,8.472,0,0,0-.66.592,7.807,7.807,0,0,0-.868,1.029c-.158.222-.3.452-.437.685h0a7.432,7.432,0,0,0-.337.678c-.057.129-.111.258-.158.387a.573.573,0,0,1,.036-.151l.021-.075v-.047l.032-.111h0c.025-.086.054-.172.082-.258s.025-.079.039-.118q.086-.255.194-.495l.043-.1.064-.147c.039-.079.075-.158.118-.233v-.018h0l.057-.1.065-.118c.025-.05.054-.1.082-.151l.043-.068.021-.039h0c0-.029.032-.057.05-.086s.043-.065.061-.1.093-.143.143-.212l.05-.075.064-.09.068-.09.086-.111.075-.1.029-.032.054-.068.09-.1.036-.043h0l.068-.075c.022-.029.05-.054.075-.082s.14-.151.215-.226l.086-.083.133-.129.09-.082.108-.093.068-.057.072-.061.14-.115.075-.057c.118-.09.24-.179.358-.265l.075-.05.072-.05.072-.043.108-.068.05-.029.079-.047c.1-.061.2-.118.308-.172l.061-.032.1-.05.079-.039.083-.039.079-.036.079-.036.083-.036.326-.133.082-.029.086-.032.079-.029.065-.022.151-.047.079-.025.061-.018.061-.018.111-.029.144-.036c.147-.039.3-.072.448-.1h.409c.143-.018.287-.036.434-.047h1.2l.359.036.158.022h.333c.151.025.3.057.448.093l.179.047h.05l.079.022.151.047.064.018c.111.036.219.072.326.115l.075.025.1.039.147.057.165.072.068.032.09.039.079.039.079.039.1.05.079.043.183.1.075.047c.09.05.179.1.265.161l.072.043.075.05.075.05h0l.05.036.312.226a.553.553,0,0,0,.072.057l.143.115.068.061.072.057.1.093.09.082.133.129a1,1,0,0,1,.09.082.613.613,0,0,1,.086-.082l.133-.129.09-.082.1-.093.072-.057.068-.061.143-.115a.558.558,0,0,0,.072-.057l.359-.265.075-.05.075-.05.072-.043.1-.068.054-.029.075-.047q.154-.093.312-.172l.061-.032.1-.05.079-.039.079-.039.083-.036.079-.036.083-.036.326-.133.083-.029.086-.032.079-.029.065-.021.151-.047.079-.025.061-.018.061-.018.108-.029.143-.036q.226-.057.452-.1h.405c.147-.018.291-.036.434-.047h1.2l.359.036a.375.375,0,0,1,.154.021h.337c.147.025.3.057.445.093l.183.047h.05l.079.022.151.047.065.018c.107.036.219.072.326.115l.072.025.1.039.147.057.168.072.065.032.09.039.082.039.079.039.1.05.083.043.179.1.079.047c.09.05.176.1.265.161l.072.043.072.05.075.05h0l.047.036q.161.108.312.226l.075.057.14.115.072.061.068.057.093.083.09.082.05.047h0l.086.082.039.036.047.047.086.09.133.136c.025.029.05.054.072.082l.126.14.129.154a5.952,5.952,0,0,1,.416.559l.054.079.054.086.047.072.079.129.068.115.043.075.032.057.029.057a.6.6,0,0,1,.047.082l.043.09c.1.2.2.405.283.613,0,.032.025.061.036.09l.1.258a.107.107,0,0,0,.025.082c.025.029.025.072.039.111a.84.84,0,0,1,.029.1l.022.061a.455.455,0,0,0,.025.093l.032.115c.018.061.032.122.047.183a.944.944,0,0,1,.025.1.95.95,0,0,0,.029.14.135.135,0,0,1,0,.057v1.04h0v.068a.44.44,0,0,0,0,.072v.118h0v.122C852.027,307.027,852.117,307.181,852.113,307.26Z" transform="translate(-580.504 -201.079)" opacity="0.1"/>
      <path id="Path_10101" data-name="Path 10101" d="M707.07,265.831v.732q0,.05,0,.1a.679.679,0,0,1-.032.255c-.032.082,0,.111-.025.165h0a.689.689,0,0,1,0,.082.276.276,0,0,1,0,.05v.129l-.022.086a.407.407,0,0,1,0,.065.963.963,0,0,1-.025.111h0a.645.645,0,0,0,0,.075.945.945,0,0,0-.025.093l-.032.111a.087.087,0,0,1,0,.029l-.032.115c-.036.115-.072.233-.115.359a.328.328,0,0,1-.039.108l-.021.061a7.9,7.9,0,0,1-1.051,1.915l-.083.108a7.876,7.876,0,0,1-.671.767l-11.191,11.187-11.191-11.187a7.947,7.947,0,0,1-.875-1.043,7.763,7.763,0,0,1-.459-.717,7.889,7.889,0,0,1-.954-4.5,3.43,3.43,0,0,1,.047-.43c.036-.255.083-.5.144-.753a.524.524,0,0,1,.039-.147.5.5,0,0,1,.018-.079.211.211,0,0,1,0-.043l.032-.115h0c.025-.086.05-.172.079-.258l.043-.118c.057-.169.122-.333.19-.5l.043-.1c.022-.05.043-.1.068-.147s.075-.158.115-.237v-.018h0l.054-.108.064-.118.086-.147a.746.746,0,0,1,.039-.072l.025-.039h0l.054-.086c.018-.032.039-.065.061-.1l.14-.212.054-.072.064-.09.068-.093.083-.111a.978.978,0,0,1,.079-.093.328.328,0,0,1,.025-.036l.057-.064.086-.1.039-.047h0l.065-.075.075-.082.215-.222.086-.086.136-.126a.972.972,0,0,1,.09-.082l.1-.093.072-.061.068-.057.144-.115.072-.057c.118-.093.244-.183.359-.265l.075-.05.075-.05.072-.047.1-.064.05-.032.079-.047c.1-.057.2-.118.308-.172l.064-.032-.007-.082.079-.039.079-.036.079-.039.082-.036.079-.036.33-.133.079-.029.086-.032.079-.025.068-.021.151-.05.075-.022.064-.018.061-.018.108-.032.143-.036.448-.1h.409c.143-.018.29-.032.434-.043h1.2a3.245,3.245,0,0,1,.359.032l.154.022h.333c.151.029.3.061.448.1l.183.047h.05a.6.6,0,0,1,.075.022l.151.043.068.022.323.111.075.029.1.036.147.061.169.072.065.029.09.043.079.036.079.039.1.05.079.043.183.1.079.043.262.161.072.047.075.05.075.05h0l.05.032c.108.075.212.151.312.229a.565.565,0,0,1,.072.057c.05.036.1.075.143.115l.072.057.068.061.1.093a.965.965,0,0,1,.09.082l.136.126.086.086.086-.086.133-.126.089-.082.108-.093.068-.061.072-.057c.047-.039.093-.079.143-.115a.573.573,0,0,1,.072-.057c.118-.093.24-.183.359-.265l.075-.05.075-.05.068-.047.108-.065.05-.032.079-.047c.1-.057.2-.118.308-.172l.061-.032.1-.05.082-.039.079-.036.079-.039.083-.036.079-.036.326-.133.082-.029.086-.032.079-.025.065-.021.151-.05.079-.022.061-.018.061-.018.111-.032.143-.036c.151-.036.3-.068.448-.1h.409c.143-.018.287-.032.434-.043h1.2l.359.032.154.022h.333c.151.029.3.061.448.1l.183.047h.047a.5.5,0,0,1,.079.022l.151.043.064.021.326.111.075.029.1.036.147.061.169.072.064.029.09.043.079.036.079.039.1.05.079.043.183.1.075.043.265.161.072.047.075.05.075.05h0l.05.032.312.229.072.057.143.115.068.057.072.061.09.079.093.082.05.05h0l.09.082.039.039.047.047.086.086.129.14.075.082c.043.043.083.09.122.136l.129.154a6.506,6.506,0,0,1,.416.559l.054.079.054.086c.017.024.032.049.047.075s.054.082.079.126.047.079.068.118l.043.072.032.057.032.057.043.086c0,.029.032.057.047.086.1.2.2.409.28.617a.643.643,0,0,1,.036.09q.054.129.1.258a.234.234,0,0,0,.029.079l.036.111.032.1a.089.089,0,0,0,.018.065c.018.022,0,.061.029.09l.032.115a.883.883,0,0,0,.047.186l.022.1.032.136v.061a.531.531,0,0,1,0,.079.363.363,0,0,1,0,.061.283.283,0,0,1,0,.054v.1a.914.914,0,0,1,0,.1.983.983,0,0,1,0,.1.227.227,0,0,0,.018.108v.441h0v.262h0v.118C707.07,265.666,707.07,265.745,707.07,265.831Z" transform="translate(-487.335 -174.498)" fill="#b0463d"/>
      <path id="Path_10102" data-name="Path 10102" d="M707.206,265.831v.732a.983.983,0,0,1,0,.1.683.683,0,0,1-.032.255c-.032.082,0,.111-.025.165h0a.641.641,0,0,1,0,.082.255.255,0,0,1,0,.05v.129l-.022.086a.38.38,0,0,1,0,.065.989.989,0,0,1-.025.111h0a.574.574,0,0,0,0,.075.929.929,0,0,0-.025.093l-.032.111a.084.084,0,0,1,0,.029l-.032.115c-.036.115-.072.233-.115.359a.328.328,0,0,1-.039.108l-.021.061a7.922,7.922,0,0,0-3.453-8.534c-.14-.09-.283-.176-.43-.255a7.921,7.921,0,0,0-7.62,0,7.078,7.078,0,0,0-.75.47,7.624,7.624,0,0,0-1.036.871,8.077,8.077,0,0,0-.968-.825h0a7.828,7.828,0,0,0-.818-.516,7.924,7.924,0,0,0-9.405,1.341,7.8,7.8,0,0,0-1.018,1.029c-.158.222-.3.452-.434.685h0c-.122.222-.237.448-.337.678-.057.125-.107.255-.158.384a.525.525,0,0,1,.039-.147.5.5,0,0,1,.018-.079.188.188,0,0,1,0-.043l.032-.115h0c.025-.086.05-.172.079-.258l.043-.118c.057-.169.122-.333.19-.5l.043-.1c.022-.05.043-.1.068-.147s.075-.158.115-.237v-.018h0l.054-.108.065-.118.086-.147a.719.719,0,0,1,.039-.072l.025-.039h0l.054-.086c.018-.032.039-.065.061-.1l.14-.212.054-.072.065-.09.068-.093.083-.111a1,1,0,0,1,.079-.093.325.325,0,0,1,.025-.036l.057-.065.086-.1.039-.047h0l.064-.075.075-.082.215-.222.086-.086.136-.126a.964.964,0,0,1,.09-.082l.1-.093.072-.061.068-.057.143-.115.072-.057c.118-.093.244-.183.359-.265l.075-.05.075-.05.072-.047.1-.065.05-.032.079-.047c.1-.057.2-.118.308-.172l.065-.032.136-.061.079-.039.079-.036.079-.039.082-.036.079-.036.33-.133.079-.029.086-.032.079-.025.068-.021.151-.05.075-.022.065-.018.061-.018.107-.032.143-.036.448-.1h.409c.143-.018.29-.032.434-.043h1.2a3.242,3.242,0,0,1,.359.032l.154.022h.334c.151.029.3.061.448.1l.183.047h.05a.6.6,0,0,1,.075.022l.15.043.068.022.323.111.075.029.1.036.147.061.168.072.065.029.09.043.079.036.079.039.1.05.079.043.183.1.079.043.262.161.072.047.075.05.075.05h0l.05.032c.108.075.212.151.312.229a.56.56,0,0,1,.072.057c.05.036.1.075.143.115l.072.057.068.061.1.093a.971.971,0,0,1,.09.082l.136.126.086.086.086-.086.133-.126.09-.082.108-.093.068-.061.072-.057c.047-.039.093-.079.143-.115a.565.565,0,0,1,.072-.057c.118-.093.24-.183.359-.265l.075-.05.075-.05.068-.047.107-.065.05-.032.079-.047c.1-.057.2-.118.308-.172l.061-.032.1-.05.082-.039.079-.036.079-.039.082-.036.079-.036.326-.133.083-.029.086-.032.079-.025.065-.021.151-.05.079-.022.061-.018.061-.018.111-.032.143-.036c.151-.036.3-.068.448-.1h.409c.143-.018.287-.032.434-.043h1.2l.359.032.154.022h.333c.151.029.3.061.448.1l.183.047h.047a.5.5,0,0,1,.079.022l.151.043.065.021.326.111.075.029.1.036.147.061.169.072.065.029.09.043.079.036.079.039.1.05.079.043.183.1.075.043.265.161.072.047.075.05.075.05h0l.05.032.312.229.072.057.143.115.068.057.072.061.09.079.093.082.05.05h0l.09.082.039.039.047.047.086.086.129.14.075.082c.043.043.082.09.122.136l.129.154a6.443,6.443,0,0,1,.416.559l.054.079.054.086a.859.859,0,0,1,.047.075c.029.039.054.082.079.126s.047.079.068.118l.043.072.032.057.032.057.043.086c0,.029.032.057.047.086a6.732,6.732,0,0,1,.28.617.659.659,0,0,1,.036.09q.054.129.1.258a.233.233,0,0,0,.029.079l.036.111.032.1a.089.089,0,0,0,.018.065c.018.022,0,.061.029.09l.032.115a.887.887,0,0,0,.047.186l.021.1.032.136v.061a.515.515,0,0,1,0,.079.376.376,0,0,1,0,.061.274.274,0,0,1,0,.054v.1a.883.883,0,0,1,0,.1q0,.05,0,.1a.229.229,0,0,0,.018.108v.441h0v.262h0v.118C707.206,265.666,707.206,265.745,707.206,265.831Z" transform="translate(-487.471 -174.498)" opacity="0.1"/>
      <path id="Path_10103" data-name="Path 10103" d="M411.988,287.809a.462.462,0,0,1,0,.068v.649c0,.035,0,.069,0,.1a1.548,1.548,0,0,1-.032.255c-.014.086,0,.111-.025.165h0a.555.555,0,0,1,0,.082v.183l-.021.086a.414.414,0,0,1,0,.065.181.181,0,0,1-.025.111h0a.582.582,0,0,0-.018.075.822.822,0,0,0-.025.09l-.032.111a.1.1,0,0,1,0,.032l-.032.111c-.036.118-.072.233-.115.359a1.019,1.019,0,0,1-.039.111l-.022.061a7.858,7.858,0,0,1-1.051,1.911l-.082.111a7.876,7.876,0,0,1-.671.764L398.606,304.5l-11.191-11.191a7.985,7.985,0,0,1-.879-1.04c-.165-.237-.316-.48-.455-.717a7.914,7.914,0,0,1-.954-4.5,3.522,3.522,0,0,1,.047-.43c.036-.251.083-.5.143-.749a.765.765,0,0,1,.036-.151l.022-.075a.229.229,0,0,1,0-.047.424.424,0,0,1,.029-.111h0c.025-.086.05-.172.079-.258s.029-.079.039-.118q.09-.255.194-.495l.043-.1c.021-.047.043-.1.068-.147s.075-.158.115-.233v-.018h0l.054-.1.064-.118.086-.151.039-.068.025-.039h0l.054-.086c.018-.032.039-.065.061-.1l.14-.212.054-.075.065-.09c.021-.029.043-.061.068-.09a1.281,1.281,0,0,1,.082-.111l.079-.1.025-.032.054-.068.09-.1.039-.043h0l.065-.075.075-.082.215-.226.086-.082.136-.129.09-.083.1-.093.072-.057.068-.061.143-.115.072-.057c.118-.09.24-.179.359-.265l.075-.05.075-.05.072-.043a1.026,1.026,0,0,1,.1-.068l.05-.029.079-.047c.1-.061.2-.118.308-.172l.065-.036.032-.05.079-.039.079-.039.079-.036.082-.036.079-.036.33-.133.079-.029.086-.032.079-.029.068-.022.151-.047.075-.025.065-.018h.061l.108-.029.143-.036c.151-.04.3-.072.448-.1h.237l.108-.018h.065c.143,0,.29-.036.434-.047h1.19l.359.036.154.018.1.018h.23c.151.025.3.057.448.093l.183.047h.05l.075.021.151.047.064.018c.111.036.219.072.326.115l.075.025.1.039.147.057.169.072.065.032.09.039.079.039.079.039.1.05.079.043.183.1.075.047c.09.05.179.1.265.161l.072.043.075.05.075.05h0a.251.251,0,0,1,.05.036q.158.107.312.226l.072.057.143.115.068.061.072.057.1.093.09.082.136.129.086.082.086-.082.133-.129.09-.082.108-.093.068-.057.072-.061.143-.115.072-.057c.118-.09.24-.179.359-.265l.075-.05.075-.05.068-.043.108-.068.05-.029.079-.047c.1-.061.2-.118.308-.172a.354.354,0,0,0,.061-.036l.1-.047.079-.039.082-.039.079-.036.082-.036.079-.036.326-.133.082-.029.086-.032.079-.029.065-.022.151-.047.079-.025.061-.018h.061l.111-.029.143-.036c.147-.04.3-.072.448-.1h.233l.111-.018h.065c.143,0,.287-.036.434-.047h1.2l.359.036.158.018.1.018h.23c.151.025.3.057.448.093l.179.047h.05l.079.021.151.047.064.018c.111.036.219.072.326.115l.075.025.1.039.147.057.165.072.068.032.09.039.079.039.079.04.1.05.079.043.183.1.075.047c.09.05.179.1.265.161l.072.043.075.05.075.05h0l.05.036.312.226.072.057.143.115.068.061.072.057.09.082a.988.988,0,0,1,.09.082l.054.047h0l.09.082.036.036.05.047.086.09.129.136.075.082.122.14.129.154a5.948,5.948,0,0,1,.416.559l.054.079.054.086a.494.494,0,0,1,.047.072c.029.043.054.086.079.129l.068.115.043.075.032.057.032.057.043.082c.018.029.032.061.047.09a6.723,6.723,0,0,1,.28.613l.036.09q.054.129.1.258l.029.082a.5.5,0,0,0,.036.111l.032.1a.078.078,0,0,0,.018.061l.029.093a1.065,1.065,0,0,1,.029.115c.018.061.032.122.05.183l.021.1.032.14v.057a.619.619,0,0,1,0,.079.414.414,0,0,1,0,.065.213.213,0,0,1,0,.05v.2a.914.914,0,0,1,0,.1v.111a1.018,1.018,0,0,1,0,.1v.226a1.072,1.072,0,0,1,0,.111h0a.423.423,0,0,0,0,.068c0,.025,0,.05,0,.072v.118h0v.122C411.823,287.619,411.988,287.73,411.988,287.809Z" transform="translate(-298.05 -188.616)" fill="#b0463d"/>
      <path id="Path_10104" data-name="Path 10104" d="M412.15,287.809a.458.458,0,0,1,0,.068v.649c0,.035,0,.069,0,.1a1.545,1.545,0,0,1-.032.255c-.014.086,0,.111-.025.165h0a.572.572,0,0,1,0,.082v.183l-.022.086a.414.414,0,0,1,0,.065.181.181,0,0,1-.025.111h0a.572.572,0,0,0-.018.075.837.837,0,0,0-.025.09l-.032.111a.1.1,0,0,1,0,.032l-.032.111c-.036.118-.072.233-.115.359a1.032,1.032,0,0,1-.039.111l-.022.061a7.726,7.726,0,0,0-3.589-8.516c-.14-.093-.287-.176-.43-.258a7.942,7.942,0,0,0-7.62,0,7.7,7.7,0,0,0-.749.47,7.921,7.921,0,0,0-1.036.875,7.744,7.744,0,0,0-.968-.825h0a7.848,7.848,0,0,0-.818-.52,7.943,7.943,0,0,0-7.62,0,7.675,7.675,0,0,0-1.122.753,7.882,7.882,0,0,0-1.531,1.621c-.158.222-.3.452-.434.685h0c-.122.222-.237.448-.337.678-.057.129-.108.258-.158.387a.766.766,0,0,1,.036-.151l.021-.075a.243.243,0,0,1,0-.047.424.424,0,0,1,.029-.111h0c.025-.086.05-.172.079-.258s.029-.079.039-.118q.09-.255.194-.495l.043-.1c.022-.047.043-.1.068-.147s.075-.158.115-.233v-.018h0l.054-.1.065-.118.086-.151.039-.068.025-.039h0l.054-.086c.018-.032.039-.065.061-.1l.14-.212.054-.075.064-.09c.022-.029.043-.061.068-.09a1.269,1.269,0,0,1,.082-.111l.079-.1.025-.032.054-.068.09-.1.039-.043h0l.065-.075.075-.082.215-.226.086-.082.136-.129.09-.083.1-.093.072-.057.068-.061.143-.115.072-.057c.118-.09.24-.179.359-.265l.075-.05.075-.05.072-.043a1.03,1.03,0,0,1,.1-.068l.05-.029.079-.047c.1-.061.2-.118.308-.172l.065-.036.161-.05.079-.039.079-.039.079-.036.082-.036.079-.036.33-.133.079-.029.086-.032.079-.029.068-.022.151-.047.075-.025.065-.018h.061l.108-.029.143-.036c.151-.04.3-.072.448-.1h.237l.108-.018h.065c.143,0,.29-.036.434-.047h1.19l.359.036.154.018.1.018h.229c.151.025.3.057.448.093l.183.047h.05l.075.021.151.047.065.018c.111.036.219.072.326.115l.075.025.1.039.147.057.169.072.064.032.09.039.079.039.079.039.1.05.079.043.183.1.075.047c.09.05.179.1.265.161l.072.043.075.05.075.05h0a.252.252,0,0,1,.05.036q.158.107.312.226l.072.057.143.115.068.061.072.057.1.093.09.082.136.129.086.082.086-.082.133-.129.09-.082.108-.093.068-.057.072-.061.143-.115.072-.057c.118-.09.24-.179.359-.265l.075-.05.075-.05.068-.043.108-.068.05-.029.079-.047c.1-.061.2-.118.308-.172a.355.355,0,0,0,.061-.036l.1-.047.079-.039.083-.039.079-.036.083-.036.079-.036.326-.133.082-.029.086-.032.079-.029.065-.022.151-.047.079-.025.061-.018h.061l.111-.029.143-.036c.147-.04.3-.072.448-.1h.233l.111-.018h.065c.143,0,.287-.036.434-.047h1.2l.359.036.158.018.1.018h.229c.151.025.3.057.448.093l.179.047h.05l.079.021.151.047.065.018c.111.036.219.072.326.115l.075.025.1.039.147.057.165.072.068.032.09.039.079.039.079.04.1.05.079.043.183.1.075.047c.09.05.179.1.265.161l.072.043.075.05.075.05h0l.05.036.312.226.072.057.143.115.068.061.072.057.09.082a.988.988,0,0,1,.09.082l.054.047h0l.09.082.036.036.05.047.086.09.129.136.075.082.122.14.129.154a5.938,5.938,0,0,1,.416.559l.054.079.054.086a.5.5,0,0,1,.047.072c.029.043.054.086.079.129l.068.115.043.075.032.057.032.057.043.082c.018.029.032.061.047.09a6.731,6.731,0,0,1,.28.613l.036.09q.054.129.1.258l.029.082a.5.5,0,0,0,.036.111l.032.1a.078.078,0,0,0,.018.061l.029.093a1.087,1.087,0,0,1,.029.115c.018.061.032.122.05.183l.021.1.032.14v.057a.608.608,0,0,1,0,.079.414.414,0,0,1,0,.065.21.21,0,0,1,0,.05v.2a.914.914,0,0,1,0,.1v.111q0,.052,0,.1v.226a1.055,1.055,0,0,1,0,.111h0a.438.438,0,0,0,0,.068v.19h0v.122C411.985,287.619,412.15,287.73,412.15,287.809Z" transform="translate(-298.212 -188.616)" opacity="0.1"/>
      <path id="Path_10105" data-name="Path 10105" d="M402.312,447.074v.125a.5.5,0,0,1,0,.072v.384a.046.046,0,0,1,0,.021v.229l-.032.255a.378.378,0,0,1-.025.165h0v.129a.178.178,0,0,1,0,.043.671.671,0,0,1-.018.09.728.728,0,0,1-.018.086v.065a.2.2,0,0,1-.025.111h0l-.021.075-.022.093-.032.111v.029a.9.9,0,0,1-.036.115c-.032.115-.072.233-.111.359l-.039.108a.306.306,0,0,1-.025.061,7.749,7.749,0,0,1-1.047,1.915l-.083.108a7.874,7.874,0,0,1-.674.764l-11.187,11.191-11.191-11.191a7.989,7.989,0,0,1-.878-1.04,8.183,8.183,0,0,1-.455-.717,7.888,7.888,0,0,1-.954-4.5,2.828,2.828,0,0,1,.047-.427c.036-.255.082-.5.143-.753a.576.576,0,0,1,.036-.151l.022-.075v-.043l.032-.115h0c.029-.086.054-.172.082-.258l.039-.118c.061-.169.122-.333.194-.5l-.054-.1.065-.147c.039-.079.075-.158.118-.237v-.018h0l.057-.1.065-.118c.025-.05.054-.1.082-.147l.043-.072.022-.039h0c0-.029.032-.057.05-.086s.043-.064.061-.1l.143-.212c.018-.025.032-.05.05-.072l.064-.09.068-.093.086-.111.075-.1.029-.032.054-.068.09-.1.039-.043h0l.068-.075.1-.09c.068-.075.14-.151.215-.222l.086-.086.133-.129.09-.079.108-.093.068-.061.072-.057c.047-.039.093-.079.143-.115a.555.555,0,0,1,.072-.057c.118-.093.24-.183.359-.265l.075-.05a.54.54,0,0,1,.075-.05l.068-.047.108-.065.05-.032.079-.047c.1-.061.2-.118.308-.172l.061-.032.1-.05.079-.039.082-.036.079-.04.079-.036.082-.036.326-.133.083-.029.086-.032.079-.025.064-.022.151-.05.079-.025.061-.018h.061l.111-.032.143-.036c.147-.036.3-.068.448-.1h.409c.143-.018.287-.032.434-.043h1.19l.359.032.158.021h.333c.151.025.3.057.448.093l.179.05h.05l.079.025.151.043.065.022c.111.032.219.072.326.111l.075.029.1.036.147.061.165.072.068.029.09.043.079.036.079.039.1.05.079.043.183.1.075.043c.09.054.179.1.265.161l.072.047.075.05.075.05h0l.05.032.312.23.072.057.143.115.068.057.072.061.1.093.09.079.133.129.09.086.086-.086.133-.129.09-.079.1-.093.072-.061.068-.057.143-.115.072-.057c.122-.093.244-.183.359-.265l.075-.05.075-.05.072-.047.1-.065.054-.032.075-.047.312-.172.061-.032.1-.05.079-.039.079-.036.082-.039.079-.036.082-.036.326-.133.082-.029.086-.032.079-.025.065-.021.151-.05.079-.025.061-.018h.061l.108-.032.147-.036c.147-.036.3-.068.448-.1h.405l.434-.043h1.19a3.162,3.162,0,0,1,.359.032l.154.022h.337c.151.025.3.057.445.093l.183.05h.05l.079.025.151.043.064.021c.108.032.219.072.326.111l.072.029.1.036.147.061.169.072.065.029.09.043.082.036.079.039.1.05.079.043c.061.032.122.064.179.1l.079.043.265.161.072.047.075.05.072.05h0l.047.032c.108.075.212.151.312.23l.075.057.14.115.072.057.068.061.093.079.09.082.05.05h0l.086.083.039.039.047.047.086.086.133.14.075.079.122.14.129.154a6.474,6.474,0,0,1,.416.559l.054.079.054.086.047.075.079.125.068.118.043.072.032.057c0,.018.018.039.029.057s.032.057.047.086.029.057.047.086c.1.2.194.409.28.617,0,.029.025.057.036.09l.1.258.025.079a.345.345,0,0,0,.039.111.617.617,0,0,1,.029.1l.022.065.025.09.032.115c.018.061.032.122.047.186a.957.957,0,0,1,.025.1,1.032,1.032,0,0,0,.029.136v1.1h0v.072a.5.5,0,0,0,0,.072v.118h0v.122C402.118,446.895,402.315,447,402.312,447.074Z" transform="translate(-291.834 -290.782)" fill="#b0463d"/>
      <path id="Path_10106" data-name="Path 10106" d="M402.551,447.074v.125a.485.485,0,0,1,0,.072v.384a.046.046,0,0,1,0,.021v.229l-.032.255a.379.379,0,0,1-.025.165h0v.129a.181.181,0,0,1,0,.043.666.666,0,0,1-.018.09.722.722,0,0,1-.018.086v.065a.2.2,0,0,1-.025.111h0l-.021.075-.022.093-.032.111v.029a.9.9,0,0,1-.036.115c-.032.115-.072.233-.111.359l-.039.108a.306.306,0,0,1-.025.061,7.684,7.684,0,0,0,.219-1.918,7.784,7.784,0,0,0-.269-1.99,7.95,7.95,0,0,0-3.4-4.626c-.143-.09-.287-.176-.434-.255a7.914,7.914,0,0,0-7.616,0,11.251,11.251,0,0,0-1.879,1.345,8.029,8.029,0,0,0-.968-.825h0a8.207,8.207,0,0,0-.818-.516,7.921,7.921,0,0,0-8.746.749,8.471,8.471,0,0,0-.66.592,7.812,7.812,0,0,0-.868,1.029,7.308,7.308,0,0,0-.434.685h0a7.42,7.42,0,0,0-.337.678c-.057.126-.111.255-.158.384a.575.575,0,0,1,.036-.151l.021-.075v-.043l.032-.115h0c.029-.086.054-.172.082-.258l.039-.118c.061-.168.122-.333.194-.5l.032-.083.065-.147.118-.237v-.018h0l.057-.1.065-.118c.025-.05.054-.1.082-.147l.043-.072.022-.039h0c0-.029.032-.057.05-.086s.043-.064.061-.1l.143-.212c.018-.025.032-.05.05-.072l.064-.09.068-.093.086-.111.075-.1.029-.032.054-.068.09-.1.039-.043h0l.068-.075.1-.09c.068-.075.14-.151.215-.222l.086-.086.133-.129.09-.079.108-.093.068-.061.072-.057c.047-.039.093-.079.143-.115a.551.551,0,0,1,.072-.057c.118-.093.24-.183.359-.265l.075-.05a.539.539,0,0,1,.075-.05l.068-.047.108-.065.05-.032.079-.047c.1-.061.2-.118.308-.172l.061-.032.1-.05.079-.039.082-.036.079-.04.079-.036.082-.036.326-.133.083-.029.086-.032.079-.025.064-.022.151-.05.079-.025.061-.018h.061l.111-.032.143-.036c.147-.036.3-.068.448-.1h.409c.143-.018.287-.032.434-.043h1.19l.359.032.158.021h.333c.151.025.3.057.448.093l.179.05h.05l.079.025.151.043.064.022c.111.032.219.072.326.111l.075.029.1.036.147.061.165.072.068.029.09.043.079.036.079.039.1.05.079.043.183.1.075.043c.09.054.179.1.265.161l.072.047.075.05.075.05h0l.05.032.312.23.072.057.143.115.068.057.072.061.1.093.09.079.133.129.09.086.086-.086.133-.129.09-.079.1-.093.072-.061.068-.057.143-.115.072-.057c.122-.093.244-.183.359-.265l.075-.05.075-.05.072-.047.1-.065.054-.032.075-.047.312-.172.061-.032.1-.05.079-.039.079-.036.082-.039.079-.036.082-.036.326-.133.082-.029.086-.032.079-.025.065-.021.151-.05.079-.025.061-.018h.061l.108-.032.147-.036c.147-.036.3-.068.448-.1h.405l.434-.043h1.19a3.162,3.162,0,0,1,.359.032l.154.022h.337c.151.025.3.057.445.093l.183.05h.05l.079.025.151.043.065.021c.108.032.219.072.326.111l.072.029.1.036.147.061.169.072.065.029.09.043.083.036.079.039.1.05.079.043c.061.032.122.064.179.1l.079.043.265.161.072.047.075.05.072.05h0l.047.032c.108.075.212.151.312.23l.075.057.14.115.072.057.068.061.093.079.09.082.05.05h0l.086.083.039.039.047.047.086.086.133.14.075.079.122.14.129.154a6.461,6.461,0,0,1,.416.559l.054.079.054.086.047.075.079.125.068.118.043.072.032.057c0,.018.018.039.029.057s.032.057.047.086.029.057.047.086c.1.2.194.409.28.617,0,.029.025.057.036.09l.1.258.025.079a.343.343,0,0,0,.04.111.613.613,0,0,1,.029.1l.022.065.025.09.032.115c.018.061.032.122.047.186a.974.974,0,0,1,.025.1,1.036,1.036,0,0,0,.029.136v1.1h0v.072a.512.512,0,0,0,0,.072v.118h0v.122C402.357,446.895,402.555,447,402.551,447.074Z" transform="translate(-292.073 -290.782)" opacity="0.1"/>
      <path id="Path_10107" data-name="Path 10107" d="M499.638,348.946v.09a.217.217,0,0,1,0,.047v.376a.551.551,0,0,1,0,.072l-.022.179-.021.115h0v.057a.131.131,0,0,1,0,.036v.2a.772.772,0,0,0,0,.079h0v.05a.1.1,0,0,1-.018.068l-.022.079v.018l-.021.082c-.025.082-.054.165-.082.244s0,.054-.025.079l-.018.043a5.656,5.656,0,0,1-.739,1.352l-.061.075a5.173,5.173,0,0,1-.473.541l-7.907,7.907-7.907-7.907A5.608,5.608,0,0,1,480.7,348.4a2.274,2.274,0,0,1,.036-.3,5.275,5.275,0,0,1,.1-.527.587.587,0,0,1,.025-.108.288.288,0,0,0,0-.054v-.032l.022-.079h0c.018-.065.039-.125.057-.183l.029-.086c.043-.118.086-.233.136-.359l.032-.068c0-.036.029-.068.047-.1l.079-.165h0a.77.77,0,0,0,.039-.075l.047-.083a.982.982,0,0,1,.061-.1.225.225,0,0,1,.029-.05v-.029h0l.039-.057.043-.068.1-.151.036-.054.043-.061.05-.068.061-.075a.5.5,0,0,1,.054-.068l.018-.025.039-.047c.022-.025.039-.05.061-.072l.029-.032h0l.047-.05.054-.061.151-.158.061-.061.1-.09a.469.469,0,0,0,.061-.057l.075-.065.05-.043.05-.039.1-.082.05-.039.258-.19.054-.036.054-.032.05-.032.072-.047.039-.022.054-.032c.072-.043.143-.086.219-.122l.043-.025.068-.036.057-.025.057-.029.054-.025.057-.025.057-.025.233-.093.057-.021.061-.022.054-.021h.047l.108-.036h.14l.079-.022.1-.025c.108-.029.212-.05.319-.068h.287c.1,0,.2-.025.3-.032h.85l.244.025h.348c.1.018.212.039.316.065l.129.036h.09l.108.029h.043l.233.079.05.021.068.025.1.043.118.05.047.022.065.029.057.029.054.025.072.036.054.032.129.068.054.032.19.115.05.032.05.032.054.036h0l.036.025c.075.05.147.1.219.161l.05.039.1.083.047.039.05.043.075.065.065.057a1.1,1.1,0,0,0,.093.09l.061.061.061-.061a1.1,1.1,0,0,0,.093-.09l.065-.057.075-.065.05-.043.047-.039.1-.083.05-.039c.083-.065.169-.129.258-.19l.054-.036.05-.032.05-.032.075-.047.036-.022.054-.032c.075-.043.147-.086.222-.122l.043-.025.068-.036.054-.025.057-.029.057-.025.057-.025.057-.025.23-.093.057-.022.061-.021.057-.022h.047l.1-.036h.143l.075-.021.1-.025c.1-.029.212-.05.315-.068h.29c.1,0,.2-.025.3-.032h.85l.244.025h.348l.312.065.129.036h.093l.1.029h.047l.229.079.054.022.068.025.1.043.118.05.047.021.061.029.057.029.057.025.068.036.057.032.129.068.054.032c.065.036.126.075.186.115l.05.032.054.032.054.036h0l.032.025c.075.05.151.1.222.161l.05.039a1.115,1.115,0,0,1,.1.082l.05.039.05.043.065.057.065.057.036.036h0l.061.061.025.025.036.032.061.065.093.1.05.057.086.1.093.111c.1.125.2.258.294.394l.036.054c0,.021.025.043.039.061l.032.054c.018.029.039.057.057.09l.047.082a.357.357,0,0,1,.029.05l.025.039.021.043.032.061.032.061c.072.14.136.287.2.434l.025.065c.025.061.047.118.068.183a.309.309,0,0,1,.018.054.088.088,0,0,0,.029.079l.022.072a.329.329,0,0,0,0,.047.09.09,0,0,0,.018.065l.021.079a.58.58,0,0,0,.036.129c.011.043,0,.047,0,.072l.021.1v.1a.188.188,0,0,0,0,.043v.323a.526.526,0,0,1,0,.075v.039a.539.539,0,0,0,0,.079.156.156,0,0,0,0,.04v.079h0a.247.247,0,0,1,0,.05.234.234,0,0,1,0,.05.686.686,0,0,1,0,.086h0a.686.686,0,0,1,0,.086Z" transform="translate(-359.362 -229.346)" fill="#b0463d"/>
      <path id="Path_10108" data-name="Path 10108" d="M499.981,348.907V349a.208.208,0,0,1,0,.047v.377a.541.541,0,0,1,0,.072l-.022.179-.021.115h0v.057a.133.133,0,0,1,0,.036v.2a.756.756,0,0,0,0,.079h0v.05a.1.1,0,0,1-.018.068l-.022.079v.018l-.022.082c-.025.083-.054.165-.082.244s0,.054-.025.079l-.018.043a5.58,5.58,0,0,0,.154-1.355,5.7,5.7,0,0,0-.19-1.409,5.608,5.608,0,0,0-1.434-2.51,5.686,5.686,0,0,0-.957-.767c-.1-.061-.2-.122-.3-.179a5.6,5.6,0,0,0-5.379,0,6.241,6.241,0,0,0-.531.33,5.9,5.9,0,0,0-.717.617,5.729,5.729,0,0,0-.681-.581h0a4.942,4.942,0,0,0-.581-.359,5.6,5.6,0,0,0-5.379,0,5.459,5.459,0,0,0-.793.531,5.7,5.7,0,0,0-.466.416,5.881,5.881,0,0,0-.617.717c-.111.158-.212.319-.3.484h0a5.022,5.022,0,0,0-.24.48c-.039.09-.075.179-.111.273a.581.581,0,0,1,.025-.108.3.3,0,0,0,0-.054v-.032l.021-.079h0c.018-.065.039-.125.057-.183l.029-.086c.043-.118.086-.233.136-.359l.032-.068c0-.036.029-.068.047-.1l.079-.165h0a.767.767,0,0,0,.039-.075l.047-.083a1.007,1.007,0,0,1,.061-.1.227.227,0,0,1,.029-.05v-.029h0l.039-.057.043-.068.1-.151.036-.054.043-.061.05-.068.061-.075a.492.492,0,0,1,.054-.068l.018-.025.039-.047c.021-.025.039-.05.061-.072l.029-.032h0l.047-.05.054-.061.151-.158.061-.061.1-.09a.459.459,0,0,0,.061-.057l.075-.065.05-.043.05-.039.1-.082.05-.039.258-.19.054-.036.054-.032.05-.032.072-.047.039-.022.054-.032c.072-.043.143-.086.219-.122l.043-.025.068-.036.057-.025.057-.029.054-.025.057-.025.057-.025.233-.093.057-.022.061-.022.054-.021h.047l.108-.036h.14l.079-.021.1-.025c.107-.029.212-.05.319-.068h.287c.1,0,.2-.025.3-.032h.85l.244.025h.348c.1.018.212.039.316.065l.129.036h.09l.108.029h.043l.233.079.05.021.068.025.1.043.118.05.047.022.065.029.057.029.054.025.072.036.054.032.129.068.054.032.19.115.05.032.05.032.054.036h0l.036.025c.075.05.147.1.219.161l.05.039.1.083.047.039.05.043.075.064.065.057a1.1,1.1,0,0,0,.093.09l.061.061.061-.061a1.115,1.115,0,0,0,.093-.09l.064-.057.075-.064.05-.043.047-.039.1-.083.05-.039c.082-.065.168-.129.258-.19l.054-.036.05-.032.05-.032.075-.047.036-.021.054-.032c.075-.043.147-.086.222-.122l.043-.025.068-.036.054-.025.057-.029.057-.025.057-.025.057-.025.229-.093.057-.022.061-.021.057-.022h.047l.1-.036h.143l.075-.021.1-.025c.1-.029.212-.05.316-.068h.29c.1,0,.2-.025.3-.032h.85l.244.025h.348l.312.064.129.036h.093l.1.029h.047l.229.079.054.022.068.025.1.043.118.05.047.021.061.029.057.029.057.025.068.036.057.032.129.068.054.032c.065.036.125.075.186.115l.05.032.054.032.054.036h0l.032.025c.075.05.151.1.222.161l.05.039a1.1,1.1,0,0,1,.1.082l.05.039.05.043.065.057.065.057.036.036h0l.061.061.025.025.036.032.061.065.093.1.05.057.086.1.093.111c.1.126.2.258.294.394l.036.054c0,.021.025.043.039.061l.032.054c.018.029.039.057.057.09l.047.082a.36.36,0,0,1,.029.05l.025.039.022.043.032.061.032.061c.072.14.136.287.2.434l.025.064c.025.061.047.118.068.183a.31.31,0,0,1,.018.054.089.089,0,0,0,.029.079l.022.072a.349.349,0,0,0,0,.047.09.09,0,0,0,.018.065l.021.079a.58.58,0,0,0,.036.129c.011.043,0,.047,0,.072l.022.1v.1a.178.178,0,0,0,0,.043v.323a.549.549,0,0,1,0,.075v.039a.549.549,0,0,0,0,.079.142.142,0,0,0,0,.039v.079h0a.256.256,0,0,1,0,.05.238.238,0,0,1,0,.05.7.7,0,0,1,0,.086h0a.7.7,0,0,1,0,.086Z" transform="translate(-359.705 -229.308)" opacity="0.1"/>
      <path id="Path_10109" data-name="Path 10109" d="M735.722,433.368v.09a.265.265,0,0,1,0,.05v.143a.914.914,0,0,0,0,.1v.136a.5.5,0,0,1,0,.072l-.021.179v.118h0v.057a.1.1,0,0,1,0,.036v.032a.508.508,0,0,1,0,.061v.186h0a.3.3,0,0,0,0,.054v.065l-.022.079v.022a.7.7,0,0,0-.025.079c-.025.082-.05.165-.079.247a.619.619,0,0,0-.029.075l-.018.043a5.6,5.6,0,0,1-.739,1.352l-.057.075a5.665,5.665,0,0,1-.477.541l-7.907,7.907-7.889-7.907a5.19,5.19,0,0,1-.62-.735,5.116,5.116,0,0,1-.323-.513,5.6,5.6,0,0,1-.674-3.181,1.436,1.436,0,0,1,.032-.3,5.363,5.363,0,0,1,.1-.531.154.154,0,0,1,.029-.108.3.3,0,0,1,0-.054.1.1,0,0,1,0-.032l.022-.079h0a.718.718,0,0,1,.057-.183.85.85,0,0,0,.029-.086c.043-.118.09-.233.136-.359l.032-.072a.291.291,0,0,1,.047-.1c.018-.036.054-.111.083-.165h0l.036-.075.047-.082c.021-.036.039-.072.061-.1a.368.368,0,0,1,.029-.05v-.029h0c0-.021.025-.043.04-.061l.043-.068.1-.151.036-.05.047-.065.047-.065.061-.079.054-.068v-.025l.039-.047.061-.072.029-.032h0l.047-.054.054-.057c.05-.054.1-.107.154-.158a.49.49,0,0,1,.061-.061,1.113,1.113,0,0,1,.093-.09l.065-.057a.661.661,0,0,1,.072-.068l.05-.043.05-.039.1-.082.05-.04c.086-.064.172-.129.258-.186l.054-.036.054-.036.05-.032.075-.047.036-.022.054-.032.219-.122.043-.025.068-.032.057-.029.057-.025.057-.029.054-.025.057-.025.233-.093.057-.022.061-.021.054-.018.047-.018.108-.032h.14l.079-.022.1-.025c.108-.025.212-.05.319-.068h.287l.308-.032h.846l.247.025h.344a3.089,3.089,0,0,1,.316.068l.129.032h.09l.108.032h.047l.229.079h.05l.068.025.1.043.118.05.047.022.064.032.057.025.054.029.072.036.057.029.125.072.057.029.186.115.05.032.054.036.05.036h0l.036.025.219.161.054.039.1.082.05.039.047.043.075.068.064.057.093.09a.492.492,0,0,1,.061.061c.021-.021.04-.043.061-.061l.1-.09a.448.448,0,0,1,.061-.057l.075-.068.05-.043.05-.039.1-.082.05-.039c.086-.065.172-.129.258-.186l.054-.036.054-.036.05-.032.072-.047.039-.022.054-.032.219-.122.043-.025.068-.032.057-.029.054-.025.057-.029.057-.025.057-.025.229-.093.057-.022.061-.022.057-.018.047-.018.108-.032h.14l.079-.021.1-.025c.1-.025.212-.05.316-.068h.29l.3-.032h.85l.244.025h.348c.1.018.212.039.316.068l.129.032h.089l.1.032h.047l.229.079h.054l.068.025.1.043.118.05.047.021.065.032.054.025.057.029.072.036.054.029.129.072.054.029c.065.036.125.075.187.115l.05.032.054.036.054.036h0l.036.025.219.161.05.039.1.082.05.039.05.043.064.057.065.057a.351.351,0,0,0,.036.036h0c0,.022.039.039.061.061l.029.025.032.036.061.061.093.1.05.057a1.089,1.089,0,0,1,.086.1l.093.108c.1.129.2.258.294.394,0,.018.025.036.036.057l.039.057.032.054c.021.029.039.061.057.09l.047.082.032.05.022.043.021.039.032.061.032.061c.072.143.14.287.2.434a.49.49,0,0,1,.025.065c.025.061.047.122.068.183l.022.057a.584.584,0,0,0,.025.075l.021.072v.111l.021.079a.616.616,0,0,0,.036.133c.011.043,0,.043,0,.068l.021.1v.775h0a.213.213,0,0,0,0,.047v.05a.674.674,0,0,1,0,.086h0a.674.674,0,0,1,0,.086Z" transform="translate(-510.827 -283.477)" fill="#b0463d"/>
      <path id="Path_10110" data-name="Path 10110" d="M736.022,433.381v.09a.265.265,0,0,1,0,.05v.143a.8.8,0,0,0,0,.1v.136a.522.522,0,0,1,0,.072l-.021.179v.118h0v.057a.114.114,0,0,1,0,.036v.032a.507.507,0,0,1,0,.061v.187h0a.282.282,0,0,0,0,.054v.065l-.022.079v.021a.684.684,0,0,0-.025.079c-.025.082-.05.165-.079.247a.652.652,0,0,0-.029.075l-.018.043a5.581,5.581,0,0,0-2.438-6.017c-.1-.064-.2-.125-.3-.183a5.6,5.6,0,0,0-5.378,0,5.461,5.461,0,0,0-.531.333,5.616,5.616,0,0,0-.717.617,5.474,5.474,0,0,0-.681-.585h0a6.522,6.522,0,0,0-.577-.359,5.611,5.611,0,0,0-5.379,0,5.754,5.754,0,0,0-.792.531,5.142,5.142,0,0,0-.466.42,5.294,5.294,0,0,0-.613.717,4.669,4.669,0,0,0-.308.488h0c-.09.158-.169.319-.24.48-.039.09-.075.179-.111.272a.154.154,0,0,1,.029-.108.283.283,0,0,1,0-.054.1.1,0,0,1,0-.032l.021-.079h0a.724.724,0,0,1,.057-.183.819.819,0,0,0,.029-.086c.043-.118.09-.233.136-.359l.032-.072a.292.292,0,0,1,.047-.1c.018-.036.054-.111.082-.165h0l.036-.075.047-.082c.021-.036.039-.072.061-.1a.348.348,0,0,1,.029-.05v-.029h0c0-.022.025-.043.039-.061l.043-.068.1-.151.036-.05.047-.064.047-.065.061-.079.054-.068v-.025l.039-.047.061-.072.029-.032h0l.047-.054.054-.057c.05-.054.1-.108.154-.158a.5.5,0,0,1,.061-.061,1.114,1.114,0,0,1,.093-.09l.065-.057a.636.636,0,0,1,.072-.068l.05-.043.05-.039.1-.082.05-.039c.086-.065.172-.129.258-.186l.054-.036.054-.036.05-.032.075-.047.036-.021.054-.032.219-.122.043-.025.068-.032.057-.029.057-.025.057-.029.054-.025.057-.025.233-.093.057-.022.061-.021.054-.018.047-.018L721,428h.14l.079-.021.1-.025c.108-.025.211-.05.319-.068h.287l.308-.032h.846l.247.025h.344a3.084,3.084,0,0,1,.316.068l.129.032h.09l.108.032h.047l.23.079h.05l.068.025.1.043.118.05.047.022.065.032.057.025.054.029.072.036.057.029.125.072.057.029.187.115.05.032.054.036.05.036h0l.036.025.219.161.054.039.1.083.05.039.047.043.075.068.065.057.093.09a.489.489,0,0,1,.061.061c.021-.022.039-.043.061-.061l.1-.09a.459.459,0,0,1,.061-.057l.075-.068.05-.043.05-.039.1-.083.05-.039c.086-.064.172-.129.258-.186l.054-.036.054-.036.05-.032.072-.047.04-.022.054-.032.219-.122.043-.025.068-.032.057-.029.054-.025.057-.029.057-.025.057-.025.229-.093.057-.022.061-.021.057-.018.047-.018.108-.032h.14l.079-.022.1-.025c.1-.025.212-.05.316-.068h.29l.3-.032h.85l.244.025h.348c.1.018.212.04.316.068l.129.032h.09l.1.032h.046l.23.079h.054l.068.025.1.043.118.05.047.022.065.032.054.025.057.029.072.036.054.029.129.072.054.029c.065.036.126.075.187.115l.05.032.054.036.054.036h0l.036.025.219.161.05.039.1.082.05.039.05.043.065.057.065.057a.337.337,0,0,0,.036.036h0c0,.021.039.039.061.061l.029.025.032.036.061.061.093.1.05.057a1.152,1.152,0,0,1,.086.1l.093.108c.1.129.2.258.294.394,0,.018.025.036.036.057l.039.057.032.054c.022.029.039.061.057.09l.047.082.032.05.021.043.022.039.032.061.032.061c.072.143.14.287.2.434a.514.514,0,0,1,.025.065c.025.061.047.122.068.183l.022.057a.613.613,0,0,0,.025.075l.022.072v.111l.021.079a.606.606,0,0,0,.036.133c.011.043,0,.043,0,.068l.021.1v.774h0a.2.2,0,0,0,0,.047V433a.7.7,0,0,1,0,.086h0a.7.7,0,0,1,0,.086Z" transform="translate(-511.127 -283.489)" opacity="0.1"/>
      <path id="Path_10111" data-name="Path 10111" d="M567.068,290.482h0a41.249,41.249,0,0,0-3.643-3.281c.154-1.922.513-6.522.545-7.408.036-1.122-1.617-2.557-5.153-3.88s-2.51,4.848-2.46,5.4a4.162,4.162,0,0,0,2.152,2.79c.477.2.606.445.574.678l-.111-.018a13.832,13.832,0,0,1-4.22-1.033,22.283,22.283,0,0,0-1.076,4.776v.244a1.843,1.843,0,0,0,.086.832h.247a2.7,2.7,0,0,1-.2,1.226h0a9.462,9.462,0,0,1-.359.882,24.689,24.689,0,0,1-.168-2.657c.057-.861-1.312-4.357-1.312-4.357a6.1,6.1,0,0,1-1.768-1.606,7.054,7.054,0,0,0-2.966-2.237c-.814-.287-3.765-4.127-4.98-5.02-.968-.717-1.359-.294-1.477-.093l-.072.05a4.249,4.249,0,0,1-.965-2.058c0-.391.039-1.194.111-2.212a9.336,9.336,0,0,1,1.176,1.076c.825.914,1.434,2,2.334,2.847a3.8,3.8,0,0,0,2.575,1.126,2.378,2.378,0,0,0,.932-.147c1.2-.463,1.969-1.922,3.227-1.979.99.05,1.718.965,2.528,1.567a3.388,3.388,0,0,0,2.083.717,2.372,2.372,0,0,0,.878-.14,1.882,1.882,0,0,0,1.144-2.4c-.66-1.391-2.9-1.076-3.862-2.288a.946.946,0,0,1-.222-.889.62.62,0,0,1,.581-.423,2.022,2.022,0,0,1,1.2.574c.466.473,1.076,1.076,1.653,1.011a.785.785,0,0,0,.47-.09c.018-.427.039-.853.057-1.28a4.465,4.465,0,0,0,1.994.567,2.339,2.339,0,0,0,.387-.018,1.56,1.56,0,0,0,1.391-1.535,1.739,1.739,0,0,0,1.194.4,1.627,1.627,0,0,0,.574-.072,1.736,1.736,0,0,0,1.162-1.492,3.405,3.405,0,0,0-.907-2.151l-2.345-3.206a1.3,1.3,0,0,1-.359-.925,1.929,1.929,0,0,1,.4-.717,2.5,2.5,0,0,0-.488-3.084,4.348,4.348,0,0,0-3.127-1.036,4.1,4.1,0,0,1-2.478-.323,2.823,2.823,0,0,1-.968-1.689c-.5-1.886-.527-3.865-.875-5.784a7.937,7.937,0,0,0-2.653-5.059,2.457,2.457,0,0,0-1.23-.538,8.73,8.73,0,0,0-1.14.093,4.166,4.166,0,0,1-3.256-1.829,29.026,29.026,0,0,0-2.37-3.073,5.786,5.786,0,0,0-5.5-1.273c-.839.233-1.506.914-2.374.95a28.383,28.383,0,0,1-3.923-.359,10.837,10.837,0,0,0-3.586.079,3.815,3.815,0,0,0-2.51,1.861l-.3-2.585a45.124,45.124,0,0,0-.914-5.275,1.314,1.314,0,0,1,.036-1.151l.057.054c.043-.129.09-.262.136-.394a.938.938,0,0,0,0-.3c.111-.979-1.667-7.211-1.667-7.211h-1.6a1.277,1.277,0,0,0-.04-.23c-.466-2.535-1.251-6.5-1.793-7.451a4.442,4.442,0,0,1-.323-2.41,19.332,19.332,0,0,0,.075-2.843,7.792,7.792,0,0,1,.065-1.37,1.922,1.922,0,0,0-.764-1.793c-2.1-1.556-7.2-5.1-10.18-5.189-3.822-.115,1.2,6.594,1.14,7.225s3.822,1.2,3.822,1.2.229,1.947.459,3.037c.158.757.423,6.368.574,9.735a10.693,10.693,0,0,1-2.571-.965s-4.45-1.2-4.852,0,5.422,7,5.422,7,2.055,5.447,1.434,7.171-.172,9.861-.172,9.861.057,9.681.484,12.156a4.765,4.765,0,0,1-.771,3.84s-.513,6.078,0,6.651a17.771,17.771,0,0,1,1.406,2.255l.151.273c-1.685,2.058-3.36,4.027-4.238,4.3-1.71.516-13.4,5.379-13.4,5.379s-3.819,3.65-4.4,3.65,3.478,3.9,3.478,3.9,3.65,2.922,4.052,3.381,10.4,5.906,10.4,5.906,1.714.516,1.883,1.033,2.453,1.947,2.453,1.947a14.9,14.9,0,0,1,2.209,3.313.77.77,0,0,0,.025.247c.021.359.047.523.068.437.3.839,2.359,2.98,1.37,4.507-.459.717,0,2,.886,3.044a10.938,10.938,0,0,1-.932,3.227c-.685.918-.38,2.216-1.076,2.37s-.914,3.518-.914,3.518l-.592,7.412s-.154,1.528-.99,1.911,0,2.445,0,2.445-.9,1.757-.359,2.75-1.076,5.583-1.076,5.583-.685,8.868,0,10.09a10.04,10.04,0,0,1,1.076,3.9c0,.764.38,15.06.38,15.06s-.914,5.809-1.219,6.877.839,3.442.079,4.661-.61,3.973-.61,3.973-1.14,10.779-.455,14.755-.219,4.816-.219,4.816a8.149,8.149,0,0,0,1.477.653c.018.151.036.312.054.477.359,3.335.886,9.079.405,10.4a20.958,20.958,0,0,0-.663,5.221v.233h0l-1.33,2.151a6.881,6.881,0,0,1-.61,2.2c-.344.3-3.2,5.493-3.586,6.16l-.039.072s-2.89,5.314,4.26,5.465,6.236-3.514,6.236-3.514.022-.717.09-1.6a7.7,7.7,0,0,1,.52-2.725,38.3,38.3,0,0,0,1.94-3.478v-4.21h-.459a.738.738,0,0,1,.025-.23,15.874,15.874,0,0,1,.4-2.6c.226-.534-.495-3.747-.495-3.747a84.345,84.345,0,0,1,.864-10.083c.032-.172.065-.341.1-.5a12.2,12.2,0,0,0,1.538-.8s0-7.8.914-9.172.721-5.275.721-5.275.226-3.439.911-4.127.524-3.747.524-3.747.606-1.986,1.291-3.586a31.055,31.055,0,0,0,1.076-6.114,7.756,7.756,0,0,1,1.076-2.22c.764-1.076,0-3.439,0-3.439a4.188,4.188,0,0,1-.3-3.059c.534-1.531,3.5-13.913,3.5-13.913l1.144-4.432,1.671,5.655a38.841,38.841,0,0,0,0,5.2,16.229,16.229,0,0,0,1.825,3.586v12s.154,8.1.764,9.4.911,6.117.911,6.117,2.055,14.142.76,16.2a12.375,12.375,0,0,0,2.1,1.151v8.33s-1.492,5.042-.983,8.473a1.341,1.341,0,0,0,.032.2c-.136.1-.287.186-.38.151l.24,5.737a17.76,17.76,0,0,1-.545,4.859,6.913,6.913,0,0,0-.359,1.822c-.133,2.27.742,5.379,5.737,5.056,6.652-.423,5.626-4.661,5.626-4.661s0-.165-.025-.455a17.28,17.28,0,0,0-1.649-6.232,15.688,15.688,0,0,1-1.366-7.035,2.465,2.465,0,0,1-.405.108,1.034,1.034,0,0,1,.018-.233c.086-1.076.219-2.471.358-3.123a20.474,20.474,0,0,0,0-3.819l.857-8.373.047-.466a6.859,6.859,0,0,0,1.18-.717h0a8.58,8.58,0,0,1-.441-2.331,2.058,2.058,0,0,1,.441-1.474c.99-.993,1.671-13.454,1.671-13.454s.538-4.385.542-5.866v-.265c-.061-.893-.534-4.389-.527-6.429a4.043,4.043,0,0,1,.147-1.277c.455-1.147,1.076-22.7,1.076-22.7l.76-9.552v-7.846a46.278,46.278,0,0,0-1.362-11.151c2.075,1.086,5.629,3.532,6.278,2.879.8-.8,1.2-14.565.968-15.939a1.445,1.445,0,0,0-.054-.28c-.054-.251-.133-.588-.229-.979l.315-.549c1.56-2.7,3.944-6.989,4.134-8.247a54.4,54.4,0,0,1,1.036-6.791,3.169,3.169,0,0,1,.154-.384h0c.14-.283.291-.437.463-.394.972.229,1.6.975,2.112.688a.251.251,0,0,0,.068-.057h0a.852.852,0,0,0,.129-.183h0a1.786,1.786,0,0,0,.118-.262h0c.036-.093.068-.2.1-.308v-.032a.662.662,0,0,1,.036-.14.229.229,0,0,0,0-.047.5.5,0,0,1,.029-.122l.021-.09v-.047c.09-.405.158-.825.2-1.119a1.493,1.493,0,0,1,.036-.265v-.143Z" transform="translate(-365.878 -138.909)" fill="url(#linear-gradient)"/>
      <path id="Path_10112" data-name="Path 10112" d="M559.339,489.632a1.219,1.219,0,0,0-.079-.642C559.285,489.506,559.314,489.743,559.339,489.632Z" transform="translate(-409.762 -322.719)" fill="url(#linear-gradient-2)"/>
      <path id="Path_10113" data-name="Path 10113" d="M675.334,418.926s1.355-.925.032-1.47a4.156,4.156,0,0,1-2.151-2.775c-.05-.552-1.076-6.691,2.46-5.379s5.189,2.74,5.153,3.858-.61,8.211-.61,8.211Z" transform="translate(-482.743 -271.487)" fill="#fbbebe"/>
      <path id="Path_10114" data-name="Path 10114" d="M678.379,438.046a2.1,2.1,0,0,1-.054.409c-.1.717-.359,2.194-.746,2.406-.513.287-1.14-.455-2.112-.685-.172-.039-.323.111-.463.394a3.306,3.306,0,0,0-.154.38,54.076,54.076,0,0,0-1.036,6.763c-.193,1.259-2.574,5.529-4.134,8.215-.233.405-.452.775-.638,1.076-.43.717-.717,1.187-.717,1.187L664.38,450.8v-10.9a9.69,9.69,0,0,0,.717-1.51h0a2.663,2.663,0,0,0,.2-1.219.624.624,0,0,0-.168-.359.425.425,0,0,1-.075-.111.568.568,0,0,1-.036-.093,1.177,1.177,0,0,1-.05-.28v-.237a22.162,22.162,0,0,1,1.076-4.755,13.336,13.336,0,0,0,4.22,1.026C673.168,432.7,678.379,438.046,678.379,438.046Z" transform="translate(-477.189 -285.734)" fill="#955f61"/>
      <path id="Path_10115" data-name="Path 10115" d="M679.37,439.3c-.1.717-.359,2.194-.746,2.406-.513.287-1.14-.455-2.112-.685-.172-.039-.323.111-.463.394a3.341,3.341,0,0,0-.154.38c-1.961-.954-5.379-2.682-5.6-3.17s-2.6-.6-3.944-.62h-.244a1.818,1.818,0,0,1-.086-.828,24.883,24.883,0,0,1,1.076-4.532,13.34,13.34,0,0,0,4.22,1.026C674.063,433.981,678.825,438.743,679.37,439.3Z" transform="translate(-478.234 -286.575)" opacity="0.1"/>
      <path id="Path_10116" data-name="Path 10116" d="M679.463,438.03s-.287,2.528-.8,2.811-1.14-.455-2.112-.681c-.172-.043-.323.107-.463.391-1.933-.939-5.54-2.747-5.737-3.245s-2.912-.613-4.188-.628c-.47-.982.99-5.379.99-5.379a13.388,13.388,0,0,0,4.22,1.029C674.281,432.673,679.463,438.03,679.463,438.03Z" transform="translate(-478.273 -285.715)" fill="#955f61"/>
      <path id="Path_10117" data-name="Path 10117" d="M646.563,458.779c-.8.8-5.992-3.08-7.415-3.31s-6.6-21.9-6.6-21.9l.778-12.213-3.034-11.238-.394-1.47s.3-.9,1.52,0,4.181,4.719,4.981,5a7.14,7.14,0,0,1,2.965,2.23,6.043,6.043,0,0,0,1.768,1.6s1.37,3.482,1.312,4.335.459,6.677,1.076,7.189,1.653,5.192,1.653,5.192,1.886,6.573,2.284,8.448a2.622,2.622,0,0,1,.054.28C647.761,444.289,647.363,457.98,646.563,458.779Z" transform="translate(-455.073 -270.929)" fill="#955f61"/>
      <path id="Path_10118" data-name="Path 10118" d="M647.567,473.33l3.765,1.008s.717,6.5.983,6.849,1.183,13.69,1.183,13.69l-5.931-2.682-2.227-7.171v-7.935Z" transform="translate(-464.976 -312.674)" opacity="0.1"/>
      <path id="Path_10119" data-name="Path 10119" d="M558.3,765.361a12.721,12.721,0,0,0-.542,2.151,81.267,81.267,0,0,0-.864,10.04s.717,3.195.495,3.729a15.65,15.65,0,0,0-.4,2.585c-.061.559-.1.986-.1.986l-6.964-.455s0-.412.021-1.043a21.248,21.248,0,0,1,.663-5.192c.47-1.312-.043-7.042-.405-10.363-.154-1.434-.28-2.417-.28-2.417S559.472,762.306,558.3,765.361Z" transform="translate(-403.778 -499.123)" fill="#fbbebe"/>
      <path id="Path_10120" data-name="Path 10120" d="M634.265,767.227l-.857,8.33a20.28,20.28,0,0,1,0,3.8c-.129.649-.262,2.033-.358,3.109-.065.814-.108,1.456-.108,1.456s-5.325,3.729-6.54.455a5.8,5.8,0,0,1-.3-1.226c-.509-3.417.983-8.434.983-8.434V764l7.379,1.2Z" transform="translate(-452.568 -499.118)" fill="#fbbebe"/>
      <path id="Path_10121" data-name="Path 10121" d="M558.331,765.359a12.7,12.7,0,0,0-.542,2.151,10.625,10.625,0,0,1-7.53.283c-.154-1.434-.28-2.417-.28-2.417S559.5,762.3,558.331,765.359Z" transform="translate(-403.81 -499.122)" opacity="0.1"/>
      <path id="Path_10122" data-name="Path 10122" d="M636.439,765.188l-.208,2.019a8.788,8.788,0,0,1-7.171-.359V763.98Z" transform="translate(-454.534 -499.105)" opacity="0.1"/>
      <path id="Path_10123" data-name="Path 10123" d="M553.73,506.21s-.606,4.489-1.291,5.4-.38,2.205-1.076,2.356-.914,3.5-.914,3.5l-.581,7.38s-.154,1.52-.99,1.9,0,2.435,0,2.435-.9,1.75-.359,2.74-1.076,5.551-1.076,5.551-.685,8.824,0,10.04a9.98,9.98,0,0,1,1.076,3.88c0,.76.38,14.985.38,14.985s-.914,5.784-1.219,6.849.839,3.421.079,4.64-.61,3.944-.61,3.944-1.176,10.739-.491,14.684-.219,4.791-.219,4.791a10.646,10.646,0,0,0,10.714-.455s0-7.76.914-9.129.764-5.246.764-5.246.226-3.424.911-4.109.523-3.718.523-3.718.606-1.979,1.291-3.586a31.017,31.017,0,0,0,1.076-6.1,7.672,7.672,0,0,1,1.076-2.209c.764-1.076,0-3.421,0-3.421a4.156,4.156,0,0,1-.3-3.044c.534-1.52,3.5-13.844,3.5-13.844l1.144-4.411,1.671,5.63a38.418,38.418,0,0,0,0,5.171,16.4,16.4,0,0,0,1.825,3.586v11.944s.154,8.064.764,9.355.911,6.1.911,6.1,2.055,14.074.76,16.136c0,0,5.859,4.181,10.5.76,0,0-.99-2.815,0-3.8s1.671-13.389,1.671-13.389.61-4.945.534-6.1-.835-6.54-.38-7.681,1.076-22.59,1.076-22.59l.76-9.506v-7.781a45.708,45.708,0,0,0-1.721-12.457c-1.287-4.536-3.069-9.739-4.568-10.065C581.824,507.325,558.219,509.939,553.73,506.21Z" transform="translate(-401.539 -333.764)" fill="#3f3d56"/>
      <path id="Path_10124" data-name="Path 10124" d="M556.99,816.325c-.061.559-.1.986-.1.986l-6.964-.455s0-.412.021-1.043c3.267-2.9,6.522.513,6.522.513Z" transform="translate(-403.778 -531.603)" opacity="0.1"/>
      <path id="Path_10125" data-name="Path 10125" d="M546.462,816.985v4.224a33.9,33.9,0,0,1-1.94,3.46,7.568,7.568,0,0,0-.52,2.711c-.068.861-.09,1.585-.09,1.585s.914,3.654-6.236,3.5-4.26-5.439-4.26-5.439l.039-.068c.359-.667,3.252-5.845,3.586-6.132a7,7,0,0,0,.61-2.191l1.33-2.151c3.274-2.926,6.544.495,6.544.495Z" transform="translate(-392.815 -532.023)" fill="#3f3d56"/>
      <path id="Path_10126" data-name="Path 10126" d="M543.912,849.8s.914,3.654-6.236,3.5-4.26-5.425-4.26-5.425l.039-.068c.2,1.076,1.04,2.191,3.726,2.047a16.485,16.485,0,0,0,6.813-1.624C543.934,849.079,543.912,849.8,543.912,849.8Z" transform="translate(-392.815 -552.876)" opacity="0.1"/>
      <path id="Path_10127" data-name="Path 10127" d="M633.269,814.273c-.065.814-.108,1.456-.108,1.456s-5.325,3.729-6.54.455a5.786,5.786,0,0,1-.3-1.226,2.935,2.935,0,0,0,.3-.258c.871-1.291,5.511-1.33,5.737-.717C632.5,814.334,632.939,814.334,633.269,814.273Z" transform="translate(-452.776 -530.932)" opacity="0.1"/>
      <path id="Path_10128" data-name="Path 10128" d="M629.28,833.123c-5.02.316-5.884-2.772-5.737-5.02a6.811,6.811,0,0,1,.359-1.811,17.609,17.609,0,0,0,.545-4.837l-.24-5.7c.19.075.649-.38.649-.38.871-1.291,5.511-1.33,5.737-.717s1.294.2,1.294.2a15.524,15.524,0,0,0,1.366,7,17.165,17.165,0,0,1,1.649,6.2c.021.287.025.452.025.452S635.932,832.7,629.28,833.123Z" transform="translate(-450.986 -531.361)" fill="#3f3d56"/>
      <path id="Path_10129" data-name="Path 10129" d="M629.28,857.755c-5.02.316-5.884-2.772-5.737-5.02,0,0,1.3,2.212,5.938,1.682a13.013,13.013,0,0,0,5.414-1.746c.021.287.025.452.025.452S635.932,857.335,629.28,857.755Z" transform="translate(-450.986 -555.993)" opacity="0.1"/>
      <g id="Group_10443" data-name="Group 10443" transform="translate(178.202 173.575)" opacity="0.1">
        <path id="Path_10130" data-name="Path 10130" d="M644.577,514.943c-1.029-2.94-2.151-5.379-3.17-5.583l-.907.093c.947.509,1.987,2.775,2.937,5.49a56.887,56.887,0,0,1,3.12,18.732v5.988l-.76,9.509s-.609,21.45-1.076,22.59.3,6.54.38,7.684-.534,6.1-.534,6.1-.685,12.4-1.671,13.386,0,3.8,0,3.8a6.813,6.813,0,0,1-3.586,1.323,6.978,6.978,0,0,0,4.737-1.323s-.99-2.815,0-3.8,1.671-13.386,1.671-13.386.61-4.945.534-6.1-.835-6.544-.38-7.684,1.076-22.59,1.076-22.59l.76-9.509v-5.988A56.881,56.881,0,0,0,644.577,514.943Z" transform="translate(-639.31 -509.36)"/>
      </g>
      <g id="Group_10444" data-name="Group 10444" transform="translate(144.926 172.446)" opacity="0.1">
        <path id="Path_10131" data-name="Path 10131" d="M547.88,601.3s.9-.839.219-4.794.455-14.68.455-14.68-.151-2.74.609-3.944-.38-3.586-.079-4.64,1.219-6.849,1.219-6.849-.391-14.232-.391-15a9.947,9.947,0,0,0-1.076-3.876c-.685-1.219,0-10.04,0-10.04s1.6-4.565,1.076-5.551.359-2.74.359-2.74-.835-2.055,0-2.435.99-1.9.99-1.9l.606-7.379s.23-3.345.914-3.5.38-1.434,1.076-2.356c.513-.685.986-3.385,1.187-4.69a4.735,4.735,0,0,1-1.262-.717s-.61,4.486-1.295,5.4-.38,2.205-1.076,2.356-.911,3.5-.911,3.5l-.588,7.383s-.154,1.52-.99,1.9,0,2.435,0,2.435-.9,1.75-.359,2.739-1.076,5.551-1.076,5.551-.685,8.824,0,10.04a9.951,9.951,0,0,1,1.076,3.876c0,.764.38,14.985.38,14.985s-.914,5.784-1.216,6.849.835,3.421.075,4.64-.61,3.944-.61,3.944-1.151,10.743-.466,14.687-.219,4.794-.219,4.794a10.478,10.478,0,0,0,5.644,1.2,10.215,10.215,0,0,1-4.274-1.194Z" transform="translate(-546.51 -506.21)"/>
      </g>
      <path id="Path_10132" data-name="Path 10132" d="M591.4,305.476a28.278,28.278,0,0,1,2.37,3.059,4.188,4.188,0,0,0,3.256,1.822,8.749,8.749,0,0,1,1.14-.1,2.456,2.456,0,0,1,1.23.538,7.867,7.867,0,0,1,2.654,5.02c.348,1.9.359,3.88.875,5.759a2.868,2.868,0,0,0,.968,1.682,4.172,4.172,0,0,0,2.478.319,4.378,4.378,0,0,1,3.127,1.033,2.483,2.483,0,0,1,.488,3.069,1.869,1.869,0,0,0-.4.7,1.284,1.284,0,0,0,.359.922l2.345,3.191a3.4,3.4,0,0,1,.907,2.151,1.685,1.685,0,0,1-2.969.965c.255.792-.527,1.614-1.352,1.721a4.341,4.341,0,0,1-2.377-.624l-.061,1.352c-.688.359-1.416-.359-1.965-.918s-1.678-.882-1.94-.151a.947.947,0,0,0,.222.889c.957,1.194,3.2.889,3.862,2.273a1.865,1.865,0,0,1-1.144,2.385,3.133,3.133,0,0,1-2.8-.574c-.8-.574-1.581-1.574-2.625-1.567-1.3,0-2.08,1.506-3.3,1.976a3.364,3.364,0,0,1-3.346-.972c-.893-.839-1.513-1.926-2.338-2.836-2.123-2.341-5.339-3.27-8.337-4.271s-6.171-2.363-7.72-5.117a20.938,20.938,0,0,0-1.363-2.571c-1.011-1.32-2.711-1.936-3.819-3.173a4.9,4.9,0,0,1-.749-5.239,17.553,17.553,0,0,1,2.184-2.947,9.912,9.912,0,0,0,1.947-5.816,7.374,7.374,0,0,1,.168-2.352,3.662,3.662,0,0,1,2.657-2.187,10.919,10.919,0,0,1,3.586-.082,32.862,32.862,0,0,0,3.923.359c.868-.039,1.535-.717,2.374-.947A5.8,5.8,0,0,1,591.4,305.476Z" transform="translate(-415.776 -204.06)" fill="#3f3d56"/>
      <g id="Group_10445" data-name="Group 10445" transform="translate(153.015 108.462)" opacity="0.1">
        <path id="Path_10133" data-name="Path 10133" d="M658.872,330.165c.359,1.911.359,3.88.879,5.755a3.628,3.628,0,0,0,.57,1.294c-.043-.126-.083-.255-.115-.38-.5-1.879-.527-3.847-.875-5.759a10.243,10.243,0,0,0-1.151-3.306A11.371,11.371,0,0,1,658.872,330.165Z" transform="translate(-626.227 -327.77)"/>
        <path id="Path_10134" data-name="Path 10134" d="M681.524,364.236a1.845,1.845,0,0,0-.405.717,1.277,1.277,0,0,0,.359.918c.032.043.061.086.093.126a.561.561,0,0,1,0-.133,1.881,1.881,0,0,1,.405-.7,2.433,2.433,0,0,0-.219-2.768A2.213,2.213,0,0,1,681.524,364.236Z" transform="translate(-640.941 -349.983)"/>
        <path id="Path_10135" data-name="Path 10135" d="M616.439,383.13a1.962,1.962,0,0,1-1.269,1.936,3.132,3.132,0,0,1-2.8-.577c-.8-.577-1.581-1.57-2.621-1.563-1.305,0-2.08,1.506-3.3,1.972a3.356,3.356,0,0,1-3.346-.972c-.893-.839-1.513-1.925-2.334-2.833-2.123-2.341-5.339-3.274-8.34-4.274s-6.153-2.356-7.706-5.1c.14.3.283.606.445.9,1.549,2.754,4.719,4.116,7.716,5.117s6.218,1.929,8.34,4.271c.825.911,1.434,2,2.334,2.836a3.367,3.367,0,0,0,3.345.972c1.219-.47,1.994-1.965,3.3-1.976,1.04,0,1.793.947,2.625,1.567a3.011,3.011,0,0,0,2.8.574,1.867,1.867,0,0,0,1.147-2.385A1.677,1.677,0,0,0,616.439,383.13Z" transform="translate(-579.108 -355.961)"/>
        <path id="Path_10136" data-name="Path 10136" d="M671.952,384.87a1.958,1.958,0,0,1,.1.735,1.689,1.689,0,0,1-2.973.968c.255.789-.527,1.61-1.352,1.721a4.311,4.311,0,0,1-2.377-.624c-.022.448-.039.9-.061,1.348-.688.359-1.434-.359-1.961-.914s-1.678-.886-1.944-.151a.95.95,0,0,0,.222.886,1.832,1.832,0,0,0,.2.212.659.659,0,0,1,.036-.186c.265-.717,1.395-.4,1.943.151s1.273,1.28,1.965.918c0-.452.039-.9.057-1.352a4.512,4.512,0,0,0,2.381.624c.825-.093,1.607-.929,1.348-1.721a1.689,1.689,0,0,0,2.973-.965A2.7,2.7,0,0,0,671.952,384.87Z" transform="translate(-628.263 -364.396)"/>
        <path id="Path_10137" data-name="Path 10137" d="M573.3,357.836c-1.008-1.32-2.711-1.933-3.815-3.173a4.131,4.131,0,0,1-.42-.552,4.559,4.559,0,0,0,.875,1.467c1.1,1.237,2.808,1.854,3.815,3.173a4.863,4.863,0,0,1,.384.588A8.092,8.092,0,0,0,573.3,357.836Z" transform="translate(-569.07 -344.665)"/>
      </g>
      <path id="Path_10138" data-name="Path 10138" d="M593.141,362.39s.836,9.28-2.969,12.091,8.14,10.5,8.14,10.5L607.365,383s-4.414-4.106-4.414-5.855.76-11.564,1.979-12.7S593.141,362.39,593.141,362.39Z" transform="translate(-429.11 -241.514)" fill="#fbbebe"/>
      <path id="Path_10139" data-name="Path 10139" d="M552.542,297.048l-2.069,4.522s-3.084,1.829-3.31,2-2.682,2.969-2.682,2.969l-6.049,3.88s-.147-.276-.359-.667a18.048,18.048,0,0,0-1.406-2.245c-.513-.57,0-6.616,0-6.616a4.744,4.744,0,0,0,.771-3.822c-.427-2.453-.484-12.095-.484-12.095s-.455-8.1.172-9.814-1.434-7.132-1.434-7.132-5.816-5.78-5.418-6.974,4.852,0,4.852,0a10.037,10.037,0,0,0,2.679.972c.552.032,3.5.047,5.766.05h2.679s1.882,6.558,1.656,7.243c-.047.133-.093.265-.136.394-.183.527-.323,1-.093,1.316a44.91,44.91,0,0,1,.914,5.249l.628,5.25a45.375,45.375,0,0,1,.911,4.679c-.057.574-1.485,1.768-.857,2.851s.861,4.393.861,4.393a12.484,12.484,0,0,0,2.083,3.353A1.749,1.749,0,0,0,552.542,297.048Z" transform="translate(-391.158 -176.172)" fill="#955f61"/>
      <circle id="Ellipse_3162" data-name="Ellipse 3162" cx="10.954" cy="10.954" r="10.954" transform="translate(160.054 105.138)" opacity="0.1"/>
      <circle id="Ellipse_3163" data-name="Ellipse 3163" cx="10.954" cy="10.954" r="10.954" transform="translate(160.054 104.683)" fill="#fbbebe"/>
      <path id="Path_10140" data-name="Path 10140" d="M591.262,415.91c-.99,1.076-1.216,11.474-.631,12.4s-2.944,2.74-5,2.661-7.677,1.675-7.677,1.675-11.263-3.044-13.626-1.52-5.7-2.74-4.715-4.26-1.076-3.65-1.37-4.486a6.7,6.7,0,0,1-.122-1.076h0c-.276-3.83-.563-16.1-.563-16.1V391.114l10.348-7.3a49.638,49.638,0,0,1,4.8,2.779,23.513,23.513,0,0,1,3.105,2.392c2.818,2.664,9.814,5.479,9.814,5.479s7.684,9.2,8.67,10.119S592.248,414.845,591.262,415.91Z" transform="translate(-408.672 -255.254)" fill="#fff"/>
      <path id="Path_10141" data-name="Path 10141" d="M557.57,421.753V409.64s.316,22.063.563,28.212C557.857,434.023,557.57,421.753,557.57,421.753Z" transform="translate(-408.678 -271.822)" opacity="0.1"/>
      <path id="Path_10142" data-name="Path 10142" d="M559.26,490.86a1.206,1.206,0,0,1,.079.638C559.314,491.606,559.285,491.369,559.26,490.86Z" transform="translate(-409.762 -323.918)" opacity="0.1"/>
      <path id="Path_10143" data-name="Path 10143" d="M572.784,390.5a9.286,9.286,0,0,0-1.653,2.338c-.57,1.255-13.561.229-13.561.229v-1.958l10.348-7.3a49.636,49.636,0,0,1,4.8,2.779C572.784,388.733,572.784,390.5,572.784,390.5Z" transform="translate(-408.678 -255.254)" opacity="0.1"/>
      <path id="Path_10144" data-name="Path 10144" d="M559.26,488.31a1.207,1.207,0,0,1,.079.638C559.314,489.059,559.285,488.823,559.26,488.31Z" transform="translate(-409.762 -322.283)" opacity="0.1"/>
      <path id="Path_10145" data-name="Path 10145" d="M566.529,361.954l-2.069,4.522s-3.084,1.829-3.31,2-2.682,2.969-2.682,2.969l-6.049,3.88s-.147-.276-.359-.667a42.119,42.119,0,0,1,4.3-4.869c1.94-1.481-.057-1.653,0-1.94s4.281-1.825,5.422-2.908a47.854,47.854,0,0,1,4.425-3.227A1.75,1.75,0,0,0,566.529,361.954Z" transform="translate(-405.144 -241.078)" opacity="0.1"/>
      <path id="Path_10146" data-name="Path 10146" d="M527.277,362.39a51.661,51.661,0,0,0-4.751,3.421c-1.14,1.083-5.379,2.625-5.422,2.912s1.94.455,0,1.94-6.673,8.441-8.387,8.964-13.4,5.379-13.4,5.379-3.822,3.586-4.393,3.586,3.478,3.88,3.478,3.88,3.65,2.912,4.052,3.367,10.391,5.856,10.391,5.856,1.714.513,1.882,1.025,2.453,1.94,2.453,1.94,2.549,2.93,2.3,3.973-.685-29.762-.685-29.762,12.991,1.026,13.561-.229a9.288,9.288,0,0,1,1.653-2.338s-.036-10.553-.764-11.334S527.292,363.358,527.277,362.39Z" transform="translate(-365.893 -241.514)" fill="#955f61"/>
      <path id="Path_10147" data-name="Path 10147" d="M508.2,416.926s3.421,3.708,5.02,4.335a4.321,4.321,0,0,1,2.223,2.284,13.059,13.059,0,0,0,2.912,1.255,7.21,7.21,0,0,1,2.567,1.71s3.822,1.076,3.822,1.882,1.542,1.886,1.542,1.886L525.9,408.37s-6.35.8-8.175,3.478S508.2,416.926,508.2,416.926Z" transform="translate(-377.011 -271.007)" opacity="0.1"/>
      <path id="Path_10148" data-name="Path 10148" d="M529,419.219c.287-.172,8.075-10.205,8.075-10.205l1.434-.294s-3.7,5.536-3.64,5.992S529,419.219,529,419.219Z" transform="translate(-390.353 -271.232)" opacity="0.1"/>
      <path id="Path_10149" data-name="Path 10149" d="M538.11,426.267s2.055-4.737,2.625-5.536,3.64-6.16,3.64-6.16a3.608,3.608,0,0,1,0,1.37C544.213,416.453,538.11,426.267,538.11,426.267Z" transform="translate(-396.196 -274.984)" opacity="0.1"/>
      <path id="Path_10150" data-name="Path 10150" d="M568.958,348.7s-4.565,8.33-4.163,8.731S568.958,348.7,568.958,348.7Z" transform="translate(-413.297 -232.733)" opacity="0.1"/>
      <path id="Path_10151" data-name="Path 10151" d="M574.745,357.93s-3.765,5.5-3.424,5.432S574.745,357.93,574.745,357.93Z" transform="translate(-417.484 -238.654)" opacity="0.1"/>
      <path id="Path_10152" data-name="Path 10152" d="M545.012,228.965l-7.189.513s0-.233-.025-.635c-.1-2.374-.462-10.65-.656-11.575-.229-1.076-.459-3.023-.459-3.023s-3.88-.57-3.822-1.2-4.963-7.3-1.14-7.171c2.983.09,8.082,3.614,10.18,5.16a1.915,1.915,0,0,1,.764,1.771,7.682,7.682,0,0,0-.065,1.363,19.1,19.1,0,0,1-.075,2.829,4.341,4.341,0,0,0,.323,2.4c.531.95,1.316,4.891,1.793,7.412C544.861,228.054,545.012,228.965,545.012,228.965Z" transform="translate(-391.175 -141.121)" fill="#fbbebe"/>
      <path id="Path_10153" data-name="Path 10153" d="M558.3,272.73l-.136.391c-1.56-1.545-11.331-2.532-11.331-2.532-.857-1-.09-1.434.825-2.653.534-.717,3.736-1.735,6.307-2.456h2.679S558.526,272.045,558.3,272.73Z" transform="translate(-401.552 -179.354)" opacity="0.1"/>
      <path id="Path_10154" data-name="Path 10154" d="M558.454,266.383l-7.189.513s0-.233-.025-.635a31.3,31.3,0,0,1,5.791-2.051h1.04C558.3,265.472,558.454,266.383,558.454,266.383Z" transform="translate(-404.618 -178.539)" opacity="0.1"/>
      <path id="Path_10155" data-name="Path 10155" d="M558.3,272.09c-.047.133-.093.265-.136.394-1.56-1.549-11.331-2.535-11.331-2.535-.857-1-.09-1.434.825-2.65.534-.717,3.736-1.739,6.307-2.46h2.679S558.526,271.405,558.3,272.09Z" transform="translate(-401.552 -178.943)" fill="#955f61"/>
      <path id="Path_10156" data-name="Path 10156" d="M596.184,442.57s-.8,15.347,0,16.089S596.184,442.57,596.184,442.57Z" transform="translate(-433.218 -292.944)" opacity="0.1"/>
      <path id="Path_10157" data-name="Path 10157" d="M612.342,460.55s-.287,16.889,0,17.057S612.342,460.55,612.342,460.55Z" transform="translate(-443.729 -304.477)" opacity="0.1"/>
      <path id="Path_10158" data-name="Path 10158" d="M631,466.12s1.076,11.639,2.055,12.095S631,466.12,631,466.12Z" transform="translate(-455.778 -308.049)" opacity="0.1"/>
      <path id="Path_10159" data-name="Path 10159" d="M646.85,443.258a2.378,2.378,0,0,1-.914-.358c-.968-.628-2.055-7.362-3.478-8.272s-6.562-9.872-6.562-9.872a47.082,47.082,0,0,0-2.8-4.507c-.8-.922-.4-5.02-.4-5.02a22.355,22.355,0,0,1-3.026-4.507,4.087,4.087,0,0,1-.394-1.467s.3-.9,1.52,0,4.181,4.719,4.981,5a7.153,7.153,0,0,1,2.969,2.227,6.174,6.174,0,0,0,1.768,1.6s1.37,3.478,1.312,4.335.455,6.673,1.076,7.189,1.653,5.189,1.653,5.189S646.452,441.383,646.85,443.258Z" transform="translate(-454.675 -271.318)" opacity="0.1"/>
      <path id="Path_10160" data-name="Path 10160" d="M666.05,444.837V444.6a2.232,2.232,0,0,1,.061.516A1.185,1.185,0,0,1,666.05,444.837Z" transform="translate(-478.26 -294.246)" opacity="0.1"/>
      <path id="Path_10161" data-name="Path 10161" d="M669.718,468.507c-.233.405-.452.774-.638,1.076-.943-.972-2-7.311-3.385-8.193a6.449,6.449,0,0,1-1.255-1.409v-7.53a9.688,9.688,0,0,0,.717-1.51c.169,2.037.556,5.056,1,5.422.627.513,1.653,5.192,1.653,5.192S669.037,465.871,669.718,468.507Z" transform="translate(-477.227 -298.313)" opacity="0.1"/>
      <path id="Path_10162" data-name="Path 10162" d="M647.49,442.621a2.248,2.248,0,0,1-.914-.359c-.972-.628-2.055-7.358-3.482-8.272s-6.558-9.868-6.558-9.868a47.089,47.089,0,0,0-2.8-4.507c-.8-.921-.4-5.02-.4-5.02a22.474,22.474,0,0,1-3.026-4.507,4.125,4.125,0,0,1-.394-1.47s.3-.9,1.52,0,4.181,4.719,4.981,5a7.142,7.142,0,0,1,2.965,2.23,6.042,6.042,0,0,0,1.768,1.6s1.37,3.482,1.312,4.335.459,6.677,1.076,7.189,1.653,5.192,1.653,5.192S647.092,440.745,647.49,442.621Z" transform="translate(-455.086 -270.91)" fill="#955f61"/>
      <circle id="Ellipse_3164" data-name="Ellipse 3164" cx="0.771" cy="0.771" r="0.771" transform="translate(179.994 148.859)" fill="#3f3d56"/>
      <circle id="Ellipse_3165" data-name="Ellipse 3165" cx="0.771" cy="0.771" r="0.771" transform="translate(185.058 155.79)" fill="#3f3d56"/>
      <path id="Path_10163" data-name="Path 10163" d="M671.275,454.328s-3.711-1.7-3.141-.782S671.275,454.328,671.275,454.328Z" transform="translate(-479.558 -299.811)" opacity="0.1"/>
      <path id="Path_10164" data-name="Path 10164" d="M671.49,462s-3.769-1.026-2.969-.427S671.49,462,671.49,462Z" transform="translate(-479.774 -305.013)" opacity="0.1"/>
      <path id="Path_10165" data-name="Path 10165" d="M671.613,468.291s-2.567-1.857-1.94-1.172A6.036,6.036,0,0,0,671.613,468.291Z" transform="translate(-480.521 -308.593)" opacity="0.1"/>
      <path id="Path_10166" data-name="Path 10166" d="M679.68,476.14s-2.618,5.149-1.366,5.486S679.68,476.14,679.68,476.14Z" transform="translate(-485.909 -314.477)" opacity="0.1"/>
      <path id="Path_10167" data-name="Path 10167" d="M570.6,711.77s-6.01,5.7-4.26,5.63S570.6,711.77,570.6,711.77Z" transform="translate(-414.098 -465.616)" opacity="0.1"/>
      <path id="Path_10168" data-name="Path 10168" d="M555.24,732.117c.3,0,6.39-.609,4.791-.914S555.24,732.117,555.24,732.117Z" transform="translate(-407.184 -478.049)" opacity="0.1"/>
      <path id="Path_10169" data-name="Path 10169" d="M637.76,709.23s6.454.226,6.314.911S637.76,709.23,637.76,709.23Z" transform="translate(-460.114 -463.987)" opacity="0.1"/>
      <path id="Path_10170" data-name="Path 10170" d="M634.79,716.44s3.726,2.815,4.565,1.9S634.79,716.44,634.79,716.44Z" transform="translate(-458.209 -468.611)" opacity="0.1"/>
      <path id="Path_10171" data-name="Path 10171" d="M572.458,597.991a1.89,1.89,0,0,1-.237.577.584.584,0,0,1-.165.172,10.254,10.254,0,0,1-3.044,1.434c-.14-.036-.685-.2-1.284-.359-.7-.2-1.474-.423-1.764-.463s-.459-.5-.5-.954,0-.8.19-.871a.452.452,0,0,0,.161-.237,2.82,2.82,0,0,0,.1-.319l.029-.108c.1-.416.183-.943.24-1.377.032-.233.054-.441.072-.581v-.165h0v-.029l.5-.025h.477a29.553,29.553,0,0,1,4.35.043,1.224,1.224,0,0,1,.792.911,4.193,4.193,0,0,1,.179,1.029A4.6,4.6,0,0,1,572.458,597.991Z" transform="translate(-413.731 -390.481)" fill="#fbbebe"/>
      <path id="Path_10172" data-name="Path 10172" d="M638.727,603.4a.536.536,0,0,0,0,.075c0,.778-.054,1.366-.054,1.463,0,.3-7.91,2.435-9.886,2.281-1.3-.1-.333-.99.391-1.908a3.007,3.007,0,0,0,.574-.972.716.716,0,0,0,0-.391c-.039-.144-.075-.273-.1-.391h0c-.187-.821-.093-1.076.1-1.277a1.518,1.518,0,0,0,.262-.491,1.968,1.968,0,0,0,.111-.509,1.542,1.542,0,0,0-.291-1.1c-.609-.81,2.284-1.244,2.284-1.244h5.5c.538,0,.825.76.968,1.743a.1.1,0,0,0,0,.032c.039.287.072.591.09.9s.032.588.036.875S638.727,603.114,638.727,603.4Z" transform="translate(-453.949 -393.244)" fill="#fbbebe"/>
      <path id="Path_10173" data-name="Path 10173" d="M580.786,670.89s-6.1,1.434-5.475,1.076c.233-.147.287-.642.265-1.2a7.961,7.961,0,0,0-.072-.828c-.079-.635-.194-1.165-.194-1.165s3.195-.685,4.335-.38a1.359,1.359,0,0,1,.857.918,1.289,1.289,0,0,1,.047.125A5.213,5.213,0,0,1,580.786,670.89Z" transform="translate(-420.029 -437.741)" fill="#fbbebe"/>
      <path id="Path_10174" data-name="Path 10174" d="M594.049,322.947a26.355,26.355,0,0,0,2.374-1.158,3.262,3.262,0,0,1,2.553-.251,4.072,4.072,0,0,1,1.119.785c.717.635,1.434,1.269,2.108,1.947a12.393,12.393,0,0,0,2.2,1.961c1.883,1.151,4.274.893,6.454.549a3.978,3.978,0,0,0,1.273-.359,2.644,2.644,0,0,0,1.1-2.851,6.386,6.386,0,0,0-1.639-2.793,22.947,22.947,0,0,0-7.483-5.536c-3.019-1.388-6.612-2.08-9.624-.685a10.437,10.437,0,0,0-2.51,1.714c-1.047.932-3.754,3.3-3.155,4.905C589.477,322.979,592.489,323.47,594.049,322.947Z" transform="translate(-428.666 -210.343)" opacity="0.1"/>
      <path id="Path_10175" data-name="Path 10175" d="M594.049,322.312a25.408,25.408,0,0,0,2.374-1.158,3.278,3.278,0,0,1,2.553-.251,4.234,4.234,0,0,1,1.119.785c.717.635,1.434,1.269,2.108,1.947a12.25,12.25,0,0,0,2.2,1.961c1.883,1.151,4.274.893,6.454.549a3.884,3.884,0,0,0,1.273-.359,2.642,2.642,0,0,0,1.1-2.851,6.386,6.386,0,0,0-1.639-2.793,22.892,22.892,0,0,0-7.483-5.533c-3.019-1.388-6.612-2.08-9.624-.688a10.544,10.544,0,0,0-2.51,1.714c-1.047.932-3.754,3.306-3.155,4.909C589.477,322.347,592.489,322.839,594.049,322.312Z" transform="translate(-428.666 -209.938)" fill="#3f3d56"/>
      <path id="Path_10176" data-name="Path 10176" d="M612.111,337.166a3.847,3.847,0,0,1-1.269.359c-2.18.359-4.568.6-6.454-.549A12.392,12.392,0,0,1,602.178,335c-.674-.681-1.395-1.312-2.108-1.947a4.165,4.165,0,0,0-1.119-.789,3.27,3.27,0,0,0-2.557.255,25.4,25.4,0,0,1-2.37,1.158c-1.56.523-4.572.032-5.246-1.764a1.344,1.344,0,0,1-.068-.269,1.487,1.487,0,0,0,.068.717c.674,1.793,3.686,2.288,5.246,1.764a25.876,25.876,0,0,0,2.37-1.158,3.268,3.268,0,0,1,2.557-.251,4.074,4.074,0,0,1,1.119.785c.717.635,1.434,1.269,2.108,1.947a12.39,12.39,0,0,0,2.2,1.961c1.882,1.151,4.271.893,6.454.549a3.945,3.945,0,0,0,1.269-.359,2.548,2.548,0,0,0,1.158-2.46A2.41,2.41,0,0,1,612.111,337.166Z" transform="translate(-428.642 -221.79)" opacity="0.1"/>
      <path id="Path_10177" data-name="Path 10177" d="M567.148,595.455a14.837,14.837,0,0,1-.4,2.04,17,17,0,0,0,.359-2.065Z" transform="translate(-414.566 -390.992)" opacity="0.1"/>
      <path id="Path_10178" data-name="Path 10178" d="M572.06,598.755a10.253,10.253,0,0,1-3.044,1.434c-.3-.086-2.51-.76-3.048-.835s-.678-1.675-.312-1.825a.453.453,0,0,0,.161-.237,3.124,3.124,0,0,1-.129.319,1.588,1.588,0,0,0,.358,1.674l3.163.818,2.98-1.628c.717-.986-.086-3.259-.495-3.629s-5.3,0-5.3,0l-.108-.1h0v-.029l.5-.025h.477a29.55,29.55,0,0,1,4.349.043C572.82,594.951,572.82,598.224,572.06,598.755Z" transform="translate(-413.734 -390.481)" opacity="0.1"/>
      <path id="Path_10179" data-name="Path 10179" d="M637.62,598.92h-5.5s-2.894.434-2.284,1.244a1.838,1.838,0,0,1-.082,2.1c-.219.229-.312.534,0,1.675s-2.955,3.12-.979,3.27,9.886-1.979,9.886-2.281S639.09,598.92,637.62,598.92Zm.742,5.9c0,.287-7.455,2.291-9.323,2.151s1.216-2,.922-3.08-.208-1.363,0-1.578a1.734,1.734,0,0,0,.079-1.983c-.574-.764,2.151-1.173,2.151-1.173h5.181C638.764,599.157,638.362,604.535,638.362,604.822Z" transform="translate(-453.943 -393.231)" opacity="0.1"/>
      <path id="Path_10180" data-name="Path 10180" d="M579.648,668.36c-1.14-.3-4.335.38-4.335.38s.61,2.815,0,3.195,5.479-1.076,5.479-1.076S580.792,668.665,579.648,668.36Zm-4.242,3.514c.588-.359,0-3.087,0-3.087s3.087-.66,4.188-.359,1.1,2.424,1.1,2.424S574.815,672.24,575.406,671.874Z" transform="translate(-420.032 -437.722)" opacity="0.1"/>
      <path id="Path_10181" data-name="Path 10181" d="M641.431,607.278l-9.061,1.076h0l9.025-1.943C641.413,606.693,641.428,606.98,641.431,607.278Z" transform="translate(-456.657 -398.035)" opacity="0.1"/>
      <path id="Path_10182" data-name="Path 10182" d="M489.81,582l9.413-2.026.2.882Z" transform="translate(-314.179 -371.893)" fill="#3f3d56"/>
      <path id="Path_10183" data-name="Path 10183" d="M640.556,611.39a.517.517,0,0,0,0,.075L631,613.3a3.008,3.008,0,0,0,.574-.972Z" transform="translate(-455.778 -401.23)" opacity="0.1"/>
      <path id="Path_10184" data-name="Path 10184" d="M485.81,586.085l11.474-1.2-11.17,2.148Z" transform="translate(-311.614 -375.042)" fill="#3f3d56"/>
      <path id="Path_10185" data-name="Path 10185" d="M641.95,603.78l-8.459.6a1.964,1.964,0,0,1-.111.509l8.573-1.076Z" transform="translate(-457.305 -396.348)" opacity="0.1"/>
      <path id="Path_10186" data-name="Path 10186" d="M489.553,578.1l9.613-.685-9.757,1.226Z" transform="translate(-313.923 -370.257)" fill="#3f3d56"/>
      <path id="Path_10187" data-name="Path 10187" d="M573.46,598.212l-6.63.215c.1-.416.183-.943.24-1.377l6.21.133A4.2,4.2,0,0,1,573.46,598.212Z" transform="translate(-414.618 -392.031)" opacity="0.1"/>
      <path id="Path_10188" data-name="Path 10188" d="M423.12,570.76l9.043.19-1.1.964-7.939.255Z" transform="translate(-271.403 -365.985)" fill="#3f3d56"/>
      <path id="Path_10189" data-name="Path 10189" d="M572.486,604a1.891,1.891,0,0,1-.237.577l-4.493,1.244c-.7-.2-1.474-.423-1.764-.463s-.459-.5-.5-.954Z" transform="translate(-413.758 -396.489)" opacity="0.1"/>
      <path id="Path_10190" data-name="Path 10190" d="M419.81,578.033l10.535-.613-9.66,2.675Z" transform="translate(-269.28 -370.257)" fill="#3f3d56"/>
      <path id="Path_10191" data-name="Path 10191" d="M580.975,671.186,576,672.516a7.985,7.985,0,0,0-.072-.828c1.388-.186,3.7-.47,5-.628a1.289,1.289,0,0,1,.047.125Z" transform="translate(-420.455 -439.504)" opacity="0.1"/>
      <path id="Path_10192" data-name="Path 10192" d="M572.74,671c.19-.075,7.114-.911,7.114-.911l-7.114,1.9Z" transform="translate(-418.409 -438.881)" fill="#3f3d56"/>
      <circle id="Ellipse_3168" data-name="Ellipse 3168" cx="7.756" cy="7.756" r="7.756" transform="translate(264.038 31.535)" fill="#949e90" opacity="0.4"/>
      <circle id="Ellipse_3169" data-name="Ellipse 3169" cx="6.099" cy="6.099" r="6.099" transform="translate(293.122 47.193)" fill="#949e90" opacity="0.4"/>
      <circle id="Ellipse_3171" data-name="Ellipse 3171" cx="19.575" cy="19.575" r="19.575" transform="translate(27.612 33.717)" fill="#949e90" opacity="0.4"/>
      <circle id="Ellipse_3173" data-name="Ellipse 3173" cx="2.151" cy="2.151" r="2.151" transform="translate(293.269 28.903)" fill="#c4bdb6" opacity="0.83"/>
      <path id="Path_10193" data-name="Path 10193" d="M450.029,788s2.23,2.915-1.029,7.318-5.945,8.118-4.859,10.865c0,0,4.916-8.176,8.918-8.29S454.422,792.919,450.029,788Z" transform="translate(-335.765 -514.512)" fill="#6a7466"/>
      <path id="Path_10194" data-name="Path 10194" d="M450.256,788a3.584,3.584,0,0,1,.455.914c3.9,4.59,5.985,8.871,2.234,8.964-3.5.1-7.691,6.35-8.7,7.928a3.257,3.257,0,0,0,.118.359s4.916-8.175,8.918-8.29S454.649,792.919,450.256,788Z" transform="translate(-335.992 -514.512)" opacity="0.1"/>
      <path id="Path_10195" data-name="Path 10195" d="M471.613,797.2c0,1.025-.115,1.857-.258,1.857s-.255-.832-.255-1.857.143-.545.283-.545S471.613,796.172,471.613,797.2Z" transform="translate(-353.214 -519.992)" fill="#ffd037"/>
      <path id="Path_10196" data-name="Path 10196" d="M473.356,800.533c-.9.491-1.689.789-1.753.663s.606-.624,1.506-1.115.545-.133.613,0S474.252,800.042,473.356,800.533Z" transform="translate(-353.533 -522.1)" fill="#ffd037"/>
      <path id="Path_10197" data-name="Path 10197" d="M419.179,788s-2.23,2.915,1.029,7.318,5.945,8.118,4.859,10.865c0,0-4.916-8.176-8.918-8.29S414.776,792.919,419.179,788Z" transform="translate(-316.701 -514.512)" fill="#6a7466"/>
      <path id="Path_10198" data-name="Path 10198" d="M419.179,788a3.584,3.584,0,0,0-.455.914c-3.9,4.59-5.985,8.871-2.234,8.964,3.5.1,7.691,6.35,8.7,7.928a3.27,3.27,0,0,1-.118.359s-4.916-8.175-8.918-8.29S414.776,792.919,419.179,788Z" transform="translate(-316.701 -514.512)" opacity="0.1"/>
      <path id="Path_10199" data-name="Path 10199" d="M416.57,797.2c0,1.025.115,1.857.258,1.857s.255-.832.255-1.857-.143-.545-.283-.545S416.57,796.172,416.57,797.2Z" transform="translate(-318.237 -519.992)" fill="#ffd037"/>
      <path id="Path_10200" data-name="Path 10200" d="M411.622,800.533c.9.491,1.685.789,1.753.663s-.606-.624-1.506-1.115-.545-.133-.613,0S410.722,800.042,411.622,800.533Z" transform="translate(-314.712 -522.1)" fill="#ffd037"/>
      <path id="Path_10201" data-name="Path 10201" d="M418.55,831.623s6.232-.19,8.111-1.531,9.592-2.933,10.058-.789,9.366,10.671,2.327,10.729-16.351-1.1-18.226-2.238S418.55,831.623,418.55,831.623Z" transform="translate(-319.507 -540.331)" fill="#a8a8a8"/>
      <path id="Path_10202" data-name="Path 10202" d="M439.172,845.28c-7.035.057-16.351-1.1-18.226-2.238-1.434-.871-2-3.995-2.187-5.432h-.208s.394,5.02,2.27,6.171,11.191,2.295,18.226,2.237c2.033,0,2.736-.738,2.7-1.811C441.459,844.871,440.685,845.28,439.172,845.28Z" transform="translate(-319.507 -546.333)" opacity="0.2"/>
      <path id="Path_10203" data-name="Path 10203" d="M811.734,772.937s-3.984-13.529.746-23.487a21.367,21.367,0,0,0,1.728-13.407,35.981,35.981,0,0,0-1.9-6.293" transform="translate(-570.7 -477.149)" fill="none" stroke="#535461" stroke-miterlimit="10" stroke-width="2"/>
      <path id="Path_10204" data-name="Path 10204" d="M813.616,707.01c0,1.66-3,6.454-3,6.454s-3-4.808-3-6.454a3,3,0,0,1,6.006,0Z" transform="translate(-569.061 -460.702)" fill="#6c63ff"/>
      <path id="Path_10205" data-name="Path 10205" d="M827.4,729.529c-.9,1.391-6.035,3.794-6.035,3.794s.093-5.665.993-7.057a3,3,0,1,1,5.042,3.263Z" transform="translate(-577.886 -474.035)" fill="#6c63ff"/>
      <path id="Path_10206" data-name="Path 10206" d="M824.845,771.419c-1.477.746-7.125.229-7.125.229s2.944-4.844,4.421-5.594a3.01,3.01,0,0,1,2.7,5.379Z" transform="translate(-575.545 -500.23)" fill="#6c63ff"/>
      <path id="Path_10207" data-name="Path 10207" d="M817.185,804.911c-1.334.986-6.985,1.434-6.985,1.434s2.08-5.271,3.414-6.257a3.006,3.006,0,1,1,3.586,4.826Z" transform="translate(-570.722 -521.885)" fill="#6c63ff"/>
      <path id="Path_10208" data-name="Path 10208" d="M802.164,740.076c1.19,1.154,6.73,2.352,6.73,2.352s-1.359-5.5-2.546-6.659a3,3,0,1,0-4.185,4.3Z" transform="translate(-564.984 -480.465)" fill="#6c63ff"/>
      <path id="Path_10209" data-name="Path 10209" d="M792.184,777.9c1.481.746,7.125.229,7.125.229s-2.94-4.844-4.421-5.594a3,3,0,0,0-2.7,5.364Z" transform="translate(-558.156 -504.409)" fill="#6c63ff"/>
      <path id="Path_10210" data-name="Path 10210" d="M789.464,817.146c1.33.986,6.981,1.434,6.981,1.434s-2.08-5.275-3.414-6.261a3.008,3.008,0,1,0-3.586,4.83Z" transform="translate(-556.63 -529.731)" fill="#6c63ff"/>
      <path id="Path_10211" data-name="Path 10211" d="M813.616,707.01c0,1.66-3,6.454-3,6.454s-3-4.808-3-6.454a3,3,0,0,1,6.006,0Z" transform="translate(-569.061 -460.702)" fill="#6a7466"/>
      <path id="Path_10212" data-name="Path 10212" d="M827.4,729.529c-.9,1.391-6.035,3.794-6.035,3.794s.093-5.665.993-7.057a3,3,0,1,1,5.042,3.263Z" transform="translate(-577.886 -474.035)" fill="#6a7466"/>
      <path id="Path_10213" data-name="Path 10213" d="M824.845,771.419c-1.477.746-7.125.229-7.125.229s2.944-4.844,4.421-5.594a3.01,3.01,0,0,1,2.7,5.379Z" transform="translate(-575.545 -500.23)" fill="#6a7466"/>
      <path id="Path_10214" data-name="Path 10214" d="M817.185,804.911c-1.334.986-6.985,1.434-6.985,1.434s2.08-5.271,3.414-6.257a3.006,3.006,0,1,1,3.586,4.826Z" transform="translate(-570.722 -521.885)" fill="#6a7466"/>
      <path id="Path_10215" data-name="Path 10215" d="M802.164,740.076c1.19,1.154,6.73,2.352,6.73,2.352s-1.359-5.5-2.546-6.659a3,3,0,1,0-4.185,4.3Z" transform="translate(-564.984 -480.465)" fill="#6a7466"/>
      <path id="Path_10216" data-name="Path 10216" d="M792.184,777.9c1.481.746,7.125.229,7.125.229s-2.94-4.844-4.421-5.594a3,3,0,0,0-2.7,5.364Z" transform="translate(-558.156 -504.409)" fill="#6a7466"/>
      <path id="Path_10217" data-name="Path 10217" d="M789.464,817.146c1.33.986,6.981,1.434,6.981,1.434s-2.08-5.275-3.414-6.261a3.008,3.008,0,1,0-3.586,4.83Z" transform="translate(-556.63 -529.731)" fill="#6a7466"/>
      <path id="Path_10218" data-name="Path 10218" d="M788.27,839.347s4.855-.965,6.146-2.248,7.118-3.532,7.767-1.925,8.731,7.064,3.227,8.028-12.941,1.284-14.558.642S788.27,839.347,788.27,839.347Z" transform="translate(-556.655 -544.412)" fill="#a8a8a8"/>
      <path id="Path_10219" data-name="Path 10219" d="M805.417,850.989c-5.5.965-12.941,1.287-14.558.646-1.23-.491-2.087-2.84-2.428-3.944l-.161.032s.972,3.855,2.589,4.5,9.058.323,14.558-.642c1.585-.28,2.04-.932,1.868-1.757C807.149,850.369,806.6,850.784,805.417,850.989Z" transform="translate(-556.655 -552.799)" opacity="0.2"/>
      <path id="Path_10220" data-name="Path 10220" d="M263.266,97.262v.129a.41.41,0,0,0,0,.068v.384a.047.047,0,0,1,0,.022V98.1l-.032.251a.839.839,0,0,1-.029.165h0a.658.658,0,0,0,0,.082v.05a.181.181,0,0,1,0,.043.15.15,0,0,1-.018.086c-.018.029,0,.057-.018.086s0,.043,0,.065a1.118,1.118,0,0,1-.025.111h0a.565.565,0,0,1-.018.075.888.888,0,0,1-.025.093.423.423,0,0,1-.029.111.087.087,0,0,0,0,.029.354.354,0,0,1-.036.115c-.032.115-.072.233-.111.359,0,.036-.029.072-.039.108a.4.4,0,0,1-.025.061,7.8,7.8,0,0,1-1.047,1.915l-.082.108a7.942,7.942,0,0,1-.674.767l-11.3,11.2-11.187-11.187a7.968,7.968,0,0,1-.879-1.043,7.7,7.7,0,0,1-.455-.717,7.929,7.929,0,0,1-.957-4.5,2.927,2.927,0,0,1,.05-.43q.054-.359.14-.753a.525.525,0,0,1,.039-.147l.021-.079v-.043l.032-.115h0c.025-.086.054-.172.082-.258s.025-.079.039-.118c.057-.169.122-.333.194-.5l.043-.1.065-.147.115-.237h0c0-.036.036-.072.057-.108a.951.951,0,0,1,.065-.118c.025-.05.054-.1.082-.147a.707.707,0,0,0,.039-.072.147.147,0,0,0,.025-.039h0l.054-.086c.021-.032.039-.065.061-.093l.143-.215.05-.072.065-.09.068-.093.086-.111.075-.093.029-.036.054-.065a1.233,1.233,0,0,1,.09-.1.531.531,0,0,1,.036-.047h0l.065-.075.079-.082c.068-.075.14-.151.215-.222l.086-.086.133-.126.09-.082.108-.093.068-.061.072-.057.14-.115.072-.057c.122-.093.244-.183.359-.265l.072-.05.075-.05.072-.047.1-.065.054-.032.075-.047c.1-.057.208-.118.312-.172l.061-.032.1-.05.079-.036.082-.039.079-.039.079-.036.082-.036c.108-.047.219-.09.326-.129l.082-.032.086-.032.079-.025.065-.021.151-.05.122-.082.061-.018h.061l.111-.032.143-.036c.147-.036.3-.068.448-.1h.409c.143,0,.287-.032.434-.043h1.2c.118,0,.233.022.359.032l.158.022h.333c.151.029.3.061.445.1l.183.047h.05l.079.022.151.043.065.022.326.111.072.029.1.036.151.061.165.072.065.029.093.043.079.039.079.036.1.054.079.039.183.1.075.043.265.161.072.047.075.05.072.05h0l.05.032.312.229.072.057.14.115.072.057.068.061.108.093.09.082.133.126.086.086.09-.086c.043-.043.086-.086.133-.126a.975.975,0,0,1,.09-.082l.1-.093.072-.061.068-.057.143-.115.072-.057c.122-.093.244-.183.359-.265l.075-.05.075-.05.072-.047.1-.065.054-.032.075-.047c.1-.057.208-.118.312-.172l.061-.032.1-.05.079-.036.079-.039.082-.039.079-.036.082-.036c.108-.047.215-.09.326-.129l.079-.032.09-.032.079-.025.065-.022.151-.05.075-.022.065-.018h.061l.108-.032.143-.036q.226-.054.452-.1h.405c.143,0,.29-.032.434-.043h1.2l.359.032.154.022h.337c.147.029.3.061.445.1l.183.047h.05l.079.022.151.043.065.022.326.111.072.029.1.036.147.061.169.072.065.029.09.043.079.039.082.036.1.054.079.039.183.1.079.043.265.161.068.047.075.05.079.057h0l.047.032c.108.075.212.151.312.229a.553.553,0,0,1,.072.057c.05.036.1.075.143.115l.072.057.068.061.093.079.09.082.05.05h0l.086.082.039.039.047.047.086.086.133.14a.792.792,0,0,1,.072.082c.043.043.082.09.125.136l.129.154a6.434,6.434,0,0,1,.412.559.537.537,0,0,1,.075.061.676.676,0,0,1,.057.082l.047.075.079.125.068.118.039.072.032.057.032.057.047.086.043.086c.1.2.2.409.283.617l.036.09c.032.086.065.172.093.258a.722.722,0,0,1,.029.079.4.4,0,0,0,.036.111l.032.1.022.065a.368.368,0,0,0,.025.09l.032.115c.018.061.032.126.047.186s.018.065.025.1.018.09.029.136a.357.357,0,0,0,0,.061v1.036h0a84.24,84.24,0,0,1,0,.143v.118h0v.122Z" transform="translate(-202.576 -66.392)" fill="#b0463d"/>
      <path id="Path_10221" data-name="Path 10221" d="M263.669,97.262v.129a.41.41,0,0,0,0,.068v.384a.047.047,0,0,1,0,.022V98.1l-.032.251a.836.836,0,0,1-.029.165h0a.652.652,0,0,0,0,.082v.05a.184.184,0,0,1,0,.043.15.15,0,0,1-.018.086c-.018.029,0,.057-.018.086s0,.043,0,.065a1.136,1.136,0,0,1-.025.111h0a.589.589,0,0,1-.018.075.911.911,0,0,1-.025.093.424.424,0,0,1-.029.111.085.085,0,0,0,0,.029.354.354,0,0,1-.036.115c-.032.115-.072.233-.111.359,0,.036-.029.072-.039.108a.4.4,0,0,1-.025.061,7.889,7.889,0,0,0-2.1-7.448,8.018,8.018,0,0,0-1.352-1.076c-.143-.09-.287-.176-.434-.255a7.889,7.889,0,0,0-8.473.47,7.6,7.6,0,0,0-1.033.871,8.669,8.669,0,0,0-.968-.825h0a8.208,8.208,0,0,0-.818-.516,7.921,7.921,0,0,0-7.62,0,8.191,8.191,0,0,0-1.126.749,8.02,8.02,0,0,0-1.528,1.621c-.158.222-.3.452-.437.685h0a7.445,7.445,0,0,0-.337.678c-.057.126-.111.255-.161.384a.525.525,0,0,1,.039-.147l.021-.079v-.043l.032-.115h0c.025-.086.054-.172.082-.258s.025-.079.039-.118c.057-.169.122-.333.194-.5l.043-.1.065-.147.115-.237h0c0-.036.036-.072.057-.108a.961.961,0,0,1,.065-.118c.025-.05.054-.1.082-.147a.707.707,0,0,0,.039-.072.146.146,0,0,0,.025-.039h0l.054-.086c.022-.032.039-.065.061-.093l.143-.215.05-.072.065-.09.068-.093.086-.111.075-.093.029-.036.054-.065a1.243,1.243,0,0,1,.09-.1A.524.524,0,0,1,238.59,92h0l.065-.075.079-.082c.068-.075.14-.151.215-.222l.086-.086.133-.125.09-.082.108-.093.068-.061.072-.057.14-.115.072-.057c.122-.093.244-.183.359-.265l.072-.05.075-.05.072-.047.1-.065.054-.032.075-.047c.1-.057.208-.118.312-.172l.061-.032.1-.05.079-.036.082-.039.079-.039.079-.036.083-.036c.108-.047.219-.09.326-.129l.082-.032.086-.032.079-.025.065-.022.151-.05.115-.057.061-.018h.061l.111-.032.143-.036c.147-.036.3-.068.448-.1h.409c.143,0,.287-.032.434-.043h1.2c.118,0,.233.022.359.032l.158.022h.333c.151.029.3.061.445.1l.183.047h.05l.079.022.151.043.065.022.326.111.072.029.1.036.151.061.165.072.065.029.093.043.079.039.079.036.1.054.079.039.183.1.075.043.265.161.072.047.075.05.072.05h0l.05.032.312.229.072.057.14.115.072.057.068.061.108.093.09.082.133.126.086.086.09-.086c.043-.043.086-.086.133-.126a.974.974,0,0,1,.09-.082l.1-.093.072-.061.068-.057.143-.115.072-.057c.122-.093.244-.183.359-.265l.075-.05.075-.05.072-.047.1-.065.054-.032.075-.047c.1-.057.208-.118.312-.172l.061-.032.1-.05.079-.036.079-.039.082-.039.079-.036.082-.036c.108-.047.215-.09.326-.129l.079-.032.09-.032.079-.025.065-.022.151-.05.075-.022.065-.018h.061l.108-.032.143-.036q.226-.054.452-.1h.405c.143,0,.29-.032.434-.043h1.2l.359.032.154.022h.337c.147.029.3.061.445.1l.183.047h.05l.079.022.151.043.065.022.326.111.072.029.1.036.147.061.168.072.065.029.09.043.079.039.082.036.1.054.079.039.183.1.079.043.265.161.068.047.075.05.079.057h0l.047.032c.108.075.212.151.312.229a.554.554,0,0,1,.072.057c.05.036.1.075.143.115l.072.057.068.061.093.079.09.082.05.05h0l.086.082.039.039.047.047.086.086.133.14a.788.788,0,0,1,.072.082c.043.043.082.09.125.136l.129.154a6.422,6.422,0,0,1,.412.559.537.537,0,0,1,.075.061.673.673,0,0,1,.057.082l.047.075.079.125.068.118.039.072.032.057.032.057.047.086.043.086c.1.2.2.409.283.617l.036.09c.032.086.065.172.093.258a.71.71,0,0,1,.029.079.4.4,0,0,0,.036.111l.032.1.022.065a.367.367,0,0,0,.025.09l.032.115c.018.061.032.126.047.186s.018.065.025.1.018.09.029.136a.363.363,0,0,0,0,.061v1.036h0a.469.469,0,0,1,0,.072.469.469,0,0,1,0,.072v.118h0v.122Z" transform="translate(-202.979 -66.392)" opacity="0.1"/>
    </g>
  </g>
</svg>
